<?xml version="1.0" encoding="utf-8"?>
<!-- Generator: Adobe Illustrator 21.1.0, SVG Export Plug-In . SVG Version: 6.00 Build 0)  -->
<svg version="1.1" id="Layer_1" xmlns="http://www.w3.org/2000/svg" xmlns:xlink="http://www.w3.org/1999/xlink" x="0px" y="0px"
	 viewBox="0 0 80 80" style="enable-background:new 0 0 80 80;" xml:space="preserve">
<style type="text/css">
	.st0{fill:#231F20;}
</style>
<g>
	<path class="st0" d="M57.8,38c2.7-3.8,3.1-8.5,3.1-14c0-12.1-6.6-22.3-25.9-22.3c-19.2,0-34.8,9.8-34.8,21.9
		c0,12.1,8.5,21.5,27.8,21.5c2.2,0,11.3,0.2,13.3,0c6.8-0.3,17-1.9,27.4-5.7c4.5-1.6,9.4-7.2,11.4-8.5C72.7,36.2,62.4,37.8,57.8,38z
		 M32.1,16.2c0.2-0.4,0.6-0.8,0.8-1.1c0.5-0.6,1.1-0.8,1.8-0.9c1.2-0.2,3,0,4,1c1,1,1.5,2.8,1.3,4.1c-0.2,1.5-0.9,2.4-2.2,3.1
		c-1.3,0.6-3,0.7-4.3-0.2c-0.5-0.4-1.2-0.8-1.5-1.4c-0.3-0.6-0.4-1.5-0.4-2.1C31.5,17.8,31.6,16.7,32.1,16.2z M22.3,34.9
		c-0.6,0-1.3,0-1.9,0c0-0.3,0-0.5,0-0.8c-0.1-1.2-0.2-2.4-0.3-3.6c-0.1-0.8-0.2-3-1.7-1.9c-0.8,0.6-0.7,2.3-0.8,3.2
		c-0.1,1-0.1,1.9,0.1,3.3c0,0-1.2,0-1.8,0c0-0.5,0-0.8,0-1.3c0-1.1,0-6.9-2.2-5.5c-0.7,0.4-1,2.4-1,3.2c0,1.2,0.2,2.4,0.3,3.6
		c-0.6,0-1.1,0.1-1.7,0c-0.1-2.6-0.3-5.5-0.3-8c0.7,0,1.5,0,1.5,0s0.3,0.4,0.3,1c0.4-1.9,3.9-1.5,4.4,0.1c1.1-1.4,4-1.9,4.7,0.3
		c0.3,0.9,0.1,2.2,0.2,3.2C22.3,32.4,22.6,34,22.3,34.9z M22.3,22.6c-0.6,0-1.3,0-1.9,0c0-0.3,0-0.5,0-0.8c-0.1-1.2-0.2-2.4-0.3-3.6
		c-0.1-0.8-0.2-3-1.7-1.9c-0.8,0.6-0.7,2.3-0.8,3.2c-0.1,1-0.1,1.9,0.1,3.3c0,0-1.2,0-1.8,0c0-0.5,0-0.8,0-1.3c0-1.1,0-6.9-2.2-5.5
		c-0.7,0.4-1,2.4-1,3.2c0,1.2,0.2,2.4,0.3,3.6c-0.6,0-1.1,0.1-1.7,0c-0.1-2.6-0.3-5.5-0.3-8c0.7,0,1.5,0,1.5,0s0.3,0.4,0.3,1
		c0.4-1.9,3.9-1.5,4.4,0.1c1.1-1.4,4-1.9,4.7,0.3c0.3,0.9,0.1,2.2,0.2,3.2C22.3,20.2,22.6,21.8,22.3,22.6z M30.7,31.1
		c-0.9-0.1-1.9,0-2.8,0c-0.5,0-1,0-1.5,0c-0.2,0-0.5,0-0.8,0l-0.4,0c-0.2,0.1-0.2,0.1-0.3,0.2c-0.1,0.8,0.7,2.2,1.5,2.4
		c0.4,0.1,1.3,0,1.6-0.3c0.3-0.3,0.7-0.8,0.7-1.2c0.6-0.1,1.1,0.3,1.7,0.4c-0.1,0.8-0.7,1.4-1.3,1.9c-0.7,0.6-1.7,0.7-2.5,0.6
		c-0.6-0.1-1-0.2-1.5-0.5c-0.5-0.3-0.8-0.6-1.2-1c-0.6-0.8-0.9-2-0.8-3c0-1,0.4-2.3,1.2-3c0.4-0.4,0.7-0.6,1.1-0.8
		c0.2-0.1,0.6-0.1,0.8-0.2c0.3-0.1,0.6,0,0.9,0c0.5,0,1.1,0.1,1.6,0.3c0.5,0.2,0.8,0.6,1.1,1C30.4,28.9,30.8,30,30.7,31.1z
		 M30.7,18.8c-0.9-0.1-1.9,0-2.8,0c-0.5,0-1,0-1.5,0c-0.2,0-0.5,0-0.8,0l-0.4,0C25.1,18.9,25,18.9,25,19c-0.1,0.8,0.7,2.2,1.5,2.4
		c0.4,0.1,1.3,0,1.6-0.3c0.3-0.3,0.7-0.8,0.7-1.2c0.6-0.1,1.1,0.3,1.7,0.4c-0.1,0.8-0.7,1.4-1.3,1.9c-0.7,0.6-1.7,0.7-2.5,0.6
		c-0.6-0.1-1-0.2-1.5-0.5c-0.5-0.3-0.8-0.6-1.2-1c-0.6-0.8-0.9-2-0.8-3c0-1,0.4-2.3,1.2-3c0.4-0.4,0.7-0.6,1.1-0.8
		c0.2-0.1,0.6-0.1,0.8-0.2c0.3-0.1,0.6,0,0.9,0c0.5,0,1.1,0.1,1.6,0.3c0.5,0.2,0.8,0.6,1.1,1C30.4,16.6,30.8,17.7,30.7,18.8z
		 M40,31.6c-0.2,1.5-0.9,2.4-2.2,3.1c-1.3,0.6-3,0.7-4.3-0.2c-0.5-0.4-1.2-0.8-1.5-1.4c-0.3-0.6-0.4-1.5-0.4-2.1
		c-0.1-0.8,0-2,0.5-2.4c0.2-0.4,0.6-0.8,0.8-1.1c0.5-0.6,1.1-0.8,1.8-0.9c1.2-0.2,3,0,4,1C39.7,28.5,40.1,30.3,40,31.6z M52.3,27.8
		c-0.1,0.3-0.3,0.7-0.4,1c-0.2,0.3-0.4,0.6-0.5,1c-0.1,0.4-0.7,1.8-0.9,2.2c-0.2,0.4-0.4,0.9-0.6,1.4L49.1,35l-0.7,0
		c0,0-0.5-0.7-0.6-1.1c-0.1-0.4-0.7-2-0.9-2.4c-0.2-0.4-0.5-0.9-0.7-1.4c0,0,0,0,0,0s-0.2,0.6-0.3,0.7c-0.1,0.2-0.2,0.4-0.3,0.6
		c-0.2,0.4-0.4,0.8-0.5,1.2c-0.1,0.4-0.3,0.8-0.5,1.2c-0.2,0.4-0.4,1.2-0.4,1.2l-1,0c0,0-0.3-0.6-0.4-0.8c-0.3-0.6-0.6-1.3-0.8-2
		l-1.3-2.7c-0.3-0.9-1.2-2.7-1.2-2.7l1.3,0.1c0,0,0.6,0,1,0.1c0,0,0,0.1,0.1,0.1l0.6,1.5c0.2,0.4,0.7,1.8,0.8,2.2
		c0.1,0.4,0.5,1.3,0.5,1.3s0.2-0.7,0.4-1c0.4-0.9,0.7-1.8,1-2.7c0.2-0.4,0.6-1.7,0.6-1.7l0.7,0c0,0,0.1,0.3,0.2,0.5
		c0.4,0.8,0.7,1.4,1,2.3c0.2,0.5,0.4,1,0.6,1.5c0.1,0.4,0.3,0.8,0.4,1.2c0,0,0,0,0,0c0.1,0,0.4-1.1,0.5-1.3c0.2-0.4,0.7-2.2,0.9-2.6
		c0.2-0.3,0.6-1.2,0.6-1.2l2.2,0C52.7,26.9,52.4,27.5,52.3,27.8z M52.3,15.5c-0.1,0.3-0.3,0.7-0.4,1c-0.2,0.3-0.4,0.6-0.5,1
		c-0.1,0.4-0.7,1.8-0.9,2.2c-0.2,0.4-0.4,0.9-0.6,1.4l-0.8,1.7l-0.7,0c0,0-0.5-0.7-0.6-1.1c-0.1-0.4-0.7-2-0.9-2.4
		c-0.2-0.4-0.5-0.9-0.7-1.4c0,0,0,0,0,0s-0.2,0.6-0.3,0.7c-0.1,0.2-0.2,0.4-0.3,0.6c-0.2,0.4-0.4,0.8-0.5,1.2
		c-0.1,0.4-0.3,0.8-0.5,1.2c-0.2,0.4-0.4,1.2-0.4,1.2l-1,0c0,0-0.3-0.6-0.4-0.8c-0.3-0.6-0.6-1.3-0.8-2l-1.3-2.7
		c-0.3-0.9-1.2-2.7-1.2-2.7l1.3,0.1c0,0,0.6,0,1,0.1c0,0,0,0.1,0.1,0.1l0.6,1.5c0.2,0.4,0.7,1.8,0.8,2.2c0.1,0.4,0.5,1.3,0.5,1.3
		s0.2-0.7,0.4-1c0.4-0.9,0.7-1.8,1-2.7c0.2-0.4,0.6-1.7,0.6-1.7l0.7,0c0,0,0.1,0.3,0.2,0.5c0.4,0.8,0.7,1.4,1,2.3
		c0.2,0.5,0.4,1,0.6,1.5c0.1,0.4,0.3,0.8,0.4,1.2c0,0,0,0,0,0c0.1,0,0.4-1.1,0.5-1.3c0.2-0.4,0.7-2.2,0.9-2.6
		c0.2-0.3,0.6-1.2,0.6-1.2l2.2,0C52.7,14.6,52.4,15.2,52.3,15.5z"/>
	<path class="st0" d="M56.6,45.9C43.7,45.9,31,51.8,31,59c0,2.8,0.9,5.4,2.8,7.5c-4.5,4.9-29.9-2-33.8-3.1
		c16.2,7.3,42.9,12.5,46.5,13c3.2,0.3,9.2,0.9,13,0.9C72.5,77.3,80,66.3,80,59C80,51.8,69.5,45.9,56.6,45.9z M41.9,59.4l-1.4,0.1
		c0,0,0,1.1,0,1.7c0,0.3,0,1,0,1s0,0.6,0,1c0,0.7,0.1,2,0.1,2s-0.7,0.1-1,0.1c-0.3,0-0.9-0.1-0.9-0.1s0-1.1,0-1.6
		c0-0.7-0.1-1.3-0.1-2c0-0.3,0-0.7,0-1c0-0.3,0-1,0-1s-0.3,0-0.4,0c-0.2,0-0.4,0-0.4,0l0-1.5c0,0,0,0,0.3,0c0.2,0,0.4,0,0.6,0
		c0-0.2,0-1.1,0-1.3c-0.1-0.4,0-1.4,0-1.4s0.6,0,0.9,0c0.3,0,0.9,0,0.9,0s0,0.9,0,1.3c0,0.4,0,1.3,0,1.3s0.5,0,0.7,0
		c0.2,0,0.7,0,0.7,0s0,0.5,0,0.7C41.9,58.9,41.9,59.4,41.9,59.4z M53.9,59.5c-0.2,0.3-0.3,0.6-0.4,0.9c-0.1,0.3-0.7,1.6-0.9,2
		c-0.2,0.4-0.3,0.8-0.5,1.2l-0.7,1.5l-0.7,0c0,0-0.4-0.7-0.5-1c-0.1-0.4-0.7-1.9-0.9-2.2c-0.2-0.3-0.5-0.9-0.6-1.2c0,0,0,0,0,0
		s-0.2,0.5-0.3,0.6c-0.1,0.2-0.2,0.4-0.3,0.6c-0.2,0.4-0.3,0.7-0.5,1.1c-0.1,0.4-0.3,0.8-0.4,1.1c-0.2,0.4-0.4,1.1-0.4,1.1l-0.9,0
		c0,0-0.3-0.5-0.4-0.7c-0.3-0.6-0.6-1.2-0.7-1.8l-1.2-2.5c-0.3-0.9-1.1-2.5-1.1-2.5l1.2,0.1c0,0,0.6,0,0.9,0.1c0,0,0,0.1,0.1,0.1
		l0.5,1.4c0.1,0.4,0.7,1.6,0.8,2c0.1,0.4,0.4,1.2,0.4,1.2s0.2-0.6,0.4-1c0.4-0.8,0.6-1.6,0.9-2.5c0.1-0.4,0.6-1.6,0.6-1.6l0.7,0
		c0,0,0.1,0.3,0.2,0.5c0.3,0.7,0.6,1.3,0.9,2.1c0.2,0.4,0.4,0.9,0.5,1.4c0.1,0.3,0.3,0.8,0.4,1.1c0,0,0,0,0,0c0.1,0,0.4-1,0.5-1.2
		c0.1-0.4,0.7-2,0.8-2.4c0.1-0.3,0.5-1.1,0.5-1.1l2,0c0,0-0.3,0.5-0.4,0.8C54.2,58.8,54.1,59.2,53.9,59.5z M61.5,61.5
		c-0.8-0.1-1.7,0-2.6,0c-0.5,0-0.9,0-1.4,0c-0.2,0-0.5,0-0.7,0l-0.4,0c-0.1,0-0.2,0.1-0.2,0.2c-0.1,0.7,0.7,2,1.4,2.2
		c0.4,0.1,1.2,0,1.5-0.2c0.3-0.2,0.6-0.7,0.6-1.1c0.5-0.1,1,0.3,1.5,0.3c-0.1,0.7-0.6,1.3-1.2,1.8c-0.6,0.5-1.5,0.6-2.3,0.6
		c-0.5,0-1-0.2-1.4-0.5c-0.5-0.2-0.7-0.5-1.1-1c-0.6-0.7-0.8-1.8-0.8-2.7c0-0.9,0.4-2.1,1.1-2.8c0.3-0.4,0.6-0.5,1-0.7
		c0.2-0.1,0.5-0.1,0.7-0.2c0.2-0.1,0.6,0,0.8,0c0.5,0,1,0.1,1.5,0.3c0.4,0.2,0.7,0.6,1,0.9C61.3,59.4,61.6,60.5,61.5,61.5z
		 M69.4,61.5c-0.8-0.1-1.7,0-2.6,0c-0.5,0-0.9,0-1.4,0c-0.2,0-0.5,0-0.7,0l-0.4,0c-0.1,0-0.2,0.1-0.2,0.2c-0.1,0.7,0.7,2,1.4,2.2
		c0.4,0.1,1.2,0,1.5-0.2c0.3-0.2,0.6-0.7,0.6-1.1c0.5-0.1,1,0.3,1.5,0.3c-0.1,0.7-0.6,1.3-1.2,1.8c-0.6,0.5-1.5,0.6-2.3,0.6
		c-0.5,0-1-0.2-1.4-0.5c-0.5-0.2-0.7-0.5-1.1-1c-0.6-0.7-0.8-1.8-0.8-2.7c0-0.9,0.4-2.1,1.1-2.8c0.3-0.4,0.6-0.5,1-0.7
		c0.2-0.1,0.5-0.1,0.7-0.2c0.2-0.1,0.6,0,0.8,0c0.5,0,1,0.1,1.5,0.3c0.4,0.2,0.7,0.6,1,0.9C69.1,59.4,69.5,60.5,69.4,61.5z M74,59.4
		l-1.4,0.1c0,0,0,1.1,0,1.7c0,0.3,0,1,0,1s0,0.6,0,1c0,0.7,0.1,2,0.1,2s-0.7,0.1-1,0.1c-0.3,0-0.9-0.1-0.9-0.1s0-1.1,0-1.6
		c0-0.7-0.1-1.3-0.1-2c0-0.3,0-0.7,0-1c0-0.3,0-1,0-1s-0.3,0-0.4,0c-0.2,0-0.4,0-0.4,0l0-1.5c0,0,0,0,0.3,0c0.2,0,0.4,0,0.6,0
		c0-0.2,0-1.1,0-1.3c-0.1-0.4,0-1.4,0-1.4s0.6,0,0.9,0c0.3,0,0.9,0,0.9,0s0,0.9,0,1.3c0,0.4,0,1.3,0,1.3s0.5,0,0.7,0
		c0.2,0,0.7,0,0.7,0s0,0.5,0,0.7C74,58.9,74,59.4,74,59.4z"/>
</g>
</svg>
