<svg id="Layer_1" data-name="Layer 1" xmlns="http://www.w3.org/2000/svg" viewBox="0 0 405.58 405"><defs><style>.cls-1{fill:#f8dd3a;}</style></defs><title>announcement-1</title><path class="cls-1" d="M57.64,101.92c6.74.23,13.34.46,20,.67,5.92.18,11.86.32,17.79.5,8.46.26,16.92.52,25.38.83,5.93.22,11.87.52,17.8.78,6.79.29,13.59.62,20.39.83,2.85.08,5.7-.15,8.55-.19,3.09,0,6.17,0,9.25-.07,2.89,0,5.78-.17,8.68-.21s6,0,9-.09c.81,0,1.62,0,2.42-.08,2.11-.2,3.49,1.37,5.2,2.15a32.83,32.83,0,0,1,3.11,1.86c-2.16.79-4,1.48-5.87,2.14-1.56.56-3.12,1.15-4.72,1.58a17.61,17.61,0,0,1-3.62.56c-2.56.13-5.14.09-7.7.2s-5.41.36-8.11.5-5.58.23-8.37.35l-7.55.31-8.83.39c-1.29.06-2.56.15-3.85.2-3.12.14-6.25.24-9.37.4a29.56,29.56,0,0,0-8.75,1.68,45.53,45.53,0,0,1-4.56,1.2c-4.24,1.07-8.5,2.09-12.74,3.21-5.32,1.42-10.58,3.13-15.95,4.34-5.83,1.31-11.73,2.28-17.63,3.26-10.63,1.78-21.31,3.33-31.93,5.22-5.43,1-10.78,2.43-16.16,3.7a1.28,1.28,0,0,0-.83.67c-.94,2.5-1.81,5-2.7,7.55-.32.88.07,1.07.9,1.08,4.94.05,9.88.11,14.81.22,4.46.09,8.92.32,13.39.4s9.12.05,13.67.11,9.31.25,14,.28c2.94,0,5.88-.17,8.82-.2,2.75,0,5.5.05,8.24,0s5.41-.09,8.12-.1c3.79,0,7.59,0,11.37,0,2.91,0,5.8-.18,8.7-.21,2.75,0,5.5,0,8.25,0s5.51,0,8.27-.07l10.94-.1,8.53-.07c2.8,0,5.61-.09,8.41-.11s5.69,0,8.54,0c5.69.11,11.39.27,17.08.42,1.1,0,2.19.1,3.28.17a1.37,1.37,0,0,1,1.5,1.36c.11,1.1.33,2.18.54,3.26.17.89-.17,1.34-1,1.52-2.57.51-5.15,1-7.7,1.61-2.27.53-4.5,1.24-6.77,1.74-1.1.24-2.27.11-3.4.26-2.18.3-4.35.76-6.54,1-3.78.43-7.58.74-11.37,1.13-1.05.11-2.08.36-3.12.5-4.45.6-8.9,1.2-13.36,1.77-3.12.4-6.25.76-9.38,1.13-2.93.35-5.86.83-8.81,1-3.79.22-7.28,1.56-10.88,2.51-2.9.76-5.83,1.42-8.73,2.2s-5.47,1.6-8.21,2.39c-1.33.37-2.67.71-4,1.05-4.14,1-8.3,2-12.42,3.14-3.85,1-7.66,2.24-11.52,3.28-3.08.83-6.19,1.5-9.29,2.28-3.74,1-7.46,1.94-11.2,2.9-1.74.44-3.5.85-5.26,1.24-2.42.54-4.85,1-7.26,1.59-3.84.93-7.61,2.17-11.5,2.82s-6.43,3.18-9.51,5c-1.92,1.14-3.77,2.42-5.69,3.58a2.33,2.33,0,0,0-1.18,2.65c.39,2.37.79,4.74,1.15,7.11.14.93.48,1.27,1.53,1.15,4.16-.5,8.33-.9,12.5-1.3,3.41-.33,6.83-.61,10.24-.9l10.23-.91c3.51-.31,7-.71,10.53-.92,4-.25,8-.29,12.08-.5,2.8-.14,5.59-.43,8.39-.58s5.6-.2,8.4-.32c1.42-.05,2.84-.15,4.27-.23,4.46-.22,8.92-.42,13.39-.67,3.94-.22,7.87-.52,11.82-.73s8-.32,12-.52c2.86-.14,5.7-.37,8.55-.56a31.82,31.82,0,0,0,3.4-.22q13.67-2.34,27.3-4.74c8.06-1.41,16.14-2.73,24.15-4.35,2.48-.51,3.69.9,5.15,2.16.19.16.09,1.06-.16,1.27a12.63,12.63,0,0,1-5.52,2.85c-3.72.74-7.37,1.85-11.06,2.79-1.71.43-3.43.82-5.15,1.22-2,.47-4.1.9-6.13,1.4-4,1-7.93,2-11.9,3-2.09.51-4.19.94-6.28,1.46-4,1-7.92,2-11.88,3-1.71.43-3.44.76-5.14,1.24-3.43,1-6.83,2-10.26,3-2.23.66-4.46,1.28-6.7,1.94-2.45.72-4.89,1.5-7.34,2.23-2.09.63-4.2,1.2-6.29,1.83-4.55,1.39-9.11,2.73-13.63,4.22-3.52,1.15-7,2.49-10.48,3.74L68.9,234.07c-4.57,1.61-9.08,3.42-13.73,4.75s-8.36,3.84-12.1,6.59C35.52,251,27.93,256.47,20.36,262c-.31.23-.58.49-1.19,1,1.77.41,3.25.78,4.75,1.08,3.23.65,6.46,1.38,9.72,1.85a16.45,16.45,0,0,0,4.1-.35l10.51-1.3,9.38-1.14L67.44,262c3.12-.38,6.25-.75,9.37-1.14,3.37-.41,6.73-.84,10.1-1.23a50.63,50.63,0,0,0,5.1-.54c3.61-.81,7.18-1.83,10.77-2.77,1.42-.37,2.85-.74,4.29-1.08,1.89-.45,3.81-.81,5.69-1.3,3.36-.87,6.7-1.79,10-2.69,1.47-.39,3-.77,4.43-1.13,3.37-.8,6.76-1.55,10.13-2.38q6.07-1.5,12.13-3.09c4.19-1.09,8.34-2.34,12.56-3.28a54.71,54.71,0,0,1,6.81-.64,5.43,5.43,0,0,0,.57,0c3.32-.41,6.63-.85,9.95-1.22,4.46-.51,8.92-1,13.38-1.42,3.6-.36,7.21-.64,10.81-1,4.65-.47,9.28-1,13.93-1.47,3.64-.37,7.3-.65,10.94-1,5.07-.53,10.14-1.11,15.21-1.69,3-.34,6-.71,9-1.08,3.6-.45,7.19-.94,10.8-1.34,1.92-.21,3.84-.27,6.19-.42-2.21,2.11-4.24,3.89-6.08,5.84-7.64,8.11-16.69,14.45-25.7,20.86-5.08,3.6-10,7.41-15.07,11-6.23,4.44-12.51,8.8-18.81,13.15s-12.69,8.69-19.07,13c-3.85,2.6-7.88,4.94-11.57,7.73-1.81,1.36-3.14,3.43-4.52,5.3-1.83,2.5-3.51,5.13-5.23,7.71-1,1.43-1.88,2.88-2.79,4.32a1.36,1.36,0,0,0-.24.8c.64,4.11,1.32,8.22,2,12.58,2.24-.53,4.36-.85,6.36-1.54,4.08-1.4,8.11-3,12.12-4.53a271.75,271.75,0,0,0,28.19-13.48c5.73-3.06,11.47-6.13,17.33-8.95S238.21,298.59,244,296c6.91-3.15,13.78-6.37,20.68-9.53,4-1.83,8-3.7,12-5.37a33.17,33.17,0,0,1,5.39-1.33c2.65-.58,5.33-1.07,8-1.66,3.53-.79,7.06-1.59,10.57-2.46,2.07-.5,4.08-1.31,6.17-1.64a39.9,39.9,0,0,1,5.69-.17c2.32,0,4.65,0,7-.09,2.14,0,4.27-.14,6.4-.18,3.18-.06,6.35-.09,9.53-.13s6.17-.05,9.25-.1c2.14,0,4.28-.16,6.42-.21s4.08-.06,6.12-.1c2.38,0,4.75-.11,7.12-.15,3.28-.06,6.55-.07,9.82-.15,3.09-.07,6.17-.21,9.26-.32.15,0,.32-.1.43,0,1.94,1,2.38-.67,3.26-1.75a80.33,80.33,0,0,1,6-6.76A10,10,0,0,0,396,258q1.92-11.25,4-22.47c1.82-10.11,3.7-20.21,5.45-30.33a33.69,33.69,0,0,0,.14-5.69q0-6.57,0-13.13c0-3.47-.08-6.94-.07-10.42s.07-7,.08-10.53c0-2.66-.08-5.33-.09-8,0-3.52,0-7,0-10.56s-.1-7-.12-10.55c0-3.14-.08-6.29.07-9.42,0-1-.51-1.18-1.06-1.41-2.29-1-4.62-1.85-6.93-2.76q-7.08-2.78-14.16-5.53l-13-5.05c-3.56-1.4-7.06-3-10.69-4.17-3-1-6.2-1.58-9.32-2.29-4.93-1.12-9.88-2.2-14.82-3.3Q324.75,100,314,97.57c-7.65-1.72-15.27-3.58-23-5.12-5-1-10.08-1.59-15.13-2.27-4.21-.57-8.43-1-12.65-1.51L245,86.56c-5.55-.64-11.09-1.31-16.64-1.94q-10-1.14-20.06-2.23c-3.64-.4-7.28-.89-10.94-1.1-4.74-.28-9.49-.29-14.24-.46s-9.59-.41-14.38-.57-9.6-.26-14.39-.41c-5.32-.17-10.65-.25-16-.58a51.93,51.93,0,0,0-16.69,1.63c-3.74,1-7.64,1.31-11.47,2-5.31,1-10.61,2-15.94,2.91Q76.6,88.87,58.9,91.87c-1.89.32-2,.56-1.85,2.43s.16,4,.27,6a12.22,12.22,0,0,0,.32,1.62"/></svg>