<svg id="Layer_1" data-name="Layer 1" xmlns="http://www.w3.org/2000/svg" viewBox="0 0 405.58 405"><defs><style>.cls-1{fill:#f8dd3a;}</style></defs><title>announcement</title><path class="cls-1" d="M244.93,27.46c1.66,6.54,3.27,12.94,4.92,19.34,1.48,5.74,3,11.48,4.49,17.22q3.16,12.3,6.28,24.61c1.45,5.76,2.8,11.55,4.22,17.32,1.61,6.6,3.19,13.22,4.89,19.8.71,2.76,1.73,5.44,2.57,8.16.9,3,1.73,5.92,2.64,8.87.85,2.76,1.77,5.5,2.63,8.27s1.72,5.74,2.58,8.6c.23.78.47,1.55.76,2.3.78,2-.34,3.74-.62,5.59a36.19,36.19,0,0,1-.91,3.51c-1.36-1.86-2.55-3.44-3.7-5-1-1.35-2-2.68-2.83-4.09a17.6,17.6,0,0,1-1.55-3.32c-.84-2.43-1.52-4.91-2.34-7.34s-1.86-5.09-2.74-7.65-1.78-5.29-2.67-7.94c-.8-2.39-1.61-4.78-2.41-7.16-.95-2.79-1.89-5.59-2.84-8.38-.41-1.21-.85-2.41-1.26-3.64-1-2.95-2-5.93-3-8.88a29.29,29.29,0,0,0-4-7.93,40.86,40.86,0,0,1-2.42-4.05c-2.22-3.77-4.38-7.58-6.65-11.33-2.85-4.72-5.95-9.3-8.61-14.11-2.89-5.23-5.46-10.63-8.05-16-4.67-9.72-9.15-19.54-13.92-29.21C207.9,20,205,15.29,202.28,10.48a1.31,1.31,0,0,0-.88-.62c-2.66-.2-5.33-.33-8-.49-.94,0-1,.38-.79,1.17,1.33,4.76,2.66,9.52,3.93,14.29,1.15,4.31,2.18,8.66,3.34,13s2.5,8.77,3.71,13.16,2.36,9,3.63,13.49c.8,2.83,1.81,5.6,2.66,8.42.79,2.62,1.48,5.28,2.26,7.92s1.59,5.17,2.35,7.76c1.07,3.64,2.09,7.3,3.18,10.93.84,2.78,1.8,5.52,2.64,8.29s1.49,5.29,2.26,7.93,1.58,5.28,2.38,7.92q1.58,5.23,3.14,10.48c.82,2.73,1.63,5.46,2.45,8.18s1.65,5.35,2.45,8,1.63,5.46,2.37,8.21c1.48,5.5,2.92,11,4.37,16.52.28,1.06.51,2.13.75,3.2a1.38,1.38,0,0,1-.89,1.82c-1,.41-2,.92-3,1.43a1.13,1.13,0,0,1-1.75-.59c-1.21-2.33-2.42-4.66-3.7-7-1.14-2-2.45-4-3.56-6-.54-1-.74-2.15-1.2-3.19-.9-2-1.94-4-2.79-6-1.47-3.51-2.83-7.07-4.26-10.61-.4-1-.92-1.89-1.35-2.85q-2.73-6.16-5.42-12.34c-1.26-2.88-2.47-5.79-3.7-8.68-1.16-2.73-2.44-5.4-3.43-8.19-1.27-3.57-3.53-6.55-5.45-9.74-1.54-2.58-3-5.21-4.55-7.77s-3.06-4.81-4.58-7.23c-.73-1.17-1.43-2.36-2.13-3.55-2.16-3.68-4.27-7.4-6.48-11.05C180.19,73.33,178,70,175.9,66.59c-1.66-2.72-3.17-5.53-4.79-8.28-2-3.32-3.94-6.62-5.9-10-.92-1.55-1.8-3.12-2.66-4.71-1.2-2.16-2.33-4.37-3.55-6.52-2-3.43-4.21-6.71-5.92-10.25s-4.85-5.29-7.46-7.74c-1.64-1.53-3.38-2.95-5-4.47a2.33,2.33,0,0,0-2.88-.39c-2.17,1-4.33,2.08-6.5,3.08-.85.4-1.08.82-.68,1.79,1.64,3.86,3.18,7.75,4.73,11.65,1.27,3.18,2.49,6.39,3.73,9.58s2.48,6.38,3.73,9.57,2.63,6.54,3.82,9.85c1.36,3.8,2.53,7.66,3.84,11.46.92,2.65,2,5.25,2.9,7.9s1.75,5.32,2.65,8c.45,1.36.94,2.7,1.41,4.05,1.47,4.21,2.9,8.45,4.39,12.66,1.31,3.73,2.69,7.42,4,11.15s2.52,7.57,3.83,11.34c.93,2.7,1.95,5.37,2.92,8a33.76,33.76,0,0,0,1.16,3.2q6.06,12.46,12.17,24.89c3.6,7.35,7.12,14.74,10.91,22,1.18,2.24.17,3.79-.64,5.54a1.31,1.31,0,0,1-1.26.2,12.75,12.75,0,0,1-4.28-4.5c-1.75-3.37-3.83-6.57-5.76-9.85-.89-1.52-1.75-3.06-2.61-4.6-1-1.83-2-3.68-3-5.5-2.05-3.54-4.13-7.06-6.18-10.6-1.07-1.86-2.07-3.76-3.14-5.62-2.05-3.54-4.14-7.05-6.2-10.58-.88-1.52-1.69-3.09-2.62-4.58-1.89-3-3.85-6-5.76-9-1.26-2-2.47-3.94-3.73-5.89-1.38-2.16-2.81-4.29-4.2-6.44-1.18-1.83-2.32-3.69-3.51-5.52-2.6-4-5.16-8-7.84-11.91-2.1-3.07-4.35-6-6.53-9q-4.12-5.72-8.24-11.44c-2.83-3.94-5.82-7.76-8.4-11.86s-6-7-9.69-9.78C95.63,47.8,88.22,42.05,80.8,36.32c-.3-.23-.63-.42-1.3-.86.1,1.82.15,3.34.28,4.86.27,3.29.47,6.59.94,9.85A15.86,15.86,0,0,0,82.2,54c1.38,3.25,2.79,6.49,4.18,9.74q1.86,4.34,3.7,8.68Q92,77,94,81.52q1.86,4.33,3.71,8.69c1.33,3.12,2.68,6.22,4,9.35a50.54,50.54,0,0,0,1.93,4.74c1.79,3.25,3.77,6.39,5.67,9.57.75,1.27,1.51,2.53,2.23,3.82,1,1.69,1.85,3.43,2.84,5.11,1.77,3,3.59,5.93,5.38,8.89q1.18,2,2.33,3.94c1.71,3,3.37,6.06,5.11,9.06q3.13,5.43,6.36,10.79c2.2,3.72,4.57,7.36,6.64,11.15a51.61,51.61,0,0,1,2.52,6.36c.07.18.1.37.18.55,1.32,3.07,2.66,6.13,3.95,9.21q2.6,6.21,5.09,12.45c1.35,3.36,2.63,6.75,4,10.1,1.75,4.33,3.56,8.64,5.3,13,1.37,3.39,2.66,6.83,4,10.22,1.93,4.72,3.91,9.42,5.87,14.13,1.16,2.77,2.35,5.53,3.54,8.29,1.43,3.33,2.91,6.65,4.3,10,.73,1.78,1.33,3.61,2.13,5.82-2.64-1.52-4.92-3-7.31-4.2-9.92-5.08-18.53-12-27.19-18.87-4.88-3.86-9.91-7.53-14.8-11.39-6-4.74-11.94-9.56-17.87-14.39S102,208.11,96.1,203.19c-3.56-3-6.93-6.19-10.64-9a24.59,24.59,0,0,0-6.36-2.86c-2.91-1.06-5.9-1.94-8.86-2.87-1.64-.51-3.29-1-4.93-1.48a1.38,1.38,0,0,0-.83,0c-3.77,1.76-7.53,3.56-11.52,5.45,1.13,2,2,3.95,3.25,5.67,2.49,3.53,5.11,7,7.74,10.38a268.85,268.85,0,0,0,20.81,23.31c4.53,4.65,9.08,9.31,13.42,14.14s8.26,9.76,12.43,14.61c4.94,5.76,10,11.46,14.91,17.2,2.87,3.32,5.78,6.62,8.51,10.05a32.51,32.51,0,0,1,2.79,4.8c1.29,2.39,2.51,4.82,3.82,7.21,1.74,3.17,3.5,6.34,5.31,9.47,1.06,1.85,2.39,3.55,3.3,5.47a41.15,41.15,0,0,1,1.75,5.41c.68,2.22,1.34,4.46,2,6.68.64,2,1.32,4.05,2,6.09.94,3,1.86,6.08,2.78,9.12s1.77,5.91,2.68,8.86c.64,2,1.34,4.05,2,6.09s1.2,3.91,1.81,5.86c.7,2.27,1.43,4.53,2.13,6.8,1,3.13,1.89,6.26,2.88,9.38.93,2.95,1.92,5.87,2.89,8.81,0,.13.19.27.16.39-.4,2.14,1.31,2.1,2.59,2.65a77.1,77.1,0,0,1,8.16,3.87,9.91,9.91,0,0,0,6.43,1.1q11.32-1.29,22.67-2.46c10.22-1.07,20.45-2.08,30.66-3.22a35.18,35.18,0,0,0,5.5-1.46q6.31-1.81,12.6-3.67c3.34-1,6.65-2,10-3s6.76-1.88,10.13-2.86c2.56-.74,5.1-1.56,7.66-2.31,3.38-1,6.77-1.94,10.15-2.94s6.72-2.05,10.09-3.05c3-.89,6-1.83,9.07-2.56,1-.24,1-.82,1.06-1.41.28-2.47.49-5,.71-7.43q.69-7.56,1.37-15.14c.42-4.62.81-9.24,1.23-13.86.34-3.81.89-7.61,1-11.43.11-3.19-.21-6.4-.4-9.59-.3-5-.65-10.1-1-15.16q-.71-11-1.4-21.89c-.49-7.82-.82-15.66-1.48-23.47-.44-5.08-1.29-10.12-2.05-15.16-.62-4.2-1.37-8.38-2.08-12.57l-3.09-18.19c-.93-5.5-1.83-11-2.77-16.52q-1.71-9.93-3.46-19.88c-.63-3.61-1.18-7.24-2-10.81-1.06-4.63-2.37-9.2-3.54-13.8s-2.28-9.33-3.46-14-2.42-9.28-3.62-13.93c-1.32-5.16-2.73-10.29-3.9-15.48A52,52,0,0,0,283,83.1c-2-3.31-3.39-7-5.11-10.46C275.49,67.8,273,63,270.64,58.15Q262.77,42,254.94,25.87c-.84-1.73-1.11-1.78-2.86-1.1s-3.8,1.27-5.68,1.93a11.3,11.3,0,0,0-1.47.76"/></svg>