<svg id="Layer_1" data-name="Layer 1" xmlns="http://www.w3.org/2000/svg" viewBox="0 0 405.58 405"><defs><style>.cls-1{fill:#fff;}</style></defs><title>announcement-3</title><path class="cls-1" d="M51.26,112.3c6.74-.21,13.35-.42,19.95-.65,5.93-.21,11.86-.46,17.78-.68,8.46-.29,16.93-.59,25.38-.84,5.94-.18,11.88-.26,17.82-.4,6.8-.15,13.6-.27,20.4-.52,2.85-.1,5.68-.52,8.52-.75,3.08-.25,6.15-.43,9.23-.68,2.88-.23,5.75-.55,8.64-.78s6-.45,9-.68c.8-.06,1.61-.12,2.4-.25,2.1-.33,3.58,1.14,5.33,1.81a35.76,35.76,0,0,1,3.23,1.65c-2.11.93-3.9,1.74-5.72,2.52-1.52.66-3,1.35-4.6,1.89a17.5,17.5,0,0,1-3.58.8c-2.55.3-5.11.43-7.67.71s-5.37.71-8.06,1-5.54.6-8.32.9c-2.51.26-5,.54-7.52.81l-8.78,1c-1.28.14-2.55.32-3.83.45-3.11.35-6.22.65-9.32,1a29.44,29.44,0,0,0-8.62,2.26,41.82,41.82,0,0,1-4.47,1.49c-4.16,1.35-8.35,2.65-12.5,4.05-5.22,1.77-10.36,3.82-15.64,5.38-5.72,1.7-11.55,3.05-17.37,4.42-10.49,2.47-21,4.73-31.51,7.31-5.36,1.32-10.6,3.14-15.88,4.76a1.31,1.31,0,0,0-.79.72c-.77,2.56-1.47,5.14-2.2,7.72-.26.9.15,1.06,1,1,4.93-.27,9.87-.54,14.8-.75,4.46-.2,8.92-.27,13.38-.48s9.1-.56,13.66-.8,9.3-.36,14-.64c2.93-.17,5.85-.56,8.79-.79,2.73-.21,5.48-.31,8.22-.5s5.4-.44,8.09-.63c3.79-.27,7.58-.47,11.36-.76,2.89-.22,5.77-.57,8.66-.79,2.74-.21,5.49-.32,8.23-.51s5.5-.41,8.25-.61l10.91-.82,8.51-.64c2.79-.21,5.58-.45,8.38-.66s5.68-.42,8.52-.55c5.69-.27,11.39-.49,17.08-.71,1.09-.05,2.18-.05,3.28-.05a1.37,1.37,0,0,1,1.58,1.26c.18,1.09.48,2.15.76,3.22a1.13,1.13,0,0,1-1,1.58c-2.53.69-5.07,1.36-7.58,2.12-2.23.68-4.4,1.54-6.64,2.19-1.08.31-2.26.26-3.37.48-2.16.44-4.29,1-6.46,1.44-3.74.68-7.52,1.23-11.28,1.88-1,.18-2,.49-3.08.7q-6.6,1.33-13.21,2.65c-3.08.6-6.18,1.16-9.28,1.74-2.9.54-5.79,1.22-8.72,1.59-3.77.47-7.16,2-10.69,3.22-2.85,1-5.73,1.81-8.57,2.78s-5.36,2-8,2.92c-1.3.46-2.61.89-3.92,1.31-4.06,1.32-8.15,2.59-12.2,4-3.77,1.29-7.49,2.74-11.27,4-3,1-6.08,1.91-9.12,2.89-3.67,1.2-7.32,2.43-11,3.63q-2.58.84-5.17,1.59c-2.38.7-4.78,1.33-7.14,2.06-3.77,1.18-7.46,2.67-11.29,3.57s-6.2,3.6-9.16,5.63c-1.84,1.27-3.6,2.67-5.44,3.95a2.36,2.36,0,0,0-1,2.73c.55,2.34,1.11,4.67,1.62,7,.21.92.57,1.23,1.6,1.05,4.12-.77,8.26-1.45,12.39-2.12,3.39-.56,6.78-1.06,10.16-1.58L51.25,217c3.48-.54,7-1.17,10.44-1.62,4-.51,8-.82,12-1.29,2.79-.32,5.56-.79,8.34-1.13s5.57-.57,8.36-.87c1.41-.15,2.83-.35,4.25-.51,4.43-.53,8.87-1,13.31-1.56,3.92-.48,7.83-1,11.75-1.51s7.94-.84,11.89-1.31c2.84-.33,5.67-.74,8.49-1.12a30.89,30.89,0,0,0,3.38-.45q13.49-3.22,26.93-6.53c7.94-1.94,15.92-3.78,23.81-5.93,2.44-.67,3.74.65,5.28,1.82a1.34,1.34,0,0,1-.07,1.27,12.65,12.65,0,0,1-5.32,3.22c-3.67,1-7.24,2.33-10.86,3.5-1.67.55-3.37,1.05-5.06,1.57-2,.6-4,1.16-6,1.8-3.9,1.23-7.78,2.51-11.68,3.75-2.05.64-4.12,1.21-6.16,1.86-3.9,1.24-7.78,2.52-11.67,3.77-1.67.54-3.38,1-5,1.58-3.36,1.2-6.69,2.47-10,3.69-2.18.8-4.37,1.57-6.55,2.38-2.4.88-4.79,1.81-7.19,2.71-2,.76-4.1,1.47-6.15,2.24-4.45,1.69-8.91,3.33-13.32,5.1-3.44,1.39-6.81,3-10.21,4.44l-12.94,5.59c-4.45,1.91-8.83,4-13.38,5.65s-8.1,4.37-11.65,7.36c-7.16,6.05-14.37,12.05-21.56,18.06-.29.25-.55.53-1.12,1.09,1.79.3,3.29.57,4.81.77,3.26.44,6.53.95,9.82,1.2a15.5,15.5,0,0,0,4.06-.62c3.48-.65,6.94-1.33,10.41-2l9.28-1.75,9.71-1.84,9.28-1.75c3.34-.63,6.66-1.29,10-1.9a46.88,46.88,0,0,0,5.06-.87c3.55-1.05,7-2.3,10.56-3.47,1.4-.46,2.8-.93,4.21-1.36,1.86-.58,3.75-1.07,5.6-1.68,3.29-1.08,6.56-2.23,9.84-3.34,1.44-.49,2.9-1,4.35-1.42,3.31-1,6.64-2,9.95-3.05q6-1.9,11.9-3.89c4.11-1.36,8.17-2.88,12.31-4.1a54.09,54.09,0,0,1,6.76-1.08c.19,0,.38,0,.57-.06,3.29-.63,6.56-1.29,9.85-1.88,4.41-.8,8.83-1.55,13.25-2.29,3.57-.6,7.15-1.12,10.72-1.72,4.61-.78,9.2-1.61,13.8-2.39,3.62-.61,7.24-1.12,10.85-1.75,5-.86,10.05-1.78,15.07-2.69,2.95-.54,5.9-1.11,8.85-1.67,3.57-.69,7.12-1.42,10.69-2.05,1.9-.34,3.82-.53,6.15-.83-2.06,2.25-4,4.16-5.68,6.23-7.09,8.59-15.7,15.52-24.27,22.51-4.82,3.93-9.49,8-14.31,12q-8.88,7.26-17.89,14.36t-18.18,14.23c-3.66,2.84-7.53,5.44-11,8.47-1.72,1.48-2.91,3.63-4.16,5.59-1.66,2.62-3.16,5.35-4.71,8-.86,1.49-1.68,3-2.5,4.49a1.36,1.36,0,0,0-.19.81c.92,4.06,1.86,8.12,2.85,12.43,2.2-.68,4.3-1.14,6.24-2,4-1.67,7.9-3.49,11.8-5.32a267.37,267.37,0,0,0,27.23-15.32c5.53-3.42,11.05-6.87,16.7-10.07s11.31-6,16.94-9c6.69-3.59,13.33-7.26,20-10.87,3.86-2.09,7.7-4.21,11.64-6.15a33.5,33.5,0,0,1,5.28-1.69c2.62-.74,5.26-1.42,7.87-2.18,3.47-1,6.94-2.06,10.39-3.15,2-.63,4-1.57,6.05-2.05A39.31,39.31,0,0,1,317,267c2.32-.19,4.64-.35,7-.55,2.13-.18,4.25-.42,6.37-.6q4.75-.4,9.5-.76c3.08-.24,6.16-.45,9.23-.71,2.13-.19,4.25-.44,6.39-.64s4.07-.33,6.1-.5l7.1-.62c3.26-.27,6.53-.5,9.78-.79,3.08-.28,6.15-.62,9.23-.93.14,0,.3-.13.41-.08,2,.85,2.33-.82,3.15-2a80,80,0,0,1,5.53-7.14,9.83,9.83,0,0,0,2.46-6c.78-7.57,1.62-15.12,2.47-22.68,1.15-10.21,2.36-20.41,3.44-30.63a33.85,33.85,0,0,0-.24-5.68q-.42-6.57-.87-13.1c-.24-3.47-.54-6.93-.76-10.39s-.39-7-.62-10.52c-.17-2.66-.43-5.32-.61-8-.24-3.51-.43-7-.69-10.53s-.55-7-.8-10.52c-.23-3.14-.51-6.27-.56-9.41,0-1-.59-1.14-1.15-1.34-2.35-.8-4.73-1.54-7.1-2.29q-7.25-2.3-14.49-4.59l-13.28-4.18c-3.65-1.16-7.24-2.5-10.94-3.46-3.09-.79-6.29-1.16-9.45-1.66-5-.8-10-1.55-15-2.32Q317.65,92.72,306.82,91c-7.75-1.2-15.47-2.56-23.24-3.59-5.05-.67-10.16-.92-15.25-1.27-4.23-.29-8.48-.45-12.72-.66l-18.42-.9c-5.58-.27-11.16-.58-16.73-.84q-10.08-.47-20.16-.9c-3.67-.16-7.33-.41-11-.38-4.74,0-9.49.34-14.23.49s-9.6.22-14.39.37-9.6.38-14.39.54c-5.32.19-10.64.46-16,.48a52.42,52.42,0,0,0-16.55,2.72c-3.66,1.24-7.54,1.82-11.31,2.74-5.24,1.3-10.46,2.68-15.71,4q-17.45,4.25-34.9,8.4c-1.87.45-2,.7-1.69,2.56s.43,4,.67,6a11.73,11.73,0,0,0,.42,1.6"/></svg>