<svg id="Layer_1" data-name="Layer 1" xmlns="http://www.w3.org/2000/svg" viewBox="0 0 300.36 268"><defs><style>.cls-1{fill:#231f20;}</style></defs><title>blog</title><path class="cls-1" d="M126.8,9.9c.38,1,.68,1.83.34,2.58a.5.5,0,0,0,.26.66.45.45,0,0,0,.2,0,.52.52,0,0,0,.46-.29c.5-1.13.1-2.2-.32-3.34a9.63,9.63,0,0,1-.56-1.94A4.75,4.75,0,0,1,127.29,6a4.92,4.92,0,0,0,.14-1,.5.5,0,0,0-1,0,4.47,4.47,0,0,1-.12.84,5.53,5.53,0,0,0-.12,2A10.75,10.75,0,0,0,126.8,9.9Z" transform="translate(-1.68 -4.43)"/><path class="cls-1" d="M175.45,17.63a.52.52,0,0,0,.35-.14A32,32,0,0,0,182,10.18a.5.5,0,1,0-.87-.49,31.28,31.28,0,0,1-6,7.08.5.5,0,0,0,0,.7A.48.48,0,0,0,175.45,17.63Z" transform="translate(-1.68 -4.43)"/><path class="cls-1" d="M114.85,41.16c1.2,2,2.15,3.59,2.42,5.51a.51.51,0,0,0,.5.43h.07a.5.5,0,0,0,.42-.57c-.29-2.12-1.29-3.78-2.55-5.88-.32-.54-.66-1.1-1-1.71l-3.6-6.32-.87.5,3.6,6.31C114.18,40.05,114.53,40.62,114.85,41.16Z" transform="translate(-1.68 -4.43)"/><path class="cls-1" d="M148.64,44h.12c.91-.22,1.39-1.16,1.35-2.65l-.13-5a5.22,5.22,0,0,1,.07-1.32,4.68,4.68,0,0,1,.36-.93c.07-.16.15-.32.21-.48a12.65,12.65,0,0,0,.51-5.66.5.5,0,1,0-1,.06,12.15,12.15,0,0,1-.44,5.22c-.07.15-.13.3-.2.44a5.75,5.75,0,0,0-.42,1.12,6.09,6.09,0,0,0-.1,1.57l.13,5c0,.35,0,1.51-.58,1.64a.5.5,0,0,0,.11,1Z" transform="translate(-1.68 -4.43)"/><path class="cls-1" d="M180,47.33a.49.49,0,0,0,.39.81.5.5,0,0,0,.4-.19,23.65,23.65,0,0,1,5-4.73,78.81,78.81,0,0,0,10.11-9.43l.64-.68a.48.48,0,0,0,0-.7.5.5,0,0,0-.71,0l-.65.68a76.67,76.67,0,0,1-10,9.32A24.5,24.5,0,0,0,180,47.33Z" transform="translate(-1.68 -4.43)"/><path class="cls-1" d="M117.4,74.53c-.51.48-2.82,2.82-2.92,2.92a.5.5,0,0,0-.14.39.49.49,0,0,0,.2.36c1.07.8,2.26,1.72,2.51,2a.64.64,0,0,0,.1.13.49.49,0,0,0,.34.14.51.51,0,0,0,.31-.11,35.68,35.68,0,0,0,2.68-2.42l.73-.7a.49.49,0,0,0,.05-.67,10.93,10.93,0,0,0-3.46-2.16A.53.53,0,0,0,117.4,74.53Zm2.75,2.33-.36.34c-.8.77-1.56,1.5-2.25,2.07-.36-.33-1-.8-1.94-1.53.6-.61,1.73-1.74,2.27-2.27A15.19,15.19,0,0,1,120.15,76.86Z" transform="translate(-1.68 -4.43)"/><path class="cls-1" d="M126.25,85a.5.5,0,0,0,.21.4c1.4,1,3,2.13,3.21,2.33a.49.49,0,0,0,.14.11.46.46,0,0,0,.23.06.57.57,0,0,0,.28-.08,17.84,17.84,0,0,0,2.53-2.14c.53-.5,1-1,1.58-1.43a.51.51,0,0,0,.19-.46.51.51,0,0,0-.31-.39c-.61-.26-1.94-.88-2.81-1.29s-.93-.44-1.08-.43-.18,0-4,2.91A.5.5,0,0,0,126.25,85Zm4.27-2.25.55.26c.62.29,1.45.69,2.12,1-.36.32-.7.64-1,1a19.48,19.48,0,0,1-2.09,1.82c-.39-.31-1.12-.84-2.48-1.8Z" transform="translate(-1.68 -4.43)"/><path class="cls-1" d="M145.89,78.05a.7.7,0,0,0,.45.17,1.6,1.6,0,0,0,.29,0,1.48,1.48,0,0,0,.85-.26c.09-.07.28-.25.54-.5a19,19,0,0,1,3.5-2.75.5.5,0,0,0,.21-.64c-.2-.47-.77-.71-1.72-1.12a17.1,17.1,0,0,1-2.63-1.33c-.43-.28-.7,0-1.59,1a15.68,15.68,0,0,1-1.14,1.2h0l-.14.11A6.6,6.6,0,0,1,143,75a.5.5,0,0,0-.33.41.48.48,0,0,0,.21.48S145.18,77.51,145.89,78.05Zm-.73-3.3.13-.1a15,15,0,0,0,1.24-1.31l.61-.67a20.82,20.82,0,0,0,2.47,1.23c.26.11.55.23.78.35a22.18,22.18,0,0,0-3,2.52l-.45.41a.59.59,0,0,1-.42,0h0c-.51-.38-1.62-1.16-2.34-1.66C144.47,75.33,144.83,75,145.16,74.75Z" transform="translate(-1.68 -4.43)"/><path class="cls-1" d="M166.71,87.73a.46.46,0,0,0,.23,0,.5.5,0,0,0,.27-.46,1.23,1.23,0,0,1,.39-.82c.16-.16.49-.44.88-.78,2-1.75,2.49-2.25,2.51-2.69,0-.25.07-.92-3.47-2.88a.5.5,0,0,0-.61.1L163,84.43a.56.56,0,0,0-.13.39.52.52,0,0,0,.2.35l3.35,2.47A.5.5,0,0,0,166.71,87.73Zm-2.6-3,3.27-3.58a13.8,13.8,0,0,1,2.56,1.76,23.58,23.58,0,0,1-2.12,2c-.41.36-.76.67-.93.84a2.34,2.34,0,0,0-.48.69Z" transform="translate(-1.68 -4.43)"/><path class="cls-1" d="M148.63,91.91l-3.29,2.56a.5.5,0,0,0-.19.38.52.52,0,0,0,.18.4l2.94,2.46a.47.47,0,0,0,.32.12.51.51,0,0,0,.31-.11l3.57-2.88a.48.48,0,0,0,.18-.41.51.51,0,0,0-.22-.39l-3.22-2.16A.48.48,0,0,0,148.63,91.91Zm0,4.77-2.15-1.8,2.51-2,2.35,1.57Z" transform="translate(-1.68 -4.43)"/><path class="cls-1" d="M165.29,106.48a4.73,4.73,0,0,1,1,.34,17.24,17.24,0,0,1,2,1.32c.48.35.5.37.66.38h0c.27,0,.88-.48,1.81-1.41a4.9,4.9,0,0,1,.6-.51c.15-.11.3-.2.45-.29a2.43,2.43,0,0,0,1.29-1.43.49.49,0,0,0,0-.41,7.2,7.2,0,0,0-1.92-1.83c-.36-.26-.71-.53-1-.8a1.14,1.14,0,0,0-.47-.28c-.16,0-.54-.15-4.49,3.29L165,105c-.28.19-.67.45-.59.89a.69.69,0,0,0,.59.54Zm4.25-3.85c.31.27.68.54,1,.81a8.68,8.68,0,0,1,1.52,1.33,1.68,1.68,0,0,1-.76.68,5.74,5.74,0,0,0-.55.36,6.42,6.42,0,0,0-.72.59c-.24.25-.77.73-1.09,1l-.09-.07a16.3,16.3,0,0,0-2.19-1.42,4.42,4.42,0,0,0-.84-.31C166.67,104.89,168.83,103.13,169.54,102.63Z" transform="translate(-1.68 -4.43)"/><path class="cls-1" d="M113.13,93.13a.51.51,0,0,0-.22.35.5.5,0,0,0,.11.39l2.44,2.91a.51.51,0,0,0,.38.18.47.47,0,0,0,.28-.09l3.79-2.63a.51.51,0,0,0,.2-.52c0-.2-.39-1.28-2.78-2.61C117.08,91,116.7,90.76,113.13,93.13Zm5.85.54-3,2.12-1.78-2.13A21.1,21.1,0,0,1,117,92.05,6.33,6.33,0,0,1,119,93.67Z" transform="translate(-1.68 -4.43)"/><path class="cls-1" d="M133,104l1.19,2.53a.49.49,0,0,0,.45.29.45.45,0,0,0,.2,0,34.12,34.12,0,0,0,5.14-2.5,3.82,3.82,0,0,0,.6-1.07.5.5,0,0,0-.15-.55l-1.75-1.47a.53.53,0,0,0-.21-.11,3.4,3.4,0,0,0-1.29-.06,37.05,37.05,0,0,0-4,2.35A.49.49,0,0,0,133,104Zm4.41-2a2.24,2.24,0,0,1,.72,0l1.37,1.15a2.36,2.36,0,0,1-.23.4c-.27.21-2.36,1.19-4.39,2.09L134,104C135.53,103,137.11,102.09,137.36,102Z" transform="translate(-1.68 -4.43)"/><path class="cls-1" d="M5.68,107.81c1.63.45,3.35,1,5.16,1.53,2.1.64,4.28,1.31,6.34,1.85,1.77.46,3.52.88,5.24,1.29,2.93.7,5.69,1.36,8.36,2.2a54.82,54.82,0,0,1,12.15,5.46,21.47,21.47,0,0,1,4.2,3.09l.54.59c.75.81,1.52,1.65,2.18,2.5l.18.24a9.41,9.41,0,0,0,1.21,1.37l0,0a.45.45,0,0,0,.27.17,2.62,2.62,0,0,0,1.54.5h.12a3.07,3.07,0,0,0,2.26-1,5.94,5.94,0,0,0,1-4.29,12.06,12.06,0,0,0-3.83-7.19A33.77,33.77,0,0,0,49.9,114a30.43,30.43,0,0,1-2.6-2.08,16.51,16.51,0,0,0-3.54-2.46c-.55-.31-1.11-.63-1.68-1a27.75,27.75,0,0,0-3.44-1.64c-.64-.27-1.43-.61-2-.87.9-.1,2.56-.09,3.65-.09.79,0,1.56,0,2.17,0,4.09-.13,8.26-.39,12.28-.63,9.17-.56,18.66-1.14,27.91-.29,4.7.43,11.13-.09,12.7-1.43a1.13,1.13,0,0,0,.43-.87c-.19-1.75-2.18-2.3-3.64-2.69l-.12,0a66.15,66.15,0,0,0-9.72-1.68c-1.69-.2-3.45-.41-5.34-.71-3.16-.49-6.37,0-9.44-.5l-1.25-.22c-1.62-.29-3.36-.59-5.2-.78l2.5-.1a265,265,0,0,1,26.84-.21c3.55.22,10.57.19,11.91-.65a.46.46,0,0,0,.17-.17,1.84,1.84,0,0,0,.15-1.52A4.68,4.68,0,0,0,100,90.94a14.65,14.65,0,0,0-5.34-.88c-2.6,0-5.84-.3-9.25-.64-1.88-.19-3.82-.38-5.76-.53-9.9-.74-18.17-1.48-22.4-2,6.77-.48,23.18-1,32.7-.55l2.29.13c5.4.34,8.72.45,9.16-.94.76-2.35-1.25-3.32-2.6-4-4.14-2-8.83-2.06-13.36-2.13-1.34,0-2.73,0-4.07-.11-8-.42-16.54-1.47-24.43-2.59l1.74-.09c2.41-.11,4.9-.23,7.15-.29a22.72,22.72,0,0,0,6-.67l.34-.11a12.4,12.4,0,0,1,3.09-.7c1.6-.09,3.38-.15,5.26-.21,2.75-.09,5.6-.19,7.93-.41A4.17,4.17,0,0,0,90,73.61a1.24,1.24,0,0,0,.59-1c0-.7-.72-1.19-1.29-1.58l-.35-.25a9.32,9.32,0,0,0-4.77-1.54c-5-.44-9.61-.61-14.52-.78l-1,0c-3.35-.12-6.56-.14-9.53-.06-4.72.12-9.54-.22-14.2-.55-2.83-.2-5.76-.41-8.65-.51L34,67.17a56.9,56.9,0,0,0-8.46,0c-2.08.21-4.17.57-6.2.92A50.44,50.44,0,0,1,8.58,69.19a.5.5,0,0,0-.52.48.49.49,0,0,0,.47.52,50.78,50.78,0,0,0,11-1.08c2-.35,4.09-.7,6.13-.91a57.61,57.61,0,0,1,8.31,0l2.25.1c2.86.1,5.78.31,8.61.51,4.68.33,9.52.67,14.29.55,3-.08,6.15-.06,9.47.06l1,0c3.36.12,6.59.24,9.89.44v1.4a.5.5,0,0,0,.5.5.51.51,0,0,0,.5-.5V69.93l1.06.08a6.88,6.88,0,0,0,0,1.2.5.5,0,0,0,.49.44h.07a.49.49,0,0,0,.43-.55,6.69,6.69,0,0,1,0-1l1.52.11.26,0a4.13,4.13,0,0,0,.21,3.3c-1.32.06-2.69.1-4,.15-1.89.06-3.67.12-5.29.21a13.17,13.17,0,0,0-3.36.76l-.29.09a22.2,22.2,0,0,1-5.75.63c-2.26.06-4.76.18-7.18.3s-4.91.23-7.16.29a.48.48,0,0,0-.48.46.49.49,0,0,0,.42.53c9.26,1.38,20.06,2.87,29.91,3.39,1.36.07,2.75.09,4.1.11,3.76.06,7.62.12,11.12,1.31a5.2,5.2,0,0,0-.83,1.75,1.5,1.5,0,0,0,.33,1.57,1.39,1.39,0,0,0,.33.21l.13.07a1.64,1.64,0,0,1,.21.24s0,.05,0,.09c-1.59,0-3.33-.13-4.4-.2L90,85.36c-5.26-.23-13.62-.2-22.36.07-13.77.42-14,.87-14.11,1.2a.54.54,0,0,0,0,.48c.17.28.51.86,26,2.78,1.93.15,3.87.34,5.74.52,3.44.35,6.69.66,9.35.65a15,15,0,0,1,3.94.45,2.13,2.13,0,0,0-.49.58,3.33,3.33,0,0,0-.38,1.63,5.59,5.59,0,0,0,.08,1c-2.28.1-5.07.09-7.29,0a267.1,267.1,0,0,0-26.95.21c-3.22.14-6.38.27-9.41.35a.5.5,0,0,0,0,1,2.51,2.51,0,0,1,.95.26,4,4,0,0,0,1.71.36,41.79,41.79,0,0,1,9.32.89L67.4,98c3.15.54,6.37,0,9.46.51,1.91.3,3.67.51,5.38.72,1.19.14,2.36.29,3.53.46a6.63,6.63,0,0,0,.33,3.06.5.5,0,0,0,.47.33l.17,0a.5.5,0,0,0,.3-.64,5.53,5.53,0,0,1-.28-2.58c1.42.22,2.85.5,4.3.87-.1.15-.21.31-.34.47l-.5.6a2.08,2.08,0,0,0-.63,1.37,1.45,1.45,0,0,0,.26.78,38.34,38.34,0,0,1-7,0c-3.26-.31-6.54-.42-9.82-.43,0-.12,0-.21,0-.31a5.81,5.81,0,0,0,.09-.79c0-.28,0-.57,0-.85a13.37,13.37,0,0,0-.4-2.48.5.5,0,0,0-.6-.37.49.49,0,0,0-.37.6,11.91,11.91,0,0,1,.37,2.28c0,.26,0,.52,0,.79s0,.48-.07.66a3,3,0,0,0-.06.46c-5.79,0-11.58.37-17.25.72-4,.24-8.17.5-12.25.63-.6,0-1.36,0-2.14,0-3.74,0-4.79.07-5.06.7-.32.79.71,1.22,3,2.18a25.47,25.47,0,0,1,3.29,1.57c.59.37,1.16.69,1.72,1a15.05,15.05,0,0,1,3.34,2.31,33.77,33.77,0,0,0,2.7,2.16,30.43,30.43,0,0,1,2.6,2.08,11,11,0,0,1,3.53,6.55,4.84,4.84,0,0,1-.72,3.54,2,2,0,0,1-1.55.67,1.93,1.93,0,0,1-.55-.06,3.36,3.36,0,0,0,1-1.45,4.48,4.48,0,0,0,.09-1.81,1.35,1.35,0,0,0-.08-.39,1.33,1.33,0,0,0-1-.69l-.22,0a2.48,2.48,0,0,1-.58-.36,3.2,3.2,0,0,0-.79-.48,1.85,1.85,0,0,0-2.41,1l-.23-.25-.54-.58a21.87,21.87,0,0,0-4.41-3.28,55.67,55.67,0,0,0-12.37-5.55c-2.7-.86-5.48-1.52-8.43-2.22-1.71-.41-3.45-.82-5.21-1.29-2.05-.54-4.21-1.2-6.3-1.84-1.83-.55-3.55-1.08-5.2-1.53a.49.49,0,0,0-.61.35A.48.48,0,0,0,5.68,107.81ZM85.12,72a2.24,2.24,0,0,1,.29-1.65,6.87,6.87,0,0,1,2.9,1.14l.41.3c.23.16.85.58.85.77,0,0,0,.07-.18.2a3.13,3.13,0,0,1-1,.47c-.84.09-1.76.14-2.71.2A3.08,3.08,0,0,1,85.12,72ZM96.7,84.32c-.06,0-.09-.25,0-.57a4.39,4.39,0,0,1,.83-1.62c.29.12.59.23.87.36,1.54.75,2.52,1.34,2.07,2.75-.18.32-1.32.44-2.75.46a.78.78,0,0,0-.15-.61,1.92,1.92,0,0,0-.47-.54,2.07,2.07,0,0,0-.25-.15Zm2,9.41A2.45,2.45,0,0,1,99,92.58a1,1,0,0,1,.74-.54.66.66,0,0,0,.15-.05,3.59,3.59,0,0,1,1.86,1.69.85.85,0,0,1,0,.59,11.64,11.64,0,0,1-2.91.42A4,4,0,0,1,98.74,93.73Zm-8.15,9.38a1.25,1.25,0,0,1,.39-.7l.5-.6a3.81,3.81,0,0,0,.58-.86c1.48.41,2.61.81,2.76,1.73-.2.36-1.64.8-3.74,1.09C90.82,103.55,90.6,103.33,90.59,103.11Zm-40.8,20.33a.92.92,0,0,1,.9-.16,2.88,2.88,0,0,1,.54.35,3.17,3.17,0,0,0,.87.51l.3.08a1.8,1.8,0,0,1,.33.09.28.28,0,0,1,0,.1,3.49,3.49,0,0,1,0,1.41,2.71,2.71,0,0,1-1,1.2,11.12,11.12,0,0,1-.9-1.07l-.18-.24c-.36-.47-.75-.92-1.15-1.38,0,0,0,0,0,0A.87.87,0,0,1,49.79,123.44Z" transform="translate(-1.68 -4.43)"/><path class="cls-1" d="M100.45,188.79a12.23,12.23,0,0,0-2.54-1.13,41.64,41.64,0,0,0-9.36-1.57l-2-.18c-3-.28-11.14-1-13-1.06a15.8,15.8,0,0,1-4-.84,12.09,12.09,0,0,0-2.13-.53l-.16,0h.52c4.56,0,10.81,0,17-.44,2.06-.14,4.61-.12,7.07-.1,4.73,0,9.19.07,11.12-.87l.57-.26c1.1-.48,2.46-1.07,1.83-3.24-.86-1.79-9-1.74-9-1.74a19,19,0,0,1-4.12-.53c-.62-.13-1.18-.24-1.65-.3-5.45-.67-11.6-.9-16.54-1.08a77.7,77.7,0,0,1-10.25-.73.13.13,0,0,1,0-.06c1.06-.17,5.38-.15,10.74-.12,2.64,0,5.7,0,9.12,0,5.57,0,9.64.14,13.65.29a16.48,16.48,0,0,0,5.64-.49,2.93,2.93,0,0,0,2-1.51,2.15,2.15,0,0,0-.26-1.89c-.83-1.32-15-2.27-15.19-2.28-.75,0-1.45-.14-2.19-.24s-1.4-.2-2.18-.26l-9.25-.57c-4.37-.26-8.85-.53-11.14-.75l.9-.1c9.41-.78,21.08-.9,26.36-.74a14.69,14.69,0,0,0,2.82-.27,4.18,4.18,0,0,0,2.74-2.87c-.08-2.65-13.19-3.07-13.32-3.07l-4.85-.14c-8.43-.22-14.53-.39-24.78-1.44-1.22-.13-2.47-.39-3.68-.64a29.62,29.62,0,0,0-4-.66l-2.16-.09a60.67,60.67,0,0,1-6.1-.42c.47-.39,1.46-1,2.16-1.46.86-.54,1.74-1.09,2.38-1.59s1.12-.8,1.74-1.21a19.54,19.54,0,0,0,2.54-1.86,44.18,44.18,0,0,0,5.64-6.51c.55-1,.85-2.48.35-3.25a1.12,1.12,0,0,0-1.06-.52,8,8,0,0,0-4.1,1.55c-.6.44-1.74,1.08-2.83,1.71-.87.49-1.7,1-2.24,1.32a29.12,29.12,0,0,1-10.41,3.55,16.6,16.6,0,0,0-3.64,1.06,9.91,9.91,0,0,1-2.57.74c-1.66,0-3.24.14-4.5.23-.92.07-1.72.12-2.32.13s-1.21,0-1.87-.05a31.93,31.93,0,0,0-3.91,0,57.54,57.54,0,0,0-8.58,1.43.5.5,0,0,0-.37.6.51.51,0,0,0,.61.37,56.15,56.15,0,0,1,8.42-1.4,30,30,0,0,1,3.79,0c.68,0,1.32.05,1.92.05s1.44-.07,2.38-.13c1.25-.09,2.81-.21,4.44-.23a10,10,0,0,0,2.91-.81,15.88,15.88,0,0,1,3.41-1,29.49,29.49,0,0,0,7.14-1.9,2.7,2.7,0,0,1,.9.72,3.13,3.13,0,0,1,.33,1.39.5.5,0,0,0,.49.46h0a.49.49,0,0,0,.45-.53,3.76,3.76,0,0,0-.49-1.86,2.48,2.48,0,0,0-.62-.63l.8-.37a2.13,2.13,0,0,1,1.2,2,.5.5,0,0,0,.49.44h.06a.5.5,0,0,0,.44-.56,3.46,3.46,0,0,0-1.14-2.37c.23-.12.43-.24.6-.34l.44.35a5.25,5.25,0,0,1,.53.43,2.66,2.66,0,0,1,.75,1.42.49.49,0,0,0,.49.41H46a.5.5,0,0,0,.4-.58,3.67,3.67,0,0,0-1-1.95,6,6,0,0,0-.63-.52l-.14-.11L46,143.6l1.47-.84a3.68,3.68,0,0,0,2,1.36,5,5,0,0,0,1.56.31A48.64,48.64,0,0,1,46.8,149a18.91,18.91,0,0,1-2.41,1.75c-.61.41-1.25.83-1.81,1.26s-1.46,1-2.29,1.54c-2.21,1.39-3.1,2-2.82,2.7s1.15.79,7.26,1l2.13.09a28.59,28.59,0,0,1,3.91.64,36.38,36.38,0,0,0,3.78.65c7.72.8,13.09,1.09,18.87,1.28a2.86,2.86,0,0,0-.11.46,3.36,3.36,0,0,0,.07,1.43c0,.09.07.18.11.27a.87.87,0,0,1,.07.17,2.35,2.35,0,0,1,.09.81.5.5,0,0,0,.5.5h0a.5.5,0,0,0,.5-.5A3.15,3.15,0,0,0,74.5,162a1.86,1.86,0,0,0-.1-.25l-.08-.18a2.48,2.48,0,0,1,0-1,.8.8,0,0,1,.09-.36.55.55,0,0,0,.22-.18l2.67.08a3.53,3.53,0,0,0-.28,1,1.46,1.46,0,0,0,.17,1,1.79,1.79,0,0,0,.42.46,1.77,1.77,0,0,1,.49.82.49.49,0,0,0,.48.36h.08a.49.49,0,0,0,.42-.53v-.25a.49.49,0,0,0-.21-.38,2.81,2.81,0,0,0-.57-.75l-.09-.08a1.19,1.19,0,0,1-.16-.16.65.65,0,0,1,0-.34,2.42,2.42,0,0,1,.44-1.09l1,0,4.85.14c1.25,0,2.47.11,3.62.21a11.17,11.17,0,0,0,.36,2.22.49.49,0,0,0,.48.36h.13a.5.5,0,0,0,.35-.62,10.62,10.62,0,0,1-.31-1.86c1.21.12,2.32.27,3.31.44a1,1,0,0,0-.17.45,3.76,3.76,0,0,0,.85,3l-.8,0c-3.39-.11-9.4-.09-15.77.14,0-.39,0-.77,0-1.17l-.12-2.54a.51.51,0,0,0-.52-.47.5.5,0,0,0-.48.52l.12,2.55c0,.38,0,.76,0,1.15-3.28.12-6.62.31-9.71.57-1.93.16-2.72.38-3,.83a.75.75,0,0,0-.05.65c.21.5.24.57,13.31,1.36,2.94.17,6.13.36,9.25.57.74.05,1.43.15,2.1.25s1.48.21,2.28.25,1.62.1,2.53.18c0,.27.09.54.15.82a5.69,5.69,0,0,1,.17,1.61.49.49,0,0,0,.38.59h.11a.51.51,0,0,0,.49-.39,5.88,5.88,0,0,0-.17-2c0-.18-.07-.36-.1-.55l.68.06a10.8,10.8,0,0,0,.42,3.62s0,.08.08.12c-3.07-.11-6.38-.18-10.51-.18H78.3c0-.33,0-.66,0-1a13.45,13.45,0,0,1,0-2.38.5.5,0,0,0-.42-.56.51.51,0,0,0-.57.42,14.71,14.71,0,0,0,0,2.57c0,.32,0,.63,0,.94H74.6c-11.65-.06-11.65,0-11.71.78-.15,1,.41,1.28.76,1.36,1.87.45,5.65.59,10.44.77s11,.4,16.45,1.07c.45.06,1,.17,1.57.29a20.7,20.7,0,0,0,4.33.55c1.18,0,2.31,0,3.33.12a1,1,0,0,0,0,.18,6.11,6.11,0,0,0,0,1.86,2,2,0,0,0,.45,1.13,2.16,2.16,0,0,0,.49.38c.09.06.19.09.28.14a36.73,36.73,0,0,1-4.87.3,4,4,0,0,0-.19-2,2.92,2.92,0,0,0-.14-.31,3.3,3.3,0,0,0-.69-1,.49.49,0,0,0-.7,0,.5.5,0,0,0,0,.71,2.64,2.64,0,0,1,.5.7c0,.08.07.16.1.23a2.91,2.91,0,0,1,.11,1.7H92c-2.48,0-5,0-7.14.1-6.21.41-12.44.43-17,.44-7.22,0-7.65.07-7.65.85s.94.85,3.2.93c1.08,0,2.44.09,4,.23a11.48,11.48,0,0,1,1.93.5,16.32,16.32,0,0,0,4.23.88c1.77,0,10.13.8,12.88,1.06l2,.18c1,.09,1.94.17,2.85.27a6.58,6.58,0,0,0,.27,2.3l0,.14c.09.25.19.54.12.67a.51.51,0,0,0,.2.68.53.53,0,0,0,.24.06.51.51,0,0,0,.44-.26,1.75,1.75,0,0,0-.06-1.49l0-.13a5.53,5.53,0,0,1-.23-1.85c1,.13,1.92.29,2.94.52a1.51,1.51,0,0,0-.28.22,2.09,2.09,0,0,0-.46,1.62,4.23,4.23,0,0,0,.47,1.39,3.82,3.82,0,0,0,.32.54h-.22l-2.39-.05-2.28,0a2.91,2.91,0,0,0,.44-.88,3.82,3.82,0,0,0,.1-1.09v-.92a.5.5,0,0,0,0-.46.51.51,0,0,0-.65-.28.65.65,0,0,0-.4.68v1a3,3,0,0,1-.06.81,2.86,2.86,0,0,1-.58.95.89.89,0,0,1-.13.14s0,0,0,0c-1.3,0-2.67-.07-4.08-.13-2.26-.1-4.59-.23-6.78-.36L77,191.09l0-1.39a2.29,2.29,0,0,0-.07-.61.6.6,0,0,0-.06-.19c0-.05,0-.12,0-.14a1.31,1.31,0,0,1,0-.15,1.14,1.14,0,0,0,0-.65.52.52,0,0,0-.63-.35.5.5,0,0,0-.34.61.39.39,0,0,1,0,.13,1.71,1.71,0,0,0-.06.43,1.37,1.37,0,0,0,.1.46l0,.11a1.38,1.38,0,0,1,0,.37L76,191c-2-.11-3.77-.2-5.12-.23s-5.61,0-10.52.11c-6.52.1-14.62.23-19.23.18a59.26,59.26,0,0,1-8.72-.86,48.79,48.79,0,0,0-4.93-.6c-3.23-.14-7.71-.78-12.44-1.45-4.48-.64-9.11-1.3-12.8-1.55a.5.5,0,1,0-.07,1c3.65.25,8.27.9,12.73,1.54,4.76.67,9.25,1.31,12.53,1.46a47.54,47.54,0,0,1,4.83.59,60.64,60.64,0,0,0,8.85.87c4.63.05,12.74-.08,19.26-.18,4.91-.07,9.15-.14,10.49-.11,1.84,0,4.52.19,7.37.35,2.18.13,4.52.26,6.78.36,2.82.12,5.52.17,7.68.2l2.38.05h.32a12,12,0,0,0,4.43-.7,2.58,2.58,0,0,0,1.32-1.85A1.58,1.58,0,0,0,100.45,188.79ZM49.78,143.18a2.76,2.76,0,0,1-1.48-1c.23-.14.43-.27.59-.39a7,7,0,0,1,3.57-1.36c.12,0,.15,0,.17.06a3,3,0,0,1-.39,2.24,4.47,4.47,0,0,1-.42.62A4.18,4.18,0,0,1,49.78,143.18Zm44.36,21.11-.11-.08a2.87,2.87,0,0,1-1-2.62,2,2,0,0,1,.3-.32.47.47,0,0,0,.33,0c1.67.35,2.77.74,3,1.08a3.45,3.45,0,0,1-2,1.89l-.34.06Zm9.92,7.65c-.13.35-.6.67-1.38.94a8.35,8.35,0,0,1-2,.38l-.63-.62a1.68,1.68,0,0,1-.49-.66,1.61,1.61,0,0,1,0-.33l-.08-1.54a20.34,20.34,0,0,1,4.47.88A1.17,1.17,0,0,1,104.06,171.94Zm-9,.86a9.86,9.86,0,0,1-.38-3.24c1.25.12,2.51.27,3.69.41l.09,1.73a1.78,1.78,0,0,0,.07.54,2.44,2.44,0,0,0,.73,1.09c-.58,0-1.21,0-1.9,0L95,173.22A.48.48,0,0,0,95.11,172.8Zm7.07,8.34a7,7,0,0,1-1-.51,1.18,1.18,0,0,1-.27-.2,1.16,1.16,0,0,1-.2-.6,5.19,5.19,0,0,1,0-1.52.81.81,0,0,0,.47-.24c1.9.23,3.21.59,3.37.84.36,1.24-.16,1.47-1.3,2-.2.08-.41.17-.61.27a1.69,1.69,0,0,1-.27.11A.47.47,0,0,0,102.18,181.14Zm-2.86,10.05a8.49,8.49,0,0,1-2.47.51.47.47,0,0,0-.31-.14,1.15,1.15,0,0,1-.39-.3,2.09,2.09,0,0,1-.28-.47,3.33,3.33,0,0,1-.37-1.07,1.07,1.07,0,0,1,.21-.83,1.47,1.47,0,0,1,.62-.37.48.48,0,0,0,.22-.2l1.07.3a12.22,12.22,0,0,1,2.21,1,.6.6,0,0,1,.3.55A1.67,1.67,0,0,1,99.32,191.19Z" transform="translate(-1.68 -4.43)"/><path class="cls-1" d="M46.66,115.28a.5.5,0,0,0-.66.26c-.09.22-.17.45-.24.68a4,4,0,0,1-.24.66c-.13.26-.38.53-.64.52a.5.5,0,0,0-.05,1h.07a1.8,1.8,0,0,0,1.52-1.08,5.31,5.31,0,0,0,.3-.81c.06-.19.12-.38.2-.57A.5.5,0,0,0,46.66,115.28Z" transform="translate(-1.68 -4.43)"/><path class="cls-1" d="M48.9,117.14a.49.49,0,0,0,.36-.29h0a.52.52,0,0,0,0-.47.61.61,0,0,0-.48-.32.63.63,0,0,0-.19,0h-.18a.5.5,0,0,0-.44.29c-.11.24-.24.48-.38.72l-.13,0a.5.5,0,0,0-.61.32,2.37,2.37,0,0,1-.66,1,.5.5,0,0,0,0,.71.49.49,0,0,0,.37.16.48.48,0,0,0,.23-.07,1.4,1.4,0,0,0-.07.57.51.51,0,0,0,.5.44h.06a.49.49,0,0,0,.43-.56c0-.23.26-.5.54-.68l.23-.14a2.85,2.85,0,0,0,1.08-1,.5.5,0,0,0-.88-.49.89.89,0,0,1-.23.25c.1-.16.2-.33.29-.5A.38.38,0,0,0,48.9,117.14Zm-1.22,1a.1.1,0,0,1,0,0l0,0Z" transform="translate(-1.68 -4.43)"/><path class="cls-1" d="M46.33,71.47l-2.25-.09a.49.49,0,0,0-.52.48.5.5,0,0,0,.48.52l2.25.09h0a.5.5,0,0,0,0-1Z" transform="translate(-1.68 -4.43)"/><path class="cls-1" d="M47.55,74a6.26,6.26,0,0,0-2-.13.51.51,0,0,0-.45.55.52.52,0,0,0,.55.45,4.83,4.83,0,0,1,1.65.11h.11a.49.49,0,0,0,.49-.38A.51.51,0,0,0,47.55,74Z" transform="translate(-1.68 -4.43)"/><path class="cls-1" d="M45.77,81.72a1.77,1.77,0,0,1,1,.29.51.51,0,0,0,.28.09.52.52,0,0,0,.42-.22.51.51,0,0,0-.14-.7,2.78,2.78,0,0,0-1.63-.46h-.28a.5.5,0,0,0-.94.31.88.88,0,0,0,.7.66A1.73,1.73,0,0,0,45.77,81.72Z" transform="translate(-1.68 -4.43)"/><path class="cls-1" d="M48,84.24l-2.81.25a.5.5,0,0,0-.46.54.51.51,0,0,0,.5.45h0l2.81-.25a.49.49,0,0,0,.45-.54A.5.5,0,0,0,48,84.24Z" transform="translate(-1.68 -4.43)"/><path class="cls-1" d="M49.13,89.48a14.62,14.62,0,0,0-3.1-.14.5.5,0,0,0,.06,1,13.31,13.31,0,0,1,2.89.13h.08a.49.49,0,0,0,.49-.42A.5.5,0,0,0,49.13,89.48Z" transform="translate(-1.68 -4.43)"/><path class="cls-1" d="M50.69,94.16a.5.5,0,0,0-.43-.57,9.36,9.36,0,0,0-2.18,0,.5.5,0,0,0-.46.54.56.56,0,0,0,.17.33.5.5,0,0,0-.11.3.51.51,0,0,0,.5.5h1.25a.5.5,0,0,0,.5-.5.37.37,0,0,0,0-.15l.22,0h.07A.51.51,0,0,0,50.69,94.16Z" transform="translate(-1.68 -4.43)"/><path class="cls-1" d="M50.35,100a.49.49,0,0,0-.27-.65,5.14,5.14,0,0,0-2.33-.24c-.51,0-.84.21-1,.56a.51.51,0,0,0,.28.65.58.58,0,0,0,.19,0,.51.51,0,0,0,.42-.23h.14a4.23,4.23,0,0,1,1.88.16A.5.5,0,0,0,50.35,100Z" transform="translate(-1.68 -4.43)"/><path class="cls-1" d="M49.11,101.9a.45.45,0,0,0,.31-.11.5.5,0,0,0,.09-.7,1.3,1.3,0,0,0-1.06-.39H46.74a.49.49,0,0,0-.49.5.51.51,0,0,1-.07.66.52.52,0,0,0,.54.47,7.39,7.39,0,0,1,1.41,0h.06a.5.5,0,0,0,.49-.44.41.41,0,0,0,0-.22c.05,0,.07,0,.07,0A.49.49,0,0,0,49.11,101.9Z" transform="translate(-1.68 -4.43)"/><path class="cls-1" d="M65.73,73.76a.51.51,0,0,0,.44-.25,4.2,4.2,0,0,0,.52-2.27.5.5,0,1,0-1,.06A3.08,3.08,0,0,1,65.3,73a.5.5,0,0,0,.43.75Z" transform="translate(-1.68 -4.43)"/><path class="cls-1" d="M68.08,73.08h0a.49.49,0,0,0,.47-.53c0-.58,0-1.18,0-1.76a.5.5,0,0,0-.48-.52.49.49,0,0,0-.52.48c0,.62,0,1.24,0,1.86A.5.5,0,0,0,68.08,73.08Z" transform="translate(-1.68 -4.43)"/><path class="cls-1" d="M69.77,70a.5.5,0,0,0-.52.48c0,.85,0,1.71,0,2.55a.5.5,0,0,0,.5.47h0a.5.5,0,0,0,.46-.53c0-.81-.06-1.64,0-2.45A.5.5,0,0,0,69.77,70Z" transform="translate(-1.68 -4.43)"/><path class="cls-1" d="M76.25,80.66a.59.59,0,0,0-.55,0,.5.5,0,0,0-.21.68.86.86,0,0,0,.07.1v1a1.62,1.62,0,0,0,.06.55,2.2,2.2,0,0,0,.28.51l.14.19a.5.5,0,0,0,.44.55h0a.5.5,0,0,0,.5-.44,1.26,1.26,0,0,0-.32-.89,1,1,0,0,1-.14-.23,1.48,1.48,0,0,1,0-.23V81.26A.66.66,0,0,0,76.25,80.66Z" transform="translate(-1.68 -4.43)"/><path class="cls-1" d="M74.64,84h0a.5.5,0,0,0,.48-.52l-.08-1.88a.5.5,0,0,0-.52-.48.51.51,0,0,0-.48.52l.08,1.88A.5.5,0,0,0,74.64,84Z" transform="translate(-1.68 -4.43)"/><path class="cls-1" d="M72.71,81.6a.5.5,0,0,0-.6.37,2.81,2.81,0,0,0,.38,2.21.51.51,0,0,0,.34.5l.16,0a.5.5,0,0,0,.48-.34.89.89,0,0,0-.17-.78,1.76,1.76,0,0,1-.22-1.38A.51.51,0,0,0,72.71,81.6Z" transform="translate(-1.68 -4.43)"/><path class="cls-1" d="M91.1,82.33a5,5,0,0,0-.68-.77.5.5,0,0,0-.71,0,.5.5,0,0,0,0,.7,3.6,3.6,0,0,1,.52.61L90.2,83a.53.53,0,0,0,.11.47.18.18,0,0,1,0,.12.5.5,0,0,0,.5.46h0a.51.51,0,0,0,.46-.54,1.3,1.3,0,0,0-.08-.34A1.06,1.06,0,0,0,91.1,82.33Z" transform="translate(-1.68 -4.43)"/><path class="cls-1" d="M92.79,84.44a.43.43,0,0,0,.19,0,.51.51,0,0,0,.27-.65,5.27,5.27,0,0,1-.4-1.87.5.5,0,0,0-.52-.49.5.5,0,0,0-.48.52,6.06,6.06,0,0,0,.48,2.22A.5.5,0,0,0,92.79,84.44Z" transform="translate(-1.68 -4.43)"/><path class="cls-1" d="M93.93,94V92.14a.5.5,0,0,0-.5-.5.51.51,0,0,0-.5.5V94a.51.51,0,0,0,.5.5A.5.5,0,0,0,93.93,94Z" transform="translate(-1.68 -4.43)"/><path class="cls-1" d="M92.56,92.06a.5.5,0,0,0-.46-.54.5.5,0,0,0-.54.46l0,.43a5.63,5.63,0,0,0,0,1.13A.5.5,0,0,0,92,94h0a.5.5,0,0,0,.49-.52,4.4,4.4,0,0,1,0-1Z" transform="translate(-1.68 -4.43)"/><path class="cls-1" d="M78.13,91a.49.49,0,0,0-.49-.51.51.51,0,0,0-.51.49l0,1.42a1.12,1.12,0,0,0,.12.6.51.51,0,0,0,.45.27.46.46,0,0,0,.23-.06.48.48,0,0,0,.2-.67v-.12Z" transform="translate(-1.68 -4.43)"/><path class="cls-1" d="M75.92,89.93a.5.5,0,0,0-.63.31,4.32,4.32,0,0,0-.17,1.59c0,.19,0,.39,0,.61a.51.51,0,0,0,.48.52h0a.51.51,0,0,0,.5-.49c0-.23,0-.46,0-.67a3.41,3.41,0,0,1,.12-1.24A.49.49,0,0,0,75.92,89.93Z" transform="translate(-1.68 -4.43)"/><path class="cls-1" d="M73.34,92.76a1,1,0,0,0,.54.95.45.45,0,0,0,.25.07.48.48,0,0,0,.42-.25.49.49,0,0,0-.2-.67.82.82,0,0,0,0-.14,2.45,2.45,0,0,0,0-.43,5.47,5.47,0,0,0-.2-.62,2.49,2.49,0,0,1-.21-.74.5.5,0,1,0-1-.08A2.88,2.88,0,0,0,73.16,92a3.85,3.85,0,0,1,.16.48A1.23,1.23,0,0,1,73.34,92.76Z" transform="translate(-1.68 -4.43)"/><path class="cls-1" d="M74.84,99.54a.5.5,0,0,0-.49-.52.49.49,0,0,0-.51.48l0,1.17a2.65,2.65,0,0,0,.36,1.71.51.51,0,0,0,.4.2.5.5,0,0,0,.41-.79,1.78,1.78,0,0,1-.17-1.08Z" transform="translate(-1.68 -4.43)"/><path class="cls-1" d="M76.69,99a.49.49,0,0,0-.59.38,3.56,3.56,0,0,0,.15,1.94l0,.12a1,1,0,0,1,.1.34.51.51,0,0,0,.43.57h.07a.5.5,0,0,0,.49-.43,1.74,1.74,0,0,0-.16-.86l0-.1a2.38,2.38,0,0,1-.11-1.37A.5.5,0,0,0,76.69,99Z" transform="translate(-1.68 -4.43)"/><path class="cls-1" d="M84.64,102.77h0a.51.51,0,0,0,.48-.53l-.09-1.68a.5.5,0,0,0-.52-.48.51.51,0,0,0-.48.53l.09,1.68A.5.5,0,0,0,84.64,102.77Z" transform="translate(-1.68 -4.43)"/><path class="cls-1" d="M81,190.64a.49.49,0,0,0,.49-.5c0-.92,0-1.85.06-2.76a.5.5,0,1,0-1,0c0,.93-.06,1.88-.06,2.82a.51.51,0,0,0,.5.49Z" transform="translate(-1.68 -4.43)"/><path class="cls-1" d="M79,190.31h0a.5.5,0,0,0,.46-.53,14.44,14.44,0,0,1,0-1.61.5.5,0,1,0-1,0,16.67,16.67,0,0,0,0,1.73A.5.5,0,0,0,79,190.31Z" transform="translate(-1.68 -4.43)"/><path class="cls-1" d="M81,177.81a.5.5,0,0,0-.69-.14,1.34,1.34,0,0,0-.45,1.72,1,1,0,0,0,.09.15.31.31,0,0,1,0,.1.62.62,0,0,1,0,.25c0,.41,0,.82,0,1.24a.5.5,0,0,0,.49.51h0a.5.5,0,0,0,.5-.48c0-.44,0-.88,0-1.33a1.69,1.69,0,0,0-.12-.6l-.17-.3a.34.34,0,0,1,.11-.42A.51.51,0,0,0,81,177.81Z" transform="translate(-1.68 -4.43)"/><path class="cls-1" d="M82.91,182a.51.51,0,0,0,.5-.5l0-2.45a.5.5,0,0,0-.5-.51.49.49,0,0,0-.5.49l0,2.46a.5.5,0,0,0,.49.51Z" transform="translate(-1.68 -4.43)"/><path class="cls-1" d="M85.14,178.07a.49.49,0,0,0-.56.42,9.47,9.47,0,0,0-.11,1.5,1,1,0,0,0,.07.42,1.09,1.09,0,0,0,.32.37s.14.11.19.09a.5.5,0,0,0,.15.69.53.53,0,0,0,.27.08.48.48,0,0,0,.42-.23.91.91,0,0,0,0-.92,1.43,1.43,0,0,0-.44-.5,8.89,8.89,0,0,1,.1-1.36A.51.51,0,0,0,85.14,178.07Z" transform="translate(-1.68 -4.43)"/><path class="cls-1" d="M93.45,180.64h0a.5.5,0,0,0,.48-.52,13.45,13.45,0,0,1,0-1.42.5.5,0,0,0-.49-.51.48.48,0,0,0-.51.48c0,.5,0,1,0,1.5A.49.49,0,0,0,93.45,180.64Z" transform="translate(-1.68 -4.43)"/><path class="cls-1" d="M82.5,169.41a.5.5,0,0,0-.66-.25.75.75,0,0,0-.37.92l.31,1.41a.5.5,0,0,0,.49.4h.1a.51.51,0,0,0,.39-.6l-.3-1.38A.48.48,0,0,0,82.5,169.41Z" transform="translate(-1.68 -4.43)"/><path class="cls-1" d="M79.5,172.47a.59.59,0,0,0,.22.05.49.49,0,0,0,.45-.28,2.65,2.65,0,0,0,.13-1.78,3.61,3.61,0,0,1-.08-.65.5.5,0,0,0-.5-.5.5.5,0,0,0-.5.5,4.28,4.28,0,0,0,.1.82,1.92,1.92,0,0,1,0,1.17A.49.49,0,0,0,79.5,172.47Z" transform="translate(-1.68 -4.43)"/><path class="cls-1" d="M87.18,160.75a.5.5,0,0,0-.64.29,2.64,2.64,0,0,0,.31,2.55.52.52,0,0,0,.39.19.56.56,0,0,0,.32-.11.5.5,0,0,0,.08-.7,1.65,1.65,0,0,1-.17-1.58A.5.5,0,0,0,87.18,160.75Z" transform="translate(-1.68 -4.43)"/><path class="cls-1" d="M54.33,161.61h.17a4.71,4.71,0,0,0,2.43-.68.5.5,0,1,0-.52-.85,3.65,3.65,0,0,1-2,.53.5.5,0,0,0-.52.48A.5.5,0,0,0,54.33,161.61Z" transform="translate(-1.68 -4.43)"/><path class="cls-1" d="M54.17,164.54a6.85,6.85,0,0,0,1.15.13,3,3,0,0,0,.42,0,2,2,0,0,0,1.53-1,.5.5,0,0,0-.9-.44,1,1,0,0,1-.77.46,3.84,3.84,0,0,1-1.25-.1.5.5,0,0,0-.18,1Z" transform="translate(-1.68 -4.43)"/><path class="cls-1" d="M58.09,169.07l-.58.53s-.07.07-.06.07h-.12a7,7,0,0,1-1.64-.34.5.5,0,0,0-.31,1,8.37,8.37,0,0,0,1.87.37h.18a.89.89,0,0,0,.35-.06,1.18,1.18,0,0,0,.42-.28l.57-.53a.5.5,0,0,0,0-.71A.49.49,0,0,0,58.09,169.07Z" transform="translate(-1.68 -4.43)"/><path class="cls-1" d="M58.83,174.09a.5.5,0,0,0,.33-.12.59.59,0,0,0,.15-.62.72.72,0,0,0-.65-.42H56a.5.5,0,0,0-.5.5.5.5,0,0,0,.5.5h2.44A.49.49,0,0,0,58.83,174.09Z" transform="translate(-1.68 -4.43)"/><path class="cls-1" d="M55.66,178.88c.18,0,.35,0,.51,0a2.66,2.66,0,0,1,.69,0,.51.51,0,0,0,.57-.43.5.5,0,0,0-.42-.56,4.07,4.07,0,0,0-.92,0,3.2,3.2,0,0,1-.69,0l-.11,0a.5.5,0,0,0-.87-.41.76.76,0,0,0-.19.55.92.92,0,0,0,.32.61,1.38,1.38,0,0,0,.7.26Z" transform="translate(-1.68 -4.43)"/><path class="cls-1" d="M55.3,181.27a8.22,8.22,0,0,1,2,.14h.1a.5.5,0,0,0,.49-.4.51.51,0,0,0-.4-.59,9.24,9.24,0,0,0-2.29-.16.5.5,0,0,0-.47.53A.49.49,0,0,0,55.3,181.27Z" transform="translate(-1.68 -4.43)"/><path class="cls-1" d="M52.19,185.59a.5.5,0,0,0,.6.37,5,5,0,0,1,1.72-.09V186a.49.49,0,0,0,.5.48h0a.5.5,0,0,0,.49-.51l0-.48a.49.49,0,0,0-.39-.48,5.77,5.77,0,0,0-2.55,0A.49.49,0,0,0,52.19,185.59Z" transform="translate(-1.68 -4.43)"/><path class="cls-1" d="M51,188a.49.49,0,0,0,.49.51,9.37,9.37,0,0,1,1.66.18h.09a.51.51,0,0,0,.5-.41.5.5,0,0,0-.4-.58,10.25,10.25,0,0,0-1.83-.2A.5.5,0,0,0,51,188Z" transform="translate(-1.68 -4.43)"/><path class="cls-1" d="M118,162.54a2.71,2.71,0,0,0,.53-1.58.53.53,0,0,0-.29-.48,12.77,12.77,0,0,1-1.24-.64c-.37-.23-.86-.59-.86-.59a.51.51,0,0,0-.67.07c-.59.67-2.37,2.48-3.53,2.82a.51.51,0,0,0-.33.34.5.5,0,0,0,.1.47l1.49,1.76a.54.54,0,0,0,.26.16l1.06.28a1.55,1.55,0,0,0,.28,0,.47.47,0,0,0,.16,0,.85.85,0,0,0,.48-.29c.14-.15,1.14-1,1.73-1.59Zm-3.26,1.63-.88-.23-.95-1.13a14,14,0,0,0,3-2.49l.56.37c.28.18.72.4,1,.55a1.38,1.38,0,0,1-.19.59l-.79.72C115.65,163.31,115,163.92,114.73,164.17Z" transform="translate(-1.68 -4.43)"/><path class="cls-1" d="M126.6,178.8a4.94,4.94,0,0,0-.64-.17,2,2,0,0,1-.78-.25c-.36-.31-1.57-1.28-2.05-1.23a.51.51,0,0,0-.36.2,11.53,11.53,0,0,1-.84,1,13.2,13.2,0,0,0-.89,1,4.15,4.15,0,0,1-1.37,1,.53.53,0,0,0-.28.46.52.52,0,0,0,.31.45l2,.84,1.24.78a.58.58,0,0,0,.22.08h.1a1.48,1.48,0,0,0,1.08-.67c.68-.83,1.72-2,2.43-2.67a.5.5,0,0,0-.18-.83Zm-3,2.87a1.13,1.13,0,0,1-.25.27l-1.15-.72-1.17-.49a4.06,4.06,0,0,0,.83-.78,11.47,11.47,0,0,1,.83-1c.23-.24.45-.47.66-.73a11.05,11.05,0,0,1,1.22.88,2.21,2.21,0,0,0,.91.41C124.82,180.22,124.09,181,123.57,181.67Z" transform="translate(-1.68 -4.43)"/><path class="cls-1" d="M132.31,171.25a.5.5,0,0,0,.18,0c1.17,0,4.27-2,4.46-2.19A1.11,1.11,0,0,0,137,168a.45.45,0,0,0-.23-.24L134,166.32a.49.49,0,0,0-.51,0c-.82.57-1.82,1.24-2,1.32a10.86,10.86,0,0,1-1.62.13.51.51,0,0,0-.44.29.51.51,0,0,0,.06.53C130.1,169.35,131.56,171.07,132.31,171.25Zm-.43-2.65c.27-.11,1.3-.82,1.93-1.25l2.28,1.16a16.84,16.84,0,0,1-3.53,1.77,7.3,7.3,0,0,1-1.63-1.52A3.45,3.45,0,0,0,131.88,168.6Z" transform="translate(-1.68 -4.43)"/><path class="cls-1" d="M158.79,165.7a1,1,0,0,0-.54-.13,1,1,0,0,0-.57.29,3.46,3.46,0,0,1-.84.57l-2.59,1.31a.5.5,0,0,0-.27.36.53.53,0,0,0,.12.42c2.58,2.84,3.13,3.35,3.45,3.35a.56.56,0,0,0,.21-.06,4,4,0,0,0,.73-.45,1.8,1.8,0,0,1,.25-.18,2.49,2.49,0,0,1,.49-.25l.33-.14A6.68,6.68,0,0,0,162,168.4a.5.5,0,0,0-.09-.68A21.46,21.46,0,0,0,158.79,165.7Zm.34,4.19-.28.12a3.92,3.92,0,0,0-.68.34l-.29.21a2.43,2.43,0,0,1-.28.2c-.41-.39-1.37-1.4-2.31-2.43l2-1h0a4.63,4.63,0,0,0,1.07-.73,19.39,19.39,0,0,1,2.54,1.61A5,5,0,0,1,159.13,169.89Z" transform="translate(-1.68 -4.43)"/><path class="cls-1" d="M172.36,159.25c-.08.15-.11.21-.18.23a5.06,5.06,0,0,0-1,.67L168.83,162a.53.53,0,0,0-.19.41.53.53,0,0,0,.22.4l2.67,1.81a.47.47,0,0,0,.28.09.51.51,0,0,0,.32-.12l2.41-2a1.49,1.49,0,0,0,.46-.72,1,1,0,0,1,.09-.22l.13,0c.38-.1.75-.19.79-.58s-.13-.46-.6-.84a5.38,5.38,0,0,1-.63-.58.85.85,0,0,0-.33-.36l-.22-.16c-.61-.47-.73-.55-.93-.54A1.09,1.09,0,0,0,172.36,159.25Zm.88.49a.25.25,0,0,1,0-.07l.35.27.25.18,0,0h0a2.7,2.7,0,0,0,.64.67.45.45,0,0,0-.13.11,1.63,1.63,0,0,0-.36.64.6.6,0,0,1-.16.29l-2.12,1.74-1.8-1.22,1.82-1.45a3.71,3.71,0,0,1,.78-.53A1.43,1.43,0,0,0,173.24,159.74Z" transform="translate(-1.68 -4.43)"/><path class="cls-1" d="M172.58,177.57a.49.49,0,0,0,.09-.57.5.5,0,0,0-.51-.27,4.57,4.57,0,0,1-1.71,0,16.75,16.75,0,0,1-1.31-1.07.49.49,0,0,0-.66,0l-3.59,3.17a.48.48,0,0,0-.16.36.47.47,0,0,0,.14.37l2.13,2.12a.47.47,0,0,0,.35.15.43.43,0,0,0,.25-.07l1.76-1C169.8,180.43,171.94,178.24,172.58,177.57Zm-5.15,3.11L166,179.21l2.86-2.52a13.23,13.23,0,0,0,1.1.88,2.43,2.43,0,0,0,1.05.23c-1,1-1.92,1.92-2.12,2Z" transform="translate(-1.68 -4.43)"/><path class="cls-1" d="M149.14,178.7l-2-.51-3.25-1.5a.49.49,0,0,0-.56.1l-2.42,2.42a.5.5,0,0,0,.13.8c3.8,1.9,4.79,2.14,5.12,2.14l.14,0a6.28,6.28,0,0,0,2-1.64c.2-.06.6-.2.9-.28a.71.71,0,0,0,.52-.51,1,1,0,0,0-.31-.87A.48.48,0,0,0,149.14,178.7Zm-1.32.89a.4.4,0,0,0-.22.14,10.86,10.86,0,0,1-1.46,1.42,28.19,28.19,0,0,1-4-1.73l1.68-1.68,3,1.39,1.34.35Z" transform="translate(-1.68 -4.43)"/><path class="cls-1" d="M156.71,189.93a.47.47,0,0,0-.3-.12l-1.17,0a.43.43,0,0,0-.31.1l-3.17,2.33a.51.51,0,0,0-.2.38.48.48,0,0,0,.17.4l2.75,2.41a.46.46,0,0,0,.29.13l1,.08h0a.48.48,0,0,0,.37-.17l2.67-3a.51.51,0,0,0,0-.71Zm-1.11,4.65-.59-.05-2.16-1.89,2.53-1.87.82,0,1.56,1.31Z" transform="translate(-1.68 -4.43)"/><path class="cls-1" d="M135.86,192a4.16,4.16,0,0,0-2.07.1,16.78,16.78,0,0,0-2.67,1.83.52.52,0,0,0-.18.3l-.12.66a.5.5,0,0,0,.27.55,20.45,20.45,0,0,0,4,1.63c.41,0,.75-.32,1.3-.85l.62-.57c.19-.17.42-.35.64-.52.75-.6,1.17-.92,1.05-1.39C138.7,193.54,138.56,193,135.86,192Zm1.22,2.34-.69.56-.64.6-.6.57a23.53,23.53,0,0,1-3.28-1.37l0-.11a13.92,13.92,0,0,1,2.27-1.55,3.17,3.17,0,0,1,1.43-.08,15.09,15.09,0,0,1,2,.92Z" transform="translate(-1.68 -4.43)"/><path class="cls-1" d="M104.52,235.6a9.78,9.78,0,0,0-1.12,2.24l-.47,1.21a34.39,34.39,0,0,0-1.11,4.11.84.84,0,0,1-.18.35c-.12.17-.26.33-.39.48a7.59,7.59,0,0,0-.56.71,2.1,2.1,0,0,0-.33,1.85.49.49,0,0,0,.47.34.45.45,0,0,0,.16,0,.5.5,0,0,0,.31-.64,1.25,1.25,0,0,1,.23-1,6.75,6.75,0,0,1,.47-.59c.16-.18.31-.36.45-.55a1.72,1.72,0,0,0,.36-.82,35.27,35.27,0,0,1,1-3.87l.48-1.21a8.64,8.64,0,0,1,1-2c.48-.64,1.15-1.58,1.15-1.58l-.82-.58S105,235,104.52,235.6Z" transform="translate(-1.68 -4.43)"/><path class="cls-1" d="M141.31,245.57a4.44,4.44,0,0,0-.62-2.87,4.37,4.37,0,0,1-.43-1,4.52,4.52,0,0,1-.07-1.18v-.13a25.1,25.1,0,0,0-.51-5.47.51.51,0,0,0-.6-.39.5.5,0,0,0-.38.6,23.62,23.62,0,0,1,.49,5.24v.13a5.46,5.46,0,0,0,.1,1.44,5.08,5.08,0,0,0,.52,1.21,5.21,5.21,0,0,1,.42,1,5,5,0,0,1,.08,1.41,4.51,4.51,0,0,0,.25,2.08.51.51,0,0,0,.46.3.45.45,0,0,0,.2,0,.5.5,0,0,0,.26-.66A3.8,3.8,0,0,1,141.31,245.57Z" transform="translate(-1.68 -4.43)"/><path class="cls-1" d="M119.1,258.65a4.15,4.15,0,0,0-1,2.19,7.83,7.83,0,0,1-.33,1.06,8.24,8.24,0,0,0-.46,2.49,11.1,11.1,0,0,1-.16,1.36,15.82,15.82,0,0,0-.37,5.71l0,.5a.49.49,0,0,0,.5.47h0a.5.5,0,0,0,.47-.52l0-.51a14.9,14.9,0,0,1,.35-5.44,13.84,13.84,0,0,0,.18-1.49,8.08,8.08,0,0,1,.37-2.17,8.14,8.14,0,0,0,.39-1.21,3.39,3.39,0,0,1,.74-1.7.5.5,0,0,0,0-.71A.49.49,0,0,0,119.1,258.65Z" transform="translate(-1.68 -4.43)"/><path class="cls-1" d="M174,261.69c-.25-1-.69-2.09-4-6.43a.5.5,0,1,0-.8.6c3.19,4.19,3.61,5.19,3.83,6.07a3.23,3.23,0,0,0,.46.95c.24.39.38.65.31.84a.5.5,0,0,0,.29.64l.17,0a.49.49,0,0,0,.47-.32,1.91,1.91,0,0,0-.39-1.71A2.64,2.64,0,0,1,174,261.69Z" transform="translate(-1.68 -4.43)"/><path class="cls-1" d="M182,235.29a3.94,3.94,0,0,1-1.45-1.31,9.2,9.2,0,0,0-2.65-2.66,16.83,16.83,0,0,1-2.71-2.39.5.5,0,1,0-.74.68,18.35,18.35,0,0,0,2.85,2.51,8.21,8.21,0,0,1,2.39,2.38,4.74,4.74,0,0,0,1.78,1.63,5.22,5.22,0,0,1,1.35,1.08.49.49,0,0,0,.38.18.46.46,0,0,0,.32-.11.5.5,0,0,0,.07-.7A5.64,5.64,0,0,0,182,235.29Z" transform="translate(-1.68 -4.43)"/><path class="cls-1" d="M301.5,88.79l-.93.08a50.44,50.44,0,0,1-11,.06,11.6,11.6,0,0,1-1.64-.4,7.82,7.82,0,0,0-3.45-.39l-1.14.07a25.23,25.23,0,0,0-5,.63.84.84,0,0,0-.07-.24c-.39-.93-2.4-1.33-6-1.21l.89-.18a.5.5,0,0,0-.1-1s-4.38.06-6.2.13c-.58,0-1.67,0-2.93-.1-1.63-.09-3.61-.19-5.44-.18l1-.23a20.7,20.7,0,0,0,2.5-.64.5.5,0,0,0,.33-.55.51.51,0,0,0-.5-.42c-.75,0-1.8-.06-2.91-.12s-2.28-.14-3.15-.14c-2.14,0-4,0-5.72-.1s-3.58-.09-5.74-.09c-1.35,0-3.13,0-4.94-.08-2.19,0-4.42-.09-6-.07a1.18,1.18,0,0,1,.19-.11c.94-.56,1.92-1.13,2.85-1.76a.52.52,0,0,0,.17-.64.51.51,0,0,0-.61-.25c-1.67.56-3.54,1.1-5.52,1.68s-4.12,1.19-6,1.83l.38-.42a.5.5,0,0,0,0-.62.5.5,0,0,0-.6-.18c-1.86.72-7.85,1.31-11.66.94-2.15-.2-4-.35-5.87-.5s-3.72-.3-5.86-.51a28.44,28.44,0,0,0-8,.34c-2.36.47-4.17,1-5.41,2.82a.25.25,0,0,0-.12,0,11.6,11.6,0,0,0-5.08,1.69.88.88,0,0,0-.49,1.08.5.5,0,0,0,.35.3,16.45,16.45,0,0,0,3.9.47h.35a3.6,3.6,0,0,0,.11,1.49,2.68,2.68,0,0,0,1.18,1.46,5.81,5.81,0,0,0-2.07,1.51l-.13,0a7.7,7.7,0,0,0-4.81.75,2.44,2.44,0,0,0-1.09,1.66.51.51,0,0,0,.2.4.52.52,0,0,0,.45.08,5.33,5.33,0,0,1,4.14.84.47.47,0,0,0,.16.27,5.36,5.36,0,0,0,.53,1.72,1.4,1.4,0,0,0,.81.63,3.88,3.88,0,0,0-1,1.13.55.55,0,0,0-.19.18c-.4.69-1.77.79-2.58.85l-.35,0a12.43,12.43,0,0,0-2.69.38.5.5,0,0,0-.33.33.51.51,0,0,0,.09.46c.6.74,3.16,1.71,5,2.05a4,4,0,0,0,.83.11,2.08,2.08,0,0,0,.58-.1,4.73,4.73,0,0,0,1,1.29,9.44,9.44,0,0,0,3,1.66.85.85,0,0,0-.17.62c0,.13,0,.27.06.4a4.2,4.2,0,0,1-2.05.35l-1.93-.07a.5.5,0,0,0-.5.38,1.14,1.14,0,0,0,.44,1.14,18.52,18.52,0,0,0,5.58,1.34,5.35,5.35,0,0,0,1.28,1c1.12.59,3.56.76,5.71.91.88.06,1.65.11,2.14.18,1.32.2,2.4.39,3.38.56a56.44,56.44,0,0,0,7.15.88c1.45.09,4.3,0,7.31,0,3.42-.07,7-.14,8.61,0,2.11.17,4.19.37,6.34.58,4.84.48,9.84,1,16.19,1.22a9.31,9.31,0,0,1,2.2.43,8.7,8.7,0,0,0,2.8.47c1.15,0,8.55.39,11.29,1.34a21.66,21.66,0,0,0,5.94.5,44,44,0,0,1,6.61.37,24.88,24.88,0,0,1,2.86.79c.68.21,1.32.41,1.82.54a17.6,17.6,0,0,0,2.37.35c.54.06,1.08.11,1.61.2a35.53,35.53,0,0,0,6.26.48c.49,0,1,0,1.44,0h0a.51.51,0,0,0,.5-.49.49.49,0,0,0-.48-.51l-1.46,0a34.82,34.82,0,0,1-6.1-.47c-.56-.09-1.12-.15-1.68-.2a16.67,16.67,0,0,1-2.22-.33c-.49-.12-1.11-.32-1.77-.53a24.94,24.94,0,0,0-3-.81,43.73,43.73,0,0,0-6.76-.39,21.57,21.57,0,0,1-5.62-.45c-2.86-1-10.33-1.44-11.66-1.39a7.67,7.67,0,0,1-2.49-.43,10.27,10.27,0,0,0-2.43-.47c-4.08-.16-7.6-.43-10.89-.72a.49.49,0,0,0-.6-.73c-1.13.47-2.28.12-3.66-.39l-1.74-.64a5.13,5.13,0,0,0-2.11-.44.5.5,0,0,0,.07,1,4.19,4.19,0,0,1,1.7.38l.81.3c-2-.2-4-.4-6.07-.56-1.71-.14-5.27-.07-8.71,0-3,.06-5.82.11-7.23,0a53.36,53.36,0,0,1-7-.87c-1-.17-2.08-.36-3.4-.56-.53-.08-1.32-.13-2.23-.19-1.84-.13-4.37-.3-5.3-.8a4,4,0,0,1-1.08-.85l-.09-.1a4.84,4.84,0,0,1-1.18-2.71,2.58,2.58,0,0,1,1-.09c.88.2,1.78.35,2.63.49.69.12,1.36.23,2,.36a.51.51,0,0,0,.59-.37.51.51,0,0,0-.34-.6,24.9,24.9,0,0,0-4.66-.86,10.21,10.21,0,0,1-4.41-2,6.14,6.14,0,0,1-1.42-2.93,3.09,3.09,0,0,1,2.24-2.87c.77,0,1.66-.2,2.56-.35l1.48-.23h.81c.41,0,.81,0,1.19,0a.49.49,0,0,0,.48-.44.5.5,0,0,0-.38-.54,6.65,6.65,0,0,0-2.18,0,13.27,13.27,0,0,0-4.19.59c-.73,0-1.31,0-1.45-.27a4.92,4.92,0,0,1-.25-3.56,4.79,4.79,0,0,1,2.71-2.34,8,8,0,0,1,2.24-.32,8.41,8.41,0,0,0,2.52-.37.51.51,0,0,0,.33-.58.5.5,0,0,0-.54-.39l-1,.11c-2.64.3-3.93.38-4.48-1a7.34,7.34,0,0,1,.56-3.6c1-2,2.62-2.4,5.1-2.9a27.86,27.86,0,0,1,7.7-.32c2.15.21,4,.36,5.88.5s3.71.3,5.85.51a42.9,42.9,0,0,0,10.5-.58l-.55.62a.5.5,0,0,0-.05.62A.5.5,0,0,0,223,86c2.31-.86,5.08-1.67,7.75-2.44l1.74-.51c-.44.26-.88.52-1.3.79a.49.49,0,0,0-.2.59.51.51,0,0,0,.54.33c1-.15,4.66-.07,7.87,0,1.82,0,3.61.07,5,.08,2.15,0,4,0,5.72.09s3.58.1,5.74.1c.71,0,1.65,0,2.59.1a6.63,6.63,0,0,0-3.18,1.34.5.5,0,0,0-.08.57.51.51,0,0,0,.52.27,49.46,49.46,0,0,1,8.26,0c1.34.07,2.4.12,3,.1l.53,0-1,.2a.5.5,0,0,0-.4.51.49.49,0,0,0,.44.48,44.87,44.87,0,0,0,4.77-.09l.94,0c3.89-.14,5,.4,5.14.58,0,0,0,.12-.26.35a.51.51,0,0,0-.07.64.49.49,0,0,0,.61.18,18.64,18.64,0,0,1,5.73-.93l1.15-.07a6.78,6.78,0,0,1,3.08.34,11.39,11.39,0,0,0,1.79.44,50.57,50.57,0,0,0,11.2-.06l.94-.07a.5.5,0,1,0-.08-1ZM186.6,111.24l.43,0a5.61,5.61,0,0,0,2.32-.35,5.63,5.63,0,0,0,.47,1A24.8,24.8,0,0,1,186.6,111.24ZM184,105a15.77,15.77,0,0,1-3.44-1.13c.4,0,.84-.08,1.29-.11l.35,0a7.64,7.64,0,0,0,2.22-.41c0,.1,0,.2,0,.3a4.68,4.68,0,0,0,.38,1.44A2.32,2.32,0,0,1,184,105Zm-3-9,.14-.12a6.73,6.73,0,0,1,3.84-.69,3,3,0,0,0-.18.3,3.82,3.82,0,0,0-.3,1.33A7.08,7.08,0,0,0,181,95.94Zm2.26-7.42a10.65,10.65,0,0,1,3.67-1.21,10.07,10.07,0,0,0-.38,1.45A15.15,15.15,0,0,1,183.27,88.52Z" transform="translate(-1.68 -4.43)"/><path class="cls-1" d="M229.5,86.45a16.15,16.15,0,0,1,2,.2,19.33,19.33,0,0,0,2.1.2.5.5,0,0,0,.51-.49.51.51,0,0,0-.49-.51,16.15,16.15,0,0,1-2-.2,19.33,19.33,0,0,0-2.1-.2,2.18,2.18,0,0,0-1.08.18,1.1,1.1,0,0,0-.59,1.32.5.5,0,0,0,.48.34.45.45,0,0,0,.16,0,.48.48,0,0,0,.3-.63.19.19,0,0,1,.1-.11A1.32,1.32,0,0,1,229.5,86.45Z" transform="translate(-1.68 -4.43)"/><path class="cls-1" d="M235.37,88.59a6.58,6.58,0,0,0-4-.42,10.6,10.6,0,0,0-1.64.5.5.5,0,0,0-.3.64.52.52,0,0,0,.47.33.57.57,0,0,0,.18,0,8.68,8.68,0,0,1,1.49-.46,5.64,5.64,0,0,1,3.39.35.49.49,0,0,0,.66-.26A.49.49,0,0,0,235.37,88.59Z" transform="translate(-1.68 -4.43)"/><path class="cls-1" d="M241.1,90.67a5.76,5.76,0,0,0-3.86-.07c-.64.17-1.77.39-3.37.66l-.25.06a14,14,0,0,1-3.39.9.5.5,0,0,0,0,1h0a14.25,14.25,0,0,0,3.58-.93l.15,0c.61-.1,2.45-.42,3.45-.68a4.88,4.88,0,0,1,3.18,0,.5.5,0,1,0,.43-.9Z" transform="translate(-1.68 -4.43)"/><path class="cls-1" d="M233,94.84a13.4,13.4,0,0,1,2.11-.18,19.75,19.75,0,0,0,2.46-.2,2.8,2.8,0,0,1,2,.11.5.5,0,1,0,.59-.81,3.56,3.56,0,0,0-2.72-.28,19,19,0,0,1-2.33.18,14.65,14.65,0,0,0-2.28.2.51.51,0,0,0-.39.59.5.5,0,0,0,.49.4Z" transform="translate(-1.68 -4.43)"/><path class="cls-1" d="M244.55,97.22a.49.49,0,0,0-.64-.29,2.25,2.25,0,0,1-1.37-.14,4.93,4.93,0,0,0-1.21-.26,5.28,5.28,0,0,0-1.23.14,39.19,39.19,0,0,1-7.09.72.5.5,0,0,0,0,1h0a40.6,40.6,0,0,0,7.33-.75,4.52,4.52,0,0,1,.93-.11,4.71,4.71,0,0,1,1,.21,3.06,3.06,0,0,0,2,.13A.5.5,0,0,0,244.55,97.22Z" transform="translate(-1.68 -4.43)"/><path class="cls-1" d="M243.49,100.51a4.17,4.17,0,0,1-.61-.2,4.06,4.06,0,0,0-1.14-.32,19.75,19.75,0,0,0-4.34.12,10.32,10.32,0,0,0-2.91.94.5.5,0,0,0-.23.67.51.51,0,0,0,.45.28.46.46,0,0,0,.22-.06,9.71,9.71,0,0,1,2.64-.85,19.64,19.64,0,0,1,4.13-.11,4.32,4.32,0,0,1,.83.27,2.14,2.14,0,0,0,1.1.24.53.53,0,0,0,.41-.6A.46.46,0,0,0,243.49,100.51Z" transform="translate(-1.68 -4.43)"/><path class="cls-1" d="M244.65,105.12c-1-1.14-2.65-1.09-4-1l-7.3.21a.5.5,0,1,0,0,1l7.3-.21c1.21,0,2.58-.09,3.21.68a.52.52,0,0,0,.39.17.49.49,0,0,0,.38-.81Z" transform="translate(-1.68 -4.43)"/><path class="cls-1" d="M243.47,108.81a.51.51,0,0,0,.43.23.48.48,0,0,0,.26-.07.49.49,0,0,0,.16-.69,3.43,3.43,0,0,0-3.09-1.43c-.38,0-.76.09-1.14.15a6.73,6.73,0,0,1-1.71.14,13.12,13.12,0,0,1-2.29-.4,8.31,8.31,0,0,0-3.22-.18.51.51,0,0,0-.43.57.51.51,0,0,0,.57.42,7.29,7.29,0,0,1,2.83.16,14.78,14.78,0,0,0,2.46.43,8.38,8.38,0,0,0,1.95-.15c.35-.06.7-.11,1.05-.14A2.4,2.4,0,0,1,243.47,108.81Z" transform="translate(-1.68 -4.43)"/><path class="cls-1" d="M241.62,112.17A.54.54,0,0,0,242,112a.51.51,0,0,0-.12-.7,5.14,5.14,0,0,0-2.28-.72c-2.6-.36-5.25-.65-7.87-.87a2.84,2.84,0,0,0-1.14.08,1.29,1.29,0,0,0-.91,1.15.5.5,0,0,0,.49.51.53.53,0,0,0,.51-.49c0-.07.1-.18.23-.22a2,2,0,0,1,.74,0c2.6.22,5.23.51,7.82.86a4.11,4.11,0,0,1,1.83.55A.52.52,0,0,0,241.62,112.17Z" transform="translate(-1.68 -4.43)"/><path class="cls-1" d="M229.51,113.07a52.07,52.07,0,0,1,6.61.63,6.39,6.39,0,0,1,2,.51l.12.07a2.27,2.27,0,0,0,1.06.36,1,1,0,0,0,.49-.12.5.5,0,1,0-.44-.89c-.11.05-.41-.11-.63-.23l-.14-.07a7,7,0,0,0-2.34-.62,53.26,53.26,0,0,0-6.73-.64.5.5,0,0,0,0,1Z" transform="translate(-1.68 -4.43)"/><path class="cls-1" d="M288.76,152.52c-8.35.82-12.47,1-18.71,1.32l-4.51.23-1.59.06a24,24,0,0,0-5.73.65,59.26,59.26,0,0,1-7.33,1c-.81,0-1.86.21-2.87.37s-1.89.3-2.55.33l-6,.28c-2.23.11-4.4.22-7.19.34a34.09,34.09,0,0,0-4.37.56c-1.23.21-2.51.43-3.78.52-3.24.23-6.61.2-9.86.17-1.61,0-3.23,0-4.83,0a82.4,82.4,0,0,0-9.28.47,30.62,30.62,0,0,0-5.48,1.3l-.94.28A9.54,9.54,0,0,0,189,163a8.08,8.08,0,0,1-1.7.35,15.54,15.54,0,0,0-1.77.39,13.91,13.91,0,0,1-1.63.37.5.5,0,0,0-.09,1c.4.13.8.23,1.2.33a5.08,5.08,0,0,1,2.58,1.17,1.81,1.81,0,0,0,.62,1.55.82.82,0,0,0,.2.12c-.29.12-.58.24-.84.37a4.38,4.38,0,0,0-2.14,2.45,14.44,14.44,0,0,0-4.75.74.49.49,0,0,0-.32.53.51.51,0,0,0,.44.44l1.23.13a3.48,3.48,0,0,1,1,.21c.31.1.92.25,1.44.38l.73.19c0,.13,0,.25.07.38.26,1,.54,1.59,1.18,1.89a2.93,2.93,0,0,0-.47.53l-.11.06a11.57,11.57,0,0,1-1.1.81,7.14,7.14,0,0,1-2.53.93.5.5,0,0,0-.42.33.48.48,0,0,0,.11.52,3,3,0,0,0,1.63,1,6.24,6.24,0,0,0,.8.1,4.41,4.41,0,0,1,1.07.18,1.16,1.16,0,0,1,.68.51s0,0,.05,0a2.85,2.85,0,0,0,.23.37,5.93,5.93,0,0,0,3,1.82,9.21,9.21,0,0,0,1.53.29,1.12,1.12,0,0,1-.05.13,2,2,0,0,0-.14.29,2.56,2.56,0,0,1-1.64,1c-.41.11-.8.25-1.18.39a9.05,9.05,0,0,1-1.78.51.5.5,0,0,0-.15.94,11.08,11.08,0,0,0,2.2.7l.95.24c.94.28,1.9.53,2.86.72a5.82,5.82,0,0,0,1.28.17h.24a2.89,2.89,0,0,0,1.31-.47c7.54,2.56,15.81,3.58,21.47,4.12h.05a.5.5,0,0,0,.49-.42.51.51,0,0,0-.38-.57L215.3,191a33.8,33.8,0,0,1,6.58.3.49.49,0,0,0,.57-.37.5.5,0,0,0-.33-.6,7.22,7.22,0,0,1-1.07-.43,49.53,49.53,0,0,1,7.61,1.39.5.5,0,0,0,.48-.86,8.52,8.52,0,0,0-.91-.67c1.36.33,2.75.66,4.06.88a.5.5,0,0,0,.54-.29.51.51,0,0,0-.16-.6c-.27-.2-.55-.43-.84-.66l0,0a21.73,21.73,0,0,0,2.43.47.5.5,0,0,0,.55-.39.48.48,0,0,0-.34-.58c-.81-.25-.91-.48-1.06-.83,0-.06-.05-.12-.09-.19a25.78,25.78,0,0,1,5.21.85c.79.19,1.64.4,2.62.6a.52.52,0,0,0,.57-.32.5.5,0,0,0-.21-.61,2.63,2.63,0,0,1-.8-1l-.09-.16c1,.18,2,.37,3,.56A46.41,46.41,0,0,0,254,188.6a.49.49,0,0,0,.48-.43.49.49,0,0,0-.34-.54l-.09,0c1.38.18,2.75.38,4.1.58l.57.08a.49.49,0,0,0,.56-.37.5.5,0,0,0-.32-.59c-.76-.27-1.51-.6-2.23-.93,2.94.18,6,.54,8.91.9,2.45.29,4.76.57,7,.75a.5.5,0,0,0,.14-1l-1.65-.33-.9-.18c1.84.13,3.68.22,5.5.3l3.22.15a.5.5,0,0,0,.53-.47A.5.5,0,0,0,279,186a25.76,25.76,0,0,1-5.07-.79l3,.26L283,186c.61.08,1.1.12,1.42.13l.39,0a.53.53,0,0,0,.25,0,8.56,8.56,0,0,0,1.39-.26,4.72,4.72,0,0,1,1.78-.22l.13,0a.5.5,0,0,0,.14-1l-.1,0-.19,0-.17-.05a4.12,4.12,0,0,0-1.34-.11h-.29a3.25,3.25,0,0,1-2.17-.6l-.12-.11a2.76,2.76,0,0,0-.45-.33,2.59,2.59,0,0,0-.72-.23l-1.37-.28a.5.5,0,0,0-.19,1l1.36.27a1.75,1.75,0,0,1,.44.13,1.42,1.42,0,0,1,.27.21l.15.12a2.94,2.94,0,0,0,.76.47h-.05a49,49,0,0,1-6.44-1.22,13.06,13.06,0,0,1-2-.83.5.5,0,0,0-.66.19.49.49,0,0,0,.16.67,5.94,5.94,0,0,0,1,.52c-2.38-.21-4.78-.41-7.29-.65a.5.5,0,0,0-.53.4.49.49,0,0,0,.34.57l.33.11c.94.3,1.78.57,2.57.8a64.78,64.78,0,0,1-8.66-1,.52.52,0,0,0-.47.16.63.63,0,0,0-.11.56c.07.21.24.4.92.64a91.81,91.81,0,0,0-9.52-.74.49.49,0,0,0-.5.41.51.51,0,0,0,.33.56c.41.14.82.31,1.22.48-1.8-.25-3.62-.47-5.46-.61a.5.5,0,0,0-.19,1l1.27.42a56.21,56.21,0,0,1-6.81-1c-1.12-.22-2.29-.43-3.5-.62l-.11-.05a5.55,5.55,0,0,1-1.17-.31,13.81,13.81,0,0,0-1.76-1.16,3.63,3.63,0,0,0-.37-.16,5.76,5.76,0,0,0-1-.34l-.24-.06a5.24,5.24,0,0,0-.75-.15,1.67,1.67,0,0,0-.67,0,.48.48,0,0,0-.38.56.5.5,0,0,0,.54.42,2,2,0,0,1,.34,0l.61.12c.43.11.88.26,1.17.36a1.14,1.14,0,0,1,.65.66,1.33,1.33,0,0,0,.1.24.5.5,0,0,0,.68.21.55.55,0,0,0,.18-.16l.23.18a1.71,1.71,0,0,0,.56.29.41.41,0,0,0,.14.12,2.71,2.71,0,0,1,.79,1l0,.06-1.13-.27a24,24,0,0,0-6.57-.89.5.5,0,0,0-.25.93,1.19,1.19,0,0,1,.55.67l0,.07c-.83-.19-1.66-.43-2.52-.67l-.72-.2a4.75,4.75,0,0,0-1.83-.46.48.48,0,0,0-.51.43.5.5,0,0,0,.38.55c.54.13,1.07.27,1.6.42a8.42,8.42,0,0,1,1.53,1l-2.14-.51a34.35,34.35,0,0,0-7.34-1.26h0a.5.5,0,0,0-.5.46.51.51,0,0,0,.41.54,31.35,31.35,0,0,1,4.41,1c-1.58-.27-3.28-.49-4.95-.7l-2.22-.29a.51.51,0,0,0-.56.39.5.5,0,0,0,.34.58,9,9,0,0,1,1.27.53c-1.7-.08-3.46,0-5.17,0-1.4,0-2.84.08-4.2.05a.52.52,0,0,0-.47.28,78.61,78.61,0,0,1-15.16-3.56c-.84-.31-2.52-1.53-2.61-2a1,1,0,0,1,.06-.56,1.67,1.67,0,0,0,.08-.2.91.91,0,0,1,.56-.36,4.65,4.65,0,0,1,.71-.08,17.45,17.45,0,0,1,2,.22.5.5,0,0,0,.25-1,7,7,0,0,0-2.2-.25l-.43,0a14.46,14.46,0,0,1-3-.38,5.08,5.08,0,0,1-2.43-1.48,5,5,0,0,1-.68-2.72,2,2,0,0,1,1.53-1.82c.52,0,1.19-.08,1.95-.14a25.74,25.74,0,0,1,3.95-.17.5.5,0,0,0,.54-.44.49.49,0,0,0-.43-.55,19.22,19.22,0,0,0-5.4.1,6,6,0,0,0-.81.2h-.08c-1.07,0-1.2-.18-1.51-1.37a3.72,3.72,0,0,1,1.77-4.3,12,12,0,0,1,3.22-1l1.32-.09a18.9,18.9,0,0,1,1.89-.1l.7.05a.5.5,0,0,0,.14-1,4.74,4.74,0,0,0-.8-.06,17.3,17.3,0,0,0-3.38.19,4.69,4.69,0,0,1-2.3-.23c-.47-.34-.11-2.17.46-3,.13-.18.26-.34.39-.5a.53.53,0,0,0,.12-.14,8.69,8.69,0,0,1,4.31-2.25l1-.28a29.67,29.67,0,0,1,5.32-1.27,82.27,82.27,0,0,1,9.16-.46c1.6,0,3.2,0,4.81,0,3.27,0,6.66.06,9.94-.17,1.32-.09,2.62-.32,3.88-.53a32.91,32.91,0,0,1,4.25-.55l7.19-.34,6-.28c.71,0,1.65-.19,2.65-.34s2-.32,2.77-.36a57.82,57.82,0,0,0,7.55-1,23.22,23.22,0,0,1,5.49-.61l1.61-.07,4.51-.22c6.25-.3,10.38-.5,18.76-1.33a.5.5,0,1,0-.1-1Zm-95.42,35a4.89,4.89,0,0,1-1.24-.13c-.93-.2-1.86-.43-2.77-.7l-1-.27-.48-.11.33-.12a11.21,11.21,0,0,1,1.07-.36,4.44,4.44,0,0,0,1.4-.6A6.46,6.46,0,0,0,193.34,187.5Zm-8.93-8.29c-.25,0-.48-.05-.69-.09a1.52,1.52,0,0,1-.36-.12,7.71,7.71,0,0,0,1.91-.85l.2-.13a8.48,8.48,0,0,0,.13,1.39A5.11,5.11,0,0,0,184.41,179.21Zm.26-6.73c-.45-.11-1-.24-1.29-.34.64-.07,1.23-.1,1.76-.11a5,5,0,0,0-.06.56Zm1.32-7.89a11.38,11.38,0,0,1,1.4-.3l.73-.11a5.82,5.82,0,0,0-.41,1.18A5.65,5.65,0,0,0,186,164.59Z" transform="translate(-1.68 -4.43)"/><path class="cls-1" d="M236.05,159.72a.5.5,0,1,0-.12-1l-1.31.12c-3.82.34-4.46.49-4.58,1.07a.49.49,0,0,0,.39.59h.1a.53.53,0,0,0,.39-.18,25.53,25.53,0,0,1,3.79-.49Z" transform="translate(-1.68 -4.43)"/><path class="cls-1" d="M233.43,162.52a.43.43,0,0,0,.19,0l.11,0a6.6,6.6,0,0,1,2.49-.6c.33,0,3.29,0,3.89.09a.51.51,0,0,0,.56-.43.49.49,0,0,0-.43-.56c-.67-.09-3.69-.12-4.09-.1a7.61,7.61,0,0,0-2.79.68l-.11,0a.5.5,0,0,0,.18,1Z" transform="translate(-1.68 -4.43)"/><path class="cls-1" d="M244.05,163.35a.51.51,0,0,0-.57-.42c-.53.07-1.06.18-1.58.29a10.66,10.66,0,0,1-2.88.35c-.18,0-.35,0-.53,0a5.83,5.83,0,0,0-2.52.17c-.22.07-.42.15-.63.23a8,8,0,0,1-1.44.46.51.51,0,0,0-.4.59.5.5,0,0,0,.5.4h.09a8.31,8.31,0,0,0,1.62-.51l.59-.22a5.26,5.26,0,0,1,2.11-.12l.55,0a12.13,12.13,0,0,0,3.15-.37c.5-.1,1-.21,1.51-.28A.51.51,0,0,0,244.05,163.35Z" transform="translate(-1.68 -4.43)"/><path class="cls-1" d="M242.34,166.21a8,8,0,0,1-2.79.18l-.69,0a5.64,5.64,0,0,0-3.8,1,.5.5,0,1,0,.64.76,4.8,4.8,0,0,1,3.13-.75l.67,0a8.73,8.73,0,0,0,3.13-.23.5.5,0,1,0-.29-.95Z" transform="translate(-1.68 -4.43)"/><path class="cls-1" d="M246.1,170.32a.49.49,0,0,0-.59-.38,21.73,21.73,0,0,1-5,.26l-.67,0a10.32,10.32,0,0,0-4.6.64.5.5,0,0,0,.21,1,.46.46,0,0,0,.2-.05,9.52,9.52,0,0,1,4.16-.55l.67,0a22.33,22.33,0,0,0,5.28-.29A.49.49,0,0,0,246.1,170.32Z" transform="translate(-1.68 -4.43)"/><path class="cls-1" d="M235,174.31h0a3.32,3.32,0,0,0,1.1-.11,1.49,1.49,0,0,1,.54-.06h5.78c.17,0,1.37.21,2.43.4h.09a.49.49,0,0,0,.49-.42.5.5,0,0,0-.4-.58c-.88-.15-2.37-.41-2.6-.41h-5.78a2.26,2.26,0,0,0-.91.13,5.36,5.36,0,0,1-.74,0,.5.5,0,0,0-.5.5A.51.51,0,0,0,235,174.31Z" transform="translate(-1.68 -4.43)"/><path class="cls-1" d="M245.26,178a.5.5,0,0,0,.16-.69c-.18-.3-.39-.64-8.6-.72a8.52,8.52,0,0,0-1.23,0,9.2,9.2,0,0,0-2,.49.49.49,0,0,0-.32.63.48.48,0,0,0,.47.34.39.39,0,0,0,.15,0,9.68,9.68,0,0,1,1.8-.45,8.19,8.19,0,0,1,1.11,0,53.28,53.28,0,0,1,7.87.37A.51.51,0,0,0,245.26,178Z" transform="translate(-1.68 -4.43)"/><path class="cls-1" d="M241.37,180.91a.48.48,0,0,0,.4-.21.69.69,0,0,0,.08-.56.8.8,0,0,0-.59-.45c-.87-.18-5.91-1-7.3-.23a.5.5,0,0,0-.21.68.51.51,0,0,0,.68.21c.82-.44,4.63-.07,6.49.29a.55.55,0,0,0,.16.18A.5.5,0,0,0,241.37,180.91Z" transform="translate(-1.68 -4.43)"/><path class="cls-1" d="M240.57,182.28a13,13,0,0,1-2.71-.41,10.47,10.47,0,0,0-3.75-.37.51.51,0,0,0-.43.56.51.51,0,0,0,.57.43,9.52,9.52,0,0,1,3.39.35,13.46,13.46,0,0,0,2.93.44h0a.51.51,0,0,0,.5-.5A.5.5,0,0,0,240.57,182.28Z" transform="translate(-1.68 -4.43)"/></svg>