<svg id="Layer_1" data-name="Layer 1" xmlns="http://www.w3.org/2000/svg" viewBox="0 0 1900 1200"><defs><style>.cls-1{fill:#ffcd34;}</style></defs><title>collections</title><path class="cls-1" d="M446.68,984.73a79.69,79.69,0,0,1-17.65-2c-15.61-3.56-28.1-14.12-34.94-28.47a52.91,52.91,0,0,1-52.46-10.9c-13.78-12.75-17.26-25.82-18-38.16-17.18,3.51-36.91-2.15-48-10.08-15.5-11-26.13-32.43-25.87-52,.24-15.82,7.28-29.18,19.83-37.6a15.07,15.07,0,1,1,16.79,25c-1.56,1.06-6.33,4.25-6.45,13-.15,9.79,5.65,21.66,13.19,27,6,4.28,18.92,7.19,26.4,4.56,3-1,3.94-2.46,4.5-4.42a15.1,15.1,0,0,1,29.53,2.91,156,156,0,0,1,.25,18.86c-.44,14.58-.29,20.82,8.31,28.77a22.91,22.91,0,0,0,16.62,5.59c3.12-.22,9-1.31,13-6.25a15.09,15.09,0,0,1,26.74,8.94c.36,9.26,5.1,21,17.23,23.81,10.9,2.48,22.84,1.09,25.31-3.05a15.09,15.09,0,0,1,25.81,15.65c-8.49,14-24.63,18.8-40.18,18.8"/><path class="cls-1" d="M1471.34,807.9a40.16,40.16,0,0,1-10-1.25c-10.51-2.8-20.32-9.59-29.18-20.18l-2.42-3.12c-1-.8-6,1.1-9.31,2.31-5.18,1.88-11.07,4-17.52,4.49-21.36,1.71-39.51-9.62-47.07-30-5.89-15.83-2.57-30,.38-42.55l1.62-7.29a15.09,15.09,0,1,1,29.57,6l-1.83,8.17c-2.59,11.06-4.06,18.2-1.47,25.17,3,8,7.75,10.9,16.62,10.45,2.26-.18,5.86-1.49,9.36-2.77,6.9-2.52,15.5-5.66,24.77-4.29,11.05,1.62,16,8.28,19,12.25,6.15,7.49,10.89,11.06,15.16,12.2,5.37,1.35,13.86-2.49,17.35-7.82a15.09,15.09,0,0,1,25.22,16.58,49.63,49.63,0,0,1-40.24,21.67"/><path class="cls-1" d="M1154.65,1120.86c-2.42,0-5-.12-7.61-.38-21.26-2.1-34.58-18.44-40.76-37.81-14.5,7.91-32.5,12.65-50.2,1.14-16.53-10.78-18.38-29.54-18.09-44.76-17.26.66-37.76-.55-52.93-16.4-23.54-24.65-12.64-65.76,2.62-87.09a15.08,15.08,0,1,1,24.51,17.56c-9.25,13-15.79,37.75-5.34,48.69,7.67,8,20.1,7.77,38.27,6.61l7.84-.47a15.12,15.12,0,0,1,15.79,15.16c0,2.8-.15,5.83-.33,9-.46,10.25-1.09,23,4.16,26.42,8.66,5.79,21.86-3,35.61-13.43a15.07,15.07,0,0,1,24.18,11.81c.18,13.23,5.78,32.37,17.65,33.55,13.93,1.33,19.44-2.1,30.37-18.36a15.09,15.09,0,0,1,25,16.85c-11,16.24-23.92,31.91-50.78,31.91"/><path class="cls-1" d="M2026.13,711.61a75.06,75.06,0,0,1-7.61-.39c-21.26-2.1-34.58-18.44-40.76-37.81-14.5,7.92-32.5,12.66-50.2,1.14-16.53-10.78-18.38-29.53-18.09-44.76-17.26.66-37.76-.55-52.93-16.39-23.54-24.66-12.64-65.77,2.62-87.09a15.07,15.07,0,1,1,24.51,17.55c-9.25,13-15.79,37.75-5.34,48.7,7.67,8,20.1,7.76,38.27,6.61l7.84-.47a15.11,15.11,0,0,1,15.79,15.15c0,2.8-.15,5.84-.33,9-.47,10.25-1.09,23,4.16,26.42,8.66,5.79,21.85-3,35.61-13.43a15.07,15.07,0,0,1,24.18,11.81c.18,13.23,5.78,32.38,17.65,33.56,13.93,1.32,19.44-2.11,30.37-18.37a15.09,15.09,0,0,1,25,16.85c-11,16.25-23.92,31.92-50.78,31.92"/><path class="cls-1" d="M2023.23,1276.82c-11.57,0-22.24-1.87-27.45-4.16-12.81-5.62-26.69-18.8-33.76-32.06-.21-.4-.41-.78-.59-1.16q-17.76,8.65-44,5c-15.64-2.24-31-10.61-40.06-21.86-.41-.5-.79-1-1.15-1.5a46.57,46.57,0,0,1-14.58,7.74c-13.11,4.3-29,4-43.6-1.06-39.44-13.43-29-61.78-25-80a15.07,15.07,0,1,1,29.46,6.37c-6,27.86-4.37,41.77,5.33,45.08,8.39,2.87,17.49,3.21,24.39,1,5.54-1.83,7.59-4.48,12.75-11.89,1.89-2.71,3.89-5.57,6.22-8.48a15.08,15.08,0,0,1,26.83,8.36l.27,5.08c.29,6.72.44,7.74,2.59,10.39,4.21,5.23,13,9.81,20.82,10.93,24.78,3.47,32.82-4.81,37.39-13.41a15.09,15.09,0,0,1,28.36,6c.21,3,.18,6,.12,9-.09,5-.09,8,1.12,10.26,3.89,7.34,12.55,15.69,19.23,18.65,5.43,2,23.34,2.44,30.64-.12a15.08,15.08,0,0,1,29.66-3.81,24.39,24.39,0,0,1-7.89,25.67c-8.69,7.47-23.51,10-37.06,10"/><path class="cls-1" d="M76.63,1182.68a40.1,40.1,0,0,1-10-1.25c-10.51-2.8-20.32-9.59-29.18-20.18L35,1158.13c-1-.79-6,1.11-9.31,2.31-5.19,1.89-11.08,4-17.53,4.5-21.36,1.7-39.5-9.62-47.06-30-5.9-15.83-2.57-30,.37-42.55l1.63-7.29a15.14,15.14,0,0,1,17.78-11.78,15.11,15.11,0,0,1,11.79,17.79l-1.83,8.18c-2.59,11.06-4.06,18.2-1.47,25.17,2.95,7.95,7.75,10.9,16.62,10.44,2.26-.18,5.86-1.49,9.36-2.77,6.89-2.52,15.49-5.65,24.77-4.28,11,1.62,16,8.27,19,12.25,6.15,7.48,10.89,11.06,15.16,12.19,5.37,1.36,13.85-2.48,17.35-7.82A15.09,15.09,0,0,1,116.87,1161a49.62,49.62,0,0,1-40.24,21.66"/><path class="cls-1" d="M808,605.61c-11.57,0-22.24-1.87-27.45-4.15-12.82-5.63-26.69-18.81-33.76-32.07-.21-.39-.41-.78-.59-1.16q-17.76,8.65-44,5c-15.64-2.24-31-10.61-40.06-21.86-.42-.5-.8-1-1.15-1.5a46.81,46.81,0,0,1-14.58,7.75c-13.11,4.3-29,3.94-43.6-1.06-39.44-13.44-29-61.79-25-80a15.06,15.06,0,1,1,29.45,6.36c-6,27.86-4.36,41.77,5.33,45.08,8.39,2.87,17.5,3.21,24.39,1,5.54-1.83,7.6-4.48,12.76-11.89,1.88-2.71,3.89-5.57,6.21-8.48a15.08,15.08,0,0,1,26.83,8.36L683,522c.29,6.71.45,7.73,2.6,10.38,4.21,5.23,13,9.81,20.82,10.93,24.78,3.47,32.82-4.8,37.38-13.41a15.1,15.1,0,0,1,28.37,6c.21,3,.17,6,.12,9-.09,5.05-.09,8,1.12,10.26,3.89,7.34,12.55,15.69,19.23,18.65,5.42,2,23.34,2.44,30.64-.12a15.08,15.08,0,0,1,29.66-3.81A24.39,24.39,0,0,1,845,595.58c-8.7,7.47-23.51,10-37.06,10"/><path class="cls-1" d="M806.74,1119.32a46.56,46.56,0,0,1-22.83-5.92c-9.22-5.27-13.82-13.4-17.15-19.34-1.65-3-3.24-5.8-4.68-7-1.54.15-9.84,3.36-14.29,5.08-5.68,2.21-11.1,4.17-15.5,4.92-12,2.09-43.7,7.6-59.38-14.91-11.76-16.88-5.59-42.21-1.88-57.35,2-8.07,10.13-14,18.41-11.93,8.07,2,13.26,9.26,11.31,17.37l-.41,1.7c-1.65,6.73-6.66,27.27-2.68,33,2.15,3,9,6,29.51,2.42,2.77-.49,6.12-1.92,9.69-3.32,12.14-4.68,30.41-11.79,44.4-.22,5.8,4.79,9.13,10.71,11.81,15.48,2,3.64,3.8,6.78,5.77,7.9a15.92,15.92,0,0,0,13.32,1,6.64,6.64,0,0,0,4.33-4.63,15.09,15.09,0,0,1,29.16,7.81A36.75,36.75,0,0,1,823.82,1116a44.33,44.33,0,0,1-17.08,3.34"/><path class="cls-1" d="M843.64,111.67a40.1,40.1,0,0,1-10-1.25c-10.51-2.8-20.33-9.59-29.19-20.18L802,87.12c-1-.8-6,1.1-9.31,2.31-5.19,1.89-11.08,4-17.53,4.5-21.36,1.7-39.5-9.62-47.07-30-5.89-15.83-2.56-30,.38-42.55l1.63-7.29a15.09,15.09,0,0,1,29.57,6l-1.83,8.18c-2.6,11.06-4.07,18.2-1.48,25.17,3,8,7.76,10.9,16.62,10.44,2.26-.18,5.86-1.49,9.37-2.77,6.89-2.52,15.49-5.66,24.77-4.29,11.05,1.62,16,8.28,19,12.26,6.16,7.48,10.9,11.06,15.17,12.19,5.36,1.36,13.85-2.48,17.35-7.82A15.09,15.09,0,0,1,883.88,90a49.63,49.63,0,0,1-40.24,21.66"/><path class="cls-1" d="M1604.05,891.22a16,16,0,0,0-8.84,29.27c2,1.55,7,9.47,9.78,17,3.76,10.32,4.17,12.94,2.88,18.7l-1.82,7.45c-1.18,4.65-2.6,10.2-4.16,17.52a16,16,0,1,0,31.22,6.67c1.47-6.79,2.79-12,3.89-16.28l2.07-8.47c3.24-14.61.36-24.34-4-36.49-.36-1-8.8-23.89-22.16-32.75a15.87,15.87,0,0,0-8.82-2.67"/><path class="cls-1" d="M1730.32,733.73a16,16,0,0,0-1.56,31.87c5.58.55,11.82,1.85,17.36,3,3.47.71,6.72,1.36,9.49,1.81,10,1.67,13.76,2.92,22.18,5.61l3.56,1.14c6.16,2,10.24,3.7,14.3,5.37a195.34,195.34,0,0,0,19.06,7,16,16,0,0,0,9.39-30.54,159.14,159.14,0,0,1-16.25-5.95c-4.73-1.94-9.5-3.91-16.74-6.25l-3.54-1.12c-10.12-3.26-14.69-4.71-26.73-6.72l-8.38-1.61c-6.55-1.34-13.92-2.81-20.55-3.46-.53,0-1.06-.08-1.59-.08"/><path class="cls-1" d="M1265.27,850.74a16,16,0,0,0-1.56,31.87c5.59.56,11.82,1.86,17.36,3,3.48.71,6.72,1.36,9.5,1.82,10,1.66,13.76,2.91,22.18,5.61l3.55,1.14c6.16,2,10.25,3.69,14.3,5.36a196.33,196.33,0,0,0,19.06,7,16,16,0,0,0,9.39-30.54A161.91,161.91,0,0,1,1342.8,870c-4.73-2-9.5-3.92-16.74-6.26l-3.54-1.12c-10.12-3.26-14.69-4.71-26.73-6.72l-8.37-1.61c-6.55-1.34-13.93-2.8-20.56-3.46-.53,0-1.06-.08-1.59-.08"/><path class="cls-1" d="M1041.65,1168.36a15.63,15.63,0,0,0-6.18,1.28c-7.53,3.23-45.49,28.18-54.5,34.73a16,16,0,1,0,18.81,25.83c10.87-7.92,43.63-28.92,48.56-31.34a16.18,16.18,0,0,0,7.72-21.11,15.91,15.91,0,0,0-14.41-9.39"/><path class="cls-1" d="M1767.3,268a15.66,15.66,0,0,0-6.14,1.23c-20,8.34-55,23.92-64,34.63a16,16,0,0,0,24.15,20.89c4.15-3.82,26-15.13,52.16-26A16,16,0,0,0,1767.3,268"/><path class="cls-1" d="M807,832.14a16.13,16.13,0,0,0-3.68.43c-18.59,4.4-32.77,13.25-42.15,26.32a107.83,107.83,0,0,0-7.42,12.58c-1.4,2.64-2.77,5.3-4.37,7.76-4.21,6.37-6.8,9-9.53,9.7a110.23,110.23,0,0,0-10.62,3.27c-4.18,1.45-5.71,2-10.72,1.86h-.29a16,16,0,0,0-.3,31.94c11.26.09,16.45-1.78,21.87-3.65,2.1-.73,4.5-1.59,7.9-2.45,15.77-4,24.27-16.91,28.35-23.11,2.19-3.32,4.09-6.88,6-10.45a76.65,76.65,0,0,1,5.11-8.86c4.81-6.69,12.51-11.23,23.52-13.82A16,16,0,0,0,807,832.14"/><path class="cls-1" d="M397,1123.21a16.53,16.53,0,0,0-5,.8c-9.45,3-18.11,12.36-31.25,27.37-2.76,3.14-5.3,6-7.43,8.28-3.1,3.23-6.5,8.67-12.75,18.83-5.82,9.43-13,21.18-18.39,27.41a16,16,0,0,0,24.26,20.78c7-8.13,14.61-20.53,21.32-31.44,3.8-6.15,6.93-11.47,8.82-13.7,2.21-2.32,5.1-5.6,8.18-9.12,4.65-5.32,14.34-16.36,17.94-18.39,8.39-2.68,12.54-11.48,9.86-19.88A16.2,16.2,0,0,0,397,1123.21"/><path class="cls-1" d="M438.25,558.87A16,16,0,0,0,422.4,573c-2.92,25.31-17.81,51-24.16,54.23-8.82,0-14.81,7-14.81,15.76s8.29,15.77,17.12,15.77c29.38,0,50.19-52.63,53.57-82.11a16,16,0,0,0-14-17.69,16.64,16.64,0,0,0-1.84-.11"/><path class="cls-1" d="M1151.58,33.56a16,16,0,0,0-15.85,14.15c-2.92,25.31-17.81,51-24.16,54.22-8.82,0-14.81,7-14.81,15.77s8.3,15.77,17.12,15.77c29.38,0,50.19-52.64,53.58-82.11a16,16,0,0,0-14-17.69,14.52,14.52,0,0,0-1.84-.11"/><path class="cls-1" d="M249,372a35.58,35.58,0,0,0-20.5,6.08c-13.83,9.42-18.42,26.72-21.33,44-3,17.87-8,27-11.71,29.63-8.74-1.58-18.5,4.6-20,13.27s2.76,17.24,11.45,18.75a35.09,35.09,0,0,0,27-5.95c12.26-8.67,20.59-25.63,24.77-50.4,2.9-17.28,6.14-21.77,7.81-22.93,1-.65,3.41-.7,6.41-.06a16,16,0,0,0,6.59-31.25A50.78,50.78,0,0,0,249,372"/><path class="cls-1" d="M1088.9,466.08a35.57,35.57,0,0,0-20.49,6.08c-13.84,9.42-18.42,26.72-21.34,44-3,17.87-8,27-11.71,29.63-8.73-1.58-18.49,4.59-20,13.27s2.76,17.23,11.45,18.74a35.06,35.06,0,0,0,27-5.94c12.26-8.67,20.59-25.63,24.77-50.4,2.9-17.28,6.14-21.77,7.81-22.93,1-.66,3.4-.7,6.41-.06a16,16,0,0,0,6.58-31.26,51.29,51.29,0,0,0-10.48-1.15"/><path class="cls-1" d="M1348.64,1152.91a15.93,15.93,0,0,0-15.34,20.33,80.46,80.46,0,0,1-5.06,16.64c-9.51,18.13-11.77,22.45-31.3,46.51a16,16,0,0,0,24.8,20.12c20.74-25.55,24.06-31.36,34.81-51.83.12-.26,14.7-29.31,5.76-44.08a16,16,0,0,0-13.67-7.69"/><path class="cls-1" d="M1646.08,627.89a15.94,15.94,0,0,0-13.2,7c-4.25,6.23-10.7,13.85-17.25,21.65-8.09,9.65-16.47,19.64-22.05,28.24a16,16,0,1,0,26.79,17.38c4.76-7.33,12.36-16.28,19.73-25.08s14.41-17.24,19.14-24.16a16,16,0,0,0-13.16-25"/><path class="cls-1" d="M1462.62,533.48a16,16,0,0,0-8,29.79l9.77,5.56c11.93,6.79,43.66,24.78,48.89,30.07,4.51,7.59,13.68,9.31,21.29,4.79s9.5-15.1,5-22.69c-4.38-7.43-16.59-15.63-59.43-39.94l-9.5-5.43a15.87,15.87,0,0,0-8-2.15"/><path class="cls-1" d="M1908.45,406c-5,4.2-10,8.57-14.91,13-14.53,12.84-28.25,25-43.55,34.07-40.91,24.35-65.39,22.72-97-6.7-5.35-5-8.37-12.3-11.85-20.78-3.92-9.49-8.37-20.28-17.17-29.51-28.34-29.74-85-7.39-104.56,3.75-7.48,4.3-15.15,9.35-22.94,14.58-15,10-30.44,20.35-44.8,24.21-12.73,3.31-17.22.18-32.25-12.72l-8.33-7.07c-14.87-12.1-32-24.78-50.7-37.71-26.75-18.42-39.17-16.77-60.87-2.94-2.88,1.81-6.17,3.95-10.16,6.22-12.61,7.31-20.29,6-34.21,3.69-8.32-1.37-17.79-3.2-27.56-2.71-13.2.11-24.23,6.08-33.11,10.83-4.68,2.54-11.69,6.45-14.14,5.83-10-2.46-15.51-15.32-23.36-36.25-8.63-22.93-19.37-51.53-48.07-62.16-42.35-15.81-76.44,5.33-103.85,22.31-8.51,5.23-16.94,10.51-25.53,14.57-7.17,3.38-14.08,7.15-20.72,10.81-11.82,6.52-26.49,14.82-32.14,12.61-1.23-.44-5.71-2.9-11.27-16.36-2-4.84-3.93-10.31-6-16-9.39-26.16-21.07-58.79-48.15-67.64-15-4.77-31.19-1.49-48.26,10.1-4.23,2.88-7.87,5.49-11.25,7.92-11.78,8.49-17.69,12.73-33.25,16.47-21,5-31.66,13.39-42,21.46a174.74,174.74,0,0,1-14.17,10.38c-5.26,3.39-8.36,4.44-9,5.1-3.72-5.59-6-24.94-7.24-35.59-2.11-18-4.11-35-11.75-46.66-10-15.29-24.22-24.9-41-27.85-36.94-6.38-77.48,20.17-104.84,40.69-40,30-61.25,33.26-84.4,12.9-10.63-9.33-13.06-27.71-15.67-47.18-3-22.33-6.33-47.66-23.86-65.66a45,45,0,0,0-33.81-13.79c-25.31.65-53.89,20.1-90,61.18l-7,8.24c-11.37,13.69-14.32,16.64-25.9,15.69-14.23-1-17.36-2.83-21.05-21.84-1-5.46-1.87-11.67-2.71-18.24-4.26-32.15-12.61-91.86-67.06-88-17.68,1.22-33.57,7.39-47.57,12.87-25.95,10.15-40.36,14.7-58.53,1-4.89-3.74-7.25-8.85-11-17.62-3.61-8.54-8.11-19.19-17.44-28.27C111.75,56.88,82.49,60,61.16,62.33L54.71,63c-39,3.8-63.38,18-89.16,33-8.37,4.9-17.13,10-27,15.11L-44,145.08c10.5-5.41,19.85-10.86,28.76-16,24-14,42.89-25.06,73.59-28l6.91-.75c15.36-1.72,32.77-3.57,40.76,4.23,3.8,3.64,6,9,8.91,15.69,4.36,10.31,9.78,23.11,23,33.16,36.06,27.32,69,14.53,95.45,4.2,12.59-4.92,24.47-9.54,36.35-10.37,15-1,20.77,11.35,26.56,55,1,7.38,1.91,14.4,3.1,20.47,4.73,24.47,15.07,49.85,55.84,52.71,31.48,2,45.66-14.6,58-29.4l6.26-7.43c37.81-43,56.16-48.07,62.29-48.2a6.69,6.69,0,0,1,5.49,2.27c8.67,8.9,10.94,26,13.35,44,3.23,24.39,6.91,52.05,28.31,70.85,54.36,47.65,107.11,8,132.51-11.07,33.6-25.23,59.14-36.39,75.34-33.6,4,.66,10,2.59,15.66,11.18,2.69,4.11,4.53,19.76,5.74,30.17,3.06,26,6.51,55.4,28.6,65.86,13.07,6.1,28.62,3.57,46.26-7.76,6.82-4.41,12.14-8.55,17-12.39,9-7,14.49-11.33,27.32-14.4,22.91-5.47,33.94-13.41,46.7-22.57l10.38-7.32c6.49-4.44,12-6.5,15-5.41,9.29,3,18.52,28.83,24,44.22,2.25,6.31,4.44,12.35,6.66,17.68,8.4,20.4,19.47,32.73,33.88,37.82,21.73,7.61,42.84-3.93,63.22-15.18,6-3.28,12.15-6.72,18.6-9.73,9.86-4.67,19.56-10.63,29.29-16.65,24.5-15.12,45.67-28.17,70.5-19,12.38,4.6,18.81,21.7,25.61,39.83,8.79,23.39,19.73,52.47,50.06,59.86,16.71,4.2,30.31-3.32,41.3-9.29,5.69-3.06,11.57-6.24,15.23-6.27,9.08-.53,14.68,1.17,21,2.21,16.41,2.78,35.07,5.85,59.52-8.24,4.57-2.65,8.38-5,11.67-7.18,3-1.92,6.79-4.31,6.72-4.65.46.11,3.23.85,11.94,6.91,16.28,11.18,32.94,23.41,48.25,35.85l7.56,6.4c16,13.82,34.24,29.31,67,20.65,20.42-5.48,39.38-18.17,56.11-29.31,7.06-4.74,14-9.36,20.69-13.21,20.57-11.75,51.42-17.46,57.94-10.59,3.87,4.07,6.5,10.4,9.53,17.79,4.31,10.49,9.7,23.51,21.15,34.16,44.3,41.2,86.91,44.69,142.5,11.55,17.76-10.57,33-23.92,47.76-36.89l3.91-53.79Z"/><path class="cls-1" d="M-178.56,357.75A27,27,0,0,1-204,339.91a27,27,0,0,1,16.22-34.6c4.09-1.47,9.87-7.1,15.44-12.5,6.36-6.18,12.85-12.27,19.92-17,15.94-10.69,38.21-20,66.23-27.78,75.67-20.93,157.1-24.52,212.06-24.07a27,27,0,0,1-.29,54c-2.37.21-6.62-.05-10.1-.05-51,0-122,4.12-187.26,22.16-21.8,6-39.74,13.33-50.51,20.55-4.45,3-8.39,7-12.39,10.93-9.24,9-19.71,19.13-34.73,24.57a26.84,26.84,0,0,1-9.18,1.61"/><path class="cls-1" d="M1816.3,939.71a147.32,147.32,0,0,1-15.65-.82,27,27,0,0,1-24-29.71,26.69,26.69,0,0,1,29.71-24c25.75,2.59,53.8-6.06,83.54-15.3,17.17-5.36,34.12-10.58,50.61-13.78,24.35-4.74,48-5.88,71-7l17.89-.92c7.81-.45,15.33-2.56,22.77-4.49,11.5-3,25.15-5.83,38.55-5.94A27.06,27.06,0,0,1,2117,865.51c-.42,14.94-13.88,25.8-27.76,26.29-6.65-.22-14.75,2-23.58,4.22-10.83,2.8-21.85,5.46-33.15,6.1l-18.42.94c-22,1.09-42.74,2.09-63.24,6.07-14.64,2.85-29.66,7.6-44.89,12.32-28.86,9-58.59,18.26-89.65,18.26"/><path class="cls-1" d="M-107.72,998.94a46.42,46.42,0,0,1-16.38-2.85,27,27,0,0,1-15.81-34.8,27.2,27.2,0,0,1,33-16.41c4.65-.43,15.76-5,21.85-7.58,8.15-3.4,16-6.51,22.4-8.12,16.34-4.09,34-8.08,50.53-11.38,13.83-2.77,28.05-4.74,42.35-6.69,26.22-3.6,51-7,72.59-15.6a27,27,0,0,1,20,50.19c-27.68,11-57,15.06-85.25,18.94-13.17,1.82-26.31,3.59-39.08,6.14-15.67,3.14-32.46,6.92-48,10.83-4.31,1.08-9.4,3.32-14.78,5.56-13,5.42-28.24,11.77-43.44,11.77"/><path class="cls-1" d="M1432.83,114.71a27,27,0,0,1-13.29-50.57c35-19.71,76.12-30,115.91-40l14.88-3.74c21.32-5.43,38.78-7.76,60.08-9.74,4.83-.42,10.47-.63,16.47-.82,8.73-.29,23.35-.76,28.2-2.92a27,27,0,1,1,22.11,49.28c-14.57,6.55-32.64,7.13-48.58,7.63-4.82.16-9.36.3-13.24.66-19.13,1.77-33.72,3.7-51.69,8.26l-15.1,3.83c-36.3,9.1-73.85,18.49-102.5,34.64a26.81,26.81,0,0,1-13.25,3.49"/><path class="cls-1" d="M939.76,776.94a27,27,0,0,1-5.2-53.54c22.43-4.41,44.83-13.93,68.52-24,19.45-8.25,39.56-16.83,60.64-22.85,7.76-2.21,16.78-4.14,26.31-6.14,19.23-4.07,43.16-9.13,54.08-18.1A27,27,0,1,1,1178.42,694c-21.14,17.36-50.93,23.67-77.21,29.2-8.17,1.76-16,3.36-22.63,5.29-17.87,5.09-35.58,12.61-54.33,20.61C999.05,759.82,973,770.93,945,776.43a26.83,26.83,0,0,1-5.25.51"/><path class="cls-1" d="M1527.11,1176.37a75,75,0,0,1-41.43-11.95,27,27,0,0,1,29.18-45.49c16.47,10.56,48.16-6.54,71.32-19l7.84-4.2c12.88-6.83,26.49-12.24,40.13-17.6,14.8-5.83,28.79-11.32,41.33-18.76a27,27,0,0,1,27.59,46.44c-16.28,9.69-33,16.25-49.15,22.61-11.77,4.62-23.51,9.19-34.65,15.07l-7.46,4c-22.77,12.29-53.57,28.88-84.7,28.88"/><path class="cls-1" d="M14.31,738.43A27,27,0,0,1,9,684.92c14.3-2.88,28.25-7.25,42.31-11.61,18.87-5.83,38.4-11.88,59.53-15.17,14.09-2.2,21.91-7.81,34.86-17.16,5.09-3.66,10.44-7.51,16.49-11.37A27,27,0,0,1,191.3,675.1c-5.15,3.3-9.68,6.6-14,9.74-15.35,11-31.24,22.51-58.1,26.7-17.26,2.7-34.09,7.89-51.9,13.41-15.78,4.88-31.5,9.68-47.57,13a29.17,29.17,0,0,1-5.38.52"/><path class="cls-1" d="M504.23,867.24a27,27,0,0,1-24.71-47c6.92-5.42,13.71-14.81,20.9-24.77,10.1-13.95,21.54-29.75,38.13-41.84,12.79-9.28,26.84-13.34,39.46-17.09,9.48-2.72,18.59-5.42,23.83-9.64a27,27,0,0,1,33.9,42.1c-13.62,11-28.84,15.57-42.62,19.43-9,2.59-17.59,5.13-22.77,8.89-9.66,7-17.66,18.1-26.14,29.82-9.05,12.52-18.42,25.45-31.23,35.56a27,27,0,0,1-8.75,4.58"/></svg>