<svg id="Layer_1" data-name="Layer 1" xmlns="http://www.w3.org/2000/svg" viewBox="0 0 1900 1200"><defs><style>.cls-1{fill:#ffcd34;}</style></defs><title>body</title><path class="cls-1" d="M348.86,894.92a79.67,79.67,0,0,1-17.64-2c-15.62-3.56-28.1-14.13-34.94-28.47a52.91,52.91,0,0,1-52.46-10.9c-13.79-12.75-17.27-25.82-18-38.16-17.18,3.5-36.91-2.15-48-10.08-15.5-11-26.13-32.43-25.87-52,.23-15.82,7.28-29.18,19.83-37.6a15.07,15.07,0,1,1,16.79,25c-1.57,1.07-6.34,4.26-6.45,13-.15,9.79,5.65,21.66,13.19,27,6,4.28,18.91,7.19,26.4,4.56,3-1,3.94-2.46,4.5-4.42a15.22,15.22,0,0,1,16-10.79,15.06,15.06,0,0,1,13.55,13.7,158.13,158.13,0,0,1,.26,18.86c-.44,14.58-.29,20.82,8.31,28.77A22.9,22.9,0,0,0,280.93,837c3.13-.22,9-1.31,13-6.25a15.09,15.09,0,0,1,26.75,8.94c.35,9.26,5.1,21,17.23,23.81,10.9,2.48,22.83,1.09,25.31-3A15.09,15.09,0,0,1,389,876.12c-8.48,14-24.62,18.8-40.18,18.8"/><path class="cls-1" d="M1026.27,473.57a40.1,40.1,0,0,1-10-1.25c-10.51-2.8-20.32-9.59-29.18-20.18L984.65,449c-1-.8-6,1.1-9.31,2.31-5.19,1.89-11.08,4-17.53,4.5-21.36,1.7-39.5-9.62-47.06-30-5.89-15.83-2.57-30,.37-42.55l1.63-7.29a15.09,15.09,0,0,1,29.57,6l-1.83,8.18c-2.59,11.06-4.06,18.2-1.47,25.17,3,7.95,7.75,10.9,16.62,10.44,2.26-.18,5.86-1.49,9.36-2.77,6.9-2.52,15.5-5.65,24.77-4.29,11.05,1.62,16,8.28,19,12.26,6.15,7.48,10.89,11.06,15.16,12.19,5.37,1.36,13.85-2.48,17.35-7.82a15.09,15.09,0,0,1,25.22,16.59,49.62,49.62,0,0,1-40.24,21.66"/><path class="cls-1" d="M1323.1,1052.37c-2.42,0-4.95-.12-7.6-.38-21.27-2.11-34.59-18.44-40.77-37.81-14.5,7.91-32.49,12.65-50.2,1.13-16.52-10.78-18.38-29.53-18.08-44.76-17.26.67-37.77-.54-52.94-16.39-23.53-24.65-12.64-65.76,2.63-87.09a15.07,15.07,0,1,1,24.5,17.56c-9.25,13-15.78,37.75-5.33,48.69,7.66,8,20.09,7.76,38.27,6.61l7.83-.47a15.11,15.11,0,0,1,15.79,15.16c0,2.8-.14,5.83-.32,9-.47,10.25-1.1,23,4.15,26.42,8.66,5.79,21.86-3,35.62-13.43a15.08,15.08,0,0,1,24.18,11.81c.17,13.23,5.77,32.37,17.64,33.55,13.93,1.33,19.45-2.1,30.37-18.37a15.09,15.09,0,0,1,25,16.86c-11,16.24-23.92,31.91-50.78,31.91"/><path class="cls-1" d="M2022.74,684.4a75,75,0,0,1-7.61-.38c-21.26-2.1-34.58-18.44-40.76-37.81-14.5,7.91-32.5,12.65-50.2,1.14-16.52-10.78-18.38-29.53-18.09-44.76-17.26.66-37.76-.55-52.93-16.4-23.54-24.65-12.64-65.76,2.62-87.09a15.08,15.08,0,1,1,24.51,17.56c-9.25,13-15.79,37.75-5.33,48.69,7.66,8,20.09,7.77,38.26,6.62l7.84-.48a15.11,15.11,0,0,1,15.79,15.16c0,2.8-.15,5.83-.32,9-.47,10.25-1.1,23,4.15,26.42,8.66,5.79,21.86-3,35.62-13.43a15.08,15.08,0,0,1,24.18,11.81c.17,13.23,5.77,32.38,17.64,33.56,13.93,1.32,19.44-2.11,30.37-18.37a15.09,15.09,0,0,1,25,16.85c-11,16.24-23.92,31.91-50.78,31.91"/><path class="cls-1" d="M746.71,1339.8c-2.42,0-5-.12-7.6-.38-21.27-2.11-34.59-18.44-40.77-37.81-14.5,7.91-32.49,12.65-50.2,1.13-16.52-10.78-18.38-29.53-18.09-44.76-17.26.67-37.76-.54-52.93-16.39-23.53-24.65-12.64-65.76,2.63-87.09a15.07,15.07,0,1,1,24.5,17.56c-9.25,13-15.78,37.75-5.33,48.69,7.66,8,20.09,7.76,38.27,6.61l7.83-.47a15.11,15.11,0,0,1,15.79,15.16c0,2.8-.15,5.83-.32,9-.47,10.25-1.1,23,4.15,26.42,8.66,5.79,21.86-3,35.62-13.43a15,15,0,0,1,15.72-1.53,15.12,15.12,0,0,1,8.46,13.34c.17,13.23,5.77,32.37,17.64,33.55,13.93,1.33,19.44-2.1,30.37-18.37a15.09,15.09,0,0,1,25,16.85c-11,16.25-23.92,31.92-50.78,31.92"/><path class="cls-1" d="M1832.62,769.14c-11.58,0-22.24-1.87-27.46-4.16-12.81-5.62-26.69-18.8-33.76-32.06-.2-.4-.41-.78-.58-1.16q-17.77,8.65-44,5c-15.65-2.24-31-10.61-40.06-21.86-.42-.5-.8-1-1.15-1.5a46.8,46.8,0,0,1-14.58,7.74c-13.12,4.31-29,4-43.6-1.06-39.44-13.43-29-61.78-25-80a15.07,15.07,0,1,1,29.46,6.37c-6,27.86-4.36,41.77,5.33,45.08,8.39,2.87,17.5,3.21,24.39,1,5.54-1.83,7.6-4.48,12.76-11.89,1.88-2.71,3.89-5.57,6.21-8.48a15.08,15.08,0,0,1,26.83,8.36l.27,5.08c.29,6.72.44,7.74,2.6,10.39,4.21,5.23,13,9.81,20.82,10.93,24.77,3.47,32.81-4.8,37.38-13.41a15.1,15.1,0,0,1,28.37,6c.2,3,.17,6,.12,9-.09,5-.09,8,1.12,10.26,3.89,7.34,12.55,15.69,19.23,18.65,5.42,2,23.33,2.44,30.63-.12a15.09,15.09,0,0,1,29.67-3.81,24.42,24.42,0,0,1-7.9,25.67c-8.69,7.47-23.51,10-37.05,10"/><path class="cls-1" d="M73.24,1155.48a40.1,40.1,0,0,1-10-1.25c-10.51-2.8-20.32-9.59-29.18-20.18l-2.42-3.12c-1-.8-6,1.1-9.31,2.31-5.18,1.89-11.08,4-17.53,4.5-21.35,1.7-39.5-9.62-47.06-30-5.89-15.83-2.57-30,.37-42.55l1.63-7.29a15.14,15.14,0,0,1,17.79-11.78,15.1,15.1,0,0,1,11.78,17.79l-1.83,8.18c-2.59,11.06-4.06,18.2-1.47,25.17,2.95,8,7.75,10.9,16.62,10.44,2.26-.18,5.86-1.49,9.36-2.77,6.9-2.52,15.5-5.66,24.77-4.29,11,1.62,16,8.28,19,12.26,6.15,7.48,10.89,11.06,15.16,12.19,5.37,1.36,13.86-2.48,17.35-7.82a15.09,15.09,0,0,1,25.22,16.59,49.62,49.62,0,0,1-40.24,21.66"/><path class="cls-1" d="M645.54,518.4c-11.57,0-22.24-1.87-27.45-4.15-12.81-5.63-26.69-18.81-33.76-32.07-.2-.39-.41-.78-.59-1.16q-17.76,8.66-44,5c-15.65-2.24-31-10.6-40.06-21.86-.42-.5-.8-1-1.16-1.5a46.58,46.58,0,0,1-14.58,7.75c-13.11,4.3-28.95,3.95-43.59-1.06-39.44-13.44-29-61.79-25-80a15.07,15.07,0,1,1,29.46,6.36c-6,27.87-4.36,41.77,5.33,45.08,8.39,2.88,17.5,3.22,24.39,1,5.54-1.82,7.6-4.48,12.76-11.88,1.88-2.71,3.89-5.57,6.21-8.49a15.08,15.08,0,0,1,26.83,8.37l.27,5.08c.29,6.71.44,7.73,2.59,10.38,4.21,5.23,13,9.81,20.82,10.93,24.78,3.48,32.82-4.8,37.39-13.4a15.09,15.09,0,0,1,28.37,6c.2,3,.17,6,.12,9-.09,5-.09,8,1.12,10.27,3.88,7.33,12.54,15.68,19.23,18.64,5.42,2.05,23.33,2.45,30.63-.11a15.08,15.08,0,0,1,29.66-3.82,24.39,24.39,0,0,1-7.89,25.67c-8.69,7.47-23.51,10-37.06,10"/><path class="cls-1" d="M917.36,1179.13a46.56,46.56,0,0,1-22.83-5.92c-9.22-5.27-13.82-13.4-17.15-19.34-1.65-3-3.23-5.8-4.68-7-1.53.15-9.84,3.36-14.29,5.09-5.68,2.21-11.1,4.16-15.49,4.91-12,2.1-43.71,7.61-59.39-14.9-11.75-16.88-5.59-42.21-1.88-57.35,2-8.07,10.13-14,18.41-11.93,8.07,2,13.26,9.26,11.31,17.36l-.41,1.71c-1.65,6.73-6.65,27.26-2.68,33,2.15,3,9,6,29.51,2.41,2.77-.48,6.13-1.91,9.69-3.31,12.14-4.68,30.41-11.8,44.4-.22,5.8,4.79,9.13,10.71,11.81,15.48,2,3.64,3.8,6.77,5.78,7.89a15.86,15.86,0,0,0,13.31,1,6.68,6.68,0,0,0,4.33-4.63,15.09,15.09,0,0,1,29.16,7.8,36.72,36.72,0,0,1-21.83,24.65,44.51,44.51,0,0,1-17.08,3.34"/><path class="cls-1" d="M840.25,114.47a40.1,40.1,0,0,1-10-1.25c-10.51-2.8-20.32-9.59-29.19-20.18l-2.41-3.12c-1-.8-6,1.1-9.31,2.31-5.19,1.88-11.08,4-17.53,4.49-21.36,1.71-39.5-9.61-47.07-30-5.89-15.83-2.56-30,.38-42.55l1.63-7.29a15.09,15.09,0,0,1,29.57,6L754.47,31c-2.59,11.06-4.06,18.2-1.47,25.16,3,8,7.75,10.91,16.62,10.45,2.26-.18,5.86-1.49,9.36-2.77,6.89-2.52,15.49-5.66,24.77-4.29,11,1.62,16,8.28,19,12.26,6.15,7.48,10.89,11.06,15.16,12.19,5.36,1.36,13.85-2.49,17.35-7.82a15.09,15.09,0,0,1,25.22,16.59,49.64,49.64,0,0,1-40.24,21.66"/><path class="cls-1" d="M1600.67,864a16,16,0,0,0-8.85,29.27c2,1.55,7,9.47,9.78,17.05,3.76,10.32,4.17,12.94,2.89,18.7l-1.83,7.45c-1.18,4.65-2.6,10.2-4.16,17.52a16,16,0,0,0,31.22,6.67c1.47-6.8,2.79-12,3.89-16.28l2.07-8.47c3.24-14.61.36-24.35-4-36.49-.36-1-8.79-23.89-22.16-32.75a15.86,15.86,0,0,0-8.81-2.67"/><path class="cls-1" d="M1487.24,747a16,16,0,0,0-1.56,31.86c5.58.56,11.82,1.86,17.36,3,3.47.7,6.72,1.36,9.49,1.81,10,1.67,13.76,2.92,22.18,5.61l3.56,1.14c6.16,2,10.24,3.7,14.3,5.37a193.71,193.71,0,0,0,19,6.95,16,16,0,1,0,9.39-30.53,159.14,159.14,0,0,1-16.25-5.95c-4.72-1.94-9.5-3.91-16.73-6.25l-3.54-1.12c-10.12-3.26-14.69-4.71-26.73-6.72l-8.38-1.61c-6.55-1.34-13.92-2.81-20.55-3.46-.53,0-1.06-.08-1.59-.08"/><path class="cls-1" d="M476.25,736.21a16,16,0,0,0-1.56,31.87c5.59.55,11.82,1.85,17.36,3,3.48.71,6.72,1.36,9.5,1.81,10,1.67,13.76,2.92,22.18,5.61l3.55,1.14c6.16,2,10.25,3.7,14.3,5.37a196.33,196.33,0,0,0,19.06,7A16,16,0,0,0,570,761.4a159.14,159.14,0,0,1-16.25-5.95c-4.73-1.94-9.5-3.91-16.74-6.25l-3.54-1.12c-10.12-3.26-14.69-4.71-26.73-6.72l-8.37-1.61c-6.55-1.34-13.93-2.81-20.56-3.46-.53,0-1.06-.08-1.59-.08"/><path class="cls-1" d="M707,599.28a16,16,0,0,0-1.56,31.86c5.58.56,11.82,1.86,17.36,3,3.47.7,6.72,1.36,9.49,1.81,10,1.67,13.76,2.92,22.18,5.61l3.56,1.14c6.16,2,10.24,3.7,14.3,5.37a193.08,193.08,0,0,0,19.06,7,16,16,0,1,0,9.39-30.53,159.14,159.14,0,0,1-16.25-6c-4.73-1.94-9.5-3.91-16.74-6.25l-3.54-1.12c-10.12-3.26-14.69-4.71-26.73-6.72l-8.37-1.61c-6.55-1.34-13.93-2.81-20.56-3.46-.53-.05-1.06-.08-1.59-.08"/><path class="cls-1" d="M642.22,985.14a15.63,15.63,0,0,0-6.18,1.28c-7.53,3.23-45.49,28.18-54.5,34.73A16,16,0,1,0,600.35,1047c10.87-7.92,43.64-28.92,48.56-31.34a16.18,16.18,0,0,0,7.72-21.11,15.93,15.93,0,0,0-14.41-9.39"/><path class="cls-1" d="M1908.35,1114.16a15.62,15.62,0,0,0-6.18,1.27c-7.53,3.23-45.49,28.19-54.5,34.74a16,16,0,1,0,18.8,25.82c10.87-7.92,43.64-28.91,48.57-31.33a16.19,16.19,0,0,0,7.72-21.12,15.92,15.92,0,0,0-14.41-9.38"/><path class="cls-1" d="M1763.92,240.75a15.88,15.88,0,0,0-6.15,1.23c-20,8.35-55,23.93-64,34.64a16,16,0,0,0,24.15,20.88c4.16-3.81,26-15.12,52.16-26a16,16,0,0,0-6.14-30.71"/><path class="cls-1" d="M803.61,804.94a16.71,16.71,0,0,0-3.69.42c-18.59,4.4-32.76,13.26-42.15,26.33a108.41,108.41,0,0,0-7.42,12.58c-1.39,2.64-2.77,5.29-4.37,7.76-4.21,6.37-6.8,9-9.53,9.69-4.55,1.16-7.8,2.28-10.62,3.28-4.18,1.45-5.71,2-10.72,1.86h-.29a16,16,0,0,0-.3,31.94c11.26.09,16.46-1.78,21.87-3.65,2.1-.73,4.5-1.59,7.9-2.45,15.77-4,24.27-16.91,28.36-23.11,2.18-3.33,4.08-6.88,6-10.45a75.29,75.29,0,0,1,5.12-8.86c4.8-6.69,12.5-11.23,23.51-13.82a16,16,0,0,0-3.64-31.52"/><path class="cls-1" d="M409.22,1014a16.47,16.47,0,0,0-5,.79c-9.45,3-18.11,12.36-31.25,27.38-2.76,3.13-5.3,6-7.43,8.27-3.1,3.23-6.5,8.67-12.75,18.83-5.82,9.43-13,21.18-18.39,27.41a16,16,0,1,0,24.26,20.78c7-8.13,14.6-20.52,21.32-31.44,3.79-6.15,6.93-11.46,8.82-13.7,2.21-2.32,5.1-5.59,8.18-9.12,4.65-5.31,14.34-16.36,17.94-18.39,8.39-2.68,12.54-11.47,9.86-19.88A16.2,16.2,0,0,0,409.22,1014"/><path class="cls-1" d="M434.86,531.67A16,16,0,0,0,419,545.82c-2.92,25.31-17.81,51-24.16,54.22C386,600,380,607,380,615.81s8.3,15.77,17.12,15.77c29.38,0,50.19-52.64,53.58-82.11a16,16,0,0,0-14-17.69,14.52,14.52,0,0,0-1.84-.11"/><path class="cls-1" d="M1148.19,36.36a16,16,0,0,0-15.85,14.15c-2.91,25.3-17.81,51-24.15,54.22-8.83,0-14.82,7-14.82,15.77s8.3,15.76,17.12,15.76c29.39,0,50.19-52.63,53.58-82.11a16,16,0,0,0-14-17.68,14.41,14.41,0,0,0-1.84-.11"/><path class="cls-1" d="M161.57,248.78a35.57,35.57,0,0,0-20.49,6.08c-13.84,9.42-18.42,26.72-21.34,44-3,17.87-8,27-11.71,29.63-8.74-1.58-18.5,4.6-20,13.27S90.78,359,99.46,360.53a35.12,35.12,0,0,0,27-5.95c12.26-8.67,20.59-25.63,24.76-50.4,2.9-17.28,6.15-21.77,7.82-22.93,1-.65,3.4-.7,6.4-.06a16,16,0,0,0,6.59-31.26,51.44,51.44,0,0,0-10.48-1.15"/><path class="cls-1" d="M1324.32,699a35.5,35.5,0,0,0-20.49,6.08c-13.84,9.42-18.42,26.72-21.33,44-3,17.87-8,27-11.72,29.63-8.73-1.57-18.49,4.6-20,13.28s2.76,17.23,11.45,18.74a35.08,35.08,0,0,0,27-5.94c12.26-8.67,20.59-25.64,24.77-50.41,2.9-17.27,6.14-21.77,7.81-22.92,1-.66,3.4-.7,6.41-.07a16,16,0,1,0,6.58-31.25,51.29,51.29,0,0,0-10.48-1.15"/><path class="cls-1" d="M1291.24,1092.7A16,16,0,0,0,1275.9,1113a79.26,79.26,0,0,1-5.06,16.64c-9.51,18.12-11.77,22.44-31.29,46.51a16,16,0,1,0,24.79,20.11c20.74-25.54,24.07-31.36,34.81-51.82.13-.26,14.71-29.32,5.77-44.09a16,16,0,0,0-13.68-7.69"/><path class="cls-1" d="M1541.18,521.42a15.94,15.94,0,0,0-13.2,7c-4.26,6.23-10.7,13.85-17.25,21.65-8.09,9.66-16.47,19.64-22,28.24a16,16,0,1,0,26.79,17.38c4.76-7.33,12.36-16.28,19.73-25.08s14.41-17.24,19.14-24.16a16,16,0,0,0-13.16-25"/><path class="cls-1" d="M1202.39,537.58a16,16,0,0,0-8,29.79l9.78,5.56c11.93,6.79,43.65,24.78,48.89,30.07,4.51,7.6,13.68,9.31,21.29,4.79s9.5-15.1,5-22.69c-4.39-7.43-16.6-15.63-59.44-39.94l-9.5-5.43a15.82,15.82,0,0,0-8-2.15"/><path class="cls-1" d="M1911.06,348.75c-5,4.2-10,8.56-14.91,13-14.53,12.84-28.25,25-43.55,34.07-40.91,24.35-65.39,22.72-97-6.71-5.35-5-8.37-12.29-11.85-20.77-3.92-9.49-8.37-20.29-17.17-29.51-28.34-29.75-85-7.39-104.56,3.75-7.47,4.29-15.14,9.35-22.93,14.58-15,10-30.45,20.34-44.8,24.2-12.74,3.32-17.23.18-32.26-12.72l-8.33-7.06c-14.87-12.1-32-24.78-50.7-37.71-26.75-18.43-39.16-16.78-60.87-2.94-2.87,1.81-6.17,3.94-10.16,6.21-12.6,7.32-20.29,6-34.21,3.7-8.32-1.38-17.79-3.21-27.56-2.72-13.2.11-24.23,6.09-33.11,10.84-4.68,2.53-11.69,6.45-14.14,5.83-10-2.46-15.51-15.33-23.36-36.26-8.63-22.93-19.36-51.53-48.07-62.15-42.35-15.81-76.44,5.33-103.85,22.3-8.51,5.24-16.94,10.51-25.53,14.57-7.16,3.39-14.08,7.16-20.72,10.82-11.81,6.52-26.49,14.81-32.14,12.6-1.22-.44-5.7-2.9-11.26-16.36-2-4.83-3.94-10.31-6-16-9.39-26.16-21.07-58.79-48.15-67.64-15-4.77-31.19-1.48-48.26,10.11-4.22,2.87-7.86,5.49-11.24,7.91-11.79,8.49-17.7,12.74-33.26,16.47-21,5-31.66,13.4-42,21.47-4.06,3.23-8.49,6.68-14.17,10.38-5.26,3.39-8.36,4.43-9,5.1-3.73-5.59-6-24.94-7.25-35.59-2.1-18-4.1-35-11.75-46.67-10-15.29-24.22-24.89-41-27.85-36.94-6.37-77.48,20.17-104.84,40.69-39.95,30-61.25,33.26-84.4,12.9-10.63-9.32-13.06-27.71-15.67-47.17-3-22.34-6.33-47.66-23.85-65.67a45.08,45.08,0,0,0-33.82-13.79c-25.31.66-53.89,20.11-90,61.19l-7,8.24C375.14,178,372.19,181,360.6,180c-14.23-1-17.36-2.84-21.05-21.84-1-5.46-1.86-11.68-2.71-18.24-4.25-32.15-12.6-91.87-67.06-88.06-17.68,1.23-33.57,7.4-47.57,12.88-26,10.15-40.36,14.69-58.52,1-4.9-3.73-7.26-8.84-11-17.61-3.61-8.55-8.11-19.2-17.44-28.28C114.36-.33,85.1,2.81,63.77,5.13l-6.45.67c-39,3.81-63.37,18-89.16,33-8.37,4.9-17.13,10-27,15.11l17.49,33.94c10.5-5.42,19.84-10.87,28.75-16,24-14,42.89-25.06,73.6-28l6.9-.74c15.36-1.72,32.77-3.57,40.77,4.22,3.79,3.64,6,9,8.9,15.69,4.37,10.31,9.78,23.11,23,33.16,36.05,27.33,69,14.54,95.44,4.21,12.6-4.92,24.47-9.54,36.35-10.38,15-1,20.77,11.36,26.56,55,1,7.39,1.91,14.4,3.1,20.47,4.74,24.48,15.07,49.86,55.85,52.72,31.48,2,45.65-14.61,58-29.41l6.26-7.42c37.81-43,56.16-48.08,62.29-48.21a6.75,6.75,0,0,1,5.49,2.27c8.68,8.91,10.94,26,13.35,44,3.23,24.39,6.91,52.06,28.31,70.86,54.36,47.65,107.11,8,132.52-11.07,33.59-25.23,59.13-36.4,75.33-33.61,4,.67,10,2.59,15.67,11.18,2.68,4.12,4.52,19.76,5.73,30.18,3.06,26,6.51,55.4,28.6,65.85,13.07,6.11,28.62,3.57,46.26-7.75a209.85,209.85,0,0,0,17-12.4c9-7,14.49-11.33,27.32-14.4,22.91-5.47,34-13.4,46.7-22.57l10.39-7.32c6.48-4.43,12-6.5,15-5.4,9.28,3,18.51,28.83,24,44.21,2.25,6.32,4.44,12.35,6.66,17.68,8.4,20.41,19.48,32.73,33.88,37.82,21.73,7.61,42.84-3.92,63.22-15.18,6-3.28,12.15-6.72,18.6-9.73,9.86-4.67,19.56-10.63,29.29-16.64,24.5-15.13,45.68-28.17,70.5-19,12.38,4.6,18.81,21.7,25.61,39.84,8.79,23.39,19.73,52.47,50.06,59.85,16.72,4.2,30.31-3.32,41.31-9.29,5.68-3.06,11.56-6.24,15.22-6.27,9.08-.52,14.68,1.18,21,2.22,16.42,2.78,35.07,5.84,59.52-8.25,4.57-2.65,8.38-5,11.68-7.17,3-1.93,6.78-4.31,6.71-4.66.47.11,3.23.85,12,6.92,16.27,11.18,32.93,23.4,48.24,35.85l7.56,6.39c16,13.83,34.24,29.31,67,20.65,20.43-5.48,39.38-18.17,56.11-29.31,7.06-4.74,14-9.36,20.69-13.21,20.57-11.75,51.42-17.46,57.94-10.58,3.87,4.06,6.5,10.39,9.53,17.78,4.31,10.49,9.7,23.51,21.15,34.17,44.3,41.19,86.92,44.69,142.5,11.55,17.77-10.58,33-23.93,47.77-36.9l3.9-53.78Z"/><path class="cls-1" d="M-181.95,291.54a27,27,0,0,1-25.41-17.84,27,27,0,0,1,16.22-34.6c4.1-1.47,9.87-7.09,15.44-12.5,6.36-6.18,12.85-12.27,19.92-17,15.94-10.69,38.21-20,66.23-27.78,75.67-20.93,157.1-24.51,212.06-24.07a27,27,0,0,1-.29,54c-2.37.21-6.62-.05-10.1-.05-51,0-122,4.12-187.26,22.16-21.8,6-39.74,13.33-50.51,20.56-4.45,3-8.38,7-12.39,10.92-9.24,9-19.71,19.13-34.73,24.57a26.84,26.84,0,0,1-9.18,1.61"/><path class="cls-1" d="M1812.91,912.5a147,147,0,0,1-15.64-.81,27,27,0,0,1-24-29.71A26.7,26.7,0,0,1,1803,858c25.75,2.59,53.8-6.06,83.54-15.3,17.17-5.36,34.12-10.58,50.61-13.78,24.35-4.74,48-5.88,71-7L2026,821c7.81-.45,15.33-2.56,22.77-4.49,11.5-3,25.15-5.83,38.55-5.94a27,27,0,0,1,26.28,27.76c-.42,14.94-13.88,25.8-27.76,26.29-6.65-.22-14.75,2-23.58,4.22-10.83,2.8-21.85,5.45-33.15,6.09l-18.42,1c-22,1.09-42.74,2.09-63.24,6.07-14.64,2.85-29.66,7.6-44.88,12.32-28.87,9-58.6,18.25-89.66,18.25"/><path class="cls-1" d="M-111.1,971.74a46.66,46.66,0,0,1-16.39-2.85,27,27,0,0,1-15.81-34.8,27.2,27.2,0,0,1,33-16.42c4.65-.42,15.76-5,21.86-7.57,8.15-3.41,16-6.51,22.39-8.13,16.34-4.08,34-8.07,50.54-11.37,13.82-2.77,28-4.74,42.34-6.69,26.23-3.6,51-7,72.59-15.6a27,27,0,0,1,20,50.18c-27.68,11-57,15.07-85.25,19C21,939.26,7.87,941-4.9,943.58c-15.67,3.14-32.46,6.92-48,10.83-4.31,1.08-9.4,3.32-14.78,5.56-13,5.42-28.23,11.77-43.43,11.77"/><path class="cls-1" d="M1429.44,117.5a27,27,0,0,1-13.29-50.56c35-19.71,76.12-30,115.91-40l14.88-3.74c21.32-5.43,38.79-7.76,60.08-9.74,4.83-.42,10.47-.63,16.47-.82,8.73-.29,23.35-.76,28.2-2.92A27,27,0,1,1,1673.8,59c-14.57,6.55-32.63,7.13-48.58,7.63-4.82.16-9.36.3-13.23.65-19.14,1.78-33.73,3.71-51.69,8.27l-15.1,3.82c-36.31,9.11-73.86,18.5-102.51,34.65a26.88,26.88,0,0,1-13.25,3.48"/><path class="cls-1" d="M912.46,803.3a27,27,0,0,1-5.2-53.54c22.43-4.41,44.83-13.93,68.52-24,19.45-8.25,39.55-16.83,60.64-22.85,7.76-2.21,16.78-4.14,26.3-6.14,19.24-4.07,43.16-9.13,54.09-18.1a27,27,0,1,1,34.31,41.74c-21.14,17.36-50.93,23.67-77.21,29.2-8.18,1.75-16,3.36-22.64,5.29-17.86,5.09-35.57,12.61-54.33,20.6-25.19,10.72-51.26,21.82-79.23,27.33a26.91,26.91,0,0,1-5.25.51"/><path class="cls-1" d="M1523.72,1149.17a75.06,75.06,0,0,1-41.43-12,27,27,0,0,1,29.18-45.49c16.47,10.56,48.16-6.54,71.32-19l7.84-4.21c12.88-6.83,26.5-12.23,40.13-17.6,14.8-5.82,28.79-11.31,41.33-18.75a27,27,0,0,1,27.59,46.44c-16.28,9.69-33,16.25-49.15,22.61-11.77,4.61-23.51,9.19-34.65,15.07l-7.46,4c-22.77,12.29-53.57,28.88-84.7,28.88"/><path class="cls-1" d="M88.93,594.22a27,27,0,0,1-5.33-53.51c14.3-2.88,28.25-7.26,42.31-11.62,18.87-5.83,38.4-11.87,59.53-15.17,14.09-2.19,21.91-7.8,34.86-17.15,5.09-3.67,10.44-7.52,16.49-11.37a27,27,0,0,1,29.13,45.49c-5.15,3.3-9.68,6.6-14,9.74-15.35,11-31.24,22.51-58.1,26.69-17.26,2.7-34.09,7.9-51.9,13.41-15.78,4.88-31.5,9.69-47.57,13a28.35,28.35,0,0,1-5.38.53"/><path class="cls-1" d="M1312.86,545a27,27,0,0,1-9.7-52.24c8.2-3.14,17.46-10.1,27.28-17.5,13.77-10.34,29.37-22.05,48.79-28.7,15-5.09,29.58-4.81,42.74-4.67,9.87.2,19.36.31,25.62-2.17a27,27,0,0,1,20,50.24c-16.26,6.46-32.16,6.35-46.46,6-9.4-.18-18.32-.29-24.38,1.77-11.3,3.85-22.22,12.08-33.78,20.77-12.35,9.29-25.12,18.87-40.34,24.75a27.38,27.38,0,0,1-9.72,1.79"/></svg>