<?xml version="1.0" encoding="utf-8"?>
<!-- Generator: Adobe Illustrator 22.0.1, SVG Export Plug-In . SVG Version: 6.00 Build 0)  -->
<svg version="1.1" id="Layer_1" xmlns="http://www.w3.org/2000/svg" xmlns:xlink="http://www.w3.org/1999/xlink" x="0px" y="0px"
	 viewBox="0 0 1900 1200" style="enable-background:new 0 0 1900 1200;" xml:space="preserve">
<style type="text/css">
	.st0{fill:#FFCD34;}
	.st1{fill:#D5DD45;}
	.st2{fill:#ED7C83;}
	.st3{fill:#EF6C55;}
	.st4{fill:#4DBCC3;}
	.st5{fill:#BBCE4E;}
	.st6{fill:#A7D8D0;}
	.st7{fill:#E3DBD1;}
	.st8{fill:#C2E0CC;}
</style>
<path class="st8" d="M546.8,507.6c-22.9-12.1-43.9-13.5-60.6,11.4c-14,20.9-10.5,34.4-2.5,56.1c-44.6,6.6-59.6,41.3-31.5,78.3
	c40.1,52.9,152.5,36.3,203.1,7.8c54.7-30.8,92.4-72.1,105.3-126.2c7.1-29.8,4.5-66.7-1.6-100.2l-47.7,8.2c-20.8,4-37.9,10-57.4,3.1
	c-30.3-10.7-83.5,6.6-95.7,15.9C545.7,471.6,539,485.8,546.8,507.6"/>
<path class="st8" d="M1798.8,983.2c29.8-8.5,54.7-4.9,68.1,28.4c11.2,27.9,3.7,42.8-11,66.3c50.6,18.8,59.4,63.1,17.4,99.4
	c-60.1,52-187.4,4.6-239.6-41.3c-56.4-49.6-90.2-107.2-91.9-173.7c-1-36.6,11.3-79.2,26.7-116.8l53.8,21.4
	c23.4,9.8,41.8,21.1,66.4,17.8c38.1-5,96,28.5,108,42.4C1809.1,941.4,1813.3,959.6,1798.8,983.2"/>
<path class="st8" d="M1803.6,408.1c-18.3-25-40.2-37.4-71.2-19.3c-26,15.2-29.2,31.6-31.9,59.1c-51.5-16.1-85.6,13.5-74.7,67.9
	c15.6,77.9,145.3,118.4,214.7,114.1c74.9-4.7,137-29.5,179.1-81c23.2-28.3,39.5-69.5,50.4-108.7l-55.6-16c-24.5-6.5-46-9-63.4-26.6
	c-27-27.3-93.3-36.3-111.3-32.7C1821.1,368.8,1806.6,380.6,1803.6,408.1"/>
<path class="st8" d="M1002.3,901c-24.6,18.8-36.5,41-17.8,71.6c15.7,25.7,32.2,28.5,59.8,30.7c-15,51.8,15.3,85.3,69.5,73.2
	c77.5-17.3,115.3-147.8,109.5-217c-6.3-74.8-32.4-136.3-84.8-177.3c-28.8-22.6-70.3-38.1-109.7-48.1l-14.9,55.9
	c-6,24.6-8,46.2-25.2,63.9c-26.7,27.6-34.3,94.1-30.3,112C962.6,884.3,974.7,898.6,1002.3,901"/>
<path class="st8" d="M1236.8,177.8c-21-28.7-46.1-42.9-81.7-22.1c-29.8,17.4-33.5,36.2-36.6,67.9c-59-18.5-98.2,15.5-85.7,77.9
	c17.9,89.3,166.7,135.9,246.3,130.9c86-5.4,157.2-33.9,205.5-93c26.6-32.5,45.4-79.7,57.9-124.7l-63.8-18.4
	c-28.1-7.5-52.7-10.3-72.7-30.5c-31-31.3-107.1-41.6-127.7-37.5C1256.9,132.7,1240.3,146.2,1236.8,177.8"/>
<path class="st8" d="M275.5,168.1c5.8-21.4,17.3-35.3,42.7-31.1c21.3,3.5,27.6,13.7,36.5,31.4c30.3-24,60.7-12.9,67.4,26.3
	c9.5,56.1-66.9,116.5-114.4,131.4c-51.3,16.1-99.2,15.4-140.6-8.3c-22.8-13-44.3-36.4-61.6-59.8l33.1-25
	c14.7-10.7,28.5-17.8,35.6-34c11.1-25.2,53.1-48.2,66.1-50.4C253.7,146.3,266.5,150.5,275.5,168.1"/>
<path class="st8" d="M563.7,41.6c-21.6,5.1-39.3,1.7-47.8-22.6c-7.1-20.4-1.2-30.8,10.1-47.1c-35.5-15.2-40.4-47.2-9.1-71.8
	C561.7-135,651.2-96.8,687-62.2c38.7,37.4,60.9,79.8,59.9,127.5c-0.6,26.2-10.8,56.3-23.1,82.7l-37.8-17.1
	c-16.4-7.8-29.2-16.5-46.9-15c-27.4,2.3-67.7-23.6-75.9-34C554.9,71.2,552.5,58,563.7,41.6"/>
<path class="st8" d="M203.6,895.8c7-25.6,20.8-42.3,51.1-37.3c25.5,4.2,33.1,16.4,43.7,37.6c36.3-28.7,72.7-15.5,80.7,31.5
	c11.4,67.2-80.1,139.5-137,157.3c-61.5,19.3-118.8,18.4-168.4-10c-27.3-15.6-53-43.6-73.8-71.6l39.7-29.9
	c17.6-12.8,34.1-21.3,42.6-40.7c13.3-30.1,63.6-57.7,79.2-60.4C177.5,869.6,192.7,874.6,203.6,895.8"/>
<path class="st8" d="M-84.7,522.7c7.6-28,22.6-46.2,55.8-40.7c27.8,4.6,36.1,17.8,47.7,41c39.6-31.3,79.4-16.9,88,34.4
	C119.3,630.7,19.5,709.6-42.6,729c-67.1,21-129.7,20.1-183.7-10.9c-29.7-17-57.8-47.5-80.5-78.1l43.3-32.6
	c19.2-13.9,37.2-23.2,46.5-44.5c14.5-32.9,69.5-63,86.4-65.9C-113.2,494.1-96.6,499.6-84.7,522.7"/>
<path class="st8" d="M1902.4-54.2c7-25.6,20.8-42.3,51.1-37.3c25.5,4.2,33.1,16.4,43.7,37.6c36.3-28.7,72.7-15.5,80.7,31.5
	c11.4,67.2-80.1,139.5-137,157.3c-61.5,19.3-118.8,18.4-168.4-10c-27.3-15.6-53-43.6-73.8-71.6l39.7-29.9
	c17.6-12.8,34.1-21.3,42.6-40.7c13.3-30.1,63.6-57.7,79.2-60.4C1876.3-80.4,1891.5-75.4,1902.4-54.2"/>
</svg>
