<svg id="Layer_1" data-name="Layer 1" xmlns="http://www.w3.org/2000/svg" viewBox="0 0 1900 1200"><defs><style>.cls-1{fill:#f5d8cb;}.cls-2{fill:#cac2c4;}</style></defs><title>collections</title><path class="cls-1" d="M-139.3,708.19c4.22-2.92,8.37-5.17,12.38-8.51,4.2-3.51,8.65-7,12.68-10.87,2.72-2.57,8.6-7.76,11.36-10.22,2.38-2.1,40.87-24.63,51.21-29.73,9.13-4.51,18.76-9.47,28.3-12.94,7-2.54,13.18-6.78,20.25-9.23A140.29,140.29,0,0,0,18,617c3.89-2.07,9.08-4.9,13-7.06,4.46-2.43,9-4.73,13.54-7,8.16-4,16.42-7.85,24.63-11.78,17.91-8.57,35.5-18.05,53.73-26,17.62-7.69,33.28-17.11,52.34-26.77,16.28-8.25,22.51-35.08,30.56-48.32,9.42-15.49,18.4-19.92,27.3-36.88a67.35,67.35,0,0,1-1.41,20.32c-5.67,24.06-21,54-23.93,59.71-7.17,12.11-10.92,19.13-17.06,26.94,4,2,27.2-3.43,38.29-7.76,10.19-4,17-6.53,25.84-13.31,9.87-7.55,20.61-16.8,32.89-23.46,5.17-2.81,8.3-4.23,13.26-7.47,4.32-2.83,8.63-8,12.67-11.38,8.89-7.35,18.05-14.51,26.77-21.92.67,22.7-14.16,40.79-26.22,57.92-6.32,9-14.93,15.85-20.92,21-8.93,7.69-16,11.46-25.92,18.52s-20.2,11.11-32.14,16.15c10.88-3.56,22.16-4.93,33-7,15.29-3,30-6.31,44.11-10.25,12.79-3.57,25.83-6.25,38.13-11.91,11.41-5.26,23.47-7.94,35.15-10.71,12.78-3,24.38-11.37,33.12-17.76-1.12,11.87-9,24.75-14.54,31.21-5.26,6.1-3.6,5.3-9,11.1C385,584.2,375,594.85,359,597.07c20,3.54,50,2.53,69.69-6-.08,7-35.63,34.89-44.81,39.08-14.85,6.79-40.77,13.76-58.32,18.72,3.7,10.47,48.66,10,47.59,8.41.69,8-25,23.79-33.35,29.26a189.56,189.56,0,0,1-22.18,13c-3.19,1.52-19.72,6.16-20.19,10.08-.42,3.5,8.24,3.65,10.58,4.15,4.49,1,18.68,1.2,18.29,8.71-6.92,2.95-11.31,2.5-16.13,6.18s-5.92,5.88-11.53,7.24c-5.13,1.25-9.78,2.81-14,5.7-3.77,2.61-8.77,4.24-11.91,7.56-3.35-2.37-11.14-.53-14.9.72-4,1.33-11.53,5.68-12.28,8.59,3.44,3.88,11.79,9.13,7.62,14.74-1.44,1.93-4.65,3.59-6.76,4.59-3.21,1.53-4,.09-6.39,2.42-4.24,4.14-10.52-1-13.54,5.57-1.58,3.41-1.29,5.49-5.57,6.12-4.48.65-9.74,3.55-14,2.68-5.45-1.1-6.45-1.1-9.48,2.73-2.1,2.65-2.72,2.89-6.45,3.08-6.89.36-15.84-1.09-12,8.68,1.54,3.91,4.3,5.9,7.73,7.88,2.83,1.65,5.33,2.7,3.77,6.44-3.32,8-16.56,5-22.71,8.57-3.71,2.14-5.06,4.44-8.86,6.67-3.32,2-5.32,4.82-9.08,4.91-8.16.2-14.1,1.77-18.21,9.14-5.26-2.72-8.18-1.74-14.21-1.13-4.21.41-11.93,2.73-10.32,8.19,1.38,4.72,7.93,9.73,12,11.51,3.59,1.57,12.82,1,10.36,6.91-2.55,6.08-13.91.93-13.18,10.84-4.76.56-9.14,1.89-14.12,1.79A56.65,56.65,0,0,0,87.8,892C78,894.41,68.64,896.45,59,899.26c1,4.25,2.47,10.37,3.56,14.6.58,2.23,1.3,4.84.22,7C61,924.27,52.3,924.78,49,926.37c-10.25,5-25,5.22-36.16,4.06a83.58,83.58,0,0,0-19,.14L-162.07,714.25c6.08-6.09,14.17-.14,22.77-6.06"/><path class="cls-2" d="M516.59,1223c.37-1.33.84-2.51,1.09-3.9s.58-2.94.75-4.43c.12-1,.44-3.09.59-4.07s4.2-12.14,5.45-15a79.45,79.45,0,0,1,3.62-7.56c1-1.73,1.56-3.67,2.6-5.4a37,37,0,0,0,2.7-5.64c.45-1.1,1-2.58,1.48-3.71s1-2.53,1.6-3.78c1-2.24,2-4.45,3-6.68,2.23-4.86,4.23-9.85,6.63-14.64,2.31-4.63,3.93-9.28,6.2-14.56,1.94-4.52-1.4-11.14-2-15.26-.72-4.83.37-7.3-.72-12.34a18.29,18.29,0,0,1,3.22,4.45c3,6,5,14.78,5.35,16.47a63.1,63.1,0,0,1,1.12,8.51c1.17-.27,5-5.4,6.58-8.21a24.85,24.85,0,0,0,3-7.21,68.26,68.26,0,0,1,2.75-10.52c.58-1.47,1-2.31,1.45-3.83.4-1.33.4-3.15.66-4.54.57-3.05,1.23-6.11,1.75-9.15,4.05,4.58,4.11,10.88,4.57,16.5a32.05,32.05,0,0,1-.7,8,82.66,82.66,0,0,1-2.17,8.3,43.16,43.16,0,0,1-3.86,8.88,72.35,72.35,0,0,1,5.61-7.14c2.65-3.25,5.11-6.47,7.35-9.73,2-2.94,4.26-5.74,5.83-9a49,49,0,0,1,5.42-8.27c2.12-2.83,3.08-6.56,3.78-9.39,1.82,2.65,2.41,6.67,2.38,9s.17,1.72.06,3.85c-.22,4-.45,8-3.38,11.19,4.75-2.71,10.79-8.11,13.37-13.26,1.2,1.47-1.35,13.36-2.52,15.81-1.9,4-6.06,9.87-8.83,13.93,2.57,1.52,11.78-6.34,11.29-6.47,1.52,1.53-1.07,9.23-1.85,11.8a52.56,52.56,0,0,1-2.34,6.51c-.4.86-3,4.68-2.44,5.57s2.34-.67,2.91-1c1.09-.57,4.07-3,5.28-1.36-.92,1.81-1.91,2.47-2.27,4.07s-.21,2.23-1.13,3.48a10.94,10.94,0,0,0-1.91,3.59c-.33,1.19-1.08,2.39-1.16,3.61-1.1.09-2.39,1.82-3,2.72s-1.41,3.17-1.06,3.9c1.38.21,4-.15,4.12,1.73a5.17,5.17,0,0,1-.61,2.12c-.4.86-.81.71-.9,1.6-.16,1.58-2.34,1.62-1.84,3.48.26,1,.68,1.36-.09,2.23s-1.4,2.41-2.45,3c-1.31.71-1.52.88-1.49,2.2,0,.91-.06,1.06-.8,1.75-1.36,1.26-3.46,2.5-1,3.86a4.16,4.16,0,0,0,3,.29c.87-.14,1.57-.36,1.89.69.69,2.21-2.56,3.89-3.22,5.68-.39,1.09-.28,1.8-.68,2.91s-.27,1.92-1,2.58c-1.65,1.45-2.61,2.8-2.19,5-1.55.35-2,1-3.13,2.22-.8.81-2,2.62-.72,3.47,1.1.74,3.32.65,4.46.31s2.83-2,3.34-.35-2.72,2.59-.86,4.51a25.47,25.47,0,0,1-2.61,2.8,15.07,15.07,0,0,0-2.74,2.73c-1.63,2.19-3.2,4.22-4.71,6.47.94.7,2.3,1.72,3.25,2.4a2.74,2.74,0,0,1,1.26,1.41c.23,1-1.49,2.62-1.9,3.51-1.26,2.79-4.27,5.4-6.77,7.08a22.73,22.73,0,0,0-3.9,3.3l-69.55-17.82c.21-2.31,2.9-2.47,3.66-5.18"/><path class="cls-2" d="M1287,754c1.14-.78,2.26-1.39,3.34-2.29s2.33-1.9,3.41-2.92c.73-.7,2.32-2.1,3.06-2.76s11-6.63,13.79-8a76.86,76.86,0,0,1,7.62-3.48c1.88-.69,3.54-1.83,5.45-2.49a37.34,37.34,0,0,0,5.69-2.6l3.51-1.9c1.2-.66,2.42-1.27,3.65-1.88,2.19-1.08,4.42-2.11,6.63-3.17,4.82-2.31,9.55-4.86,14.46-7,4.75-2.07,9-4.61,14.09-7.21,4.39-2.22,6.06-9.44,8.23-13,2.54-4.17,5-5.36,7.35-9.93a18.05,18.05,0,0,1-.38,5.47c-1.53,6.48-5.66,14.54-6.44,16.08a64.53,64.53,0,0,1-4.59,7.26c1.07.54,7.32-.93,10.3-2.1a24.32,24.32,0,0,0,7-3.58,70,70,0,0,1,8.86-6.32c1.39-.75,2.23-1.13,3.57-2,1.16-.77,2.32-2.17,3.41-3.07,2.39-2,4.86-3.9,7.2-5.9.19,6.11-3.81,11-7.06,15.59a31.35,31.35,0,0,1-5.63,5.66,82.88,82.88,0,0,1-7,5,43.3,43.3,0,0,1-8.66,4.35,71.05,71.05,0,0,1,8.88-1.89c4.12-.8,8.07-1.7,11.87-2.76,3.45-1,7-1.68,10.27-3.21a50.13,50.13,0,0,1,9.46-2.88c3.45-.81,6.57-3.06,8.92-4.78-.3,3.19-2.42,6.66-3.91,8.4s-1,1.43-2.42,3c-2.75,3-5.46,5.84-9.76,6.44,5.38.95,13.47.68,18.76-1.63,0,1.9-9.59,9.4-12.07,10.53-4,1.83-11,3.7-15.7,5,1,2.81,13.1,2.68,12.81,2.26.19,2.15-6.73,6.41-9,7.88a51.11,51.11,0,0,1-6,3.5c-.86.41-5.31,1.66-5.44,2.71s2.22,1,2.85,1.12c1.21.26,5,.32,4.92,2.34-1.86.8-3,.68-4.34,1.67s-1.6,1.58-3.1,2a10.81,10.81,0,0,0-3.77,1.53c-1,.7-2.36,1.14-3.2,2-.9-.64-3-.15-4,.19s-3.1,1.53-3.3,2.31c.93,1.05,3.17,2.46,2,4a5.31,5.31,0,0,1-1.82,1.24c-.86.41-1.08,0-1.72.65-1.14,1.11-2.83-.25-3.64,1.5-.43.92-.35,1.48-1.5,1.65s-2.63,1-3.79.72c-1.46-.3-1.73-.3-2.55.73-.56.72-.73.78-1.73.83-1.86.1-4.27-.29-3.23,2.34a4.14,4.14,0,0,0,2.08,2.12c.76.44,1.43.73,1,1.74-.89,2.14-4.46,1.35-6.11,2.3-1,.58-1.36,1.2-2.39,1.8s-1.43,1.3-2.44,1.32c-2.2,0-3.8.48-4.91,2.46-1.41-.73-2.2-.47-3.82-.3-1.13.11-3.21.73-2.78,2.2.37,1.27,2.14,2.62,3.23,3.1s3.45.28,2.79,1.86-3.75.25-3.55,2.92a26.31,26.31,0,0,1-3.8.48,15,15,0,0,0-3.86.34c-2.65.64-5.15,1.19-7.75,1.94.27,1.15.66,2.8,1,3.93a2.8,2.8,0,0,1,.06,1.89c-.47.92-2.82,1.05-3.71,1.48-2.76,1.34-6.74,1.41-9.73,1.1a21.84,21.84,0,0,0-5.11,0l-42-58.25c1.64-1.64,3.82,0,6.13-1.63"/><path class="cls-2" d="M950.08,6c0,1.38-.1,2.65,0,4s.28,3,.53,4.47c.16,1,.44,3.09.58,4.07s-.62,12.83-1,15.91a78.73,78.73,0,0,1-1.35,8.27c-.49,2-.46,4-1,5.91a37.75,37.75,0,0,0-1,6.18c-.12,1.18-.27,2.76-.38,4s-.29,2.72-.47,4.07c-.32,2.43-.7,4.85-1.06,7.28-.77,5.29-1.29,10.64-2.24,15.91-.92,5.09-1.17,10-1.86,15.72-.6,4.88,4.47,10.29,6.22,14.08,2,4.43,1.69,7.1,4.15,11.63a18.12,18.12,0,0,1-4.33-3.36c-4.53-4.88-8.92-12.79-9.77-14.31a61.69,61.69,0,0,1-3.46-7.85c-1,.59-3.31,6.6-4,9.73a25,25,0,0,0-.9,7.77,69,69,0,0,1,.32,10.87c-.15,1.58-.3,2.49-.32,4.09a45,45,0,0,0,.64,4.54c.31,3.09.54,6.21.89,9.27-5.18-3.25-7-9.28-9-14.55a32.65,32.65,0,0,1-1.56-7.83,83.48,83.48,0,0,1-.25-8.57,42.79,42.79,0,0,1,1.21-9.61,71.24,71.24,0,0,1-3.38,8.43c-1.63,3.86-3.08,7.65-4.32,11.4-1.12,3.39-2.48,6.71-3.05,10.31A49.68,49.68,0,0,1,907,147.3c-1.24,3.32-1.11,7.16-1,10.07-2.48-2-4.18-5.72-4.79-7.93s-.65-1.6-1.14-3.67c-.93-3.94-1.81-7.78.09-11.69-3.79,3.94-8.07,10.81-9.1,16.48-1.56-1.07-2.46-13.2-2-15.88.71-4.34,3-11.18,4.56-15.85-2.89-.74-9.53,9.39-9,9.38-1.89-1-1.56-9.16-1.54-11.84a51.13,51.13,0,0,1,.42-6.91c.14-.94,1.58-5.33.78-6s-2.06,1.29-2.52,1.74c-.89.85-3.07,4-4.69,2.78.38-2,1.14-2.9,1-4.53s-.43-2.21.11-3.66a11,11,0,0,0,.82-4c0-1.24.37-2.6.09-3.8,1-.39,1.79-2.41,2.08-3.44s.46-3.43-.08-4c-1.38.18-3.81,1.26-4.44-.51a5.26,5.26,0,0,1,0-2.2c.14-1,.58-.91.41-1.79-.29-1.57,1.79-2.21.79-3.86-.53-.87-1-1.12-.53-2.17s.66-2.71,1.5-3.54c1.07-1.06,1.22-1.28.82-2.53a1.71,1.71,0,0,1,.27-1.9c1-1.6,2.62-3.38-.14-4a4.2,4.2,0,0,0-2.92.55c-.79.39-1.4.79-2-.12-1.28-1.94,1.37-4.46,1.49-6.37.08-1.15-.23-1.79-.16-3s-.28-1.91.27-2.76c1.17-1.86,1.72-3.42.68-5.45,1.4-.77,1.62-1.57,2.39-3,.54-1,1.18-3.08-.29-3.54-1.26-.4-3.36.31-4.37,1s-2.15,2.72-3.1,1.28,1.88-3.25-.45-4.57a26.05,26.05,0,0,1,1.72-3.42,15.23,15.23,0,0,0,1.87-3.39c.94-2.56,1.88-4.95,2.7-7.53-1.1-.41-2.69-1-3.8-1.39a2.79,2.79,0,0,1-1.59-1c-.51-.9.69-2.93.83-3.91.43-3,2.58-6.37,4.51-8.69,1.06-1.27,2.08-5.21,2.82-6.69h71.75c.45,2.27-2.09,3.19-2.06,6"/><path class="cls-1" d="M915.46,419.86c-20.77-28.33-45.62-42.41-80.78-21.86-29.46,17.22-33.08,35.82-36.19,67.08-58.38-18.29-97.11,15.29-84.71,77.05,17.73,88.34,164.82,134.33,243.49,129.42,85-5.31,155.37-33.48,203.13-91.91,26.27-32.14,44.84-78.84,57.22-123.29l-63.09-18.19c-27.81-7.42-52.15-10.17-71.92-30.13C1052,377.11,976.75,366.88,956.35,371c-21,4.24-37.48,17.64-40.89,48.89"/><path class="cls-2" d="M1785.2,1029.24c33.76-9.67,62-5.58,77.24,32.19,12.74,31.67,4.21,48.59-12.48,75.2,57.35,21.3,67.4,71.57,19.76,112.79-68.12,59-212.56,5.23-271.74-46.84-63.93-56.26-102.3-121.64-104.26-197.07C1492.64,964,1506.56,915.72,1524,873l61,24.27c26.53,11.17,47.46,23.9,75.3,20.23,43.17-5.66,108.89,32.32,122.51,48,14,16.23,18.82,36.9,2.38,63.69"/><path class="cls-1" d="M1985.93,463c-20.77-28.32-45.62-42.41-80.78-21.86-29.47,17.22-33.09,35.83-36.2,67.09-58.37-18.3-97.11,15.28-84.71,77,17.74,88.34,164.83,134.34,243.5,129.42,85-5.3,155.37-33.48,203.12-91.9,26.28-32.14,44.85-78.84,57.23-123.3L2225,481.26c-27.81-7.42-52.14-10.18-71.91-30.13-30.65-30.92-105.86-41.16-126.26-37.06-21,4.24-37.48,17.64-40.89,48.88"/><path class="cls-1" d="M18.25,260.66C9,248-2.08,241.76-17.75,250.91c-13.14,7.68-14.75,16-16.14,29.9-26-8.15-43.28,6.82-37.75,34.35,7.9,39.37,73.46,59.87,108.52,57.68,37.89-2.36,69.26-14.92,90.54-41,11.71-14.33,20-35.14,25.51-55l-28.12-8.1c-12.4-3.31-23.25-4.54-32.06-13.43C79.09,241.6,45.57,237,36.48,238.87c-9.38,1.89-16.71,7.86-18.23,21.79"/><path class="cls-1" d="M1719.63,780.56c-3.07-4.19-6.75-6.27-12-3.23-4.35,2.54-4.89,5.29-5.35,9.91-8.63-2.7-14.35,2.26-12.52,11.39,2.62,13.06,24.37,19.86,36,19.14,12.56-.79,23-4.95,30-13.59,3.88-4.75,6.63-11.66,8.46-18.23l-9.33-2.69c-4.11-1.09-7.71-1.5-10.63-4.45-4.53-4.57-15.65-6.09-18.67-5.48s-5.54,2.61-6,7.23"/><path class="cls-1" d="M1398.09,434.35c-3.07-4.18-6.75-6.27-11.94-3.23-4.36,2.55-4.9,5.3-5.36,9.92-8.63-2.7-14.35,2.26-12.52,11.39,2.62,13.06,24.37,19.86,36,19.13,12.56-.78,23-4.95,30-13.58,3.88-4.76,6.63-11.66,8.46-18.23l-9.33-2.69c-4.11-1.1-7.71-1.5-10.63-4.45-4.53-4.58-15.65-6.09-18.67-5.48s-5.54,2.61-6,7.22"/><path class="cls-2" d="M1893.8,12.92c-5,1.2-9.44,2.79-14.6,3.55-5.42.79-11,1.74-16.56,2.2-3.72.3-11.52,1.22-15.19,1.64-3.15.37-45.61,14-56.31,18.31-9.45,3.8-19.57,7.66-28.52,12.46-6.56,3.52-13.85,5.29-20.38,8.92a139.9,139.9,0,0,1-21.31,9.32c-4.13,1.51-9.7,3.49-14,5-4.79,1.7-9.52,3.55-14.23,5.44-8.45,3.39-16.8,7-25.2,10.49-18.34,7.62-37.13,14.41-55.22,22.68-17.48,8-34.94,13.38-54.86,21.14-17,6.61-41.15-6.64-56.38-9.48-17.82-3.31-27.12.42-45.69-4.27a67.51,67.51,0,0,0,16.08,12.51c21.71,11.83,54.22,20.35,60.45,22,13.8,2.74,21.53,4.63,31.45,5.27-1.16,4.3-20.7,18-31.32,23.34-9.78,4.93-16.2,8.3-27.16,10.38-12.21,2.31-26.26,4.14-39.42,8.84-5.54,2-8.68,3.37-14.4,4.9-5,1.33-11.75,1.06-16.93,1.84-11.42,1.72-22.86,3.78-34.19,5.32,16.46,15.65,39.83,16.67,60.64,19.11,10.88,1.27,21.76-.55,29.6-1.57,11.68-1.53,19.19-4.27,31.08-7s21.76-7.64,33.48-13.17c-9.91,5.74-18.46,13.22-27.23,19.88-12.4,9.42-24.7,18.13-37.06,26-11.19,7.15-21.89,15.07-34.32,20.46-11.52,5-21.57,12.19-31.41,19C1414,305,1400,308.11,1389.4,310.36c9.59,7.08,24.44,9.81,33,10,8.05.16,6.35.86,14.26.72,15-.26,29.66-.63,42-11.07-10.7,17.26-31.5,39-51,47.91,5.3,4.63,49.76-3.28,59-7.32,15-6.53,37.45-21.19,52.85-31,5.33,9.74-25,42.91-25.48,41.07,5.49,5.84,34.42-2.78,44-5.33a190.12,190.12,0,0,0,24.48-7.84c3.26-1.36,17.75-10.59,21-8.32,2.89,2-2.78,8.57-4,10.65-2.26,4-11.57,14.71-5.71,19.43,6.81-3.19,9.41-6.75,15.36-7.89s8.33-.49,13.08-3.76c4.36-3,8.62-5.41,13.57-6.61,4.46-1.07,9-3.7,13.58-3.82.46-4.08,7-8.66,10.48-10.62,3.63-2.08,11.91-4.8,14.58-3.42.6,5.15-1.06,14.87,5.9,15.51,2.4.22,5.78-1.08,7.94-2,3.27-1.36,2.74-2.92,6.05-3.14,5.92-.4,6.32-8.47,13.19-6.37,3.6,1.1,5,2.7,8.28-.07s9.14-4.88,11.36-8.68c2.82-4.79,3.49-5.54,8.36-5.24,3.37.2,4-.1,6.6-2.75,4.86-4.89,9.76-12.52,14.46-3.15,1.89,3.76,1.53,7.15.72,11-.67,3.21-1.54,5.78,2.28,7.11,8.14,2.84,14.78-9,21.54-11.2,4.06-1.33,6.68-.81,10.88-2.15,3.67-1.17,7.14-.75,9.71-3.49,5.59-5.94,10.72-9.33,19-7.47,1.48-5.73,4.16-7.25,8.63-11.34,3.12-2.86,10-7.07,13-2.23,2.59,4.18,2,12.41.57,16.62-1.22,3.72-7.78,10.23-1.76,12.32,6.23,2.16,10-9.74,16.87-2.58,3.59-3.17,7.5-5.55,10.75-9.33a56.55,56.55,0,0,1,10.48-9.83c8.35-5.74,16.08-11.32,24.61-16.64,2.49,3.6,6.08,8.77,8.5,12.4,1.27,1.92,2.74,4.19,5.06,4.82,3.7,1,9.91-5.17,13.29-6.57,10.53-4.33,20.59-15.15,27.14-24.22a83.37,83.37,0,0,1,12.77-14L1913.5,0c-8.59.47-9.56,10.46-19.7,12.92"/><path class="cls-1" d="M676.69,177c-1.21-.43-2.35-.72-3.53-1.27s-2.53-1.15-3.74-1.82c-.82-.45-2.56-1.33-3.38-1.75s-11.41-3.37-14.22-3.95a74.21,74.21,0,0,0-7.65-1.34c-1.84-.17-3.6-.81-5.46-.95a34.84,34.84,0,0,1-5.71-1c-1.07-.25-2.5-.61-3.58-.88s-2.47-.58-3.71-.83c-2.22-.46-4.45-.86-6.68-1.29-4.86-.94-9.7-2.12-14.6-2.89-4.73-.74-9.1-2-14.31-3.16-4.44-1-7.63-7-10.41-9.73-3.24-3.14-5.69-3.65-8.9-7.18a16.59,16.59,0,0,0,1.62,4.81c2.88,5.45,8.46,11.7,9.53,12.9a57.74,57.74,0,0,0,5.81,5.42c-.84.74-6.78.89-9.73.54a23.09,23.09,0,0,1-7.07-1.58,62.88,62.88,0,0,0-9.41-3.59c-1.42-.35-2.26-.5-3.66-1a39.64,39.64,0,0,1-3.77-1.95c-2.61-1.21-5.27-2.36-7.84-3.6,1.27,5.52,6,9,10,12.32a30.07,30.07,0,0,0,6.37,3.75,77.43,77.43,0,0,0,7.41,2.84,40.48,40.48,0,0,0,8.77,1.87,64.55,64.55,0,0,0-8.39.38c-3.88.25-7.63.36-11.29.3a61.35,61.35,0,0,1-9.94-.47,45.53,45.53,0,0,0-9.15-.37c-3.28.08-6.6-1.21-9.11-2.2A15.94,15.94,0,0,0,536.4,176c1.66,1.14,1.2,1.06,2.87,2.12,3.16,2,6.25,4,10.25,3.48-4.6,2.11-11.91,3.76-17.19,2.93.46,1.69,10.79,6.17,13.27,6.61,4,.7,10.69.75,15.24.84-.23,2.76-11.11,5.47-11,5,.34,2,7.54,4.17,9.89,5a45.71,45.71,0,0,0,6.16,1.74c.87.17,5.15.25,5.51,1.16s-1.76,1.4-2.29,1.67c-1,.52-4.43,1.46-3.86,3.25,1.85.28,2.88-.11,4.27.48s1.8,1,3.24,1a10.06,10.06,0,0,1,3.73.49,17.93,17.93,0,0,1,3.35,1.07c.65-.78,2.65-.82,3.64-.76s3.13.64,3.5,1.3c-.59,1.15-2.27,2.94-.91,4a4.87,4.87,0,0,0,1.92.69c.87.16,1-.24,1.69.18,1.28.73,2.48-.89,3.62.49.59.72.65,1.24,1.73,1.12s2.57.25,3.55-.23c1.25-.61,1.49-.68,2.46.06a1.6,1.6,0,0,0,1.75.33c1.68-.34,3.75-1.25,3.44,1.34a3.91,3.91,0,0,1-1.37,2.39c-.58.58-1.12,1-.5,1.79,1.3,1.71,4.31.17,6,.64,1,.28,1.5.75,2.56,1.05s1.59.83,2.5.61c2-.46,3.51-.46,5,1.06,1.09-1,1.86-.93,3.35-1.17,1-.16,3.05-.09,3,1.33a6,6,0,0,1-2.17,3.53c-.77.6-3,1.05-2.06,2.32s3.41-.65,3.86,1.78a25,25,0,0,0,3.51-.45,14,14,0,0,1,3.53-.61c2.53,0,4.9-.13,7.41-.06,0,1.09.06,2.65.06,3.74a2.5,2.5,0,0,0,.39,1.7c.63.72,2.77.29,3.66.47,2.78.55,6.37-.32,9-1.3a20.66,20.66,0,0,1,4.58-1.16l24-62c-1.85-1.08-3.43.86-5.87,0"/><path class="cls-2" d="M631.69,794.36c-1.21-.44-2.35-.72-3.53-1.28s-2.53-1.15-3.74-1.82c-.82-.45-2.56-1.33-3.38-1.75s-11.41-3.37-14.22-4a74.21,74.21,0,0,0-7.65-1.34c-1.84-.17-3.6-.8-5.46-1a34.84,34.84,0,0,1-5.71-1c-1.07-.25-2.5-.61-3.58-.88s-2.47-.57-3.71-.83c-2.22-.46-4.45-.86-6.68-1.29-4.86-.94-9.7-2.12-14.6-2.89-4.73-.74-9.1-2-14.31-3.16-4.44-1-7.63-7-10.41-9.73-3.24-3.14-5.69-3.65-8.9-7.18a16.64,16.64,0,0,0,1.62,4.82c2.88,5.44,8.46,11.69,9.53,12.89a58,58,0,0,0,5.81,5.43c-.84.73-6.78.88-9.73.53A22.8,22.8,0,0,1,526,778.4a62.88,62.88,0,0,0-9.41-3.59c-1.42-.35-2.26-.5-3.66-1a42,42,0,0,1-3.77-1.94c-2.61-1.22-5.27-2.37-7.84-3.6,1.27,5.51,6,8.94,10,12.31a29.24,29.24,0,0,0,6.37,3.75A74.86,74.86,0,0,0,525,787.2a40.48,40.48,0,0,0,8.77,1.87,66.36,66.36,0,0,0-8.39.38c-3.88.25-7.63.37-11.29.31a62.51,62.51,0,0,1-9.94-.48,45.53,45.53,0,0,0-9.15-.37c-3.28.08-6.6-1.21-9.11-2.2a15.81,15.81,0,0,0,5.47,6.61c1.66,1.15,1.2,1.06,2.87,2.12,3.16,2,6.25,3.95,10.25,3.48-4.6,2.11-11.91,3.76-17.19,2.93.46,1.7,10.79,6.18,13.27,6.61,4,.7,10.69.75,15.24.84-.23,2.76-11.11,5.47-11,5,.34,2,7.54,4.16,9.89,4.95a45.71,45.71,0,0,0,6.16,1.74c.87.17,5.15.25,5.51,1.16s-1.76,1.4-2.29,1.67c-1,.52-4.43,1.47-3.86,3.25,1.85.28,2.88-.11,4.27.48s1.8,1,3.24,1a10.27,10.27,0,0,1,3.73.49,18,18,0,0,1,3.35,1.08c.65-.79,2.65-.83,3.64-.77s3.13.65,3.5,1.3c-.59,1.15-2.27,2.95-.91,4a5,5,0,0,0,1.92.68c.87.17,1-.23,1.69.18,1.28.73,2.48-.89,3.62.49.59.72.65,1.24,1.73,1.13s2.57.24,3.55-.24c1.25-.61,1.49-.67,2.46.06a1.58,1.58,0,0,0,1.75.34c1.68-.35,3.75-1.26,3.44,1.33a3.91,3.91,0,0,1-1.37,2.39c-.58.58-1.12,1-.5,1.79,1.3,1.71,4.31.17,6,.64,1,.28,1.5.75,2.56,1.05s1.59.83,2.5.61c2-.46,3.51-.46,5,1.06,1.09-1,1.86-.93,3.35-1.17,1-.16,3.05-.09,3,1.33a5.94,5.94,0,0,1-2.17,3.53c-.77.61-3,1.06-2.06,2.32s3.41-.65,3.86,1.79a25,25,0,0,0,3.51-.46,14,14,0,0,1,3.53-.6c2.53,0,4.9-.14,7.41-.07,0,1.09.06,2.66.06,3.74a2.54,2.54,0,0,0,.39,1.71c.63.71,2.77.28,3.66.46,2.78.55,6.37-.32,9-1.3a21.22,21.22,0,0,1,4.58-1.16l24-62c-1.85-1.08-3.43.86-5.87,0"/><path class="cls-2" d="M338,79c2.93-10.7,8.67-17.66,21.35-15.58,10.64,1.75,13.81,6.83,18.26,15.7,15.15-12,30.37-6.46,33.69,13.15,4.75,28.06-33.44,58.24-57.19,65.68-25.67,8-49.61,7.68-70.29-4.15-11.38-6.52-22.14-18.19-30.81-29.9l16.55-12.49c7.37-5.33,14.23-8.9,17.81-17,5.54-12.59,26.57-24.1,33.05-25.2,6.68-1.13,13.05,1,17.58,9.8"/><path class="cls-2" d="M1567.93,523.14c2.78-10.16,8.23-16.77,20.28-14.79,10.11,1.66,13.12,6.49,17.34,14.91,14.39-11.39,28.84-6.14,32,12.49,4.51,26.65-31.76,55.31-54.32,62.38-24.38,7.63-47.11,7.29-66.76-4-10.81-6.18-21-17.27-29.26-28.4l15.73-11.86c7-5.06,13.51-8.45,16.91-16.15,5.26-12,25.23-22.89,31.39-23.93,6.34-1.07,12.39.92,16.69,9.3"/><path class="cls-2" d="M415.93,388.14c2.78-10.16,8.23-16.77,20.28-14.79,10.11,1.66,13.12,6.49,17.34,14.91,14.39-11.39,28.84-6.14,32,12.49,4.51,26.65-31.76,55.31-54.32,62.38-24.38,7.63-47.11,7.29-66.76-3.95-10.81-6.18-21-17.27-29.26-28.4l15.73-11.86c7-5.06,13.51-8.45,16.91-16.15,5.26-12,25.23-22.89,31.39-23.93,6.34-1.07,12.39.92,16.69,9.3"/><path class="cls-2" d="M944.65,1153.14c2.78-10.16,8.23-16.77,20.28-14.79,10.1,1.66,13.11,6.49,17.34,14.91,14.38-11.39,28.84-6.14,32,12.49,4.51,26.65-31.75,55.31-54.31,62.38-24.38,7.63-47.12,7.29-66.76-4-10.81-6.18-21-17.27-29.26-28.4l15.72-11.86c7-5.06,13.52-8.45,16.91-16.15,5.27-12,25.24-22.89,31.39-23.93,6.35-1.07,12.39.92,16.7,9.3"/><path class="cls-2" d="M161.65,1153.14c2.78-10.16,8.23-16.77,20.28-14.79,10.1,1.66,13.11,6.49,17.34,14.91,14.38-11.39,28.84-6.14,32,12.49,4.51,26.65-31.75,55.31-54.31,62.38-24.38,7.63-47.12,7.29-66.76-4-10.81-6.18-21-17.27-29.26-28.4l15.72-11.86c7-5.06,13.52-8.45,16.91-16.15,5.27-12,25.24-22.89,31.39-23.93,6.35-1.07,12.39.92,16.7,9.3"/><path class="cls-1" d="M1002.18,863.7c4.51-16.51,13.37-27.26,33-24,16.41,2.7,21.31,10.54,28.17,24.23,23.38-18.51,46.87-10,52,20.3,7.33,43.3-51.61,89.89-88.27,101.37-39.61,12.4-76.56,11.85-108.49-6.42C901,969.09,884.39,951.07,871,933l25.55-19.28c11.37-8.23,22-13.73,27.48-26.26,8.56-19.42,41-37.19,51-38.88,10.32-1.74,20.14,1.49,27.14,15.12"/><path class="cls-1" d="M1183.23,73.51c1.78-6.52,5.28-10.77,13-9.49,6.48,1.06,8.41,4.16,11.13,9.56,9.23-7.31,18.51-3.94,20.53,8,2.9,17.11-20.38,35.51-34.86,40-15.65,4.9-30.24,4.68-42.85-2.53-6.94-4-13.49-11.09-18.78-18.23l10.09-7.61c4.49-3.25,8.67-5.43,10.85-10.37,3.38-7.68,16.2-14.69,20.15-15.36s8,.59,10.72,6"/><path class="cls-1" d="M402.74,931.72c1.78-6.52,5.28-10.77,13-9.49,6.48,1.06,8.41,4.16,11.13,9.56,9.23-7.31,18.51-3.94,20.53,8,2.9,17.11-20.38,35.51-34.86,40-15.65,4.9-30.24,4.68-42.85-2.53-6.94-4-13.49-11.09-18.78-18.23L361,951.48c4.49-3.25,8.68-5.43,10.85-10.37,3.39-7.68,16.2-14.69,20.15-15.36s8,.59,10.72,6"/><path class="cls-1" d="M1422,1084.72c1.78-6.52,5.28-10.77,13-9.49,6.48,1.06,8.41,4.16,11.13,9.56,9.23-7.31,18.51-3.94,20.53,8,2.9,17.11-20.38,35.51-34.86,40-15.65,4.9-30.24,4.68-42.85-2.53-6.94-4-13.49-11.09-18.78-18.23l10.09-7.61c4.49-3.25,8.68-5.43,10.85-10.37,3.39-7.68,16.2-14.69,20.15-15.36s8,.59,10.72,6"/></svg>