<svg id="Layer_1" data-name="Layer 1" xmlns="http://www.w3.org/2000/svg" viewBox="0 0 1900 1200"><defs><style>.cls-1{fill:#d6ad2a;}</style></defs><title>buzz-page-bkgd</title><path class="cls-1" d="M-113.79,750.75c3.73-2.57,7.39-4.56,10.92-7.5,3.71-3.09,7.63-6.21,11.18-9.58,2.39-2.27,7.58-6.85,10-9,2.09-1.86,36-21.72,45.14-26.21,8.05-4,16.54-8.35,25-11.41,6.17-2.24,11.62-6,17.85-8.14a124.22,124.22,0,0,0,18.65-8.51c3.42-1.82,8-4.32,11.48-6.22C40.34,662,44.33,660,48.34,658c7.2-3.55,14.48-6.92,21.71-10.38,15.79-7.56,31.3-15.91,47.37-22.93,15.53-6.77,29.34-15.08,46.15-23.6,14.34-7.27,19.84-30.93,26.93-42.59,8.31-13.66,16.22-17.57,24.07-32.52a59.37,59.37,0,0,1-1.24,17.91c-5,21.22-18.53,47.58-21.1,52.65-6.32,10.68-9.62,16.86-15,23.75,3.51,1.77,24-3,33.75-6.85,9-3.52,15-5.76,22.79-11.73,8.7-6.65,18.16-14.81,29-20.68,4.56-2.48,7.32-3.73,11.69-6.58,3.81-2.5,7.61-7.09,11.17-10,7.84-6.48,15.91-12.79,23.6-19.32.59,20-12.48,36-23.12,51.06-5.56,7.9-13.15,14-18.44,18.52-7.87,6.77-14.09,10.09-22.85,16.32S227,640.8,216.44,645.25c9.59-3.14,19.53-4.35,29.07-6.2,13.47-2.6,26.42-5.55,38.88-9,11.27-3.15,22.77-5.51,33.62-10.5,10.06-4.64,20.69-7,31-9.44,11.27-2.67,21.49-10,29.2-15.66-1,10.46-7.92,21.82-12.82,27.51-4.64,5.39-3.17,4.68-7.92,9.79-9,9.72-17.86,19.11-32,21.07,17.63,3.12,44.12,2.23,61.44-5.31-.07,6.21-31.42,30.76-39.51,34.46-13.09,6-35.94,12.12-51.41,16.5,3.26,9.23,42.89,8.79,41.95,7.42.61,7-22.06,21-29.4,25.79A166.9,166.9,0,0,1,289,743.11c-2.81,1.34-17.39,5.43-17.8,8.89-.37,3.08,7.27,3.21,9.33,3.66,3.95.86,16.46,1.05,16.12,7.67-6.1,2.6-10,2.21-14.22,5.45s-5.22,5.18-10.16,6.39a35.85,35.85,0,0,0-12.32,5c-3.32,2.3-7.73,3.74-10.5,6.66-3-2.09-9.82-.46-13.14.64-3.49,1.17-10.15,5-10.82,7.57,3,3.42,10.4,8.05,6.72,13-1.27,1.7-4.1,3.16-6,4-2.83,1.35-3.54.08-5.63,2.13-3.74,3.65-9.27-.83-11.94,4.92-1.39,3-1.14,4.84-4.91,5.39-3.95.57-8.58,3.13-12.39,2.36-4.8-1-5.69-1-8.36,2.41-1.84,2.33-2.39,2.55-5.68,2.72-6.07.31-14-1-10.57,7.64,1.35,3.45,3.79,5.21,6.81,7,2.5,1.46,4.7,2.39,3.33,5.68-2.93,7-14.6,4.42-20,7.56-3.27,1.89-4.46,3.91-7.81,5.88-2.93,1.72-4.7,4.25-8,4.33-7.19.17-12.43,1.55-16.06,8-4.63-2.39-7.2-1.53-12.52-1-3.71.37-10.52,2.41-9.1,7.22,1.22,4.17,7,8.58,10.57,10.15,3.17,1.39,11.31.91,9.13,6.09-2.24,5.37-12.26.82-11.61,9.56-4.2.5-8.06,1.67-12.45,1.58a49.91,49.91,0,0,0-12.62,1.09c-8.68,2.11-16.89,3.91-25.4,6.38.9,3.75,2.18,9.15,3.14,12.87.52,2,1.15,4.27.19,6.17-1.51,3-9.22,3.46-12.13,4.86-9,4.37-22.06,4.61-31.87,3.58a73.62,73.62,0,0,0-16.72.13L-133.86,756.09c5.37-5.36,12.49-.12,20.07-5.34"/><path class="cls-1" d="M1018.38,14c0,3.23-.23,6.18.11,9.45s.64,7,1.23,10.42c.39,2.32,1,7.21,1.36,9.51.26,2-1.45,30-2.41,37.15a180.7,180.7,0,0,1-3.16,19.31c-1.12,4.55-1.07,9.26-2.27,13.8a88.63,88.63,0,0,0-2.36,14.43c-.28,2.75-.62,6.46-.88,9.28-.29,3.18-.68,6.35-1.1,9.51-.75,5.67-1.65,11.32-2.47,17-1.8,12.36-3,24.86-5.25,37.16-2.15,11.89-2.72,23.37-4.35,36.71-1.39,11.39,10.44,24,14.53,32.87,4.79,10.34,4,16.59,9.7,27.17a42.25,42.25,0,0,1-10.12-7.85c-10.58-11.39-20.82-29.87-22.8-33.4-3.81-8-6.16-12.4-8.09-18.34-2.44,1.37-7.73,15.4-9.35,22.7-1.49,6.72-2.54,11.16-2.11,18.16.49,7.8,1.56,16.64.74,25.39-.35,3.68-.7,5.81-.75,9.53,0,3.25,1.18,7.33,1.51,10.61.72,7.21,1.25,14.5,2.07,21.65-12.09-7.6-16.34-21.68-21.06-34-2.47-6.43-3.05-13.34-3.64-18.27-.89-7.36-.39-12.36-.59-20s1.27-14.44,2.82-22.44c-2,6.93-5.18,13.3-7.88,19.68-3.81,9-7.21,17.86-10.09,26.62-2.62,7.92-5.79,15.67-7.14,24.08-1.25,7.8-4.07,15-6.72,22.1-2.9,7.73-2.6,16.71-2.32,23.52-5.81-4.75-9.78-13.37-11.2-18.53-1.35-4.88-1.51-3.74-2.66-8.58-2.17-9.19-4.22-18.16.22-27.3-8.85,9.2-18.85,25.25-21.26,38.5-3.65-2.51-5.74-30.82-4.71-37.08,1.65-10.14,7.09-26.11,10.65-37-6.76-1.73-22.25,21.91-21.06,21.9-4.41-2.43-3.66-21.4-3.6-27.66a118.7,118.7,0,0,1,1-16.13c.32-2.2,3.69-12.46,1.81-14.07-1.68-1.44-4.79,3-5.88,4.07-2.08,2-7.16,9.33-11,6.5.89-4.65,2.66-6.78,2.42-10.59s-1-5.15.26-8.55a25.6,25.6,0,0,0,1.92-9.29c0-2.89.85-6.07.22-8.87,2.41-.92,4.18-5.63,4.84-8s1.08-8-.18-9.42c-3.23.43-8.9,3-10.37-1.19a12.49,12.49,0,0,1,0-5.13c.33-2.21,1.36-2.13,1-4.18-.68-3.67,4.17-5.17,1.83-9-1.23-2-2.41-2.6-1.24-5.06s1.55-6.33,3.52-8.27c2.48-2.46,2.83-3,1.89-5.91-.65-2-.55-2.43.65-4.44,2.23-3.73,6.12-7.89-.33-9.3-2.58-.57-4.59.18-6.82,1.27-1.85.9-3.28,1.84-4.69-.28-3-4.52,3.19-10.41,3.48-14.86.18-2.69-.54-4.2-.38-7,.15-2.42-.65-4.46.62-6.45,2.75-4.34,4-8,1.61-12.72,3.25-1.79,3.76-3.66,5.56-7,1.26-2.34,2.75-7.18-.66-8.26-3-.93-7.86.74-10.21,2.24-2.08,1.32-5,6.33-7.23,3s4.38-7.59-1-10.67c1.37-2.69,2.21-5.44,4-8a35.65,35.65,0,0,0,4.36-7.91c2.2-6,4.4-11.56,6.32-17.58-2.58-1-6.29-2.34-8.88-3.25-1.36-.48-3-1-3.72-2.34-1.19-2.1,1.61-6.84,1.93-9.11,1-7.09,6-14.9,10.55-20.3,2.47-3,4.84-12.16,6.56-15.63h167.57c1,5.31-4.89,7.45-4.81,14"/><path class="cls-1" d="M1248.32,481.68c-15.31-20.89-33.63-31.27-59.55-16.12-21.72,12.69-24.39,26.41-26.68,49.45-43-13.48-71.6,11.27-62.45,56.81,13.07,65.12,121.51,99,179.5,95.41,62.66-3.91,114.55-24.69,149.76-67.76,19.36-23.69,33.06-58.12,42.18-90.89l-46.51-13.41c-20.5-5.47-38.45-7.5-53-22.21-22.6-22.8-78-30.34-93.08-27.33-15.51,3.13-27.64,13-30.15,36.05"/><path class="cls-1" d="M1633.94,1038.19c29.77-8.52,54.7-4.92,68.1,28.38,11.23,27.92,3.71,42.84-11,66.3,50.55,18.77,59.41,63.09,17.42,99.43-60.06,52-187.39,4.6-239.56-41.3-56.36-49.59-90.19-107.23-91.92-173.73-1-36.58,11.33-79.16,26.7-116.82l53.79,21.4c23.38,9.85,41.83,21.07,66.38,17.84,38.06-5,96,28.48,108,42.35,12.37,14.32,16.59,32.54,2.09,56.15"/><path class="cls-1" d="M1803.55,408.13c-18.3-25-40.22-37.39-71.21-19.27-26,15.18-29.17,31.58-31.91,59.14-51.46-16.13-85.61,13.47-74.68,67.92,15.64,77.87,145.31,118.42,214.66,114.09,74.93-4.68,137-29.51,179.07-81,23.16-28.34,39.54-69.5,50.45-108.69l-55.62-16c-24.52-6.55-46-9-63.4-26.57-27-27.26-93.32-36.28-111.31-32.67-18.54,3.74-33,15.55-36,43.1"/><path class="cls-1" d="M131.46,120c-18.51-25.25-40.67-37.8-72-19.49C33.18,115.87,30,132.45,27.18,160.32-24.86,144-59.39,173.94-48.34,229-32.52,307.75,98.6,348.76,168.73,344.38c75.77-4.73,138.51-29.85,181.08-81.93,23.42-28.66,40-70.29,51-109.92l-56.25-16.21c-24.79-6.61-46.49-9.07-64.11-26.86-27.33-27.56-94.37-36.69-112.56-33C149.16,80.2,134.5,92.15,131.46,120"/><path class="cls-1" d="M1740.59-49.16c-4.4,1.06-8.32,2.46-12.87,3.13-4.78.7-9.71,1.54-14.6,1.94-3.28.27-10.15,1.08-13.39,1.45-2.78.32-40.21,12.35-49.64,16.14-8.33,3.35-17.25,6.76-25.14,11-5.79,3.11-12.21,4.67-18,7.87A123.6,123.6,0,0,1,1588.2.56c-3.65,1.34-8.56,3.08-12.3,4.41-4.23,1.49-8.4,3.12-12.55,4.79-7.44,3-14.81,6.17-22.21,9.24-16.17,6.73-32.74,12.71-48.68,20-15.41,7-30.81,11.8-48.37,18.63-15,5.84-36.27-5.85-49.7-8.35-15.71-2.92-23.9.37-40.28-3.76a59.63,59.63,0,0,0,14.18,11c19.14,10.43,47.8,17.95,53.29,19.41,12.17,2.42,19,4.08,27.72,4.64-1,3.8-18.24,15.84-27.61,20.58-8.62,4.34-14.28,7.31-23.94,9.15-10.77,2-23.15,3.65-34.75,7.8-4.89,1.74-7.66,3-12.7,4.31-4.4,1.17-10.36.94-14.93,1.63-10.06,1.51-20.14,3.32-30.13,4.69,14.5,13.79,35.11,14.69,53.45,16.84,9.6,1.12,19.19-.48,26.1-1.38,10.3-1.35,16.92-3.76,27.4-6.13s19.18-6.74,29.51-11.62c-8.74,5.06-16.27,11.65-24,17.53-10.94,8.3-21.77,16-32.67,22.94-9.87,6.3-19.3,13.28-30.26,18-10.16,4.41-19,10.75-27.69,16.79-9.51,6.62-21.81,9.32-31.15,11.31,8.45,6.24,21.54,8.65,29,8.8,7.1.14,5.6.76,12.57.63,13.25-.23,26.15-.56,37-9.75-9.43,15.21-27.77,34.35-44.94,42.22,4.67,4.09,43.87-2.88,52-6.44,13.2-5.76,33-18.69,46.59-27.3,4.7,8.59-22.06,37.83-22.46,36.21,4.84,5.14,30.34-2.45,38.83-4.7a165,165,0,0,0,21.58-6.92c2.88-1.19,15.65-9.33,18.49-7.33,2.55,1.78-2.45,7.56-3.49,9.39-2,3.53-10.2,13-5,17.13,6-2.81,8.3-5.95,13.55-6.95s7.34-.44,11.53-3.32a36.08,36.08,0,0,1,12-5.82c3.93-.95,7.94-3.27,12-3.38.41-3.59,6.2-7.62,9.24-9.36,3.2-1.83,10.5-4.23,12.86-3,.53,4.54-.94,13.11,5.2,13.67,2.11.19,5.09-1,7-1.74,2.89-1.21,2.42-2.58,5.34-2.77,5.22-.35,5.57-7.47,11.63-5.62,3.17,1,4.36,2.38,7.29-.06s8.06-4.3,10-7.65c2.49-4.23,3.08-4.88,7.37-4.62,3,.18,3.5-.09,5.82-2.42,4.29-4.32,8.6-11,12.75-2.78,1.66,3.31,1.34,6.3.63,9.71-.59,2.83-1.36,5.1,2,6.27,7.18,2.5,13-7.93,19-9.87,3.58-1.18,5.89-.71,9.59-1.9,3.24-1,6.29-.66,8.56-3.07,4.93-5.24,9.46-8.23,16.72-6.59,1.3-5.05,3.66-6.39,7.61-10,2.75-2.52,8.81-6.23,11.45-2,2.28,3.69,1.72,10.93.5,14.65-1.08,3.28-6.86,9-1.55,10.86,5.49,1.91,8.79-8.59,14.87-2.27,3.17-2.8,6.61-4.9,9.48-8.23a50,50,0,0,1,9.23-8.67c7.36-5.06,14.18-10,21.7-14.66,2.2,3.16,5.36,7.72,7.49,10.92,1.12,1.7,2.42,3.7,4.47,4.26,3.26.88,8.73-4.57,11.71-5.79,9.28-3.82,18.15-13.37,23.93-21.36a73.35,73.35,0,0,1,11.25-12.37L1758-60.55c-7.57.42-8.42,9.23-17.37,11.39"/><path class="cls-1" d="M1168.36,969c-3.14-3.39-6.34-6.18-9.2-9.9-3-3.9-6.21-7.87-9-12-1.88-2.78-6-8.5-8-11.19-1.67-2.31-31-29.63-39.1-36.13-7.13-5.74-14.61-12-22.3-16.9-5.65-3.6-10.23-8.53-16-12.07a125.43,125.43,0,0,1-16.67-12.62c-3-2.57-7-6.07-10-8.74-3.43-3-7-5.92-10.51-8.78-6.37-5.13-12.87-10.1-19.3-15.16-14-11-27.61-22.79-42.05-33.35-13.95-10.19-25.84-21.53-40.68-33.75C912.94,748,912.72,723.19,908.26,710,903,694.56,896,688.91,891.54,672.28a60.63,60.63,0,0,0-2.75,18.11c.26,22.23,7.85,51.47,9.29,57.09,3.91,12,5.83,18.92,9.68,27-3.88,1-23.19-8.34-32.06-14.32-8.17-5.5-13.63-9.06-20.07-16.75-7.18-8.55-14.79-18.77-24.26-27-4-3.48-6.46-5.33-10.17-9.15-3.23-3.33-6-8.74-8.88-12.47-6.37-8.19-13-16.26-19.19-24.47-5,19.77,4.42,38.56,11.65,56,3.78,9.1,10,16.83,14.23,22.53,6.33,8.5,11.78,13.18,19.11,21.33s15.55,13.71,25,20.47c-8.85-5.25-18.48-8.67-27.56-12.63-12.83-5.59-25.06-11.4-36.68-17.64-10.53-5.63-21.44-10.54-31.13-17.92-9-6.85-19-11.57-28.74-16.28-10.62-5.17-19.16-14.77-25.58-22.08-1.34,10.63,3,23.47,6.65,30.23,3.41,6.39,2.11,5.36,5.7,11.5,6.81,11.68,13.53,23,27.13,28.08-18.24-.82-44.41-7.59-60-18.95-1.31,6.19,24.42,37.6,31.66,43.08,11.69,8.87,33.07,20.06,47.5,27.85-5.3,8.46-44.65-.78-43.41-1.94-2.17,6.87,17.3,25.77,23.53,32.21a170.06,170.06,0,0,0,16.9,15.75c2.5,2,16.1,9.28,15.75,12.8-.32,3.15-7.95,1.59-10.1,1.57-4.13,0-16.62-2.61-17.75,4.06,5.49,3.94,9.43,4.41,12.94,8.58s4,6.32,8.69,8.61a36.94,36.94,0,0,1,11.14,7.74c2.8,3,6.86,5.44,9,9,3.4-1.43,9.88,1.72,12.94,3.56,3.22,1.94,9,7.23,9.08,9.93-3.77,2.74-12.13,5.71-9.57,11.45.88,2,3.38,4.06,5,5.35,2.51,2,3.5.87,5.13,3.37,2.91,4.47,9.41,1.24,10.78,7.55.72,3.3.06,5.07,3.7,6.46,3.8,1.45,7.84,5,11.8,5.1,5,.11,5.88.31,7.79,4.26,1.31,2.73,1.81,3.07,5,4,6,1.66,14.12,2.15,8.83,10-2.12,3.13-4.94,4.33-8.33,5.4-2.81.89-5.21,1.33-4.57,4.91,1.35,7.63,13.54,7.65,18.24,12,2.83,2.6,3.57,4.88,6.47,7.59,2.53,2.36,3.73,5.27,7,6.08,7.12,1.78,12,4.32,14.19,11.59,5.14-1.35,7.51.08,12.69,1.79,3.61,1.19,9.93,4.74,7.45,9.21-2.14,3.87-8.87,7-12.78,7.75-3.46.68-11.45-1.61-10.44,4,1,5.84,12,3.55,9.43,12.1,4.07,1.42,7.65,3.45,12,4.33a51,51,0,0,1,12.32,3.9c8.17,4,15.94,7.64,23.86,12-1.73,3.53-4.2,8.62-6,12.11-.95,1.84-2.09,4-1.56,6.1.84,3.33,8.41,5.49,11,7.53,8,6.36,20.93,9.49,30.92,10.65a75.41,75.41,0,0,1,16.62,3.85l179.24-159.23c-4.14-6.53-12.4-2.9-18.78-9.78"/><path class="cls-1" d="M637.92,321.15c5.85-21.4,17.33-35.33,42.71-31.15,21.27,3.5,27.61,13.65,36.51,31.39,30.3-24,60.73-12.93,67.38,26.31,9.49,56.11-66.87,116.48-114.39,131.36-51.33,16.07-99.21,15.36-140.59-8.32-22.76-13-44.26-36.37-61.61-59.79L501,386c14.73-10.66,28.46-17.78,35.61-34,11.09-25.17,53.14-48.2,66.1-50.39,13.37-2.25,26.1,1.94,35.17,19.6"/><path class="cls-1" d="M368.16,997.78c7-25.63,20.75-42.3,51.15-37.3,25.47,4.19,33.07,16.35,43.72,37.59,36.29-28.72,72.74-15.48,80.69,31.51,11.38,67.2-80.08,139.5-137,157.32-61.48,19.25-118.82,18.39-168.37-10-27.26-15.6-53-43.56-73.79-71.61l39.65-29.92c17.64-12.77,34.09-21.3,42.65-40.75,13.29-30.14,63.65-57.72,79.17-60.35,16-2.69,31.25,2.32,42.11,23.47"/></svg>