<svg id="Layer_1" data-name="Layer 1" xmlns="http://www.w3.org/2000/svg" viewBox="0 0 278 219.33"><title>buzz</title><path d="M160.53,57.14a17.12,17.12,0,0,0-1.08,3.08l.07.28c.15.22,1.4,2.17,1.65,2.5l.86-.12.3-.69c.16-.36.31-.7.46-1.11s.32-1,.32-1l0-.38A19.12,19.12,0,0,0,161.36,57Zm1.32,3.6c-.12.34-.25.63-.38.92l-1-1.54a18.54,18.54,0,0,1,.65-1.77c.36.55.75,1.24,1,1.66C162,60.2,161.94,60.49,161.85,60.74Z"/><path d="M161.86,72.21l.06.49s1.34,1.81,1.75,2.53l.85,0a6.68,6.68,0,0,0,1.19-3l-.12-.33-2.08-2.42-.88.26A14.27,14.27,0,0,1,161.86,72.21Zm1.53-1.33,1.31,1.52a5.24,5.24,0,0,1-.6,1.64c-.42-.62-.95-1.35-1.21-1.71C163,72,163.22,71.44,163.39,70.88Z"/><path d="M165.61,83.94l.39.41a7,7,0,0,0,2.71,2.15l.62-.51-.14-2.93-.2-.37a19.21,19.21,0,0,0-1.63-1.08l-.62-.4-.77.35a16.12,16.12,0,0,1-.49,1.88Zm1.2-1.5h0c.45.29,1,.63,1.37.89l.09,1.82a14,14,0,0,1-1.56-1.49l-.2-.22C166.6,83.2,166.71,82.82,166.81,82.44Z"/><path d="M171.71,95.52,172,96a5.21,5.21,0,0,1,1.28.8,5.06,5.06,0,0,0,1.9,1.07l.62-.5a22.54,22.54,0,0,0-.45-3.75l-.35-.39-2.95-.9-.61.66a5.75,5.75,0,0,1,.19,1.72C171.68,95,171.69,95.27,171.71,95.52Zm2.75-1.47c.16.89.28,1.7.35,2.53a7.06,7.06,0,0,1-.88-.62,7,7,0,0,0-1.24-.82c0-.16,0-.33,0-.51,0-.39,0-.78-.06-1.15Z"/><path d="M179.62,104.45l.39.37a8.74,8.74,0,0,1,2.93,1.12l.8-.47a5.93,5.93,0,0,0-.6-1.4,6.69,6.69,0,0,1-.79-2l-.44-.49-2.22-.26-.53.65a6.77,6.77,0,0,1,.25,1.3A9.57,9.57,0,0,0,179.62,104.45Zm1.79-1.9a9.41,9.41,0,0,0,.8,1.89,13.38,13.38,0,0,0-1.69-.53c-.05-.26-.08-.51-.11-.75s-.07-.49-.12-.74Z"/><path d="M189.62,111.51a4.2,4.2,0,0,1,.57.6l.37.2h.35c.49,0,1.05,0,1.59-.08s.93-.07,1.31-.07l.36-.85c-.56-.58-.89-.94-1.32-1.41l-.8-.87-.45-.15-2.62.45-.38.68A3.53,3.53,0,0,0,189.62,111.51Zm1.88-1.6.62.67.58.63-.27,0c-.55,0-1.11.09-1.6.08a5.26,5.26,0,0,0-.53-.53,2.83,2.83,0,0,1-.5-.58Z"/><path d="M202.41,114a28.86,28.86,0,0,0,3.67-1.44l-.16-.93a14.5,14.5,0,0,1-1.68-.38c-.3-.11-1.13-.5-1.13-.5l-.46,0s-.87.5-1.15.68a11.2,11.2,0,0,1-1.36.75l0,.92,1.93.86Zm-.38-1.7c.18-.12.62-.37.9-.53.28.13.76.34,1,.42l.33.1c-.78.3-1.6.58-1.95.7l-.8-.36Z"/><path d="M213.46,111.44l.36-.32.13-.38a19.94,19.94,0,0,1,.83-2.12l-.58-.71c-1,.27-3,.78-3,.78l-.22.11-.3.28-.16.32a11.72,11.72,0,0,1-.31,1.93l.56.71Zm-2-1.75.08-.06,1.88-.49c-.16.43-.32.87-.45,1.27l0,.12-1.63.36C211.42,110.46,211.47,110,211.5,109.69Z"/><path d="M218.19,104.88a3,3,0,0,1,1.3-.55l.43-.53-.18-2.55-.65-.44-.39.12a7.83,7.83,0,0,0-1.25.45l-.28.43a8.43,8.43,0,0,1-.57,3l.71.61Zm0-2.72c.2-.08.41-.15.63-.22l.1,1.49a3.71,3.71,0,0,0-1,.45A9.38,9.38,0,0,0,218.16,102.16Z"/><path d="M159.9,50.16l.91.1c.37-.66,1-2.11,1.07-2.17l0-.46-1.39-2.51h-.88a26.31,26.31,0,0,0-1,2.53l.09.49a10.13,10.13,0,0,1,.8,1A6.62,6.62,0,0,1,159.9,50.16Zm.19-3.67.78,1.41c-.11.22-.27.57-.45.92a.41.41,0,0,0,0-.09,7.66,7.66,0,0,0-.73-1C159.76,47.38,159.92,46.91,160.09,46.49Z"/><path d="M161.73,31.37l-.84-.11-1.61,1.93-.07.56a3.24,3.24,0,0,1,.25,1.07,14,14,0,0,0,.25,1.69l.83.27s.88-.8,1.28-1.25c.2-.24.88-1.12.88-1.12l.07-.49s-.39-1-.5-1.32S161.74,31.4,161.73,31.37Zm-.66,3.5-.54.55a4.29,4.29,0,0,1-.07-.63,3.81,3.81,0,0,0-.24-1.17l.93-1.11c.07.16.14.31.18.43s.28.76.41,1.08Z"/><path d="M167.46,20.92l-2.12.21-.4.27a7.88,7.88,0,0,0-.47,1.34,4.69,4.69,0,0,1-.69,1.64l.56.78L167.6,24l.31-.32a12,12,0,0,0,.1-2.3ZM167,23.17l-1.8.63c.09-.26.17-.53.24-.79s.18-.63.29-.91L167,22C167,22.44,167,22.9,167,23.17Z"/><path d="M178.72,15a8.92,8.92,0,0,0-2.15-.84l-.38.1A17.59,17.59,0,0,1,173.48,16l0,.94,3.53,1.2.53-.14a6.18,6.18,0,0,1,2.05-1.7l0-.92C179.34,15.27,179,15.13,178.72,15Zm-1.67,2.11-2.15-.73c.68-.42,1.39-.94,1.71-1.19a9.91,9.91,0,0,1,1.67.71l.06,0A9.74,9.74,0,0,0,177.05,17.08Z"/><path d="M189.54,16.42l-.37-.18H189c-.81,0-2.48.12-2.55.13l-.47.5v.48l.23.42,2.06,1.34.3.08a7.06,7.06,0,0,0,2.51-.39V18A9.94,9.94,0,0,1,189.54,16.42Zm-.89,1.76-1.34-.88,1.61-.07a10.11,10.11,0,0,0,.78.86C189.38,18.13,189,18.16,188.65,18.18Z"/><path d="M198.94,21.26l-3.17-1.19-.63.7a11.71,11.71,0,0,1,.61,1.39,10.74,10.74,0,0,0,.85,1.56l.33.22,2.56.47.56-.67-.82-2.18ZM197.33,23a7.74,7.74,0,0,1-.62-1.14c0-.12-.1-.27-.16-.42l1.82.68.43,1.15Z"/><path d="M205.91,28.77l-2.38-1.21-.67.66a8.1,8.1,0,0,1,.3,1.75l.46.51a6.17,6.17,0,0,1,2.16,1.08l.79-.51s-.32-1.39-.39-1.9Zm-1.78.79c0-.18,0-.4-.08-.62l1.18.61c0,.16.07.35.11.54A6.45,6.45,0,0,0,204.13,29.56Z"/><path d="M213.47,38.92l-.22-.39L211,37l-.74.61a2.88,2.88,0,0,1,.09.72c0,.15,0,.3,0,.42,0,.38.23,1.41.23,1.41l.2.31c.43.31,1.6,1.16,1.88,1.41l.83-.38c0-.65,0-1.25,0-1.86Zm-1.89.87c-.06-.3-.15-.87-.18-1.13,0-.06,0-.13,0-.2l1.09.75,0,.48,0,.79Z"/><path d="M216.87,47l-.84.33c0,.38,0,2.32,0,2.54l0,.17a2.31,2.31,0,0,0,.85,1l.35.27a4.08,4.08,0,0,0,.93.62l.68-.44,0-.75c0-.53.05-1.07.1-1.56l-.16-.42Zm1,3.61,0,0-.41-.32a1.31,1.31,0,0,1-.45-.52c0-.38,0-.84,0-1.26l1,.89C218,49.76,217.94,50.18,217.92,50.6Z"/><path d="M220.88,56.56l-.83.53a6.8,6.8,0,0,1-.36,1.59c-.12.41-.22.76-.26,1l.2.47a3.64,3.64,0,0,1,.74.82,5.85,5.85,0,0,0,.79.9l.79-.18c.17-.41.75-2.4.81-2.62l-.1-.47Zm.41,3.95-.12-.15a5.61,5.61,0,0,0-.69-.81l.17-.58c.1-.33.18-.62.25-.88l.83.95C221.59,59.5,221.43,60.06,221.29,60.51Z"/><path d="M233.82,51.1l.31,0A5.23,5.23,0,0,0,237.85,49a.37.37,0,0,0-.06-.52.38.38,0,0,0-.53,0c-.48.61-1.78,2-3.37,1.86a.38.38,0,0,0-.41.33A.37.37,0,0,0,233.82,51.1Z"/><path d="M215.54,26.7a.39.39,0,0,0,.27-.11,18.82,18.82,0,0,1,3-2.67.39.39,0,0,0,.08-.53.37.37,0,0,0-.52-.09,19.28,19.28,0,0,0-3.1,2.77.37.37,0,0,0,0,.53A.35.35,0,0,0,215.54,26.7Z"/><path d="M190.17,7.79a.18.18,0,0,0,.1,0,.55.55,0,0,0,.42-.22.35.35,0,0,0,0-.38A26.41,26.41,0,0,1,192,3.09h0a.38.38,0,0,0,.3-.44c-.06-.29-.23-.4-.43-.39-.84,0-1.95,4.78-2,4.83C189.92,7.3,189.84,7.66,190.17,7.79Z"/><path d="M156.45,17.44a.37.37,0,0,0,.32-.19.36.36,0,0,0-.13-.51,13.37,13.37,0,0,1-3.9-3.65.38.38,0,0,0-.52-.07.37.37,0,0,0-.08.52,14.06,14.06,0,0,0,4.12,3.85A.41.41,0,0,0,156.45,17.44Z"/><path d="M147.9,50.8a.38.38,0,0,0,.31-.44.37.37,0,0,0-.43-.3c-1.36.22-3.54-.71-5-1.33l-.51-.22a.37.37,0,1,0-.29.69l.51.22a13.85,13.85,0,0,0,4.81,1.42A3.6,3.6,0,0,0,147.9,50.8Z"/><path d="M151.76,88.52c-.72.89-3,1.46-4.34,1.63a.38.38,0,0,0-.33.42.39.39,0,0,0,.38.33h0c1.36-.17,3.9-.76,4.83-1.91a.38.38,0,0,0-.05-.53A.39.39,0,0,0,151.76,88.52Z"/><path d="M178.38,114.41a.37.37,0,0,0-.43.3,3.08,3.08,0,0,1-.37.77,4.65,4.65,0,0,0-.57,1.33c0,.12-.06.29-.11.48-.22.95-.31,1.43-.17,1.7a.4.4,0,0,0,.36.22.32.32,0,0,0,.16,0,.35.35,0,0,0,.16-.48,6.49,6.49,0,0,1,.22-1.22c.05-.21.1-.4.12-.53a3.83,3.83,0,0,1,.48-1.09,3,3,0,0,0,.45-1A.37.37,0,0,0,178.38,114.41Z"/><path d="M192.31,108.41l.08.18a.39.39,0,0,0,.34.21.29.29,0,0,0,.16,0,.37.37,0,0,0,.18-.5l-.09-.18c-.07-.15-.11-.23-.2-.44a.37.37,0,1,0-.69.29C192.19,108.16,192.23,108.24,192.31,108.41Z"/><path d="M189.43,73a.24.24,0,0,0-.21.28,4.34,4.34,0,0,1-.13,1.51c-.05.29-.11.58-.14.87a.25.25,0,0,0,.23.27h0a.25.25,0,0,0,.25-.23c0-.26.08-.53.14-.81a5,5,0,0,0,.12-1.69A.24.24,0,0,0,189.43,73Z"/><path d="M191.4,76.77h0a.25.25,0,0,0,.2-.29,4.37,4.37,0,0,1,0-1.25,7.24,7.24,0,0,0,.05-1.22.26.26,0,0,0-.28-.23.25.25,0,0,0-.22.27,6.3,6.3,0,0,1-.05,1.13,5,5,0,0,0,0,1.4A.25.25,0,0,0,191.4,76.77Z"/><path d="M193.25,76.26a.24.24,0,0,0,.24.24h0a.24.24,0,0,0,.24-.26c0-.13,0-.29,0-.45a3,3,0,0,0-.16-1.41.24.24,0,0,0-.33-.1.25.25,0,0,0-.11.34,2.59,2.59,0,0,1,.1,1.15C193.25,76,193.24,76.11,193.25,76.26Z"/><path d="M200.46,74.75a1.08,1.08,0,0,1-.13.2,1.73,1.73,0,0,0-.25.39.25.25,0,0,0,.14.32l.1,0a.25.25,0,0,0,.23-.16,1.26,1.26,0,0,1,.18-.27,1,1,0,0,0,.22-.39.26.26,0,0,0-.19-.3A.25.25,0,0,0,200.46,74.75Z"/><path d="M202.37,73.91a.25.25,0,0,0-.3.18,4.15,4.15,0,0,0,0,1c0,.56,0,1.27-.25,1.46a.25.25,0,0,0-.06.35.26.26,0,0,0,.21.11.24.24,0,0,0,.14,0c.5-.34.48-1.16.46-1.88a5.11,5.11,0,0,1,0-.84A.24.24,0,0,0,202.37,73.91Z"/><path d="M203.9,76a.26.26,0,0,0,.16.32h.08a.25.25,0,0,0,.23-.17,5.91,5.91,0,0,0,0-2.27.24.24,0,0,0-.28-.22.25.25,0,0,0-.21.28A6.11,6.11,0,0,1,203.9,76Z"/><path d="M188.94,91.24c0-.16-.09-.31-.13-.46s-.1-.31-.14-.47a2.42,2.42,0,0,1,0-.48,3.26,3.26,0,0,0-.16-1.1.37.37,0,0,0-.47-.24.37.37,0,0,0-.24.47,2.59,2.59,0,0,1,.12.87,2.94,2.94,0,0,0,.05.65c0,.17.1.35.15.52a4.61,4.61,0,0,1,.16.64.39.39,0,0,0,.28.31.64.64,0,0,0,.2,0l.18,0a.38.38,0,0,0,.27-.46A.39.39,0,0,0,188.94,91.24Z"/><path d="M193.1,92.91c0-.27-.06-.58-.08-.89a7.48,7.48,0,0,0-.46-2.52.38.38,0,0,0-.5-.18.37.37,0,0,0-.18.5,7.13,7.13,0,0,1,.39,2.25c0,.33,0,.65.09.94a3.13,3.13,0,0,1-.13,1.56.36.36,0,0,0,0,.25c.07.24.26.36.42.32h.09a.36.36,0,0,0,.36-.28.37.37,0,0,0-.05-.31A4.26,4.26,0,0,0,193.1,92.91Z"/><path d="M197,94a3.06,3.06,0,0,1-.14-1c0-.2,0-.37,0-.5-.1-.7-.16-1.37-.24-2.15l-.06-.65a.49.49,0,0,0-.54-.45.5.5,0,0,0-.45.55l.06.64c.07.8.14,1.49.24,2.21a3.67,3.67,0,0,1,0,.4c0,.68.08,1.54.68,1.79a.57.57,0,0,0,.22,0,.5.5,0,0,0,.47-.28A.45.45,0,0,0,197,94Z"/><path d="M200.65,89.73a.51.51,0,0,0-.7.14,3.83,3.83,0,0,0-.25,2.3c0,.22,0,.44.05.63a.51.51,0,0,0,.5.49h0a.5.5,0,0,0,.49-.52c0-.21,0-.45-.05-.69a3.36,3.36,0,0,1,.09-1.66A.5.5,0,0,0,200.65,89.73Z"/><path d="M174.65,72.49a2,2,0,0,1-.46.08.5.5,0,0,0,0,1h0a3.11,3.11,0,0,0,.65-.1c.22,0,.56-.13.65-.06a.5.5,0,0,0,.7-.07.49.49,0,0,0-.07-.7A1.64,1.64,0,0,0,174.65,72.49Z"/><path d="M176.37,64.11a4.7,4.7,0,0,1-2.73-.11.5.5,0,0,0-.63.78,4.1,4.1,0,0,0,2.2.48A4.19,4.19,0,0,0,176.8,65a.5.5,0,1,0-.43-.9Z"/><path d="M179.21,55.28a1.22,1.22,0,0,1-.4-.27,2.49,2.49,0,0,0-.5-.38c-.2-.12-.4-.22-.6-.33a5.43,5.43,0,0,1-.94-.56.5.5,0,0,0-.63.78,6.19,6.19,0,0,0,1.11.67c.18.1.37.19.54.3a1.86,1.86,0,0,1,.35.26,2.14,2.14,0,0,0,.68.45.48.48,0,0,0,.2,0,.51.51,0,0,0,.46-.31A.49.49,0,0,0,179.21,55.28Z"/><path d="M187.19,46a.5.5,0,0,0-.48.51,3.56,3.56,0,0,1-.13,1,3.34,3.34,0,0,0-.05,1.63.49.49,0,0,0,.48.4l.11,0a.49.49,0,0,0,.38-.59,2.52,2.52,0,0,1,.06-1.2,4.91,4.91,0,0,0,.15-1.21A.5.5,0,0,0,187.19,46Z"/><path d="M198.93,45.08a2.36,2.36,0,0,0-.54,1.44,3.34,3.34,0,0,1-.12.63,4.93,4.93,0,0,1-.43.86,7.37,7.37,0,0,0-.37.68.51.51,0,0,0,.25.66.54.54,0,0,0,.21,0,.49.49,0,0,0,.45-.3c.1-.2.21-.39.32-.58a5.29,5.29,0,0,0,.51-1,3.86,3.86,0,0,0,.17-.85,1.36,1.36,0,0,1,.31-.89.5.5,0,1,0-.76-.66Z"/><path d="M210.38,52.44a.5.5,0,0,0-.57-.83,10.55,10.55,0,0,0-1.83,2,.5.5,0,0,0,.12.7.52.52,0,0,0,.29.09.51.51,0,0,0,.41-.21A8.62,8.62,0,0,1,210.38,52.44Z"/><path d="M213.18,63.21a.5.5,0,0,0-.51-.49h-.21a3.89,3.89,0,0,0-2.56.78.5.5,0,0,0,.29.9.47.47,0,0,0,.3-.1,3,3,0,0,1,2-.58h.24A.49.49,0,0,0,213.18,63.21Z"/><path d="M215.13,73.59a6.61,6.61,0,0,1-1.84.53.5.5,0,0,0,.09,1h.08a8.26,8.26,0,0,0,2.19-.67.5.5,0,1,0-.52-.85Z"/><path d="M192.67,70.65a4.23,4.23,0,0,1,1.94.12A.52.52,0,0,0,195,71a.51.51,0,0,0,.28-.09.49.49,0,0,0,.13-.69c-.5-.75-2.59-.65-3.06-.51a.5.5,0,0,0-.33.62A.48.48,0,0,0,192.67,70.65Z"/><path d="M199.51,71a2.33,2.33,0,0,0,.77-.06c.19,0,.59-.11.69,0a.5.5,0,0,0,.5.45h.05a.5.5,0,0,0,.44-.55,1,1,0,0,0-.39-.74A1.84,1.84,0,0,0,200.1,70a3.31,3.31,0,0,1-.46,0,.51.51,0,0,0-.56.43A.49.49,0,0,0,199.51,71Z"/><path d="M177.43,28.51a.43.43,0,0,0,.19,0,14.09,14.09,0,0,0,2.3-1.22l.27-.18c.28-.19,1-.71,1.2-.52a.5.5,0,0,0,.71,0,.49.49,0,0,0,0-.7c-.77-.84-1.91-.05-2.52.37l-.24.16a13.77,13.77,0,0,1-2.14,1.14.49.49,0,0,0-.27.65A.5.5,0,0,0,177.43,28.51Z"/><path d="M189.57,29.61c.61-.39.79-.45,1-.28a.49.49,0,0,0,.7-.06.51.51,0,0,0-.06-.71c-.8-.67-1.63-.14-2.17.21l-.33.2c-.83.48-1.66.91-2.5,1.33s-1.64.85-2.46,1.32q-.41.22-.84.42a8.55,8.55,0,0,0-1.53.86,9.91,9.91,0,0,1-2,1l-.8.36a.5.5,0,0,0-.25.66.52.52,0,0,0,.67.25l.78-.35A9.88,9.88,0,0,0,182,33.69a7.23,7.23,0,0,1,1.35-.74c.31-.15.62-.3.9-.46.82-.46,1.63-.88,2.43-1.3s1.69-.87,2.53-1.35Z"/><path d="M193.38,34.1a4.33,4.33,0,0,0-2.49,1.28,4.29,4.29,0,0,1-2,1,.5.5,0,0,0-.37.6.51.51,0,0,0,.49.38h.12a5.14,5.14,0,0,0,2.55-1.26,3.45,3.45,0,0,1,1.92-1,.51.51,0,0,0,.41-.58A.5.5,0,0,0,193.38,34.1Z"/><path d="M202.19,79.65a.48.48,0,0,0-.61.35,3.68,3.68,0,0,1-1.66,1.81c-1.27.91-2.83,1.15-5,.77a3.3,3.3,0,0,1-2.34-1.11,4.69,4.69,0,0,1-1.14-2,.5.5,0,0,0-1,.26,5.74,5.74,0,0,0,1.35,2.43,4.36,4.36,0,0,0,2.93,1.44,11.52,11.52,0,0,0,2,.2,6.35,6.35,0,0,0,3.8-1.16,4.35,4.35,0,0,0,2-2.34A.5.5,0,0,0,202.19,79.65Z"/><path d="M196.19,74.4a6.3,6.3,0,0,0,.95,1.66c0,.13,0,.25,0,.37-.05.33-.09.66-.16,1.06a.5.5,0,0,0,0,.12.41.41,0,0,0,0,.21.55.55,0,0,1,0,.12.74.74,0,0,1-.28.08l-.19,0c-1.15.21-1.88.24-2-.24a.5.5,0,1,0-1,.23,1.58,1.58,0,0,0,1.77,1.16,7.65,7.65,0,0,0,1.38-.17l.18,0a2,2,0,0,0,.53-.16,1.73,1.73,0,0,0,1.52.78,1.77,1.77,0,0,0,.32,0l.4,0A2.22,2.22,0,0,0,201.2,79a1.28,1.28,0,0,0,.21-1.07.5.5,0,0,0-1,.18c0,.13,0,.24,0,.28s-.65.18-1,.21a3.15,3.15,0,0,0-.44,0,.86.86,0,0,1-1.09-.77c0-.08,0-.16,0-.24.07-.35.11-.69.16-1l.06-.47,1.11-1.47a.53.53,0,0,0,.08-.44.5.5,0,0,0-.32-.33,7,7,0,0,0-2.47-.32.49.49,0,0,0-.39.24.47.47,0,0,0,0,.46Zm1.81.22-.36.47a5.64,5.64,0,0,1-.29-.55C197.57,74.56,197.79,74.58,198,74.62Z"/><path d="M187.23,59.67a5.23,5.23,0,0,1-.61-1.2.38.38,0,0,0-.29-.26.36.36,0,0,0-.36.13,4.5,4.5,0,0,0-.71,1.35,4.78,4.78,0,0,1-.26.64.39.39,0,0,0,.18.5l.16,0a.38.38,0,0,0,.34-.21c.11-.24.2-.47.29-.7s.14-.38.22-.56c.13.23.27.45.4.67s.21.34.3.51a.38.38,0,0,0,.66-.37Z"/><path d="M202.08,59.87a5.68,5.68,0,0,0-.43.61c-.27.43-.46.74-1,.86a.39.39,0,0,0-.28.46.38.38,0,0,0,.46.27,2.1,2.1,0,0,0,.74-.33.13.13,0,0,0,0,.06.38.38,0,0,0,.37.31H202a.37.37,0,0,0,.31-.43,2,2,0,0,1,.36-1.35.38.38,0,0,0-.09-.51A.36.36,0,0,0,202.08,59.87Z"/><path d="M192.86,67.18c.2,0,.32.12.53.31a2.19,2.19,0,0,0,.55.41,2,2,0,0,1,.44.26,3,3,0,0,0,.47.27.32.32,0,0,0,.14,0,.38.38,0,0,0,.35-.23.37.37,0,0,0-.2-.49,2.06,2.06,0,0,1-.33-.2,3.8,3.8,0,0,0-.55-.33,1.21,1.21,0,0,1-.36-.27,1.52,1.52,0,0,0-1-.5.36.36,0,0,0-.39.35A.37.37,0,0,0,192.86,67.18Z"/><path d="M199.66,68.3l.13,0a2.49,2.49,0,0,0,.78-.49,2.41,2.41,0,0,1,.42-.31,5.56,5.56,0,0,1,1.16-.43.37.37,0,0,0,.25-.46.38.38,0,0,0-.47-.25,5.59,5.59,0,0,0-1.31.49,2.91,2.91,0,0,0-.53.39,1.67,1.67,0,0,1-.55.35.38.38,0,0,0,.12.73Z"/><path d="M238.91,174.41H239a.49.49,0,0,0,.49-.41,10.25,10.25,0,0,0,.2-3.35,12.43,12.43,0,0,0-2.71-6.44c-.13-.17-.26-.36-.39-.55a4.55,4.55,0,0,0-2.16-2.06,10.79,10.79,0,0,0-3.06-.38l-.91,0a.5.5,0,0,0-.53.47.52.52,0,0,0,.48.53l.94,0a9.93,9.93,0,0,1,2.77.33c.68.22,1.17.95,1.64,1.66l.41.6a11.08,11.08,0,0,1,2.52,5.93,9,9,0,0,1-.18,3.09A.51.51,0,0,0,238.91,174.41Z"/><path d="M276,167.85l-.09-.55a72.52,72.52,0,0,0-2.79-11.83c-.17-.52-.32-1-.46-1.44a21,21,0,0,0-2.24-5.19l-.45-.75a15.87,15.87,0,0,0-3.25-4.34c-.48-.36-.62-1.51-.75-2.52a12.75,12.75,0,0,0-.25-1.56,55.93,55.93,0,0,0-2.55-7.37c-.4-1-.81-2-1.25-3.2l-.2-.52c-2.45-6.53-4.57-12.16-7-18-.94-2.26-2-4.34-3.08-6.55-.34-.7-.69-1.4-1-2.11a13,13,0,0,1-.92-2.61c-.44-1.9-1-3.78-2.1-4.74a7,7,0,0,1,.35-1.5,8.92,8.92,0,0,0,.35-1.35,19.16,19.16,0,0,0,.13-4.5,47.51,47.51,0,0,0-2.73-12.88,8.75,8.75,0,0,0-1.39-2.22c-.3-.39-.59-.76-.84-1.15a7.09,7.09,0,0,1-.49-1.1c-.14-.35-.27-.69-.42-1-1-1.81-1.65-3.29-2.27-4.59-.33-.71-.65-1.37-.95-2a.52.52,0,0,0-.5-.28.49.49,0,0,0-.43.37,5.26,5.26,0,0,1-.48,1,19.65,19.65,0,0,0-2.52,7.78A34.27,34.27,0,0,0,231.5,71h-.56c-.67,0-2.58,0-4-.06a31.8,31.8,0,0,0-.54-3.51c-.16-.81-.32-1.64-.43-2.48a38.07,38.07,0,0,0-1.27-6.49c-.45-1.49-1-2.92-1.61-4.3-.37-.9-.74-1.8-1.08-2.72a23.82,23.82,0,0,0-2.63-4.9,18.31,18.31,0,0,1-1.54-2.65,38.3,38.3,0,0,0-4-6.72,50,50,0,0,1-3.09-4.8A8.56,8.56,0,0,0,208.87,30a9.75,9.75,0,0,1-1.5-1.69,37.1,37.1,0,0,0-2.89-3.43c-.51-.55-1-1.08-1.39-1.55a18.24,18.24,0,0,0-3.8-3.47c-.46-.32-.92-.66-1.39-1s-.84-.62-1.26-.91c-2.68-1.86-8.09-5.07-14.16-5.64a25.2,25.2,0,0,0-9.6,1.1c-2.53.78-5.2,2.88-7,4.39a23.3,23.3,0,0,0-4.43,5,6.57,6.57,0,0,0-.35.6h0a33.56,33.56,0,0,0-3.75,5.14,18,18,0,0,0-2.14,7.59c-.08,1.06-.27,2.19-.47,3.4a29.8,29.8,0,0,0-.56,4.93c0,.57,0,1.15,0,1.73,0,2.09,0,4.26.19,6.28.1,1.17.26,2.35.42,3.49s.34,2.51.44,3.76c.06.84.1,1.67.15,2.48a53.94,53.94,0,0,0,.56,6c.24,1.42.54,2.85.83,4.24s.53,2.48.75,3.73a31.5,31.5,0,0,0,2,6.26c.29.74.58,1.48.85,2.24a51.27,51.27,0,0,0,8.87,15c.57.68,1.12,1.38,1.67,2.08s1.12,1.41,1.69,2.09l.46.56c.73.88,1.42,1.71,2.28,2.59a27.61,27.61,0,0,0,2.4,2.09c.42.33.83.66,1.24,1,1.08.92,2.24,1.74,3.37,2.53l.82.58a22.4,22.4,0,0,0,9.28,4.11,42.24,42.24,0,0,0,4.47.43,37.7,37.7,0,0,1,4.39.42,8.43,8.43,0,0,0,2.3,0,7.54,7.54,0,0,1,2.12,0l2.29,2.92a9.33,9.33,0,0,0-.12,5.76,7.77,7.77,0,0,0,4.1,4.89,9.65,9.65,0,0,0,3.81.64h0a.47.47,0,0,0,.17,0,1,1,0,0,1,.27.37,6.36,6.36,0,0,0,.69,1l.26.33a8.23,8.23,0,0,1,.6,1l.18.3a2.3,2.3,0,0,0,.21.33,2.59,2.59,0,0,1,.37.72s.05.07.07.11l-.09,1.57a11.13,11.13,0,0,0,.07,1.49,5.72,5.72,0,0,1-.12,2.46,1.59,1.59,0,0,1-.49.57,4.87,4.87,0,0,0-1.68,2.75,27.18,27.18,0,0,0-.9,4.16c-.13,1.14-.33,2.22-.53,3.27a25.63,25.63,0,0,0-.62,5.14c0,1.63-.14,3.27-.28,4.85-.11,1.13-.21,2.29-.26,3.44-.06,1.46-.1,2.87-.14,4.28s-.08,3.08-.16,4.67a61.39,61.39,0,0,0,1.14,13,41.4,41.4,0,0,0,2.09,8c2.07,5.36,8.88,9.9,14.23,11.44,3.95,1.13,10.78,1.61,15.65.24a11.35,11.35,0,0,0,1.48-.63c.37-.17.71-.34.94-.42a.51.51,0,0,0,.3-.65.5.5,0,0,0-.64-.29c-.25.09-.63.27-1,.45a13.22,13.22,0,0,1-1.33.58c-4.52,1.27-11.23.87-15.1-.24-5.2-1.5-11.69-6-13.58-10.84a41.08,41.08,0,0,1-2-7.8,60.67,60.67,0,0,1-1.12-12.75c.07-1.6.12-3.15.16-4.7s.07-2.81.14-4.25c.05-1.14.15-2.29.25-3.4.15-1.61.3-3.27.29-4.95a25.76,25.76,0,0,1,.6-5c.2-1.06.41-2.17.54-3.34a26.42,26.42,0,0,1,.87-4,3.87,3.87,0,0,1,1.37-2.27,2.52,2.52,0,0,0,.76-.92,6.38,6.38,0,0,0,.19-3,11.18,11.18,0,0,1-.06-1.36c0-.9.1-1.79.15-2.69l.12-2c0-.81.15-1.7.25-2.57s.16-1.45.21-2.13c.12-1.67.2-3.17.27-4.54s.14-2.79.24-4c.07-.74.18-1.42.29-2.08s.19-1.08.23-1.57c.12-1.21.27-2.38.5-3.92.07-.41.17-.85.27-1.3a11.62,11.62,0,0,0,.39-2.76,22.83,22.83,0,0,1,.36-4.75c.06-.37.12-.76.17-1.17s.18-1.67.18-1.67a.52.52,0,0,0-.11-.36c-.06-.07-.6-.74-.87-1A9.93,9.93,0,0,1,221,98.29l-.54-.66L220,97a10.21,10.21,0,0,1-1.54-2,8.55,8.55,0,0,1-1.15-3.9,30,30,0,0,0-.13-3.34l0-.24a9,9,0,0,1,.37-3.58,11.11,11.11,0,0,0,.36-1.63c.08-.4.15-.79.22-1.08a6.56,6.56,0,0,0,.17-1.43,8.1,8.1,0,0,1,.06-.84,5.66,5.66,0,0,1,.65-1.7,7.94,7.94,0,0,0,.69-1.66,3.63,3.63,0,0,1,.54-1.12,3.22,3.22,0,0,0,.65-2A57.53,57.53,0,0,1,221,65.3a13.84,13.84,0,0,0,1.33,2.25,18.48,18.48,0,0,1,1.86,3.18,2.58,2.58,0,0,0,.71,1,.51.51,0,0,0,.29.1s4.65.05,5.77.08h.57a24.58,24.58,0,0,1,4.27.31.48.48,0,0,0,.4-.08.45.45,0,0,0,.21-.34,19.06,19.06,0,0,1,2.47-7.94l.1-.17.49,1c.62,1.31,1.32,2.79,2.28,4.62a7.44,7.44,0,0,1,.38.89,7.93,7.93,0,0,0,.57,1.25,12.68,12.68,0,0,0,.9,1.24,8.25,8.25,0,0,1,1.25,2,46.74,46.74,0,0,1,2.67,12.61,19.16,19.16,0,0,1-.12,4.24,10,10,0,0,1-.32,1.22,6.13,6.13,0,0,0-.4,2.06.48.48,0,0,0,.2.38c1,.71,1.52,2.58,1.93,4.33a14.16,14.16,0,0,0,1,2.82c.35.71.7,1.41,1,2.11,1.1,2.19,2.12,4.27,3.05,6.5,2.4,5.77,4.52,11.39,7,17.91l.19.52c.45,1.18.86,2.23,1.26,3.22a55.63,55.63,0,0,1,2.51,7.25,11.59,11.59,0,0,1,.23,1.43c.16,1.27.32,2.58,1.13,3.2a15.1,15.1,0,0,1,3,4l.46.76a19.43,19.43,0,0,1,2.13,5c.14.45.3.93.47,1.46a71.11,71.11,0,0,1,2.75,11.67l.09.56a43.85,43.85,0,0,1,.86,8.57,108.18,108.18,0,0,1-1,12.55,6.18,6.18,0,0,1-.58,1.78,9,9,0,0,0-.61,2.28,9.17,9.17,0,0,1-2,3.6c-.23.3-.42.55-.52.71a11.24,11.24,0,0,0-.59,1.13,7.25,7.25,0,0,1-.7,1.28c-.57.79-1.07,1.6-1.49,2.29a1.93,1.93,0,0,1-.72.77c-.25.14-.46.46-.87,1.1a8.13,8.13,0,0,1-1.86,2.26,16,16,0,0,0-1.53,1.34,23.2,23.2,0,0,1-6.22,4.56c-.52.23-1.08.48-1.65.75-1.09.49-2.21,1-3.3,1.44-3.69,1.44-6.6,2.09-8.89,2l-2-.08c-.78,0-1.56-.05-2.38-.1l-1.09,0a13.42,13.42,0,0,1-2.91-.29c-.77-.21-2.31-.54-3.94-.88-1.87-.41-3.81-.82-4.66-1.06-3.33-.92-7.34-3.26-8.24-6.21-1.18-3.84-1.12-6.5.18-7.48a.5.5,0,0,0-.61-.8c-1.7,1.29-1.88,4.18-.53,8.57,1.17,3.8,6.17,6.12,8.93,6.89.88.24,2.83.66,4.72,1.06,1.62.35,3.15.68,3.89.87a13.79,13.79,0,0,0,3.14.33l1.06,0c.83.05,1.62.08,2.41.1l1.94.08h.56a24.94,24.94,0,0,0,8.74-2.06c1.12-.44,2.26-1,3.36-1.47.56-.26,1.11-.51,1.63-.73a24.37,24.37,0,0,0,6.51-4.75,15.2,15.2,0,0,1,1.4-1.24,8.82,8.82,0,0,0,2.14-2.55c.2-.31.45-.7.52-.77a2.8,2.8,0,0,0,1.08-1.12c.41-.67.91-1.46,1.45-2.23a8.24,8.24,0,0,0,.79-1.43,10.09,10.09,0,0,1,.54-1c.09-.14.26-.36.46-.62a9.8,9.8,0,0,0,2.21-4.08,7.57,7.57,0,0,1,.55-2,7.12,7.12,0,0,0,.64-2,108.05,108.05,0,0,0,1-12.67A45.49,45.49,0,0,0,276,167.85Zm-69.64-50.43a.51.51,0,0,0-.26-.18,7.32,7.32,0,0,0-2.64,0,7.72,7.72,0,0,1-2,0,43.05,43.05,0,0,0-4.5-.43,40.13,40.13,0,0,1-4.37-.42,21.5,21.5,0,0,1-8.87-3.93l-.82-.58c-1.1-.78-2.25-1.59-3.3-2.48-.41-.35-.83-.69-1.25-1a27.85,27.85,0,0,1-2.32-2c-.83-.85-1.5-1.66-2.22-2.53l-.47-.56c-.56-.67-1.11-1.37-1.66-2.07s-1.12-1.41-1.69-2.1a50.05,50.05,0,0,1-8.7-14.67c-.27-.76-.57-1.51-.86-2.26a31.42,31.42,0,0,1-1.91-6.07c-.22-1.26-.48-2.51-.75-3.77s-.59-2.8-.82-4.19a54.16,54.16,0,0,1-.55-5.9c0-.83-.09-1.66-.16-2.5-.09-1.29-.27-2.58-.44-3.83s-.31-2.29-.41-3.43c-.17-2-.18-4.13-.19-6.2,0-.59,0-1.17,0-1.74a29.42,29.42,0,0,1,.54-4.76c.2-1.17.4-2.38.49-3.48a16.85,16.85,0,0,1,2-7.18,24.54,24.54,0,0,1,1.68-2.56c-.13.33-.28.67-.44,1a27.14,27.14,0,0,0-1.72,4.7,42.15,42.15,0,0,0-.92,8.54A231.24,231.24,0,0,0,159,70.15a35.06,35.06,0,0,0,1.62,6.78l.36,1.15a6.92,6.92,0,0,1,.23,1.46,6.37,6.37,0,0,0,.37,1.91,64.68,64.68,0,0,0,5.14,10.26,71.49,71.49,0,0,0,7.45,10.42c1.86,2.1,8.43,9.18,14.68,12.17a23.41,23.41,0,0,0,4.1,1.22c4.61.94,12,.58,13.47.5.51.56,2.08,2.33,2.83,3.35a3.58,3.58,0,0,0-.7.75Zm8.9,14a8.3,8.3,0,0,1-2.91-.56,6.8,6.8,0,0,1-3.56-4.3c-.68-2-.4-5.72,1.37-6.61a2,2,0,0,1,.89-.24.86.86,0,0,1,.65.26,1.54,1.54,0,0,1,.34,1.16.49.49,0,0,0,.17.39.47.47,0,0,0,.41.12c.62-.1,1-.26,1.57.32.42.42.56.82,0,1.58a.51.51,0,0,0,0,.57.51.51,0,0,0,.51.24.83.83,0,0,1,1,.43,4.71,4.71,0,0,1-.05,3.06,3.41,3.41,0,0,0-.34,2v.37Zm2.68,2-.28-.35a6.07,6.07,0,0,1-.58-.81,1.68,1.68,0,0,0-.82-.86l0-1.26v-.4a2.66,2.66,0,0,1,.17-1.32l.45.73a11.09,11.09,0,0,0,.63,1c.14.21.3.42.47.63a7.42,7.42,0,0,1,.86,1.26,0,0,0,0,1,0,0c0,.43-.08.85-.1,1.26s-.05.87-.07,1.31l-.07-.11A8.42,8.42,0,0,0,218,133.4Zm3.47-24.87a11.13,11.13,0,0,1-.37,2.52c-.11.47-.21.93-.27,1.36-.24,1.56-.39,2.75-.51,4-.05.47-.13,1-.22,1.51l-.09.56c-.84-1.15-1.75-2.42-2.52-3.51l-.2-.28c-.35-.48-.68-.94-1-1.45s-.46-.84-.6-1.12a17.1,17.1,0,0,1,1.16-1.35l.66-.74c.53-.62,1.13-1.34,1.57-2s.57-.82.77-1.11.35-.51.6-.85a26.78,26.78,0,0,0,1.46-3.1l-.09.61A24.38,24.38,0,0,0,221.43,108.53Zm-2.1-34.6a4.86,4.86,0,0,0-.66,1.41,7.22,7.22,0,0,1-.61,1.45,6.14,6.14,0,0,0-.75,2,7.59,7.59,0,0,0-.07,1A5.34,5.34,0,0,1,217.1,81c-.08.31-.15.72-.23,1.15a12.72,12.72,0,0,1-.33,1.49c-.06.19-.11.39-.16.58-.87-.44-1.63-.86-2.49-1.38a2.09,2.09,0,0,0-1.35-.3h-.19a.67.67,0,0,1-.16-.29.5.5,0,0,0-.93.36,1.17,1.17,0,0,0,1.35.92,1.08,1.08,0,0,1,.76.16c1,.58,1.81,1,2.81,1.54h0c0,.17,0,.33-.05.5a10.22,10.22,0,0,0-2.09.21,5.5,5.5,0,0,1-2.64,0,.5.5,0,0,0-.33,1,4,4,0,0,0,1.32.2,10.15,10.15,0,0,0,1.82-.21,9.23,9.23,0,0,1,1.88-.19q0,.43,0,.87v.14a3.36,3.36,0,0,0-2.23.71l-.09.07a2.79,2.79,0,0,1-1.77.71.52.52,0,0,0-.53.48.5.5,0,0,0,.48.52h.14a3.88,3.88,0,0,0,2.27-.91l.08-.06a2.4,2.4,0,0,1,1.73-.53c0,.77.08,1.44.06,2.35a9.64,9.64,0,0,0,1.27,4.39,8.1,8.1,0,0,0,.69,1.06,3.47,3.47,0,0,0-.65,1,2.08,2.08,0,0,1-.2.36c-.4.55-.77,1.08-1.13,1.6a40.53,40.53,0,0,1-3.57,4.6,12.54,12.54,0,0,1-5,3.7,82.51,82.51,0,0,0-.84-11.08c-.11-.88-.22-1.73-.32-2.56a23,23,0,0,0-1-4.26c-.19-.61-.38-1.23-.55-1.87-.1-.39-.19-.75-.27-1.1A14.47,14.47,0,0,0,204,84.3a5.29,5.29,0,0,1,.13-2.1l.13-.3a13,13,0,0,1,.83-1.77c.13-.22.25-.39.35-.54a3.93,3.93,0,0,0,.64-1.3,16,16,0,0,0,.4-4.42v-.8a19.68,19.68,0,0,0-.63-5.39c-.14-.46-.31-.88-.47-1.29a7.36,7.36,0,0,1-.63-2.54,31.73,31.73,0,0,0-.34-4.41l-.07-.51a38.9,38.9,0,0,1-.41-4,.52.52,0,0,0-.16-.36.49.49,0,0,0-.36-.13,2.13,2.13,0,0,0-1.85,1.27,2.56,2.56,0,0,0-.22.52,1,1,0,0,1-.19.38l-.2.16a1.66,1.66,0,0,0-.53.53,2.52,2.52,0,0,0-.28.81,2.33,2.33,0,0,1-.07.25,1.3,1.3,0,0,1-.2.26,2.25,2.25,0,0,0-.37.49c-.13.27-.26.57-.39.87a9.89,9.89,0,0,1-.44,1h0a9.86,9.86,0,0,0-4.4-.81h0a13.29,13.29,0,0,0-3.68.52A9.14,9.14,0,0,0,190,60a6.46,6.46,0,0,1-.58-.82l-.53-.89c-.24-.39-.49-.78-.69-1.16-.78-1.45-1.92-3.14-2.76-4.37a.5.5,0,0,0-.47-.22.49.49,0,0,0-.41.32,4,4,0,0,1-.21.41,3.08,3.08,0,0,0-.37.8l-.14.56a26.7,26.7,0,0,0-1.09,6.17c0,.57-.07,1.11-.12,1.64a21.11,21.11,0,0,0-.11,2.3v.17c0,.67,0,.73-.58,1.26a2.1,2.1,0,0,0-.65,1.38c0,.12,0,.24-.07.37a20,20,0,0,1-1.11,3l-.27.62a8.7,8.7,0,0,0-.71,3.67c0,.87-.08,1.65-.14,2.41l-.09,1.33a2.07,2.07,0,0,1-.47,1.24l-.46.57c-1,1.28-3.16,4-4.21,5.4-.43-.8-.84-1.6-1.2-2.38s-.72-1.65-1.05-2.46c-.42-1-.86-2.11-1.37-3.11A26.8,26.8,0,0,1,167,68.76a6.09,6.09,0,0,0-.32-1.24,5.52,5.52,0,0,1-.26-.89c-.4-2.27-.8-4.57-1.23-7.07a87.5,87.5,0,0,1-1.55-19.67,27.82,27.82,0,0,1,.73-5.38,21.45,21.45,0,0,1,3.49-6.8c.74-1.06,1.46-2.1,2.1-3.15a4.94,4.94,0,0,1,1.24-1.47c3.8-3.08,10.43-3.46,15-2.51a11.7,11.7,0,0,1,2,.64l.88.34a7.19,7.19,0,0,0,1.08.25,3.86,3.86,0,0,1,1.06.28c4.21,1.94,7.77,5.55,10.77,8.77l1.34,1.42A43.12,43.12,0,0,1,208.1,38a98.67,98.67,0,0,1,5,8.7,65.85,65.85,0,0,1,6.08,17.06c.16.71.3,1.32.43,1.83a.51.51,0,0,0,.35.35,56.4,56.4,0,0,0-.08,6.6A2.25,2.25,0,0,1,219.33,73.93Zm-14,34.31a20.2,20.2,0,0,1-6-.15,28,28,0,0,1-15.65-8.48A54.92,54.92,0,0,1,179,94a11.46,11.46,0,0,0-1.11-1.28,10.57,10.57,0,0,1-1.13-1.34q-1.39-2.16-2.53-4.23c.87-1.21,3.45-4.48,4.46-5.76l.47-.58a3.08,3.08,0,0,0,.68-1.79c0-.45.06-.88.09-1.31.06-.78.12-1.57.14-2.47a7.8,7.8,0,0,1,.63-3.3l.27-.62a20.16,20.16,0,0,0,1.16-3.17c0-.15.06-.3.09-.44.07-.4.1-.59.32-.79a2,2,0,0,0,.92-2v-.16a17.59,17.59,0,0,1,.11-2.18c0-.56.1-1.12.12-1.71a26.93,26.93,0,0,1,1-5.94l.15-.56A1.29,1.29,0,0,1,185,54c.75,1.11,1.62,2.44,2.24,3.6.21.39.46.8.72,1.21s.35.57.51.85a6.52,6.52,0,0,0,.68,1,5.45,5.45,0,0,1,.64.94.51.51,0,0,0,.57.25,13,13,0,0,1,3.82-.59,8.82,8.82,0,0,1,4.12.78,1,1,0,0,0,.51,0h.22a.53.53,0,0,0,.31-.24,12.61,12.61,0,0,0,.63-1.34c.12-.28.23-.56.36-.82a1.83,1.83,0,0,1,.21-.26,1.82,1.82,0,0,0,.41-.61c0-.12.07-.24.1-.36a1.66,1.66,0,0,1,.18-.53c0-.07.1-.12.22-.2a1.76,1.76,0,0,0,.77-1.05,1.69,1.69,0,0,1,.13-.31,1.82,1.82,0,0,1,.54-.66c.07,1.08.25,2.43.39,3.45l.07.51a30.16,30.16,0,0,1,.33,4.3,8.12,8.12,0,0,0,.7,2.88c.15.39.31.78.44,1.22a18.69,18.69,0,0,1,.59,5.09v.81a15.75,15.75,0,0,1-.35,4.14,3.16,3.16,0,0,1-.52,1c-.11.16-.23.35-.38.59a14.37,14.37,0,0,0-.9,1.9l-.12.29A6.08,6.08,0,0,0,203,84.5a.61.61,0,0,0,0,.13,13.31,13.31,0,0,1,.76,2.47c.08.36.17.73.28,1.12.17.66.36,1.29.55,1.92a21.92,21.92,0,0,1,1,4.07c.09.84.2,1.69.32,2.57a81.88,81.88,0,0,1,.83,11.25A11.07,11.07,0,0,1,205.36,108.24Zm19.69-37.92a19.75,19.75,0,0,0-2-3.34,15.39,15.39,0,0,1-1.29-2.18,17.09,17.09,0,0,0-.82-1.53.5.5,0,0,0-.54-.22.47.47,0,0,0-.36.39,66.93,66.93,0,0,0-6.15-17.22,97.92,97.92,0,0,0-5-8.78,43.63,43.63,0,0,0-5-5.85l-1.33-1.41c-3.06-3.29-6.71-7-11.08-9a5.44,5.44,0,0,0-1.32-.36,4.7,4.7,0,0,1-.9-.21l-.86-.32a13,13,0,0,0-2.11-.69c-4.78-1-11.77-.57-15.82,2.72A5.81,5.81,0,0,0,169.08,24c-.63,1-1.31,2-2.07,3.09a22.53,22.53,0,0,0-3.64,7.13,27.71,27.71,0,0,0-.75,5.57,87.64,87.64,0,0,0,1.55,19.9c.43,2.5.84,4.8,1.24,7.08a7.14,7.14,0,0,0,.29,1,5.38,5.38,0,0,1,.28,1,27.62,27.62,0,0,0,3.23,9.76c.5,1,.91,2,1.34,3,.34.83.68,1.68,1.07,2.51A67.19,67.19,0,0,0,176,91.9a11.12,11.12,0,0,0,1.25,1.48,10.6,10.6,0,0,1,1,1.16,57.3,57.3,0,0,0,4.77,5.74,29,29,0,0,0,16.19,8.79,16.39,16.39,0,0,0,3.34.32c1,0,2-.07,2.93-.15a10.68,10.68,0,0,0,1.71-.29h.07a.5.5,0,0,0,.31-.12,12.71,12.71,0,0,0,5.88-4.12,40.87,40.87,0,0,0,3.66-4.71c.36-.51.72-1,1.12-1.58a4.21,4.21,0,0,0,.29-.51,2.85,2.85,0,0,1,.38-.63l.35.4.52.59c.18.21.34.42.51.63a11.71,11.71,0,0,0,1.25,1.4,2.52,2.52,0,0,1,.33.36l-.65,1.48c-.53,1.22-1.34,3-1.55,3.35s-.43.61-.61.88-.41.6-.76,1.09-1,1.27-1.52,1.88c-.18.22-.4.46-.64.71a15.11,15.11,0,0,0-1.42,1.71.53.53,0,0,0,0,.49s.41.86.77,1.46a17.62,17.62,0,0,0,1,1.52l.19.28c1,1.33,2.1,3,3.08,4.27,0,0,0,0,.07.06s0,.12,0,.19c-.11,1.19-.18,2.49-.25,4-.07,1.36-.14,2.86-.27,4.52,0,.6-.11,1.26-.19,1.91l-.26-.34-.44-.58c-.2-.29-.39-.61-.58-.93a10.42,10.42,0,0,0-.93-1.38,6,6,0,0,0-.27-2.95,1.73,1.73,0,0,0-1.14-1,1.86,1.86,0,0,0-.52-2.13,2.18,2.18,0,0,0-1.88-.67,2.27,2.27,0,0,0-.59-1.31,2.12,2.12,0,0,0-2.36-.36c-.91-1.24-3-3.59-3.13-3.7a.51.51,0,0,0-.4-.17c-.09,0-8.56.54-13.45-.46a23,23,0,0,1-3.87-1.14c-4.83-2.31-10.59-7.68-14.36-11.93a71.32,71.32,0,0,1-7.35-10.28,63.93,63.93,0,0,1-5.06-10.1,5.26,5.26,0,0,1-.3-1.63,7.19,7.19,0,0,0-.28-1.67c-.12-.4-.24-.78-.36-1.16A35,35,0,0,1,159.94,70a227.9,227.9,0,0,1-2.12-29.21,41.61,41.61,0,0,1,.89-8.34A27.83,27.83,0,0,1,160.38,28l.51-1.17c.2-.49.34-.91.48-1.31a7.81,7.81,0,0,1,.94-2.07,21.85,21.85,0,0,1,4.24-4.82c1.71-1.45,4.27-3.47,6.62-4.19a24.2,24.2,0,0,1,9.22-1.07c5.84.56,11.08,3.67,13.68,5.47l1.23.9c.48.35,1,.7,1.43,1a17.68,17.68,0,0,1,3.6,3.29c.41.49.9,1,1.41,1.58a37.18,37.18,0,0,1,2.81,3.33,11.08,11.08,0,0,0,1.63,1.85,7.29,7.29,0,0,1,1.64,2,51.46,51.46,0,0,0,3.15,4.9,36.82,36.82,0,0,1,3.92,6.53,19.18,19.18,0,0,0,1.62,2.81A22.88,22.88,0,0,1,221,51.74c.34.94.72,1.85,1.1,2.76.56,1.36,1.14,2.77,1.58,4.21A38.73,38.73,0,0,1,225,65.05c.11.86.28,1.71.44,2.53a31.59,31.59,0,0,1,.52,3.31h-.54A2.6,2.6,0,0,1,225.05,70.32Z"/><path d="M227.86,80.59h0a.51.51,0,0,0,.5-.47,21.08,21.08,0,0,0-.33-6.61.48.48,0,0,0-.6-.36.5.5,0,0,0-.37.6,20.21,20.21,0,0,1,.3,6.3A.51.51,0,0,0,227.86,80.59Z"/><path d="M231.19,78.8a.5.5,0,0,0,.84-.55,5.68,5.68,0,0,1-.4-2.24,12.39,12.39,0,0,0-.13-1.35.5.5,0,0,0-1,.18,12.2,12.2,0,0,1,.11,1.23A6.11,6.11,0,0,0,231.19,78.8Z"/><path d="M234.84,74.35a.5.5,0,0,0-.62-.34.48.48,0,0,0-.34.61,3.1,3.1,0,0,1,.06,1,3,3,0,0,0,.09,1.07,2.24,2.24,0,0,0,.27.56c.14.25.21.37.17.42a.5.5,0,0,0,.12.7.52.52,0,0,0,.29.09.49.49,0,0,0,.41-.21,1.33,1.33,0,0,0-.13-1.51,1.67,1.67,0,0,1-.18-.35,2.36,2.36,0,0,1,0-.73A4.09,4.09,0,0,0,234.84,74.35Z"/><path d="M230.25,102.71a5.44,5.44,0,0,0-.15-.54,2.81,2.81,0,0,1-.15-.72.37.37,0,0,0-.39-.36.36.36,0,0,0-.36.38,3.42,3.42,0,0,0,.19.92c0,.15.09.31.12.46.08.41.17.81.25,1.21l.09.42c0,.1,0,.2.05.3a3.63,3.63,0,0,0,.18.76c0,.11.11.23.17.34a1.59,1.59,0,0,1,.2.5,4.65,4.65,0,0,1,.05.75.38.38,0,0,0,.38.37h0a.38.38,0,0,0,.37-.38,5,5,0,0,0-.06-.86,2.27,2.27,0,0,0-.28-.73c0-.09-.09-.18-.13-.28a3,3,0,0,1-.14-.59c0-.11,0-.22-.06-.33l-.09-.43Z"/><path d="M233.83,100.24a3.54,3.54,0,0,1,.18.73,4.46,4.46,0,0,0,.11.55,8.59,8.59,0,0,0,.39,1.08q.15.34.27.69a3,3,0,0,1,.12.58c0,.1,0,.21,0,.31l0,.1a15,15,0,0,0,.33,1.56l0,.09a1.63,1.63,0,0,1,.1.7.41.41,0,0,0,.06.37.39.39,0,0,0,.28.16.27.27,0,0,0,.12,0,.37.37,0,0,0,.31-.43v0a2.82,2.82,0,0,0-.16-1,14.57,14.57,0,0,1-.31-1.49l0-.11c0-.09,0-.18-.05-.28a3.75,3.75,0,0,0-.15-.71c-.08-.25-.19-.5-.29-.74a7.75,7.75,0,0,1-.36-1,4,4,0,0,1-.09-.48,4.07,4.07,0,0,0-.24-.91.37.37,0,1,0-.68.3Z"/><path d="M240.9,104.84l0,.26a18.38,18.38,0,0,1,.19,2.11.38.38,0,0,0,.37.37h0a.37.37,0,0,0,.37-.38,20.78,20.78,0,0,0-.19-2.19l0-.26a8.89,8.89,0,0,0-.55-2.32,2.37,2.37,0,0,0-.19-.35,2.81,2.81,0,0,1-.2-.38,2.75,2.75,0,0,0-.57-1,.38.38,0,0,0-.53,0,.37.37,0,0,0,0,.53,2.25,2.25,0,0,1,.43.71,2.11,2.11,0,0,0,.26.52c0,.09.11.18.15.27A8,8,0,0,1,240.9,104.84Z"/><path d="M245.87,104.82c0,.21,0,.41.07.62a.31.31,0,0,1,0,.1.87.87,0,0,0,.09.44.42.42,0,0,0,.35.2.34.34,0,0,0,.17-.05.35.35,0,0,0,.14-.49v-.12c0-.08,0-.15,0-.2s0-.37-.06-.56,0-.45-.08-.67a6.26,6.26,0,0,0-.4-1.32q-.12-.26-.24-.48a3.18,3.18,0,0,1-.3-.75c0-.21-.11-.42-.16-.63a7.88,7.88,0,0,1-.29-1.68.38.38,0,0,0-.38-.37.38.38,0,0,0-.37.38,7.78,7.78,0,0,0,.32,1.85c.05.2.1.41.14.62a3.69,3.69,0,0,0,.38.92c.07.14.14.28.2.43a5.4,5.4,0,0,1,.36,1.16A4.09,4.09,0,0,1,245.87,104.82Z"/><path d="M233.41,133.35a2.26,2.26,0,0,0-.2-.26c-.05-.05-.14-.14-.14-.17a.39.39,0,0,0-.41-.35.37.37,0,0,0-.34.41,1,1,0,0,0,.34.63.75.75,0,0,1,.12.14,3.06,3.06,0,0,1,.29.6,9.89,9.89,0,0,1,.64,2,6.59,6.59,0,0,1,.1.76l.06.47a.91.91,0,0,1,0,.17,1.07,1.07,0,0,0,.09.57.35.35,0,0,0,.32.2.41.41,0,0,0,.16,0,.39.39,0,0,0,.19-.5.61.61,0,0,1,0-.24,2.28,2.28,0,0,0,0-.27c0-.15,0-.3-.05-.45a7.54,7.54,0,0,0-.12-.83,11.56,11.56,0,0,0-.71-2.26A3.73,3.73,0,0,0,233.41,133.35Z"/><path d="M240,140.11a.35.35,0,0,0,.17,0,.38.38,0,0,0,.17-.5,1.72,1.72,0,0,1-.13-.53,2.32,2.32,0,0,0-.07-.46l-.07-.29a5.82,5.82,0,0,0-.38-1.16q-.09-.18-.18-.33a1.82,1.82,0,0,1-.25-.58c-.07-.4-.11-.82-.14-1.21v-.23c0-.2,0-.41,0-.62v-.26a1.84,1.84,0,0,0-.1-.9.37.37,0,0,0-.49-.19.39.39,0,0,0-.19.5,1.57,1.57,0,0,1,0,.55v.32c0,.22,0,.44,0,.66l0,.22a12.26,12.26,0,0,0,.14,1.3,2.5,2.5,0,0,0,.34.81l.16.29a5,5,0,0,1,.32,1l.07.3a1.93,1.93,0,0,1,.06.36,2.55,2.55,0,0,0,.19.77A.37.37,0,0,0,240,140.11Z"/><path d="M245.12,139.87a.29.29,0,0,0,.18,0,.36.36,0,0,0,.32-.19,2.45,2.45,0,0,0,0-1.39l0-.12a6.93,6.93,0,0,0-.32-1.23c-.08-.23-.16-.46-.22-.7s-.17-.64-.27-.95l-.09-.32a4.86,4.86,0,0,1-.15-.81c0-.16,0-.32-.07-.48s-.06-.33-.1-.49a8,8,0,0,1-.18-1.25.38.38,0,0,0-.39-.36.37.37,0,0,0-.36.39,8.4,8.4,0,0,0,.2,1.36l.09.49c0,.14.05.29.07.44a5.94,5.94,0,0,0,.17.92l.1.32c.09.31.18.61.26.92a6.65,6.65,0,0,0,.23.76,6.53,6.53,0,0,1,.29,1.09l0,.14a3.09,3.09,0,0,1,.07.9A.37.37,0,0,0,245.12,139.87Z"/><path d="M249.47,133.31c.1.3.2.59.29.9l.22.68a9.62,9.62,0,0,1,.33,1.07c0,.18.14.57.24,1s.28,1,.33,1.34a2.82,2.82,0,0,0,.19.7.38.38,0,0,0,.35.24l.14,0a.39.39,0,0,0,.21-.49,2.24,2.24,0,0,1-.16-.61c0-.26-.19-.83-.33-1.35s-.2-.77-.24-.95a10.44,10.44,0,0,0-.35-1.16c-.08-.23-.15-.45-.21-.64s-.2-.62-.31-.93l0-.17a7.17,7.17,0,0,1-.29-1.28l0-.19a.38.38,0,0,0-.43-.31.39.39,0,0,0-.31.43l0,.19a8.37,8.37,0,0,0,.32,1.41Z"/><path d="M257.33,136.73c-.07-.2-.19-.62-.31-1.09a16.54,16.54,0,0,0-.67-2.15,2.16,2.16,0,0,1-.17-.6,2.64,2.64,0,0,0-.25-.83.37.37,0,0,0-.51-.16.38.38,0,0,0-.16.5,1.76,1.76,0,0,1,.18.62,2.72,2.72,0,0,0,.24.8,19.14,19.14,0,0,1,.61,2c.14.49.26.92.33,1.13a3.2,3.2,0,0,0,.16.39,1.9,1.9,0,0,1,.18.5.37.37,0,0,0,.37.33h.05a.38.38,0,0,0,.32-.42,2.35,2.35,0,0,0-.24-.72C257.41,136.94,257.37,136.84,257.33,136.73Z"/><path d="M241.54,163.49a4.68,4.68,0,0,1,.86,2.52.37.37,0,0,0,.34.41h0a.38.38,0,0,0,.37-.34,5.2,5.2,0,0,0-1-3,7.76,7.76,0,0,1-.7-1.47.38.38,0,0,0-.47-.25.37.37,0,0,0-.25.46A8.21,8.21,0,0,0,241.54,163.49Z"/><path d="M249,161.26a3.39,3.39,0,0,1,.36,1.06,4.69,4.69,0,0,0,.19.74l.21.56c.11.26.21.52.3.8l0,.15a3.12,3.12,0,0,1,.09,2.36.39.39,0,0,0,.24.48h.12a.39.39,0,0,0,.36-.25,3.89,3.89,0,0,0-.09-2.82l0-.14c-.09-.3-.2-.58-.31-.87s-.14-.34-.2-.53a5.1,5.1,0,0,1-.17-.65,4.08,4.08,0,0,0-.46-1.31.38.38,0,0,0-.63.41Z"/><path d="M256.71,159.32a.38.38,0,0,0,0,.53,4.38,4.38,0,0,1,.65,2.1,5.67,5.67,0,0,0,.43,2,10,10,0,0,1,.86,2.87.37.37,0,0,0,.32.34l.31.07h.07a.34.34,0,0,0,.34-.3.39.39,0,0,0-.31-.45h0a12.24,12.24,0,0,0-.89-2.82,5,5,0,0,1-.38-1.78,5.12,5.12,0,0,0-.82-2.48A.38.38,0,0,0,256.71,159.32Z"/><path d="M266.55,162.94c.05.17.11.34.15.51a18.37,18.37,0,0,0,1.17,3.31.38.38,0,0,0,.33.2.41.41,0,0,0,.18-.05.38.38,0,0,0,.15-.51,16.36,16.36,0,0,1-1.1-3.15c-.05-.18-.11-.36-.17-.54a8,8,0,0,1-.3-1.19,13.73,13.73,0,0,1-.14-1.5l0-.43a.38.38,0,0,0-.4-.35.38.38,0,0,0-.35.4l0,.43c0,.51.05,1,.14,1.56A10.09,10.09,0,0,0,266.55,162.94Z"/><path d="M115.52,61.19c.09.22.19.44.29.69l.86.12c.25-.33,1.51-2.28,1.65-2.5l.08-.28a16.49,16.49,0,0,0-1.09-3.08l-.82-.14a18.23,18.23,0,0,0-1.72,2.72l0,.38s.17.56.32,1S115.36,60.83,115.52,61.19Zm1.21-3.84a17.8,17.8,0,0,1,.64,1.77c-.31.48-.69,1.08-1,1.54-.13-.29-.25-.58-.38-.92s-.18-.54-.24-.73C116,58.59,116.37,57.9,116.73,57.35Z"/><path d="M114.17,74.23c.41-.72,1.74-2.51,1.76-2.53l.06-.49a13.43,13.43,0,0,1-.78-2.46l-.88-.26-2.08,2.42-.12.33a6.8,6.8,0,0,0,1.19,3Zm.28-4.35c.17.56.38,1.13.51,1.45-.27.36-.8,1.09-1.21,1.71a5.28,5.28,0,0,1-.61-1.64Z"/><path d="M111.85,83.35l.39-.41.12-.5a18.54,18.54,0,0,1-.49-1.88l-.77-.35-.62.4c-.58.36-1.24.78-1.63,1.08l-.19.37L108.52,85l.61.51A7,7,0,0,0,111.85,83.35Zm-2.2-1c.36-.26.91-.6,1.36-.89h0c.09.38.2.76.28,1l-.2.22a14,14,0,0,1-1.56,1.49Z"/><path d="M104.53,95.75a4.87,4.87,0,0,1,1.28-.8l.32-.43c0-.25,0-.55,0-.86a6.06,6.06,0,0,1,.2-1.72l-.61-.66-3,.9-.34.39a21.53,21.53,0,0,0-.45,3.75l.61.5A5.18,5.18,0,0,0,104.53,95.75Zm-1.14-2.7,1.84-.57c0,.37,0,.76-.06,1.15,0,.18,0,.35,0,.51a6.67,6.67,0,0,0-1.24.82,7.88,7.88,0,0,1-.88.62A23.94,23.94,0,0,1,103.39,93.05Z"/><path d="M97.84,103.82l.39-.37c.1-.42.15-.8.2-1.16a6.8,6.8,0,0,1,.26-1.3l-.54-.65-2.21.26-.44.49a7,7,0,0,1-.8,2,5.38,5.38,0,0,0-.59,1.4l.8.47A8.66,8.66,0,0,1,97.84,103.82Zm-1.4-2.27,1.11-.13c0,.25-.08.5-.11.74s-.07.49-.12.75a13.27,13.27,0,0,0-1.68.53A10,10,0,0,0,96.44,101.55Z"/><path d="M85.34,111.23c.54,0,1.1.08,1.6.08h.34l.37-.2a4.2,4.2,0,0,1,.57-.6,3.44,3.44,0,0,0,1-1.5l-.38-.68-2.62-.45-.45.15-.79.87c-.43.46-.77.83-1.33,1.41l.36.85C84.42,111.16,84.87,111.2,85.34,111.23Zm.39-1.66.61-.66,1.7.29a2.55,2.55,0,0,1-.5.58,5.26,5.26,0,0,0-.53.53c-.48,0-1.05,0-1.59-.08l-.28,0C85.34,110,85.53,109.8,85.73,109.57Z"/><path d="M75.8,113l1.92-.86,0-.92a11.07,11.07,0,0,1-1.35-.75c-.28-.18-1.16-.68-1.16-.68l-.46,0s-.83.39-1.13.5a14.82,14.82,0,0,1-1.67.38l-.16.93A28.29,28.29,0,0,0,75.44,113Zm-1.86-1.79c.22-.08.69-.29,1-.42l.9.53.55.33-.8.36c-.36-.12-1.18-.4-1.95-.7Z"/><path d="M64,110.12l.36.32,2.68.6.12-.16v0l.43-.55a11,11,0,0,1-.3-1.93l-.17-.32-.3-.28-.21-.11s-2-.51-3-.78l-.58.71a19.76,19.76,0,0,1,.82,2.11Zm2.24-1.49.07.06c0,.3.09.77.16,1.2l-1.62-.36,0-.12c-.14-.4-.3-.84-.46-1.27Z"/><path d="M59.65,103.88l.88.5.26-.22v0l.45-.39a9,9,0,0,1-.57-3l-.28-.43a7.83,7.83,0,0,0-1.25-.45l-.39-.12-.65.44-.18,2.55.43.53A2.9,2.9,0,0,1,59.65,103.88Zm-.6-2.94c.22.07.44.14.64.22a10.39,10.39,0,0,0,.23,1.72,3.56,3.56,0,0,0-1-.45Z"/><path d="M117.38,44.12,116,46.63l0,.46c0,.06.7,1.51,1.07,2.17l.92-.1a5,5,0,0,1,.41-1,8.72,8.72,0,0,1,.79-1l.09-.49a23.89,23.89,0,0,0-1-2.53Zm.09,3.61,0,.1L117,46.9l.78-1.41c.16.42.33.89.44,1.22A7.66,7.66,0,0,0,117.47,47.73Z"/><path d="M117.31,35.78l.82-.27a13.38,13.38,0,0,0,.26-1.69,3.53,3.53,0,0,1,.27-1.16l-.09-.47L117,30.26l-.83.11a13.35,13.35,0,0,0-.54,1.23l-.51,1.32.07.49s.68.88.89,1.12C116.42,35,117.27,35.75,117.31,35.78Zm-.79-3.85c0-.1.1-.26.17-.42l.93,1.11a3.52,3.52,0,0,0-.23,1.17c0,.16,0,.39-.07.63-.2-.19-.4-.39-.54-.55s-.47-.58-.67-.85Z"/><path d="M112.91,20.4l-.41-.27-2.11-.21-.55.48a11.23,11.23,0,0,0,.1,2.3l.31.32,3.25,1.14.18-.26v0l.37-.52a4.89,4.89,0,0,1-.69-1.64A7.07,7.07,0,0,0,112.91,20.4Zm-2,1.77c0-.27,0-.73,0-1.2l1.29.13c.11.28.2.59.29.91s.15.53.24.79Z"/><path d="M101.27,13.13a8.7,8.7,0,0,0-2.14.84c-.32.16-.63.3-.89.41v.92a6.16,6.16,0,0,1,2,1.7l.53.14,3.54-1.2,0-.94a17.59,17.59,0,0,1-2.71-1.77Zm-.48,2.95a9.71,9.71,0,0,0-1.28-1.19l.06,0a9.5,9.5,0,0,1,1.66-.71c.33.25,1,.77,1.71,1.19Z"/><path d="M88.87,15.23h-.19l-.37.18A10,10,0,0,1,86.8,17v.84a7.09,7.09,0,0,0,2.52.39l.29-.08,2.06-1.34.23-.42v-.48l-.46-.5C91.36,15.35,89.69,15.23,88.87,15.23Zm.32,1.95-1-.08c.31-.32.6-.66.78-.87l1.6.07Z"/><path d="M78.91,20.26l-.3.3-.82,2.18.56.67,2.56-.47.34-.22a9.9,9.9,0,0,0,.84-1.56,11.71,11.71,0,0,1,.61-1.39l-.62-.7Zm2.23.6A8.85,8.85,0,0,1,80.52,22L79,22.27l.43-1.15,1.83-.68A3.22,3.22,0,0,0,81.14,20.86Z"/><path d="M71.94,27.77l-.27.38c-.08.51-.39,1.89-.39,1.9l.78.51a6.17,6.17,0,0,1,2.16-1.08l.46-.51A8.1,8.1,0,0,1,75,27.22l-.68-.66Zm1.77.79a6.09,6.09,0,0,0-1.2.53c0-.19.08-.38.1-.54l1.19-.61C73.76,28.16,73.73,28.38,73.71,28.56Z"/><path d="M64.6,37.53l-.22.39,0,.73c0,.61,0,1.21,0,1.86l.82.38c.29-.25,1.46-1.1,1.89-1.41l.2-.31s.18-1,.22-1.4c0-.13,0-.28,0-.43a2.48,2.48,0,0,1,.09-.72L66.82,36Zm1.85.13c0,.26-.13.83-.18,1.13l-1,.69,0-.79,0-.48,1.09-.75C66.46,37.53,66.45,37.6,66.45,37.66Z"/><path d="M61,46,59,47.8l-.16.42c0,.49.07,1,.1,1.57l0,.74.69.44a3.77,3.77,0,0,0,.93-.62l.34-.27a2.45,2.45,0,0,0,.86-1l0-.17c0-.22,0-2.16,0-2.54Zm-.16,2.75a1.4,1.4,0,0,1-.45.52l-.41.31,0,0c0-.42,0-.84-.07-1.23l1-.89C60.83,47.9,60.82,48.36,60.82,48.74Z"/><path d="M57.77,56.15,57,55.56l-1.78,2-.1.47c.07.22.64,2.21.82,2.62l.78.18a5,5,0,0,0,.79-.9,3.9,3.9,0,0,1,.74-.82l.2-.47a8.28,8.28,0,0,0-.26-1A10.1,10.1,0,0,1,57.77,56.15Zm-1.1,3.21-.11.15c-.14-.45-.31-1-.44-1.47l.83-.95c.06.26.15.55.24.88a6,6,0,0,1,.17.58A5.61,5.61,0,0,0,56.67,59.36Z"/><path d="M96.45,25.55c.17-.19.93.33,1.21.52l.27.18a13.7,13.7,0,0,0,2.3,1.22.39.39,0,0,0,.18,0,.51.51,0,0,0,.47-.31.5.5,0,0,0-.28-.65,13.72,13.72,0,0,1-2.13-1.14,1.67,1.67,0,0,1-.24-.16c-.62-.42-1.76-1.21-2.52-.37a.49.49,0,0,0,0,.7A.5.5,0,0,0,96.45,25.55Z"/><path d="M87.29,28.33c.19-.16.38-.11,1,.28l.37.23c.85.48,1.69.92,2.53,1.35s1.62.84,2.43,1.3c.29.16.6.31.91.46a7.47,7.47,0,0,1,1.34.74A10.11,10.11,0,0,0,98,33.85l.79.35a.52.52,0,0,0,.21,0,.49.49,0,0,0,.45-.29.49.49,0,0,0-.25-.66l-.8-.36a9.91,9.91,0,0,1-2-1A8.14,8.14,0,0,0,95,31c-.29-.13-.58-.27-.85-.42-.82-.47-1.64-.89-2.46-1.32S90,28.45,89.15,28l-.33-.2c-.55-.35-1.37-.88-2.17-.21a.52.52,0,0,0-.07.71A.51.51,0,0,0,87.29,28.33Z"/><path d="M84.29,34.08a3.51,3.51,0,0,1,1.93,1,5.1,5.1,0,0,0,2.54,1.26h.12a.5.5,0,0,0,.49-.38.49.49,0,0,0-.37-.6,4.25,4.25,0,0,1-2-1,4.39,4.39,0,0,0-2.49-1.28.5.5,0,1,0-.18,1Z"/><path d="M122.65,35.2a18,18,0,0,0-2.15-7.59,33.56,33.56,0,0,0-3.75-5.14h0c-.1-.19-.22-.39-.35-.6a23.3,23.3,0,0,0-4.43-5c-1.79-1.51-4.45-3.61-7-4.39a25.23,25.23,0,0,0-9.61-1.1C89.3,11.91,83.89,15.12,81.2,17L80,17.89c-.47.35-.94.69-1.4,1a18.41,18.41,0,0,0-3.79,3.46c-.41.48-.89,1-1.39,1.56a37.28,37.28,0,0,0-2.9,3.43A9.75,9.75,0,0,1,69,29a8.55,8.55,0,0,0-1.82,2.29,52,52,0,0,1-3.09,4.8,37.7,37.7,0,0,0-4,6.72,18.43,18.43,0,0,1-1.55,2.65,24.31,24.31,0,0,0-2.63,4.9c-.33.92-.7,1.82-1.08,2.72-.57,1.38-1.16,2.81-1.61,4.3a39.08,39.08,0,0,0-1.26,6.49c-.12.84-.28,1.67-.43,2.48a27.67,27.67,0,0,0-.54,3.51c-1.45,0-3.36,0-4,.06h-.57a34.27,34.27,0,0,0-3.94.23,19.48,19.48,0,0,0-2.52-7.78,5.09,5.09,0,0,1-.47-1,.5.5,0,0,0-.93-.09c-.31.61-.62,1.27-1,2-.61,1.3-1.31,2.78-2.26,4.59-.15.29-.29.63-.43,1a7.09,7.09,0,0,1-.49,1.1,12,12,0,0,1-.84,1.15,9.34,9.34,0,0,0-1.39,2.22,47.89,47.89,0,0,0-2.73,12.88,19.72,19.72,0,0,0,.13,4.5,12.15,12.15,0,0,0,.35,1.35,6,6,0,0,1,.35,1.5c-1.09,1-1.65,2.84-2.1,4.74a12.35,12.35,0,0,1-.92,2.61c-.34.71-.69,1.41-1,2.11-1.09,2.21-2.13,4.29-3.07,6.55-2.42,5.81-4.54,11.47-7,18l-.17.45c-.44,1.17-.86,2.21-1.26,3.2a57.46,57.46,0,0,0-2.54,7.37,12.67,12.67,0,0,0-.26,1.56c-.12,1-.26,2.16-.74,2.52a15.89,15.89,0,0,0-3.26,4.34l-.45.75A20.55,20.55,0,0,0,5.17,153c-.14.44-.29.92-.47,1.45A73.17,73.17,0,0,0,1.92,166.3l-.1.56A46.11,46.11,0,0,0,1,175.61a112.55,112.55,0,0,0,1,12.67,7.13,7.13,0,0,0,.66,2.05,7.43,7.43,0,0,1,.53,2,10,10,0,0,0,2.21,4.08c.21.26.38.48.47.62a10,10,0,0,1,.53,1,9,9,0,0,0,.79,1.43c.55.77,1,1.56,1.46,2.23a2.83,2.83,0,0,0,1.05,1.11,8.46,8.46,0,0,1,.55.78,8.79,8.79,0,0,0,2.13,2.55,15,15,0,0,1,1.41,1.24,24,24,0,0,0,6.51,4.75c.51.22,1.06.48,1.63.74,1.1.5,2.24,1,3.35,1.46A25,25,0,0,0,34,216.42h.56l1.95-.08c.79,0,1.57-.05,2.4-.1l1.06,0a13.73,13.73,0,0,0,3.14-.33c.75-.19,2.28-.52,3.9-.87,1.88-.4,3.83-.82,4.71-1.06,2.77-.77,7.77-3.09,8.93-6.89,1.35-4.39,1.17-7.28-.52-8.57a.5.5,0,1,0-.61.8c1.29,1,1.36,3.64.18,7.48-.91,2.95-4.91,5.29-8.25,6.21-.85.24-2.78.65-4.65,1.06-1.63.34-3.18.67-3.94.88a13.51,13.51,0,0,1-2.92.29l-1.08,0c-.83.05-1.6.08-2.39.1l-2,.08c-2.29.11-5.19-.54-8.88-2-1.09-.43-2.22-1-3.3-1.44l-.82-.37a3.68,3.68,0,0,1,1.05.26c-.05-.47.32-.71.75-.66a1,1,0,0,0,0-1c-.09-.12-.4-.07-.51-.19s-.05-.28-.15-.41a20.76,20.76,0,0,0-1.92-1.83c-.58-.09-.63.34-1.05.76a2.47,2.47,0,0,1-.14.94,1.17,1.17,0,0,1-.69.72,29.6,29.6,0,0,1-4.39-3.57l-.35-.33c.7-.74.52-1.76,1.33-2.39.5-.38.7-.42.57-1.12a2.88,2.88,0,0,0-.57-1.3c-1.06-.22-1.61,0-2-.25s-1.07-1.22-1.63-.7c0,1-.46.48-1,.77a1.49,1.49,0,0,0-.52.65l0,0a1.91,1.91,0,0,1-.71-.77c-.42-.69-.93-1.5-1.49-2.29a6.65,6.65,0,0,1-.7-1.28c-.18-.36-.35-.74-.59-1.13-.11-.16-.3-.41-.53-.71a14.57,14.57,0,0,1-1.63-2.46,6.55,6.55,0,0,1,1.88-.12A6.81,6.81,0,0,1,6.9,191c.37-.67,1-1.08.55-2s-1.42-.78-2.12-.56c-.4.13-.58.44-.89.63a2.81,2.81,0,0,1-1.14.31,5,5,0,0,1-.36-1.26,110.43,110.43,0,0,1-1-12.55A44.63,44.63,0,0,1,2.81,167l.09-.56a81.45,81.45,0,0,1,1.68-8.07,7.08,7.08,0,0,1,1.45.49c.59.2,1-.09,1.46-.43a3.2,3.2,0,0,0,.76-.88c.39-.57,1-.66,1.6-1a1,1,0,0,0-.51-1.84c-.36,0-.92.22-1.24,0s0-.71-.24-1c-.35-.55-1.23-.24-1.89.09l.15-.47a19.48,19.48,0,0,1,2.14-5l.45-.76a15.32,15.32,0,0,1,3-4c.82-.62,1-1.93,1.13-3.2a11.46,11.46,0,0,1,.24-1.43,46.27,46.27,0,0,1,1.54-4.8.49.49,0,0,0,.37.27,4,4,0,0,0,2-.54c.79-.51,1.27-1.18.86-2.07a3.62,3.62,0,0,0-1.73-1.51c.23-.58.46-1.18.7-1.82L17,128c2-5.4,3.83-10.18,5.75-15,.29,0,.59,0,.88.09s1,.28,1.26.08.17-.51.45-.66.6.1.94.11c.76,0,.58-.87.65-1.35s0-.43-.38-.59-.57-.19-.53-.63.24-.44-.15-.59a4.4,4.4,0,0,0-1.53.07l-.22.13c.9-2.11,1.88-4.1,2.92-6.18.35-.7.69-1.41,1-2.12a13.37,13.37,0,0,0,1-2.82c.4-1.75.95-3.62,1.92-4.33a.52.52,0,0,0,.21-.38,6.38,6.38,0,0,0-.4-2.06,8.47,8.47,0,0,1-.32-1.22,18,18,0,0,1-.12-4.24c0-.43.09-.85.13-1.27,1.14-.18,2.78-1,2.75-1.89a1.62,1.62,0,0,0-1.16-1.13A2.73,2.73,0,0,1,31,81.65c.15-.92.32-1.79.5-2.63a6.36,6.36,0,0,0,2.74-1.4c.29-.36.57-1.23.21-1.64s-1.36-.42-2-.56c.18-.57.38-1.13.59-1.67a8,8,0,0,1,1.25-2,14.52,14.52,0,0,0,.89-1.24,8,8,0,0,0,.58-1.25,9.59,9.59,0,0,1,.37-.89c1-1.83,1.67-3.31,2.29-4.62l.49-1,.1.17a19.11,19.11,0,0,1,2.46,7.94.51.51,0,0,0,.21.34.5.5,0,0,0,.41.08A24.46,24.46,0,0,1,46.36,71h.57c1.12,0,5.77-.08,5.77-.08a.54.54,0,0,0,.3-.1,2.61,2.61,0,0,0,.7-1,19.17,19.17,0,0,1,1.86-3.18A14.91,14.91,0,0,0,56.9,64.3c.11,1.9.21,4,.16,5.81-.19-1-.94-2-1.72-1.26-1,.88-1.06,4.57,1,3.35l.09-.26a1.07,1.07,0,0,0,.62-.71,1.62,1.62,0,0,1,0,.22,3.17,3.17,0,0,0,.66,2,4.14,4.14,0,0,1,.54,1.12,7.25,7.25,0,0,0,.69,1.66,5.66,5.66,0,0,1,.65,1.7,8.1,8.1,0,0,1,.06.84,6,6,0,0,0,.16,1.43c.08.29.15.68.22,1.08a12.47,12.47,0,0,0,.37,1.63,9.06,9.06,0,0,1,.36,3.58v.24a29.93,29.93,0,0,0-.14,3.34A8.31,8.31,0,0,1,59.42,94a10.56,10.56,0,0,1-1.53,2l-.54.61c-.18.21-.36.43-.53.66a10,10,0,0,1-1.14,1.27c-.27.25-.81.92-.87,1a.51.51,0,0,0-.1.36s.12,1.33.17,1.67.12.8.17,1.17a23.49,23.49,0,0,1,.37,4.75,11.13,11.13,0,0,0,.39,2.76c.1.45.2.89.26,1.3.23,1.54.38,2.71.5,3.92,0,.49.14,1,.23,1.57s.22,1.34.29,2.08c.11,1.17.17,2.46.25,4s.14,2.87.26,4.54c0,.68.14,1.4.22,2.13s.2,1.76.24,2.57l.12,2q.09,1.35.15,2.7a11.18,11.18,0,0,1-.06,1.36,6.38,6.38,0,0,0,.2,3,2.52,2.52,0,0,0,.76.92,4,4,0,0,1,1.37,2.27,27.73,27.73,0,0,1,.87,4c.12,1.17.33,2.28.53,3.34a25,25,0,0,1,.6,5c0,1.68.14,3.34.29,4.95.1,1.11.21,2.26.26,3.4.06,1.44.1,2.85.14,4.25s.08,3.1.15,4.7a60.67,60.67,0,0,1-1.12,12.75,41.49,41.49,0,0,1-2,7.8c-1.89,4.88-8.39,9.34-13.58,10.84-3.88,1.11-10.58,1.51-15.1.24a14.19,14.19,0,0,1-1.33-.57c-.4-.19-.77-.37-1-.46a.5.5,0,0,0-.64.29.52.52,0,0,0,.3.65c.23.08.58.25.94.42a10.86,10.86,0,0,0,1.49.63c4.86,1.37,11.69.89,15.65-.24,5.35-1.54,12.15-6.08,14.23-11.44a41.94,41.94,0,0,0,2.09-8,62,62,0,0,0,1.13-13c-.07-1.59-.11-3.13-.15-4.67s-.08-2.82-.14-4.28c-.05-1.16-.16-2.32-.26-3.44a48.57,48.57,0,0,1-.29-4.85A25.62,25.62,0,0,0,63,151.7c-.2-1-.41-2.13-.53-3.27a28.46,28.46,0,0,0-.9-4.16,5,5,0,0,0-1.68-2.75,1.63,1.63,0,0,1-.5-.57,5.73,5.73,0,0,1-.11-2.46,13,13,0,0,0,.06-1.49c0-.52-.06-1.05-.09-1.57a.76.76,0,0,0,.08-.11,2.15,2.15,0,0,1,.37-.72l.21-.33.17-.3a8.28,8.28,0,0,1,.61-1l.26-.33a6.86,6.86,0,0,0,.68-1,1.16,1.16,0,0,1,.27-.37.52.52,0,0,0,.18,0h0a9.56,9.56,0,0,0,3.8-.64A7.75,7.75,0,0,0,70,125.85a9.34,9.34,0,0,0-.13-5.76l2.29-2.92a7.54,7.54,0,0,1,2.12,0,8.44,8.44,0,0,0,2.3,0,37.91,37.91,0,0,1,4.39-.42,42.68,42.68,0,0,0,4.48-.43,22.51,22.51,0,0,0,9.28-4.11l.82-.58c1.12-.79,2.29-1.61,3.37-2.53.4-.35.82-.68,1.23-1a27.73,27.73,0,0,0,2.41-2.09c.85-.88,1.54-1.71,2.28-2.59l.46-.56c.57-.68,1.13-1.38,1.68-2.09s1.11-1.4,1.67-2.08a51.54,51.54,0,0,0,8.88-15c.27-.76.56-1.5.85-2.24a32.87,32.87,0,0,0,2-6.26c.22-1.25.48-2.49.74-3.74s.6-2.81.83-4.23a53.94,53.94,0,0,0,.56-6c0-.81.1-1.64.16-2.48.09-1.25.27-2.53.44-3.76s.31-2.32.41-3.49c.17-2,.19-4.19.2-6.28,0-.58,0-1.16,0-1.73a28.72,28.72,0,0,0-.55-4.93C122.92,37.39,122.72,36.26,122.65,35.2ZM61.57,90.06a21.87,21.87,0,0,1,.07-2.35,2.41,2.41,0,0,1,1.72.53l.09.06a3.82,3.82,0,0,0,2.26.91h.15a.49.49,0,0,0,.47-.52.5.5,0,0,0-.52-.48A2.8,2.8,0,0,1,64,87.49l-.09-.07a3.35,3.35,0,0,0-2.23-.71v-.14c0-.3,0-.58,0-.87a9.39,9.39,0,0,1,1.89.19,10.15,10.15,0,0,0,1.82.21,3.94,3.94,0,0,0,1.31-.2.5.5,0,0,0-.33-1,5.46,5.46,0,0,1-2.63,0,10.36,10.36,0,0,0-2.09-.21l-.06-.5h0c1-.5,1.85-1,2.81-1.54a1.11,1.11,0,0,1,.77-.16c.49,0,1,0,1.35-.92a.5.5,0,0,0-.29-.64.49.49,0,0,0-.64.28,1.08,1.08,0,0,1-.15.28,1.44,1.44,0,0,1-.21,0,2.08,2.08,0,0,0-1.34.3c-.86.52-1.63.94-2.5,1.38-.05-.19-.09-.39-.16-.58A15.15,15.15,0,0,1,61,81.11c-.07-.43-.15-.84-.23-1.15a5.34,5.34,0,0,1-.13-1.21c0-.32,0-.63-.07-1a6.63,6.63,0,0,0-.75-2,6.69,6.69,0,0,1-.61-1.45,4.86,4.86,0,0,0-.67-1.41,2.25,2.25,0,0,1-.5-1.41,54.3,54.3,0,0,0-.08-6.6.48.48,0,0,0,.35-.35c.14-.51.28-1.12.43-1.84a66.48,66.48,0,0,1,6.09-17,94.83,94.83,0,0,1,5-8.7,43,43,0,0,1,4.85-5.7c.47-.49.92-1,1.34-1.42,3-3.22,6.56-6.83,10.77-8.77a4,4,0,0,1,1.07-.28,6.82,6.82,0,0,0,1.07-.25l.89-.34a11.4,11.4,0,0,1,2-.64c4.56-.95,11.19-.57,15,2.51a4.8,4.8,0,0,1,1.24,1.47c.64,1.05,1.36,2.09,2.11,3.15a21.66,21.66,0,0,1,3.49,6.8,27.17,27.17,0,0,1,.72,5.38,86.83,86.83,0,0,1-1.54,19.67c-.41,2.37-.8,4.57-1.18,6.74l-.06.33a6.67,6.67,0,0,1-.25.89,6.83,6.83,0,0,0-.33,1.24,26.78,26.78,0,0,1-3.13,9.43c-.51,1-.95,2.07-1.37,3.11-.33.81-.68,1.65-1.06,2.46s-.77,1.58-1.2,2.38c-1-1.41-3.2-4.12-4.21-5.4l-.45-.58A2,2,0,0,1,99,77.93c0-.45-.06-.89-.09-1.33-.06-.76-.12-1.54-.13-2.41A8.71,8.71,0,0,0,98,70.52l-.26-.62a20.12,20.12,0,0,1-1.12-3c0-.13-.05-.25-.07-.37a2.08,2.08,0,0,0-.64-1.38c-.61-.53-.61-.59-.59-1.26v-.17a17.05,17.05,0,0,0-.11-2.3c0-.54-.1-1.07-.11-1.64a27.82,27.82,0,0,0-1.09-6.16L93.9,53a3.42,3.42,0,0,0-.36-.8,2.67,2.67,0,0,1-.21-.41.52.52,0,0,0-.41-.32.48.48,0,0,0-.47.22c-.84,1.23-2,2.92-2.77,4.37-.2.38-.44.77-.68,1.16s-.37.6-.53.89a6.46,6.46,0,0,1-.59.82,7.33,7.33,0,0,0-.55.75,13.3,13.3,0,0,0-3.71-.52A9.87,9.87,0,0,0,79.2,60c-.16-.31-.3-.65-.44-1s-.25-.6-.39-.87a2.21,2.21,0,0,0-.36-.49,1.31,1.31,0,0,1-.21-.25c0-.09,0-.18-.06-.26a2.86,2.86,0,0,0-.29-.81,1.56,1.56,0,0,0-.53-.53l-.19-.15a.84.84,0,0,1-.19-.39,2.69,2.69,0,0,0-.23-.52,2.11,2.11,0,0,0-1.84-1.27A.48.48,0,0,0,74,54c0,1.08-.25,2.73-.41,3.94l-.07.53a30.34,30.34,0,0,0-.35,4.41,6.93,6.93,0,0,1-.63,2.54c-.16.41-.32.83-.46,1.29a18.92,18.92,0,0,0-.63,5.39v.79a16.48,16.48,0,0,0,.4,4.43,4.13,4.13,0,0,0,.65,1.3l.34.53a13.86,13.86,0,0,1,.84,1.78l.12.3a5,5,0,0,1,.13,2.1,15.35,15.35,0,0,0-.78,2.57c-.08.35-.16.71-.27,1.1-.17.64-.36,1.26-.54,1.87a23,23,0,0,0-1,4.26c-.09.83-.2,1.68-.31,2.56a80.9,80.9,0,0,0-.85,11.09,12.27,12.27,0,0,1-5-3.71,41.83,41.83,0,0,1-3.58-4.6l-1.12-1.6a3.1,3.1,0,0,1-.21-.36,3.41,3.41,0,0,0-.64-1,9.27,9.27,0,0,0,.68-1.06A9.52,9.52,0,0,0,61.57,90.06Zm40.06-.63a6.16,6.16,0,0,0-1.49-.53,1.54,1.54,0,0,0-1.81,1.63c0,.92.23,1.81.27,2.72a58.74,58.74,0,0,1-4.47,5.36,28.07,28.07,0,0,1-15.66,8.48,20.13,20.13,0,0,1-6,.15,9.37,9.37,0,0,1-1.37-.21A80.19,80.19,0,0,1,72,95.78c0-.22.05-.43.08-.65h.09a1.07,1.07,0,0,0,.77-.53,2,2,0,0,0,0-.81c0-.68.37-1.34.2-2-.09-.35-.28-.45-.52-.45.18-.72.39-1.43.61-2.16s.38-1.26.56-1.92c.1-.39.19-.76.28-1.12a14.08,14.08,0,0,1,.75-2.47.65.65,0,0,0,0-.13,7.8,7.8,0,0,0,.06-1,2,2,0,0,0,.35,0c.7-.12,1.28-.38,1.43-1.11a2,2,0,0,0-.42-1.75,1.18,1.18,0,0,0-1.45-.3,1.12,1.12,0,0,0-.41.88,11.84,11.84,0,0,0-.78-1.63c-.14-.23-.27-.42-.38-.58a3.25,3.25,0,0,1-.51-1,15.82,15.82,0,0,1-.36-4.15v-.8A17.93,17.93,0,0,1,73,67c.13-.44.28-.83.43-1.22a8.12,8.12,0,0,0,.7-2.88,30.24,30.24,0,0,1,.34-4.3l.07-.52c.14-1,.32-2.37.39-3.44a2.05,2.05,0,0,1,.54.66,1.69,1.69,0,0,1,.13.31,1.81,1.81,0,0,0,.4.74,1.93,1.93,0,0,0,.36.31.68.68,0,0,1,.23.2,1.66,1.66,0,0,1,.18.53c0,.12,0,.24.09.36a1.82,1.82,0,0,0,.41.61c.08.09.18.2.22.26.12.26.24.54.36.82a10.91,10.91,0,0,0,.63,1.34.48.48,0,0,0,.3.24A.61.61,0,0,0,79,61v0a.91.91,0,0,0,.46,0,8.78,8.78,0,0,1,4.11-.78,13.09,13.09,0,0,1,3.82.59.5.5,0,0,0,.57-.25,5.45,5.45,0,0,1,.65-.94,6.54,6.54,0,0,0,.67-1c.16-.28.34-.56.52-.85s.5-.82.71-1.21c.62-1.16,1.5-2.49,2.25-3.6,0,.11.1.22.13.31l.14.57a26.86,26.86,0,0,1,1.06,5.93c0,.59.06,1.15.11,1.71a17.59,17.59,0,0,1,.11,2.18v.16a2,2,0,0,0,.91,2,1.17,1.17,0,0,1,.33.8c0,.13.05.28.08.43a19.26,19.26,0,0,0,1.17,3.17l.26.62c.13.31.23.59.32.86a1,1,0,0,0-1.06.91,4.14,4.14,0,0,0,.24,1.14.64.64,0,0,0,.75.48.76.76,0,0,0,.38-.14s0,0,0,0c0,.9.08,1.69.13,2.47,0,.43.07.86.09,1.31a3,3,0,0,0,.06.43,1.3,1.3,0,0,0-1.35.83,1.74,1.74,0,0,0,.3,1.8c.39.4,1,.25,1.47.36a1.22,1.22,0,0,0,1.24-.32c1.21,1.52,3.16,4,3.9,5C103,87.2,102.33,88.3,101.63,89.43Zm-44,8.48.51-.63.53-.59c.11-.14.23-.27.34-.4a3.38,3.38,0,0,1,.39.63,3.2,3.2,0,0,0,.29.51c.39.54.76,1.07,1.11,1.58a43.21,43.21,0,0,0,3.66,4.71c1.69,1.82,3.35,3.39,5.88,4.12a.52.52,0,0,0,.31.12h.07a11.08,11.08,0,0,0,1.71.29c1,.08,1.94.15,2.94.15a16.23,16.23,0,0,0,3.33-.32,29,29,0,0,0,16.19-8.79,54.71,54.71,0,0,0,4.77-5.74,10.73,10.73,0,0,1,1-1.16,11,11,0,0,0,1.24-1.48,66.52,66.52,0,0,0,4.33-7.72c.39-.83.74-1.68,1.07-2.51.44-1.06.85-2.06,1.34-3a27.63,27.63,0,0,0,3.24-9.76,4.74,4.74,0,0,1,.28-1,8.7,8.7,0,0,0,.29-1l.06-.34c.38-2.17.76-4.37,1.17-6.74a87.77,87.77,0,0,0,1.56-19.9,27.81,27.81,0,0,0-.76-5.57,22.33,22.33,0,0,0-3.64-7.13c-.76-1.08-1.44-2.06-2.06-3.09a5.83,5.83,0,0,0-1.47-1.72c-4-3.29-11-3.72-15.82-2.72a13,13,0,0,0-2.11.69l-.85.32a4.8,4.8,0,0,1-.91.21,5.57,5.57,0,0,0-1.32.36c-4.37,2-8,5.71-11.08,9l-1.33,1.41a43.36,43.36,0,0,0-5,5.84,96.83,96.83,0,0,0-5,8.79,66.66,66.66,0,0,0-6.15,17.22.48.48,0,0,0-.36-.39.52.52,0,0,0-.55.22c-.4.67-.62,1.13-.82,1.53A13.64,13.64,0,0,1,54.74,66a21.24,21.24,0,0,0-2,3.34,3.28,3.28,0,0,1-.31.56h-.54a31.59,31.59,0,0,1,.52-3.31c.16-.82.32-1.67.44-2.53a37.7,37.7,0,0,1,1.23-6.34c.43-1.44,1-2.85,1.58-4.21.37-.91.75-1.82,1.09-2.76a22.88,22.88,0,0,1,2.53-4.69A20.24,20.24,0,0,0,61,43.24a36.78,36.78,0,0,1,3.91-6.53A51.46,51.46,0,0,0,68,31.81a7.47,7.47,0,0,1,1.64-2,10.64,10.64,0,0,0,1.63-1.85,39.15,39.15,0,0,1,2.82-3.33c.51-.56,1-1.09,1.41-1.58a17.64,17.64,0,0,1,3.59-3.29c.47-.32,1-.67,1.43-1s.82-.61,1.23-.9c2.61-1.8,7.85-4.91,13.69-5.47a24.18,24.18,0,0,1,9.21,1.07c2.36.72,4.91,2.74,6.63,4.19a22.38,22.38,0,0,1,4.24,4.82,8.15,8.15,0,0,1,.94,2.07c.13.4.27.82.48,1.31s.33.76.51,1.17a26.84,26.84,0,0,1,1.66,4.51,40.9,40.9,0,0,1,.9,8.34A226.28,226.28,0,0,1,117.9,69a34.2,34.2,0,0,1-1.58,6.61c-.12.38-.24.76-.36,1.16a7.14,7.14,0,0,0-.27,1.67,5.59,5.59,0,0,1-.31,1.63,63.09,63.09,0,0,1-5.06,10.1A70.43,70.43,0,0,1,103,100.47c-3.78,4.25-9.53,9.62-14.37,11.93a22.75,22.75,0,0,1-3.87,1.14c-4.89,1-13.36.47-13.44.46a.49.49,0,0,0-.41.17c-.1.11-2.22,2.46-3.12,3.7a2.14,2.14,0,0,0-2.37.36,2.27,2.27,0,0,0-.59,1.31,2.16,2.16,0,0,0-1.87.67,1.86,1.86,0,0,0-.52,2.13,1.77,1.77,0,0,0-1.15,1,6.13,6.13,0,0,0-.27,2.95,11.42,11.42,0,0,0-.92,1.38c-.19.32-.38.64-.59.93s-.29.38-.44.58l-.26.34c-.07-.65-.15-1.31-.19-1.91-.12-1.66-.2-3.16-.27-4.52-.07-1.51-.14-2.81-.24-4l0-.19.08-.06c1-1.32,2.12-2.94,3.07-4.27l.2-.28c.36-.5.7-1,1-1.52s.76-1.43.77-1.46a.5.5,0,0,0,0-.49,15.11,15.11,0,0,0-1.42-1.71l-.64-.71c-.51-.6-1.09-1.3-1.51-1.89s-.57-.79-.76-1.08l-.62-.88c-.21-.3-1-2.13-1.55-3.35-.24-.57-.47-1.09-.65-1.48a3.31,3.31,0,0,1,.33-.36A10.9,10.9,0,0,0,57.6,97.91Zm-.54,13.5c-.07-.43-.17-.89-.28-1.36a10.56,10.56,0,0,1-.36-2.52A24.32,24.32,0,0,0,56,102.6L56,102a31,31,0,0,0,1.46,3.1c.26.34.42.59.6.85l.77,1.11c.45.61,1,1.33,1.57,2l.66.74a15.23,15.23,0,0,1,1.16,1.35c-.14.28-.38.75-.6,1.12a17.43,17.43,0,0,1-1,1.45l-.2.28c-.78,1.09-1.68,2.36-2.52,3.51l-.09-.56c-.09-.54-.18-1-.22-1.51C57.45,114.16,57.3,113,57.06,111.41Zm3.69,19.83a6.16,6.16,0,0,1-.59.81l-.28.35a11.4,11.4,0,0,0-.68,1.08l-.06.11c0-.44,0-.88-.08-1.31S59,131.45,59,131a0,0,0,0,1,0,0,7.5,7.5,0,0,1,.87-1.26l.47-.63c.22-.31.42-.65.63-1s.29-.49.45-.73a2.91,2.91,0,0,1,.17,1.32v1.66A1.71,1.71,0,0,0,60.75,131.24ZM69,125.52a7.56,7.56,0,0,1-2.34,3.56,3.07,3.07,0,0,1-.13-.37c-.13-.33-.24-.27-.48-.49s-.17-.43-.33-.61-.39-.16-.65-.23c-.51-.13-.78-.24-.94.44a5.58,5.58,0,0,0,0,.71,2.63,2.63,0,0,1-.32.86c-.11.25-.12.61-.21.9-.34,0-.68.07-1.06.09v-1.63a3.51,3.51,0,0,0-.35-2,4.85,4.85,0,0,1-.05-3.06.77.77,0,0,1,.76-.46l.28,0a.52.52,0,0,0,.51-.24.51.51,0,0,0,0-.57c-.6-.76-.46-1.16,0-1.58.59-.58.94-.42,1.56-.32a.47.47,0,0,0,.41-.12.5.5,0,0,0,.18-.39,1.58,1.58,0,0,1,.33-1.16c.33-.34.9-.34,1.54,0a2.7,2.7,0,0,1,1.17,1.38c-.7.25-1.21.6-1,1.58.14.73.51.5,1.06.74a1.69,1.69,0,0,1,.49.35A7.71,7.71,0,0,1,69,125.52Zm53.63-80.26c0,2.07,0,4.21-.2,6.2-.09,1.14-.25,2.31-.41,3.43s-.34,2.54-.44,3.83c-.06.84-.11,1.67-.15,2.5a56.77,56.77,0,0,1-.55,5.9c-.24,1.39-.54,2.81-.83,4.19s-.53,2.51-.75,3.77a30.75,30.75,0,0,1-1.91,6.07c-.29.75-.58,1.5-.86,2.26a50.05,50.05,0,0,1-8.7,14.67c-.57.69-1.12,1.39-1.68,2.1s-1.11,1.4-1.67,2.07l-.46.56c-.72.87-1.4,1.68-2.23,2.53a23.55,23.55,0,0,1-2.32,2c-.42.34-.84.68-1.25,1-1,.89-2.19,1.7-3.3,2.48l-.82.58a21.39,21.39,0,0,1-8.87,3.93,39.65,39.65,0,0,1-4.37.42,43.05,43.05,0,0,0-4.5.43,7.72,7.72,0,0,1-2,0,7.27,7.27,0,0,0-2.63,0,.5.5,0,0,0-.27.18l-2.12,2.7a3.34,3.34,0,0,0-.7-.75c.76-1,2.33-2.79,2.83-3.35,1.46.08,8.86.44,13.47-.5A23.41,23.41,0,0,0,89,113.3c6.26-3,12.82-10.07,14.69-12.17a71.49,71.49,0,0,0,7.45-10.42,64.68,64.68,0,0,0,5.14-10.26,6.33,6.33,0,0,0,.36-1.91,6.36,6.36,0,0,1,.24-1.46l.36-1.15a35.87,35.87,0,0,0,1.61-6.78A231,231,0,0,0,121,39.8a42.15,42.15,0,0,0-.92-8.54,28.06,28.06,0,0,0-1.73-4.7l-.44-1a23.11,23.11,0,0,1,1.69,2.56,17,17,0,0,1,2,7.18c.08,1.1.29,2.31.48,3.48a27.34,27.34,0,0,1,.54,4.76C122.66,44.09,122.66,44.67,122.66,45.26Z"/><path d="M40.88,163.21a12.27,12.27,0,0,0-2.71,6.44,10,10,0,0,0,.19,3.35.49.49,0,0,0,.49.41h.09a.51.51,0,0,0,.41-.58,9.31,9.31,0,0,1-.19-3.09,11.3,11.3,0,0,1,2.52-5.94c.14-.18.27-.38.41-.59.48-.71,1-1.44,1.64-1.66a10,10,0,0,1,2.78-.33l.94,0a.5.5,0,0,0,.47-.53.5.5,0,0,0-.53-.47l-.91,0a10.79,10.79,0,0,0-3.06.38,4.59,4.59,0,0,0-2.16,2.06C41.13,162.85,41,163,40.88,163.21Z"/><path d="M79.32,81.31A7,7,0,0,0,83,83a7.2,7.2,0,0,0,1,.08,6,6,0,0,0,5.44-2.9,8.76,8.76,0,0,0,1.06-3.63.38.38,0,0,0-.35-.39.37.37,0,0,0-.4.35,8.12,8.12,0,0,1-1,3.32c-1.09,2.08-3.66,2.72-5.72,2.43a6.31,6.31,0,0,1-3.32-1.47,17.93,17.93,0,0,1-2.12-2.46c-.3-.39-.59-.79-.9-1.16a.37.37,0,1,0-.58.47c.3.37.59.76.89,1.15A18.45,18.45,0,0,0,79.32,81.31Z"/><path d="M81.32,73.44c.09.52.61.83,1,1.08a3.58,3.58,0,0,1,.38.25s.06.06.09.09a3.72,3.72,0,0,1,0,.48c0,.12,0,.24,0,.34v.7a.78.78,0,0,0-.14,0,2.49,2.49,0,0,0-1,.6,1.34,1.34,0,0,1-.75.42.5.5,0,0,0-.47.53.51.51,0,0,0,.5.47h0a1.78,1.78,0,0,0,.83-.28v.08c0,.84-.08,2,.77,2.58a1.5,1.5,0,0,0,.87.3,1.44,1.44,0,0,0,.5-.1A2.06,2.06,0,0,0,85,79.49c.07-.41.15-.86.18-1.29a3.2,3.2,0,0,0,.92.18.5.5,0,1,0,0-1,1.64,1.64,0,0,1-1-.3,3.17,3.17,0,0,0-1.61-.72v-.68c0-.08,0-.18,0-.3s0-.46,0-.65l.47-.55.13-.14c.22-.25.65-.71.42-1.25s-.92-.58-1.18-.58h-.35l-.36,0a1.39,1.39,0,0,0-1.15.47A1,1,0,0,0,81.32,73.44ZM84,79.32a1.11,1.11,0,0,1-.49.76s-.17.07-.41-.1c-.4-.27-.37-1-.34-1.72a5.57,5.57,0,0,0,0-.81v0a.84.84,0,0,1,.14-.06,1.6,1.6,0,0,1,1.27.25h0A8.74,8.74,0,0,1,84,79.32Zm-1.3-6.13h.86a1,1,0,0,1-.13.15l-.17.19-.2.23-.2-.12a2.43,2.43,0,0,1-.53-.38A.58.58,0,0,1,82.69,73.19Z"/><path d="M85.65,66.54a.44.44,0,0,0,.22-.07c.3-.22.6-.46.9-.7s.66-.53,1-.77a.37.37,0,1,0-.42-.61c-.35.24-.7.52-1,.79s-.57.47-.87.68a.38.38,0,0,0,.22.68Z"/><path d="M79.53,66.57a5.71,5.71,0,0,1,.92.49.33.33,0,0,0,.21.07A.4.4,0,0,0,81,67a.37.37,0,0,0-.09-.52,6.15,6.15,0,0,0-1-.56,4.45,4.45,0,0,1-1.07-.61.38.38,0,0,0-.49.57A4.93,4.93,0,0,0,79.53,66.57Z"/><path d="M85.42,71.26l.85.07h.1c.32,0,.59-.28.85-.54l.18-.17c.14-.11.31-.22.47-.33A5,5,0,0,0,89,69.4,3.85,3.85,0,0,0,89.56,68q0-.19.09-.36a.4.4,0,0,0-.09-.33.41.41,0,0,0-.33-.15,2.72,2.72,0,0,0-1.06.27l-.24.1a4.82,4.82,0,0,0-1.14.68l-.06,0a.45.45,0,0,0-.18.18,3.19,3.19,0,0,0-.47.51l-.12.17a2.84,2.84,0,0,0-.48.88,3,3,0,0,1-.32.72.37.37,0,0,0,.26.6Zm2.79-3.06.25-.11.32-.12a2.59,2.59,0,0,1-.38,1,1.48,1.48,0,0,1-.28.28l0,0a3,3,0,0,1-.58-.61A3.56,3.56,0,0,1,88.21,68.2Zm-2,1.91a2.35,2.35,0,0,1,.35-.61l.13-.17.07-.08a3.82,3.82,0,0,0,.52.54L87,70a2.51,2.51,0,0,0-.26.24,3.39,3.39,0,0,1-.35.32l-.29,0C86.11,70.42,86.16,70.26,86.21,70.11Z"/><path d="M76.46,67.7a.39.39,0,0,0,0,.39,8.17,8.17,0,0,0,1.44,1.76,2.86,2.86,0,0,0,2,1H80l.42,0a5.36,5.36,0,0,1,.7,0h.16a.37.37,0,0,0,.37-.23.39.39,0,0,0-.11-.43,3.91,3.91,0,0,0-.41-.3,3.28,3.28,0,0,1-.49-.4c-.15-.15-.28-.31-.42-.46L80,68.62a1.22,1.22,0,0,0-.17-.15h0a.48.48,0,0,0-.16-.13,3.28,3.28,0,0,0-1.15-.45,3.48,3.48,0,0,1-.71-.23.31.31,0,0,0-.13,0l-.85-.09A.38.38,0,0,0,76.46,67.7Zm3.68,2.24a1.07,1.07,0,0,0,.16.14,1.73,1.73,0,0,1-.32,0h-.1a1.34,1.34,0,0,1-.39-.07s0-.1,0-.17v-.1a2.26,2.26,0,0,1,.06-.3,1.27,1.27,0,0,1,0-.14l.07.09Q79.9,69.68,80.14,69.94Zm-1.82-1.33a4.49,4.49,0,0,1,.47.13,2.5,2.5,0,0,0-.19.52l0,.2-.16-.14a9.79,9.79,0,0,1-.87-1A4.42,4.42,0,0,0,78.32,68.61Z"/><path d="M75.28,62.88a2.83,2.83,0,0,0,1.9-.86c.15-.31,0-.69,0-1s.22-.88.06-1.18-.61-.3-.88-.46a3.26,3.26,0,0,0-1-.56l-.57.25C74.86,59.82,74,62.82,75.28,62.88Z"/><path d="M90.6,61.64c.49.33,1.51.55,1.69-.22l-.06-2.06c0-.38-.13-1.2-.49-1.41-.63-.37-.85.46-1.1.82C90,59.69,89.37,60.83,90.6,61.64Z"/><path d="M91.14,64.15c-.45.41-.33.66-.11,1.12s.15,1,.43,1.4c.2-.54,1.09-.23,1.52-.32a3,3,0,0,0,1.31-.67L94.23,65c.12-.27-.06-.83-.07-1.18-.54,0-1.07.07-1.6.07S91.57,63.75,91.14,64.15Z"/><path d="M81.48,64.74l.37-.25c0-.79.45-2.48-.82-2.43-1.07,0-1.2,1.5-.72,2.22A.94.94,0,0,0,81.48,64.74Z"/><path d="M84.17,63.61a1.51,1.51,0,0,0,.67-.07c.1-.5.25-1.33-.46-1.44s-.89,1.14-.46,1.58Z"/><path d="M87.64,63.15c.09-.15-.07-.34,0-.49s.22-.35.23-.49c0-.35-.2-.58-.6-.37l-.63.75C85.8,63,87.24,63.82,87.64,63.15Z"/><path d="M74.72,68.28c.25,0,.19-.35.2-.51s.08-.43,0-.54-.21-.09-.27-.19,0-.15-.06-.25,0-.4,0-.6c-.2.07-.44,0-.63.06a.84.84,0,0,0-.32.4c-.1.21-.27.91-.65.69l0,.9c-.07.3.22.27.4.26.42,0,.14.14.36.43s.64.14.84-.08S74.66,68.48,74.72,68.28Z"/><path d="M93.08,68.33l-.41.23a.85.85,0,0,1-.3.39c-.16.09-.39.07-.51.21,1.31.19.14,2.79,1.79,2.59a1.12,1.12,0,0,0,1-1.23,5,5,0,0,0-.16-1.86C94.23,68,93.61,68,93.08,68.33Z"/><path d="M89,73.38c.27.55.6.57,1.14.52l.31-.2c.53-.3.2-.59.1-1s.09-1-.45-.9a2.13,2.13,0,0,0-.86.41A.93.93,0,0,0,89,73.38Z"/><path d="M77.07,74.84a3,3,0,0,0,.34-.88c.06-.52.34-1.42-.5-1.5a4.77,4.77,0,0,1-1-.11,2.58,2.58,0,0,0-1-.19l-.46.11a2.18,2.18,0,0,1-.16,1.16.93.93,0,0,0,.07.85,1.05,1.05,0,0,0,.65.46,6.27,6.27,0,0,0,1.28.3C76.55,75.07,76.93,75.14,77.07,74.84Z"/><path d="M94,75.48a1.54,1.54,0,0,0-1.06.68l-.06.55c-.09.47-.32,1.25.14,1.61A1,1,0,0,0,94.4,78,3.71,3.71,0,0,0,95,76C94.93,75.44,94.45,75.42,94,75.48Z"/><path d="M92,83.09l0-.49a.85.85,0,0,1,.26-.8c.16-.17.49-.39.37-.67-.2-.49-1.23-.3-1.57-.11a14.31,14.31,0,0,0-1.62,1.51c-.36.65.35,1.27.94,1.39A1.75,1.75,0,0,0,92,83.09Z"/><path d="M97,83.33c-.42-.18-.73.16-1.12-.2-.13-.12-.23-.3-.43-.22s-.39.63-.48.85l-.29,0c-.47-.07-1.13-.06-1.25.53-.08.4.23.85.29,1.25.12.75.4,2.19,1.44,2.13.54,0,1-.49,1.42-.74s.9-.42,1-.95a5.75,5.75,0,0,0-.15-1.23C97.41,84.34,97.5,83.55,97,83.33Z"/><path d="M87.81,86.51a4.77,4.77,0,0,1-2.8-.23l-.52,0a4,4,0,0,0-.16,1.67c.14.45.45.77.55,1.24s.33.68.8.9.77.58,1.19.54.62-.6.95-.89,1-.41,1.31-.94a2.13,2.13,0,0,0,0-1.57A1.06,1.06,0,0,0,87.81,86.51Z"/><path d="M75.68,88.09c.36.14.33.49.61.7.63.49,1.87-.44,2.37-.83s.83-1.75.09-2l-1.39,0c-.41-.49-.79-1.6-1.56-1a2.4,2.4,0,0,0-.93,2.47C75,87.86,75.24,87.93,75.68,88.09Z"/><path d="M95.06,91.39c-.45.06-.84.38-1.3.43a2.62,2.62,0,0,0-1.21.24c-.35.25-.45.68-.73,1a3.3,3.3,0,0,1-1,.61l-.2-.06c.14.5.28,1,.37,1.52a5.31,5.31,0,0,0,.13.89c.15.44.79.41,1.18.39a2.71,2.71,0,0,0,1.46-.68c.48-.35,1.18-.54,1.57-1s.33-1.46.3-2.09C95.63,92.22,95.68,91.31,95.06,91.39Z"/><path d="M80.7,92.84a2.91,2.91,0,0,1-1.21-.45,1.36,1.36,0,0,0-1.12-.29,1.69,1.69,0,0,0-.79.89,1.86,1.86,0,0,0-.28,1.37,5.87,5.87,0,0,0,1.51,2.19h-.15a2.58,2.58,0,0,0,3-1.1,6.21,6.21,0,0,0,.22-1.23c.06-.32.24-.82,0-1.11S81.05,92.88,80.7,92.84Z"/><path d="M87.23,98.91c-.19-.1-.22-.3-.36-.43a.71.71,0,0,0-.63-.1c-.06.15,0,.33,0,.46s-.36.18-.57.2-.39.12-.52.07-.13-.27-.25-.33l-.6,0c-.15.06-.12.3-.15.43a.72.72,0,0,1-.4.47c-.13.06-.4.11-.44.2l-.4.26a4.5,4.5,0,0,1,0,1.16,3.24,3.24,0,0,0-.15.87c.06.48.76.53,1.14.56s1-.18,1.5-.08.48.5.89.59a2.21,2.21,0,0,0,2.53-1.39c.18-.9-.46-1.6-.58-2.43C88.09,98.81,87.65,99.13,87.23,98.91Z"/><path d="M77.41,100.5c-.2,0-.31,0-.42-.12s-.09-.43-.35-.59-.53-.1-.81-.13-.37-.19-.55-.36c-.39-.37-1.26-.82-1.73-.34-.28.28-.36.74-.63,1.05a.05.05,0,0,0,0,0l-.18.61c-.09.69-.43,1.94.09,2.54a2.78,2.78,0,0,0,1.57.93c.59,0,.81-.63,1.35-.73s1.07.2,1.47-.19.19-1.13.49-1.62c.13-.22.38-.46.32-.74S77.66,100.51,77.41,100.5Z"/><path d="M40.08,66.07c-1.43-.8-2.79,1.84-2.18,3,.32.59.63.52,1.2.49.39,0,1.23.11,1.48-.21.35-.48-.18-2.09-.33-2.58Z"/><path d="M37.9,74.9a1.61,1.61,0,0,0,2-.13c1.88-1.71-2-2.93-2.92-3.42-1.15-.58-1.61.25-.9,1.27l-.43.78C36.35,74,37.17,74.41,37.9,74.9Z"/><path d="M49.31,76c-.27-.23-.81-.19-1.15-.48S47.8,75,47.27,75a1.3,1.3,0,0,0-1.15.86l-.18,1.12a1.49,1.49,0,0,0-.47,1.66c.43.69,2,.82,2.68,1.33s1.22,1,1.78,0c.42-.7.62-1.91,1.59-2.06-.12-.91-1.5-.36-2.11-.61C49.38,76.81,49.77,76.42,49.31,76Z"/><path d="M41.89,82.13c-.26-.28-.09-.45-.51-.59-.25-.09-.7.06-1,0l-.67-.17c-.54-.13-1.14-.85-1.68-.79-.9.1-.15.68-.33,1.18s-1.31.5-1.07,1.3c.1.34.41.25.59.45s.19.37.32.7a2.49,2.49,0,0,0,1.32,1.37c.68.39,1.16.19,1.86.13,1-.07.68-.25,1.1-1.09.28-.55.89-.67,1-1.34C43,82.45,42.33,82.61,41.89,82.13Z"/><path d="M45.8,86.5c.71.36,1.53-.49,2.14.11.57-.21.33-.78.59-1.18s.81-.7,0-.93c-.25-.07-.47,0-.71-.15s-.19-.32-.53-.4a7.51,7.51,0,0,0-1.5,0l-.43.25C45.37,84.83,45.15,86.18,45.8,86.5Z"/><path d="M54.21,84.73a1.07,1.07,0,0,1,.26.87c0,.53-.22,1.82.8,1.46,0,.23.27.55.55.51s.33-.47.59-.58c.46-.2,1.78.55,2-.28.08-.35-.44-.62-.43-1s.31-.65.36-1c.11-.67.06-1.43-.79-1-.47.22-.45.29-1,.18-.33-.07-.52-.17-.84,0l-.61.43c-.43.22-.47-.44-1.1-.36C53.88,84.37,54,84.45,54.21,84.73Z"/><path d="M67,123.55c-.5.06-1.34-.24-1.29.48-.4.09-1-.15-1.22.26s.22,1,.36,1.35c.25.7.42.75,1.13.75a1.8,1.8,0,0,0,1.18-.24,3.23,3.23,0,0,0,.72-.88l.3-.69c0-.27,0-.93-.25-1.1S67.27,123.53,67,123.55Z"/><path d="M34.85,87.28a1.21,1.21,0,0,0-.84.11,4,4,0,0,1-.95.15c-.44.08-.37.29-.3.62l.1.69c0,.59,0,1.06.65,1.23a1.9,1.9,0,0,0,1.68-.2.92.92,0,0,1,.77-.15c.22,0,.57.1.63-.21s-.41-.82-.49-1.06a.94.94,0,0,1,.15-1.08A5.93,5.93,0,0,0,34.85,87.28Z"/><path d="M42.12,89.64a13.56,13.56,0,0,1-1.82-.83c0,.25,0,.48,0,.73s.1.27,0,.4-.13.07-.2.18-.24.17-.23.5a3.44,3.44,0,0,1,.08.78c-.35.08-.11.44-.07.66a1.08,1.08,0,0,1-.22.88l.35.19a1.6,1.6,0,0,0,1,0,.7.7,0,0,1,.79-.59c.38.08.52.52.89.62,1,.26,1.11-.65,1-1.33a1.75,1.75,0,0,1,.08-1c.12-.26.52-.64.36-1C43.88,89.41,42.58,89.77,42.12,89.64Z"/><path d="M52.48,89.54c-.28,0-.55.14-.85.15s-.74-.14-1.09,0c0,.41.19.53-.41.66-.3.06-.66-.1-.84.19s0,.75,0,1-.09.66-.14,1c.47.12,1.27,0,1.65.36.22.19.15.41.52.44s.51-.17.75-.2c.44-.06.77,0,1-.46a1.43,1.43,0,0,0,0-1.11l.25-1.19A.77.77,0,0,0,52.48,89.54Z"/><path d="M57.35,94.37a3.9,3.9,0,0,0,.53-1.22c.22-1-.88-1.1-1.54-1.3l-.44.2a9.87,9.87,0,0,0,.38,1.49c0,.35-.05.66,0,1C56.6,94.57,57.09,94.65,57.35,94.37Z"/><path d="M32.22,98.67c-.31.61.15,1.72.16,2.34v.2c-.09.94,1.92.4,2.31.17.59-.35.55-1.07,1.08-1.51s1-.71.79-1.49c-.23-.63-.43-1-1.15-1s-1.69.08-2.53.11a2.58,2.58,0,0,1-.22.68C32.5,98.44,32.34,98.44,32.22,98.67Z"/><path d="M44,97.75c-.35-.39-.9,0-1.24-.18s-.17-.61-.68-.5l-.49.15c.12.5-.19.41-.5.6s-.36.62-.34,1c0,.62.37,1.77,1.15,1.41.52-.23.4-.36,1-.18a1.11,1.11,0,0,0,1.17-.4c.37-.38.13-.56.06-1S44.18,98,44,97.75Z"/><path d="M47.91,102.5c.39.25.8.24,1.17.56a1.8,1.8,0,0,0,1.58.45c.37,0,1.23.17,1.51-.1a3.4,3.4,0,0,0,.44-1.47c0-.49-.53-.76-.72-1.19s-.12-.91-.66-1.13-1.16-.3-1.73-.58a2.65,2.65,0,0,0-1.76-.34L47.1,99c0,.66-.36,2.51-.29,2.61A7.25,7.25,0,0,0,47.91,102.5Z"/><path d="M30.7,105.23c-.61,0-.92.37-1.06.92-.09.37-.05.39-.33.57s-.3,0-.44.36a6.2,6.2,0,0,0-.14.65c-.05.19-.23.45-.19.65s.33.26.46.49,0,.49,0,.69a1.74,1.74,0,0,1,.75,0c.19.06.24.22.4.3.41.22.53-.15.91-.12s.62.62,1.17.49c.18-.05.29-.2.45-.26s.34,0,.51,0c.57-.14.33-.54.34-1s.26-.49.36-.83c.06-.18,0-.38,0-.55s.2-.32.23-.48c.09-.53-.54-.51-.94-.58-.59-.11-.57-.46-1-.84a1.6,1.6,0,0,0-1.13-.4Z"/><path d="M39.72,104.94c-1.17-.08-.78.66-1.28,1.38-.14.2-.37.24-.49.45a.68.68,0,0,0,.27.91A4.79,4.79,0,0,0,40,108c.72,0,1.09-.84,1.88-.6a1.43,1.43,0,0,0,.21-1.33c-.07-.33,0-.69,0-1s-.66-.69-1-.43,0,1-.51.63c-.07-.07,0,0,.05,0Z"/><path d="M46.55,112c.22,0,.47-.08.67,0s.24.39.47.47,1-.35,1.36-.5c.63-.26.52-.54,1.17-.11.8.53.87-.12,1.45-.56.21-.16.45-.21.56-.46a4.17,4.17,0,0,0,.1-.8,8.82,8.82,0,0,0,.17-1.62c0-.88-1.48-.59-2.12-.5a15.46,15.46,0,0,1-2.24-.13c0-.42-.4-.28-.69-.28l-.45-.09c-.27,0-.54-.23-.78,0s-.19.67-.1.91a1.25,1.25,0,0,0,.23.46c.08.08.2.06.28.14s.27.45-.1.66c0,0,0,0,0,0C46.29,110.22,45.49,111.82,46.55,112Z"/><path d="M53.23,115.67c-.15.15-.17.37-.41.4-.1.47.84.64.23,1-.36.18-.83,0-1.19.06-.6.18.07.87-.44,1.32-.26-.11-.79-.08-.81.3s.66.47.88.69c.52.52-.1,1.31,1,1.19a4.07,4.07,0,0,0,1-.2c.46-.2.13-.44.29-.83s.57-.36.78-.66c.08-.12.07-.29.18-.4s.29-.1.38-.2c.24-.29-.14-1.73-.49-2l-.24-.49C54,115.59,53.74,115.17,53.23,115.67Z"/><path d="M36.7,116.74c-.12.16,0,.53,0,.7l.69.4c.05.41-.17.62.26.9a2.23,2.23,0,0,0,1,.33c.16,0,.17-.16.3-.18a3,3,0,0,1,.59.13c.54.06.67-.28,1.11-.49a.71.71,0,0,0,.65.49c.44,0,.18-.15.42-.35.47-.41,1.05.12,1.49.14,0-.42.07-1.57.4-1.82-.25-.51.2-.91.13-1.41s-.7-.13-1.18-.15c-.66,0-.49-.64-1.11-.84a3.39,3.39,0,0,0-.64-.07c-.29,0-.48-.29-.79-.12,0,.12.16.62.08.72-.24.3-.37-.19-.46-.31-.53-.74-1.37-.38-2,0s-.22.79-.39,1.42C37.19,116.66,36.91,116.43,36.7,116.74Z"/><path d="M27.23,114.87c-.47,0-.35.27-.64.46-.45.31-.36-.13-.42-.38-.1-.45-.4-.41-.85-.34s-.91.17-1.09.58-.05.46-.36.74c-.58.53-.44,1.31-.26,2l.05.55c.42.54.27,1,1.11.85s1.21-.32,1.81.27c.41.39,1,.84,1.62.48.43-.26.5-1.14.73-1.56s.5-.47.73-.76a1.4,1.4,0,0,0,.2-.85c-.34-.27-.82-.2-1.07-.58-.1-.15,0-.28-.19-.43s-.47-.16-.63-.36S27.82,114.87,27.23,114.87Z"/><path d="M22.14,123.89c-.66.49-.79,1.13-1.28,1.73s-.55,1.2.39,1.48a2.59,2.59,0,0,0,1,0,2.51,2.51,0,0,0,1.13-.11,5.68,5.68,0,0,0,1.21-.74c.32-.32.12-.58,0-.95-.38-.92-.73-1-1.67-1.05Z"/><path d="M34,122.49c-1.47-.73-2.64.11-3.51,1.35l-.54,1.38A11.69,11.69,0,0,1,29,127.4c-.34.92.5,1.66,1.26,2a5.24,5.24,0,0,0,2.29.37,4.84,4.84,0,0,0,2.92-.43c.7-.51.66-1.38.66-2.16s.1-1.31.1-2a2.44,2.44,0,0,0-.62-1.89A6.93,6.93,0,0,0,34,122.49Zm-.7,4.65c-.32-.11-.28-.25-.49-.46a4.8,4.8,0,0,0-.54-.32c-.59-.39-.68-.74-.29-1.28s.72-1.23,1.34-.68c.37.34.9.65,1,1.22l-.1.59C34.23,126.87,34.05,127.4,33.27,127.14Z"/><path d="M42.57,123.65l-.64,1.28a1.5,1.5,0,0,0-.39,1.17c.06.35.42.71.43,1.05s-1,.87-.63,1.4c.22.27.66.32.89.66s.43.95,1,1c.39,0,.72-.26,1.12-.18s.48.22.88.13a3.79,3.79,0,0,1,1.06-.17c.49,0,.71-.2.92-.67s.25-1.07.47-1.57.66-.9.88-1.41a1.39,1.39,0,0,0-.11-1.27,4.48,4.48,0,0,1-.15-1.26c-.05-.46-.32-.59-.65-.86s-.42-.61-.7-.82c-.45-.36-1.81-.15-2.34,0A3.37,3.37,0,0,0,42.57,123.65Zm3.89,1.67a6.67,6.67,0,0,1,.07.89c0,.25.19.63,0,.86s-.29.12-.52.2c-.4.12-.21.6-.52.7s-.66-.8-.88-1-.77-.19-1-.56.1-.49.31-.77a.79.79,0,0,0,.08-.91c-.15-.26-.43-.35-.13-.63s1.44.23,1.78.48Z"/><path d="M54.51,128.1l-.34-.34c-.22-.14-.38-.57-.56-.89-.69.19-1.1.43-1.19,1.17a2.21,2.21,0,0,1-.54,1.34,2.11,2.11,0,0,0-.53,1.48c0,.57.18.64.68.71s.61.34,1,.69.7.09,1.14,0,1-.16,1.35-.62a3,3,0,0,0,.63-2c0-.41.17-1.11-.21-1.39S54.94,128.19,54.51,128.1Z"/><path d="M22.85,140.18c.56.41,1.23-.29,1.75-.37.28,0,.59.12.86,0s.39-.52.45-.86,0-.63.38-.77.66,0,.95-.15c.61-.39.31-1.39.46-2a4,4,0,0,0,.14-2c-.13-.65.41-1.39.07-2s-1.43-.52-2.05-.7c-.81-.24-1.42-.54-2,.15s-1.59,1-1.83,1.78l-.94,1.62c-.57.64-.3,1.52.65,1.25a1.23,1.23,0,0,1,0,.43c-.09.15-.39.12-.45.23-.17.28.11.49.32.63.49.33.44.23.57.78s.27.37.74.38C22.92,139.06,22.48,139.9,22.85,140.18ZM26,135.37l.24.49c.09.42.09.81-.35,1s-1-.12-1.33-.47a2.76,2.76,0,0,1-.69-1.32C23.85,134.15,25.63,135.11,26,135.37Z"/><path d="M16.39,140.33c0,.84.67.65,1.26.48s1.46,0,1.83-.59a1.34,1.34,0,0,0-.33-1.64,2.05,2.05,0,0,0-2-.56.08.08,0,0,0,0,.1h-.05A3.77,3.77,0,0,0,16.39,140.33Z"/><path d="M29.73,140c-.21.27-.18.8.2.9s1-.24,1.43-.17c.63.09,2.1,1.24,2.67.77.33-.27.22-.9.27-1.27a4.28,4.28,0,0,0,.18-1.06c0-.42-.24-1.16-.67-1.32a2,2,0,0,0-1.56.42,1.08,1.08,0,0,1-.28-.32l-.84-.05c-.27.3,0,.71-.18,1.06C30.72,139.52,30.06,139.54,29.73,140Z"/><path d="M37.34,137.05c.28.28-.05.65.25.92s1.21,0,1.54-.3a4,4,0,0,0,1.32-2.81,3.45,3.45,0,0,0-.45-2.19c-.39-.39-1.94-.5-2,.28l-1.19,2c-.15.37-.75,1.05-.7,1.44C36.21,137,37,136.75,37.34,137.05Z"/><path d="M47.05,133.39l-.74.1c-.22.39-.32.84-.53,1.23a4.22,4.22,0,0,0-.51.87,3.41,3.41,0,0,0,.06,1.59,14.2,14.2,0,0,1,3.06-.21c.59,0,1.06.19,1.38-.46.5-1,1-3.36-.79-3.2C48.37,133.36,47.62,133.72,47.05,133.39Z"/><path d="M54.4,136.15l-1,.35c-.6.2-.88.89-1.22,1.37s-1,1-.88,1.49.74.72,1,1.06.29.36.78.17.54,0,1,.24,1.39-.38,1.82-.7c.88-.66.79-1.48.79-2.47S55.34,136.1,54.4,136.15Zm.17,3.15c-.35,0-.58,0-.52-.43s.66-.49,1-.7l.1,0C56.06,138.25,55,139.26,54.57,139.3Z"/><path d="M11.85,147.08c-.27.32-.65.71-.52,1.16.05.2.2.27.21.52a5.35,5.35,0,0,1-.11.68c0,.54.07.75.59.95,0,.47-.19.92.21,1.22.19.14.38.1.49.33s0,.46,0,.65a.84.84,0,0,0,.94.85c.5-.08.92-.37,1.13.38.64-.07.64-.38,1-.83s.68-.18,1.12-.38.64-1.13.9-1.58a9,9,0,0,0,1.09-2,3.77,3.77,0,0,0,.07-2.3,3.94,3.94,0,0,0-2.32-1.82A3.34,3.34,0,0,0,15,144.7a4,4,0,0,0-1.29.76l.1-.3C13.2,145.85,12.45,146.38,11.85,147.08Zm2.89.42c.8-.65,1.3.48,1.62,1l.05.15c0,.31.46.31.49.63-.66,0,.1,1.77-.69,1.79-.29,0-.32-.43-.55-.58s-.66,0-.93-.26c.27-.53.11-1,.15-1.52C14.12,148.71,14.31,147.84,14.74,147.5Z"/><path d="M23.58,149.65c.26.06.52-.1.77.06s.34.58.42.89c.24,1,.72.55,1.44.27.56-.22,1.3-.21,1.61-.79a2.52,2.52,0,0,0-1.33-3.2c-.77-.28-.55-.73-.84-1.41s-.79-.47-1.26-.11l-.69,1c-.65.47,0,.68.1,1.19s-.48.45-.66.84S23.11,149.55,23.58,149.65Z"/><path d="M37.27,152.44A5.43,5.43,0,0,0,39,150.33l-.39-1.18c0-.8.08-2-.53-2.58a5.18,5.18,0,0,0-1.81-.75c-1.59-.6-3.31,1.52-4.14,2.67a1.7,1.7,0,0,0-.19,1.75c.18.76-.47,1.52-.57,2.28-.24,2,1.92,2.76,3.5,2.09C35.82,154.2,36.51,153.15,37.27,152.44Zm-1-1.32v.35c0,.48-.93.28-1.18.17-.71-.31-.7-.57-.63-1.27,0-.47-.18-1,.32-1.29C36.27,148.28,36.52,150.18,36.3,151.12Z"/><path d="M42.36,145.09c.45.46.65,1.09,1.32,1.26s1.08-.24,1.57-.14.56,1.15,1.17.54c.35-.36.31-1,.57-1.48a8.66,8.66,0,0,1,.73-1.06,2.58,2.58,0,0,0,.64-.93c.17-.84-.82-.54-1.06-1-.14-.26,0-.51-.36-.62s-.73.24-1,.42c-.88.58-1.62-.16-2.31-.75l-1,.73c.12.69-.59,1.12-.67,1.77A1.39,1.39,0,0,0,42.36,145.09Z"/><path d="M58.05,144.77c-.09-.17-.15-.15-.31-.22s-.58-.23-.84-.34-.74,0-1-.24l-1.38-.39a7,7,0,0,0-.69.64c-.2.24-.26.45-.54.62s-.81.21-.77.74.25.81.07,1.38-.33.58-.75.85-.46.65.09.79.83,0,.92.58c.06.32.07.79-.21,1s-.33,0-.45.15a.53.53,0,0,0,.07.54c.33.37.9,0,1.11.59a2.87,2.87,0,0,1,0,1.09c1.11-.64.61.47.65,1a10.24,10.24,0,0,0,2.75-.2,5.26,5.26,0,0,0-.05-.89c-.06-.58.05-.43.5-.53s.43-.27.64-.54a5,5,0,0,0,.87-1.13c.17-.42.06-.85.21-1.25s.3-.4.25-.77-.28-.42-.54-.7-.2-.6-.26-.92C57.37,146.8,58.23,145.09,58.05,144.77Zm-1.4,4.91L56,150c.05.26-.14,1.17-.53.92-.14-.08-.22-.41-.34-.53-.42-.41-.44-.3-.19-.81.08-.15.24-.43.17-.64-.12-.39-.45-.17-.64-.39s.12-.37.29-.55.48-.62.75-.91c.22.23.34.49.63.59s.55,0,.5.41c0,.26-.27.44-.34.65A.84.84,0,0,0,56.65,149.68Z"/><path d="M55.23,80c.25-.35.15-.94.82-.75.13.46.21,1.17.87.84.12-.07.12-.42.3-.52a1.34,1.34,0,0,1,.66,0,8.19,8.19,0,0,0,.32-2.3c-.05-1.35-.8-.06-1.39-.69L55,75.74c-.52.67-.34,1.49-.58,2.21-.13.37-.53.59-.27,1.08S55,79.57,55.23,80Z"/><path d="M48,151.48l-.57-.77a6,6,0,0,0-2.29-.52c-1,.21-.86,1.21-1.19,2-.54,1.29-2.77,2.09-1.67,3.77.63.95,3.12,2.52,4.33,2.15.75-.22.85-1.15,1.06-1.79a5.21,5.21,0,0,1,1.25-1.89C49.87,153.26,49.1,152.12,48,151.48Z"/><path d="M19.47,159.06c-1.16.83.21.53.5,1.37.12.32-.08.77,0,1.11s.18.64.24,1c.23,1.14.64,1.11,1.54.45.43-.33,0-.35.52-.23s.67.75,1.22.44.18-.8.44-1.09.55-.11.89-.24c.89-.34,1-1.8,1.75-2.44s.56-2-.12-2.91-1.93-.34-2.11-1.57l-.83-.08c-.52.19-1.34-.13-1.18.74-.9-.08-2.47.28-2.2,1.53.07.33.49.55.47.91C20.54,158.52,19.82,158.8,19.47,159.06ZM23,157.62c.7-.31,1.14.87,1.62,1.37l-.25.16a1,1,0,0,1-.48,1.5c-1,.43-1.33-.31-1.52-1.09S22.3,158,23,157.62Z"/><path d="M9.86,160.51c-.14.17-.15.58-.31.81s-.42.31-.55.53c-1.08,1.81,1.93,1,2.16,2.12.6.09.84-.15,1.16-.59a12,12,0,0,1,.9-1c.25-.26.57-.7.27-1.1s-.9.08-1.26-.4l-.67-.58C11,160.45,10.24,160.05,9.86,160.51Z"/><path d="M33.36,158.69c-.43.64-1.58,1.79-1.56,2.6,0,1.21,1.11,1,1.89,1,.43,0,.87.35,1.27.23s.91-1.05,1.12-1.45c.59-1.16-.08-1.28-1-1.78Z"/><path d="M61.74,157.44c-1.12-1.55-3.5-.2-4.87-1.3a4.62,4.62,0,0,0-1,1.23c-.18.37-.06,1.43-.16,1.51l1.33.25a5.61,5.61,0,0,1,.18,1.65c.75.08.79-.19,1.33.35.18.18.32.47.54.61s.66.17.94.38C60.45,160.62,63,159.12,61.74,157.44Z"/><path d="M52.92,164.87c.29.16.42.42.67.6.72.52,1-.1,1.5-.75s1.6-1.44,1.22-2.26l-1.42-.5a1.86,1.86,0,0,0-2.31.2,4.11,4.11,0,0,0-.33,2.48C52.39,164.8,52.74,164.77,52.92,164.87Z"/><path d="M46.43,170.79a.72.72,0,0,0,.77.83c.54,0,.53-.14.71-.58s.13-.78.79-.76c.45,0,.67.35,1.23.15-.33-1.57,1.71-1.92,1-3.63-.18-.4-.35-1.41-.65-1.68s-1-.1-1.47-.54-.3-.67-1.1-.56a6.72,6.72,0,0,0-1.66.47c-.63.29-.64.68-1,1.18-.12.17-.35.25-.46.43s-.07.44-.17.58c-.24.34-1,.31-1.17.57s.82.85,1.08,1l.17,2.08c-.24.35,0,1.2.5,1.2C45.58,171.56,45.57,170.61,46.43,170.79Zm.84-4.43H48c.52.29,1.32,1.31.89,2a2.53,2.53,0,0,1-2.4.29,2.47,2.47,0,0,0,.42-.51c-.17-.08-.28-.23-.48-.26-.08-.21,0-.66,0-.77-.18-.37-.88-.35-.82-.79A6.06,6.06,0,0,1,47.27,166.36Z"/><path d="M61.4,167.56l-.75-.08c-.57-.62-1.37-1.62-2.32-1.47s-1.39,1.08-2.06,1.52c-.44.29-1.47.58-1.54,1.19s.87.91.38,1.59c-.38.53-1,.95-.63,1.92.16.38.11.32.44.49s.63.57,1,.73c.57.28,1.43-.06,2.11,0,1.13.11,1.28-.58,2-1.33s1.46-1.24,1.74-2.45C61.9,169.09,62.58,167.44,61.4,167.56Zm-1.6,3.16c-.71-.34-.48.42-.67.76s-.61.54-.66-.07c-.62-.09-1.46.86-1.66,0-.16-.73.92-.65.49-1.36-.39,0-.48-.24-.32-.53s.6-.23.94-.39,1.3-1.23,1.39-.35l.59.75A2.69,2.69,0,0,1,59.8,170.72Z"/><path d="M48.19,180c.5.52.9-.25,1.34-.19s.64.79.71,1.16c.45.2.77,0,1.16-.15l.75-.84a18,18,0,0,0,.08-2.31c-.2-.86-1.57-1.06-2.2-1.59-.83-.7-1-1.06-1.89-.09a3,3,0,0,0-1,2C48.25,177.46,47.73,179.46,48.19,180Z"/><path d="M54.36,186.58c.11.59-.22.94.83.71l.25,1.09c.66-.21,2-.92,2.1.32,1.19.28.72-.85,1-1.48.93,0,1.58-1.41,2-2.14a2.36,2.36,0,0,0-.22-2.93c-.47-.43-.51-.35-.71-.92s-.68-1.51-1.48-1.18c-.58.23-.28.67-1,.74-.84.08-1.08-.27-1.7.5s-2.39,2.3-.84,2.77c-.06.66-1.89.93-1.16,1.76C53.88,186.3,54.2,185.72,54.36,186.58Z"/><path d="M26.33,175.61a3.77,3.77,0,0,0,2,.28c.4,0,.61-.2,1,.08s.28.76.57.93a3,3,0,0,0,2.13-.63c.38-.55-.33-1.36-.08-2s1-1.26,1.32-2a4.44,4.44,0,0,0,.12-2.45c-.09-1.08-.28-1.06-1.33-1.15-.86-.08-1.28-.9-2.17-.83a3.69,3.69,0,0,0-2.31,1.3l-1,1c-.6.81-.56,1.23.16,1.94-.32.42-.93.09-1.08.76s.43.91,1,.89C26.65,174.34,25.92,175.24,26.33,175.61ZM29,171.69c.27-.47.93-.27,1.38-.29l.59.5c.29,1.12-.6,2.06-1.6,1.1C29,172.73,28.73,172.09,29,171.69Z"/><path d="M20.27,171.78c1.15,0,.95-.59,1.05-1.51s.22-1.06-.42-1.76-1-.68-1.84-.19l-.83.75c-.44.5-.24,1.15-.92,1.17-.34,1.22,1.46.27.51,1.66C18.58,172.23,19.47,171.77,20.27,171.78Z"/><path d="M6.68,168a3.16,3.16,0,0,0-.87,2.21c0,1-.27,1.05-.95,1.67s-.44,1.19,0,1.92c.32.57,0,1.89.51,2.26s1.89-.66,2.54-.71c1.38-.1,1.57-1,2.29-2s1.43-1.29,1.29-2.54a9.44,9.44,0,0,0-.5-2.3l-.42-.84c-1.19.26-.65-.79-1.36-1.15S7.11,167.5,6.68,168Zm1.19,2.15c-.19,1.31,1.53-.43,1.43,1.33l-.17.66c-.38.44-1.07,1.18-1.79.93s.29-1.38-.94-1.44c0-.15-.09-.57,0-.68s.35.18.57.11C7.49,170.91,7.39,170.34,7.87,170.16Z"/><path d="M11.4,180.32Z"/><path d="M9.33,183.8c.23,0,.42-.22.65-.23s.46.22.68.18c.5-.1.45-.69.83-1s1.09-.36.76-1.25a4.49,4.49,0,0,0-.85-1.18.93.93,0,0,1-.64-.35c-.31-.5.18-1.41-.77-.51-.39.36-.6.94-1,1.27s-.46.15-.74.29c-.58.27-.89.53-.22.87s.85,0,.64.9C8.51,183.42,8.41,183.89,9.33,183.8Z"/><path d="M11.44,180.33l.54.16A2.64,2.64,0,0,0,11.44,180.33Z"/><path d="M18.94,186c.6.13.77-.17,1.08-.61a4.15,4.15,0,0,1,1.14-1.11c.32-.22.69-.4.74-.83l.5-.41a11.83,11.83,0,0,1,.43-3.34c.28-1.16.46-1.67-1-1.58-.26,0-1,.22-1.2.06-.43-.34.23-.79-.37-1s-2.79,1.17-3.15,1.76c1,.87.08,1-.4,1.76-.17.29-.16.69-.3,1a6.48,6.48,0,0,1-1,1.35c.16.35.57.35.73.65s-.09.68,0,1c.31.93,1.36.38,2.07.39C18.53,185.5,18.26,185.8,18.94,186Zm-.25-4.87a6.11,6.11,0,0,0,.46-.72c.2-.26,0-.19.27-.34a1.15,1.15,0,0,1,.45,0l.28,0a.46.46,0,0,1-.28,0l-.22,0c.38.52,1.14.14,1.33,1a1.49,1.49,0,0,1-.63,1.6c-.55-.17-2.18-.21-2.13-1C18.24,181.29,18.47,181.32,18.69,181.08Z"/><path d="M23.06,191.74c.12-.18.23-.33.35-.49a.86.86,0,0,0,.07-.1Z"/><path d="M24.87,197.49c.63.12,1.15-.69,1.66-1,.84-.52,1-1.09,1.39-2,.66-1.34,1.18-3.16-.38-4.11-1.75-1.07-3-.59-4.13.82a16.61,16.61,0,0,0-1.67,2.85c-.15.33-.46.81-.3,1.18s.47.29.64.52c.42.57,0,1.7,1,1.41.34-.09.48-.44.87-.37S24.49,197.41,24.87,197.49Zm-.2-5.88c.55-.88,1.44-.72,2,.14.38.61.09.57-.16,1s-.27.71-.44,1.07l-.08.25c-.37.6-1.06,0-1.33-.33A1.67,1.67,0,0,1,24.67,191.61Z"/><path d="M44.79,185.44c.13-.8,1-1.79.18-2.36-.47-.33-1-.31-1.36-.79a13.81,13.81,0,0,0-1-1.41,2.71,2.71,0,0,1-1.08.1l1-.09c-1.21-.06-2-.13-2.89.61-.28.22-.77.36-1,.62s-.11.6-.16,1.06c-.1,1-1.52,1-1,2.1.19.43.5.66.51,1.15s-.21.64-.13,1.07c.17,1,.55,1.24,1.43,1.39a2.77,2.77,0,0,0,1.14.13c.36-.08.62-.36,1-.43s.78.1,1.17-.11.62-.81.92-1.17C44.05,186.59,44.62,186.42,44.79,185.44ZM43,185.1c-.06.19-.4.32-.5.54a.93.93,0,0,1,.41,1c-.8-.33-1.49.86-1.87-.08-.28-.69.11-.64-.78-.92-.38-.12-1.1-.42-.82-.9.25.1.81.18,1-.1s-.19-.35-.2-.65c0-.67.92-1.1,1.28-.43l.66-.5c0-.41.43-.53.82-.32,0,.55,0,1-.07,1.57C42.89,184.57,43.08,184.82,43,185.1Z"/><path d="M37.15,203.23c.08.63.21,1,.91,1.08.53-.75,1.22,0,1.84,0,.46,0,.45-.25.8-.42s.67-.16,1-.3a6.92,6.92,0,0,0,1.5-1.37,2.42,2.42,0,0,0,.56-1.9c.34-.28.23-.66.24-1.19v.67a7.34,7.34,0,0,1-.9-1.25c-.12-.23-.27-.88-.52-1s-.71.2-1.09.14c-.58-.1-1-.61-1.67-.48s-.84.69-1.24,1.12a2.88,2.88,0,0,0-.78,1.13c-.29.73-.22.41-.85.65s-.83,1.4-.36,2.05S37.06,202.52,37.15,203.23Zm2.59-3.73c.55,0,.47,1.25,1.34.74l.58.91a1.4,1.4,0,0,1-.84,1.44c-1.12.25-1-.63-1.09-1.31C39.65,200.92,38.83,199.55,39.74,199.5Z"/><path d="M30.26,186.06c.79.16,1.76.24,2.27-.43a3.74,3.74,0,0,0,.87-2.15c-.07-1-1-1.46-1.79-1.87l-.83-.25c-.27.16-1.18-.32-1.59.08s0,1.16.41,1.27c-.26.85-1.81,1.21-1.59,2.17C28.17,185.6,29.61,185.93,30.26,186.06Z"/><path d="M34.55,196.89c1.12.39,1.77-.61,2.44-1.5.3-.41.69-.93.4-1.44s-.74-.48-1-.88l-1.66-1c-.55.28-2.36,1.22-2.12,2,.13.41.64.24.53.77s-.87.6-.78,1.21C32.51,197,34,196.69,34.55,196.89Z"/><path d="M53.41,195.07A2.91,2.91,0,0,0,51.17,192l-1.5-.5c-1.21.33-1.38,1.27-2,2.17-.3.46-.64.74-.1,1.23s.63,0,1,.16c.84.36-.25,1.22.69,1.73.7.38,1.48.34,1.58-.53a2.13,2.13,0,0,1,1.07.12c.14-.28-.05-.72.1-1C52.29,195,53,195.25,53.41,195.07Z"/><path d="M11.24,194.79c.07.37.52.51.83.66a1.51,1.51,0,0,0,.26-.56c.68-.18.77.44,1.29.66a4.75,4.75,0,0,0,1.64.07c.66,0,.86,0,1.17-.63.22-.45.16-1.12.79-1.22.15-.75-.49-.55-.87-.73-.74-.36-.47-.82-.53-1.58l-.67-.17c-.88-.65-1.24-1.17-2.48-.89a3,3,0,0,0-1.75,1.66,2,2,0,0,0-.28,1c.11.54.68.35.87.71S11.16,194.39,11.24,194.79Z"/><path d="M20.22,204.2c.36,0,.53-.29.92-.09s.35.71.94.53c.17-.85,1-1.12,1.31-1.92a2.36,2.36,0,0,0-.45-2.38,2.51,2.51,0,0,0-1.93-.9c-1,.14-1.18,1.17-1.49,2L19,203C19.7,203.44,19.43,204.18,20.22,204.2Z"/><path d="M28.14,212.4a8.21,8.21,0,0,0,2.11.14,12.8,12.8,0,0,0,1.83.26,2.38,2.38,0,0,0,2.44-2.06c.16-1.27-1-2.38-1.76-3.27L31,207.22c-.68,0-1.42-.07-1.77.6s-.22,1.1-.65,1.62C28,210.19,26.55,211.74,28.14,212.4ZM31,210.1c.18-.37-.2-.74.34-.88h.75a2.78,2.78,0,0,0,.57.19c0,.57.51,1.71-.31,2s-.49-.37-.79-.6a2.07,2.07,0,0,0-1.28-.2C30.65,210.31,30.83,210.48,31,210.1Z"/><path d="M40.66,210c-1-.39-1.56.32-2.31.77s-1.53.64-1.78,1.61c-.12.45.42.74.78.72s.9-.32,1.39-.17,1.22.95,1.71.57.18-1.15.5-1.6.55-.64.42-1.07A1.36,1.36,0,0,0,40.66,210Z"/><path d="M45.46,210.16c-.79.65.23,1.44.8,1.78a4.88,4.88,0,0,0,2.38.7,3.81,3.81,0,0,0,2.3-.6,1.57,1.57,0,0,0,.6-.79,6.27,6.27,0,0,1,.17-.75c.24-.54.75-.86.42-1.51a6.43,6.43,0,0,0-1.65-1.68,2.15,2.15,0,0,0-1.9-.73,1.62,1.62,0,0,0-.9.54l-.21.22c-.59.34-1.57.76-1.57,1.57,0,.24.14.51.08.75S45.65,210,45.46,210.16Zm2.69-1a1,1,0,0,0,.54-.52c.21-.39.69-.42,1.09-.48l.41,0a.59.59,0,0,1,.18.56,5.09,5.09,0,0,1,0,.68c-.08.29-.36.28-.57.42s-.2.41-.35.63-.4.19-.59,0a1,1,0,0,0-.69-.36c-.22,0-.68,0-.68-.32S47.94,209.27,48.15,209.16Z"/><path d="M57.67,204.74c-.53-.14-.89,0-.86.61l-.32.05c-.39-.22-.8-.67-1.26-.7-.84-.07-1.37.87-1.65,1.52-.16.35-.46,1.06,0,1.27s1.53-.19,1.63.68c.14,1.15,2.16,1.11,2.8.42a5.76,5.76,0,0,1,.53-.57c.22-.18.43-.33.46-.62a3,3,0,0,0-.2-.89,2.42,2.42,0,0,1,0-.76C58.81,205,58.31,204.9,57.67,204.74Z"/></svg>