<svg id="Layer_1" data-name="Layer 1" xmlns="http://www.w3.org/2000/svg" viewBox="0 0 1900 1200"><defs><style>.cls-1{fill:#e3dbd1;}</style></defs><title>faq-page-1</title><path class="cls-1" d="M1703.93,311.47c66.88-80.09,209.18-45.83,267.85,21.13-56.25,66.29-162.62,81.56-229.55,26.32-17-14-20.3-21.92-36.36-41.4Z"/><path class="cls-1" d="M1523.32,286.84c-83.11-10.13-122.08-120.91-102.56-189.63,69.18,9,125.85,74,117.82,143.14-2,17.56-5.65,24.65-12,42.54Z"/><path class="cls-1" d="M758.52,935.48C675.86,922.12,641.23,809.91,663.41,742c68.77,11.67,122.87,78.81,112.16,147.62-2.71,17.47,1.36,14.38-13.68,42Z"/><path class="cls-1" d="M218.33,633.58c-50.83-66.53,1.18-171.82,64-205.87,41.92,55.76,35,141.71-20.06,184.3-14,10.82-20.29,21.89-38.84,21.12Z"/><path class="cls-1" d="M1713.52,1081c-82.65-13.35-117.29-125.56-95.11-193.47,68.78,11.66,122.88,78.81,112.17,147.62-2.72,17.46.35,21.85-13.68,42Z"/><path class="cls-1" d="M108.44,851.56c-103.67,58.12-241.23-36-276.51-131.12,86.75-47.74,206.16-20.85,255,65.09,12.4,21.82,15,28.47,21.9,58.81Z"/><path class="cls-1" d="M570,216.19C498.48,259.77,399.22,197,371.93,131c59.84-35.84,144.6-20,181.19,39.26,9.29,15,7.81,22.74,16.93,40.84Z"/><path class="cls-1" d="M64.55,136.07C34.29,58,113.59-28.61,183.4-43.8c24.7,65.24-5.88,145.86-70.66,171.4C96.3,134.09,87.15,143,69.56,137.06Z"/><path class="cls-1" d="M2177.61,738.53c-20.53-3.82-19.92-4.32-31.45-10.26-2.37,5.37-1.67,16.74-3.54,22.3-2.63-6.31-4.92-14.62-6.92-21.19-2,4.38-2.95,9.42-4.82,14-2.45,5.89-3.43,11.11-6.92,15.92-3.34-4.22-5.69-12.55-5.46-18.08-3.37,11.06-13.65,24.89-13.65,24.89-1.22-3.43-1.72-8.09-2.45-10.86-1-3.93-1.2-5.63-2.52-11.55-1.86,5.18-3.27,11.27-5.56,15.37-1.43,2.56-2.88,5.5-4.45,8-1.1,1.76-2.49,5-4.36,5.88a20.61,20.61,0,0,0-2-10.61,74.26,74.26,0,0,0-6.22-10,25.33,25.33,0,0,1-2.91,12.17c-2.32,4.42-5.77,10.69-9.46,14.44-.43-3.31-.17-7.34-1.78-11.07a62.27,62.27,0,0,1-4.78-15.94c-2,2.77-1.54,4.86-2.32,7-1.7,4.66-3.74,7.5-4.91,12.31-1,4.26-4.16,9.78-6.64,13.31-.23-4.47-1.22-6.14-2.33-10.09-.58-2.09-4.77-8.93-6-11.66-.37,2-.5,4-1,5.91a42.57,42.57,0,0,1-5.37,12.6,87,87,0,0,1-8.27,10.66c-2.83-4.24-3.45-7-5-14-1-4.21-1.13-6-2.43-13.3-3.47,4.13-5.61,9.12-8.86,13.64-3.4,4.72-5.72,9.76-8.31,15.3,0,0-3.92-7.16-6.13-11.88-.62-1.32-3.62-8.7-4-10.12-.43,1.39-1.94,7.63-2.56,9a73.9,73.9,0,0,1-4.8,8.6c-1.47,2.5-3.11,4.8-4.8,7.14-1.06,1.47-2.6,4.77-3.76,6.1-.63-1.28-.71-3.74-1.29-5.09s-1.49-2.62-2.13-4a66.8,66.8,0,0,1-3.09-7.3,21.28,21.28,0,0,1-1.35-5.85c-1.67,1.37-8,8.43-9.57,12.27-.79,2-5.92,14.05-6.69,14.9-1.68-4.51-1.22-12.21-.91-17,.18-2.64.91-12,1.07-12.82a48.8,48.8,0,0,1-4.59,6.62C1939,788.22,1928,801,1925.5,804.22c-1.21,1.56-4.58,5.56-6,7-1.38-4.62-.63-10.15-.38-15a123.88,123.88,0,0,0-1.06-13.35c-1.43,1.22-4.82,5.65-6.1,7.06a66.4,66.4,0,0,0-8.79,11.83c-.57.94-8.06,11-9.54,12.24-1.24-3.57-1.15-14.06-1.37-16.64-.19-2.29-.07-9-.44-12.27-1.26,1.88-2.76,4.77-4.41,6.38s-2.9,3-4.41,4.48l-5.79,5.63c-.81.79-4.07,3.63-5.2,3.75,1-4.2.72-9,1.12-13.25.35-3.71,0-7.75,1.11-11.31-1.11-.06-16.58,15.48-22.2,20.46-2.84,2.52-5.64,5-8.46,7.54-.89.79-3.1,3-6.34,3.16-.44-1.72,4.88-12.2,6.41-15.59,1.19-2.6,6.8-15.9,6.73-20.17-2.7,2.8-6.46,6.1-9.24,8.82a69.13,69.13,0,0,1-6.26,5.6c-1.8,1.37-3.63,2.76-5.33,4.24a125.53,125.53,0,0,1-11.75,9.13,79.12,79.12,0,0,0,3.13-10.58c.06-1.49,2.26-13.12,3.76-16.09-1.47,1.46-3.35,2.75-5,4.12-3.51,3-7,5.9-10.36,9.13-2.36,2.3-4.6,4.45-7.67,5.79-1.93.84-6.26,1.83-8.5.92.21-2.27,6.42-11.38,7.66-14.26a68.57,68.57,0,0,1,5.15-9.92c2.62-4.08,5.53-7.77,7.84-12a36.79,36.79,0,0,0-8,2.31,45.58,45.58,0,0,0-11,7c-3.38,2.88-15.19,12-18,14.05-1.22.9-6.5,2.95-6.5,1.25,0-5.86,2-9.61,3.73-11.68a36.17,36.17,0,0,0,5.82-8.59c.77-1.47,3.85-10.48,0-9-3,1.12-7,3.64-9.87,5-3.34,1.56-6.31,3.74-9.62,5.36s-6.54,4-9.82,5.65c-2.33,1.18-5.52,1.35-7.62,1.45s-1.69-3.4-1.1-4.74A38.5,38.5,0,0,0,1745,760c.32-1.77,2.19-7.12-.06-8.13-1.79-.8-5.74.27-7.41,1-5.48,2.36-11.33,6.46-17.56,5.94-1.43-.13-4.84-.73-2.84-2.56,1.44-1.32,7.89-7.42,9.72-9.29,5.82-5.95,11.29-16,11.87-17.66-8.64,1.82-26.94,12-29.4,12.62-3.19.73-8.18,1-4.63-3.06,2.08-2.38,5.23-5.58,7.32-8,1.13-1.31,5.51-6.05,6.64-9.29l.08-.23c-.71-.2-5.71-2.72-10.85-2.69a26.16,26.16,0,0,0-5,.41c-1.47.28-22.86,5.67-27.14,5.59,1.24-1.93,2.86-3.85,4.28-5.74,5.22-6.93,12.39-12.41,18.23-18.86-3-.33-14,1.27-16.26,1.86-3,.77-5.83,2-8.71,3-5.4,2-12.17,3.23-17.73,1.07,3.71-3.47,7.12-7.23,10.88-10.65,1.92-1.74,3.46-3.76,5.3-5.59,1.4-1.4,3.55-3.82,3.76-5.89.56-5.39-8.79-3.1-11.71-2.56-5.49,1-10.57,3.26-15.81,5.1a45.44,45.44,0,0,1-13.71,2.47s5.37-7.6,7.34-9.6c1.55-1.58,7.29-7.46,7.58-9.84s-2-1.1-4.41-.75c-4.79.68-8.35,1.27-12.23,2.13-7,1.54-9.68,4.05-13.65,4.45-2.12.21-6.81,1.31-4.52-1.18,4.13-4.47,9-10.16,13.13-14.63,1.79-1.94,3.73-3.94,4.82-6.38.73-1.61,4.18-6.65,1.49-7.42-1.53-.44-4.07.86-5.61,1.05a21.81,21.81,0,0,0-4.32.89c-2.7.95-4.1,1.55-6.88,2.34-2.5.7-5.88,1.19-8,1.83-1.24.37-8.14.55-7.74-1,.3-1.22,2.67-3.34,3.44-4.26,1.63-2,3.18-4,4.62-6.05,1.13-1.64,5.32-6.65,3.83-8.93-1-1.52-3.89.37-5.09.89-2,.88-3.92,2-5.9,2.89-3,1.38-5.94,1.46-9.1,1.89a30.53,30.53,0,0,1-8.16.24c1.37-1.18,7-5.74,8.34-7,3.75-3.65,3.4-3.65,7.17-7.32,1.66-1.61,3.17-3.4,4.74-5.08.85-.9,4.16-3.93,4.32-4.52-2.11,1.18-11.76,3.78-12.89,3.87-1.91.14-6.85,1.71-8.73,2.19a16.41,16.41,0,0,1-5.24.2,11.9,11.9,0,0,1-2.65-1.08,10.89,10.89,0,0,1,2-2.45,61.41,61.41,0,0,1,5.08-4.48,15.29,15.29,0,0,1,2.2-1.76c3.9-2.26,7.31-5.53,10.93-8.27,5-3.82,9.4-6.86,10.51-9.18-.83.12-4.54.76-5.37.86-6.57.8-10.88-.25-17-3-1.84-.82-5.31-1.87-6.16-3.87s1.59-3.83,3-5.07a36.65,36.65,0,0,1,7.52-4.61c2.48-1.31,4.86-2.78,7.3-4.18a24.33,24.33,0,0,1,18.14-2.24c4.72,1.19,9.4,3.67,13.85,5.58-3.34-1.48-7.54-3.57-11-4.7-3.07-1-6.91-2.12-10.17-1.67-1.89.27-2.58.37-4.47.57a43.5,43.5,0,0,0-5,1.1c-3.67.85-7.55,2-11.33,1.84a23.18,23.18,0,0,1-6.37-1,13.71,13.71,0,0,0-5.71-.91c2.15-2.5,5.31-3.86,7.81-5.95a37,37,0,0,1,8-4.78,44.5,44.5,0,0,1,6.4-2.71c1.7-.5,3.37-1,5-1.65a57.64,57.64,0,0,1,8.14-3c2.12-.49,4.77-1,6.43-2.57-1.27-.24-2.37-.76-3.67-.88a42.28,42.28,0,0,1-7.34-1c-1.94-.53-4-.91-6-1.36,0,0,4.38-2.36,5-2.72a32.12,32.12,0,0,1,4.31-1.95c2.71-1.12,5.54-2.15,8.31-3.09,2.16-.73,4.12-1.61,6.32-2.2s9-1.25,10.18-2c-4.6-2.36-6.65-2.3-12.44-3.82-2.6-.69-8.56-1-11-1.93,1.89-1.91,3.79-4.22,5.74-6.06a24.08,24.08,0,0,1,6.94-4.14c1.9-.8,3.74-.47,5.74-.35,3.83.21,10.53,3,13,4.26-2.15-1.76-4.31-3.5-6.61-5.06-3.45-2.38-7.14-4.55-9.07-8.48a6,6,0,0,1-.11-5.23,8.29,8.29,0,0,1,7.42-4.21,34.06,34.06,0,0,1,9,2,75.18,75.18,0,0,1,7.35,3.53c1.43.76,5.4,3.46,6.43,4.8a49.91,49.91,0,0,0-3.51-6.77,43.57,43.57,0,0,1-4.93-10.13c-.46-1.44-.62-3-1-4.43-.31-1.06-1.42-3.41-.73-4.4a44.29,44.29,0,0,1,4,3.34c5.55,5.73,11.63,12.64,17.5,18,.37-5.4-1-11.88-2-17.17-.58-3.15-1.2-6.31-1.54-9.49-.2-1.86-.62-4.46.27-6.21,1.59-3.14,5.88,1.78,7,3.07,5.08,5.63,8.51,12.22,11.55,19.09.85-1.13,1-2.92,1.16-4.29.52-5,1.45-9.9.73-15a11.9,11.9,0,0,1,.34-6.07,10.2,10.2,0,0,1,1.7-3.39,25.35,25.35,0,0,1,4.15,4.64,20.62,20.62,0,0,1,2.8,6.17,21.06,21.06,0,0,1,.86,5.93c-.15,2.36-.23,4.81-.52,7.15s0,4.92-.64,7.29a44.22,44.22,0,0,0,9.16-12.42c2-4.33,5.7-10.26,9.28-13.15,1.64,1.94,2.26,5.11,3.28,7.42,2.11,4.82.64,8.32-1.56,13.06a58,58,0,0,0-4.31,15.08c4.82-4.23,8.73-8.1,11.32-10.88,2.77-3,6.54-8.63,10.57-10,4.55-1.56,3.19,4.89,3,7.56a79,79,0,0,1-2.12,12.18c-1,4-3,8.26-3.47,12.41,3.12-1,7.15-1.21,10.41-1.56,4.4-.48,15,.27,15.55,2.9s-1.38,4-3.4,5.47a85.72,85.72,0,0,1-8.29,5.17c.6.16,10.37,2.31,15.79,1.28a55.35,55.35,0,0,1,7.41-.74c1.17-.11,5.11,0,6,1.08,1,1.21-.64,3.07-1.5,3.92a43.23,43.23,0,0,1-7.45,5.65,46.67,46.67,0,0,0-6.76,5.11c-1.67,1.47-6.79,5.48-4.92,8.18s6.77,1.8,9.54,1.82c3.11,0,6.2-.53,9.31-.59,2.46-.06,5.28.33,6.19,3,.82,2.37-1.26,5-2.56,6.89-2.23,3.16-4.44,6.36-6.47,9.67-.37.6-5.18,7.5-4,8,1.82.8,5.78-.75,7.6-1.16,4.09-.94,8-2.55,12.06-3.53,2.81-.67,6.91-2.17,9.5-.18,3,2.27,1.41,6.18-.09,8.78a58.66,58.66,0,0,0-4.25,8.82c3.94,1.37,17.31-.7,20.73-1.92a32.42,32.42,0,0,1,10.32-1.89c3.43,0,2.66,3.48.88,5.9-2.12,2.88-5.55,4.72-8.15,7.15s-6,5.88-8.72,8.26c4.8,2.48,10.61,3.39,16.26,3.39,4.16,0,10.67-1.58,14.48,1.28-3.45,3.27-9.72,8.28-13,11.78,5.88,2.08,14.29,4,20.72,3.06,5.51-.8,11.44.41,16.94.38-4.34,4.94-11.18,9.64-15.63,14.62,1.37,1.38,4.87.3,6.73.07,2.24-.28,4.56-.41,6.73-.76a50.73,50.73,0,0,1,10.93-.86s-10.12,11.13-14.78,14.86a47.13,47.13,0,0,0,8.43,1.74c2.78.26,21.21.57,22.71,1.61-3,3.46-9.39,8.47-12.41,12,4.68,2.57,10.95,2.47,16.46,2.19,5.15-.26,12.29-3.77,17.47-3.69-2.52,2.87-7.94,5.53-10.29,8.47s-5.64,7.47-8.57,9.75c3.22-1.2,7.4-2.71,10.84-4,4.4-1.62,9.59-1.74,13.84-2.46-.81,4.47-3.35,7.2-4.57,10.57-1.48,4.09-2.07,9.06-3.19,13.23,4.81,0,11.42-4.89,15.16-7.4,4.22-2.83,9.2-5.63,13.1-8.22l-.24.23c.45,4.52,2.36,13,.21,17.22,4.46-2,8.14-6.07,12.18-8.91,5-3.55,10.52-11.63,16-14.46.72,4.38,2.49,10.44,2.13,15.08,4.21-8.52,13-16.61,20.49-22.68a121.4,121.4,0,0,0-2,17.77c1.78-4.68,6.47-8.62,10.06-12.11a100.94,100.94,0,0,1,11.74-10c-.29,2.47-1.08,5.34-1.23,7.92-.2,3.32.62,6.5.15,9.84,2.85-3.65,5.36-7.59,8.19-11.2,3-3.88,8.06-8.55,11.52-12.15.13,2.64-2,6.6-1.8,9.31.2,3.11,1.69,6.37.76,9.47,1.21-2.88,5.16-5.41,7.15-7.91,2.47-3.09,6.39-8,9.48-10.59,3.47,2.63,5.34,11.27,6.87,15.22,2.12-4.17,7.15-9.38,10.71-12.43,3,2.94,6.74,7.26,10.89,4.56,3.72-2.41,6.34-6.31,10-8.91,3.46,2.28,6.19,7.25,9.53,10.09,1.45-3.35-.16-7.72,1.72-11.08,2.36.16,12.08,1.31,14.1,1.52,4.28.46,14.45-1.67,14.45-1.67Z"/><path class="cls-1" d="M802.36,1260c-35.85-98,65-204,152.36-221.31,29.23,81.88-10.79,181.61-92.11,211.9-20.65,7.69-32.25,18.54-54,10.75Z"/><path class="cls-1" d="M1055.93,382c3.43,104.29-127.59,185.69-216,174.8-2.18-86.91,67-169.13,153.73-172.49C1015.72,383.45,1055.93,382,1055.93,382Z"/><path class="cls-1" d="M1277.29,623c-64.13-35.15-59.85-137.63-21.74-187,53.19,29.7,78.1,100.77,49.17,154.28-7.33,13.58-5.79,16.72-23.54,30.6Z"/><path class="cls-1" d="M205.49,1228c-64.13-35.15-59.84-137.63-21.74-187,53.19,29.7,78.1,100.78,49.18,154.28-7.34,13.58-8.46,24.66-23.55,30.6Z"/><path class="cls-1" d="M1718.29,103c-64.13-35.15-59.85-137.63-21.74-187,53.19,29.7,78.1,100.78,49.17,154.28-7.33,13.58-5.79,14.76-23.54,30.6Z"/><path class="cls-1" d="M583.42,580c-64.13-35.15-59.85-137.63-21.74-187,53.19,29.7,78.1,100.78,49.18,154.28-7.34,13.58-4.93,14.76-23.55,30.6Z"/><path class="cls-1" d="M1345.93-127.07c-20.31,12-20.17,11.12-34.39,14.62,2,6.34,11,15.5,13.55,21.62-6.93-3.41-15-8.79-21.63-12.9,1.57,5.19,4.49,10.22,6.25,15.46,2.3,6.83,5.34,12,5.94,18.69-6-1.11-14.17-6.45-18.07-11.33,5.34,11.92,6.87,31.33,6.87,31.33-3.59-2-7.48-5.61-10.16-7.42-3.81-2.58-5.21-3.91-10.73-8,2.27,5.78,5.59,12,6.69,17.21.69,3.24,1.63,6.82,2.16,10.12.37,2.32,1.63,6.14.65,8.25a23.31,23.31,0,0,0-9.53-7.59,84.61,84.61,0,0,0-12.74-3.91,28.74,28.74,0,0,1,6.56,12.53c1.31,5.48,3,13.38,2.67,19.32-2.82-2.5-5.6-6.13-9.74-8.11a70.41,70.41,0,0,1-15.91-10c.31,3.88,2.3,5.27,3.23,7.67,2,5.23,2.38,9.17,5,14.13,2.28,4.4,3.72,11.41,4.23,16.26-3.52-3.63-5.6-4.32-9.48-6.86-2-1.34-10.7-4-13.77-5.46,1.14,2,2.51,3.75,3.54,5.76a48.24,48.24,0,0,1,4.79,14.72,98.89,98.89,0,0,1,.88,15.22c-5.56-1.51-8.17-3.43-14.72-8.21-3.94-2.87-5.41-4.25-12-9.51.11,6.09,2,11.93,2.59,18.19.61,6.54,2.38,12.56,4.29,19.19,0,0-8.66-3.18-14-5.55-1.5-.67-9.53-4.72-10.87-5.68.66,1.5,4,7.94,4.49,9.55,1.37,4.6,1.42,6.18,2.31,10.9.6,3.21.91,6.38,1.22,9.63.19,2,1.33,6,1.33,8-1.49-.62-3.39-2.66-4.88-3.37s-3.21-1.13-4.77-1.8a79.84,79.84,0,0,1-8.06-3.92,23.84,23.84,0,0,1-5.49-4c-.39,2.41-.54,13.12,1,17.55.79,2.27,5.4,16.36,5.38,17.67-4.78-2.6-10.11-9.49-13.44-13.85-1.82-2.38-8.13-10.88-8.62-11.7a53.92,53.92,0,0,1,1,9c.18,6.09.34,25.07.62,29.71.13,2.23.22,8.14.09,10.36-4.61-2.91-8.08-8.18-11.44-12.46a139.58,139.58,0,0,0-10.83-10.57c-.3,2.1.11,8.39.06,10.54a75.55,75.55,0,0,0,1.31,16.61c.21,1.21,1.29,15.32,1,17.5-3.71-2.12-11.43-11.12-13.52-13.15-1.87-1.81-6.78-7.64-9.5-10.11.32,2.53,1.19,6.1,1,8.7-.19,2.38-.24,4.71-.42,7.09-.25,3-.49,6-.74,9.09-.11,1.28-.77,6.12-1.64,7.06-2.29-4.31-6-8.16-8.9-12.12-2.46-3.41-5.74-6.6-7.45-10.45-1,.77-2.62,25.5-3.71,33.92-.54,4.24-1.07,8.46-1.59,12.69-.17,1.34-.41,4.88-3,7.41-1.66-1.14-4.92-14-6.12-18-.93-3.09-6-18.58-9.26-22.16-.22,4.39-1,10-1.32,14.37a78,78,0,0,1-1.17,9.41c-.51,2.5-1,5-1.38,7.58a145.92,145.92,0,0,1-3.22,16.49,89.32,89.32,0,0,0-5.21-11.33c-1-1.31-7.81-12.84-8.74-16.49-.16,2.34-.81,4.83-1.16,7.19-.78,5.14-1.62,10.26-2,15.47-.3,3.71-.61,7.21-2.23,10.63-1,2.15-4,6.2-6.54,7.1-1.52-2.09-3-14.45-4.09-17.83a77.11,77.11,0,0,1-3-12.28c-.81-5.42-1.08-10.72-2.23-16a41.42,41.42,0,0,0-5.12,7.92,52,52,0,0,0-4.19,14.17c-.74,5-4,21.45-4.89,25.33-.36,1.67-3.34,7.34-4.6,5.89-4.33-5-5.45-9.65-5.5-12.71a40.71,40.71,0,0,0-1.42-11.64c-.44-1.82-4.51-11.78-6.72-7.69-1.69,3.16-3.24,8.3-4.7,11.58-1.68,3.8-2.59,7.87-4.21,11.7s-2.59,8.27-4.15,12.11c-1.12,2.73-3.71,5.25-5.41,6.9s-4-1.64-4.47-3.22a43.57,43.57,0,0,0-4.1-10.12c-1-1.75-3.43-7.69-6.09-6.88-2.12.65-4.68,4.49-5.57,6.35-2.91,6.08-4.85,13.91-10.54,18.1-1.31,1-4.66,3-4.32-.08.24-2.19,1.21-12.17,1.37-15.11.54-9.4-2.25-22-3-23.86-6,8-14,30.27-15.66,32.58-2.17,3-6.21,6.94-6.21.84,0-3.57.31-8.64.3-12.23,0-1.95.2-9.25-1.25-12.85l-.1-.25c-.76.36-6.88,1.93-11.23,5.77a30.39,30.39,0,0,0-4,4.06c-1,1.34-15.24,21.81-18.95,24.92-.37-2.57-.42-5.39-.61-8.06-.71-9.78,1.33-19.77,1.5-29.6-2.8,1.94-11,11.47-12.46,13.66-2,2.87-3.49,6-5.17,9-3.13,5.69-8,11.79-14.29,14.08.58-5.71.69-11.44,1.35-17.15.33-2.9.15-5.77.35-8.69.16-2.23.19-5.9-1.16-7.81-3.53-5-9.79,3.89-11.87,6.52-3.92,4.95-6.58,10.63-9.68,16.08a51.28,51.28,0,0,1-9.83,12.3s-1.08-10.46-.89-13.63c.15-2.5.67-11.77-.85-14s-2.53.55-4.32,2.63c-3.57,4.13-6.16,7.28-8.83,10.9-4.79,6.48-5.22,10.64-8.31,13.92-1.65,1.76-4.82,6.18-4.72,2.36.19-6.87.12-15.35.31-22.21.08-3,.24-6.12-.64-9-.58-1.91-1.38-8.77-4.24-7.43-1.63.77-2.83,3.76-4,5.07a24.75,24.75,0,0,0-3,4c-1.59,2.81-2.34,4.37-4.12,7.1-1.6,2.45-4.12,5.38-5.46,7.51-.78,1.24-6.52,6.52-7.36,4.88-.65-1.27-.2-4.83-.23-6.19-.06-2.87-.23-5.73-.56-8.57-.26-2.25-.42-9.62-3.38-10.45-2-.56-3,3.2-3.67,4.53-1.06,2.25-1.87,4.59-2.88,6.85-1.49,3.38-4,5.65-6.34,8.37a34.35,34.35,0,0,1-6.76,6.26c.28-2,1.71-10.1,1.88-12.17.47-5.89.18-5.63.66-11.55.22-2.61.18-5.26.27-7.86.05-1.39.62-6.43.32-7.05-.93,2.57-7.21,12-8.1,12.87-1.53,1.53-4.57,6.54-5.81,8.35a18.51,18.51,0,0,1-4.31,4.06,13.33,13.33,0,0,1-3.06,1.05,11.63,11.63,0,0,1-.09-3.59,66.3,66.3,0,0,1,1-7.58,16.94,16.94,0,0,1,.56-3.13c1.65-4.83,2.12-10.15,3.16-15.16,1.43-7,2.9-12.83,2.14-15.63-.63.71-3.31,4-3.94,4.72-5,5.56-9.45,7.88-16.62,10.08-2.18.67-5.92,2.36-8.12,1.29s-1.49-4.45-1.23-6.54c.42-3.3,1.8-6.44,3-9.51s2.08-6,3.11-9a27.51,27.51,0,0,1,13.79-15.39c4.89-2.49,10.72-3.86,15.93-5.54-3.94,1.23-9.07,2.57-12.85,4.18-3.37,1.42-7.47,3.32-9.91,6.14-1.41,1.62-1.92,2.22-3.38,3.79a51,51,0,0,0-3.45,4.66c-2.49,3.45-4.9,7.36-8.28,10a26.54,26.54,0,0,1-6.14,3.91,15.51,15.51,0,0,0-5.54,3.46c0-3.73,1.66-7.23,2.23-10.87a41.9,41.9,0,0,1,3.27-10,50.52,50.52,0,0,1,3.43-7.06c1.08-1.68,2.13-3.35,3-5.13,1.48-2.86,2.8-6,4.69-8.62,1.44-2,3.28-4.44,3.57-7-1.26.74-2.58,1.12-3.78,2a47.87,47.87,0,0,1-7,4.64c-2,1-4.12,2.23-6.12,3.29,0,0,2-5.26,2.23-6a36.67,36.67,0,0,1,2.22-4.86c1.48-3,3.11-6,4.78-8.8,1.29-2.22,2.31-4.43,3.74-6.57s6.72-7.73,7.18-9.26c-5.66,1.4-7.37,3-13.43,6-2.72,1.35-8,5.54-10.83,6.56.19-3,.09-6.4.39-9.42a27.13,27.13,0,0,1,2.83-8.68c1-2.1,2.83-3.18,4.63-4.56,3.41-2.67,11.2-5.25,14.22-6-3.14.1-6.27.23-9.39.6-4.7.55-9.46,1.44-14-.47a6.81,6.81,0,0,1-4-4.38c-.67-3.2.54-7.17,3.2-9.1a38.8,38.8,0,0,1,9.17-5,86.41,86.41,0,0,1,8.87-2.46c1.79-.41,7.18-1.07,9-.69a55.1,55.1,0,0,0-8-3.14,49.24,49.24,0,0,1-11.72-5c-1.46-.89-2.74-2.07-4.18-3-1.06-.67-3.75-1.85-3.9-3.21a52.53,52.53,0,0,1,5.91-.15c9,.76,19.3,2.12,28.24,2.29-3.69-4.86-9.65-9.38-14.41-13.17-2.84-2.25-5.71-4.48-8.37-6.93-1.54-1.44-3.84-3.34-4.38-5.49-1-3.85,6.34-2.85,8.28-2.61,8.5,1,16.32,4.07,24,7.67-.12-1.59-1.3-3.24-2.2-4.52-3.27-4.64-6.12-9.5-10.51-13.31-1.68-1.45-3.51-3.26-4.23-5.42-.42-1.24-1.17-2.81-1.07-4.14a28.21,28.21,0,0,1,7,.86,23.4,23.4,0,0,1,7,3.17,23.88,23.88,0,0,1,5.13,4.41c1.63,2.12,3.38,4.27,4.87,6.47s3.63,4.22,4.88,6.69a50.06,50.06,0,0,0-1.43-17.38c-1.49-5.19-2.78-13-1.87-18.09,2.84.43,5.71,2.67,8.3,3.89,5.37,2.52,6.72,6.6,8.38,12.27a65.09,65.09,0,0,0,7.53,16,176.42,176.42,0,0,0,1.55-17.66c.15-4.61-.84-12.21,1.56-16.38,2.72-4.72,6.36,1.79,8.14,4.24a88.26,88.26,0,0,1,7.24,11.94c2.12,4.19,3.6,9.26,6.27,13.15,1.94-3.15,5.18-6.35,7.7-9.07C814.45,4.88,824-2.34,826.44-.53s1.77,4.39,1.18,7.18a101.36,101.36,0,0,1-3.22,10.56c.63-.3,10.54-5.73,14.38-10.64A65.38,65.38,0,0,1,844.54.44c.93-1,4.39-3.77,5.89-3.51,1.72.31,1.73,3.08,1.62,4.45a48.34,48.34,0,0,1-2.14,10.35A53.59,53.59,0,0,0,848,21.1c-.33,2.48-1.71,9.71,1.88,10.61,3.42.87,7.11-3.49,9.48-5.54,2.66-2.3,4.88-5.05,7.48-7.42,2.05-1.87,4.74-3.63,7.53-2,2.46,1.42,2.68,5.24,2.94,7.78.45,4.35.94,8.71,1.68,13,.13.78,1.16,10.23,2.59,9.78,2.15-.67,4.37-4.92,5.61-6.63,2.78-3.83,4.9-8.1,7.65-12,1.89-2.66,4.26-7,8-7.21,4.19-.26,5.79,4.21,6.44,7.54a67.94,67.94,0,0,0,2.93,10.67c4.38-1.76,14.22-13.46,16.23-17a36.41,36.41,0,0,1,7.38-9.28c2.93-2.54,4.85,1,5.13,4.37.34,4-1.22,8.14-1.62,12.14s-.77,9.47-1.29,13.51c5.92-1.46,11.55-5,16.36-9.2,3.53-3.1,7.91-9.26,13.28-9.67-.51,5.36-2.13,14.27-2.35,19.71,6.56-2.59,15.13-7.22,19.92-12.78,4.09-4.77,10-8.15,14.7-12.27,0,7.44-2.36,16.52-2.45,24.06,2.2.16,4.38-3.36,5.79-4.94,1.69-1.9,3.57-3.74,5.16-5.65a57.63,57.63,0,0,1,8.66-8.85s-.34,17-1.54,23.64a54.24,54.24,0,0,0,8.47-4.79c2.56-1.84,18.48-15.27,20.54-15.5,0,5.2-1.71,14.19-1.7,19.39,5.9-1.28,11.16-6,15.65-10.36,4.19-4,7.66-12.34,12.12-16.12,0,4.31-2.65,10.61-2.46,14.85s.74,10.55-.06,14.67c1.86-3.41,4.29-7.79,6.28-11.43,2.54-4.64,6.88-8.6,10-12.37,2.63,4.41,2.5,8.61,4,12.38,1.78,4.59,5,9.26,7.11,13.64,4.13-3.54,6.09-12.65,7.41-17.57,1.5-5.54,3.65-11.62,5-16.72l0,.38c3.73,3.5,11.63,9.27,13,14.5,2.35-5,2.43-11.21,3.76-16.64,1.66-6.77.31-17.71,2.85-24.17,3.86,3.2,9.87,7,13,11.26-2.75-10.39-1.29-23.79.59-34.53a137.18,137.18,0,0,0,11.5,16.6c-2-5.3-.89-12.14-.43-17.78A113.4,113.4,0,0,1,1154.61-50c1.58,2.32,3,5.35,4.83,7.66,2.3,3,5.36,5.08,7.44,8.27-.29-5.23-1.08-10.44-1.35-15.63-.28-5.56.51-13.26.79-18.89,2.07,2.15,3.22,7.08,5.38,9.26,2.47,2.5,6.17,4.17,7.68,7.5-1.11-3.36.37-8.44.21-12-.19-4.47-.47-11.52.21-16.06,4.9-.34,12.91,5.63,17.15,7.86-1.29-5.13-.89-13.3-.11-18.54,4.73.27,11.12,1.16,12.65-4.21,1.37-4.81.71-10.08,1.87-15,4.65-.63,10.66,1.57,15.62,1.51-1.26-3.93-5.88-6.45-6.77-10.71,2.13-1.61,11.25-7.86,13.13-9.18,4-2.79,11.06-12.16,11.06-12.16Z"/><path class="cls-1" d="M-168.61,207.23c19.77,17.35,18.79,17.51,27.44,31.35,6-4.28,12.59-17.05,18.19-21.86-1.21,8.52-4.08,19-6.15,27.39,4.95-3.47,9.26-8.3,14.2-12,6.44-4.81,10.86-9.83,17.73-12.79.9,6.72-1.91,17.26-5.73,23.08,10.78-9.8,30.8-18.16,30.8-18.16-.88,4.5-3.35,9.87-4.33,13.34-1.41,4.92-2.33,6.87-4.71,14.13,5.34-4.41,10.79-10.1,15.91-13.07,3.19-1.85,6.66-4.1,10-5.81,2.33-1.19,5.94-3.85,8.51-3.54A25.85,25.85,0,0,0-51.51,242c-.38,4.55-.14,8.27.29,14.85a32.08,32.08,0,0,1,11-11.31c5.36-3.29,13.12-7.85,19.54-9.53-1.67,3.85-4.55,8.05-5.2,13.12A78.52,78.52,0,0,1-31,269.49c4-1.67,4.78-4.27,7-6.08,4.85-3.94,8.88-5.71,13.25-10.16C-6.87,249.31.06,245.34,5,243.12c-2.62,5-2.63,7.43-4,12.42C.33,258.17.47,268.27,0,272c1.67-1.88,3.1-4,4.87-5.75a53.52,53.52,0,0,1,13.92-10.18,108.14,108.14,0,0,1,15.82-6.22c.33,6.41-.8,9.84-3.59,18.44-1.67,5.16-2.62,7.2-5.91,16C31.56,282,37.08,278,43.51,275.2,50.23,272.28,56,268.32,62.35,264c0,0-.36,10.27-1,16.81-.18,1.82-1.68,11.73-2.23,13.49,1.36-1.23,7-7,8.55-8.08,4.4-3,6.06-3.65,10.74-6.23,3.19-1.75,6.44-3.18,9.78-4.64,2.09-.9,5.88-3.49,8-4.18-.15,1.8-1.64,4.51-1.88,6.34s-.08,3.79-.25,5.67a89.2,89.2,0,0,1-1.35,9.9c-.48,2.23-1.18,5.31-2.31,7.19,2.69-.41,14.09-4,18.25-7.12,2.13-1.62,15.45-11.4,16.84-11.83-1.09,6-6.53,14-10,19.05-1.89,2.74-8.7,12.39-9.4,13.18a62.74,62.74,0,0,1,9.22-4.2c6.39-2.31,26.44-9.07,31.26-11,2.31-.91,8.53-3.06,10.94-3.7-1.49,5.9-5.86,11.4-9.23,16.45a156.8,156.8,0,0,0-7.43,15.14c2.32-.41,8.84-3,11.14-3.73a83.44,83.44,0,0,0,17.13-7.15c1.21-.64,15.78-6.69,18.2-7.11-1,4.67-7.81,16-9.23,18.89-1.27,2.61-5.73,9.83-7.41,13.57,2.57-1.22,6-3.38,8.87-4.06,2.59-.62,5.08-1.39,7.66-2l9.89-2.38c1.38-.33,6.74-1.31,8-.72-3.77,3.92-6.54,9.25-9.74,13.63-2.76,3.79-5,8.38-8.47,11.53,1.15.78,27.91-6.09,37.2-7.86l14-2.72c1.47-.29,5.3-1.26,8.9.66-.63,2.14-13.13,10.07-17,12.75-3,2-17.58,12.84-20.26,17.5,4.73-1.3,10.93-2.45,15.69-3.6a87.13,87.13,0,0,1,10.37-2c2.83-.33,5.71-.65,8.51-1.16a160.12,160.12,0,0,1,18.58-2.33c-1.11.55-9.54,8.45-10.19,9.45-1,1.57-10.89,12.74-14.43,15,2.53-.64,5.39-.82,8-1.27,5.71-1,11.43-1.85,17.09-3.21,4-1,7.85-1.86,12-1.34,2.63.33,8,2,9.79,4.47-1.69,2.33-14.26,8.19-17.46,10.52a86.11,86.11,0,0,1-12,7.41c-5.46,2.74-11,4.87-16.19,7.93a45.75,45.75,0,0,0,10.17,2.66,57.87,57.87,0,0,0,16.46-.48c5.52-.94,24.13-3.16,28.52-3.62,1.9-.2,9,1,7.84,2.82-3.79,6.33-8.33,9.13-11.55,10.25A45.25,45.25,0,0,0,279.24,434c-1.78,1.11-10.9,8.87-5.81,9.79,3.94.7,9.91.55,13.89.95,4.62.47,9.24,0,13.87.4s9.65-.13,14.25.19c3.29.23,6.85,2.1,9.19,3.34s-.35,4.76-1.85,5.84c-3.7,2.65-6.31,4.46-9.3,7.86-1.49,1.71-7,6.31-5.17,8.84,1.43,2,6.39,3.4,8.66,3.7,7.45,1,16.42.3,22.83,4.87,1.47,1.06,4.77,3.9,1.42,4.6-2.41.5-13.31,2.95-16.49,3.79-10.13,2.7-22.5,10-24.22,11.49,10.53,3.58,36.92,4.3,39.95,5.26,3.92,1.26,9.5,4.16,3.05,6.28-3.79,1.25-9.26,2.67-13.06,3.93-2.07.69-9.86,3-13.17,5.79l-.23.2c.64.67,4.43,6.61,10,9.89a34.67,34.67,0,0,0,5.68,2.77c1.78.64,28.4,8.57,33,11.42-2.59,1.29-5.57,2.32-8.33,3.45-10.1,4.15-21.39,5.46-31.86,8.68,3,2.29,16,7.63,18.79,8.46,3.72,1.08,7.59,1.6,11.38,2.33,7.11,1.34,15.25,4.33,19.87,10.24-6.24,1.37-12.35,3.25-18.62,4.53-3.2.65-6.17,1.85-9.33,2.65-2.42.61-6.31,1.84-7.87,3.94-4.06,5.48,7.53,9,11,10.31,6.59,2.43,13.53,3.27,20.38,4.66a57.21,57.21,0,0,1,16.45,6.14s-10.71,4.78-14.14,5.68c-2.69.7-12.69,3.38-14.53,5.76s1.47,2.48,4.29,3.66c5.62,2.35,9.85,4,14.61,5.56,8.53,2.82,13.08,1.84,17.63,4,2.44,1.13,8.22,3,4.14,4.18-7.35,2.18-16.29,5.2-23.63,7.38-3.18.95-6.57,1.88-9.32,3.81-1.82,1.28-8.81,4.52-6.39,7.08,1.38,1.46,5,1.68,6.75,2.46a26.76,26.76,0,0,0,5.25,1.82c3.53.72,5.44,1,9,1.91,3.16.84,7.14,2.48,9.86,3.17,1.58.39,9.17,4.64,7.72,6.1-1.11,1.12-5,1.89-6.47,2.39-3,1.06-6,2.24-8.89,3.58-2.29,1.05-10,3.77-9.89,7.21.09,2.27,4.45,2.09,6.08,2.3,2.75.35,5.5.4,8.25.67,4.1.41,7.36,2.24,11.06,3.82a38,38,0,0,1,9,5c-2.24.4-11.29,1.69-13.55,2.24-6.4,1.54-6,1.76-12.46,3.3-2.84.68-5.63,1.65-8.41,2.45-1.5.43-7,1.58-7.58,2.11,3,.09,15.16,3.48,16.44,4.11,2.16,1.08,8.52,2.56,10.86,3.25a20.66,20.66,0,0,1,5.79,3.15,14.65,14.65,0,0,1,2.18,2.88,13.59,13.59,0,0,1-3.76,1.35,77.74,77.74,0,0,1-8.38,1.58,19.38,19.38,0,0,1-3.51.49c-5.69-.06-11.48,1.28-17.15,1.92-7.89.9-14.6,1.38-17.29,3.17,1,.41,5.4,2.1,6.36,2.53,7.63,3.36,11.63,7.27,16.45,14.1,1.47,2.07,4.55,5.44,4.18,8.14s-4.19,3.13-6.49,3.58c-3.65.7-7.45.33-11.11.15s-7.05-.13-10.59-.17a30.65,30.65,0,0,1-21.08-9.26c-4.35-4.32-7.82-10-11.41-15,2.67,3.75,5.88,8.72,8.89,12.16,2.67,3.07,6.12,6.75,9.94,8.36,2.21.93,3,1.26,5.2,2.26a56.45,56.45,0,0,0,6.13,2c4.52,1.43,9.5,2.63,13.45,5.3a28.77,28.77,0,0,1,6.27,5.14,17.24,17.24,0,0,0,5.59,4.66c-3.93,1.32-8.23.76-12.28,1.42a46.59,46.59,0,0,1-11.74,0,55.12,55.12,0,0,1-8.66-1.17c-2.16-.56-4.29-1.1-6.5-1.45-3.53-.56-7.33-.87-10.76-2-2.6-.83-5.84-1.93-8.61-1.35,1.22,1.08,2.08,2.34,3.41,3.31a54.16,54.16,0,0,1,7.33,5.76c1.75,1.83,3.79,3.59,5.61,5.34,0,0-6.26-.27-7.15-.27a40.8,40.8,0,0,1-5.92-.67c-3.66-.53-7.38-1.23-11-2-2.8-.6-5.5-.91-8.26-1.68s-10.51-4.43-12.3-4.39c3.46,5.51,5.72,6.77,11,12.14,2.38,2.42,8.65,6.55,10.71,9.2-3.27.85-6.81,2.12-10.11,2.86a30.25,30.25,0,0,1-10.18,0c-2.57-.34-4.35-1.89-6.44-3.31-4-2.69-9.45-10-11.31-13,1.19,3.28,2.41,6.55,3.89,9.73,2.21,4.79,4.8,9.52,4.36,15a7.58,7.58,0,0,1-3.24,5.74c-3.16,1.83-7.79,1.92-10.75-.22a43,43,0,0,1-8.52-8,95.13,95.13,0,0,1-5.68-8.54c-1.05-1.75-3.62-7.22-3.87-9.34a61.5,61.5,0,0,0-.55,9.59,55.06,55.06,0,0,1-1.19,14.14c-.43,1.85-1.24,3.61-1.72,5.46-.34,1.35-.65,4.61-2,5.24a59.69,59.69,0,0,1-2.21-6.2c-2.32-9.78-4.45-21.17-7.39-30.71-3.86,5.61-6.58,13.48-8.93,19.84-1.4,3.78-2.76,7.6-4.44,11.27-1,2.13-2.2,5.22-4.29,6.55-3.74,2.37-5.22-5.72-5.64-7.86-1.88-9.36-1.36-18.7-.22-28.1-1.64.68-3,2.5-4,3.9-3.78,5.08-7.94,9.79-10.44,15.76-1,2.28-2.24,4.85-4.27,6.36-1.18.88-2.58,2.22-4,2.57a31.28,31.28,0,0,1-1.51-7.69A26.08,26.08,0,0,1,184,799a26.72,26.72,0,0,1,2.89-7c1.68-2.46,3.35-5.06,5.17-7.4s3.2-5.31,5.38-7.49a55.79,55.79,0,0,0-17.91,7.55c-5,3.38-12.77,7.44-18.5,8.26-.54-3.15.84-7,1.23-10.14.81-6.57,4.65-9.41,10.08-13.13a72.48,72.48,0,0,0,14.36-13.55c-7.93,1.47-14.65,3.15-19.24,4.49-4.93,1.45-12.64,5.13-17.88,4-5.94-1.24-.31-7.35,1.66-10.08a99.94,99.94,0,0,1,10.13-11.83c3.7-3.69,8.55-7,11.75-11.2-4-1-8.53-3.29-12.28-5-5.07-2.32-16-9.92-15-13.14,1-3,4-3.4,7.2-3.75a110.9,110.9,0,0,1,12.3-.25c-.54-.56-9.73-9.17-16.26-11.54-3.73-1.34-4.93-2.25-8.5-4-1.34-.64-5.51-3.33-5.75-5-.28-1.94,2.66-2.91,4.14-3.27a54.65,54.65,0,0,1,11.7-1.33,59.13,59.13,0,0,0,10.6-1.18c2.75-.51,10.88-1.56,10.59-5.69-.27-3.91-6.17-6.31-9.16-8.1-3.36-2-7-3.42-10.45-5.36-2.7-1.51-5.5-3.75-4.75-7.27.64-3.1,4.62-4.65,7.21-5.81,4.45-2,8.9-4,13.23-6.31.78-.41,10.43-4.78,9.46-6.14-1.46-2-6.73-2.91-9-3.64-5-1.61-10.28-2.37-15.32-3.95-3.48-1.08-8.87-2.09-10.41-5.91-1.73-4.35,2.46-7.6,5.75-9.44a75,75,0,0,0,10.28-6.81c-3.38-4-19.18-10.39-23.67-11.27a40.82,40.82,0,0,1-12.39-4.59c-3.71-2.23-.64-5.48,2.85-7,4.14-1.75,9-1.53,13.41-2.5s10.31-2.47,14.76-3.32c-3.6-5.77-9.31-10.5-15.42-14.13-4.51-2.67-12.56-5.16-14.85-10.71,5.85-1.32,15.85-2.7,21.68-4.36-5-6-12.9-13.51-20.45-16.65-6.48-2.68-12.12-7.8-18.1-11.31,7.88-2.55,18.31-3.24,26.33-5.76-.6-2.38-5.08-3.47-7.24-4.41-2.6-1.14-5.2-2.49-7.78-3.51a64.48,64.48,0,0,1-12.38-6.1s18.12-5.54,25.57-6.58a60.81,60.81,0,0,0-8-7.31c-2.84-2.07-22.59-14.25-23.55-16.35,5.51-1.79,15.62-3.13,21.12-4.95-3.41-5.8-10.27-9.72-16.41-13-5.73-3-15.72-3.83-21.28-7.24,4.57-1.48,12.15-.88,16.58-2.55s10.92-4.45,15.56-5c-4.26-.77-9.75-1.83-14.28-2.67-5.81-1.08-11.51-4.3-16.57-6.25,3.76-4.32,8.25-5.63,11.74-8.5,4.25-3.47,8.08-8.47,12-12.27-5.18-3.13-15.51-2.05-21.18-1.74-6.38.34-13.57.18-19.45.47l.4-.1c2.42-5.18,5.78-15.55,10.86-18.77-6.09-.75-12.72,1.33-18.93,1.8-7.74.6-18.87,5.82-26.59,5.38,2.05-5.2,4-12.91,7.4-17.7-10,6.52-24.74,9.63-36.77,11.37A153.78,153.78,0,0,0,17.27,373.2c-4.93,3.92-12.56,5.16-18.68,6.63a126.94,126.94,0,0,1-19.15,3.26c1.91-2.48,4.62-5.08,6.44-7.78,2.35-3.46,3.51-7.44,6.17-10.75-5.44,2.12-10.68,4.77-16.08,6.85-5.79,2.24-14.23,4.08-20.28,5.74,1.55-2.94,6.38-5.87,7.93-8.91,1.79-3.49,2.27-8,5.28-10.75-3.17,2.35-9.07,2.54-12.83,4-4.67,1.76-12,4.5-17.08,5.36-2.07-5.07,1.47-15.63,2.36-20.89-5,3.15-13.78,5.56-19.59,6.56-1.36-5.11-2.63-12.19-8.85-11.94-5.58.22-10.93,2.75-16.54,3.23-2.28-4.7-2.05-11.83-3.83-17.07-3.73,2.71-4.79,8.47-9,10.9-2.45-1.7-12.23-9.19-14.28-10.72-4.34-3.26-16.72-7.49-16.72-7.49Z"/><path class="cls-1" d="M1442.93,1285.4c-13.06-19.93-13.33-19.07-24.66-28.59,4.61-4.87,16.9-9.13,21.92-13.55-7.8,0-17.55,1.26-25.35,2,3.74-4,8.62-7.25,12.55-11.22,5.13-5.17,10.19-8.5,13.72-14.29-5.91-1.66-15.72-.47-21.44,2.21,10.16-8.42,20.2-25.33,20.2-25.33-4.15.22-9.28,1.75-12.52,2.2-4.59.64-6.46,1.22-13.27,2.43,4.63-4.23,10.42-8.4,13.73-12.61,2.07-2.63,4.53-5.46,6.48-8.21,1.37-1.94,4.21-4.85,4.26-7.19a23.46,23.46,0,0,1-12,2.63c-4.14-.23-7.44-.92-13.29-2.14a28.84,28.84,0,0,0,11.53-8.42c3.63-4.39,8.71-10.78,11-16.32-3.67,1-7.8,3.06-12.44,3a71.62,71.62,0,0,0-18.87,2c2-3.38,4.43-3.76,6.33-5.52,4.15-3.85,6.25-7.24,10.8-10.59,4-3,8.46-8.69,11.08-12.85-4.81,1.72-7,1.42-11.64,2-2.46.31-11.51-1.09-14.92-1.19,1.9-1.26,3.94-2.28,5.78-3.64a48.64,48.64,0,0,0,10.89-11.2,97.91,97.91,0,0,0,7.58-13.4c-5.71-1.12-8.93-.54-17,.88-4.84.84-6.79,1.44-15.06,3.29,2.81-5.47,7.13-9.92,10.45-15.34,3.48-5.65,7.75-10.32,12.45-15.47,0,0-9.27-1-15.21-1.23-1.66-.07-10.74,0-12.39.3,1.27-1.07,7.18-5.4,8.33-6.66,3.29-3.55,4-5,7-8.84,2-2.64,3.67-5.38,5.4-8.19,1.07-1.76,3.88-4.84,4.76-6.65-1.63-.1-4.26.9-5.92.88s-3.42-.4-5.13-.49a82.6,82.6,0,0,0-9,0,24.11,24.11,0,0,0-6.75,1.16c.71-2.35,5.35-12.13,8.7-15.47,1.72-1.7,12.18-12.42,12.74-13.61-5.49.22-13.39,4.09-18.35,6.56-2.7,1.34-12.22,6.23-13,6.76a57,57,0,0,0,4.94-7.74c2.88-5.44,11.48-22.58,13.8-26.66,1.11-2,3.83-7.27,4.7-9.35-5.48.59-11,3.81-15.92,6.2a144.78,144.78,0,0,1-14.52,4.76c.66-2,3.83-7.56,4.75-9.54a75.94,75.94,0,0,1,8.59-14.46c.73-1,8-13.31,8.68-15.42-4.31.26-15.32,5-18.12,5.88-2.5.81-9.54,3.91-13.11,4.94,1.42-2.15,3.8-5,4.76-7.45.89-2.24,1.89-4.38,2.78-6.62,1.13-2.87,2.25-5.69,3.38-8.57.48-1.2,2-5.88,1.66-7.13-4,2.9-9.12,4.71-13.46,7-3.75,2-8.15,3.42-11.41,6.15-.56-1.14,9-24.27,11.76-32.39,1.4-4.09,2.79-8.14,4.2-12.21.45-1.29,1.81-4.6.54-8.08-2,.3-10.7,10.51-13.58,13.62-2.22,2.39-13.75,14.16-18.27,16,1.76-4.08,3.57-9.49,5.21-13.62a78.67,78.67,0,0,0,3.13-9c.66-2.49,1.31-5,2.13-7.48a147.62,147.62,0,0,0,4.43-16.38c-.63.93-8.78,7.48-9.77,8-1.53.72-12.8,8.15-15.27,11,.9-2.19,1.42-4.73,2.15-7,1.59-5,3.11-10,5-14.93,1.38-3.5,2.66-6.81,2.72-10.63,0-2.4-.84-7.38-2.77-9.34-2.3,1.22-9.16,11.76-11.65,14.34a79,79,0,0,0-8.17,9.79c-3.14,4.56-5.75,9.24-9.15,13.52a41.66,41.66,0,0,1-1.11-9.45,52.73,52.73,0,0,1,2.52-14.72c1.54-4.82,5.89-21.24,6.86-25.13.41-1.67.25-8.14-1.55-7.39-6.16,2.6-9.24,6.32-10.65,9.07a41.15,41.15,0,0,1-6.47,9.91c-1.22,1.46-9.34,8.67-9.51,4-.14-3.62.75-9,.89-12.59.17-4.2,1.16-8.29,1.4-12.48s1.34-8.65,1.63-12.82c.22-3-1-6.41-1.83-8.67s-4.32-.28-5.48.93a43.11,43.11,0,0,1-8.23,7.34c-1.71,1.12-6.53,5.45-8.58,3.53-1.63-1.54-2.24-6.17-2.22-8.24.07-6.81,1.81-14.77-1.48-21.1-.77-1.45-2.9-4.78-4-1.86-.76,2.1-4.33,11.57-5.49,14.31-3.7,8.75-11.84,18.92-13.37,20.28-1.88-9.9.82-33.67.33-36.51-.63-3.67-2.53-9.05-5.25-3.53-1.59,3.24-3.57,8-5.18,11.22-.88,1.77-3.94,8.47-6.86,11.09l-.2.18c-.53-.66-5.37-4.81-7.61-10.23a30.59,30.59,0,0,1-1.77-5.44c-.35-1.68-4.1-26.56-6.07-31-1.49,2.17-2.79,4.71-4.15,7-5,8.54-7.61,18.51-11.82,27.49-1.68-3-4.83-15.28-5.21-17.93-.5-3.47-.48-7-.65-10.51-.3-6.54-2-14.23-6.68-19.12-2,5.43-4.47,10.67-6.42,16.14-1,2.78-2.44,5.3-3.56,8-.85,2.09-2.45,5.43-4.53,6.56-5.43,3-7.14-7.89-7.85-11.2-1.35-6.23-1.23-12.56-1.6-18.88a52.09,52.09,0,0,0-3.43-15.54s-5.65,9-6.88,12c-1,2.32-4.64,11-7,12.3s-2-1.63-2.74-4.31c-1.39-5.33-2.33-9.34-3.14-13.81-1.45-8,0-12-1.32-16.32-.72-2.33-1.62-7.75-3.23-4.24-2.89,6.32-6.73,14-9.62,20.27-1.25,2.73-2.51,5.65-4.59,7.87-1.38,1.48-5.17,7.34-7.16,4.85-1.14-1.42-.89-4.67-1.36-6.38a24.54,24.54,0,0,1-1-4.94c-.19-3.26-.17-5-.57-8.27-.36-2.94-1.33-6.72-1.6-9.24-.15-1.47-3-8.81-4.5-7.7-1.15.85-2.33,4.28-3,5.5-1.33,2.57-2.76,5.09-4.33,7.52-1.23,1.92-4.66,8.54-7.72,8-2-.38-1.32-4.26-1.29-5.75,0-2.51.34-5,.44-7.49.15-3.73-1.08-6.89-2-10.41a34.61,34.61,0,0,0-3.33-8.69c-.64,2-3,9.91-3.72,11.87-2.2,5.55-2.34,5.18-4.55,10.77-1,2.46-2.18,4.84-3.26,7.23-.57,1.29-2.3,6.11-2.85,6.53.31-2.74-1.21-14-1.61-15.26-.69-2.08-1.21-8-1.54-10.16a18.79,18.79,0,0,0-2.09-5.6,13,13,0,0,0-2.31-2.31,11.9,11.9,0,0,0-1.68,3.2,69.27,69.27,0,0,0-2.48,7.32,17.23,17.23,0,0,0-.89,3.09c-.66,5.11-2.6,10.13-3.89,15.14-1.81,7-3.09,12.92-5,15.12-.25-.93-1.2-5.12-1.46-6-2.06-7.27-5.06-11.35-10.57-16.54-1.68-1.58-4.31-4.77-6.78-4.78s-3.34,3.36-4,5.38c-1.1,3.17-1.24,6.63-1.54,9.94s-.78,6.34-1.19,9.52a27.8,27.8,0,0,0,5.64,20.09c3.33,4.44,8,8.28,12,12.12-3-2.87-7.08-6.37-9.79-9.51-2.41-2.78-5.28-6.34-6.24-10-.55-2.11-.75-2.87-1.37-4.95a50.74,50.74,0,0,1-1-5.76c-.72-4.24-1.16-8.85-3-12.74a26.15,26.15,0,0,0-3.83-6.28,15.65,15.65,0,0,1-3.47-5.6c-1.69,3.36-1.72,7.28-2.83,10.83a42.56,42.56,0,0,0-1.5,10.53,52.47,52.47,0,0,0,0,7.93c.23,2,.44,4,.48,6,.06,3.25-.15,6.69.4,9.9.42,2.45,1,5.49.13,7.9-.81-1.23-1.84-2.16-2.54-3.48a48.84,48.84,0,0,0-4.24-7.3c-1.42-1.8-2.75-3.86-4.08-5.71,0,0-.56,5.65-.66,6.45a37.4,37.4,0,0,0-.16,5.4c0,3.34.18,6.77.41,10.1.18,2.59.12,5,.46,7.62s2.65,10,2.39,11.59c-4.51-3.8-5.35-6-9.51-11.4-1.87-2.44-4.78-8.59-6.89-10.77-1.18,2.82-2.77,5.84-3.85,8.71a27.69,27.69,0,0,0-1.3,9.13c0,2.35,1.15,4.14,2.16,6.19,1.9,3.94,7.81,9.75,10.2,11.8-2.8-1.49-5.58-3-8.24-4.73-4-2.59-7.93-5.51-12.91-5.81a6.85,6.85,0,0,0-5.56,2.18c-2,2.61-2.71,6.75-1.16,9.67a39,39,0,0,0,6.07,8.65,88.53,88.53,0,0,0,7,6.19c1.43,1.16,6,4.16,7.89,4.65a54.73,54.73,0,0,1-8.67-.72,49.83,49.83,0,0,0-12.84-.72c-1.72.15-3.4.65-5.12.85-1.25.13-4.22,0-5,1.17a55,55,0,0,0,5.29,2.77c8.48,3.31,18.43,6.67,26.61,10.51-5.52,2.76-12.93,4.2-18.93,5.5-3.57.78-7.17,1.52-10.67,2.56-2,.62-5,1.31-6.42,3-2.61,3.06,4.47,5.41,6.34,6.06,8.16,2.87,16.61,3.58,25.18,3.75-.82,1.39-2.62,2.36-4,3.12-5,2.74-9.78,5.87-15.46,7.37-2.16.56-4.63,1.39-6.25,3-.93,1-2.31,2-2.81,3.28a28.41,28.41,0,0,0,6.71,2.33,23.61,23.61,0,0,0,7.73.24,24.47,24.47,0,0,0,6.61-1.71c2.43-1.2,5-2.37,7.3-3.7s5.17-2.2,7.4-3.89a50.66,50.66,0,0,1-9,15.12c-3.66,4-8.29,10.51-9.75,15.56,2.76.88,6.36.12,9.25.18,6,.1,9-3,13.06-7.39a66.09,66.09,0,0,1,14-11.17c-2.32,6.93-4.68,12.75-6.46,16.69-1.92,4.24-6.2,10.7-5.89,15.54.36,5.49,6.56,1.21,9.26-.21a90.39,90.39,0,0,0,11.89-7.6c3.78-2.85,7.38-6.78,11.54-9.12.35,3.71,1.87,8.06,2.94,11.65,1.44,4.84,6.87,15.64,9.9,15.09,2.86-.52,3.56-3.2,4.27-6a101.59,101.59,0,0,0,1.78-11c.44.56,7,9.9,8.3,16a64.55,64.55,0,0,0,2.48,8.13c.41,1.28,2.3,5.36,3.77,5.8,1.7.49,2.95-2,3.46-3.31a49.49,49.49,0,0,0,2.67-10.33,53.91,53.91,0,0,1,2.4-9.36c.81-2.4,2.78-9.56,6.45-8.78,3.48.73,4.88,6.33,6.11,9.25,1.39,3.26,2.18,6.74,3.48,10.05,1,2.61,2.67,5.41,5.93,5.18,2.86-.18,4.76-3.56,6.12-5.74,2.35-3.74,4.74-7.47,7.34-11.07.47-.64,5.61-8.75,6.7-7.71,1.65,1.57,1.77,6.41,2.13,8.51.81,4.71.83,9.53,1.61,14.25.53,3.25.75,8.22,4,10.08,3.68,2.1,7.12-1.24,9.19-4a67.8,67.8,0,0,1,7.42-8.37c3.18,3.55,6.89,18.53,7.11,22.67a37.21,37.21,0,0,0,2.55,11.7c1.53,3.61,4.84,1.26,6.6-1.68,2.1-3.49,2.53-7.92,3.94-11.72s3.53-8.93,4.85-12.82c4.72,4,8.24,9.68,10.73,15.63,1.82,4.38,3,11.92,7.73,14.68,1.92-5.08,4.43-13.89,6.65-18.91,4.79,5.27,10.5,13.29,12.35,20.46,1.59,6.15,5.47,11.86,7.86,17.67,3.29-6.75,5.23-16,8.51-22.9,2.06.84,2.46,5,3,7.06.69,2.47,1.57,5,2.16,7.42a57.85,57.85,0,0,0,3.91,11.88s7.26-15.55,9.13-22.11a54.41,54.41,0,0,1,5.55,8.12c1.5,2.8,9.93,22.07,11.7,23.19,2.29-4.72,4.78-13.61,7.1-18.32,4.78,3.79,7.43,10.44,9.56,16.36,2,5.53,1.45,14.6,3.81,20,1.91-3.91,2.33-10.79,4.38-14.55s5.38-9.23,6.49-13.33c.16,3.93.41,9,.6,13.16.23,5.34,2.4,10.87,3.5,15.66,4.36-2.83,6.11-6.7,9.12-9.46,3.65-3.37,8.62-6.18,12.52-9.19,2.16,5-.12,14.18-1.11,19.22-1.12,5.69-1.88,12.16-2.88,17.4l.13-.35c5-1.51,14.68-3.22,18.22-7.37-.1,5.56-2.8,11.24-4,16.75-1.51,6.88-7.6,16.2-8.18,23.18,4.92-1.18,12.09-2,16.81-4.4-7.11,8.19-11.77,21-14.85,31.56a138.91,138.91,0,0,1,17.82-9.92c-4.13,3.92-6.21,10.61-8.31,15.91a114.82,114.82,0,0,0-5.34,16.77c2.46-1.4,5.14-3.5,7.79-4.79,3.41-1.67,7.12-2.21,10.43-4.17-2.59,4.61-5.63,9-8.19,13.56-2.74,4.91-5.45,12.25-7.71,17.47,2.83-1,6.08-5,9-6,3.36-1.16,7.46-1,10.31-3.37-2.51,2.54-3.43,7.82-5.18,11-2.16,4-5.56,10.23-7,14.65,4.29,2.49,14.21.65,19.05.52-3.46,4.07-6.74,11.66-8.37,16.75,4.42,1.87,10.6,3.91,9.59,9.45-.9,5-3.84,9.46-5,14.43,3.92,2.65,10.35,3.34,14.82,5.6-2.89,3-8.2,3.23-10.91,6.68,1.21,2.42,6.7,12.14,7.81,14.18,2.37,4.3,4.61,16,4.61,16Z"/><path class="cls-1" d="M422.57,1714c5.36-23.36,4.55-23,3.55-37.8,6.75,0,18.4,5.89,25.11,6.45-5.44-5.65-13.15-11.85-19.16-17,5.51-.07,11.27,1.2,16.89,1.29,7.32.12,13.27,1.47,19.93,0-2.92-5.44-10.62-11.73-16.55-14,13.19,1.49,32.45-3,32.45-3-3.05-2.85-7.74-5.5-10.32-7.54-3.67-2.89-5.39-3.84-11-7.93,6.29.41,13.36,1.7,18.72,1.17,3.35-.34,7.11-.52,10.47-1,2.36-.36,6.44-.32,8.18-1.91a23.71,23.71,0,0,1-10.29-6.89c-2.71-3.16-4.52-6-7.7-11.13a29.15,29.15,0,0,0,14.14,2.5c5.71-.43,13.89-1.2,19.52-3.38-3.28-2-7.65-3.53-10.84-6.93a72.19,72.19,0,0,0-14.59-12.31c3.84-.89,5.81.61,8.41.76,5.68.33,9.61-.52,15.21.45,5,.85,12.19.08,17-.91-4.6-2.29-5.91-4.1-9.56-7.07-1.93-1.56-7.22-9.1-9.53-11.65,2.24.51,4.4,1.28,6.67,1.66a48.72,48.72,0,0,0,15.71.1,99.53,99.53,0,0,0,15-3.84c-3.17-4.92-5.84-6.85-12.49-11.72-4-2.92-5.78-3.93-12.88-8.64,5.93-1.76,12.16-1.73,18.41-3.09,6.52-1.42,12.89-1.57,19.89-1.76,0,0-5.74-7.4-9.7-11.89-1.11-1.25-7.5-7.78-8.85-8.78,1.66.18,8.92,1.45,10.63,1.41,4.87-.09,6.42-.53,11.25-1.13,3.3-.4,6.47-1.08,9.71-1.78,2-.45,6.21-.56,8.14-1.18-1.06-1.25-3.62-2.46-4.77-3.68s-2.08-2.76-3.21-4.06a78.14,78.14,0,0,0-6.28-6.59,24,24,0,0,0-5.54-4.09c2.21-1.13,12.53-4.57,17.29-4.47,2.43.06,17.49.18,18.75-.24-4-3.83-12.3-6.87-17.55-8.74-2.86-1-13-4.52-14-4.73a56.65,56.65,0,0,0,9-1.81c6-1.71,24.38-7.41,29-8.57,2.2-.56,7.95-2.28,10.06-3.1-4.24-3.57-10.41-5.3-15.59-7.23a143.67,143.67,0,0,1-13.56-7.22c1.93-.94,8.15-2.49,10.22-3.2a76.63,76.63,0,0,1,16.47-3.85c1.24-.17,15.23-3.47,17.24-4.45-3.2-2.94-14.28-7.63-16.89-9-2.34-1.25-9.48-4.2-12.72-6.07,2.55-.47,6.28-.73,8.72-1.73,2.25-.92,4.5-1.69,6.74-2.6,2.87-1.18,5.7-2.33,8.57-3.52,1.2-.49,5.68-2.63,6.33-3.76-4.88-.88-9.77-3.34-14.47-4.88-4.06-1.33-8.16-3.52-12.41-4,.43-1.2,23.87-10.39,31.68-14l11.8-5.46c1.24-.57,4.59-1.89,6.23-5.23-1.62-1.25-15.08-.44-19.35-.37-3.28.06-19.85-.11-24.31-2.13,4.18-1.56,9.38-4,13.51-5.7a77.85,77.85,0,0,0,8.75-4c2.26-1.26,4.56-2.55,6.91-3.67a144,144,0,0,0,15-8.2c-1.11.19-11.54-1.15-12.56-1.54-1.6-.62-14.85-3.61-18.66-3.38,2.21-.88,4.42-2.27,6.6-3.34,4.73-2.34,9.44-4.73,14.35-6.74,3.5-1.44,6.79-2.82,9.6-5.44,1.77-1.64,4.78-5.75,4.85-8.52-2.49-.82-14.91,1.56-18.52,1.55a78.29,78.29,0,0,0-12.79.9c-5.5.89-10.71,2.26-16.19,2.78a41.51,41.51,0,0,1,6.09-7.39,52.34,52.34,0,0,1,12.42-8.43c4.58-2.24,19.52-10.53,23-12.54,1.51-.87,6.08-5.49,4.28-6.27-6.17-2.65-11-2.3-14-1.41a41.08,41.08,0,0,1-11.7,2.22c-1.9.13-12.79-.74-9.51-4.13,2.54-2.62,7-5.7,9.76-8.12,3.16-2.81,6.82-4.94,10-7.69s7.2-5,10.43-7.75c2.31-1.92,3.94-5.2,5-7.36s-2.8-3.33-4.49-3.33c-4.14,0-7,.07-11.06-.85-2-.47-8.5-1-8.53-3.77,0-2.26,2.9-5.92,4.43-7.36,5-4.69,12-9,14.27-15.77.52-1.57,1.44-5.43-1.4-4.16-2.05.91-11.42,4.92-14.21,6-8.93,3.41-22,4.59-24,4.43,5.87-8.26,25-22.87,26.72-25.2,2.22-3,4.8-8.14-1.1-6.26-3.46,1.1-8.27,3-11.75,4.06-1.89.59-8.89,3-12.82,2.75l-.28,0c.12-.83-.25-7.24,2.12-12.64a31.37,31.37,0,0,1,2.72-5.08c1-1.42,16.41-21.48,18.28-26-2.6.43-5.35,1.26-8,1.9-9.68,2.32-18.73,7.37-28.19,10.58,1-3.31,7.73-14.15,9.38-16.28,2.17-2.78,4.76-5.23,7.17-7.79,4.54-4.78,9-11.34,9.22-18.17-5.34,2.32-10.86,4.19-16.18,6.59-2.71,1.22-5.54,1.93-8.31,3-2.11.84-5.64,2-7.91,1.28-5.93-1.88.75-10.68,2.65-13.5,3.58-5.32,8.26-9.64,12.58-14.32a51.94,51.94,0,0,0,8.88-13.31s-10.46,2.18-13.47,3.35c-2.37.91-11.18,4.27-13.82,3.48-2.48-.74-.24-2.61,1.22-5,2.9-4.73,5.15-8.2,7.83-11.9,4.8-6.63,8.69-8.33,10.92-12.33,1.19-2.14,4.49-6.58.82-5.3-6.59,2.31-14.81,4.85-21.4,7.15-2.86,1-5.85,2.11-8.91,2.15-2,0-8.92,1.37-8.51-1.82.24-1.81,2.77-3.89,3.68-5.42a25,25,0,0,1,2.91-4.15c2.23-2.41,3.51-3.61,5.6-6.18,1.89-2.31,4-5.64,5.59-7.6,1-1.13,4.3-8.32,2.45-8.63-1.42-.23-4.73,1.3-6.06,1.69-2.79.82-5.61,1.54-8.47,2.1-2.25.44-9.44,2.56-11.16,0-1.14-1.74,2.17-3.93,3.27-5,1.84-1.72,3.85-3.23,5.74-4.9,2.8-2.48,4.24-5.58,6.14-8.72a34.53,34.53,0,0,0,4-8.47c-1.87.9-9.25,4.77-11.21,5.57-5.55,2.28-5.39,1.91-11,4.21-2.46,1-5,1.79-7.52,2.67-1.33.48-6,2.58-6.72,2.48,2.2-1.68,9.34-10.65,9.95-11.8,1-1.95,4.93-6.43,6.29-8.19a18.64,18.64,0,0,0,2.6-5.43,13.31,13.31,0,0,0,.08-3.28,12.27,12.27,0,0,0-3.5,1,71.62,71.62,0,0,0-7,3.3,18.56,18.56,0,0,0-2.86,1.51c-4.16,3.08-9.16,5.18-13.7,7.73-6.3,3.54-11.51,6.76-14.46,6.88.5-.82,2.87-4.43,3.36-5.26,3.84-6.56,4.71-11.57,4.63-19.19,0-2.32.46-6.46-1.26-8.26s-4.76-.07-6.7.83c-3.07,1.42-5.68,3.72-8.29,5.81s-5.14,3.86-7.73,5.78a27.9,27.9,0,0,0-10.64,18.09c-.91,5.5-.44,11.56-.46,17.12,0-4.19-.31-9.57.08-13.72.34-3.7.92-8.26,2.89-11.48,1.14-1.87,1.56-2.55,2.63-4.45a52.93,52.93,0,0,1,3.45-4.77c2.57-3.47,5.61-7,7.11-11.09a26.7,26.7,0,0,0,1.89-7.15,15.87,15.87,0,0,1,1.65-6.43c-3.62,1.13-6.49,3.84-9.83,5.51a42,42,0,0,0-8.69,6.25,49.85,49.85,0,0,0-5.77,5.49c-1.3,1.57-2.59,3.1-4,4.53-2.31,2.31-5,4.56-6.9,7.2-1.48,2-3.29,4.54-5.64,5.59.32-1.45.29-2.84.75-4.26a49.19,49.19,0,0,0,2.34-8.17c.32-2.29.89-4.68,1.3-6.94,0,0-4.48,3.54-5.14,4a36.48,36.48,0,0,0-4,3.64c-2.42,2.35-4.79,4.85-7.05,7.34-1.75,1.94-3.57,3.6-5.2,5.65s-5.41,8.88-6.75,9.8c-.38-5.91.61-8,1.65-14.84.47-3.06,2.9-9.45,3-12.5-2.87,1.11-6.16,2.06-9,3.28a27.86,27.86,0,0,0-7.53,5.41c-1.71,1.63-2.2,3.72-3,5.88-1.53,4.13-1.62,12.46-1.44,15.62-.88-3.06-1.72-6.13-2.32-9.26-.92-4.72-1.52-9.6-4.77-13.42a6.93,6.93,0,0,0-5.46-2.51c-3.32.33-6.79,2.74-7.83,5.89a38.88,38.88,0,0,0-2,10.44,88.16,88.16,0,0,0,.35,9.34c.16,1.85,1.18,7.27,2.12,9a56.16,56.16,0,0,1-5.51-6.79,50,50,0,0,0-8.43-9.82c-1.31-1.14-2.84-2-4.18-3.12-1-.82-2.94-3.06-4.3-2.79a52.85,52.85,0,0,0,1.67,5.77c3.51,8.46,8,18,10.92,26.63-5.84-2.08-12.05-6.45-17.18-9.9-3.05-2-6.1-4.14-9.29-6-1.87-1-4.41-2.68-6.66-2.55-4,.25-.81,7,0,8.82,3.61,7.92,9,14.55,14.83,20.88-1.58.38-3.54-.26-5.05-.73-5.5-1.74-11.08-3-16.12-6.08-1.92-1.18-4.24-2.39-6.55-2.43-1.33,0-3.09-.26-4.34.25a28.75,28.75,0,0,0,3,6.49,23.49,23.49,0,0,0,5.21,5.77,24.43,24.43,0,0,0,5.85,3.61c2.56.92,5.18,2,7.77,2.71s5.19,2.22,8,2.66a51,51,0,0,1-17.26,4c-5.48.16-13.41,1.31-18.08,3.77,1.28,2.61,4.34,4.7,6.32,6.83,4.1,4.42,8.45,4.47,14.45,4.33a66.25,66.25,0,0,1,17.84,2.34,179.92,179.92,0,0,1-16.61,7c-4.42,1.56-12.08,3-15.37,6.56-3.73,4.08,3.69,5.59,6.6,6.56a90.4,90.4,0,0,0,13.8,3.34c4.7.75,10.06.62,14.65,2-2.44,2.85-4.54,7-6.4,10.25-2.51,4.42-6.55,15.88-4.05,17.7s4.8.35,7.32-1.08a101.33,101.33,0,0,0,9.23-6.37c-.11.7-2.31,12-5.87,17.2a64.73,64.73,0,0,0-4.16,7.47c-.65,1.19-2.29,5.4-1.58,6.77.83,1.58,3.52.73,4.81.21a50.59,50.59,0,0,0,9.35-5.26,54.25,54.25,0,0,1,8.47-4.79c2.3-1.08,8.87-4.64,10.85-1.44,1.9,3-1.19,8-2.44,10.88-1.4,3.28-3.38,6.28-4.87,9.53-1.18,2.56-2.06,5.7.37,7.9,2.13,2,5.9,1,8.43.45,4.35-.9,8.72-1.77,13.14-2.39.8-.11,10.26-2,10.27-.51,0,2.28-3.42,5.74-4.69,7.47-2.86,3.87-6.33,7.24-9.22,11.09-2,2.66-5.44,6.28-4.53,9.92,1,4.14,5.87,4.31,9.28,3.91a68.07,68.07,0,0,1,11.24-.45c-.36,4.78-8.64,17.91-11.49,21a37.31,37.31,0,0,0-6.71,10c-1.55,3.62,2.46,4.39,5.82,3.62,4-.92,7.5-3.69,11.24-5.31s8.94-3.66,12.69-5.42c.41,6.19-1.29,12.73-3.87,18.67-1.9,4.38-6.52,10.51-5.26,15.83,5-2.14,13.16-6.45,18.35-8.34-.48,7.14-2.32,16.87-6.24,23.22-3.35,5.43-4.79,12.23-7.33,18,7.18-2.32,15.25-7.37,22.53-9.79.83,2.08-1.9,5.27-3,7.12-1.32,2.23-2.51,4.62-3.88,6.74a58.52,58.52,0,0,0-5.89,11.12s16.34-5.57,22.4-8.78a55.22,55.22,0,0,1-2,9.67c-1,3-9.09,22.59-8.68,24.65,5-1.62,13.21-6,18.25-7.61.57,6.1-2.4,12.66-5.21,18.33-2.62,5.3-9.58,11.22-11.86,16.71,4.17-1.34,9.45-5.83,13.61-7s10.44-2.53,14.19-4.58c-2.74,2.85-6.23,6.55-9.13,9.6-3.71,3.89-6.21,9.31-8.91,13.45,5.08,1.19,9.1-.24,13.2,0,5,.3,10.49,1.95,15.4,2.68-2.16,5.08-10.37,9.79-14.72,12.59-4.9,3.15-10.13,7.1-14.63,10l.35-.14c4.55,2.53,12.57,8.4,18,8.08-4.1,3.8-10.11,5.8-14.95,8.76-6,3.69-17.05,5.76-22.52,10.21,4.29,2.75,9.86,7.38,14.91,9.13-10.9.54-23.42,6.08-33.24,11.21a140.49,140.49,0,0,1,19.62,6c-5.73-.26-12,2.88-17.34,5.06a114.85,114.85,0,0,0-15.89,7.81c2.74.81,6.12,1.29,8.91,2.31,3.58,1.31,6.56,3.62,10.29,4.66-5.15,1.33-10.44,2.17-15.54,3.51-5.47,1.44-12.68,4.58-18.05,6.58,2.72,1.34,7.86.93,10.62,2.35,3.19,1.63,5.94,4.7,9.63,5.13-3.59,0-8,3-11.59,3.92-4.39,1.19-11.3,3.09-15.48,5.14,1.18,4.85,9.42,10.77,12.89,14.18-5.36.33-13.15,3.24-18,5.61,1.73,4.5,4.56,10.41-.17,13.54-4.24,2.82-9.54,3.8-13.94,6.44.81,4.68,4.8,9.83,6.27,14.65-4.2,0-8.06-3.7-12.45-3.26-.91,2.56-4.15,13.32-4.84,15.54-1.47,4.72-8.36,14.46-8.36,14.46Z"/></svg>