<svg id="Layer_1" data-name="Layer 1" xmlns="http://www.w3.org/2000/svg" viewBox="0 0 1900 1200"><defs><style>.cls-1{fill:#f5d8cb;}.cls-2{fill:#cac2c4;}</style></defs><title>collections</title><path class="cls-1" d="M1632.15,337.81C1699,257.72,1841.33,292,1900,358.94c-56.25,66.29-162.62,81.56-229.55,26.32-17-14-32.19-18.64-36.35-41.4Z"/><path class="cls-1" d="M1303.27,410.77c-52-6.34-76.46-75.73-64.24-118.77,43.33,5.63,78.83,46.33,73.8,89.65-1.28,11,.93,18.68-7.54,26.65Z"/><path class="cls-1" d="M506.37,112.66C487.42,63.77,537.09,9.52,580.81,0c15.47,40.86-3.68,91.36-44.26,107.36-10.29,4.06-16,9.62-27,5.92Z"/><path class="cls-2" d="M696.61,760c-51.77-8.36-73.46-78.65-59.57-121.18,43.07,7.31,77,49.36,70.25,92.46-1.7,10.94.2,18.69-8.57,26.33Z"/><path class="cls-1" d="M711.4,1237c-51.77-8.36-73.47-78.65-59.57-121.18,43.07,7.31,77,49.36,70.25,92.46-1.7,10.94.2,18.69-8.57,26.33Z"/><path class="cls-1" d="M485.92,628c-31.84-41.67.74-107.62,40.07-129,26.25,34.92,21.94,88.76-12.57,115.44-8.75,6.77-12.71,13.71-24.32,13.22Z"/><path class="cls-1" d="M1422.4,908.18c-51.77-8.36-73.47-78.65-59.57-121.18,43.07,7.31,77,49.36,70.25,92.46-1.7,10.94.2,18.69-8.57,26.33Z"/><path class="cls-2" d="M108.44,851.56c-103.67,58.12-241.23-36-276.51-131.12,86.75-47.74,206.16-20.85,255,65.09,12.4,21.82,26.7,32.9,21.9,58.81Z"/><path class="cls-1" d="M573.28,373.4c-44.78,27.3-106.95-12-124-53.36,37.48-22.45,90.57-12.52,113.48,24.59,5.82,9.42,12.31,14.08,10.61,25.58Z"/><path class="cls-1" d="M1741.15,998.66c-19-48.89,30.72-103.14,74.44-112.66,15.47,40.86-3.68,91.36-44.26,107.36-10.3,4.06-16,9.62-27,5.92Z"/><path class="cls-1" d="M163.45,1160.49c-48.1,20.89-104.28-26.6-115.52-69.91,40.21-17.08,91.43.06,109,40,4.46,10.13,10.25,15.63,7,26.79Z"/><path class="cls-1" d="M1606.15,152.66c-19-48.89,30.72-103.14,74.44-112.66,15.47,40.86-3.68,91.36-44.26,107.36-10.3,4.06-16,9.62-27,5.92Z"/><path class="cls-2" d="M1961.61,711.53c-20.53-3.82-19.92-4.32-31.45-10.26-2.37,5.37-1.67,16.74-3.54,22.3-2.63-6.31-4.92-14.62-6.92-21.19-2,4.38-3,9.42-4.82,14-2.45,5.89-3.43,11.11-6.92,15.92-3.34-4.22-5.69-12.55-5.46-18.08-3.37,11.06-13.65,24.89-13.65,24.89-1.22-3.43-1.72-8.09-2.45-10.86-1-3.93-1.2-5.63-2.52-11.55-1.86,5.18-3.27,11.27-5.56,15.37-1.43,2.56-2.88,5.5-4.45,8-1.1,1.76-2.49,5-4.36,5.88a20.61,20.61,0,0,0-2-10.61,74.26,74.26,0,0,0-6.22-10,25.33,25.33,0,0,1-2.91,12.17c-2.32,4.42-5.77,10.69-9.46,14.44-.43-3.31-.17-7.34-1.78-11.07a62.27,62.27,0,0,1-4.78-15.94c-2.05,2.77-1.54,4.86-2.32,7-1.7,4.66-3.74,7.5-4.91,12.31-1,4.26-4.16,9.78-6.64,13.31-.23-4.47-1.22-6.14-2.33-10.09-.58-2.09-4.77-8.93-6-11.66-.37,2-.5,4-1,5.91a42.57,42.57,0,0,1-5.37,12.6,87,87,0,0,1-8.27,10.66c-2.83-4.24-3.45-7-5-14-1-4.21-1.13-6-2.43-13.3-3.47,4.13-5.61,9.12-8.86,13.64-3.4,4.72-5.72,9.76-8.31,15.3,0,0-3.92-7.16-6.13-11.88-.62-1.32-3.62-8.7-4-10.12-.43,1.39-1.94,7.63-2.56,9a73.9,73.9,0,0,1-4.8,8.6c-1.47,2.5-3.11,4.8-4.8,7.14-1.06,1.47-2.6,4.77-3.76,6.1-.63-1.28-.71-3.74-1.29-5.09s-1.49-2.62-2.13-4a66.8,66.8,0,0,1-3.09-7.3,21.28,21.28,0,0,1-1.35-5.85c-1.67,1.37-8,8.43-9.57,12.27-.79,2-5.92,14.05-6.69,14.9-1.68-4.51-1.22-12.21-.91-17,.18-2.64.91-12,1.07-12.82a48.8,48.8,0,0,1-4.59,6.62C1723,761.22,1712,774,1709.5,777.22c-1.21,1.56-4.58,5.56-6,7-1.38-4.62-.63-10.15-.38-15a123.88,123.88,0,0,0-1.06-13.35c-1.43,1.22-4.82,5.65-6.1,7.06a66.4,66.4,0,0,0-8.79,11.83c-.57.94-8.06,11-9.54,12.24-1.24-3.57-1.15-14.06-1.37-16.64-.19-2.29-.07-9-.44-12.27-1.26,1.88-2.76,4.77-4.41,6.38s-2.9,3-4.41,4.48l-5.79,5.63c-.81.79-4.07,3.63-5.2,3.75,1-4.2.72-9,1.12-13.25.35-3.71,0-7.75,1.11-11.31-1.11-.06-16.58,15.48-22.2,20.46-2.84,2.52-5.64,5-8.46,7.54-.89.79-3.1,3-6.34,3.16-.44-1.72,4.88-12.2,6.41-15.59,1.19-2.6,6.8-15.9,6.73-20.17-2.7,2.8-6.46,6.1-9.24,8.82a69.13,69.13,0,0,1-6.26,5.6c-1.8,1.37-3.63,2.76-5.33,4.24a125.53,125.53,0,0,1-11.75,9.13,79.12,79.12,0,0,0,3.13-10.58c.06-1.49,2.26-13.12,3.76-16.09-1.47,1.46-3.35,2.75-5,4.12-3.51,3-7,5.9-10.36,9.13-2.36,2.3-4.6,4.45-7.67,5.79-1.93.84-6.26,1.83-8.5.92.21-2.27,6.42-11.38,7.66-14.26a68.57,68.57,0,0,1,5.15-9.92c2.62-4.08,5.53-7.77,7.84-12a36.79,36.79,0,0,0-8,2.31,45.58,45.58,0,0,0-11,7c-3.38,2.88-15.19,12-18,14.05-1.22.9-6.5,2.95-6.5,1.25,0-5.86,2-9.61,3.73-11.68a36.17,36.17,0,0,0,5.82-8.59c.77-1.47,3.85-10.48,0-9-3,1.12-7,3.64-9.87,5-3.34,1.56-6.31,3.74-9.62,5.36s-6.54,4-9.82,5.65c-2.33,1.18-5.52,1.35-7.62,1.45s-1.69-3.4-1.1-4.74A38.5,38.5,0,0,0,1529,733c.32-1.77,2.19-7.12-.06-8.13-1.79-.8-5.74.27-7.41,1-5.48,2.36-11.33,6.46-17.56,5.94-1.43-.13-4.84-.73-2.84-2.56,1.44-1.32,7.89-7.42,9.72-9.29,5.82-5.95,11.29-16,11.87-17.66-8.64,1.82-26.94,12-29.4,12.62-3.19.73-8.18,1-4.63-3.06,2.08-2.38,5.23-5.58,7.32-8,1.13-1.31,5.51-6.05,6.64-9.29l.08-.23c-.71-.2-5.71-2.72-10.85-2.69a26.16,26.16,0,0,0-5,.41c-1.47.28-22.86,5.67-27.14,5.59,1.24-1.93,2.86-3.85,4.28-5.74,5.22-6.93,12.39-12.41,18.23-18.86-3-.33-14,1.27-16.26,1.86-3,.77-5.83,2-8.71,3-5.4,2-12.17,3.23-17.73,1.07,3.71-3.47,7.12-7.23,10.88-10.65,1.92-1.74,3.46-3.76,5.3-5.59,1.4-1.4,3.55-3.82,3.76-5.89.56-5.39-8.79-3.1-11.71-2.56-5.49,1-10.57,3.26-15.81,5.1a45.44,45.44,0,0,1-13.71,2.47s5.37-7.6,7.34-9.6c1.55-1.58,7.29-7.46,7.58-9.84s-2-1.1-4.41-.75c-4.79.68-8.35,1.27-12.23,2.13-7,1.54-9.68,4.05-13.65,4.45-2.12.21-6.81,1.31-4.52-1.18,4.13-4.47,9-10.16,13.13-14.63,1.79-1.94,3.73-3.94,4.82-6.38.73-1.61,4.18-6.65,1.49-7.42-1.53-.44-4.07.86-5.61,1.05a21.81,21.81,0,0,0-4.32.89c-2.7.95-4.1,1.55-6.88,2.34-2.5.7-5.88,1.19-8,1.83-1.24.37-8.14.55-7.74-1,.3-1.22,2.67-3.34,3.44-4.26,1.63-2,3.18-4,4.62-6.05,1.13-1.64,5.32-6.65,3.83-8.93-1-1.52-3.89.37-5.09.89-2,.88-3.92,2-5.9,2.89-3,1.38-5.94,1.46-9.1,1.89a30.53,30.53,0,0,1-8.16.24c1.37-1.18,7-5.74,8.34-7,3.75-3.65,3.4-3.65,7.17-7.32,1.66-1.61,3.17-3.4,4.74-5.08.85-.9,4.16-3.93,4.32-4.52-2.11,1.18-11.76,3.78-12.89,3.87-1.91.14-6.85,1.71-8.73,2.19a16.41,16.41,0,0,1-5.24.2,11.9,11.9,0,0,1-2.65-1.08,10.89,10.89,0,0,1,2-2.45,61.41,61.41,0,0,1,5.08-4.48,15.29,15.29,0,0,1,2.2-1.76c3.9-2.26,7.31-5.53,10.93-8.27,5-3.82,9.4-6.86,10.51-9.18-.83.12-4.54.76-5.37.86-6.57.8-10.88-.25-17-3-1.84-.82-5.31-1.87-6.16-3.87s1.59-3.83,3-5.07a36.65,36.65,0,0,1,7.52-4.61c2.48-1.31,4.86-2.78,7.3-4.18a24.33,24.33,0,0,1,18.14-2.24c4.72,1.19,9.4,3.67,13.85,5.58-3.34-1.48-7.54-3.57-11-4.7-3.07-1-6.91-2.12-10.17-1.67-1.89.27-2.58.37-4.47.57a43.5,43.5,0,0,0-5,1.1c-3.67.85-7.55,2-11.33,1.84a23.18,23.18,0,0,1-6.37-1,13.71,13.71,0,0,0-5.71-.91c2.15-2.5,5.31-3.86,7.81-5.95a37,37,0,0,1,8-4.78,44.5,44.5,0,0,1,6.4-2.71c1.7-.5,3.37-1,5-1.65a57.64,57.64,0,0,1,8.14-3c2.12-.49,4.77-1,6.43-2.57-1.27-.24-2.37-.76-3.67-.88a42.28,42.28,0,0,1-7.34-1c-1.94-.53-4-.91-6-1.36,0,0,4.38-2.36,5-2.72a32.12,32.12,0,0,1,4.31-1.95c2.71-1.12,5.54-2.15,8.31-3.09,2.16-.73,4.12-1.61,6.32-2.2s9-1.25,10.18-2c-4.6-2.36-6.65-2.3-12.44-3.82-2.6-.69-8.56-1-11-1.93,1.89-1.91,3.79-4.22,5.74-6.06a24.08,24.08,0,0,1,6.94-4.14c1.9-.8,3.74-.47,5.74-.35,3.83.21,10.53,3,13,4.26-2.15-1.76-4.31-3.5-6.61-5.06-3.45-2.38-7.14-4.55-9.07-8.48a6,6,0,0,1-.11-5.23,8.29,8.29,0,0,1,7.42-4.21,34.06,34.06,0,0,1,9,2,75.18,75.18,0,0,1,7.35,3.53c1.43.76,5.4,3.46,6.43,4.8a49.91,49.91,0,0,0-3.51-6.77,43.57,43.57,0,0,1-4.93-10.13c-.46-1.44-.62-3-1-4.43-.31-1.06-1.42-3.41-.73-4.4a44.29,44.29,0,0,1,4,3.34c5.55,5.73,11.63,12.64,17.5,18,.37-5.4-1-11.88-2-17.17-.58-3.15-1.2-6.31-1.54-9.49-.2-1.86-.62-4.46.27-6.21,1.59-3.14,5.88,1.78,7,3.07,5.08,5.63,8.51,12.22,11.55,19.09.85-1.13,1-2.92,1.16-4.29.52-5,1.45-9.9.73-15a11.9,11.9,0,0,1,.34-6.07,10.2,10.2,0,0,1,1.7-3.39,25.35,25.35,0,0,1,4.15,4.64,20.62,20.62,0,0,1,2.8,6.17,21.06,21.06,0,0,1,.86,5.93c-.15,2.36-.23,4.81-.52,7.15s0,4.92-.64,7.29a44.22,44.22,0,0,0,9.16-12.42c2-4.33,5.7-10.26,9.28-13.15,1.64,1.94,2.26,5.11,3.28,7.42,2.11,4.82.64,8.32-1.56,13.06a58,58,0,0,0-4.31,15.08c4.82-4.23,8.73-8.1,11.32-10.88,2.77-3,6.54-8.63,10.57-10,4.55-1.56,3.19,4.89,3,7.56a79,79,0,0,1-2.12,12.18c-1,4-3,8.26-3.47,12.41,3.12-1,7.15-1.21,10.41-1.56,4.4-.48,15,.27,15.55,2.9s-1.38,4-3.4,5.47a85.72,85.72,0,0,1-8.29,5.17c.6.16,10.37,2.31,15.79,1.28a55.35,55.35,0,0,1,7.41-.74c1.17-.11,5.11,0,6,1.08,1,1.21-.64,3.07-1.5,3.92a43.23,43.23,0,0,1-7.45,5.65,46.67,46.67,0,0,0-6.76,5.11c-1.67,1.47-6.79,5.48-4.92,8.18s6.77,1.8,9.54,1.82c3.11,0,6.2-.53,9.31-.59,2.46-.06,5.28.33,6.19,3,.82,2.37-1.26,5-2.56,6.89-2.23,3.16-4.44,6.36-6.47,9.67-.37.6-5.18,7.5-4,8,1.82.8,5.78-.75,7.6-1.16,4.09-.94,8-2.55,12.06-3.53,2.81-.67,6.91-2.17,9.5-.18,3,2.27,1.41,6.18-.09,8.78a58.66,58.66,0,0,0-4.25,8.82c3.94,1.37,17.31-.7,20.73-1.92a32.42,32.42,0,0,1,10.32-1.89c3.43,0,2.66,3.48.88,5.9-2.12,2.88-5.55,4.72-8.15,7.15s-6,5.88-8.72,8.26c4.8,2.48,10.61,3.39,16.26,3.39,4.16,0,10.67-1.58,14.48,1.28-3.45,3.27-9.72,8.28-13,11.78,5.88,2.08,14.29,4,20.72,3.06,5.51-.8,11.44.41,16.94.38-4.34,4.94-11.18,9.64-15.63,14.62,1.37,1.38,4.87.3,6.73.07,2.24-.28,4.56-.41,6.73-.76a50.73,50.73,0,0,1,10.93-.86s-10.12,11.13-14.78,14.86a47.13,47.13,0,0,0,8.43,1.74c2.78.26,21.21.57,22.71,1.61-3,3.46-9.39,8.47-12.41,12,4.68,2.57,10.95,2.47,16.46,2.19,5.15-.26,12.29-3.77,17.47-3.69-2.52,2.87-7.94,5.53-10.29,8.47s-5.64,7.47-8.57,9.75c3.22-1.2,7.4-2.71,10.84-4,4.4-1.62,9.59-1.74,13.84-2.46-.81,4.47-3.35,7.2-4.57,10.57-1.48,4.09-2.07,9.06-3.19,13.23,4.81,0,11.42-4.89,15.16-7.4,4.22-2.83,9.2-5.63,13.1-8.22l-.24.23c.45,4.52,2.36,13,.21,17.22,4.46-2,8.14-6.07,12.18-8.91,5-3.55,10.52-11.63,16-14.46.72,4.38,2.49,10.44,2.13,15.08,4.21-8.52,13-16.61,20.49-22.68a121.4,121.4,0,0,0-2,17.77c1.78-4.68,6.47-8.62,10.06-12.11a100.94,100.94,0,0,1,11.74-10c-.29,2.47-1.08,5.34-1.23,7.92-.2,3.32.62,6.5.15,9.84,2.85-3.65,5.36-7.59,8.19-11.2,3-3.88,8.06-8.55,11.52-12.15.13,2.64-2,6.6-1.8,9.31.2,3.11,1.69,6.37.76,9.47,1.21-2.88,5.16-5.41,7.15-7.91,2.47-3.09,6.39-8,9.48-10.59,3.47,2.63,5.34,11.27,6.87,15.22,2.12-4.17,7.15-9.38,10.71-12.43,3,2.94,6.74,7.26,10.89,4.56,3.72-2.41,6.34-6.31,10-8.91,3.46,2.28,6.19,7.25,9.53,10.09,1.45-3.35-.16-7.72,1.72-11.08,2.36.16,12.08,1.31,14.1,1.52,4.28.46,14.45-1.67,14.45-1.67Z"/><path class="cls-2" d="M1099.36,1251.3c-35.85-98,65-204,152.36-221.3,29.23,81.87-10.79,181.6-92.11,211.89-20.65,7.7-32.25,18.54-54,10.76Z"/><path class="cls-1" d="M1083.19,407.82c3.43,104.28-125.54,173.49-213.9,162.59-2.18-86.9,67-169.13,153.73-172.49,22-.85,36.43-7.53,54.69,6.68Z"/><path class="cls-2" d="M1049.1,787c-40.17-22-37.48-86.2-13.62-117.15,33.32,18.61,48.92,63.12,30.81,96.63-4.6,8.51-5.3,15.45-14.75,19.17Z"/><path class="cls-2" d="M360.29,1079.79c-40.17-22-37.48-86.2-13.62-117.15,33.32,18.6,48.92,63.12,30.8,96.63-4.59,8.51-5.29,15.44-14.74,19.17Z"/><path class="cls-2" d="M1455.2,253.71c-40.17-22-37.48-86.2-13.62-117.15,33.32,18.6,48.92,63.12,30.8,96.63-4.59,8.51-5.29,15.44-14.74,19.17Z"/><path class="cls-2" d="M221.1,193.15c-40.17-22-37.48-86.2-13.62-117.15,33.32,18.6,48.92,63.12,30.81,96.63-4.6,8.51-5.3,15.44-14.75,19.17Z"/><path class="cls-2" d="M1280.93-21c-16.77,9.91-16.65,9.18-28.39,12.07,1.62,5.23,9.09,12.79,11.18,17.84-5.71-2.81-12.41-7.25-17.85-10.64,1.3,4.28,3.71,8.43,5.17,12.75,1.89,5.64,4.4,9.91,4.9,15.43-4.94-.92-11.7-5.33-14.92-9.35,4.41,9.84,5.67,25.85,5.67,25.85-3-1.65-6.17-4.63-8.38-6.12-3.14-2.13-4.3-3.22-8.86-6.57,1.87,4.77,4.61,9.92,5.52,14.2.57,2.68,1.35,5.64,1.79,8.36.3,1.92,1.34,5.07.53,6.8a19.2,19.2,0,0,0-7.87-6.26,68.84,68.84,0,0,0-10.51-3.22,23.69,23.69,0,0,1,5.42,10.33c1.08,4.53,2.5,11,2.2,16-2.33-2.06-4.62-5.06-8-6.69a58.5,58.5,0,0,1-13.13-8.26c.26,3.19,1.9,4.35,2.66,6.33,1.66,4.32,2,7.56,4.1,11.66,1.88,3.63,3.07,9.42,3.49,13.42-2.9-3-4.62-3.57-7.82-5.66-1.69-1.11-8.83-3.35-11.37-4.51.94,1.61,2.07,3.09,2.93,4.75a39.9,39.9,0,0,1,4,12.15,81.41,81.41,0,0,1,.73,12.56c-4.59-1.24-6.75-2.83-12.16-6.78-3.24-2.36-4.46-3.5-9.86-7.84.1,5,1.66,9.84,2.14,15,.51,5.4,2,10.37,3.54,15.84,0,0-7.14-2.63-11.59-4.58-1.24-.55-7.87-3.9-9-4.69.55,1.24,3.32,6.55,3.71,7.88a70.43,70.43,0,0,1,1.91,9c.5,2.65.75,5.27,1,8,.16,1.68,1.1,4.94,1.1,6.59-1.23-.52-2.8-2.19-4-2.78s-2.65-.94-3.93-1.49a65.75,65.75,0,0,1-6.65-3.23,19.65,19.65,0,0,1-4.53-3.29c-.33,2-.45,10.83.8,14.49.65,1.87,4.46,13.5,4.44,14.57-4-2.14-8.35-7.83-11.1-11.42-1.49-2-6.71-9-7.11-9.66a45.68,45.68,0,0,1,.84,7.46c.15,5,.27,20.69.5,24.52.11,1.84.19,6.72.08,8.55-3.81-2.4-6.67-6.75-9.44-10.28a115.86,115.86,0,0,0-8.94-8.73c-.25,1.74.09,6.93,0,8.71a62,62,0,0,0,1.08,13.7c.17,1,1.06,12.65.8,14.44-3.06-1.75-9.43-9.17-11.16-10.85-1.54-1.5-5.59-6.3-7.83-8.34.26,2.08,1,5,.8,7.18-.15,2-.19,3.89-.35,5.85-.2,2.51-.4,5-.61,7.5-.08,1.05-.63,5.05-1.35,5.83-1.89-3.56-5-6.74-7.34-10-2-2.82-4.74-5.45-6.15-8.62-.82.63-2.17,21-3.06,28-.45,3.51-.88,7-1.32,10.48-.14,1.11-.33,4-2.52,6.12-1.36-1-4-11.57-5-14.89-.76-2.55-5-15.34-7.64-18.3-.18,3.63-.8,8.25-1.08,11.87a65.28,65.28,0,0,1-1,7.76c-.42,2.07-.86,4.17-1.14,6.26a120.24,120.24,0,0,1-2.66,13.61,74.59,74.59,0,0,0-4.29-9.35c-.87-1.09-6.45-10.6-7.22-13.61-.13,1.93-.67,4-1,5.93-.64,4.24-1.33,8.47-1.68,12.77-.25,3.06-.51,6-1.84,8.77-.84,1.78-3.28,5.12-5.4,5.86-1.25-1.73-2.47-11.93-3.37-14.72a63.67,63.67,0,0,1-2.46-10.13c-.66-4.47-.88-8.84-1.84-13.21a34.4,34.4,0,0,0-4.22,6.53,43.21,43.21,0,0,0-3.46,11.7c-.61,4.09-3.34,17.7-4,20.9-.3,1.38-2.76,6.07-3.8,4.86-3.58-4.12-4.5-8-4.54-10.49a33.54,33.54,0,0,0-1.17-9.6c-.37-1.51-3.73-9.72-5.54-6.35-1.41,2.61-2.68,6.85-3.88,9.56-1.4,3.14-2.14,6.49-3.48,9.66s-2.14,6.82-3.43,10c-.92,2.26-3.06,4.33-4.46,5.69s-3.28-1.35-3.69-2.65a35.25,35.25,0,0,0-3.39-8.36c-.85-1.44-2.82-6.35-5-5.68-1.75.54-3.87,3.71-4.6,5.24-2.4,5-4,11.49-8.7,14.94-1.08.79-3.84,2.46-3.56-.06.2-1.81,1-10.05,1.13-12.47a67.74,67.74,0,0,0-2.49-19.7c-4.94,6.58-11.54,25-12.92,26.9-1.79,2.46-5.12,5.72-5.12.69,0-3,.26-7.13.25-10.1,0-1.61.16-7.62-1-10.6l-.08-.21c-.62.3-5.68,1.59-9.27,4.76a24.64,24.64,0,0,0-3.26,3.36c-.86,1.1-12.58,18-15.65,20.57-.3-2.13-.34-4.46-.5-6.66-.59-8.07,1.1-16.32,1.24-24.43-2.31,1.61-9,9.47-10.28,11.28-1.62,2.36-2.88,5-4.27,7.47-2.58,4.69-6.57,9.73-11.79,11.61.47-4.71.57-9.44,1.11-14.15.28-2.4.12-4.76.29-7.17.13-1.84.16-4.87-1-6.45-2.91-4.12-8.08,3.22-9.8,5.39-3.23,4.08-5.43,8.76-8,13.27a42.58,42.58,0,0,1-8.12,10.15s-.89-8.64-.73-11.26c.12-2.05.55-9.7-.7-11.55s-2.09.46-3.57,2.17c-2.94,3.42-5.08,6-7.28,9-4,5.35-4.31,8.78-6.86,11.49-1.36,1.45-4,5.1-3.9,1.94.16-5.67.1-12.66.26-18.32a23.51,23.51,0,0,0-.53-7.44c-.47-1.58-1.14-7.24-3.5-6.13-1.35.63-2.33,3.1-3.3,4.18a20.84,20.84,0,0,0-2.49,3.28c-1.31,2.32-1.93,3.6-3.4,5.85-1.33,2-3.4,4.45-4.51,6.21-.64,1-5.38,5.37-6.07,4-.54-1-.17-4-.19-5.11-.05-2.36-.2-4.72-.47-7.07-.21-1.85-.34-7.94-2.79-8.63-1.62-.45-2.5,2.65-3,3.75-.88,1.85-1.55,3.78-2.38,5.65-1.23,2.79-3.27,4.66-5.23,6.9a28.59,28.59,0,0,1-5.58,5.18c.23-1.67,1.41-8.34,1.55-10.05.39-4.86.15-4.65.55-9.54.18-2.15.14-4.33.22-6.48,0-1.15.51-5.31.26-5.81-.76,2.12-6,9.86-6.69,10.61-1.26,1.27-3.76,5.41-4.79,6.89a14.9,14.9,0,0,1-3.55,3.35,10.67,10.67,0,0,1-2.53.87,10.09,10.09,0,0,1-.08-3,57,57,0,0,1,.82-6.26,14.67,14.67,0,0,1,.47-2.58c1.35-4,1.74-8.37,2.6-12.51,1.19-5.76,2.4-10.59,1.77-12.9-.52.59-2.73,3.32-3.25,3.9-4.13,4.59-7.8,6.5-13.72,8.31-1.8.56-4.88,2-6.7,1.07s-1.23-3.67-1-5.4a33.84,33.84,0,0,1,2.46-7.84c.94-2.45,1.71-4.94,2.56-7.42a22.72,22.72,0,0,1,11.38-12.7c4-2,8.85-3.19,13.15-4.57-3.26,1-7.49,2.12-10.61,3.45-2.78,1.17-6.16,2.74-8.17,5.06-1.17,1.34-1.59,1.84-2.79,3.14a39.74,39.74,0,0,0-2.85,3.84c-2,2.85-4,6.07-6.83,8.24a21.8,21.8,0,0,1-5.07,3.23,12.73,12.73,0,0,0-4.57,2.85c0-3.07,1.37-6,1.83-9a35,35,0,0,1,2.7-8.27,42.8,42.8,0,0,1,2.83-5.82c.89-1.39,1.76-2.77,2.52-4.24a52.51,52.51,0,0,1,3.87-7.11c1.18-1.65,2.7-3.67,2.94-5.75-1,.61-2.13.92-3.12,1.63a39.64,39.64,0,0,1-5.75,3.83c-1.69.81-3.4,1.84-5,2.71,0,0,1.62-4.34,1.84-5a29,29,0,0,1,1.83-4c1.22-2.44,2.57-4.9,3.94-7.26,1.07-1.83,1.91-3.65,3.09-5.42s5.54-6.38,5.93-7.64c-4.68,1.16-6.08,2.46-11.08,4.93-2.26,1.12-6.61,4.58-8.94,5.42.15-2.5.07-5.28.32-7.78a22.61,22.61,0,0,1,2.33-7.16c.84-1.73,2.34-2.62,3.82-3.77,2.82-2.2,9.24-4.33,11.73-5-2.58.08-5.16.19-7.74.5-3.88.45-7.81,1.18-11.57-.39a5.61,5.61,0,0,1-3.28-3.61,7.71,7.71,0,0,1,2.63-7.51,31.91,31.91,0,0,1,7.57-4.16,75.1,75.1,0,0,1,7.33-2c1.47-.33,5.92-.88,7.46-.56a44.37,44.37,0,0,0-6.62-2.6,40.41,40.41,0,0,1-9.67-4.1c-1.21-.74-2.26-1.71-3.45-2.47-.87-.55-3.09-1.53-3.22-2.65a43.81,43.81,0,0,1,4.88-.12c7.42.63,15.92,1.75,23.31,1.89-3-4-8-7.74-11.9-10.87-2.34-1.85-4.71-3.69-6.9-5.72-1.28-1.19-3.17-2.75-3.62-4.53-.81-3.18,5.23-2.35,6.83-2.16,7,.84,13.47,3.37,19.82,6.34a8.48,8.48,0,0,0-1.81-3.74c-2.71-3.83-5.06-7.83-8.68-11a11,11,0,0,1-3.49-4.47,9.45,9.45,0,0,1-.88-3.42,23.66,23.66,0,0,1,5.76.71,19.32,19.32,0,0,1,5.75,2.62,19.71,19.71,0,0,1,4.23,3.64c1.35,1.75,2.8,3.52,4,5.34s3,3.48,4,5.52a41.53,41.53,0,0,0-1.18-14.35C793,86.38,792,80,792.73,75.74c2.34.35,4.71,2.2,6.85,3.2,4.43,2.09,5.54,5.45,6.91,10.13a53.73,53.73,0,0,0,6.21,13.23c.8-5.92,1.18-11,1.29-14.57.12-3.81-.69-10.08,1.28-13.52,2.25-3.89,5.25,1.48,6.72,3.5a74,74,0,0,1,6,9.85c1.74,3.46,3,7.64,5.17,10.85,1.6-2.59,4.28-5.24,6.35-7.48,2.81-3,10.69-9,12.71-7.5s1.45,3.63,1,5.93a80.77,80.77,0,0,1-2.66,8.72c.52-.25,8.7-4.74,11.87-8.78a53,53,0,0,1,4.76-5.07c.76-.79,3.61-3.1,4.85-2.89,1.43.25,1.43,2.54,1.35,3.67a41,41,0,0,1-1.77,8.54,44.08,44.08,0,0,0-1.62,7.73c-.27,2-1.41,8,1.56,8.77s5.87-2.89,7.82-4.58c2.19-1.89,4-4.16,6.18-6.12,1.69-1.54,3.91-3,6.21-1.66,2,1.17,2.21,4.33,2.43,6.42.37,3.59.77,7.18,1.38,10.76.11.64,1,8.44,2.14,8.07,1.77-.55,3.6-4.06,4.63-5.47,2.29-3.16,4-6.69,6.31-9.87,1.57-2.2,3.52-5.76,6.57-5.95,3.46-.22,4.77,3.48,5.31,6.22a55,55,0,0,0,2.42,8.81c3.61-1.46,11.73-11.11,13.39-14.06A30.15,30.15,0,0,1,942.39,95c2.42-2.09,4,.82,4.24,3.61.27,3.32-1,6.72-1.34,10s-.63,7.82-1.07,11.15c4.89-1.2,9.54-4.13,13.5-7.59,2.92-2.56,6.53-7.65,11-8-.42,4.42-1.75,11.78-1.93,16.26,5.41-2.13,12.48-6,16.43-10.55,3.38-3.93,8.29-6.72,12.14-10.12,0,6.14-2,13.63-2,19.86,1.81.13,3.61-2.78,4.77-4.08,1.4-1.57,2.95-3.08,4.26-4.66a47.55,47.55,0,0,1,7.15-7.3s-.28,14-1.27,19.5a44.63,44.63,0,0,0,7-4c2.11-1.52,15.25-12.6,17-12.79,0,4.29-1.41,11.71-1.4,16,4.87-1.06,9.21-5,12.91-8.55,3.46-3.34,6.33-10.18,10-13.3,0,3.56-2.19,8.75-2,12.25s.62,8.71,0,12.11c1.53-2.82,3.54-6.43,5.18-9.43,2.1-3.83,5.68-7.11,8.22-10.22,2.17,3.64,2.06,7.11,3.27,10.22,1.46,3.79,4.09,7.64,5.87,11.26,3.4-2.92,5-10.44,6.11-14.5,1.24-4.57,3-9.59,4.16-13.79l0,.3c3.09,2.9,9.6,7.66,10.7,12,1.94-4.11,2-9.25,3.1-13.73,1.37-5.59.26-14.62,2.35-20,3.19,2.64,8.15,5.81,10.75,9.29-2.27-8.57-1.07-19.63.49-28.5a112.35,112.35,0,0,0,9.49,13.71c-1.62-4.37-.73-10-.36-14.67A93.49,93.49,0,0,1,1123,42.58c1.3,1.92,2.51,4.42,4,6.33,1.89,2.45,4.42,4.18,6.14,6.82-.24-4.32-.89-8.62-1.11-12.9-.24-4.59.41-10.95.64-15.59,1.71,1.77,2.66,5.85,4.44,7.64,2,2.07,5.1,3.44,6.35,6.19-.93-2.77.3-7,.17-9.94-.16-3.69-.39-9.51.17-13.25,4-.29,10.66,4.64,14.15,6.48-1.06-4.23-.73-11-.09-15.3,3.91.23,9.18,1,10.44-3.47,1.14-4,.59-8.33,1.55-12.38,3.83-.52,8.8,1.29,12.89,1.24-1-3.24-4.85-5.32-5.59-8.84,1.76-1.33,9.29-6.49,10.84-7.57,3.29-2.3,9.13-10,9.13-10Z"/><path class="cls-1" d="M-123.07,301c19.77,17.34,18.78,17.5,27.44,31.35,6-4.29,12.58-17.05,18.19-21.86-1.21,8.52-4.09,19-6.15,27.38,5-3.47,9.25-8.3,14.19-12,6.44-4.8,10.86-9.82,17.74-12.78.89,6.71-1.92,17.25-5.73,23.08C-46.62,326.38-26.6,318-26.6,318c-.87,4.5-3.34,9.87-4.33,13.33-1.41,4.93-2.32,6.88-4.7,14.13,5.33-4.41,10.79-10.09,15.9-13.06,3.2-1.85,6.66-4.1,10-5.81,2.34-1.2,5.94-3.85,8.51-3.55A26,26,0,0,0-6,335.79c-.39,4.55-.15,8.28.29,14.85a31.88,31.88,0,0,1,11-11.3c5.35-3.29,13.12-7.85,19.53-9.54-1.66,3.86-4.54,8.06-5.2,13.13a78.78,78.78,0,0,1-5.07,20.32c4-1.67,4.78-4.26,7-6.07,4.84-3.94,8.87-5.71,13.24-10.17,3.87-3.94,10.79-7.9,15.75-10.13-2.63,5-2.63,7.44-4,12.42-.72,2.64-.58,12.74-1,16.49,1.67-1.89,3.1-4,4.87-5.76a53.58,53.58,0,0,1,13.92-10.18,109.6,109.6,0,0,1,15.81-6.22c.34,6.41-.79,9.84-3.58,18.44-1.67,5.17-2.62,7.21-5.92,16,6.41-2.23,11.94-6.26,18.37-9.06,6.71-2.93,12.47-6.88,18.83-11.21,0,0-.36,10.27-1,16.8-.18,1.83-1.68,11.74-2.24,13.49,1.36-1.22,7-7,8.56-8.08,4.39-3,6-3.64,10.73-6.22,3.2-1.76,6.45-3.19,9.78-4.64,2.1-.91,5.89-3.49,8-4.18-.15,1.79-1.64,4.51-1.88,6.34s-.08,3.79-.25,5.67a87.06,87.06,0,0,1-1.36,9.89,26.61,26.61,0,0,1-2.3,7.2c2.68-.42,14.08-4,18.25-7.13,2.12-1.61,15.45-11.39,16.84-11.82-1.09,6-6.54,14-10,19-1.89,2.75-8.7,12.39-9.39,13.19a60.86,60.86,0,0,1,9.22-4.21c6.39-2.31,26.43-9.06,31.25-11,2.31-.91,8.54-3.07,10.94-3.7-1.48,5.9-5.85,11.4-9.22,16.44A158.36,158.36,0,0,0,186.38,420c2.33-.4,8.85-3,11.15-3.72a83.71,83.71,0,0,0,17.13-7.16c1.21-.64,15.78-6.68,18.19-7.1-.95,4.66-7.8,16-9.22,18.89-1.27,2.61-5.74,9.82-7.41,13.56,2.56-1.22,6.05-3.38,8.87-4.06,2.59-.62,5.08-1.38,7.66-2l9.88-2.37c1.39-.34,6.75-1.31,8.05-.72-3.78,3.92-6.55,9.24-9.75,13.63-2.75,3.79-5,8.38-8.47,11.52,1.16.79,27.91-6.08,37.2-7.86l14-2.71c1.48-.29,5.3-1.27,8.91.65-.64,2.15-13.14,10.08-17,12.75-2.95,2.05-17.59,12.84-20.26,17.51,4.72-1.3,10.92-2.45,15.68-3.6a85.72,85.72,0,0,1,10.38-2c2.82-.33,5.7-.66,8.5-1.17a160.1,160.1,0,0,1,18.58-2.32c-1.11.55-9.53,8.44-10.19,9.45-1,1.57-10.89,12.74-14.42,15,2.53-.64,5.39-.81,8-1.26,5.72-1,11.43-1.86,17.09-3.22,4-1,7.85-1.85,12-1.33,2.63.33,7.94,2.05,9.79,4.47-1.69,2.32-14.27,8.19-17.47,10.51a86.07,86.07,0,0,1-12,7.42c-5.47,2.74-11,4.86-16.19,7.92a46.24,46.24,0,0,0,10.16,2.67,57.94,57.94,0,0,0,16.47-.48c5.51-1,24.13-3.17,28.52-3.63,1.9-.19,8.94,1,7.84,2.83-3.79,6.33-8.33,9.13-11.55,10.24a45.4,45.4,0,0,0-11.83,5.55c-1.78,1.1-10.91,8.87-5.81,9.78,3.93.7,9.91.56,13.89,1,4.61.46,9.24,0,13.86.39s9.65-.12,14.26.2c3.28.22,6.85,2.1,9.18,3.33s-.35,4.77-1.85,5.85c-3.7,2.65-6.31,4.46-9.29,7.86-1.49,1.7-7,6.3-5.18,8.84,1.43,2,6.39,3.4,8.67,3.69,7.45,1,16.41.3,22.82,4.87,1.47,1.06,4.78,3.91,1.43,4.6-2.41.51-13.32,3-16.49,3.8-10.13,2.7-22.5,10-24.22,11.48,10.52,3.58,36.92,4.3,39.95,5.27,3.91,1.25,9.5,4.16,3.05,6.28-3.79,1.24-9.27,2.67-13.07,3.93-2.06.69-9.85,3-13.16,5.79l-.24.2c.64.67,4.43,6.61,10,9.89a33.9,33.9,0,0,0,5.68,2.77c1.78.64,28.39,8.57,33,11.42-2.6,1.28-5.58,2.31-8.33,3.44-10.11,4.15-21.4,5.46-31.87,8.69,3,2.29,16,7.63,18.8,8.45,3.71,1.08,7.59,1.61,11.38,2.33,7.1,1.34,15.25,4.34,19.87,10.25-6.25,1.37-12.36,3.24-18.63,4.53-3.19.65-6.16,1.84-9.33,2.64-2.41.61-6.31,1.85-7.86,3.95-4.07,5.47,7.52,9,11,10.3,6.6,2.44,13.53,3.28,20.39,4.66a57.17,57.17,0,0,1,16.44,6.15s-10.71,4.78-14.13,5.67c-2.69.71-12.69,3.38-14.53,5.77s1.46,2.48,4.29,3.66c5.61,2.34,9.85,4,14.61,5.56,8.52,2.82,13.08,1.83,17.63,4,2.43,1.14,8.22,3,4.13,4.19-7.34,2.18-16.29,5.2-23.62,7.38-3.19.95-6.57,1.88-9.32,3.8-1.83,1.28-8.81,4.52-6.4,7.08,1.38,1.46,5,1.69,6.76,2.47a26.54,26.54,0,0,0,5.25,1.82c3.53.71,5.44,1,8.95,1.9,3.16.85,7.13,2.49,9.86,3.17,1.58.4,9.16,4.65,7.72,6.1-1.12,1.13-5,1.9-6.48,2.4-3,1.06-6,2.23-8.88,3.57-2.29,1.05-10.05,3.78-9.89,7.21.09,2.28,4.44,2.1,6.07,2.3,2.75.35,5.51.4,8.26.68,4.09.41,7.36,2.24,11.06,3.81a38.14,38.14,0,0,1,9,5c-2.23.41-11.28,1.7-13.54,2.24-6.41,1.54-6,1.76-12.47,3.31-2.84.68-5.63,1.64-8.41,2.45-1.49.43-7,1.58-7.57,2.11,3,.08,15.15,3.48,16.43,4.11,2.16,1.08,8.52,2.56,10.86,3.25a20.46,20.46,0,0,1,5.8,3.15,14.16,14.16,0,0,1,2.17,2.87,13.16,13.16,0,0,1-3.76,1.35,77.6,77.6,0,0,1-8.37,1.59,20.28,20.28,0,0,1-3.52.49c-5.68-.07-11.48,1.28-17.15,1.92-7.88.9-14.59,1.38-17.29,3.16,1,.41,5.4,2.1,6.37,2.53,7.63,3.37,11.62,7.27,16.45,14.1,1.46,2.07,4.55,5.45,4.18,8.15s-4.19,3.13-6.5,3.57c-3.64.71-7.44.34-11.1.15s-7.06-.12-10.59-.17A30.69,30.69,0,0,1,374.36,843c-4.34-4.31-7.81-10-11.4-14.94,2.67,3.75,5.87,8.71,8.89,12.16,2.67,3.07,6.11,6.75,9.94,8.35,2.21.93,3,1.27,5.19,2.27a55.86,55.86,0,0,0,6.14,2c4.51,1.44,9.49,2.63,13.45,5.3a29.6,29.6,0,0,1,6.27,5.14,17.39,17.39,0,0,0,5.59,4.67c-3.94,1.32-8.23.75-12.28,1.42a46.59,46.59,0,0,1-11.74,0,55.42,55.42,0,0,1-8.67-1.18c-2.16-.56-4.29-1.09-6.49-1.44-3.54-.57-7.33-.87-10.76-2-2.61-.83-5.84-1.94-8.61-1.36a46.16,46.16,0,0,0,3.4,3.31,53.62,53.62,0,0,1,7.33,5.77c1.76,1.83,3.8,3.59,5.61,5.33,0,0-6.25-.26-7.14-.27a40.76,40.76,0,0,1-5.93-.66c-3.65-.53-7.37-1.23-11-2-2.8-.6-5.49-.91-8.25-1.68s-10.52-4.43-12.3-4.39c3.45,5.51,5.71,6.77,11,12.14,2.39,2.42,8.65,6.55,10.71,9.19-3.26.86-6.81,2.13-10.11,2.87A30.51,30.51,0,0,1,333,893c-2.57-.35-4.34-1.89-6.43-3.31-4-2.69-9.45-10-11.32-13,1.19,3.29,2.41,6.56,3.9,9.73,2.2,4.79,4.8,9.52,4.36,15a7.57,7.57,0,0,1-3.25,5.74c-3.15,1.83-7.79,1.92-10.74-.22a43,43,0,0,1-8.52-8,98.94,98.94,0,0,1-5.69-8.54c-1-1.75-3.62-7.23-3.87-9.34a61.29,61.29,0,0,0-.54,9.58,54.55,54.55,0,0,1-1.2,14.14c-.43,1.86-1.23,3.62-1.71,5.47-.34,1.34-.66,4.6-2,5.24a59.9,59.9,0,0,1-2.22-6.21c-2.31-9.78-4.45-21.17-7.38-30.7-3.87,5.6-6.58,13.48-8.93,19.84-1.4,3.78-2.77,7.59-4.44,11.27-1,2.13-2.2,5.22-4.29,6.54-3.75,2.38-5.22-5.72-5.65-7.85-1.88-9.37-1.35-18.71-.21-28.1-1.65.68-3,2.5-4,3.9-3.78,5.08-7.93,9.78-10.44,15.76-.95,2.27-2.23,4.85-4.27,6.36-1.17.87-2.57,2.22-4,2.57a32.33,32.33,0,0,1-1.51-7.69,26.15,26.15,0,0,1,.94-8.49,26.8,26.8,0,0,1,2.89-7c1.68-2.46,3.34-5.07,5.16-7.41s3.2-5.3,5.39-7.48a55.8,55.8,0,0,0-17.91,7.54c-5,3.39-12.77,7.45-18.51,8.27-.53-3.15.85-7,1.23-10.14.81-6.57,4.66-9.41,10.09-13.14a72.69,72.69,0,0,0,14.36-13.54c-7.93,1.47-14.66,3.14-19.24,4.49-4.93,1.44-12.64,5.13-17.89,4-5.94-1.24-.31-7.35,1.66-10.09a100,100,0,0,1,10.13-11.82c3.71-3.7,8.56-7,11.75-11.21-4-1-8.52-3.28-12.28-5-5.07-2.32-16-9.93-15-13.15,1-3.05,4.05-3.39,7.21-3.74a111.14,111.14,0,0,1,12.3-.26c-.54-.55-9.74-9.17-16.27-11.53-3.72-1.35-4.93-2.25-8.49-4-1.34-.65-5.51-3.34-5.76-5-.28-1.94,2.66-2.91,4.15-3.28a54.62,54.62,0,0,1,11.69-1.32,59.24,59.24,0,0,0,10.61-1.18c2.74-.52,10.88-1.57,10.59-5.69-.27-3.92-6.18-6.31-9.17-8.11-3.35-2-7-3.42-10.45-5.35-2.69-1.52-5.5-3.75-4.74-7.27.64-3.1,4.62-4.66,7.21-5.82,4.45-2,8.89-4,13.22-6.3.78-.42,10.43-4.79,9.47-6.14-1.46-2.05-6.73-2.92-9-3.64-5-1.61-10.28-2.38-15.32-4-3.47-1.08-8.87-2.09-10.4-5.92-1.73-4.35,2.45-7.59,5.75-9.44a73.23,73.23,0,0,0,10.28-6.81c-3.38-4-19.19-10.38-23.67-11.26a40.81,40.81,0,0,1-12.4-4.6c-3.7-2.22-.63-5.48,2.85-7,4.15-1.75,9.05-1.54,13.42-2.5s10.3-2.48,14.76-3.32c-3.6-5.77-9.31-10.5-15.43-14.13C179.32,657,171.27,654.54,169,649c5.85-1.32,15.86-2.7,21.68-4.36-5-6-12.89-13.52-20.45-16.65-6.47-2.68-12.12-7.8-18.1-11.31,7.89-2.56,18.31-3.24,26.34-5.76-.6-2.39-5.08-3.47-7.24-4.42-2.6-1.13-5.2-2.49-7.78-3.5a64.48,64.48,0,0,1-12.38-6.1s18.11-5.54,25.56-6.58a60.19,60.19,0,0,0-8-7.31c-2.83-2.07-22.59-14.26-23.55-16.36,5.52-1.78,15.62-3.13,21.13-4.94-3.41-5.8-10.27-9.72-16.41-13-5.74-3-15.73-3.83-21.28-7.24,4.57-1.49,12.15-.88,16.58-2.55s10.91-4.46,15.56-5c-4.27-.78-9.75-1.83-14.29-2.67-5.8-1.09-11.51-4.3-16.57-6.25,3.76-4.32,8.26-5.64,11.74-8.5,4.25-3.48,8.08-8.47,12-12.27-5.18-3.14-15.52-2.06-21.18-1.74-6.39.34-13.58.17-19.46.46l.41-.1c2.41-5.17,5.78-15.54,10.85-18.77-6.09-.75-12.71,1.33-18.92,1.81-7.75.59-18.87,5.82-26.59,5.37,2-5.2,4-12.9,7.4-17.69-10,6.51-24.74,9.62-36.78,11.36A152.57,152.57,0,0,0,62.8,467c-4.93,3.91-12.55,5.15-18.67,6.63A126.94,126.94,0,0,1,25,476.86c1.91-2.48,4.61-5.09,6.43-7.79,2.35-3.46,3.52-7.43,6.18-10.75-5.44,2.13-10.69,4.77-16.08,6.86-5.8,2.24-14.23,4.07-20.29,5.73C2.78,468,7.61,465,9.16,462c1.79-3.49,2.27-8,5.27-10.74-3.16,2.34-9.06,2.54-12.83,4-4.66,1.75-12,4.49-17.08,5.36C-17.54,455.5-14,445-13.11,439.69c-5,3.14-13.78,5.56-19.6,6.56-1.35-5.12-2.63-12.19-8.85-11.94-5.58.21-10.93,2.74-16.53,3.22-2.29-4.69-2-11.83-3.83-17.06-3.73,2.7-4.8,8.47-9,10.89-2.45-1.69-12.24-9.18-14.29-10.72-4.33-3.25-16.72-7.48-16.72-7.48Z"/><path class="cls-1" d="M689.8,882.06c14.49,3,14.23,2.52,23.38,1.72.12,4.16-3.4,11.43-3.67,15.58,3.42-3.43,7.15-8.26,10.23-12,.11,3.4-.6,7-.59,10.44,0,4.53-.74,8.21.26,12.3,3.32-1.87,7.11-6.7,8.44-10.38-.76,8.16,2.25,20,2.25,20,1.73-1.92,3.31-4.85,4.53-6.46,1.74-2.3,2.31-3.38,4.76-6.9-.17,3.89-.88,8.27-.49,11.57.25,2.07.41,4.38.76,6.45.26,1.45.28,4,1.29,5a14.72,14.72,0,0,1,4.12-6.44,52.87,52.87,0,0,1,6.78-4.89,18,18,0,0,0-1.37,8.76c.34,3.52.91,8.56,2.33,12,1.17-2,2.08-4.77,4.14-6.78a44.55,44.55,0,0,0,7.42-9.16c.6,2.36-.3,3.59-.36,5.2-.14,3.51.43,5.93-.09,9.4a32.52,32.52,0,0,0,.77,10.5c1.36-2.86,2.46-3.7,4.24-6,1-1.22,5.53-4.58,7.08-6-.29,1.38-.74,2.73-.94,4.13a30.12,30.12,0,0,0,.13,9.71,60.34,60.34,0,0,0,2.56,9.21c3-2,4.15-3.69,7.07-7.85,1.76-2.5,2.36-3.62,5.18-8.06,1.16,3.64,1.22,7.48,2.14,11.32a65.2,65.2,0,0,1,1.33,12.26s4.5-3.64,7.22-6.14c.76-.7,4.7-4.72,5.31-5.57-.1,1-.78,5.53-.74,6.58a52.36,52.36,0,0,0,.83,6.94c.29,2,.75,4,1.23,6,.3,1.25.42,3.83.82,5,.76-.68,1.48-2.27,2.22-3s1.68-1.32,2.47-2a47.85,47.85,0,0,0,4-3.95,14.9,14.9,0,0,0,2.46-3.48c.72,1.35,3,7.68,3,10.62,0,1.5.11,10.8.38,11.57,2.32-2.5,4.09-7.67,5.18-10.94.6-1.77,2.63-8.1,2.75-8.68a35.52,35.52,0,0,0,1.23,5.57c1.12,3.65,4.87,15,5.64,17.76.38,1.35,1.51,4.88,2,6.17,2.15-2.66,3.15-6.49,4.27-9.71a90.47,90.47,0,0,1,4.29-8.47c.61,1.19,1.64,5,2.1,6.28a47,47,0,0,1,2.58,10.12c.13.76,2.34,9.35,3,10.58,1.77-2,4.53-8.91,5.37-10.54.74-1.45,2.47-5.9,3.59-7.92a30,30,0,0,0,1.18,5.36c.59,1.37,1.09,2.75,1.68,4.12.76,1.76,1.51,3.49,2.28,5.25.32.74,1.7,3.48,2.4,3.86.49-3,1.94-6.07,2.83-9,.77-2.52,2.08-5.08,2.31-7.71.75.25,6.72,14.6,9.06,19.38,1.18,2.41,2.35,4.81,3.52,7.22a7.24,7.24,0,0,0,3.31,3.78c.75-1,.08-9.32,0-11.95-.08-2-.18-12.25,1-15,1,2.56,2.6,5.74,3.69,8.27a51.78,51.78,0,0,0,2.6,5.35c.81,1.38,1.64,2.78,2.36,4.21a88.07,88.07,0,0,0,5.24,9.14,56.06,56.06,0,0,1,.8-7.77c.36-1,2-9.21,1.85-11.56.57,1.35,1.46,2.7,2.15,4,1.5,2.89,3,5.77,4.34,8.77a18.48,18.48,0,0,0,3.47,5.86c1,1.07,3.61,2.88,5.32,2.89.48-1.54-1.14-9.18-1.18-11.41a48.63,48.63,0,0,0-.72-7.89c-.62-3.38-1.53-6.58-1.91-10a26,26,0,0,1,4.63,3.67,32.46,32.46,0,0,1,5.36,7.57c1.44,2.79,6.74,11.91,8,14,.55.92,3.46,3.69,3.92,2.57a12.64,12.64,0,0,0,.69-8.66,25.81,25.81,0,0,1-1.51-7.19c-.1-1.18.3-7.91,2.43-5.93,1.65,1.54,3.61,4.27,5.14,5.92,1.77,1.92,3.13,4.15,4.87,6.1s3.21,4.38,4.91,6.35a14.25,14.25,0,0,0,4.61,3c1.35.64,2-1.77,2-2.81a26.94,26.94,0,0,1,.39-6.84c.26-1.25.47-5.26,2.22-5.32,1.39,0,3.69,1.72,4.59,2.64,3,3,5.69,7.28,9.92,8.62,1,.3,3.37.82,2.55-.92-.59-1.25-3.18-7-3.88-8.7a51.29,51.29,0,0,1-3-14.77c5.17,3.52,14.42,15.14,15.88,16.18,1.89,1.33,5.09,2.86,3.86-.76-.72-2.12-1.93-5.07-2.65-7.2-.39-1.16-2-5.45-1.86-7.88v-.17c.52.06,4.47-.25,7.83,1.15a19.67,19.67,0,0,1,3.17,1.61c.89.59,13.46,9.87,16.3,11-.3-1.61-.85-3.29-1.27-4.91-1.56-6-4.79-11.47-6.88-17.27,2,.59,8.83,4.59,10.16,5.59,1.74,1.3,3.29,2.87,4.9,4.32,3,2.75,7.11,5.39,11.33,5.47-1.5-3.27-2.73-6.65-4.27-9.91-.79-1.65-1.26-3.39-2-5.09-.54-1.29-1.3-3.46-.88-4.87,1.08-3.68,6.59.34,8.36,1.48,3.33,2.14,6,5,9,7.58a31.94,31.94,0,0,0,8.32,5.32s-1.47-6.43-2.23-8.28c-.59-1.45-2.77-6.85-2.32-8.48s1.61-.18,3.09.69c3,1.73,5.13,3.08,7.45,4.69,4.15,2.87,5.25,5.25,7.75,6.58,1.33.71,4.11,2.69,3.28.44-1.51-4-3.18-9.08-4.68-13.12a17.78,17.78,0,0,1-1.44-5.47c0-1.26-1-5.49,1-5.28,1.13.13,2.44,1.66,3.4,2.21a14.67,14.67,0,0,1,2.59,1.74c1.52,1.35,2.28,2.12,3.89,3.38,1.45,1.14,3.53,2.37,4.76,3.36.71.58,5.19,2.55,5.36,1.41.12-.89-.86-2.91-1.12-3.73-.54-1.71-1-3.44-1.4-5.2-.3-1.38-1.7-5.79-.11-6.89,1.06-.73,2.45,1.29,3.1,2,1.08,1.11,2,2.34,3.09,3.48,1.57,1.7,3.5,2.55,5.46,3.68a21.59,21.59,0,0,0,5.28,2.36c-.58-1.15-3.06-5.65-3.58-6.85-1.47-3.4-1.24-3.31-2.73-6.73-.66-1.5-1.17-3.08-1.75-4.61a33.46,33.46,0,0,1-1.61-4.11,57.13,57.13,0,0,0,7.41,6,58.06,58.06,0,0,1,5.14,3.79,11.51,11.51,0,0,0,3.38,1.53,7.59,7.59,0,0,0,2,0,7.41,7.41,0,0,0-.66-2.15,44.05,44.05,0,0,0-2.13-4.3,11,11,0,0,0-1-1.75c-1.95-2.53-3.3-5.59-4.94-8.36-2.26-3.85-4.31-7-4.43-8.84.52.3,2.78,1.72,3.3,2,4.09,2.29,7.2,2.76,11.9,2.62,1.43,0,4,.2,5.08-.88s0-2.94-.59-4.13a26.11,26.11,0,0,0-3.69-5c-1.28-1.53-2.45-3.13-3.66-4.71a17.31,17.31,0,0,0-11.3-6.34c-3.41-.49-7.15-.13-10.58-.07,2.59-.07,5.91-.31,8.47-.12,2.29.16,5.11.47,7.13,1.64,1.16.68,1.59.93,2.77,1.57a32.44,32.44,0,0,1,3,2.07c2.18,1.55,4.4,3.38,6.94,4.25a16.22,16.22,0,0,0,4.43,1.08,9.73,9.73,0,0,1,4,.94c-.74-2.22-2.45-4-3.52-6a26.17,26.17,0,0,0-4-5.28,30.09,30.09,0,0,0-3.46-3.5c-1-.78-1.94-1.56-2.84-2.43a42.47,42.47,0,0,0-4.53-4.17c-1.26-.89-2.85-2-3.53-3.42.9.19,1.76.15,2.65.41a29.37,29.37,0,0,0,5.07,1.35c1.41.17,2.89.49,4.29.71,0,0-2.23-2.72-2.54-3.12a22,22,0,0,0-2.3-2.43c-1.48-1.47-3-2.9-4.62-4.26-1.21-1.06-2.26-2.16-3.54-3.15s-5.55-3.22-6.14-4c3.65-.31,5,.28,9.18.83,1.89.26,5.87,1.68,7.76,1.71-.73-1.76-1.35-3.78-2.14-5.52a17,17,0,0,0-3.44-4.58,8.57,8.57,0,0,0-3.66-1.77c-2.57-.89-7.72-.85-9.66-.7,1.88-.58,3.76-1.13,5.69-1.54,2.9-.63,5.91-1.06,8.22-3.12a4.22,4.22,0,0,0,1.48-3.4,5.87,5.87,0,0,0-3.73-4.76,24.54,24.54,0,0,0-6.47-1.13,52.83,52.83,0,0,0-5.76.34,21.59,21.59,0,0,0-5.51,1.42,35.19,35.19,0,0,1,4.12-3.49,31.14,31.14,0,0,0,6-5.32c.69-.83,1.2-1.78,1.87-2.62.49-.61,1.85-1.86,1.67-2.7a34.37,34.37,0,0,0-3.54,1.11c-5.18,2.27-11,5.16-16.3,7.07,1.21-3.63,3.83-7.52,5.89-10.73,1.23-1.91,2.48-3.81,3.57-5.81.62-1.16,1.6-2.75,1.49-4.14-.2-2.49-4.34-.41-5.45.12a49.42,49.42,0,0,0-12.7,9.41,6.48,6.48,0,0,1,.39-3.13c1-3.42,1.72-6.88,3.55-10a8.48,8.48,0,0,0,1.42-4.08,7.46,7.46,0,0,0-.21-2.67,18,18,0,0,0-4,1.92,14.75,14.75,0,0,0-3.49,3.29,15.07,15.07,0,0,0-2.16,3.66c-.53,1.59-1.14,3.22-1.58,4.83a40.52,40.52,0,0,0-1.54,5,31.29,31.29,0,0,1-2.67-10.6c-.16-3.39-1-8.26-2.55-11.12-1.6.83-2.85,2.74-4.14,4-2.68,2.59-2.65,5.28-2.49,9a41,41,0,0,1-1.23,11,110.88,110.88,0,0,1-4.49-10.17c-1-2.7-2-7.41-4.24-9.4-2.57-2.25-3.41,2.34-4,4.16a55.27,55.27,0,0,0-1.89,8.55c-.41,2.92-.26,6.22-1.06,9.08a40.53,40.53,0,0,0-6.41-3.83c-2.75-1.49-9.88-3.85-11-2.28s-.16,3,.75,4.5a61.35,61.35,0,0,0,4,5.62c-.43-.05-7.42-1.27-10.69-3.41a39.85,39.85,0,0,0-4.66-2.47c-.74-.39-3.36-1.35-4.2-.89s-.41,2.18-.07,3a30.63,30.63,0,0,0,3.37,5.7,34.29,34.29,0,0,1,3,5.17c.7,1.41,3,5.42,1,6.69s-4.93-.64-6.75-1.38c-2-.82-3.92-2-5.94-2.89-1.59-.69-3.55-1.2-4.88.33-1.17,1.34-.52,3.65-.17,5.21.61,2.67,1.2,5.36,1.64,8.08.08.49,1.38,6.31.45,6.33-1.42,0-3.59-2-4.68-2.8-2.42-1.71-4.54-3.82-7-5.55-1.66-1.2-3.94-3.28-6.18-2.67-2.54.69-2.58,3.67-2.3,5.77a41.22,41.22,0,0,1,.42,6.93c-3-.16-11.16-5.11-13.07-6.83a22.72,22.72,0,0,0-6.26-4c-2.26-.92-2.68,1.57-2.17,3.63.62,2.46,2.37,4.59,3.42,6.88s2.37,5.47,3.5,7.76a25.45,25.45,0,0,1-11.57-2.16c-2.72-1.12-6.57-3.89-9.84-3,1.39,3.08,4.15,8,5.38,11.23-4.42-.21-10.44-1.23-14.41-3.57-3.4-2-7.61-2.8-11.21-4.3,1.52,4.41,4.74,9.33,6.32,13.79-1.27.53-3.28-1.11-4.43-1.77-1.39-.78-2.88-1.49-4.21-2.31a37,37,0,0,0-6.93-3.5s3.64,10,5.69,13.72a33,33,0,0,1-6-1.13c-1.9-.57-14.06-5.33-15.33-5.05,1.07,3.09,3.88,8.08,4.93,11.17-3.76.43-7.85-1.32-11.38-3-3.31-1.56-7-5.78-10.46-7.12.88,2.56,3.71,5.76,4.46,8.32s1.69,6.41,3,8.7c-1.79-1.66-4.12-3.77-6-5.52-2.45-2.24-5.83-3.72-8.42-5.33-.67,3.15.26,5.61.15,8.15-.12,3.08-1.07,6.5-1.46,9.53-3.16-1.26-6.17-6.27-8-8.93-2-3-4.52-6.16-6.38-8.9l.1.22c-1.51,2.83-5,7.86-4.77,11.23-2.4-2.49-3.71-6.17-5.59-9.12-2.36-3.68-3.77-10.45-6.58-13.77-1.65,2.68-4.44,6.18-5.46,9.31-.47-6.72-4-14.38-7.33-20.38a86.74,86.74,0,0,1-3.47,12.19c.09-3.54-1.93-7.39-3.34-10.64a69.5,69.5,0,0,0-5-9.71c-.46,1.69-.72,3.79-1.32,5.52-.76,2.23-2.15,4.1-2.74,6.42-.89-3.17-1.47-6.42-2.36-9.55-1-3.37-3-7.78-4.29-11.06-.79,1.69-.48,4.86-1.32,6.58-1,2-2.82,3.73-3,6,0-2.22-1.93-4.94-2.57-7.11a61.3,61.3,0,0,0-3.37-9.49c-3,.79-6.52,6-8.59,8.13-.27-3.3-2.16-8.07-3.68-11-2.76,1.12-6.37,2.94-8.36.07-1.79-2.59-2.47-5.85-4.15-8.53-2.88.56-6,3.08-9,4.05,0-2.59,2.19-5,1.86-7.72-1.59-.53-8.27-2.4-9.65-2.8-2.93-.85-9-5-9-5Z"/><path class="cls-1" d="M1503,1521.77c3.72-16.23,3.16-16,2.47-26.27,4.69,0,12.78,4.1,17.44,4.49-3.78-3.93-9.13-8.23-13.3-11.78,3.82-.06,7.83.83,11.73.89,5.09.08,9.22,1,13.84,0-2-3.78-7.38-8.15-11.49-9.73,9.16,1,22.54-2.08,22.54-2.08-2.12-2-5.37-3.83-7.17-5.24-2.55-2-3.74-2.67-7.65-5.52,4.38.29,9.28,1.19,13,.82,2.33-.24,4.94-.36,7.27-.72,1.64-.25,4.48-.22,5.68-1.33a16.36,16.36,0,0,1-7.14-4.78,60.13,60.13,0,0,1-5.35-7.73,20.2,20.2,0,0,0,9.82,1.73c4-.3,9.65-.83,13.57-2.34-2.29-1.37-5.32-2.46-7.54-4.82a49.94,49.94,0,0,0-10.14-8.55c2.67-.62,4,.42,5.85.52,4,.23,6.67-.35,10.57.31,3.44.6,8.47.06,11.84-.63-3.2-1.59-4.11-2.84-6.64-4.9-1.35-1.09-5-6.33-6.63-8.1,1.56.35,3.06.89,4.63,1.15a34,34,0,0,0,10.93.07,69.18,69.18,0,0,0,10.42-2.67c-2.2-3.41-4-4.76-8.67-8.14-2.78-2-4-2.73-9-6,4.12-1.23,8.45-1.21,12.79-2.15a73.44,73.44,0,0,1,13.83-1.23s-4-5.14-6.75-8.25c-.77-.87-5.21-5.41-6.14-6.1,1.15.12,6.19,1,7.38,1a60.4,60.4,0,0,0,7.82-.79c2.29-.28,4.49-.75,6.74-1.24,1.41-.31,4.32-.39,5.66-.82-.74-.87-2.51-1.71-3.31-2.56s-1.45-1.91-2.23-2.82a57,57,0,0,0-4.36-4.57,16.84,16.84,0,0,0-3.86-2.84c1.54-.79,8.71-3.18,12-3.11,1.69,0,12.15.13,13-.17-2.77-2.66-8.54-4.77-12.19-6.07-2-.71-9-3.14-9.71-3.29a38.62,38.62,0,0,0,6.3-1.26c4.13-1.18,16.93-5.14,20.11-5.95,1.52-.38,5.52-1.58,7-2.15-3-2.48-7.23-3.69-10.83-5a100,100,0,0,1-9.43-5c1.35-.66,5.66-1.73,7.1-2.22a53,53,0,0,1,11.45-2.68c.86-.12,10.58-2.41,12-3.09-2.22-2-9.92-5.3-11.73-6.28-1.62-.87-6.59-2.92-8.84-4.22,1.77-.33,4.36-.51,6.06-1.2s3.12-1.17,4.68-1.81l6-2.44c.83-.35,4-1.83,4.39-2.62-3.39-.61-6.78-2.32-10-3.38-2.82-.93-5.67-2.46-8.62-2.78.3-.83,16.58-7.22,22-9.75,2.74-1.28,5.46-2.54,8.2-3.8a8.2,8.2,0,0,0,4.33-3.63c-1.13-.87-10.48-.31-13.45-.26-2.27,0-13.79-.07-16.88-1.48,2.9-1.08,6.51-2.79,9.38-4a55.74,55.74,0,0,0,6.08-2.8c1.57-.88,3.17-1.78,4.8-2.56a101,101,0,0,0,10.4-5.69,62.34,62.34,0,0,1-8.73-1.08c-1.11-.42-10.32-2.5-13-2.34,1.53-.61,3.07-1.58,4.58-2.33,3.29-1.62,6.56-3.28,10-4.68a20.77,20.77,0,0,0,6.67-3.77c1.23-1.15,3.32-4,3.37-5.92-1.73-.57-10.36,1.08-12.86,1.07a54.14,54.14,0,0,0-8.9.62c-3.82.63-7.44,1.58-11.24,1.94a28.51,28.51,0,0,1,4.23-5.14,36.57,36.57,0,0,1,8.63-5.85c3.18-1.56,13.56-7.32,16-8.71,1-.61,4.23-3.82,3-4.36-4.29-1.85-7.66-1.6-9.73-1a28.52,28.52,0,0,1-8.12,1.54c-1.33.09-8.89-.51-6.61-2.87,1.76-1.82,4.88-4,6.77-5.64,2.2-1.95,4.74-3.43,7-5.34s5-3.51,7.24-5.39a16,16,0,0,0,3.49-5.11c.74-1.51-2-2.32-3.12-2.32a30.43,30.43,0,0,1-7.69-.59c-1.39-.32-5.91-.66-5.93-2.62,0-1.56,2-4.11,3.08-5.11,3.46-3.26,8.31-6.23,9.91-11,.36-1.08,1-3.77-1-2.89-1.42.64-7.93,3.42-9.87,4.16a57.54,57.54,0,0,1-16.7,3.08c4.08-5.73,17.37-15.88,18.57-17.5,1.54-2.1,3.33-5.66-.77-4.36-2.4.77-5.74,2.06-8.16,2.82-1.32.42-6.18,2.12-8.91,1.91H1636c.08-.58-.18-5,1.47-8.79a21.78,21.78,0,0,1,1.89-3.53c.68-1,11.4-14.92,12.7-18.08-1.81.3-3.72.87-5.55,1.32-6.73,1.61-13,5.12-19.58,7.35.7-2.3,5.36-9.83,6.51-11.31,1.51-1.93,3.31-3.64,5-5.41,3.16-3.32,6.23-7.88,6.41-12.63-3.71,1.61-7.55,2.92-11.24,4.58-1.89.85-3.85,1.34-5.77,2.1-1.47.58-3.93,1.39-5.5.89-4.12-1.31.52-7.42,1.84-9.38,2.49-3.7,5.74-6.7,8.74-10a36.37,36.37,0,0,0,6.17-9.25s-7.27,1.52-9.36,2.33c-1.65.63-7.77,3-9.6,2.42s-.17-1.82.85-3.47c2-3.28,3.58-5.7,5.44-8.27,3.33-4.61,6-5.79,7.58-8.57.83-1.48,3.12-4.57.57-3.68-4.58,1.6-10.29,3.37-14.86,5a20.24,20.24,0,0,1-6.2,1.5c-1.41,0-6.2.94-5.91-1.27.17-1.26,1.93-2.7,2.56-3.77a17.53,17.53,0,0,1,2-2.88c1.55-1.67,2.44-2.51,3.89-4.29,1.31-1.61,2.74-3.92,3.89-5.28.66-.79,3-5.78,1.7-6-1-.16-3.29.9-4.21,1.17q-2.91.87-5.89,1.46c-1.56.31-6.56,1.78-7.75,0-.8-1.2,1.51-2.72,2.27-3.43,1.28-1.2,2.68-2.24,4-3.4,2-1.73,2.94-3.88,4.26-6.06a24.58,24.58,0,0,0,2.77-5.89c-1.3.62-6.43,3.31-7.79,3.87-3.86,1.58-3.74,1.33-7.62,2.92-1.71.71-3.5,1.25-5.23,1.86-.92.33-4.19,1.8-4.67,1.73,1.53-1.18,6.49-7.41,6.92-8.21a61.89,61.89,0,0,1,4.37-5.69,13.13,13.13,0,0,0,1.81-3.77,9.14,9.14,0,0,0,0-2.28,8.55,8.55,0,0,0-2.43.71,45.35,45.35,0,0,0-4.89,2.29,12.56,12.56,0,0,0-2,1c-2.89,2.14-6.37,3.59-9.52,5.37-4.38,2.45-8,4.7-10,4.78.34-.57,2-3.08,2.33-3.66,2.67-4.55,3.27-8,3.21-13.33,0-1.61.32-4.49-.87-5.74s-3.31,0-4.66.58a29,29,0,0,0-5.75,4c-1.75,1.41-3.58,2.68-5.38,4a19.43,19.43,0,0,0-7.39,12.57c-.63,3.82-.31,8-.32,11.89,0-2.91-.21-6.65.06-9.53.23-2.57.64-5.73,2-8,.8-1.29,1.09-1.77,1.83-3.09a36.64,36.64,0,0,1,2.4-3.31c1.79-2.41,3.9-4.87,4.94-7.71a18.76,18.76,0,0,0,1.32-5,10.88,10.88,0,0,1,1.14-4.47c-2.51.78-4.51,2.66-6.83,3.82a30,30,0,0,0-6,4.35,35.18,35.18,0,0,0-4,3.81c-.9,1.09-1.8,2.15-2.8,3.15a46.14,46.14,0,0,0-4.79,5c-1,1.39-2.28,3.16-3.92,3.89a29.06,29.06,0,0,1,.52-3,35.08,35.08,0,0,0,1.63-5.68c.22-1.59.61-3.25.9-4.82,0,0-3.12,2.46-3.57,2.79a27.92,27.92,0,0,0-2.8,2.53c-1.67,1.63-3.32,3.37-4.89,5.1-1.22,1.35-2.48,2.51-3.62,3.92s-3.75,6.18-4.69,6.82c-.26-4.11.43-5.6,1.15-10.31.33-2.13,2-6.57,2.09-8.69-2,.77-4.28,1.43-6.25,2.28a19.05,19.05,0,0,0-5.23,3.76c-1.19,1.13-1.53,2.58-2.08,4.08-1.06,2.87-1.13,8.66-1,10.86-.61-2.13-1.19-4.26-1.61-6.44-.64-3.28-1.06-6.67-3.32-9.32a4.82,4.82,0,0,0-3.79-1.75,6.6,6.6,0,0,0-5.44,4.1,27.17,27.17,0,0,0-1.42,7.25,61.12,61.12,0,0,0,.25,6.49,24.06,24.06,0,0,0,1.47,6.23,38.53,38.53,0,0,1-3.83-4.72,35,35,0,0,0-5.86-6.82c-.91-.79-2-1.4-2.9-2.17-.68-.56-2-2.12-3-1.93a38.51,38.51,0,0,0,1.16,4c2.44,5.87,5.56,12.51,7.59,18.5-4.06-1.45-8.38-4.49-11.94-6.88-2.12-1.42-4.23-2.88-6.46-4.14-1.29-.73-3.06-1.87-4.62-1.77-2.81.17-.56,4.87,0,6.12,2.5,5.51,6.23,10.11,10.3,14.51a7.22,7.22,0,0,1-3.51-.51c-3.82-1.21-7.7-2.08-11.2-4.22a9.53,9.53,0,0,0-4.55-1.69,8.49,8.49,0,0,0-3,.17,20.3,20.3,0,0,0,2.08,4.51,16.29,16.29,0,0,0,3.62,4,17.32,17.32,0,0,0,4.07,2.51c1.77.64,3.59,1.36,5.39,1.88s3.61,1.54,5.54,1.85a35.25,35.25,0,0,1-12,2.77c-3.81.11-9.31.91-12.56,2.61.89,1.82,3,3.27,4.39,4.75,2.85,3.07,5.87,3.11,10,3a46.08,46.08,0,0,1,12.4,1.63c-4.62,2.19-8.69,3.82-11.55,4.83-3.06,1.08-8.39,2.05-10.68,4.55-2.59,2.84,2.57,3.89,4.59,4.56a62.63,62.63,0,0,0,9.59,2.32c3.27.52,7,.43,10.18,1.4a46.47,46.47,0,0,0-4.45,7.12c-1.74,3.07-4.55,11-2.81,12.3s3.33.24,5.08-.75a68.84,68.84,0,0,0,6.41-4.43c-.07.49-1.6,8.32-4.07,11.95a44.57,44.57,0,0,0-2.89,5.19c-.45.83-1.6,3.75-1.1,4.71s2.44.5,3.34.14a34.39,34.39,0,0,0,6.5-3.66,37.54,37.54,0,0,1,5.88-3.32c1.6-.75,6.17-3.23,7.54-1s-.82,5.53-1.69,7.56c-1,2.28-2.35,4.36-3.39,6.62-.82,1.78-1.43,4,.26,5.49,1.48,1.35,4.1.68,5.86.31,3-.63,6.06-1.23,9.13-1.66.55-.08,7.12-1.41,7.13-.36,0,1.59-2.37,4-3.26,5.2-2,2.69-4.4,5-6.4,7.7-1.38,1.85-3.78,4.36-3.15,6.9.72,2.87,4.08,3,6.45,2.71a47.27,47.27,0,0,1,7.8-.31c-.24,3.32-6,12.44-8,14.56a25.8,25.8,0,0,0-4.67,6.95c-1.07,2.51,1.71,3.05,4,2.51,2.77-.63,5.21-2.56,7.81-3.69s6.21-2.54,8.81-3.76a28.61,28.61,0,0,1-2.68,13c-1.33,3-4.54,7.3-3.66,11,3.49-1.49,9.14-4.49,12.75-5.79-.34,5-1.62,11.72-4.33,16.13-2.33,3.77-3.33,8.49-5.1,12.51,5-1.61,10.6-5.12,15.65-6.8.58,1.44-1.32,3.66-2.08,4.95-.91,1.54-1.75,3.2-2.7,4.68a41.21,41.21,0,0,0-4.09,7.72s11.35-3.87,15.56-6.1a38.25,38.25,0,0,1-1.4,6.73c-.69,2.11-6.31,15.69-6,17.12,3.49-1.13,9.18-4.18,12.68-5.29.4,4.24-1.67,8.8-3.62,12.74-1.82,3.68-6.65,7.8-8.24,11.61,2.9-.93,6.56-4.06,9.46-4.84s7.25-1.76,9.85-3.18c-1.9,2-4.32,4.55-6.34,6.67-2.58,2.7-4.32,6.47-6.19,9.35,3.53.82,6.32-.17,9.18,0,3.46.21,7.28,1.35,10.69,1.86-1.5,3.53-7.2,6.81-10.23,8.75-3.4,2.19-7,4.93-10.16,7l.24-.1c3.16,1.76,8.73,5.84,12.54,5.61-2.85,2.65-7,4-10.39,6.09-4.2,2.56-11.85,4-15.64,7.09,3,1.92,6.85,5.13,10.35,6.35-7.57.37-16.27,4.22-23.09,7.79a96.92,96.92,0,0,1,13.63,4.18c-4-.18-8.36,2-12,3.52a79.61,79.61,0,0,0-11,5.42c1.9.56,4.26.9,6.19,1.61,2.49.91,4.56,2.52,7.15,3.23-3.58.93-7.25,1.51-10.79,2.44-3.81,1-8.82,3.18-12.54,4.57,1.89.94,5.45.65,7.38,1.64,2.21,1.13,4.12,3.26,6.69,3.56-2.5,0-5.6,2.06-8.06,2.72a70,70,0,0,0-10.76,3.58c.82,3.37,6.55,7.48,9,9.85-3.72.23-9.14,2.25-12.49,3.89,1.2,3.13,3.16,7.24-.12,9.41-3,2-6.63,2.64-9.69,4.48.57,3.25,3.34,6.83,4.36,10.18-2.91,0-5.6-2.57-8.65-2.26-.63,1.77-2.88,9.25-3.36,10.79-1,3.28-5.81,10-5.81,10Z"/></svg>