<svg id="Layer_1" data-name="Layer 1" xmlns="http://www.w3.org/2000/svg" viewBox="0 0 1900 1200"><defs><style>.cls-1{fill:#e3dbd1;}</style></defs><title>contact-page-bkgd</title><path class="cls-1" d="M1703.93,311.47c66.88-80.09,209.18-45.83,267.85,21.13-56.25,66.29-162.62,81.56-229.55,26.32-17-14-32.19-18.64-36.36-41.4Z"/><path class="cls-1" d="M1523.32,286.84c-83.11-10.13-122.08-120.91-102.56-189.63,69.18,9,125.85,74,117.82,143.14-2,17.56,1.48,29.81-12,42.54Z"/><path class="cls-1" d="M554.72,844.42c-82.65-13.35-117.29-125.57-95.1-193.48,68.77,11.67,122.87,78.81,112.16,147.62-2.72,17.47.32,29.85-13.68,42Z"/><path class="cls-1" d="M218.33,633.58c-50.83-66.53,1.18-171.82,64-205.87,41.92,55.76,35,141.71-20.06,184.3-14,10.82-20.29,21.89-38.84,21.12Z"/><path class="cls-1" d="M1713.52,1081c-82.65-13.35-117.29-125.56-95.11-193.47,68.78,11.66,122.88,78.81,112.17,147.62-2.72,17.46.32,29.84-13.68,42Z"/><path class="cls-1" d="M108.44,851.56c-103.67,58.12-241.23-36-276.51-131.12,86.75-47.74,206.16-20.85,255,65.09,12.4,21.82,26.7,32.9,21.9,58.81Z"/><path class="cls-1" d="M570,216.19C498.48,259.77,399.22,197,371.93,131c59.84-35.84,144.6-20,181.19,39.26,9.29,15,19.65,22.47,16.93,40.84Z"/><path class="cls-1" d="M64.55,136.07C34.29,58,113.59-28.61,183.4-43.8c24.7,65.24-5.88,145.86-70.66,171.4C96.3,134.09,87.15,143,69.56,137.06Z"/><path class="cls-1" d="M2177.61,738.53c-20.53-3.82-19.92-4.32-31.45-10.26-2.37,5.37-1.67,16.74-3.54,22.3-2.63-6.31-4.92-14.62-6.92-21.19-2,4.38-2.95,9.42-4.82,14-2.45,5.89-3.43,11.11-6.92,15.92-3.34-4.22-5.69-12.55-5.46-18.08-3.37,11.06-13.65,24.89-13.65,24.89-1.22-3.43-1.72-8.09-2.45-10.86-1-3.93-1.2-5.63-2.52-11.55-1.86,5.18-3.27,11.27-5.56,15.37-1.43,2.56-2.88,5.5-4.45,8-1.1,1.76-2.49,5-4.36,5.88a20.61,20.61,0,0,0-2-10.61,74.26,74.26,0,0,0-6.22-10,25.33,25.33,0,0,1-2.91,12.17c-2.32,4.42-5.77,10.69-9.46,14.44-.43-3.31-.17-7.34-1.78-11.07a62.27,62.27,0,0,1-4.78-15.94c-2,2.77-1.54,4.86-2.32,7-1.7,4.66-3.74,7.5-4.91,12.31-1,4.26-4.16,9.78-6.64,13.31-.23-4.47-1.22-6.14-2.33-10.09-.58-2.09-4.77-8.93-6-11.66-.37,2-.5,4-1,5.91a42.57,42.57,0,0,1-5.37,12.6,87,87,0,0,1-8.27,10.66c-2.83-4.24-3.45-7-5-14-1-4.21-1.13-6-2.43-13.3-3.47,4.13-5.61,9.12-8.86,13.64-3.4,4.72-5.72,9.76-8.31,15.3,0,0-3.92-7.16-6.13-11.88-.62-1.32-3.62-8.7-4-10.12-.43,1.39-1.94,7.63-2.56,9a73.9,73.9,0,0,1-4.8,8.6c-1.47,2.5-3.11,4.8-4.8,7.14-1.06,1.47-2.6,4.77-3.76,6.1-.63-1.28-.71-3.74-1.29-5.09s-1.49-2.62-2.13-4a66.8,66.8,0,0,1-3.09-7.3,21.28,21.28,0,0,1-1.35-5.85c-1.67,1.37-8,8.43-9.57,12.27-.79,2-5.92,14.05-6.69,14.9-1.68-4.51-1.22-12.21-.91-17,.18-2.64.91-12,1.07-12.82a48.8,48.8,0,0,1-4.59,6.62C1939,788.22,1928,801,1925.5,804.22c-1.21,1.56-4.58,5.56-6,7-1.38-4.62-.63-10.15-.38-15a123.88,123.88,0,0,0-1.06-13.35c-1.43,1.22-4.82,5.65-6.1,7.06a66.4,66.4,0,0,0-8.79,11.83c-.57.94-8.06,11-9.54,12.24-1.24-3.57-1.15-14.06-1.37-16.64-.19-2.29-.07-9-.44-12.27-1.26,1.88-2.76,4.77-4.41,6.38s-2.9,3-4.41,4.48l-5.79,5.63c-.81.79-4.07,3.63-5.2,3.75,1-4.2.72-9,1.12-13.25.35-3.71,0-7.75,1.11-11.31-1.11-.06-16.58,15.48-22.2,20.46-2.84,2.52-5.64,5-8.46,7.54-.89.79-3.1,3-6.34,3.16-.44-1.72,4.88-12.2,6.41-15.59,1.19-2.6,6.8-15.9,6.73-20.17-2.7,2.8-6.46,6.1-9.24,8.82a69.13,69.13,0,0,1-6.26,5.6c-1.8,1.37-3.63,2.76-5.33,4.24a125.53,125.53,0,0,1-11.75,9.13,79.12,79.12,0,0,0,3.13-10.58c.06-1.49,2.26-13.12,3.76-16.09-1.47,1.46-3.35,2.75-5,4.12-3.51,3-7,5.9-10.36,9.13-2.36,2.3-4.6,4.45-7.67,5.79-1.93.84-6.26,1.83-8.5.92.21-2.27,6.42-11.38,7.66-14.26a68.57,68.57,0,0,1,5.15-9.92c2.62-4.08,5.53-7.77,7.84-12a36.79,36.79,0,0,0-8,2.31,45.58,45.58,0,0,0-11,7c-3.38,2.88-15.19,12-18,14.05-1.22.9-6.5,2.95-6.5,1.25,0-5.86,2-9.61,3.73-11.68a36.17,36.17,0,0,0,5.82-8.59c.77-1.47,3.85-10.48,0-9-3,1.12-7,3.64-9.87,5-3.34,1.56-6.31,3.74-9.62,5.36s-6.54,4-9.82,5.65c-2.33,1.18-5.52,1.35-7.62,1.45s-1.69-3.4-1.1-4.74A38.5,38.5,0,0,0,1745,760c.32-1.77,2.19-7.12-.06-8.13-1.79-.8-5.74.27-7.41,1-5.48,2.36-11.33,6.46-17.56,5.94-1.43-.13-4.84-.73-2.84-2.56,1.44-1.32,7.89-7.42,9.72-9.29,5.82-5.95,11.29-16,11.87-17.66-8.64,1.82-26.94,12-29.4,12.62-3.19.73-8.18,1-4.63-3.06,2.08-2.38,5.23-5.58,7.32-8,1.13-1.31,5.51-6.05,6.64-9.29l.08-.23c-.71-.2-5.71-2.72-10.85-2.69a26.16,26.16,0,0,0-5,.41c-1.47.28-22.86,5.67-27.14,5.59,1.24-1.93,2.86-3.85,4.28-5.74,5.22-6.93,12.39-12.41,18.23-18.86-3-.33-14,1.27-16.26,1.86-3,.77-5.83,2-8.71,3-5.4,2-12.17,3.23-17.73,1.07,3.71-3.47,7.12-7.23,10.88-10.65,1.92-1.74,3.46-3.76,5.3-5.59,1.4-1.4,3.55-3.82,3.76-5.89.56-5.39-8.79-3.1-11.71-2.56-5.49,1-10.57,3.26-15.81,5.1a45.44,45.44,0,0,1-13.71,2.47s5.37-7.6,7.34-9.6c1.55-1.58,7.29-7.46,7.58-9.84s-2-1.1-4.41-.75c-4.79.68-8.35,1.27-12.23,2.13-7,1.54-9.68,4.05-13.65,4.45-2.12.21-6.81,1.31-4.52-1.18,4.13-4.47,9-10.16,13.13-14.63,1.79-1.94,3.73-3.94,4.82-6.38.73-1.61,4.18-6.65,1.49-7.42-1.53-.44-4.07.86-5.61,1.05a21.81,21.81,0,0,0-4.32.89c-2.7.95-4.1,1.55-6.88,2.34-2.5.7-5.88,1.19-8,1.83-1.24.37-8.14.55-7.74-1,.3-1.22,2.67-3.34,3.44-4.26,1.63-2,3.18-4,4.62-6.05,1.13-1.64,5.32-6.65,3.83-8.93-1-1.52-3.89.37-5.09.89-2,.88-3.92,2-5.9,2.89-3,1.38-5.94,1.46-9.1,1.89a30.53,30.53,0,0,1-8.16.24c1.37-1.18,7-5.74,8.34-7,3.75-3.65,3.4-3.65,7.17-7.32,1.66-1.61,3.17-3.4,4.74-5.08.85-.9,4.16-3.93,4.32-4.52-2.11,1.18-11.76,3.78-12.89,3.87-1.91.14-6.85,1.71-8.73,2.19a16.41,16.41,0,0,1-5.24.2,11.9,11.9,0,0,1-2.65-1.08,10.89,10.89,0,0,1,2-2.45,61.41,61.41,0,0,1,5.08-4.48,15.29,15.29,0,0,1,2.2-1.76c3.9-2.26,7.31-5.53,10.93-8.27,5-3.82,9.4-6.86,10.51-9.18-.83.12-4.54.76-5.37.86-6.57.8-10.88-.25-17-3-1.84-.82-5.31-1.87-6.16-3.87s1.59-3.83,3-5.07a36.65,36.65,0,0,1,7.52-4.61c2.48-1.31,4.86-2.78,7.3-4.18a24.33,24.33,0,0,1,18.14-2.24c4.72,1.19,9.4,3.67,13.85,5.58-3.34-1.48-7.54-3.57-11-4.7-3.07-1-6.91-2.12-10.17-1.67-1.89.27-2.58.37-4.47.57a43.5,43.5,0,0,0-5,1.1c-3.67.85-7.55,2-11.33,1.84a23.18,23.18,0,0,1-6.37-1,13.71,13.71,0,0,0-5.71-.91c2.15-2.5,5.31-3.86,7.81-5.95a37,37,0,0,1,8-4.78,44.5,44.5,0,0,1,6.4-2.71c1.7-.5,3.37-1,5-1.65a57.64,57.64,0,0,1,8.14-3c2.12-.49,4.77-1,6.43-2.57-1.27-.24-2.37-.76-3.67-.88a42.28,42.28,0,0,1-7.34-1c-1.94-.53-4-.91-6-1.36,0,0,4.38-2.36,5-2.72a32.12,32.12,0,0,1,4.31-1.95c2.71-1.12,5.54-2.15,8.31-3.09,2.16-.73,4.12-1.61,6.32-2.2s9-1.25,10.18-2c-4.6-2.36-6.65-2.3-12.44-3.82-2.6-.69-8.56-1-11-1.93,1.89-1.91,3.79-4.22,5.74-6.06a24.08,24.08,0,0,1,6.94-4.14c1.9-.8,3.74-.47,5.74-.35,3.83.21,10.53,3,13,4.26-2.15-1.76-4.31-3.5-6.61-5.06-3.45-2.38-7.14-4.55-9.07-8.48a6,6,0,0,1-.11-5.23,8.29,8.29,0,0,1,7.42-4.21,34.06,34.06,0,0,1,9,2,75.18,75.18,0,0,1,7.35,3.53c1.43.76,5.4,3.46,6.43,4.8a49.91,49.91,0,0,0-3.51-6.77,43.57,43.57,0,0,1-4.93-10.13c-.46-1.44-.62-3-1-4.43-.31-1.06-1.42-3.41-.73-4.4a44.29,44.29,0,0,1,4,3.34c5.55,5.73,11.63,12.64,17.5,18,.37-5.4-1-11.88-2-17.17-.58-3.15-1.2-6.31-1.54-9.49-.2-1.86-.62-4.46.27-6.21,1.59-3.14,5.88,1.78,7,3.07,5.08,5.63,8.51,12.22,11.55,19.09.85-1.13,1-2.92,1.16-4.29.52-5,1.45-9.9.73-15a11.9,11.9,0,0,1,.34-6.07,10.2,10.2,0,0,1,1.7-3.39,25.35,25.35,0,0,1,4.15,4.64,20.62,20.62,0,0,1,2.8,6.17,21.06,21.06,0,0,1,.86,5.93c-.15,2.36-.23,4.81-.52,7.15s0,4.92-.64,7.29a44.22,44.22,0,0,0,9.16-12.42c2-4.33,5.7-10.26,9.28-13.15,1.64,1.94,2.26,5.11,3.28,7.42,2.11,4.82.64,8.32-1.56,13.06a58,58,0,0,0-4.31,15.08c4.82-4.23,8.73-8.1,11.32-10.88,2.77-3,6.54-8.63,10.57-10,4.55-1.56,3.19,4.89,3,7.56a79,79,0,0,1-2.12,12.18c-1,4-3,8.26-3.47,12.41,3.12-1,7.15-1.21,10.41-1.56,4.4-.48,15,.27,15.55,2.9s-1.38,4-3.4,5.47a85.72,85.72,0,0,1-8.29,5.17c.6.16,10.37,2.31,15.79,1.28a55.35,55.35,0,0,1,7.41-.74c1.17-.11,5.11,0,6,1.08,1,1.21-.64,3.07-1.5,3.92a43.23,43.23,0,0,1-7.45,5.65,46.67,46.67,0,0,0-6.76,5.11c-1.67,1.47-6.79,5.48-4.92,8.18s6.77,1.8,9.54,1.82c3.11,0,6.2-.53,9.31-.59,2.46-.06,5.28.33,6.19,3,.82,2.37-1.26,5-2.56,6.89-2.23,3.16-4.44,6.36-6.47,9.67-.37.6-5.18,7.5-4,8,1.82.8,5.78-.75,7.6-1.16,4.09-.94,8-2.55,12.06-3.53,2.81-.67,6.91-2.17,9.5-.18,3,2.27,1.41,6.18-.09,8.78a58.66,58.66,0,0,0-4.25,8.82c3.94,1.37,17.31-.7,20.73-1.92a32.42,32.42,0,0,1,10.32-1.89c3.43,0,2.66,3.48.88,5.9-2.12,2.88-5.55,4.72-8.15,7.15s-6,5.88-8.72,8.26c4.8,2.48,10.61,3.39,16.26,3.39,4.16,0,10.67-1.58,14.48,1.28-3.45,3.27-9.72,8.28-13,11.78,5.88,2.08,14.29,4,20.72,3.06,5.51-.8,11.44.41,16.94.38-4.34,4.94-11.18,9.64-15.63,14.62,1.37,1.38,4.87.3,6.73.07,2.24-.28,4.56-.41,6.73-.76a50.73,50.73,0,0,1,10.93-.86s-10.12,11.13-14.78,14.86a47.13,47.13,0,0,0,8.43,1.74c2.78.26,21.21.57,22.71,1.61-3,3.46-9.39,8.47-12.41,12,4.68,2.57,10.95,2.47,16.46,2.19,5.15-.26,12.29-3.77,17.47-3.69-2.52,2.87-7.94,5.53-10.29,8.47s-5.64,7.47-8.57,9.75c3.22-1.2,7.4-2.71,10.84-4,4.4-1.62,9.59-1.74,13.84-2.46-.81,4.47-3.35,7.2-4.57,10.57-1.48,4.09-2.07,9.06-3.19,13.23,4.81,0,11.42-4.89,15.16-7.4,4.22-2.83,9.2-5.63,13.1-8.22l-.24.23c.45,4.52,2.36,13,.21,17.22,4.46-2,8.14-6.07,12.18-8.91,5-3.55,10.52-11.63,16-14.46.72,4.38,2.49,10.44,2.13,15.08,4.21-8.52,13-16.61,20.49-22.68a121.4,121.4,0,0,0-2,17.77c1.78-4.68,6.47-8.62,10.06-12.11a100.94,100.94,0,0,1,11.74-10c-.29,2.47-1.08,5.34-1.23,7.92-.2,3.32.62,6.5.15,9.84,2.85-3.65,5.36-7.59,8.19-11.2,3-3.88,8.06-8.55,11.52-12.15.13,2.64-2,6.6-1.8,9.31.2,3.11,1.69,6.37.76,9.47,1.21-2.88,5.16-5.41,7.15-7.91,2.47-3.09,6.39-8,9.48-10.59,3.47,2.63,5.34,11.27,6.87,15.22,2.12-4.17,7.15-9.38,10.71-12.43,3,2.94,6.74,7.26,10.89,4.56,3.72-2.41,6.34-6.31,10-8.91,3.46,2.28,6.19,7.25,9.53,10.09,1.45-3.35-.16-7.72,1.72-11.08,2.36.16,12.08,1.31,14.1,1.52,4.28.46,14.45-1.67,14.45-1.67Z"/><path class="cls-1" d="M1099.36,1251.3c-35.85-98,65-204,152.36-221.3,29.23,81.87-10.79,181.6-92.11,211.89-20.65,7.7-32.25,18.54-54,10.76Z"/><path class="cls-1" d="M1083.19,407.82c3.43,104.28-125.54,173.49-213.9,162.59-2.18-86.9,67-169.13,153.73-172.49,22-.85,36.43-7.53,54.69,6.68Z"/><path class="cls-1" d="M1277.29,623c-64.13-35.15-59.85-137.63-21.74-187,53.19,29.7,78.1,100.77,49.17,154.28-7.33,13.58-8.45,24.66-23.54,30.6Z"/><path class="cls-1" d="M205.49,1228c-64.13-35.15-59.84-137.63-21.74-187,53.19,29.7,78.1,100.78,49.18,154.28-7.34,13.58-8.46,24.66-23.55,30.6Z"/><path class="cls-1" d="M1718.29,103c-64.13-35.15-59.85-137.63-21.74-187,53.19,29.7,78.1,100.78,49.17,154.28-7.33,13.58-8.45,24.66-23.54,30.6Z"/><path class="cls-1" d="M646.42,562c-64.13-35.15-59.85-137.63-21.74-187,53.19,29.7,78.1,100.78,49.18,154.28-7.34,13.58-8.46,24.66-23.55,30.6Z"/><path class="cls-1" d="M1345.93-127.07c-20.31,12-20.17,11.12-34.39,14.62,2,6.34,11,15.5,13.55,21.62-6.93-3.41-15-8.79-21.63-12.9,1.57,5.19,4.49,10.22,6.25,15.46,2.3,6.83,5.34,12,5.94,18.69-6-1.11-14.17-6.45-18.07-11.33,5.34,11.92,6.87,31.33,6.87,31.33-3.59-2-7.48-5.61-10.16-7.42-3.81-2.58-5.21-3.91-10.73-8,2.27,5.78,5.59,12,6.69,17.21.69,3.24,1.63,6.82,2.16,10.12.37,2.32,1.63,6.14.65,8.25a23.31,23.31,0,0,0-9.53-7.59,84.61,84.61,0,0,0-12.74-3.91,28.74,28.74,0,0,1,6.56,12.53c1.31,5.48,3,13.38,2.67,19.32-2.82-2.5-5.6-6.13-9.74-8.11a70.41,70.41,0,0,1-15.91-10c.31,3.88,2.3,5.27,3.23,7.67,2,5.23,2.38,9.17,5,14.13,2.28,4.4,3.72,11.41,4.23,16.26-3.52-3.63-5.6-4.32-9.48-6.86-2-1.34-10.7-4-13.77-5.46,1.14,2,2.51,3.75,3.54,5.76a48.24,48.24,0,0,1,4.79,14.72,98.89,98.89,0,0,1,.88,15.22c-5.56-1.51-8.17-3.43-14.72-8.21-3.94-2.87-5.41-4.25-12-9.51.11,6.09,2,11.93,2.59,18.19.61,6.54,2.38,12.56,4.29,19.19,0,0-8.66-3.18-14-5.55-1.5-.67-9.53-4.72-10.87-5.68.66,1.5,4,7.94,4.49,9.55,1.37,4.6,1.42,6.18,2.31,10.9.6,3.21.91,6.38,1.22,9.63.19,2,1.33,6,1.33,8-1.49-.62-3.39-2.66-4.88-3.37s-3.21-1.13-4.77-1.8a79.84,79.84,0,0,1-8.06-3.92,23.84,23.84,0,0,1-5.49-4c-.39,2.41-.54,13.12,1,17.55.79,2.27,5.4,16.36,5.38,17.67-4.78-2.6-10.11-9.49-13.44-13.85-1.82-2.38-8.13-10.88-8.62-11.7a53.92,53.92,0,0,1,1,9c.18,6.09.34,25.07.62,29.71.13,2.23.22,8.14.09,10.36-4.61-2.91-8.08-8.18-11.44-12.46a139.58,139.58,0,0,0-10.83-10.57c-.3,2.1.11,8.39.06,10.54a75.55,75.55,0,0,0,1.31,16.61c.21,1.21,1.29,15.32,1,17.5-3.71-2.12-11.43-11.12-13.52-13.15-1.87-1.81-6.78-7.64-9.5-10.11.32,2.53,1.19,6.1,1,8.7-.19,2.38-.24,4.71-.42,7.09-.25,3-.49,6-.74,9.09-.11,1.28-.77,6.12-1.64,7.06-2.29-4.31-6-8.16-8.9-12.12-2.46-3.41-5.74-6.6-7.45-10.45-1,.77-2.62,25.5-3.71,33.92-.54,4.24-1.07,8.46-1.59,12.69-.17,1.34-.41,4.88-3,7.41-1.66-1.14-4.92-14-6.12-18-.93-3.09-6-18.58-9.26-22.16-.22,4.39-1,10-1.32,14.37a78,78,0,0,1-1.17,9.41c-.51,2.5-1,5-1.38,7.58a145.92,145.92,0,0,1-3.22,16.49,89.32,89.32,0,0,0-5.21-11.33c-1-1.31-7.81-12.84-8.74-16.49-.16,2.34-.81,4.83-1.16,7.19-.78,5.14-1.62,10.26-2,15.47-.3,3.71-.61,7.21-2.23,10.63-1,2.15-4,6.2-6.54,7.1-1.52-2.09-3-14.45-4.09-17.83a77.11,77.11,0,0,1-3-12.28c-.81-5.42-1.08-10.72-2.23-16a41.42,41.42,0,0,0-5.12,7.92,52,52,0,0,0-4.19,14.17c-.74,5-4,21.45-4.89,25.33-.36,1.67-3.34,7.34-4.6,5.89-4.33-5-5.45-9.65-5.5-12.71a40.71,40.71,0,0,0-1.42-11.64c-.44-1.82-4.51-11.78-6.72-7.69-1.69,3.16-3.24,8.3-4.7,11.58-1.68,3.8-2.59,7.87-4.21,11.7s-2.59,8.27-4.15,12.11c-1.12,2.73-3.71,5.25-5.41,6.9s-4-1.64-4.47-3.22a43.57,43.57,0,0,0-4.1-10.12c-1-1.75-3.43-7.69-6.09-6.88-2.12.65-4.68,4.49-5.57,6.35-2.91,6.08-4.85,13.91-10.54,18.1-1.31,1-4.66,3-4.32-.08.24-2.19,1.21-12.17,1.37-15.11.54-9.4-2.25-22-3-23.86-6,8-14,30.27-15.66,32.58-2.17,3-6.21,6.94-6.21.84,0-3.57.31-8.64.3-12.23,0-1.95.2-9.25-1.25-12.85l-.1-.25c-.76.36-6.88,1.93-11.23,5.77a30.39,30.39,0,0,0-4,4.06c-1,1.34-15.24,21.81-18.95,24.92-.37-2.57-.42-5.39-.61-8.06-.71-9.78,1.33-19.77,1.5-29.6-2.8,1.94-11,11.47-12.46,13.66-2,2.87-3.49,6-5.17,9-3.13,5.69-8,11.79-14.29,14.08.58-5.71.69-11.44,1.35-17.15.33-2.9.15-5.77.35-8.69.16-2.23.19-5.9-1.16-7.81-3.53-5-9.79,3.89-11.87,6.52-3.92,4.95-6.58,10.63-9.68,16.08a51.28,51.28,0,0,1-9.83,12.3s-1.08-10.46-.89-13.63c.15-2.5.67-11.77-.85-14s-2.53.55-4.32,2.63c-3.57,4.13-6.16,7.28-8.83,10.9-4.79,6.48-5.22,10.64-8.31,13.92-1.65,1.76-4.82,6.18-4.72,2.36.19-6.87.12-15.35.31-22.21.08-3,.24-6.12-.64-9-.58-1.91-1.38-8.77-4.24-7.43-1.63.77-2.83,3.76-4,5.07a24.75,24.75,0,0,0-3,4c-1.59,2.81-2.34,4.37-4.12,7.1-1.6,2.45-4.12,5.38-5.46,7.51-.78,1.24-6.52,6.52-7.36,4.88-.65-1.27-.2-4.83-.23-6.19-.06-2.87-.23-5.73-.56-8.57-.26-2.25-.42-9.62-3.38-10.45-2-.56-3,3.2-3.67,4.53-1.06,2.25-1.87,4.59-2.88,6.85-1.49,3.38-4,5.65-6.34,8.37a34.35,34.35,0,0,1-6.76,6.26c.28-2,1.71-10.1,1.88-12.17.47-5.89.18-5.63.66-11.55.22-2.61.18-5.26.27-7.86.05-1.39.62-6.43.32-7.05-.93,2.57-7.21,12-8.1,12.87-1.53,1.53-4.57,6.54-5.81,8.35a18.51,18.51,0,0,1-4.31,4.06,13.33,13.33,0,0,1-3.06,1.05,11.63,11.63,0,0,1-.09-3.59,66.3,66.3,0,0,1,1-7.58,16.94,16.94,0,0,1,.56-3.13c1.65-4.83,2.12-10.15,3.16-15.16,1.43-7,2.9-12.83,2.14-15.63-.63.71-3.31,4-3.94,4.72-5,5.56-9.45,7.88-16.62,10.08-2.18.67-5.92,2.36-8.12,1.29s-1.49-4.45-1.23-6.54c.42-3.3,1.8-6.44,3-9.51s2.08-6,3.11-9a27.51,27.51,0,0,1,13.79-15.39c4.89-2.49,10.72-3.86,15.93-5.54-3.94,1.23-9.07,2.57-12.85,4.18-3.37,1.42-7.47,3.32-9.91,6.14-1.41,1.62-1.92,2.22-3.38,3.79a51,51,0,0,0-3.45,4.66c-2.49,3.45-4.9,7.36-8.28,10a26.54,26.54,0,0,1-6.14,3.91,15.51,15.51,0,0,0-5.54,3.46c0-3.73,1.66-7.23,2.23-10.87a41.9,41.9,0,0,1,3.27-10,50.52,50.52,0,0,1,3.43-7.06c1.08-1.68,2.13-3.35,3-5.13,1.48-2.86,2.8-6,4.69-8.62,1.44-2,3.28-4.44,3.57-7-1.26.74-2.58,1.12-3.78,2a47.87,47.87,0,0,1-7,4.64c-2,1-4.12,2.23-6.12,3.29,0,0,2-5.26,2.23-6a36.67,36.67,0,0,1,2.22-4.86c1.48-3,3.11-6,4.78-8.8,1.29-2.22,2.31-4.43,3.74-6.57s6.72-7.73,7.18-9.26c-5.66,1.4-7.37,3-13.43,6-2.72,1.35-8,5.54-10.83,6.56.19-3,.09-6.4.39-9.42a27.13,27.13,0,0,1,2.83-8.68c1-2.1,2.83-3.18,4.63-4.56,3.41-2.67,11.2-5.25,14.22-6-3.14.1-6.27.23-9.39.6-4.7.55-9.46,1.44-14-.47a6.81,6.81,0,0,1-4-4.38c-.67-3.2.54-7.17,3.2-9.1a38.8,38.8,0,0,1,9.17-5,86.41,86.41,0,0,1,8.87-2.46c1.79-.41,7.18-1.07,9-.69a55.1,55.1,0,0,0-8-3.14,49.24,49.24,0,0,1-11.72-5c-1.46-.89-2.74-2.07-4.18-3-1.06-.67-3.75-1.85-3.9-3.21a52.53,52.53,0,0,1,5.91-.15c9,.76,19.3,2.12,28.24,2.29-3.69-4.86-9.65-9.38-14.41-13.17-2.84-2.25-5.71-4.48-8.37-6.93-1.54-1.44-3.84-3.34-4.38-5.49-1-3.85,6.34-2.85,8.28-2.61,8.5,1,16.32,4.07,24,7.67-.12-1.59-1.3-3.24-2.2-4.52-3.27-4.64-6.12-9.5-10.51-13.31-1.68-1.45-3.51-3.26-4.23-5.42-.42-1.24-1.17-2.81-1.07-4.14a28.21,28.21,0,0,1,7,.86,23.4,23.4,0,0,1,7,3.17,23.88,23.88,0,0,1,5.13,4.41c1.63,2.12,3.38,4.27,4.87,6.47s3.63,4.22,4.88,6.69a50.06,50.06,0,0,0-1.43-17.38c-1.49-5.19-2.78-13-1.87-18.09,2.84.43,5.71,2.67,8.3,3.89,5.37,2.52,6.72,6.6,8.38,12.27a65.09,65.09,0,0,0,7.53,16,176.42,176.42,0,0,0,1.55-17.66c.15-4.61-.84-12.21,1.56-16.38,2.72-4.72,6.36,1.79,8.14,4.24a88.26,88.26,0,0,1,7.24,11.94c2.12,4.19,3.6,9.26,6.27,13.15,1.94-3.15,5.18-6.35,7.7-9.07C814.45,4.88,824-2.34,826.44-.53s1.77,4.39,1.18,7.18a101.36,101.36,0,0,1-3.22,10.56c.63-.3,10.54-5.73,14.38-10.64A65.38,65.38,0,0,1,844.54.44c.93-1,4.39-3.77,5.89-3.51,1.72.31,1.73,3.08,1.62,4.45a48.34,48.34,0,0,1-2.14,10.35A53.59,53.59,0,0,0,848,21.1c-.33,2.48-1.71,9.71,1.88,10.61,3.42.87,7.11-3.49,9.48-5.54,2.66-2.3,4.88-5.05,7.48-7.42,2.05-1.87,4.74-3.63,7.53-2,2.46,1.42,2.68,5.24,2.94,7.78.45,4.35.94,8.71,1.68,13,.13.78,1.16,10.23,2.59,9.78,2.15-.67,4.37-4.92,5.61-6.63,2.78-3.83,4.9-8.1,7.65-12,1.89-2.66,4.26-7,8-7.21,4.19-.26,5.79,4.21,6.44,7.54a67.94,67.94,0,0,0,2.93,10.67c4.38-1.76,14.22-13.46,16.23-17a36.41,36.41,0,0,1,7.38-9.28c2.93-2.54,4.85,1,5.13,4.37.34,4-1.22,8.14-1.62,12.14s-.77,9.47-1.29,13.51c5.92-1.46,11.55-5,16.36-9.2,3.53-3.1,7.91-9.26,13.28-9.67-.51,5.36-2.13,14.27-2.35,19.71,6.56-2.59,15.13-7.22,19.92-12.78,4.09-4.77,10-8.15,14.7-12.27,0,7.44-2.36,16.52-2.45,24.06,2.2.16,4.38-3.36,5.79-4.94,1.69-1.9,3.57-3.74,5.16-5.65a57.63,57.63,0,0,1,8.66-8.85s-.34,17-1.54,23.64a54.24,54.24,0,0,0,8.47-4.79c2.56-1.84,18.48-15.27,20.54-15.5,0,5.2-1.71,14.19-1.7,19.39,5.9-1.28,11.16-6,15.65-10.36,4.19-4,7.66-12.34,12.12-16.12,0,4.31-2.65,10.61-2.46,14.85s.74,10.55-.06,14.67c1.86-3.41,4.29-7.79,6.28-11.43,2.54-4.64,6.88-8.6,10-12.37,2.63,4.41,2.5,8.61,4,12.38,1.78,4.59,5,9.26,7.11,13.64,4.13-3.54,6.09-12.65,7.41-17.57,1.5-5.54,3.65-11.62,5-16.72l0,.38c3.73,3.5,11.63,9.27,13,14.5,2.35-5,2.43-11.21,3.76-16.64,1.66-6.77.31-17.71,2.85-24.17,3.86,3.2,9.87,7,13,11.26-2.75-10.39-1.29-23.79.59-34.53a137.18,137.18,0,0,0,11.5,16.6c-2-5.3-.89-12.14-.43-17.78A113.4,113.4,0,0,1,1154.61-50c1.58,2.32,3,5.35,4.83,7.66,2.3,3,5.36,5.08,7.44,8.27-.29-5.23-1.08-10.44-1.35-15.63-.28-5.56.51-13.26.79-18.89,2.07,2.15,3.22,7.08,5.38,9.26,2.47,2.5,6.17,4.17,7.68,7.5-1.11-3.36.37-8.44.21-12-.19-4.47-.47-11.52.21-16.06,4.9-.34,12.91,5.63,17.15,7.86-1.29-5.13-.89-13.3-.11-18.54,4.73.27,11.12,1.16,12.65-4.21,1.37-4.81.71-10.08,1.87-15,4.65-.63,10.66,1.57,15.62,1.51-1.26-3.93-5.88-6.45-6.77-10.71,2.13-1.61,11.25-7.86,13.13-9.18,4-2.79,11.06-12.16,11.06-12.16Z"/><path class="cls-1" d="M-168.61,207.23c19.77,17.35,18.79,17.51,27.44,31.35,6-4.28,12.59-17.05,18.19-21.86-1.21,8.52-4.08,19-6.15,27.39,4.95-3.47,9.26-8.3,14.2-12,6.44-4.81,10.86-9.83,17.73-12.79.9,6.72-1.91,17.26-5.73,23.08,10.78-9.8,30.8-18.16,30.8-18.16-.88,4.5-3.35,9.87-4.33,13.34-1.41,4.92-2.33,6.87-4.71,14.13,5.34-4.41,10.79-10.1,15.91-13.07,3.19-1.85,6.66-4.1,10-5.81,2.33-1.19,5.94-3.85,8.51-3.54A25.85,25.85,0,0,0-51.51,242c-.38,4.55-.14,8.27.29,14.85a32.08,32.08,0,0,1,11-11.31c5.36-3.29,13.12-7.85,19.54-9.53-1.67,3.85-4.55,8.05-5.2,13.12A78.52,78.52,0,0,1-31,269.49c4-1.67,4.78-4.27,7-6.08,4.85-3.94,8.88-5.71,13.25-10.16C-6.87,249.31.06,245.34,5,243.12c-2.62,5-2.63,7.43-4,12.42C.33,258.17.47,268.27,0,272c1.67-1.88,3.1-4,4.87-5.75a53.52,53.52,0,0,1,13.92-10.18,108.14,108.14,0,0,1,15.82-6.22c.33,6.41-.8,9.84-3.59,18.44-1.67,5.16-2.62,7.2-5.91,16C31.56,282,37.08,278,43.51,275.2,50.23,272.28,56,268.32,62.35,264c0,0-.36,10.27-1,16.81-.18,1.82-1.68,11.73-2.23,13.49,1.36-1.23,7-7,8.55-8.08,4.4-3,6.06-3.65,10.74-6.23,3.19-1.75,6.44-3.18,9.78-4.64,2.09-.9,5.88-3.49,8-4.18-.15,1.8-1.64,4.51-1.88,6.34s-.08,3.79-.25,5.67a89.2,89.2,0,0,1-1.35,9.9c-.48,2.23-1.18,5.31-2.31,7.19,2.69-.41,14.09-4,18.25-7.12,2.13-1.62,15.45-11.4,16.84-11.83-1.09,6-6.53,14-10,19.05-1.89,2.74-8.7,12.39-9.4,13.18a62.74,62.74,0,0,1,9.22-4.2c6.39-2.31,26.44-9.07,31.26-11,2.31-.91,8.53-3.06,10.94-3.7-1.49,5.9-5.86,11.4-9.23,16.45a156.8,156.8,0,0,0-7.43,15.14c2.32-.41,8.84-3,11.14-3.73a83.44,83.44,0,0,0,17.13-7.15c1.21-.64,15.78-6.69,18.2-7.11-1,4.67-7.81,16-9.23,18.89-1.27,2.61-5.73,9.83-7.41,13.57,2.57-1.22,6-3.38,8.87-4.06,2.59-.62,5.08-1.39,7.66-2l9.89-2.38c1.38-.33,6.74-1.31,8-.72-3.77,3.92-6.54,9.25-9.74,13.63-2.76,3.79-5,8.38-8.47,11.53,1.15.78,27.91-6.09,37.2-7.86l14-2.72c1.47-.29,5.3-1.26,8.9.66-.63,2.14-13.13,10.07-17,12.75-3,2-17.58,12.84-20.26,17.5,4.73-1.3,10.93-2.45,15.69-3.6a87.13,87.13,0,0,1,10.37-2c2.83-.33,5.71-.65,8.51-1.16a160.12,160.12,0,0,1,18.58-2.33c-1.11.55-9.54,8.45-10.19,9.45-1,1.57-10.89,12.74-14.43,15,2.53-.64,5.39-.82,8-1.27,5.71-1,11.43-1.85,17.09-3.21,4-1,7.85-1.86,12-1.34,2.63.33,8,2,9.79,4.47-1.69,2.33-14.26,8.19-17.46,10.52a86.11,86.11,0,0,1-12,7.41c-5.46,2.74-11,4.87-16.19,7.93a45.75,45.75,0,0,0,10.17,2.66,57.87,57.87,0,0,0,16.46-.48c5.52-.94,24.13-3.16,28.52-3.62,1.9-.2,9,1,7.84,2.82-3.79,6.33-8.33,9.13-11.55,10.25A45.25,45.25,0,0,0,279.24,434c-1.78,1.11-10.9,8.87-5.81,9.79,3.94.7,9.91.55,13.89.95,4.62.47,9.24,0,13.87.4s9.65-.13,14.25.19c3.29.23,6.85,2.1,9.19,3.34s-.35,4.76-1.85,5.84c-3.7,2.65-6.31,4.46-9.3,7.86-1.49,1.71-7,6.31-5.17,8.84,1.43,2,6.39,3.4,8.66,3.7,7.45,1,16.42.3,22.83,4.87,1.47,1.06,4.77,3.9,1.42,4.6-2.41.5-13.31,2.95-16.49,3.79-10.13,2.7-22.5,10-24.22,11.49,10.53,3.58,36.92,4.3,39.95,5.26,3.92,1.26,9.5,4.16,3.05,6.28-3.79,1.25-9.26,2.67-13.06,3.93-2.07.69-9.86,3-13.17,5.79l-.23.2c.64.67,4.43,6.61,10,9.89a34.67,34.67,0,0,0,5.68,2.77c1.78.64,28.4,8.57,33,11.42-2.59,1.29-5.57,2.32-8.33,3.45-10.1,4.15-21.39,5.46-31.86,8.68,3,2.29,16,7.63,18.79,8.46,3.72,1.08,7.59,1.6,11.38,2.33,7.11,1.34,15.25,4.33,19.87,10.24-6.24,1.37-12.35,3.25-18.62,4.53-3.2.65-6.17,1.85-9.33,2.65-2.42.61-6.31,1.84-7.87,3.94-4.06,5.48,7.53,9,11,10.31,6.59,2.43,13.53,3.27,20.38,4.66a57.21,57.21,0,0,1,16.45,6.14s-10.71,4.78-14.14,5.68c-2.69.7-12.69,3.38-14.53,5.76s1.47,2.48,4.29,3.66c5.62,2.35,9.85,4,14.61,5.56,8.53,2.82,13.08,1.84,17.63,4,2.44,1.13,8.22,3,4.14,4.18-7.35,2.18-16.29,5.2-23.63,7.38-3.18.95-6.57,1.88-9.32,3.81-1.82,1.28-8.81,4.52-6.39,7.08,1.38,1.46,5,1.68,6.75,2.46a26.76,26.76,0,0,0,5.25,1.82c3.53.72,5.44,1,9,1.91,3.16.84,7.14,2.48,9.86,3.17,1.58.39,9.17,4.64,7.72,6.1-1.11,1.12-5,1.89-6.47,2.39-3,1.06-6,2.24-8.89,3.58-2.29,1.05-10,3.77-9.89,7.21.09,2.27,4.45,2.09,6.08,2.3,2.75.35,5.5.4,8.25.67,4.1.41,7.36,2.24,11.06,3.82a38,38,0,0,1,9,5c-2.24.4-11.29,1.69-13.55,2.24-6.4,1.54-6,1.76-12.46,3.3-2.84.68-5.63,1.65-8.41,2.45-1.5.43-7,1.58-7.58,2.11,3,.09,15.16,3.48,16.44,4.11,2.16,1.08,8.52,2.56,10.86,3.25a20.66,20.66,0,0,1,5.79,3.15,14.65,14.65,0,0,1,2.18,2.88,13.59,13.59,0,0,1-3.76,1.35,77.74,77.74,0,0,1-8.38,1.58,19.38,19.38,0,0,1-3.51.49c-5.69-.06-11.48,1.28-17.15,1.92-7.89.9-14.6,1.38-17.29,3.17,1,.41,5.4,2.1,6.36,2.53,7.63,3.36,11.63,7.27,16.45,14.1,1.47,2.07,4.55,5.44,4.18,8.14s-4.19,3.13-6.49,3.58c-3.65.7-7.45.33-11.11.15s-7.05-.13-10.59-.17a30.65,30.65,0,0,1-21.08-9.26c-4.35-4.32-7.82-10-11.41-15,2.67,3.75,5.88,8.72,8.89,12.16,2.67,3.07,6.12,6.75,9.94,8.36,2.21.93,3,1.26,5.2,2.26a56.45,56.45,0,0,0,6.13,2c4.52,1.43,9.5,2.63,13.45,5.3a28.77,28.77,0,0,1,6.27,5.14,17.24,17.24,0,0,0,5.59,4.66c-3.93,1.32-8.23.76-12.28,1.42a46.59,46.59,0,0,1-11.74,0,55.12,55.12,0,0,1-8.66-1.17c-2.16-.56-4.29-1.1-6.5-1.45-3.53-.56-7.33-.87-10.76-2-2.6-.83-5.84-1.93-8.61-1.35,1.22,1.08,2.08,2.34,3.41,3.31a54.16,54.16,0,0,1,7.33,5.76c1.75,1.83,3.79,3.59,5.61,5.34,0,0-6.26-.27-7.15-.27a40.8,40.8,0,0,1-5.92-.67c-3.66-.53-7.38-1.23-11-2-2.8-.6-5.5-.91-8.26-1.68s-10.51-4.43-12.3-4.39c3.46,5.51,5.72,6.77,11,12.14,2.38,2.42,8.65,6.55,10.71,9.2-3.27.85-6.81,2.12-10.11,2.86a30.25,30.25,0,0,1-10.18,0c-2.57-.34-4.35-1.89-6.44-3.31-4-2.69-9.45-10-11.31-13,1.19,3.28,2.41,6.55,3.89,9.73,2.21,4.79,4.8,9.52,4.36,15a7.58,7.58,0,0,1-3.24,5.74c-3.16,1.83-7.79,1.92-10.75-.22a43,43,0,0,1-8.52-8,95.13,95.13,0,0,1-5.68-8.54c-1.05-1.75-3.62-7.22-3.87-9.34a61.5,61.5,0,0,0-.55,9.59,55.06,55.06,0,0,1-1.19,14.14c-.43,1.85-1.24,3.61-1.72,5.46-.34,1.35-.65,4.61-2,5.24a59.69,59.69,0,0,1-2.21-6.2c-2.32-9.78-4.45-21.17-7.39-30.71-3.86,5.61-6.58,13.48-8.93,19.84-1.4,3.78-2.76,7.6-4.44,11.27-1,2.13-2.2,5.22-4.29,6.55-3.74,2.37-5.22-5.72-5.64-7.86-1.88-9.36-1.36-18.7-.22-28.1-1.64.68-3,2.5-4,3.9-3.78,5.08-7.94,9.79-10.44,15.76-1,2.28-2.24,4.85-4.27,6.36-1.18.88-2.58,2.22-4,2.57a31.28,31.28,0,0,1-1.51-7.69A26.08,26.08,0,0,1,184,799a26.72,26.72,0,0,1,2.89-7c1.68-2.46,3.35-5.06,5.17-7.4s3.2-5.31,5.38-7.49a55.79,55.79,0,0,0-17.91,7.55c-5,3.38-12.77,7.44-18.5,8.26-.54-3.15.84-7,1.23-10.14.81-6.57,4.65-9.41,10.08-13.13a72.48,72.48,0,0,0,14.36-13.55c-7.93,1.47-14.65,3.15-19.24,4.49-4.93,1.45-12.64,5.13-17.88,4-5.94-1.24-.31-7.35,1.66-10.08a99.94,99.94,0,0,1,10.13-11.83c3.7-3.69,8.55-7,11.75-11.2-4-1-8.53-3.29-12.28-5-5.07-2.32-16-9.92-15-13.14,1-3,4-3.4,7.2-3.75a110.9,110.9,0,0,1,12.3-.25c-.54-.56-9.73-9.17-16.26-11.54-3.73-1.34-4.93-2.25-8.5-4-1.34-.64-5.51-3.33-5.75-5-.28-1.94,2.66-2.91,4.14-3.27a54.65,54.65,0,0,1,11.7-1.33,59.13,59.13,0,0,0,10.6-1.18c2.75-.51,10.88-1.56,10.59-5.69-.27-3.91-6.17-6.31-9.16-8.1-3.36-2-7-3.42-10.45-5.36-2.7-1.51-5.5-3.75-4.75-7.27.64-3.1,4.62-4.65,7.21-5.81,4.45-2,8.9-4,13.23-6.31.78-.41,10.43-4.78,9.46-6.14-1.46-2-6.73-2.91-9-3.64-5-1.61-10.28-2.37-15.32-3.95-3.48-1.08-8.87-2.09-10.41-5.91-1.73-4.35,2.46-7.6,5.75-9.44a75,75,0,0,0,10.28-6.81c-3.38-4-19.18-10.39-23.67-11.27a40.82,40.82,0,0,1-12.39-4.59c-3.71-2.23-.64-5.48,2.85-7,4.14-1.75,9-1.53,13.41-2.5s10.31-2.47,14.76-3.32c-3.6-5.77-9.31-10.5-15.42-14.13-4.51-2.67-12.56-5.16-14.85-10.71,5.85-1.32,15.85-2.7,21.68-4.36-5-6-12.9-13.51-20.45-16.65-6.48-2.68-12.12-7.8-18.1-11.31,7.88-2.55,18.31-3.24,26.33-5.76-.6-2.38-5.08-3.47-7.24-4.41-2.6-1.14-5.2-2.49-7.78-3.51a64.48,64.48,0,0,1-12.38-6.1s18.12-5.54,25.57-6.58a60.81,60.81,0,0,0-8-7.31c-2.84-2.07-22.59-14.25-23.55-16.35,5.51-1.79,15.62-3.13,21.12-4.95-3.41-5.8-10.27-9.72-16.41-13-5.73-3-15.72-3.83-21.28-7.24,4.57-1.48,12.15-.88,16.58-2.55s10.92-4.45,15.56-5c-4.26-.77-9.75-1.83-14.28-2.67-5.81-1.08-11.51-4.3-16.57-6.25,3.76-4.32,8.25-5.63,11.74-8.5,4.25-3.47,8.08-8.47,12-12.27-5.18-3.13-15.51-2.05-21.18-1.74-6.38.34-13.57.18-19.45.47l.4-.1c2.42-5.18,5.78-15.55,10.86-18.77-6.09-.75-12.72,1.33-18.93,1.8-7.74.6-18.87,5.82-26.59,5.38,2.05-5.2,4-12.91,7.4-17.7-10,6.52-24.74,9.63-36.77,11.37A153.78,153.78,0,0,0,17.27,373.2c-4.93,3.92-12.56,5.16-18.68,6.63a126.94,126.94,0,0,1-19.15,3.26c1.91-2.48,4.62-5.08,6.44-7.78,2.35-3.46,3.51-7.44,6.17-10.75-5.44,2.12-10.68,4.77-16.08,6.85-5.79,2.24-14.23,4.08-20.28,5.74,1.55-2.94,6.38-5.87,7.93-8.91,1.79-3.49,2.27-8,5.28-10.75-3.17,2.35-9.07,2.54-12.83,4-4.67,1.76-12,4.5-17.08,5.36-2.07-5.07,1.47-15.63,2.36-20.89-5,3.15-13.78,5.56-19.59,6.56-1.36-5.11-2.63-12.19-8.85-11.94-5.58.22-10.93,2.75-16.54,3.23-2.28-4.7-2.05-11.83-3.83-17.07-3.73,2.71-4.79,8.47-9,10.9-2.45-1.7-12.23-9.19-14.28-10.72-4.34-3.26-16.72-7.49-16.72-7.49Z"/><path class="cls-1" d="M803.93,759.61c23.33,4.85,22.91,4.06,37.65,2.77.18,6.7-5.49,18.41-5.92,25.08,5.51-5.51,11.52-13.3,16.48-19.37.18,5.47-1,11.22-.95,16.81,0,7.28-1.19,13.22.41,19.81,5.35-3,11.45-10.79,13.59-16.73-1.22,13.14,3.63,32.19,3.63,32.19,2.78-3.09,5.33-7.8,7.3-10.4,2.8-3.71,3.71-5.43,7.66-11.11-.28,6.27-1.42,13.31-.79,18.63.4,3.33.66,7.06,1.23,10.39.41,2.34.45,6.4,2.07,8.09a23.54,23.54,0,0,1,6.64-10.36c3.09-2.76,5.91-4.61,10.91-7.88a28.91,28.91,0,0,0-2.2,14.11c.54,5.67,1.47,13.78,3.74,19.34,1.89-3.31,3.36-7.68,6.67-10.92a71,71,0,0,0,12-14.75c1,3.8-.48,5.79-.58,8.38-.22,5.65.7,9.54-.14,15.12-.75,5,.15,12.12,1.24,16.92,2.18-4.61,4-6,6.83-9.64,1.52-2,8.91-7.36,11.39-9.71-.45,2.24-1.18,4.41-1.51,6.66a48.78,48.78,0,0,0,.21,15.63,99.46,99.46,0,0,0,4.12,14.84c4.82-3.25,6.69-5.94,11.4-12.65,2.82-4,3.79-5.82,8.33-13,1.87,5.85,2,12.05,3.44,18.23,1.55,6.45,1.82,12.78,2.15,19.74,0,0,7.24-5.86,11.62-9.88,1.22-1.13,7.58-7.62,8.55-9-.15,1.65-1.26,8.89-1.19,10.59.19,4.84.66,6.37,1.35,11.17.46,3.26,1.2,6.4,2,9.61.48,2,.68,6.16,1.33,8.07,1.22-1.09,2.37-3.65,3.57-4.82s2.7-2.12,4-3.27a80.38,80.38,0,0,0,6.42-6.37,24,24,0,0,0,3.95-5.59c1.17,2.17,4.8,12.36,4.79,17.09,0,2.42.17,17.4.62,18.64,3.72-4,6.58-12.37,8.34-17.62,1-2.86,4.23-13,4.42-14a55.86,55.86,0,0,0,2,9c1.81,5.89,7.85,24.08,9.09,28.61.6,2.17,2.43,7.85,3.29,9.93,3.46-4.29,5.06-10.45,6.87-15.64a142.87,142.87,0,0,1,6.91-13.63c1,1.91,2.63,8,3.38,10.1a76,76,0,0,1,4.15,16.3c.2,1.23,3.76,15.07,4.77,17,2.86-3.23,7.31-14.35,8.65-17,1.2-2.34,4-9.51,5.78-12.76.52,2.52.86,6.23,1.9,8.64,1,2.21,1.76,4.43,2.72,6.64,1.22,2.83,2.43,5.62,3.67,8.45.51,1.18,2.73,5.6,3.86,6.21.78-4.87,3.13-9.77,4.56-14.48,1.24-4.06,3.34-8.18,3.72-12.41,1.2.41,10.81,23.52,14.59,31.21,1.9,3.88,3.78,7.74,5.66,11.62.6,1.22,2,4.52,5.33,6.09,1.21-1.64.13-15,0-19.24-.13-3.26-.29-19.73,1.63-24.21,1.63,4.13,4.18,9.24,5.94,13.32a78.55,78.55,0,0,0,4.18,8.61c1.3,2.23,2.63,4.49,3.79,6.79a145.39,145.39,0,0,0,8.45,14.72c-.21-1.1.91-11.5,1.28-12.53.58-1.59,3.29-14.82,3-18.6.92,2.17,2.35,4.34,3.46,6.49,2.41,4.66,4.88,9.28,7,14.12,1.5,3.45,2.93,6.7,5.59,9.44,1.67,1.72,5.82,4.63,8.57,4.65.77-2.49-1.84-14.79-1.9-18.37a78.51,78.51,0,0,0-1.15-12.71c-1-5.44-2.47-10.6-3.09-16a41.63,41.63,0,0,1,7.47,5.9,52.45,52.45,0,0,1,8.62,12.19c2.32,4.5,10.86,19.18,12.92,22.61.9,1.49,5.59,5.94,6.32,4.14,2.52-6.19,2.07-11,1.12-14a40.82,40.82,0,0,1-2.43-11.58c-.17-1.89.48-12.73,3.91-9.54,2.65,2.47,5.81,6.87,8.27,9.54,2.85,3.08,5,6.68,7.84,9.82s5.17,7.05,7.91,10.21c2,2.26,5.25,3.81,7.42,4.83s3.25-2.85,3.22-4.52a43.19,43.19,0,0,1,.63-11c.42-2,.77-8.47,3.57-8.56,2.24-.06,6,2.77,7.4,4.26,4.76,4.87,9.16,11.72,16,13.87,1.56.49,5.42,1.33,4.1-1.48-1-2-5.12-11.24-6.23-14-3.58-8.81-5-21.76-4.89-23.79,8.33,5.66,23.23,24.38,25.58,26,3,2.15,8.19,4.61,6.21-1.22-1.17-3.42-3.12-8.16-4.27-11.6-.63-1.87-3.2-8.77-3-12.68l0-.28c.83.1,7.19-.4,12.61,1.85a31.38,31.38,0,0,1,5.1,2.6c1.43.94,21.68,15.89,26.24,17.65-.48-2.57-1.36-5.29-2-7.9-2.5-9.58-7.7-18.47-11.07-27.81,3.31.95,14.21,7.4,16.36,9,2.81,2.1,5.3,4.62,7.89,7,4.84,4.42,11.45,8.68,18.24,8.8-2.41-5.26-4.38-10.71-6.87-16-1.27-2.67-2-5.47-3.17-8.2-.87-2.08-2.1-5.57-1.43-7.84,1.75-5.93,10.63.54,13.48,2.37,5.35,3.45,9.74,8,14.48,12.22a51.85,51.85,0,0,0,13.41,8.56s-2.38-10.36-3.6-13.33c-1-2.33-4.47-11-3.74-13.66.69-2.48,2.59-.29,5,1.11,4.76,2.79,8.26,5,12,7.55,6.69,4.63,8.46,8.47,12.48,10.6,2.15,1.14,6.63,4.34,5.28.71-2.42-6.5-5.11-14.62-7.53-21.12-1-2.82-2.22-5.78-2.32-8.82-.07-2-1.53-8.84,1.64-8.49,1.81.2,3.92,2.67,5.46,3.55a23.16,23.16,0,0,1,4.18,2.81c2.44,2.16,3.66,3.41,6.26,5.44,2.33,1.83,5.69,3.81,7.67,5.41,1.14.92,8.35,4.1,8.62,2.26.21-1.42-1.38-4.68-1.79-6-.88-2.76-1.65-5.55-2.26-8.38-.49-2.23-2.74-9.33-.17-11.09,1.7-1.18,3.94,2.08,5,3.14,1.75,1.8,3.29,3.77,5,5.61,2.53,2.74,5.63,4.11,8.79,5.93a34.5,34.5,0,0,0,8.5,3.79c-.92-1.84-4.92-9.1-5.76-11-2.37-5.47-2-5.32-4.4-10.82-1-2.43-1.87-5-2.81-7.43-.5-1.31-2.68-5.94-2.6-6.63,1.72,2.16,10.78,9.08,11.94,9.66,2,1,6.49,4.77,8.27,6.09a18.53,18.53,0,0,0,5.44,2.48,13.67,13.67,0,0,0,3.26,0,12.16,12.16,0,0,0-1.07-3.46,69.62,69.62,0,0,0-3.42-6.93,17.41,17.41,0,0,0-1.56-2.81c-3.14-4.08-5.33-9-8-13.46-3.64-6.2-7-11.32-7.13-14.24.83.48,4.47,2.76,5.3,3.23,6.6,3.69,11.6,4.45,19.17,4.22,2.3-.07,6.43.33,8.18-1.41s0-4.74-.95-6.65c-1.48-3-3.82-5.57-6-8.12s-3.93-5-5.89-7.58a27.8,27.8,0,0,0-18.2-10.21c-5.49-.8-11.5-.21-17-.11,4.17-.11,9.51-.5,13.65-.2,3.68.26,8.22.75,11.46,2.64,1.88,1.1,2.57,1.5,4.48,2.53a52.17,52.17,0,0,1,4.81,3.33c3.5,2.49,7.08,5.44,11.17,6.85a26.35,26.35,0,0,0,7.14,1.74,15.73,15.73,0,0,1,6.42,1.5c-1.19-3.57-3.94-6.36-5.67-9.66a42.28,42.28,0,0,0-6.38-8.5,51.23,51.23,0,0,0-5.58-5.64c-1.58-1.26-3.13-2.5-4.58-3.91-2.34-2.25-4.63-4.83-7.29-6.72-2-1.43-4.59-3.17-5.68-5.49,1.45.29,2.83.23,4.26.66a47.85,47.85,0,0,0,8.16,2.16c2.28.28,4.67.79,6.92,1.16,0,0-3.6-4.39-4.09-5a35.2,35.2,0,0,0-3.71-3.92c-2.37-2.36-4.91-4.67-7.43-6.86-2-1.7-3.65-3.48-5.71-5.06s-8.94-5.2-9.89-6.51c5.88-.5,8,.44,14.79,1.34,3,.4,9.45,2.69,12.49,2.74-1.16-2.83-2.17-6.09-3.44-8.88a27.49,27.49,0,0,0-5.54-7.37c-1.65-1.67-3.74-2.12-5.9-2.86-4.13-1.44-12.42-1.37-15.55-1.12,3-.93,6.06-1.83,9.16-2.49,4.67-1,9.51-1.71,13.24-5a6.86,6.86,0,0,0,2.39-5.47c-.4-3.29-2.86-6.69-6-7.66a38.84,38.84,0,0,0-10.41-1.83,89.73,89.73,0,0,0-9.28.54c-1.84.19-7.21,1.32-8.87,2.29a54.81,54.81,0,0,1,6.64-5.62,49.79,49.79,0,0,0,9.59-8.57c1.1-1.32,1.94-2.86,3-4.22.79-1,3-3,2.68-4.33a51.92,51.92,0,0,0-5.7,1.78c-8.34,3.65-17.75,8.31-26.25,11.39,2-5.86,6.17-12.12,9.49-17.28,2-3.08,4-6.14,5.74-9.36,1-1.88,2.58-4.44,2.4-6.67-.32-4-7-.66-8.76.19-7.8,3.74-14.28,9.22-20.46,15.16-.41-1.56.18-3.52.63-5,1.62-5.5,2.76-11.07,5.72-16.14,1.13-1.93,2.29-4.26,2.28-6.56,0-1.33.2-3.07-.33-4.31a28.4,28.4,0,0,0-6.39,3.1,23.49,23.49,0,0,0-5.64,5.3,24.46,24.46,0,0,0-3.47,5.88c-.86,2.56-1.84,5.19-2.54,7.78s-2.1,5.21-2.48,8a50.55,50.55,0,0,1-4.3-17.08c-.27-5.45-1.57-13.3-4.11-17.9-2.57,1.33-4.59,4.41-6.66,6.42-4.32,4.16-4.28,8.49-4,14.45a65.92,65.92,0,0,1-2,17.78c-3.26-6.54-5.72-12.32-7.24-16.37-1.64-4.36-3.18-11.95-6.83-15.15-4.13-3.62-5.49,3.78-6.39,6.7a89.35,89.35,0,0,0-3,13.78c-.65,4.69-.42,10-1.71,14.6-2.87-2.37-7-4.38-10.31-6.16-4.44-2.4-15.92-6.19-17.68-3.67s-.25,4.78,1.22,7.26a101.16,101.16,0,0,0,6.52,9c-.7-.09-12-2-17.22-5.49a64.71,64.71,0,0,0-7.5-4c-1.2-.62-5.42-2.18-6.77-1.44-1.55.86-.65,3.51-.11,4.78a50,50,0,0,0,5.42,9.2,52.64,52.64,0,0,1,4.92,8.32c1.13,2.26,4.8,8.72,1.66,10.76s-7.94-1-10.87-2.21c-3.29-1.33-6.31-3.24-9.57-4.65-2.56-1.13-5.71-1.94-7.85.52-1.89,2.16-.85,5.89-.27,8.39,1,4.31,1.93,8.64,2.64,13,.12.79,2.22,10.16.71,10.2-2.27.06-5.78-3.28-7.52-4.51-3.91-2.76-7.33-6.15-11.21-8.94-2.68-1.93-6.35-5.28-10-4.31-4.09,1.12-4.16,5.92-3.7,9.31a67.07,67.07,0,0,1,.68,11.15c-4.76-.25-18-8.23-21.06-11a37,37,0,0,0-10.08-6.47c-3.63-1.47-4.31,2.53-3.48,5.85,1,4,3.82,7.39,5.5,11.07s3.82,8.81,5.64,12.5c-6.14.54-12.67-1-18.64-3.47-4.38-1.8-10.57-6.27-15.84-4.91,2.23,5,6.68,13,8.66,18.07-7.11-.34-16.81-2-23.2-5.73-5.47-3.23-12.25-4.52-18-6.94,2.45,7.1,7.63,15,10.18,22.21-2,.86-5.28-1.79-7.14-2.84-2.24-1.27-4.64-2.41-6.78-3.72a58.19,58.19,0,0,0-11.16-5.64s5.86,16.13,9.17,22.09a54.35,54.35,0,0,1-9.66-1.81c-3-.93-22.63-8.59-24.67-8.13,1.71,5,6.25,13,7.93,18-6.06.69-12.63-2.14-18.33-4.81-5.32-2.5-11.34-9.3-16.84-11.46,1.42,4.12,6,9.28,7.19,13.39s2.72,10.33,4.83,14c-2.88-2.66-6.64-6.06-9.72-8.88-3.94-3.61-9.38-6-13.55-8.59-1.08,5.07.42,9,.24,13.13-.2,5-1.72,10.47-2.35,15.35-5.1-2-9.94-10.11-12.81-14.38-3.23-4.8-7.26-9.92-10.26-14.33l.15.34c-2.43,4.57-8.1,12.66-7.68,18.09-3.86-4-6-9.93-9-14.68-3.79-5.93-6.07-16.83-10.6-22.18-2.65,4.31-7.15,10-8.78,15-.76-10.82-6.51-23.16-11.81-32.82a139.11,139.11,0,0,1-5.59,19.62c.15-5.7-3.11-11.9-5.38-17.13a114.72,114.72,0,0,0-8.07-15.64c-.76,2.74-1.17,6.11-2.13,8.9-1.23,3.59-3.47,6.6-4.42,10.33-1.43-5.1-2.37-10.34-3.8-15.38-1.54-5.41-4.8-12.52-6.9-17.81-1.28,2.73-.77,7.82-2.13,10.61-1.55,3.19-4.54,6-4.9,9.67,0-3.57-3.1-8-4.13-11.45-1.27-4.33-3.3-11.16-5.42-15.28-4.8,1.27-10.51,9.58-13.84,13.09-.43-5.32-3.48-13-5.93-17.76-4.44,1.81-10.26,4.74-13.47.1-2.88-4.15-4-9.41-6.67-13.72-4.65.9-9.68,5-14.44,6.52-.08-4.17,3.52-8.08,3-12.44-2.57-.85-13.32-3.85-15.55-4.5-4.72-1.37-14.53-8-14.53-8Z"/><path class="cls-1" d="M489.35,1705.21c5.36-23.36,4.55-23,3.55-37.8,6.74-.05,18.4,5.88,25.11,6.45-5.44-5.65-13.15-11.85-19.16-17,5.51-.07,11.27,1.2,16.89,1.29,7.32.12,13.27,1.47,19.93,0-2.92-5.44-10.62-11.73-16.55-14,13.19,1.49,32.45-3,32.45-3-3.06-2.86-7.74-5.51-10.32-7.54-3.67-2.89-5.39-3.84-11-7.93,6.29.41,13.36,1.7,18.72,1.17,3.35-.34,7.11-.52,10.47-1,2.36-.36,6.44-.32,8.18-1.92a23.69,23.69,0,0,1-10.29-6.88c-2.71-3.16-4.52-6-7.7-11.13a29.14,29.14,0,0,0,14.14,2.49c5.71-.42,13.88-1.19,19.52-3.37-3.28-2-7.65-3.53-10.84-6.93a72.19,72.19,0,0,0-14.59-12.31c3.84-.89,5.81.61,8.41.76,5.68.33,9.61-.52,15.21.44,5,.85,12.19.09,17-.91-4.6-2.28-5.91-4.09-9.56-7.06-1.93-1.57-7.22-9.1-9.53-11.65,2.24.5,4.4,1.28,6.67,1.66a49.29,49.29,0,0,0,15.71.1,101.05,101.05,0,0,0,15-3.84c-3.17-4.92-5.84-6.85-12.49-11.72-4-2.92-5.78-3.93-12.88-8.64,5.93-1.77,12.16-1.74,18.4-3.1,6.53-1.42,12.89-1.57,19.9-1.76,0,0-5.74-7.4-9.7-11.88-1.11-1.25-7.51-7.78-8.85-8.78,1.66.18,8.92,1.44,10.63,1.41,4.87-.09,6.42-.54,11.25-1.13,3.3-.4,6.47-1.08,9.71-1.79,2-.44,6.21-.55,8.14-1.17-1.07-1.25-3.62-2.46-4.77-3.69s-2.08-2.76-3.21-4.06a79.57,79.57,0,0,0-6.28-6.58,24,24,0,0,0-5.54-4.09c2.21-1.13,12.53-4.58,17.29-4.47,2.43.06,17.49.18,18.75-.24-4-3.83-12.3-6.87-17.55-8.75-2.86-1-13-4.51-14-4.73a55.78,55.78,0,0,0,9.05-1.81c6-1.7,24.38-7.4,28.95-8.56,2.2-.56,8-2.29,10.06-3.1-4.24-3.57-10.41-5.3-15.59-7.23a143.67,143.67,0,0,1-13.56-7.22c1.93-1,8.15-2.49,10.22-3.2a76.63,76.63,0,0,1,16.47-3.85c1.24-.17,15.23-3.47,17.24-4.45-3.2-2.94-14.28-7.63-16.89-9-2.34-1.25-9.48-4.2-12.72-6.07,2.55-.47,6.28-.73,8.72-1.74,2.25-.92,4.5-1.68,6.74-2.59l8.57-3.52c1.2-.49,5.68-2.63,6.33-3.76-4.88-.89-9.77-3.34-14.47-4.88-4.06-1.33-8.16-3.53-12.41-4,.43-1.2,23.87-10.4,31.68-14,3.94-1.83,7.86-3.65,11.8-5.46,1.24-.57,4.59-1.89,6.23-5.24-1.62-1.24-15.08-.43-19.35-.36-3.28.06-19.85-.11-24.31-2.13,4.18-1.56,9.38-4,13.51-5.7a79.66,79.66,0,0,0,8.75-4c2.26-1.26,4.56-2.55,6.9-3.67a145,145,0,0,0,15-8.2c-1.11.19-11.54-1.15-12.56-1.54-1.6-.62-14.85-3.61-18.66-3.38,2.21-.88,4.42-2.27,6.6-3.35,4.73-2.33,9.44-4.72,14.34-6.74,3.51-1.43,6.8-2.81,9.61-5.43,1.77-1.64,4.78-5.75,4.85-8.52-2.49-.82-14.91,1.55-18.52,1.54a79.42,79.42,0,0,0-12.79.9c-5.5.9-10.71,2.27-16.19,2.78a42.24,42.24,0,0,1,6.09-7.39,52.6,52.6,0,0,1,12.42-8.42c4.58-2.25,19.52-10.54,23-12.54,1.51-.87,6.08-5.5,4.28-6.27-6.17-2.66-11-2.3-14-1.41a40.8,40.8,0,0,1-11.7,2.21c-1.9.14-12.79-.73-9.51-4.13,2.54-2.61,7-5.69,9.76-8.11,3.16-2.81,6.82-4.94,10-7.69s7.2-5,10.43-7.75c2.31-1.92,3.94-5.2,5-7.36s-2.8-3.33-4.49-3.33c-4.14,0-7,.07-11.06-.86-2-.46-8.5-.94-8.53-3.76,0-2.26,2.9-5.93,4.43-7.36,5-4.69,12-9,14.27-15.77.52-1.57,1.44-5.43-1.4-4.16-2,.91-11.42,4.92-14.21,6-8.93,3.41-22,4.59-24,4.43,5.87-8.26,25-22.87,26.72-25.2,2.22-3,4.8-8.14-1.1-6.27-3.46,1.11-8.27,3-11.75,4.07-1.89.59-8.89,3-12.82,2.74l-.28,0c.12-.84-.25-7.25,2.12-12.64a31,31,0,0,1,2.72-5.08c1-1.42,16.41-21.48,18.28-26-2.6.43-5.35,1.26-8,1.89-9.68,2.33-18.73,7.38-28.19,10.58,1-3.31,7.73-14.15,9.38-16.27,2.17-2.78,4.76-5.23,7.17-7.79,4.54-4.78,9-11.34,9.22-18.17-5.34,2.32-10.86,4.19-16.18,6.59-2.71,1.22-5.54,1.92-8.31,3-2.11.83-5.64,2-7.91,1.28-5.93-1.88.75-10.68,2.65-13.5,3.58-5.32,8.26-9.64,12.58-14.32a51.94,51.94,0,0,0,8.88-13.31s-10.46,2.18-13.47,3.34c-2.37.92-11.18,4.27-13.82,3.49-2.48-.74-.24-2.61,1.22-5,2.9-4.73,5.15-8.2,7.83-11.9,4.8-6.63,8.69-8.33,10.92-12.34,1.19-2.13,4.49-6.57.82-5.29-6.59,2.3-14.81,4.84-21.4,7.14-2.86,1-5.85,2.12-8.91,2.16-2,0-8.92,1.36-8.51-1.82.24-1.81,2.77-3.89,3.68-5.42a24.55,24.55,0,0,1,2.91-4.15c2.23-2.41,3.51-3.61,5.6-6.18,1.89-2.31,3.95-5.64,5.59-7.6,1-1.13,4.3-8.32,2.45-8.63-1.42-.23-4.73,1.29-6.06,1.69-2.79.82-5.61,1.54-8.47,2.1-2.25.44-9.44,2.56-11.16-.06-1.14-1.73,2.17-3.92,3.27-4.94,1.84-1.72,3.85-3.23,5.74-4.9,2.8-2.49,4.24-5.58,6.14-8.72a34.7,34.7,0,0,0,4-8.47c-1.87.89-9.25,4.77-11.21,5.57-5.55,2.28-5.39,1.91-11,4.21-2.46,1-5,1.78-7.52,2.67-1.33.48-6,2.58-6.72,2.48,2.2-1.68,9.34-10.66,10-11.8,1-2,4.93-6.44,6.29-8.2a18.59,18.59,0,0,0,2.6-5.42,13.32,13.32,0,0,0,.08-3.28,12,12,0,0,0-3.5,1,71.62,71.62,0,0,0-7,3.3,18.11,18.11,0,0,0-2.86,1.51c-4.16,3.08-9.16,5.17-13.7,7.73-6.3,3.54-11.51,6.76-14.46,6.88.5-.82,2.87-4.43,3.36-5.26,3.84-6.56,4.71-11.58,4.63-19.2,0-2.31.46-6.45-1.26-8.25s-4.76-.08-6.7.83c-3.07,1.42-5.68,3.72-8.29,5.81s-5.14,3.85-7.73,5.77a28,28,0,0,0-10.65,18.09c-.9,5.51-.43,11.57-.45,17.13,0-4.19-.31-9.57.08-13.73.34-3.69.92-8.25,2.89-11.48,1.14-1.86,1.56-2.54,2.63-4.44a53.07,53.07,0,0,1,3.45-4.78c2.57-3.46,5.61-7,7.11-11.08a26.7,26.7,0,0,0,1.89-7.15,15.71,15.71,0,0,1,1.65-6.43c-3.62,1.12-6.49,3.83-9.83,5.5a42.78,42.78,0,0,0-8.69,6.25,50.8,50.8,0,0,0-5.77,5.5c-1.3,1.56-2.59,3.09-4,4.53-2.31,2.3-5,4.55-6.9,7.19-1.49,2-3.29,4.55-5.64,5.6a41.46,41.46,0,0,1,.75-4.27,48.8,48.8,0,0,0,2.34-8.16c.32-2.29.89-4.68,1.3-6.94,0,0-4.48,3.53-5.14,4a37.61,37.61,0,0,0-4,3.65c-2.42,2.35-4.79,4.85-7.05,7.34-1.75,1.93-3.57,3.6-5.2,5.64s-5.41,8.89-6.75,9.81c-.38-5.92.61-8,1.65-14.84.47-3.06,2.9-9.45,3-12.5-2.87,1.11-6.17,2.06-9,3.27a27.69,27.69,0,0,0-7.53,5.42c-1.71,1.63-2.2,3.72-3,5.88-1.53,4.13-1.62,12.46-1.44,15.62-.88-3.06-1.72-6.13-2.32-9.27-.92-4.71-1.52-9.6-4.77-13.41a6.9,6.9,0,0,0-5.46-2.51c-3.32.33-6.79,2.73-7.83,5.89a38.73,38.73,0,0,0-2,10.43,88.35,88.35,0,0,0,.35,9.35c.16,1.85,1.18,7.27,2.12,9a56.26,56.26,0,0,1-5.51-6.8,49.7,49.7,0,0,0-8.43-9.81c-1.31-1.14-2.84-2-4.18-3.12-1-.82-2.94-3.06-4.31-2.79a55.25,55.25,0,0,0,1.68,5.77c3.51,8.46,8,18,10.92,26.63-5.84-2.08-12.05-6.45-17.18-9.9-3-2-6.1-4.14-9.29-6-1.87-1.05-4.41-2.68-6.66-2.55-4,.24-.81,7,0,8.82,3.61,7.92,9,14.54,14.83,20.88-1.58.37-3.54-.26-5.05-.73-5.5-1.75-11.08-3-16.12-6.08-1.92-1.18-4.24-2.4-6.55-2.43-1.33,0-3.09-.26-4.34.25a29.37,29.37,0,0,0,3,6.49,23.73,23.73,0,0,0,5.22,5.77,24.43,24.43,0,0,0,5.85,3.61c2.56.92,5.18,1.95,7.77,2.71s5.19,2.22,8,2.66a51,51,0,0,1-17.26,4c-5.48.15-13.41,1.31-18.08,3.76,1.28,2.62,4.34,4.71,6.31,6.84,4.11,4.42,8.46,4.47,14.46,4.32A66.66,66.66,0,0,1,459.1,1110a179.92,179.92,0,0,1-16.61,7c-4.42,1.56-12.08,3-15.37,6.56-3.73,4.08,3.69,5.59,6.6,6.56a90.4,90.4,0,0,0,13.8,3.34c4.7.75,10.06.62,14.65,2-2.44,2.84-4.54,7-6.4,10.25-2.51,4.42-6.55,15.88-4,17.7s4.8.35,7.32-1.08a103.39,103.39,0,0,0,9.23-6.37c-.11.7-2.31,12-5.87,17.2a65.44,65.44,0,0,0-4.16,7.46c-.65,1.19-2.29,5.41-1.58,6.78.83,1.58,3.52.73,4.81.2a49.46,49.46,0,0,0,9.35-5.26,55,55,0,0,1,8.47-4.78c2.3-1.08,8.87-4.65,10.85-1.44,1.9,3-1.19,8-2.44,10.88-1.4,3.28-3.38,6.28-4.87,9.52-1.18,2.56-2.06,5.71.37,7.91,2.13,2,5.9,1,8.43.45,4.35-.9,8.72-1.77,13.14-2.39.8-.11,10.26-2,10.27-.52,0,2.29-3.42,5.75-4.69,7.48-2.86,3.87-6.33,7.24-9.22,11.09-2,2.65-5.44,6.28-4.53,9.92,1,4.14,5.87,4.31,9.28,3.91a68.07,68.07,0,0,1,11.24-.45c-.36,4.78-8.65,17.91-11.49,20.95a37.31,37.31,0,0,0-6.71,10c-1.55,3.62,2.46,4.39,5.82,3.62,4-.92,7.5-3.69,11.24-5.31s8.94-3.67,12.69-5.42c.41,6.18-1.29,12.72-3.87,18.67-1.9,4.37-6.52,10.51-5.26,15.83,5-2.14,13.16-6.46,18.35-8.34-.48,7.14-2.32,16.87-6.24,23.21-3.35,5.44-4.79,12.23-7.33,18,7.18-2.32,15.25-7.37,22.53-9.79.83,2.08-1.9,5.27-3,7.12-1.32,2.23-2.51,4.61-3.88,6.74a58.74,58.74,0,0,0-5.89,11.11s16.34-5.57,22.4-8.77a55.22,55.22,0,0,1-2,9.67c-1,3-9.09,22.59-8.68,24.65,5-1.62,13.21-6,18.25-7.61.57,6.1-2.4,12.66-5.21,18.33-2.62,5.3-9.58,11.22-11.86,16.7,4.17-1.34,9.45-5.83,13.61-7s10.44-2.53,14.19-4.57c-2.74,2.85-6.23,6.55-9.13,9.6-3.71,3.89-6.21,9.31-8.92,13.45,5.09,1.19,9.11-.24,13.21,0,5,.3,10.49,2,15.4,2.68-2.16,5.08-10.37,9.79-14.72,12.58-4.9,3.16-10.13,7.11-14.63,10l.35-.15c4.55,2.54,12.57,8.41,18,8.08-4.1,3.81-10.11,5.81-15,8.76-6,3.7-17,5.77-22.52,10.22,4.29,2.75,9.86,7.38,14.91,9.13-10.9.54-23.42,6.08-33.24,11.21a139.16,139.16,0,0,1,19.62,6c-5.74-.27-12,2.88-17.34,5.06a114.81,114.81,0,0,0-15.89,7.8c2.73.82,6.12,1.3,8.91,2.32,3.58,1.31,6.56,3.62,10.29,4.66-5.15,1.33-10.44,2.17-15.54,3.51-5.47,1.43-12.68,4.57-18.05,6.58,2.72,1.34,7.86.93,10.62,2.35,3.19,1.62,5.94,4.69,9.63,5.13-3.59,0-8.05,3-11.59,3.91-4.39,1.19-11.3,3.1-15.48,5.15,1.18,4.85,9.42,10.77,12.89,14.18-5.36.33-13.15,3.24-18,5.6,1.73,4.51,4.56,10.41-.17,13.55-4.24,2.81-9.55,3.8-13.94,6.43.81,4.69,4.8,9.84,6.27,14.66-4.2,0-8.06-3.7-12.45-3.26-.91,2.56-4.15,13.32-4.84,15.54-1.47,4.72-8.36,14.46-8.36,14.46Z"/></svg>