<svg id="Layer_1" data-name="Layer 1" xmlns="http://www.w3.org/2000/svg" viewBox="0 0 1900 1200"><defs><style>.cls-1{fill:#c7aece;}</style></defs><title>collections</title><path class="cls-1" d="M869.65,859.87c-8.46,43,14.57,79.89,54.51,90.15l10.08-5c16.38-44.64-18.93-82.45-64.59-85.11"/><path class="cls-1" d="M1892.23,1110.16c-1-8.19-12-8-12-8-22.4,4.9-64,49.67-35.6,68.77,34.76,23.36,48.67-52.54,47.64-60.73"/><path class="cls-1" d="M194,324.34c-8.47,43,14.57,79.89,54.51,90.15l10.08-5C275,364.81,239.64,327,194,324.34"/><path class="cls-1" d="M743.08,547.92s-5.46-13.06-23.77-16.26S670.22,558,698.83,588.27c23.37,24.7,49.82-12.81,44.25-40.35"/><path class="cls-1" d="M1069.8,287.82c-1-8.19-12-8-12-8-22.4,4.9-64,49.67-35.6,68.77,34.77,23.36,48.68-52.54,47.64-60.73"/><path class="cls-1" d="M321.09,21.14c-8.47,43,14.57,79.89,54.5,90.15l10.08-5c16.38-44.65-18.92-82.45-64.58-85.11"/><path class="cls-1" d="M871.15,241.14s-5.45-13.07-23.77-16.26-49.08,26.33-20.47,56.61c23.37,24.69,49.81-12.82,44.24-40.35"/><path class="cls-1" d="M1205.54,8c-1-8.19-12-8-12-8-22.4,4.9-64,49.67-35.6,68.77,34.77,23.36,48.68-52.54,47.64-60.73"/><path class="cls-1" d="M1008.83,1062.8c8.46,43-14.57,79.89-54.51,90.14l-10.08-5c-16.38-44.64,18.93-82.45,64.59-85.1"/><path class="cls-1" d="M464.53,1202.67s5.45-13.06,23.77-16.25,49.08,26.32,20.47,56.6c-23.37,24.7-49.81-12.81-44.24-40.35"/><path class="cls-1" d="M124.37,1023c1-8.19,12-8,12-8,22.4,4.9,64.05,49.67,35.6,68.77-34.77,23.36-48.67-52.54-47.64-60.73"/><path class="cls-1" d="M266,960.15c9.4,42.85,45.22,67.45,85.93,60.93l7.24-8.64C356.42,965,309,944.38,266,960.15"/><path class="cls-1" d="M339.63,1168.93s-10.22-9.8-28.28-5.43-34.52,43.72,3.79,60.08c31.28,13.32,40.57-31.61,24.49-54.65"/><path class="cls-1" d="M1137.63,609c-4.22-7.09-14.25-2.57-14.25-2.57-18.59,13.42-38.93,71.09-5.22,77.26,41.19,7.56,23.68-67.59,19.47-74.69"/><path class="cls-1" d="M1208.23,211.43c-7.15-43.28-41.62-69.72-82.62-65.34l-7.68,8.25c.29,47.55,46.6,70.6,90.3,57.09"/><path class="cls-1" d="M555.77,481.42c3.83,7.31,14.09,3.31,14.09,3.31,19.27-12.43,42.6-69,9.26-76.87-40.74-9.71-27.19,66.26-23.35,73.56"/><path class="cls-1" d="M1962,498.24c-7.14-43.29-41.62-69.73-82.62-65.35l-7.68,8.25c.29,47.55,46.6,70.6,90.3,57.1"/><path class="cls-1" d="M1755,604.36s9.69,10.32,28,6.91,36.75-41.85-.64-60.2c-30.55-14.94-42.18,29.45-27.32,53.29"/><path class="cls-1" d="M1141.92,845.3c3.84,7.3,14.1,3.31,14.1,3.31,19.26-12.43,42.59-69,9.25-76.88-40.74-9.71-27.18,66.26-23.35,73.57"/><path class="cls-1" d="M1861.22,185.94c-7.15-43.28-41.63-69.73-82.63-65.35l-7.67,8.26c.29,47.54,46.6,70.6,90.3,57.09"/><path class="cls-1" d="M1267.69,169.16s9.69,10.32,28,6.91,36.75-41.86-.65-60.2c-30.54-14.94-42.17,29.45-27.31,53.29"/><path class="cls-1" d="M1046.73,533c3.83,7.31,14.09,3.31,14.09,3.31,19.27-12.43,42.6-68.95,9.26-76.87-40.74-9.71-27.19,66.26-23.35,73.56"/><path class="cls-1" d="M564.54,829.14c3.84,7.3,14.1,3.31,14.1,3.31,19.26-12.43,42.6-69,9.25-76.88-40.74-9.71-27.18,66.26-23.35,73.57"/><path class="cls-1" d="M29.23,218.77C22.09,175.49-12.39,149-53.39,153.42l-7.68,8.26c.29,47.54,46.6,70.6,90.3,57.09"/><path class="cls-1" d="M1583.36,742.3s9.69,10.32,28,6.9,36.75-41.85-.65-60.19c-30.54-14.94-42.17,29.44-27.31,53.29"/><path class="cls-1" d="M142.18,654.6c3.84,7.3,14.1,3.31,14.1,3.31,19.27-12.43,42.6-68.95,9.25-76.88-40.74-9.71-27.18,66.26-23.35,73.57"/><path class="cls-1" d="M775.93,931.82c-7.15-43.28-41.62-69.73-82.62-65.35l-7.68,8.26c.29,47.54,46.6,70.59,90.3,57.09"/><path class="cls-1" d="M115.37,846.32s9.68,10.33,28,6.91,36.75-41.85-.65-60.2c-30.54-14.94-42.18,29.45-27.31,53.29"/><path class="cls-1" d="M1199.54,1109.85c-8.46,43,14.57,79.9,54.51,90.15l10.08-5c16.38-44.64-18.93-82.45-64.59-85.11"/><path class="cls-1" d="M1281.78,555s-5.45-13.06-23.77-16.26-49.08,26.33-20.47,56.61c23.37,24.69,49.81-12.81,44.24-40.35"/><path class="cls-1" d="M1675.18,63.5s-5.46-13.07-23.77-16.26-49.09,26.33-20.48,56.61c23.38,24.69,49.82-12.82,44.25-40.35"/><path class="cls-1" d="M1411.59,695c8.47,43-14.57,79.89-54.5,90.15l-10.09-5c-16.37-44.64,18.93-82.44,64.59-85.1"/><path class="cls-1" d="M1464.77,886.42c3.83,7.31,14.09,3.31,14.09,3.31,19.27-12.43,42.6-69,9.26-76.87-40.74-9.71-27.19,66.26-23.35,73.56"/><path class="cls-1" d="M1542.84,1071.7c-1.64-43.84-32.53-74.41-73.75-75.22l-8.65,7.23c-5.69,47.2,37.36,75.89,82.4,68"/><path class="cls-1" d="M1892.24,859.61s-10.21-9.8-28.28-5.43-34.51,43.71,3.79,60.07c31.28,13.33,40.58-31.61,24.49-54.64"/><path class="cls-1" d="M1660.69,1131.27c-6.12-27.46-26.7-26.84-35.63-12.62-6.15,9.72-2.38,28.66-2.57,37.88-.48,20.67,30.92,71.81,60.94,93.75,13,9.48,21.57,14.29,34.07,7.42,14.52-8-20.52-32.46-40.09-62.68-14-21.72-16.72-63.75-16.72-63.75"/><path class="cls-1" d="M1230.7,339.27c-27.59,5.48-27.44,26.06-13.42,35.33,9.57,6.37,28.58,3,37.8,3.44,20.65.95,72.5-29.26,95.12-58.77,9.78-12.75,14.8-21.24,8.21-33.89-7.61-14.7-32.92,19.77-63.59,38.63-22,13.53-64.12,15.26-64.12,15.26"/><path class="cls-1" d="M-22.43,468.74c-20.08-19.71-37-8-36.75,8.81.12,11.49,13.59,25.33,18.46,33.17,10.84,17.6,65,43.41,102.14,45.48,16,.89,25.87.25,32.62-12.31,7.86-14.57-34.88-16.07-67.74-30.77-23.59-10.59-48.73-44.38-48.73-44.38"/><path class="cls-1" d="M1581.39,548.23c27.74-4.72,28.16-25.29,14.4-34.94-9.38-6.63-28.49-3.83-37.69-4.48-20.62-1.54-73.28,27.23-96.72,56.1-10.12,12.47-15.37,20.82-9.14,33.64,7.2,14.91,33.46-18.84,64.63-36.85,22.4-12.91,64.52-13.47,64.52-13.47"/><path class="cls-1" d="M337.67,782.25c-26.91,8.18-24.74,28.65-9.88,36.48,10.15,5.4,28.75.21,38-.3,20.65-1.08,69.27-36.26,88.87-67.85,8.48-13.66,12.63-22.59,4.83-34.53-9-13.88-30.82,22.91-59.47,44.7-20.59,15.63-62.31,21.5-62.31,21.5"/><path class="cls-1" d="M593,984.49c17.43-22.08,3.95-37.64-12.72-35.59-11.42,1.37-23.72,16.25-31,21.93-16.33,12.68-36.15,69.32-34.2,106.46.84,16,2.54,25.75,15.76,31.1,15.34,6.24,12.21-36.41,23.28-70.67,8-24.59,38.87-53.23,38.87-53.23"/><path class="cls-1" d="M922.69,601.33c-6.12-27.46-26.7-26.84-35.63-12.61-6.15,9.71-2.38,28.65-2.57,37.87-.48,20.67,30.91,71.81,60.94,93.75,13,9.48,21.57,14.29,34.07,7.42,14.52-8-20.52-32.46-40.09-62.68-14-21.71-16.72-63.75-16.72-63.75"/><path class="cls-1" d="M1305,987.08c16.36,22.88,35.06,14.27,37.73-2.31,1.86-11.35-9-27.31-12.44-35.87-7.63-19.21-56.51-54-92.72-62.49-15.64-3.66-25.44-4.73-34.26,6.47-10.26,13,31.57,21.87,61.39,42,21.4,14.5,40.3,52.15,40.3,52.15"/><path class="cls-1" d="M126.2,188.82c-26,10.84-21.74,31-6.17,37.29,10.65,4.35,28.63-2.68,37.74-4.11,20.43-3.16,65.27-43,81.61-76.44,7.05-14.44,10.29-23.75,1.33-34.84-10.37-12.91-28.36,25.89-54.68,50.45-18.92,17.62-59.83,27.65-59.83,27.65"/><path class="cls-1" d="M1799.36,735.49c-15.91,15-42,33.84-60.72,54a323.38,323.38,0,0,0-38.58,51c-9.33,73.17-24.39,96.35-7.47,187.57,24.66-46.11,62.7-85,80.37-122,11.21-54,.69-79.66,8.63-103.07,8.92-26.25,17.77-67.47,17.77-67.47"/><path class="cls-1" d="M501.93,387c-18.77,11.24-48.29,24-70.92,39.59A323.27,323.27,0,0,0,382.34,468c-24.89,69.44-44.6,88.83-47.75,181.55,34-39.71,79.55-69.45,104.78-101.77C462,497.5,457.23,470.16,470,449c14.37-23.72,31.9-62,31.9-62"/><path class="cls-1" d="M1046,775.15c-1.77,21.81-8.56,53.24-9,80.73a323.56,323.56,0,0,0,5.42,63.7c42,60.63,46.33,87.94,119.93,144.42-12.52-50.77-10.24-105.1-21.86-144.42-27.78-47.64-52.77-59.68-62.52-82.39-10.94-25.48-31.94-62-31.94-62"/><path class="cls-1" d="M1500.07,296.07c16.89,13.92,38.8,37.45,61.09,53.54a323.28,323.28,0,0,0,55.38,31.94c73.77.15,98.65,12.21,187-15.92-48.82-18.73-92.11-51.65-131-64.57-55-4.41-79.13,9.22-103.34,4.25-27.16-5.58-69.16-9.24-69.16-9.24"/><path class="cls-1" d="M767.62,1064c-1.77,21.81-8.57,53.24-9,80.73a323.08,323.08,0,0,0,5.43,63.7c42,60.63,46.32,87.94,119.92,144.42-12.52-50.77-10.24-105.1-21.85-144.42-27.78-47.64-52.78-59.68-62.53-82.39-10.94-25.48-31.93-62-31.93-62"/><path class="cls-1" d="M-206.11,976.4c17.67,12.92,40.91,35.14,64.09,49.92A323.37,323.37,0,0,0-84.88,1055c73.65-4.11,99.18,6.49,185.81-26.71C51.11,1012.42,6,982.06-33.6,971.4c-55.13-1.22-78.47,13.78-102.93,10.22-27.44-4-69.58-5.22-69.58-5.22"/><path class="cls-1" d="M581.67,0c-1.77,21.81-8.57,53.24-9,80.73a323.56,323.56,0,0,0,5.42,63.7c42,60.63,46.33,87.94,119.93,144.42-12.52-50.77-10.24-105.1-21.86-144.42C648.34,96.79,623.35,84.75,613.6,62,602.66,36.56,581.67,0,581.67,0"/></svg>