<?xml version="1.0" encoding="utf-8"?>
<!-- Generator: Adobe Illustrator 22.0.1, SVG Export Plug-In . SVG Version: 6.00 Build 0)  -->
<svg version="1.1" id="Layer_1" xmlns="http://www.w3.org/2000/svg" xmlns:xlink="http://www.w3.org/1999/xlink" x="0px" y="0px"
	 viewBox="0 0 1900 1200" style="enable-background:new 0 0 1900 1200;" xml:space="preserve">
<style type="text/css">
	.st0{fill:#FFCD34;}
	.st1{fill:#D5DD45;}
	.st2{fill:#ED7C83;}
	.st3{fill:#EF6C55;}
	.st4{fill:#4DBCC3;}
	.st5{fill:#BBCE4E;}
	.st6{fill:#A7D8D0;}
	.st7{fill:#E3DBD1;}
	.st8{fill:#C2E0CC;}
</style>
<path class="st2" d="M439.5,863.9c24.9,96.3,131.3,151,223,132.8l0,0l0,0C652.2,889.3,535.4,824.5,439.5,863.9"/>
<path class="st2" d="M43.1,315.9c0,0-9.2-22-40-27.4c-30.8-5.4-82.6,44.3-34.5,95.3C8,425.4,52.5,362.2,43.1,315.9"/>
<path class="st2" d="M936.7,920.8c0,0-9.2-22-40-27.4c-30.8-5.4-82.6,44.3-34.5,95.3C901.5,1030.3,946,967.1,936.7,920.8"/>
<path class="st2" d="M1076.7,1154.5c0,0-9.2-22-40-27.4c-30.8-5.4-82.6,44.3-34.5,95.3C1041.5,1264,1086,1200.9,1076.7,1154.5"/>
<path class="st2" d="M1860,1054.5c0,0-9.2-22-40-27.4c-30.8-5.4-82.6,44.3-34.5,95.3C1824.9,1164,1869.4,1100.9,1860,1054.5"/>
<path class="st2" d="M54.7,1143.9c0,0-9.2-22-40-27.4c-30.8-5.4-82.6,44.3-34.5,95.3C19.5,1253.4,64,1190.2,54.7,1143.9"/>
<path class="st2" d="M1968,794.5c0,0-9.2-22-40-27.4c-30.8-5.4-82.6,44.3-34.5,95.3C1932.9,904,1977.4,840.9,1968,794.5"/>
<path class="st2" d="M769.6,1112.7c-8.9-14.9-30-5.4-30-5.4c-39.1,28.3-81.9,149.6-11,162.6C815.3,1285.8,778.4,1127.6,769.6,1112.7
	"/>
<path class="st2" d="M17.5,120.3c6.7,12.8,24.7,5.8,24.7,5.8C75.9,104.4,116.7,5.4,58.4-8.5C-13-25.5,10.8,107.5,17.5,120.3"/>
<path class="st2" d="M1061.8,724.8c-4.3,15.2,15.2,23.3,15.2,23.3c43.2,8.3,150.6-39.4,114.7-94.6
	C1148,586,1066.2,709.6,1061.8,724.8"/>
<path class="st2" d="M839,262.7c-6.5,15,12.5,25.9,12.5,25.9c43.2,14.2,159.4-20.2,130-81.5C945.7,132.1,845.5,247.7,839,262.7"/>
<path class="st2" d="M529.4,560.9c-76.1-13.8-147.7,43.3-164.7,114l0,0l0,0C443.8,702.6,525.9,641.5,529.4,560.9"/>
<path class="st2" d="M1819.8,537.6c-77.1-6.9-161.8,58.4-152.8,130.4C1747.9,677,1823.6,618.2,1819.8,537.6"/>
<path class="st2" d="M1503.4,650.5c0,0-11.3-27.1-49.4-33.8c-38-6.7-101.9,54.7-42.5,117.6C1460,785.6,1514.9,707.7,1503.4,650.5"/>
<path class="st2" d="M1489.5,301.6c8.5,16.2,31.2,7.3,31.2,7.3c42.6-27.5,94.2-152.5,20.5-170
	C1451.1,117.4,1481.1,285.5,1489.5,301.6"/>
<path class="st2" d="M1133.9,78.6c-42.5,8.5-42.3,40.2-20.7,54.5c14.7,9.8,44.1,4.7,58.3,5.3c31.8,1.5,111.8-45.1,146.6-90.6
	c15.1-19.6,22.8-32.7,12.7-52.2c-11.7-22.7-50.8,30.5-98,59.5C1198.8,75.9,1133.9,78.6,1133.9,78.6"/>
<path class="st2" d="M142.9,748.6c34.7,25.7,58,4.3,54-21.2c-2.6-17.4-26.1-35.6-35.1-46.5c-20.2-24.5-108.1-52.2-165-47.5
	c-24.6,2-39.4,5.1-47,25.6c-8.9,23.8,56.4,17,109.5,32.4C97.5,702.5,142.9,748.6,142.9,748.6"/>
<path class="st2" d="M1815.8,162.7c34.7,25.7,58,4.3,54-21.2c-2.6-17.4-26.1-35.6-35.1-46.5c-20.2-24.5-108.1-52.2-165-47.5
	c-24.6,2-39.4,5.1-47,25.6c-8.9,23.8,56.4,17,109.5,32.4C1770.4,116.7,1815.8,162.7,1815.8,162.7"/>
<path class="st2" d="M292.9,897.3c32.1-40.7,7.3-69.4-23.5-65.6c-21.1,2.5-43.7,30-57.2,40.4c-30.1,23.4-66.7,127.9-63.1,196.4
	c1.6,29.6,4.7,47.5,29.1,57.4c28.3,11.5,22.5-67.2,43-130.3C235.9,950.2,292.9,897.3,292.9,897.3"/>
<path class="st2" d="M638.8,457.6c13.9,45,48.1,41.2,61.1,16.3c9-17,0.1-48.1-0.8-63.5c-2-34.5-61.2-115.6-114.3-148.2
	c-22.9-14.1-37.9-21-57.8-7.8c-23.2,15.2,38.6,51.4,75.3,99.2C628.7,387.8,638.8,457.6,638.8,457.6"/>
<path class="st2" d="M1411.9,943.9c19.5,27.2,41.7,17,44.9-2.7c2.2-13.5-10.7-32.5-14.8-42.7c-9.1-22.9-67.3-64.3-110.4-74.4
	c-18.6-4.4-30.3-5.6-40.8,7.7c-12.2,15.5,37.6,26,73.1,50.1C1389.4,899,1411.9,943.9,1411.9,943.9"/>
<path class="st2" d="M1769.2,363.2c31.6-11,28-35.3,10-43.9c-12.3-5.9-34.2,1.1-45.1,2.2c-24.5,2.3-80.6,46.5-102.4,85
	c-9.4,16.6-13.9,27.5-4.1,41.3c11.4,16.1,35.6-28.8,68.6-56.1C1719.9,372.2,1769.2,363.2,1769.2,363.2"/>
<path class="st2" d="M235.2,172.2c-40.3,16.8-33.8,48.1-9.6,57.9c16.5,6.8,44.5-4.2,58.6-6.4c31.7-4.9,101.4-66.8,126.8-118.7
	c11-22.4,16-36.9,2.1-54.1c-16.1-20-44.1,40.2-84.9,78.4C298.8,156.6,235.2,172.2,235.2,172.2"/>
<path class="st2" d="M427.6,378.3c-26-2.2-63.3-10.5-96.1-11.3c-41.4-0.9-75.9,6.1-75.9,6.1c-72.5,49.6-105,54.6-172.7,141.9
	c60.5-14.6,125.2-11.5,172.1-25.1c56.9-32.8,71.4-62.5,98.5-73.9C383.9,403.1,427.6,378.3,427.6,378.3"/>
<path class="st2" d="M1774.9,830c-23.4,11.5-59.7,23.6-88.1,39.9c-36,20.6-61.9,44.3-61.9,44.3c-36.5,79.9-61.8,100.9-74.9,210.6
	c44.4-43.7,101.4-74.4,134.5-110.2c31.9-57.4,29-90.3,46.3-114.1C1750.3,873.7,1774.9,830,1774.9,830"/>
<path class="st2" d="M904.3,503.8c-22.1,13.8-56.9,29.6-83.5,48.7c-33.7,24.2-57,50.4-57,50.4c-28.1,83.2-51.1,106.7-52.8,217.2
	c39.6-48,93.1-84.5,122.5-123.5c25.8-60.4,19.5-92.8,34.3-118.3C884.3,549.8,904.3,503.8,904.3,503.8"/>
<path class="st2" d="M487.9,1046c-22.1,13.8-56.9,29.6-83.5,48.7c-33.7,24.2-57,50.4-57,50.4c-28.1,83.2-51.1,106.7-52.8,217.2
	c39.6-48,93.1-84.5,122.5-123.5c25.8-60.4,19.5-92.8,34.3-118.3C467.9,1092,487.9,1046,487.9,1046"/>
<path class="st2" d="M1332.1,1153.4c-11.5-23.4-23.7-59.7-40-88c-20.6-35.9-44.4-61.8-44.4-61.8c-79.9-36.4-101-61.6-210.7-74.5
	c43.8,44.3,74.6,101.2,110.5,134.3c57.5,31.8,90.4,28.8,114.2,46.1C1288.3,1128.8,1332.1,1153.4,1332.1,1153.4"/>
<path class="st2" d="M1126.9,299.4c10.8,23.7,21.8,60.4,37.2,89.3c19.5,36.6,42.4,63.2,42.4,63.2c78.8,38.9,99,64.8,208.3,81.1
	c-42.4-45.6-71.4-103.5-106.2-137.7c-56.4-33.5-89.4-31.7-112.7-49.7C1169.9,325.4,1126.9,299.4,1126.9,299.4"/>
<path class="st2" d="M680-40.6c-14-8.5-27.3,8.7-27.3,8.7c-20.1,40.8-2.2,160.6,62.6,140.1C794.4,83.2,693.9-32.1,680-40.6"/>
</svg>
