<svg id="Layer_1" data-name="Layer 1" xmlns="http://www.w3.org/2000/svg" viewBox="0 0 1900 1200"><defs><style>.cls-1{fill:#b24a9a;}</style></defs><title>deo-page-bkgd</title><path class="cls-1" d="M714,1048.85c-25,127.1,43,235.93,161,266.21l29.78-14.89c48.37-131.83-55.9-243.48-190.73-251.32"/><path class="cls-1" d="M878.79-44.66C860,50.67,911.06,132.29,999.51,155l22.34-11.17C1058.12,45,979.92-38.78,878.79-44.66"/><path class="cls-1" d="M122.56,424.3s-12-28.64-52.11-35.64-107.61,57.71-44.88,124.1c51.23,54.13,109.2-28.09,97-88.46"/><path class="cls-1" d="M1412.92,1119.94c-11.56-19.45-39.07-7-39.07-7-51,36.79-106.71,194.86-14.29,211.77,112.91,20.73,64.9-185.27,53.36-204.73"/><path class="cls-1" d="M89.17,169.66c8.75,16.66,32.14,7.55,32.14,7.55C165.23,148.88,218.42,20,142.4,2,49.52-20.18,80.43,153,89.17,169.66"/><path class="cls-1" d="M1346.09,905.68c-5.65,19.84,19.8,30.32,19.8,30.32,56.31,10.74,196-51.28,149.39-123.15-57-87.86-163.52,73-169.19,92.83"/><path class="cls-1" d="M1212.49,521.64c9.91,18.86,36.39,8.55,36.39,8.55,49.72-32.08,109.94-178,23.88-198.43-105.15-25.05-70.16,171-60.27,189.88"/><path class="cls-1" d="M784.7,686.86C684.35,677.93,605.77,739.45,592,833.14L606,855c105.91,26.6,183.72-63.17,178.74-168.09"/><path class="cls-1" d="M1988.9,843.13s-14.76-35.33-64.28-44-132.74,71.19-55.37,153.07C1932.46,1019,2004,917.59,1988.9,843.13"/><path class="cls-1" d="M1704.25,414.35c11,21,40.6,9.54,40.6,9.54,55.49-35.8,122.69-198.6,26.65-221.43-117.34-28-78.29,190.85-67.25,211.89"/><path class="cls-1" d="M1367.13,115.3c-55.39,11-55.1,52.33-27,70.92,19.21,12.78,57.39,6.1,75.89,6.9,41.46,1.92,145.54-58.72,191-118,19.63-25.59,29.69-42.62,16.48-68-15.28-29.52-66.1,39.67-127.65,77.54-44.22,27.15-128.71,30.62-128.71,30.62"/><path class="cls-1" d="M252.44,970.86c45.2,33.46,75.47,5.58,70.33-27.61-3.43-22.72-33.92-46.4-45.72-60.57-26.34-31.85-140.73-68-214.82-61.79-32,2.67-51.3,6.65-61.17,33.39-11.53,31,73.5,22.17,142.63,42.19,49.63,14.43,108.75,74.39,108.75,74.39"/><path class="cls-1" d="M504.35,1052.94c41.85-53,9.49-90.42-30.56-85.47-27.41,3.28-57,39-74.42,52.67-39.22,30.45-86.83,166.49-82.14,255.69,2,38.53,6.09,61.85,37.83,74.7,36.85,15,29.34-87.46,55.94-169.73,19.16-59.07,93.35-127.86,93.35-127.86"/><path class="cls-1" d="M928.07,608.87c18.1,58.58,62.69,53.64,79.61,21.16,11.66-22.18.16-62.66-1-82.73-2.57-45-79.73-150.59-148.81-193C828,336,808.46,327,782.52,344.13,752.36,364,832.78,411.07,880.57,473.3c34.28,44.72,47.5,135.57,47.5,135.57"/><path class="cls-1" d="M1788.11,1216.33c25.37,35.48,54.35,22.13,58.49-3.59,2.89-17.58-14-42.33-19.28-55.6-11.83-29.79-87.61-83.76-143.76-96.88-24.25-5.67-39.44-7.34-53.11,10-15.91,20.15,49,33.91,95.18,65.18,33.17,22.5,62.48,80.86,62.48,80.86"/><path class="cls-1" d="M372.69,237.17c-52.51,21.92-44,62.67-12.48,75.42,21.53,8.79,57.9-5.43,76.34-8.33,41.32-6.37,132-87,165.05-154.61,14.28-29.2,20.82-48,2.71-70.47-21-26.1-57.37,52.38-110.61,102.06-38.26,35.64-121,55.93-121,55.93"/><path class="cls-1" d="M684.7,472c-33.8-2.93-82.47-13.72-125.08-14.67a500.51,500.51,0,0,0-98.8,7.89C366.47,529.89,324.1,536.36,235.93,650c78.82-19,163-15,224.09-32.7C534.09,574.62,553,536,588.26,521c39.59-16.76,96.44-49,96.44-49"/><path class="cls-1" d="M1243.93,652.07c-28.77,18-74.16,38.59-108.79,63.44a500.76,500.76,0,0,0-74.23,65.68c-36.57,108.36-66.55,139-68.73,282.81,51.58-62.55,121.29-110,159.46-160.8,33.56-78.63,25.42-120.86,44.65-154,21.58-37.18,47.64-97.12,47.64-97.12"/><path class="cls-1" d="M1459.93,408.87c14,30.9,28.42,78.61,48.46,116.24a500.66,500.66,0,0,0,55.26,82.28C1666.21,658,1692.6,691.77,1834.85,713c-55.15-59.42-92.92-134.8-138.24-179.37C1623.12,490,1580.18,492.41,1549.88,469c-34-26.32-90-60.09-90-60.09"/></svg>