<svg id="Layer_1" data-name="Layer 1" xmlns="http://www.w3.org/2000/svg" viewBox="0 0 1900 1200"><defs><style>.cls-1{fill:#c8aecf;}</style></defs><title>deo-page-4</title><path class="cls-1" d="M439.48,863.89c24.9,96.32,131.26,151,223,132.8h0c-10.3-107.35-127-172.15-223-132.8"/><path class="cls-1" d="M43.12,315.86s-9.19-22-40-27.37-82.63,44.32-34.47,95.3C8,425.37,52.5,362.22,43.12,315.86"/><path class="cls-1" d="M936.66,920.77s-9.18-22-40-27.37S814,937.73,862.18,988.7c39.35,41.58,83.86-21.57,74.48-67.93"/><path class="cls-1" d="M1076.66,1154.53s-9.18-22-40-27.38-82.64,44.33-34.47,95.3c39.35,41.58,83.86-21.57,74.48-67.92"/><path class="cls-1" d="M1860.05,1054.53s-9.19-22-40-27.38-82.64,44.33-34.47,95.3c39.35,41.58,83.86-21.57,74.49-67.92"/><path class="cls-1" d="M54.66,1143.88s-9.18-22-40-27.38-82.64,44.33-34.47,95.3c39.35,41.58,83.86-21.57,74.48-67.92"/><path class="cls-1" d="M1968.05,794.53s-9.19-22-40-27.38-82.64,44.33-34.47,95.3c39.35,41.58,83.86-21.57,74.49-67.92"/><path class="cls-1" d="M769.56,1112.65c-8.87-14.93-30-5.4-30-5.4-39.13,28.25-81.95,149.64-11,162.63,86.71,15.92,49.85-142.29,41-157.23"/><path class="cls-1" d="M17.48,120.32c6.72,12.78,24.68,5.79,24.68,5.79C75.89,104.35,116.73,5.39,58.36-8.48c-71.33-17-47.6,116-40.88,128.8"/><path class="cls-1" d="M1061.8,724.78C1057.46,740,1077,748.07,1077,748.07c43.24,8.25,150.55-39.38,114.72-94.58C1148,586,1066.15,709.55,1061.8,724.78"/><path class="cls-1" d="M839,262.7c-6.48,15,12.46,25.86,12.46,25.86,43.16,14.21,159.36-20.24,130-81.52-35.79-74.9-136,40.65-142.5,55.66"/><path class="cls-1" d="M529.38,560.89c-76.12-13.84-147.66,43.31-164.74,114h0c79.14,27.74,161.22-33.42,164.74-114"/><path class="cls-1" d="M1819.76,537.65C1742.69,530.8,1657.93,596,1666.93,668c81,9,156.65-49.78,152.83-130.35"/><path class="cls-1" d="M1503.37,650.49S1492,623.36,1454,616.73s-101.94,54.67-42.52,117.55c48.53,51.29,103.44-26.6,91.88-83.79"/><path class="cls-1" d="M1489.55,301.61c8.49,16.16,31.18,7.33,31.18,7.33,42.62-27.5,94.22-152.52,20.47-170-90.11-21.47-60.13,146.56-51.65,162.72"/><path class="cls-1" d="M1133.88,78.57c-42.53,8.45-42.31,40.18-20.7,54.46,14.75,9.82,44.07,4.69,58.28,5.3,31.84,1.47,111.76-45.1,146.64-90.6,15.07-19.65,22.8-32.73,12.66-52.23C1319-27.17,1280,26,1232.73,55.05c-34,20.85-98.85,23.52-98.85,23.52"/><path class="cls-1" d="M142.86,748.58c34.72,25.7,58,4.29,54-21.2-2.64-17.45-26.05-35.63-35.11-46.51-20.23-24.46-108.07-52.21-165-47.46-24.58,2.05-39.4,5.11-47,25.64-8.85,23.84,56.45,17,109.54,32.4,38.11,11.08,83.51,57.13,83.51,57.13"/><path class="cls-1" d="M1815.79,162.7c34.71,25.7,58,4.29,54-21.2-2.64-17.45-26-35.63-35.11-46.51-20.23-24.46-108.07-52.2-165-47.45-24.58,2-39.4,5.1-47,25.64-8.85,23.83,56.45,17,109.54,32.4,38.11,11.08,83.51,57.12,83.51,57.12"/><path class="cls-1" d="M292.89,897.34c32.14-40.74,7.29-69.44-23.47-65.64-21.05,2.52-43.74,30-57.15,40.45-30.12,23.38-66.68,127.85-63.08,196.35,1.55,29.6,4.68,47.5,29.06,57.37,28.29,11.51,22.53-67.16,42.95-130.35,14.72-45.35,71.69-98.18,71.69-98.18"/><path class="cls-1" d="M638.82,457.6c13.9,45,48.14,41.19,61.13,16.25,8.95-17,.13-48.12-.8-63.53-2-34.55-61.23-115.64-114.28-148.21C562,248,547,241.16,527,254.3c-23.16,15.22,38.6,51.4,75.3,99.19,26.33,34.34,36.48,104.11,36.48,104.11"/><path class="cls-1" d="M1411.89,943.86c19.48,27.25,41.74,17,44.91-2.75,2.22-13.5-10.71-32.51-14.8-42.7-9.08-22.87-67.28-64.32-110.4-74.4-18.62-4.35-30.29-5.63-40.78,7.71-12.23,15.47,37.58,26,73.08,50,25.48,17.28,48,62.09,48,62.09"/><path class="cls-1" d="M1769.23,363.21c31.62-11,28-35.27,10-43.87-12.34-5.93-34.21,1.15-45.14,2.2-24.5,2.29-80.64,46.49-102.43,85-9.42,16.65-13.93,27.49-4.07,41.31,11.41,16.08,35.55-28.75,68.58-56.07,23.74-19.59,73.08-28.6,73.08-28.6"/><path class="cls-1" d="M235.2,172.15c-40.32,16.84-33.77,48.13-9.58,57.92,16.54,6.76,44.47-4.16,58.62-6.39C316,218.78,385.63,156.84,411,104.94c11-22.42,16-36.88,2.08-54.11C397,30.78,369,91.05,328.14,129.2c-29.39,27.37-92.94,43-92.94,43"/><path class="cls-1" d="M427.56,378.33c-26-2.24-63.33-10.53-96.05-11.26a384.73,384.73,0,0,0-75.88,6.06c-72.45,49.63-105,54.6-172.7,141.87,60.53-14.59,125.2-11.53,172.09-25.11C311.9,457.11,326.4,427.43,353.5,416c30.4-12.86,74.06-37.63,74.06-37.63"/><path class="cls-1" d="M1774.93,830c-23.4,11.45-59.7,23.61-88.12,39.85a384.34,384.34,0,0,0-61.9,44.3c-36.51,79.87-61.83,100.9-74.88,210.58,44.35-43.69,101.35-74.4,134.53-110.2,31.85-57.41,29-90.32,46.29-114.11,19.43-26.7,44.08-70.42,44.08-70.42"/><path class="cls-1" d="M904.27,503.77c-22.09,13.8-56.95,29.64-83.54,48.72a384.86,384.86,0,0,0-57,50.44c-28.08,83.21-51.1,106.74-52.78,217.18,39.61-48,93.15-84.45,122.46-123.49,25.77-60.38,19.52-92.81,34.29-118.27,16.57-28.55,36.58-74.58,36.58-74.58"/><path class="cls-1" d="M487.93,1046c-22.1,13.81-56.95,29.64-83.55,48.72a384.45,384.45,0,0,0-57,50.44c-28.08,83.21-51.1,106.74-52.78,217.18,39.61-48,93.14-84.45,122.45-123.48,25.78-60.39,19.53-92.82,34.3-118.27C467.92,1092,487.93,1046,487.93,1046"/><path class="cls-1" d="M1332.08,1153.36c-11.5-23.38-23.73-59.65-40-88a384.54,384.54,0,0,0-44.41-61.81c-79.94-36.37-101-61.65-210.72-74.5,43.77,44.27,74.59,101.22,110.45,134.33,57.47,31.75,90.37,28.82,114.2,46.09,26.73,19.37,70.5,43.94,70.5,43.94"/><path class="cls-1" d="M1126.93,299.44c10.75,23.73,21.83,60.38,37.22,89.27a384.85,384.85,0,0,0,42.43,63.19c78.76,38.86,99,64.8,208.27,81.1-42.35-45.63-71.36-103.52-106.16-137.75-56.44-33.54-89.41-31.65-112.68-49.66-26.11-20.21-69.08-46.15-69.08-46.15"/><path class="cls-1" d="M680-40.64c-14-8.51-27.34,8.73-27.34,8.73-20.1,40.76-2.18,160.64,62.58,140.14,79.16-25-21.28-140.35-35.24-148.87"/></svg>