<svg id="Layer_1" data-name="Layer 1" xmlns="http://www.w3.org/2000/svg" viewBox="0 0 1900 1200"><defs><style>.cls-1{fill:#d5dd45;}</style></defs><title>face-page-bkgd</title><path class="cls-1" d="M868.61,21.54s60,50.78,72.87,55.13c0,0,73-20,84.3-24.13-16.66-13.84-27.5-24.42-44.09-37.09C971.51,7.68,957.47-1.83,957.47-1.83s-64,11.79-88.86,23.37"/><path class="cls-1" d="M1056.5,69.23s48.14,62.14,59.82,69.07c0,0,75.6-4.39,87.49-6.07-13.42-17-21.83-29.61-35.42-45.45-8.34-9.71-20.1-21.94-20.1-21.94s-65.06-1.77-91.79,4.39"/><path class="cls-1" d="M683.85,62.55s75.47,22,89,20.71c0,0,58.58-48,67.21-56.33C819.2,21.07,805,15.81,784.68,11c-12.46-3-29.16-5.93-29.16-5.93s-53.67,36.8-71.67,57.5"/><path class="cls-1" d="M537.12,175.37s77.69-12,89.41-18.84c0,0,32.81-68.24,37.1-79.45-21.37,3.5-36.47,4.73-56.92,8.94C594.17,88.61,577.78,93,577.78,93S544.69,149,537.12,175.37"/><path class="cls-1" d="M441.55,330.89s67.54-40.2,75.84-50.95c0,0,4.86-75.57,4.64-87.57-18.51,11.25-32,18-49.42,29.61-10.66,7.1-24.23,17.28-24.23,17.28s-9.69,64.36-6.83,91.63"/><path class="cls-1" d="M2299,851.19c-133.23,0-292.8-54.12-320.85-66.09l-8.63-3.63c-31.61-13.31-66.86-28.16-91.14-57.93-38.07,21.87-90.88,23.93-113.89,23.63a1081.25,1081.25,0,0,1-123.21-8c-42.72-5.22-112-28.87-148.34-50.63-32.58-19.57-109.68-76.67-130.92-92.48-22.13,2.11-92.5,8.68-123,9.33-69.27,1.46-153.42-10.06-225.11-30.8-27.49-8-79.73-32.79-110.93-47.64-9.85-4.69-17.29-8.25-20.63-9.64a60.33,60.33,0,0,0-12.57-3.44c-8.52-1.68-19.14-3.78-30.66-13.39A17.25,17.25,0,1,1,861.29,474c4.76,3.95,8.48,4.69,15.25,6a93.13,93.13,0,0,1,19.27,5.5c3.57,1.5,11.55,5.27,22.05,10.27,28.28,13.46,80.92,38.49,105.7,45.67,68.53,19.81,148.9,30.83,214.8,29.44,34.32-.72,126.07-9.73,127-9.84a17.36,17.36,0,0,1,12.05,3.38c1,.72,97.67,73.11,133.34,94.51,31.78,19.06,97.29,41.4,134.77,46A1049.94,1049.94,0,0,0,1765,712.66c17.51.22,77-1,106.58-26.2a17.24,17.24,0,0,1,26,4.38c17.9,30.42,50.67,44.21,85.37,58.82l8.76,3.71c44,18.73,238.11,78.82,361.31,59.5,35.26-5.54,94.3-14.81,101.72-25.28,1.51-9.41,10.19-15.1,19.54-13.61s15.57,11.06,14,20.46c-5.32,32.95-57.6,41.14-130,52.51a387.65,387.65,0,0,1-59.32,4.24"/><path class="cls-1" d="M169.28,1016.1,37.55,916.25a11.47,11.47,0,0,0-15,1c-1.21,1.22-1.44,2.85-2,4.38a27.6,27.6,0,0,1-5.23-6.51l-37.73,20.33c.59,1.11,1.31,1.89,1.93,2.9-.52.24-1.12,0-1.61.33A10.73,10.73,0,0,0-25,953.54c5.89,8.81-10.63,7.77-10.63,7.77a10.72,10.72,0,0,0-14.81.2,10.7,10.7,0,0,0-.48,14.78c8.12,9.1,6.26,15.68,6.26,15.68a10.73,10.73,0,0,0-14.49.26,10.53,10.53,0,0,0-3.11,7.64l-8.12-7.13a10.71,10.71,0,0,0-13.32-.63A10.72,10.72,0,0,0-87.31,1005c1.29,3.08,3.47,6.15,5.12,9.25a116.58,116.58,0,0,0-14.55-8.35,10.74,10.74,0,0,0-13.72,4.15,10.73,10.73,0,0,0,2.7,14.08l7.43,5.66s-.1,0-.14.06a10.73,10.73,0,0,0-1.17,14.55c3.58,4.51,7.39,8.79,11.08,13.23-1-.65-2.23-1.18-3.16-1.86a10.71,10.71,0,0,0-14.92,2.28,10.74,10.74,0,0,0,2.15,14.94l77.32,58.2a10.69,10.69,0,0,0,7.84,2.06,10.61,10.61,0,0,0,5.45-2.38,10.69,10.69,0,0,0,2.74-13c-.28-.56-.69-.93-1-1.46,3.66,3.89,7.33,7.75,11.62,10.46,7.58,4.83,16.62,6.64,24.6,8.25,3,.61,6,1.19,8.68,1.93a101.08,101.08,0,0,1,10,3.57c3.67,1.46,7.34,2.9,11.21,4a10.69,10.69,0,0,0,12.53-5.48c.27-.52,0-1.09.21-1.63,1.22.26,2.41.87,3.64.7a10.67,10.67,0,0,0,7.32-4.4c2.23-3.1,1.93-6.78.55-10.1.63,0,1.25.41,1.87.32a10.73,10.73,0,0,0,7.48-4.61,10.61,10.61,0,0,0,1.6-6.65c8,5.29,16.13,10.64,25.42,15.23a10.65,10.65,0,0,0,6.14,1,10.71,10.71,0,0,0,5.91-18.47l13.6-.5a10.72,10.72,0,0,0,16.68-13.43,167.44,167.44,0,0,0-15.33-17.47s0,0,0-.06l-3.08-3.5,25-1.17c-.61-13-5.82-26.41-14-37.22,4.75.07,9.19.39,14.88-.36l1.62-.21a11.47,11.47,0,0,0,5.31-20.48"/><path class="cls-1" d="M1740.75,897.34c-2.86-7.07-2.52-12-1.76-19.46,4.62-45.94-52.23-57.13-85.32-74.62-23.56-12.45-43.12-9.79-65,1.83-17.78,9.45-24.65,6.14-42.55-.37,2.3,5.94,8.11,9.86,11.17,15.36,3.52,6.29,4.47,13.32,5,20.46-19.64.27-26.08-17.52-41.87-25.21-12-5.86-35.42-10.48-48.37-8.84-.87,10.06,20.73,40.53,14.79,45.43l16.56,18.38c9.7,13.62,22.37,23.65,32.83,36.63,11.56,14.32,20.37,25.07,35.91,35.27,12.92,8.48,25.79,17.52,39,25.48,11.77,7.05,21.4,6.36,34.81,4.69,9.73-1.21,10.47-1.86,15.57,5.28,4.61,6.4,7.12,17.89,17.94,13.29-4.42-17.19-23.08-27.58,1.34-32.6,28-5.8-11.56-17.38,1.81-29.72,8.82-8.13,24.8,16.18,33.45,7.11,7.32-7.68-12.63-26.07.21-29.41,8.48-2.2,26.86,23.23,31.78,8.39,1.8-5.38-5.46-12.88-7.32-17.37"/><path class="cls-1" d="M213.37,102.74c-2.88-7.1-2.54-12-1.78-19.55,4.65-46.14-52.47-57.39-85.71-75C102.21-4.28,82.56-1.61,60.54,10.06c-17.85,9.5-24.76,6.18-42.74-.37,2.31,6,8.15,9.92,11.22,15.44,3.54,6.31,4.49,13.38,5,20.55C14.33,46,7.85,28.08-8,20.36c-12.06-5.9-35.59-10.54-48.6-8.89-.87,10.12,20.83,40.72,14.86,45.65l16.64,18.46c9.75,13.68,22.47,23.77,33,36.8C19.49,126.77,28.33,137.57,44,147.82c13,8.52,25.91,17.6,39.22,25.59,11.82,7.09,21.5,6.39,35,4.72,9.78-1.23,10.52-1.87,15.64,5.29,4.64,6.43,7.15,18,18,13.36-4.43-17.28-23.18-27.71,1.36-32.75,28.17-5.82-11.63-17.46,1.81-29.86,8.87-8.17,24.91,16.25,33.6,7.14,7.36-7.71-12.68-26.19.21-29.54,8.53-2.22,27,23.34,31.93,8.42,1.81-5.39-5.48-12.94-7.34-17.45"/><path class="cls-1" d="M1171.92,1043.87c-21.23,38.73,4.73,75.57,24.87,103,11.09,15.08,30.91,20.54,39.4,14.88,21.94-14.66,2.23-30.35-2.65-35.78-24.07-26.81-12.4-61.22,21.45-64.43,29.1-2.77,92.37,28.94,123.51,49a385.58,385.58,0,0,1,62.47,49.59c7.36,7.25,15.54,16.06,15.54,16.06s30.56,4.15,41.43,3.21c47.14-4.1,95.48,14.07,125.45,18.27,6.69.93,20.6-.34,28.41,2.38-5.09-3.31-14-11.31-19.07-14.74-32.33-22-51.53-43.77-83-66.72-19.51-14.2-40.24-28-61.09-41.23-26-16.55-50-27.39-76.89-38.9-44.41-19-92.55-36.06-141.17-37.26-43-1.07-84.62,17.2-98.61,42.72"/><path class="cls-1" d="M1116.49,393c22.23-21.89,12.15-52.09,4.08-74.71-4.45-12.45-16.75-20.17-23.64-18.06-17.82,5.47-7.67,20.08-5.47,24.74,10.84,23-4,43.95-27.6,39.25-20.24-4-56.62-38.34-73.62-58.23A273.44,273.44,0,0,1,958,259.71c-3.51-6.41-7.25-14-7.25-14s-19.83-9-27.38-10.58c-32.73-6.79-61.75-28.91-81.18-37.83-4.33-2-14-4-18.73-7.38,2.77,3.28,7.2,10.51,9.9,13.84,17.4,21.49,26,40.08,42.65,62,10.32,13.57,21.55,27.1,33,40.3,14.26,16.49,28.25,28.68,44.12,41.94,26.19,21.87,55.31,43.19,88,53.87,28.9,9.46,60.75,5.54,75.39-8.89"/><path class="cls-1" d="M-25.09,199.79c-17,10.33-42.1,20.08-55.2,35.31,6.46,16,33,52.11,33,52.11,20.05-2,46.27-9.38,66.21-12.61Z"/><path class="cls-1" d="M83.86,389.24c-7.68-14.72-15.8-29.43-23.48-44s-20.46-36.91-31.85-53.32l-66.65,15.84c9.3,18.93,18.73,38,27.15,51.72,9.09,14.85,25,50,25,50s19.25-4.44,33.34-4.62c13.49-.18,25.39-7.77,36.48-15.59"/><path class="cls-1" d="M153.66,514,97.32,411.76c-7,3.18-11.92,9.38-19.12,11.94-3.72,1.33-8.21,1.49-12.13,2.05-8,1.16-15.79,3.73-23.83,4.59-5.3.58-10,1-15.06,2.88,1.15,4.83,4.8,9.8,7.44,14,2.38,3.83,4.43,7.83,6.72,11.68,5.26,8.86,11.55,17.12,16.86,25.95,8.63,14.37,14.33,29.93,23,44.21,1.91,3.13,3.66,6.49,5.81,9.45,4.87-8.6,18-14.67,27.66-15.81,7.11-.85,14.27-1.66,21.43-2a29.6,29.6,0,0,0,13.21-3.45c1.38-.68,4.51-2,4.3-3.31"/><path class="cls-1" d="M215.55,621.25s-6.1-10.94-8.76-16c-3.3-6.24-7.23-12.35-10.88-18.38-10.14-16.77-19.89-34.94-29.64-51l-6.52,1.88c-4.13,1.21-11.61,2.82-15.6,3.57-4.46.85-15.72.78-20.25,1.38-10.31,1.38-16.88,8.71-24.5,16.11,6.13,13,7.7,23.1,15.3,35.43,7,11.32,14.17,22.39,20.67,34,3.7,6.58,12.6,21.25,12.6,21.25s4-2.75,6.89-4.52c5-3.07,8.52-6.89,14.41-7.78,8.08-1.19,15.6-.13,23.46-3a71.66,71.66,0,0,0,13-6.63c3.08-1.87,9.86-6.3,9.86-6.3"/><path class="cls-1" d="M269.11,719.25c-5.05-10.88-14-23.45-22.13-39.66-3.49-6.94-6.92-13.84-10.33-20.8-1.8-3.65-2.89-8.85-7.19-15.68a113.9,113.9,0,0,1-11.75,6.46c-9,3.94-19.53,7-29.68,7.16a31.52,31.52,0,0,0-14,3.37c-2.17,1.11-10.85,8.09-12.22,7.49l45.75,82.59c3.67-.58,5.72-4.89,9.35-5.67a174.91,174.91,0,0,0,21.45-6.12,81.41,81.41,0,0,0,30.77-19.14"/><path class="cls-1" d="M299.05,866.74c5.45-3.54,11.17-7,16.54-10.74,6.86-4.79,13.51-10.28,20.64-14.79-6.92-12.1-12.46-25.46-19.82-37.55-10.08-16.53-22.2-33.67-29.32-51.59l-2.08-5.7c-2.26,4-10.85,6.92-15,9.14-5.43,2.92-10.1,4.26-15.79,6.11a144.84,144.84,0,0,0-15.94,6.45c-4.85,2.23-11.33,3-15.75,6,3.11,6,7.05,11.72,10.57,17.52,9.73,16,19.09,32.45,28.87,48.58a97.6,97.6,0,0,0,14.62,18.36c4.6,4.67,8.15,10.26,13.15,14.47,3.13-1.08,6.38-4.35,9.3-6.25"/><path class="cls-1" d="M394.18,936.12c-3.35-7.7-9.28-15.35-13.75-22.73l-11.65-19.16c-5-8.3-10.62-17-17.12-27.68l-48.77,30.5c13.22,21.79,24.52,49.91,39.59,70.56C351.35,963,360.34,958.24,369,953c8.07-4.91,19-9.7,25.19-16.85"/><path class="cls-1" d="M415.46,1060.07c5.25-3.22,11.19-5.51,16.54-8.72,7.78-4.65,15.52-8.92,23.68-12.82-6.24-5.57-10.33-16.26-14.73-23.44-11.73-19.23-21.56-40.39-34.37-58.75l-52.13,30.94c4.77,7.19,7.4,15.82,11.89,23.2,6.19,10.14,12.08,20.37,18,30.67,3.89,6.74,7.86,13.62,12.15,20.11,1.4,2.12,4.34,8,7.59,7.28,1.32-.29,1.85-3,2.94-3.78,2.31-1.67,5.85-3.09,8.43-4.69"/><path class="cls-1" d="M505.65,1117.92c-11.21-18.47-24.63-37.5-36.54-55.45L416.63,1093c8.4,11.27,15.43,24.33,22.68,36.37,5.41,9,11.52,17.45,16.91,26.4,2.54,4.21,4.34,10.51,9.75,9.3,3.18-.72,7.74-4.38,10.93-5.74,6-2.58,12.05-4.86,18.23-7,8.27-2.89,16.5-7.48,24.42-11.28-3.68-8-9.33-15.6-13.9-23.15"/><path class="cls-1" d="M550.71,1261.74c11.09-6.8,23.72-13,22.55-27.77-.53-6.65-5.51-13.9-8.75-19.58-9-15.81-18.08-32-26.06-48.32L481.05,1192c6.61,10.73,13.85,21.57,20.54,32.6,6.2,10.2,12.94,20.11,19.17,30.33,4.32,7.1,5.78,11.93,10.63,18.61,6.05-4,13.16-8,19.32-11.76"/><path class="cls-1" d="M1742.18,410c-12.65,19.5-25.59,32.79-40.82,42.62,1.63-25.66-12.8-59.72-17.31-69.6,29.35-7.36,56.39-5.88,71.06-1.12a119,119,0,0,1-12.93,28.1M1636.5,471.05c-23,2.35-43.33-6.42-55.17-13.09,11.17-17.14,37.63-47,46.91-51.38,3.61-1.67,7.38-3,11.15-4.36.4,19.53,4.34,54.17,14.17,66.82-5.61.76-11.27,1.41-17.06,2m143.44-115-3.27-1.25A139.87,139.87,0,0,0,1722.3,344c-19.89,0-41.12,3.93-63.07,11.66-6,2.08-10.68,5.31-14.5,7.91a40.2,40.2,0,0,1-6.3,3.84c-3.24,1.42-6.59,2.62-10,3.82-4.71,1.7-9.43,3.43-14,5.52-19.23,8.83-65.87,62.17-70.2,83.92a16.41,16.41,0,0,0,5.77,16c1.38,1.13,34.63,27.63,78.65,27.63a107.87,107.87,0,0,0,11.13-.56c22.79-2.35,46.35-4.78,70.23-17.8,23.22-12.7,42.16-31.13,59.62-58,11.56-17.75,17.46-37.11,21.31-52a16.44,16.44,0,0,0-11.09-19.81"/><path class="cls-1" d="M482.36,538.18c-22.31,6.53-40.79,8.17-58.75,5.69,18-18.39,29.25-53.63,32.27-64.05,27.05,13.55,46.59,32.31,54.61,45.49a119.42,119.42,0,0,1-28.13,12.87M362.42,515.55c-18.93-13.18-28.67-33.12-33.29-45.89,19.64-5.72,59.14-11.07,69.07-8.37,3.82,1.09,7.55,2.54,11.29,4-12.43,15.07-32,43.9-32.83,59.9-4.74-3.09-9.46-6.28-14.24-9.61m183.72,6.37-1.66-3.08a139.85,139.85,0,0,0-34.17-43.65c-15.07-13-33.73-23.83-55.41-32.29-5.88-2.3-11.56-2.94-16.15-3.46a40.77,40.77,0,0,1-7.29-1.19c-3.37-1.05-6.7-2.32-10-3.6-4.68-1.78-9.38-3.54-14.18-4.92-20.34-5.84-90.48,4.18-107.95,17.84a16.4,16.4,0,0,0-6,15.88c.31,1.75,8.22,43.52,41.6,72.23a108.36,108.36,0,0,0,8.8,6.84c18.81,13.07,38.25,26.6,64.85,32.3,25.88,5.51,52.26,3.89,83.05-5.12,20.34-5.92,37.44-16.74,50.07-25.53a16.42,16.42,0,0,0,4.5-22.25"/><path class="cls-1" d="M1076.17,931.77c4.85-19.73,20.84-37.06,35-52.34,4.11-4.46,8.32-8.77,12.47-13,11.88-12.18,24.18-24.76,34.58-40.53,11.35-17.25,16.51-36.23,21-53,3.24-11.91,6.28-23.13,11-32.32A23.84,23.84,0,0,0,1180,708.13a24.39,24.39,0,0,0-32.63,10.53c-7.18,13.83-11,28.15-14.78,42-3.94,14.53-7.67,28.24-14.71,38.92-7.86,11.91-18,22.33-28.78,33.35-4.46,4.59-9,9.21-13.4,14-17.23,18.66-38.66,41.86-46.46,73.76l-2.32,10.22c-3.59,16.73-4.48,19.65-14.08,24.13a24.25,24.25,0,0,0-11.87,32.09,26.05,26.05,0,0,0,1.86,3.28,24.15,24.15,0,0,0,30.24,8.27c31.87-15,37-38.84,41.14-58Z"/><path class="cls-1" d="M1570.16,79.36l-18.61,5.17c-43.58,12.68-86.91,11.31-132.81,9.93l-20.92-.62c-13.39-.32-24.84,10-24.81,23.46a24.15,24.15,0,0,0,23.68,24.58l20.59.6c24,.75,48.39,1.49,73.23.14-28.94,11.77-57.1,24.62-82.81,39.65a23.87,23.87,0,0,0-8.53,32.9,24.39,24.39,0,0,0,33.22,8.49c73.43-42.87,168.8-73.64,255.15-82.31A24.13,24.13,0,0,0,1709.27,119a24.84,24.84,0,0,0-.08-4,24.22,24.22,0,0,0-26.62-21.48c-5,.48-10.2,1.76-15.27,2.38,5.84-3.07,11.73-6.13,16.61-9.72a23.84,23.84,0,0,0,5-33.59A24.41,24.41,0,0,0,1655,47.55c-18.62,13.69-56.9,24.16-84.85,31.81"/><path class="cls-1" d="M1799.48,157.76c5.51-19.56.15-42.51-4.6-62.77-1.38-5.91-2.92-11.74-4.43-17.5-4.32-16.45-8.81-33.46-10.08-52.31-1.36-20.61,3.51-39.66,7.86-56.5,3.06-12,5.94-23.21,6.34-33.55A23.86,23.86,0,0,1,1819.51-88a24.4,24.4,0,0,1,23.19,25.27c-.58,15.56-4.28,29.93-7.88,43.85-3.74,14.57-7.26,28.35-6.41,41.1,1,14.24,4.69,28.33,8.59,43.22,1.62,6.18,3.26,12.43,4.75,18.78,5.78,24.73,13,55.48,4,87.08l-3,10c-5.13,16.32-5.79,19.3.35,27.94a24.27,24.27,0,0,1-5.51,33.77,24.59,24.59,0,0,1-3.23,1.93,24.14,24.14,0,0,1-30.39-7.72c-20.35-28.72-13-52.05-7.17-70.76Z"/><path class="cls-1" d="M744.92,1168.45l-2.47-19.16c-5.27-45.08-23.39-84.46-42.52-126.2l-8.71-19c-5.51-12.21-.49-26.76,12-32A24.17,24.17,0,0,1,735,984.32l8.56,18.74c10,21.79,20.2,44,28.62,67.4-.42-31.24.46-62.18,4.31-91.71a23.88,23.88,0,0,1,27-20.66,24.39,24.39,0,0,1,20.74,27.31c-10.93,84.31-2.17,184.15,23.44,267.06a24.14,24.14,0,0,1-12.17,28.73,25.5,25.5,0,0,1-3.67,1.46,24.22,24.22,0,0,1-30.14-16.16c-1.52-4.83-2.35-10.08-3.75-15-.55,6.58-1.08,13.2-2.49,19.09a23.85,23.85,0,0,1-29,17.71,24.41,24.41,0,0,1-17.86-29.3c5.37-22.48.12-61.82-3.71-90.54"/><path class="cls-1" d="M671.58,812s121-29.45,183.4-35.92c-46.45-189-237.57-145.6-183.4,35.92"/></svg>