<svg id="Layer_1" data-name="Layer 1" xmlns="http://www.w3.org/2000/svg" viewBox="0 0 1900 1200"><defs><style>.cls-1{fill:#e2f2ee;}</style></defs><title>collections</title><path class="cls-1" d="M971.9,75.63s24.25,20.52,29.45,22.28c0,0,29.51-8.09,34.06-9.75-6.73-5.59-11.11-9.87-17.81-15-4.12-3.14-9.79-7-9.79-7S981.94,71,971.9,75.63"/><path class="cls-1" d="M1047.83,94.9S1067.28,120,1072,122.81c0,0,30.55-1.77,35.35-2.45-5.42-6.87-8.82-12-14.31-18.36-3.37-3.93-8.12-8.87-8.12-8.87s-26.29-.72-37.09,1.77"/><path class="cls-1" d="M897.24,92.2s30.5,8.88,36,8.37c0,0,23.67-19.39,27.16-22.76-8.43-2.37-14.17-4.49-22.37-6.44-5-1.2-11.79-2.4-11.79-2.4s-21.69,14.87-29,23.23"/><path class="cls-1" d="M838,137.79s31.39-4.84,36.13-7.61c0,0,13.26-27.58,15-32.11-8.64,1.42-14.74,1.92-23,3.62-5.07,1-11.69,2.8-11.69,2.8S841,127.14,838,137.79"/><path class="cls-1" d="M799.33,200.64s27.29-16.25,30.65-20.59c0,0,2-30.54,1.87-35.39-7.48,4.55-13,7.3-20,12-4.31,2.87-9.79,7-9.79,7s-3.92,26-2.76,37"/><path class="cls-1" d="M1817.64,686.6s7.31,30.91,10.44,35.42c0,0,28.55,11,33.2,12.4-2.09-8.5-3.08-14.54-5.43-22.64-1.44-5-3.72-11.44-3.72-11.44s-23.63-11.53-34.49-13.74"/><path class="cls-1" d="M1867.25,747.22S1868,779,1870.11,784c0,0,25.62,16.73,29.89,19-.28-8.75,0-14.86-.6-23.28-.37-5.16-1.26-11.95-1.26-11.95s-20.72-16.2-30.89-20.62"/><path class="cls-1" d="M1747.74,655.56s19.25,25.27,24,28.11c0,0,30.56-1.53,35.37-2.17-5.37-6.92-8.72-12-14.16-18.48-3.34-4-8.06-8.93-8.06-8.93s-26.28-.93-37.1,1.47"/><path class="cls-1" d="M1673,657s28.13,14.76,33.58,15.35c0,0,27.06-14.31,31.14-16.92-7.78-4-13-7.22-20.65-10.76C1712.34,642.5,1706,640,1706,640s-24.22,10.26-33,17"/><path class="cls-1" d="M1604.55,684.59s31.61,3.15,36.89,1.65c0,0,19.73-23.39,22.54-27.34-8.72-.79-14.75-1.83-23.18-2.25-5.17-.25-12-.2-12-.2s-18.6,18.59-24.23,28.14"/><path class="cls-1" d="M185.1,638.81s-8.68,30.55-8.13,36c0,0,19.55,23.55,22.94,27,2.32-8.44,4.4-14.2,6.3-22.42,1.16-5,2.32-11.79,2.32-11.79s-15-21.6-23.43-28.81"/><path class="cls-1" d="M198.9,715.92S184.05,744,183.45,749.46c0,0,14.23,27.09,16.83,31.19,4-7.78,7.26-13,10.82-20.62,2.18-4.69,4.72-11.06,4.72-11.06s-10.2-24.24-16.92-33.05"/><path class="cls-1" d="M139.19,577.65s4.5,31.44,7.22,36.21c0,0,27.43,13.55,31.94,15.34-1.32-8.66-1.75-14.76-3.36-23-1-5.08-2.68-11.73-2.68-11.73s-22.5-13.61-33.12-16.78"/><path class="cls-1" d="M73.19,542.47S90.55,569.06,95,572.23c0,0,30.6.69,35.44.4-4.86-7.28-7.83-12.63-12.79-19.46-3-4.18-7.38-9.49-7.38-9.49s-26.15-2.83-37.11-1.21"/><path class="cls-1" d="M0,533.23s26.07,18.16,31.41,19.42c0,0,28.62-10.82,33-12.9-7.23-4.94-12-8.79-19.14-13.25-4.39-2.74-10.4-6-10.4-6S9.56,527.63,0,533.23"/><path class="cls-1" d="M215.72,332.19C156.86,332.19,86.36,308.28,74,303l-3.82-1.6c-14-5.88-29.53-12.44-40.26-25.6-16.82,9.67-40.16,10.58-50.32,10.44a475.46,475.46,0,0,1-54.44-3.53c-18.87-2.3-49.5-12.75-65.54-22.36-14.39-8.65-48.46-33.88-57.84-40.87-9.78.94-40.87,3.84-54.33,4.12-30.61.65-67.78-4.44-99.46-13.6-12.15-3.51-35.23-14.49-49-21.05-4.35-2.07-7.64-3.65-9.12-4.26a27.32,27.32,0,0,0-5.55-1.52c-3.76-.74-8.46-1.67-13.54-5.91a7.63,7.63,0,0,1-1-10.74,7.61,7.61,0,0,1,10.73-1c2.1,1.74,3.74,2.07,6.74,2.66a41.34,41.34,0,0,1,8.51,2.42c1.58.67,5.1,2.34,9.74,4.54,12.5,6,35.75,17,46.7,20.18,30.28,8.75,65.79,13.62,94.91,13,15.16-.32,55.69-4.3,56.1-4.35a7.66,7.66,0,0,1,5.32,1.49c.43.32,43.16,32.31,58.91,41.76,14,8.42,43,18.29,59.55,20.31A462.23,462.23,0,0,0-20.24,271c7.73.1,34-.45,47.09-11.58a7.62,7.62,0,0,1,11.5,1.93c7.91,13.45,22.39,19.54,37.72,26L79.94,289c19.42,8.28,105.2,34.83,159.63,26.29,15.59-2.45,41.67-6.54,44.95-11.17a7.33,7.33,0,0,1,8.63-6,7.86,7.86,0,0,1,6.21,9c-2.35,14.56-25.45,18.18-57.42,23.2a171.42,171.42,0,0,1-26.22,1.87"/><path class="cls-1" d="M1304.72,557.42c-58.86,0-129.36-23.91-141.75-29.2l-3.82-1.61c-14-5.88-29.53-12.44-40.26-25.59-16.82,9.66-40.16,10.57-50.32,10.44a477.74,477.74,0,0,1-54.44-3.53c-18.87-2.31-49.5-12.76-65.54-22.37-14.39-8.65-48.46-33.87-57.84-40.86-9.78.93-40.87,3.84-54.33,4.12-30.61.65-67.78-4.44-99.46-13.61-12.15-3.51-35.23-14.48-49-21-4.35-2.07-7.64-3.65-9.12-4.26a26.08,26.08,0,0,0-5.55-1.52c-3.76-.75-8.46-1.67-13.54-5.92a7.62,7.62,0,1,1,9.76-11.7c2.1,1.75,3.74,2.08,6.74,2.66a40.82,40.82,0,0,1,8.51,2.43c1.58.66,5.1,2.33,9.74,4.54,12.5,5.94,35.75,17,46.7,20.17,30.28,8.76,65.79,13.63,94.91,13,15.16-.31,55.69-4.29,56.1-4.34a7.66,7.66,0,0,1,5.32,1.49c.43.32,43.16,32.3,58.91,41.75,14.05,8.43,43,18.3,59.55,20.32a462.28,462.28,0,0,0,52.78,3.41c7.73.1,34-.45,47.09-11.57a7.6,7.6,0,0,1,11.5,1.93c7.91,13.44,22.39,19.53,37.72,26l3.87,1.64c19.42,8.28,105.2,34.82,159.63,26.29,15.59-2.45,41.67-6.55,45-11.17a7.34,7.34,0,0,1,8.63-6,7.87,7.87,0,0,1,6.21,9c-2.35,14.56-25.45,18.18-57.42,23.2a171.39,171.39,0,0,1-26.22,1.88"/><path class="cls-1" d="M708.27,1241.42c-58.87,0-129.37-23.91-141.76-29.2l-3.82-1.61c-14-5.88-29.53-12.44-40.26-25.59-16.82,9.66-40.15,10.57-50.32,10.44a477.74,477.74,0,0,1-54.44-3.53c-18.87-2.31-49.5-12.76-65.54-22.37-14.39-8.65-48.45-33.87-57.84-40.86-9.78.93-40.87,3.84-54.33,4.12-30.61.65-67.78-4.44-99.46-13.61-12.15-3.51-35.23-14.48-49-21-4.35-2.07-7.64-3.65-9.12-4.26a25.92,25.92,0,0,0-5.55-1.52c-3.76-.75-8.45-1.67-13.54-5.92a7.62,7.62,0,0,1,9.76-11.7c2.1,1.75,3.75,2.08,6.74,2.66a40.82,40.82,0,0,1,8.51,2.43c1.58.66,5.1,2.33,9.74,4.54,12.5,5.94,35.75,17,46.71,20.17,30.27,8.76,65.78,13.63,94.9,13,15.16-.31,55.7-4.29,56.1-4.34a7.66,7.66,0,0,1,5.32,1.49c.43.32,43.16,32.3,58.91,41.75,14,8.43,43,18.3,59.55,20.32a462.43,462.43,0,0,0,52.78,3.41c7.73.1,34-.45,47.09-11.57a7.6,7.6,0,0,1,11.5,1.93c7.91,13.44,22.39,19.53,37.72,26l3.87,1.64c19.42,8.28,105.2,34.82,159.64,26.29,15.58-2.45,41.66-6.55,44.94-11.17a7.34,7.34,0,0,1,8.63-6,7.87,7.87,0,0,1,6.21,9c-2.35,14.56-25.45,18.18-57.42,23.2a171.35,171.35,0,0,1-26.21,1.88"/><path class="cls-1" d="M2157.27,1200c-58.87,0-129.37-23.91-141.76-29.2l-3.82-1.6c-14-5.89-29.53-12.45-40.26-25.6-16.82,9.66-40.15,10.57-50.32,10.44a477.74,477.74,0,0,1-54.44-3.53c-18.87-2.3-49.5-12.76-65.54-22.37-14.39-8.64-48.45-33.87-57.84-40.86-9.78.93-40.87,3.84-54.33,4.12-30.61.65-67.78-4.44-99.46-13.6-12.15-3.52-35.22-14.49-49-21-4.35-2.07-7.64-3.65-9.12-4.26a25.92,25.92,0,0,0-5.55-1.52c-3.76-.74-8.45-1.67-13.54-5.92a7.62,7.62,0,0,1,9.76-11.7c2.1,1.75,3.75,2.08,6.74,2.66a41.45,41.45,0,0,1,8.51,2.43c1.58.66,5.1,2.33,9.74,4.54,12.5,6,35.75,17,46.71,20.18,30.27,8.75,65.78,13.62,94.9,13,15.16-.32,55.7-4.3,56.1-4.35a7.66,7.66,0,0,1,5.32,1.49c.43.32,43.16,32.3,58.91,41.76,14,8.42,43,18.29,59.55,20.31a464.67,464.67,0,0,0,52.78,3.42c7.73.09,34-.46,47.09-11.58a7.62,7.62,0,0,1,11.5,1.93c7.91,13.44,22.39,19.54,37.72,26l3.87,1.64c19.42,8.28,105.2,34.82,159.64,26.29,15.58-2.45,41.66-6.54,44.94-11.17a7.33,7.33,0,0,1,8.63-6,7.85,7.85,0,0,1,6.21,9c-2.35,14.55-25.45,18.17-57.42,23.19a171.35,171.35,0,0,1-26.21,1.88"/><path class="cls-1" d="M493.34,781.27l-49.8-37.75a4.33,4.33,0,0,0-5.67.38,4.08,4.08,0,0,0-.76,1.65,10.45,10.45,0,0,1-2-2.46l-14.27,7.69c.23.42.5.71.73,1.09-.2.09-.42,0-.61.13a4,4,0,0,0-1.09,5.61c2.22,3.33-4,2.94-4,2.94a4,4,0,0,0-5.78,5.66c3.07,3.45,2.36,5.93,2.36,5.93a4.06,4.06,0,0,0-5.47.1,3.93,3.93,0,0,0-1.18,2.89l-3.07-2.7a4.06,4.06,0,0,0-6.41,4.62c.49,1.17,1.31,2.33,1.94,3.5a45.34,45.34,0,0,0-5.5-3.16,4.05,4.05,0,0,0-4.17,6.9l2.81,2.14s0,0-.05,0a4.05,4.05,0,0,0-.44,5.5c1.35,1.71,2.79,3.33,4.19,5-.37-.24-.85-.44-1.2-.7a4.05,4.05,0,0,0-4.83,6.51l29.23,22a4,4,0,0,0,3,.78,4,4,0,0,0,2.06-.9,4,4,0,0,0,1-4.92c-.11-.21-.26-.35-.37-.55a23.57,23.57,0,0,0,4.39,4c2.87,1.83,6.29,2.51,9.3,3.12,1.14.23,2.26.45,3.28.73a38.22,38.22,0,0,1,3.77,1.35c1.39.55,2.77,1.1,4.23,1.52a3.91,3.91,0,0,0,1.66.12,4,4,0,0,0,3.08-2.19c.11-.2,0-.41.08-.62a4.18,4.18,0,0,0,1.38.27,4,4,0,0,0,2.76-1.67,3.77,3.77,0,0,0,.21-3.81c.24,0,.48.15.71.12a4.08,4.08,0,0,0,2.83-1.75,4,4,0,0,0,.6-2.51,90.11,90.11,0,0,0,9.61,5.76,4.08,4.08,0,0,0,5.14-1.33,4.09,4.09,0,0,0-.58-5.28l5.14-.18a4,4,0,0,0,3.58,1.34,4.14,4.14,0,0,0,2-.86,4.06,4.06,0,0,0,.73-5.56,64.42,64.42,0,0,0-5.8-6.61s0,0,0,0l-1.16-1.32,9.44-.44a26,26,0,0,0-5.28-14.08,35,35,0,0,0,5.63-.13l.61-.08a4.34,4.34,0,0,0,2-7.74"/><path class="cls-1" d="M1363.42,385.91c-1.73-4.27-1.53-7.23-1.07-11.74,2.79-27.71-31.5-34.46-51.46-45-14.21-7.51-26-5.91-39.22,1.1C1260.94,336,1256.8,334,1246,330c1.39,3.58,4.9,5.95,6.74,9.26,2.12,3.8,2.7,8,3,12.34-11.84.17-15.73-10.56-25.25-15.2-7.24-3.54-21.37-6.32-29.18-5.33-.52,6.07,12.51,24.45,8.92,27.4l10,11.09c5.85,8.21,13.49,14.26,19.8,22.09,7,8.63,12.29,15.12,21.66,21.27,7.8,5.12,15.56,10.57,23.55,15.37,7.1,4.25,12.91,3.84,21,2.83,5.87-.73,6.31-1.12,9.39,3.18,2.78,3.86,4.29,10.8,10.82,8-2.67-10.37-13.92-16.63.81-19.66,16.91-3.5-7-10.48,1.09-17.93,5.32-4.9,15,9.76,20.17,4.29,4.42-4.63-7.61-15.73.13-17.74,5.12-1.33,16.2,14,19.17,5.06,1.08-3.25-3.29-7.77-4.41-10.47"/><path class="cls-1" d="M186.12,137.09c-1.09-2.68-1-4.54-.67-7.38,1.75-17.42-19.81-21.67-32.37-28.3-8.93-4.73-16.35-3.72-24.66.69-6.75,3.59-9.35,2.33-16.14-.14.87,2.25,3.08,3.74,4.24,5.83a18.46,18.46,0,0,1,1.9,7.76c-7.45.1-9.9-6.65-15.88-9.56-4.56-2.23-13.44-4-18.36-3.36-.32,3.82,7.87,15.38,5.62,17.24l6.28,7c3.68,5.16,8.48,9,12.45,13.89,4.39,5.43,7.72,9.51,13.62,13.38,4.9,3.22,9.78,6.65,14.81,9.66,4.46,2.68,8.12,2.41,13.2,1.79,3.7-.47,4-.71,5.91,2,1.75,2.43,2.7,6.79,6.8,5-1.67-6.53-8.75-10.46.51-12.37,10.64-2.2-4.38-6.59.69-11.27,3.35-3.09,9.4,6.14,12.69,2.7,2.77-2.92-4.79-9.9.08-11.16,3.21-.84,10.18,8.81,12,3.18.68-2-2.07-4.88-2.77-6.59"/><path class="cls-1" d="M1663.12,31.49,1608.82.57a4.33,4.33,0,0,0-5.57,1.11,4.12,4.12,0,0,0-.54,1.75,10.71,10.71,0,0,1-2.28-2.19l-13.14,9.49c.28.38.58.63.87,1-.19.11-.42,0-.59.2a4.06,4.06,0,0,0-.35,5.71c2.64,3-3.6,3.44-3.6,3.44a4,4,0,0,0-5,6.36c3.5,3,3.12,5.57,3.12,5.57a4.05,4.05,0,0,0-5.41.82,3.9,3.9,0,0,0-.79,3l-3.4-2.27a4.06,4.06,0,0,0-5.75,5.42c.64,1.09,1.61,2.13,2.38,3.21a45.13,45.13,0,0,0-5.87-2.41,4,4,0,0,0-3.23,7.38l3.07,1.75s0,0,0,0a4,4,0,0,0,.28,5.51c1.56,1.52,3.2,2.94,4.8,4.42-.39-.2-.89-.34-1.27-.55a4.06,4.06,0,0,0-3.94,7.09l31.85,18a4,4,0,0,0,5-.78,4,4,0,0,0,.39-5c-.14-.2-.31-.32-.44-.5a23.89,23.89,0,0,0,4.87,3.35c3.08,1.43,6.56,1.66,9.63,1.87,1.15.09,2.29.16,3.35.3a38,38,0,0,1,3.9.85c1.45.36,2.9.72,4.4,1a4,4,0,0,0,4.43-2.67c.08-.21,0-.41,0-.62a4.16,4.16,0,0,0,1.4.08,4,4,0,0,0,2.52-2,3.8,3.8,0,0,0-.29-3.81c.24,0,.49.09.72,0a4.11,4.11,0,0,0,2.58-2.1,4,4,0,0,0,.26-2.57,90.89,90.89,0,0,0,10.28,4.45,4,4,0,0,0,2.36.07,4,4,0,0,0,1.3-7.21l5.07-.86a4.05,4.05,0,0,0,5.59-5.86,64.29,64.29,0,0,0-6.6-5.79l0,0-1.32-1.16,9.3-1.67A26.06,26.06,0,0,0,1656,40.46a35.6,35.6,0,0,0,5.56-.87l.59-.16a4.34,4.34,0,0,0,1-7.94"/><path class="cls-1" d="M977.79,915.72c9.9.18,19.59,12.19,29.64,8.66-2.54-11.17-5.64-19.23-15.8-24.75-10.41-5.69-5.92-15.65-13.17-22.13-4.71-4.22-19.25-2.82-25-1.14-3.94,1.14-5.69,3.12-9.69,4-4.29,1-6.84-.49-10.45-1.15-5-.9-8.32.72-13.32-.72A19.79,19.79,0,0,1,909.47,871c-2.79,14.07-17.23.51-23.7,4.64-8.3,5.31,12.11,15.33,14.16,19.58-6-6-18.85-8.09-26.45-11.67-9.9-4.69-13.43,2-10.25,11.37-13.48,2.06-9.47,10.44-2,17.48,3.67,3.45,8.65,6.34,11.24,10.6,1.67,2.73,1.49,7.19,4.88,7.9a16.78,16.78,0,0,0-6.75,2.68c.33,5.83,9.52,11.14,14.41,13,6.79,2.62,12.64,1.53,19,6,7.86,5.48,16.16,11.32,24.4,16.89,5.32,3.61,11.74,9.43,18.62,7.64-.71-3.75-3.16-8,.41-10.82,5.69,5.23,12.85,3.06,19.31,4,4.66.71,10.28,6,15.13,3.78-.65-6.88-7.19-10.49,1.7-13.37,7.83-2.56,14.61-.95,18.07-10.06,3.19-8.4-5.74-8.37-10.45-14.84-4.57-6.27-9.35-13.45-13.43-20"/><path class="cls-1" d="M1299.38,763.47c-9.05,16.51,2,32.21,10.59,43.87,4.73,6.42,13.17,8.75,16.79,6.34,9.35-6.25,1-12.93-1.13-15.24-10.25-11.43-5.28-26.09,9.14-27.46,12.4-1.18,39.36,12.33,52.63,20.88A164.91,164.91,0,0,1,1414,813c3.13,3.09,6.62,6.84,6.62,6.84s13,1.77,17.65,1.37c20.09-1.75,40.69,6,53.46,7.78,2.85.4,8.78-.14,12.1,1-2.17-1.41-6-4.82-8.12-6.28-13.78-9.4-22-18.65-35.39-28.43-8.32-6-17.15-11.92-26-17.57-11.1-7.05-21.3-11.67-32.77-16.58-18.92-8.09-39.43-15.36-60.15-15.87-18.33-.45-36.05,7.33-42,18.2"/><path class="cls-1" d="M637.23,235.24c-7.2-17.39-26.37-18.6-40.84-19.21-8-.34-15.07,4.79-15.45,9.12-1,11.2,9.48,8.84,12.59,8.66,15.33-.84,23.64,12.22,15.68,24.32-6.84,10.41-34.26,23-49.23,28a164.61,164.61,0,0,1-33.15,7.52c-4.37.51-9.48.88-9.48.88s-9.53,9-12.12,12.91c-11.21,16.75-30.15,28-39.54,36.8-2.1,2-5.39,6.93-8.37,8.8,2.46-.81,7.51-1.65,10-2.4,15.95-4.86,28.29-5.44,44.33-9.79,9.92-2.69,20-5.9,30-9.3,12.45-4.23,22.44-9.29,33.45-15.16,18.16-9.68,36.67-21.12,50-37,11.84-14,16.86-32.71,12.12-44.16"/><path class="cls-1" d="M1022.18,1159.63l-22.51,35.68c2.22,1.64,5.05,2.13,7.11,4a22.88,22.88,0,0,1,2.77,3.48c1.77,2.33,3.94,4.34,5.61,6.73a21.38,21.38,0,0,0,3.55,4.26c1.32-1.21,2.25-3.23,3.14-4.8s1.7-2.77,2.52-4.17c1.88-3.21,3.39-6.64,5.26-9.86,3-5.24,7-9.76,10-15,.66-1.15,1.41-2.29,2-3.49-3.57,0-7.79-3.15-9.83-6-1.51-2.1-3-4.22-4.36-6.44a10.66,10.66,0,0,0-3.4-3.57c-.45-.32-1.41-1.08-1.79-.78"/><path class="cls-1" d="M1045.28,1121.33s-2.4,3.84-3.53,5.56c-1.39,2.14-2.64,4.44-3.91,6.65-3.53,6.14-7.58,12.39-10.95,18.28l1.73,1.74c1.1,1.09,2.92,3.18,3.85,4.31s3,4.83,4,6.16c2.24,3,5.71,3.82,9.38,4.94,3-4.21,6-6.47,8.53-11,2.37-4.18,4.61-8.39,7.13-12.47,1.44-2.32,4.53-7.69,4.53-7.69s-1.57-.79-2.64-1.39c-1.83-1-3.67-1.49-5-3.2-1.78-2.35-2.76-4.91-5-6.9a25.55,25.55,0,0,0-4.35-2.94c-1.14-.65-3.72-2-3.72-2"/><path class="cls-1" d="M1066.92,1087.27c-2.56,3.5-5,8.52-8.67,13.93-1.59,2.31-3.17,4.61-4.78,6.9a37.26,37.26,0,0,0-3.7,5,42.13,42.13,0,0,1,4.09,2.59,28.45,28.45,0,0,1,7.45,8.14,11.39,11.39,0,0,0,3.51,3.84c.73.5,4.46,2,4.5,2.56l18.14-28.89c-.83-1.06-2.55-1-3.43-2a62.57,62.57,0,0,0-5.68-5.72,29.57,29.57,0,0,0-11.43-6.39"/><path class="cls-1" d="M1108.35,1052.05c-2.08-1.11-4.17-2.31-6.29-3.36-2.71-1.33-5.61-2.48-8.28-3.94-2.62,4.3-5.88,8.38-8.42,12.82-3.47,6.08-6.77,12.9-11.19,18.29l-1.45,1.65c1.67,0,4.09,2.22,5.51,3.14a30.81,30.81,0,0,1,4.69,3.93,52.6,52.6,0,0,0,4.83,3.92c1.55,1.14,2.93,3,4.64,3.93,1.36-2,2.48-4.27,3.7-6.4,3.37-5.88,6.93-11.71,10.32-17.62a35,35,0,0,0,3.25-7.83c.68-2.27,1.83-4.37,2.28-6.68-.88-.8-2.48-1.26-3.59-1.85"/><path class="cls-1" d="M1113.68,1009.84c-1.85,2.41-3.24,5.62-4.79,8.32-1.35,2.35-2.68,4.69-4,7-1.74,3-3.52,6.33-5.76,10.25l18.16,10.1c4.58-8,11.51-16.47,15.41-24.84-3-2-6.09-4-9.26-5.83-3-1.7-6.4-4.33-9.73-5"/><path class="cls-1" d="M1149.17,981.47c-1.94-1.1-3.7-2.58-5.65-3.71-2.83-1.65-5.53-3.35-8.19-5.25-.68,2.94-3.34,6.11-4.85,8.75-4,7.07-9,13.87-12.57,21.13l18.89,11.08c1.44-2.76,3.71-5.1,5.26-7.81,2.12-3.72,4.33-7.37,6.55-11,1.46-2.41,2.94-4.86,4.24-7.35.43-.82,1.77-2.78,1-3.68-.32-.36-1.27-.06-1.71-.26-.93-.44-2-1.31-2.95-1.85"/><path class="cls-1" d="M1151.71,942.84c-3.88,6.77-7.56,14.34-11.16,21.24l18.83,11.26c2.1-4.62,5-9.13,7.55-13.52,1.89-3.28,3.51-6.69,5.39-10,.89-1.54,2.57-3.21,1.24-4.71-.78-.88-2.74-1.68-3.72-2.45-1.87-1.46-3.64-3-5.4-4.55a90.5,90.5,0,0,0-7.83-5.75c-1.91,2.57-3.31,5.68-4.9,8.44"/><path class="cls-1" d="M1189.33,903.47c-4.09-2.32-8.26-5.23-12.72-2.28-2,1.33-3.43,4.17-4.66,6.18-3.43,5.62-7,11.31-10.74,16.68l18.22,13.64c2.23-4,4.4-8.15,6.72-12.19,2.14-3.74,4.1-7.6,6.25-11.36,1.48-2.6,2.76-3.91,4-6.61-2.31-1.22-4.81-2.77-7.09-4.06"/><path class="cls-1" d="M1214.87,860.57c-4.34-.52-11.1-3.57-11.1-3.57s-2.77,5.26-3.6,6.73c-1.2,2.1-2.39,4.22-3.7,6.23-2,3.15-4.07,6.34-6,9.51-2.38,3.81-4.28,8-7.6,11.13l18.85,7.31c2.75-4.85,6.35-9.2,9.39-13.91,2.69-4.17,5.65-8.11,8.34-12.29a78.58,78.58,0,0,0,6.18-10.41c-1.32-.09-2.34.92-3.7.85-2.21-.11-4.79-1.31-7-1.58"/><path class="cls-1" d="M551,542c-6.16,3.73-15.22,7.26-20,12.76,2.33,5.77,11.93,18.83,11.93,18.83,7.24-.72,16.71-3.39,23.92-4.56Z"/><path class="cls-1" d="M590.31,610.45c-2.78-5.32-5.71-10.63-8.49-15.9a206.79,206.79,0,0,0-11.5-19.26L546.24,581c3.36,6.84,6.76,13.73,9.81,18.69,3.28,5.36,9,18,9,18a69.83,69.83,0,0,1,12-1.67c4.87-.06,9.17-2.81,13.18-5.63"/><path class="cls-1" d="M615.53,655.53l-20.36-36.95c-2.51,1.15-4.31,3.39-6.91,4.32a22.78,22.78,0,0,1-4.38.74c-2.9.42-5.7,1.35-8.61,1.66a21.82,21.82,0,0,0-5.44,1c.42,1.74,1.74,3.54,2.69,5.07s1.6,2.83,2.42,4.22c1.91,3.2,4.18,6.19,6.1,9.38,3.11,5.19,5.17,10.81,8.33,16,.69,1.13,1.32,2.34,2.09,3.41,1.76-3.1,6.52-5.3,10-5.71,2.57-.31,5.15-.6,7.74-.7a10.68,10.68,0,0,0,4.77-1.25c.5-.25,1.63-.72,1.56-1.2"/><path class="cls-1" d="M637.89,694.27s-2.21-3.95-3.17-5.77c-1.19-2.26-2.61-4.47-3.93-6.64-3.66-6.07-7.18-12.63-10.71-18.43l-2.35.68c-1.5.43-4.2,1-5.64,1.29-1.61.3-5.68.28-7.32.5-3.72.49-6.09,3.14-8.85,5.82,2.22,4.69,2.79,8.34,5.53,12.8,2.51,4.09,5.12,8.09,7.47,12.27,1.34,2.38,4.55,7.67,4.55,7.67s1.45-1,2.49-1.63c1.79-1.11,3.08-2.49,5.21-2.81,2.92-.43,5.63,0,8.47-1.08a25.88,25.88,0,0,0,4.69-2.39c1.11-.68,3.56-2.28,3.56-2.28"/><path class="cls-1" d="M657.24,729.68c-1.83-3.93-5.06-8.47-8-14.33-1.26-2.51-2.5-5-3.73-7.51a36.26,36.26,0,0,0-2.6-5.67,40.79,40.79,0,0,1-4.24,2.33,28.33,28.33,0,0,1-10.73,2.59,11.29,11.29,0,0,0-5.06,1.22c-.79.4-3.92,2.92-4.42,2.7L635,740.85c1.33-.21,2.07-1.76,3.38-2a62.65,62.65,0,0,0,7.75-2.22,29.49,29.49,0,0,0,11.12-6.91"/><path class="cls-1" d="M668.05,783c2-1.28,4-2.53,6-3.89,2.48-1.73,4.88-3.71,7.46-5.34-2.5-4.37-4.5-9.19-7.16-13.56-3.64-6-8-12.17-10.6-18.64l-.75-2.06c-.81,1.45-3.92,2.5-5.41,3.3a31.33,31.33,0,0,1-5.71,2.21,51.42,51.42,0,0,0-5.76,2.33c-1.75.8-4.09,1.09-5.69,2.16,1.13,2.17,2.55,4.23,3.82,6.33,3.52,5.79,6.9,11.73,10.43,17.55a35.36,35.36,0,0,0,5.28,6.64c1.67,1.68,2.95,3.7,4.75,5.22,1.13-.39,2.31-1.57,3.36-2.25"/><path class="cls-1" d="M702.42,808c-1.21-2.78-3.35-5.54-5-8.21l-4.21-6.92c-1.82-3-3.84-6.14-6.19-10l-17.62,11c4.78,7.87,8.86,18,14.3,25.49,3.21-1.67,6.46-3.39,9.58-5.29,2.92-1.77,6.88-3.5,9.1-6.09"/><path class="cls-1" d="M710.11,852.82c1.9-1.17,4-2,6-3.15,2.81-1.68,5.61-3.23,8.56-4.64-2.26-2-3.74-5.87-5.33-8.47-4.24-6.94-7.79-14.59-12.41-21.22l-18.84,11.18c1.72,2.6,2.68,5.71,4.3,8.38,2.23,3.66,4.36,7.36,6.5,11.08,1.41,2.44,2.84,4.92,4.39,7.27.51.76,1.57,2.89,2.75,2.63.47-.11.66-1.09,1.06-1.37.83-.6,2.11-1.12,3-1.69"/><path class="cls-1" d="M742.7,873.72c-4.05-6.68-8.9-13.55-13.2-20l-19,11c3,4.08,5.57,8.8,8.19,13.14,1.95,3.24,4.16,6.31,6.11,9.54.92,1.52,1.57,3.8,3.52,3.36,1.15-.26,2.8-1.58,3.95-2.07,2.18-.93,4.35-1.76,6.59-2.53a91.31,91.31,0,0,0,8.82-4.08c-1.33-2.91-3.37-5.64-5-8.36"/><path class="cls-1" d="M759,925.68c4-2.46,8.57-4.71,8.14-10-.19-2.4-2-5-3.16-7.07-3.26-5.71-6.53-11.54-9.41-17.46l-20.74,9.36c2.39,3.87,5,7.79,7.42,11.78,2.24,3.68,4.68,7.26,6.93,11,1.56,2.57,2.09,4.31,3.84,6.73,2.18-1.44,4.75-2.88,7-4.25"/><path class="cls-1" d="M784.19,968.77c2.55-3.54,8.49-8,8.49-8s-3.27-5-4.15-6.41c-1.26-2.06-2.54-4.12-3.67-6.24-1.77-3.31-3.58-6.63-5.4-9.9-2.18-3.92-5-7.64-6.07-12l-15.51,13c2.92,4.75,5,10,7.65,14.94,2.34,4.37,4.37,8.87,6.72,13.24a79.73,79.73,0,0,0,6.12,10.45c.72-1.12.33-2.5,1-3.66,1.17-1.88,3.46-3.55,4.77-5.37"/><path class="cls-1" d="M1564.74,517.7c2.33,6.81,3.84,16.41,8.2,22.21,6.14-1,20.94-7.63,20.94-7.63.85-7.23.26-17.06.66-24.34Z"/><path class="cls-1" d="M1640,493.86c-5.79,1.58-11.61,3.31-17.34,4.9a207.49,207.49,0,0,0-21.28,7.12l.44,24.75c7.4-1.82,14.87-3.67,20.35-5.59,5.94-2.06,19.57-5,19.57-5a70.55,70.55,0,0,1,.94-12.12c1-4.78-.78-9.56-2.68-14.09"/><path class="cls-1" d="M1689.45,478.86l-40.45,12c.59,2.7,2.39,4.93,2.74,7.66a23.6,23.6,0,0,1-.21,4.44c-.21,2.92.1,5.86-.22,8.77a21.86,21.86,0,0,0-.14,5.54c1.79,0,3.82-.94,5.53-1.55,1.53-.54,3.1-1,4.64-1.46,3.53-1.18,6.93-2.76,10.46-3.95,5.73-1.94,11.67-2.75,17.38-4.73,1.25-.43,2.57-.79,3.78-1.32-2.66-2.38-3.78-7.5-3.44-11,.25-2.58.51-5.17,1-7.72a10.67,10.67,0,0,0-.19-4.93c-.14-.53-.36-1.74-.84-1.77"/><path class="cls-1" d="M1732.07,465.29s-4.33,1.31-6.32,1.86c-2.46.68-4.92,1.6-7.33,2.42-6.7,2.29-13.87,4.32-20.29,6.53l.16,2.44c.11,1.56.1,4.32.06,5.79,0,1.63-.94,5.6-1.08,7.25-.31,3.74,1.78,6.63,3.8,9.89,5.06-1.16,8.75-.94,13.69-2.67,4.53-1.58,9-3.27,13.58-4.67,2.61-.8,8.47-2.81,8.47-2.81s-.66-1.62-1.06-2.78c-.7-2-1.78-3.54-1.64-5.69.21-2.94,1.16-5.51.76-8.51a25.71,25.71,0,0,0-1.34-5.08c-.42-1.23-1.46-4-1.46-4"/><path class="cls-1" d="M1770.79,454c-4.23.95-9.35,3.13-15.7,4.75-2.72.7-5.42,1.38-8.14,2a37.5,37.5,0,0,0-6.09,1.33,42.45,42.45,0,0,1,1.37,4.64,28.46,28.46,0,0,1,.24,11,11.3,11.3,0,0,0,.11,5.2c.22.85,2,4.46,1.69,4.89l32.69-9.77c.08-1.34-1.29-2.39-1.28-3.74a63.82,63.82,0,0,0-.51-8,29.35,29.35,0,0,0-4.38-12.34"/><path class="cls-1" d="M1825.16,454.77c-.83-2.2-1.61-4.48-2.52-6.67-1.16-2.79-2.58-5.56-3.62-8.43-4.81,1.51-10,2.44-14.78,4.1-6.62,2.28-13.6,5.24-20.47,6.37l-2.18.29c1.24,1.11,1.61,4.37,2.07,6a31.46,31.46,0,0,1,.94,6,52,52,0,0,0,1,6.13c.42,1.88.2,4.23.9,6,2.36-.64,4.68-1.58,7-2.38,6.41-2.2,12.93-4.23,19.38-6.44a35.62,35.62,0,0,0,7.61-3.74c2-1.27,4.25-2.09,6.12-3.53-.14-1.18-1-2.58-1.49-3.76"/><path class="cls-1" d="M1857,426.55c-3,.59-6.13,2.09-9.08,3.1l-7.66,2.63c-3.32,1.14-6.83,2.43-11.09,3.9l7,19.57c8.71-3,19.5-4.8,28-8.52-.95-3.49-1.93-7-3.12-10.49-1.12-3.23-2-7.47-4-10.19"/><path class="cls-1" d="M1902.38,428.6c-.73-2.1-1.08-4.37-1.8-6.51-1-3.11-1.95-6.16-2.7-9.35-2.44,1.77-6.53,2.4-9.41,3.39-7.69,2.66-15.92,4.49-23.38,7.6l6.89,20.79c2.91-1.13,6.16-1.39,9.11-2.41,4.05-1.4,8.12-2.69,12.21-4,2.68-.85,5.42-1.72,8-2.73.86-.33,3.16-.92,3.15-2.12,0-.49-.91-.89-1.1-1.33-.41-.94-.64-2.3-1-3.34"/><path class="cls-1" d="M1806.22,239.8c-7.63,11.76-15.44,19.78-24.62,25.71,1-15.48-7.72-36-10.44-42,17.7-4.44,34-3.55,42.86-.67a72.14,72.14,0,0,1-7.8,17m-63.74,36.83c-13.84,1.42-26.14-3.87-33.28-7.89,6.74-10.34,22.7-28.33,28.3-31,2.17-1,4.45-1.8,6.72-2.63.24,11.79,2.62,32.68,8.55,40.31-3.38.46-6.8.85-10.29,1.21M1829,207.27l-2-.75a84.25,84.25,0,0,0-32.79-6.52c-12,0-24.8,2.37-38,7a37.29,37.29,0,0,0-8.74,4.77,24.94,24.94,0,0,1-3.8,2.32c-2,.85-4,1.58-6,2.3-2.84,1-5.69,2.08-8.42,3.33-11.6,5.33-39.73,37.5-42.34,50.62a9.9,9.9,0,0,0,3.48,9.64c.83.67,20.88,16.66,47.44,16.66a63.76,63.76,0,0,0,6.71-.34c13.74-1.42,28-2.88,42.36-10.73,14-7.66,25.43-18.78,36-35,7-10.71,10.54-22.38,12.86-31.37a9.92,9.92,0,0,0-6.7-11.95"/><path class="cls-1" d="M371.54,509.8c-7.63,11.76-15.44,19.78-24.63,25.71,1-15.48-7.72-36-10.44-42,17.71-4.44,34-3.55,42.87-.67a72.14,72.14,0,0,1-7.8,16.95m-63.75,36.83c-13.84,1.42-26.13-3.87-33.27-7.89,6.73-10.34,22.69-28.33,28.29-31,2.18-1,4.45-1.8,6.73-2.63.24,11.79,2.62,32.68,8.55,40.31-3.39.46-6.8.85-10.3,1.21m86.52-69.36-2-.75a84.31,84.31,0,0,0-32.8-6.52c-12,0-24.8,2.37-38,7a37.09,37.09,0,0,0-8.74,4.77,24.55,24.55,0,0,1-3.81,2.32c-1.95.85-4,1.58-6,2.3-2.85,1-5.69,2.08-8.43,3.33-11.6,5.33-39.73,37.5-42.34,50.62a9.91,9.91,0,0,0,3.49,9.64c.83.67,20.88,16.66,47.43,16.66a63.94,63.94,0,0,0,6.72-.34c13.74-1.42,27.95-2.88,42.35-10.73,14-7.66,25.43-18.78,36-35,7-10.71,10.53-22.38,12.85-31.37a9.91,9.91,0,0,0-6.69-12"/><path class="cls-1" d="M65.54,827.12c-7.63,11.77-15.44,19.78-24.63,25.71,1-15.47-7.72-36-10.44-42,17.71-4.44,34-3.55,42.87-.67a71.89,71.89,0,0,1-7.8,16.94M1.79,864c-13.84,1.42-26.13-3.87-33.27-7.9,6.73-10.34,22.69-28.32,28.29-31,2.18-1,4.45-1.81,6.73-2.63.24,11.78,2.62,32.68,8.55,40.31-3.39.45-6.8.85-10.3,1.21M88.31,794.6l-2-.75a84.31,84.31,0,0,0-32.8-6.52c-12,0-24.8,2.37-38,7a37.09,37.09,0,0,0-8.74,4.77A24.55,24.55,0,0,1,3,801.45c-1.95.85-4,1.58-6,2.3-2.85,1-5.69,2.07-8.43,3.33-11.6,5.33-39.73,37.5-42.34,50.62a9.88,9.88,0,0,0,3.49,9.63C-49.49,868-29.44,884-2.89,884a66.76,66.76,0,0,0,6.72-.34c13.74-1.42,28-2.88,42.35-10.74,14-7.66,25.43-18.77,36-35,7-10.71,10.53-22.39,12.85-31.37a9.91,9.91,0,0,0-6.69-11.95"/><path class="cls-1" d="M1487.54,1085.8c-7.63,11.76-15.44,19.78-24.63,25.71,1-15.48-7.72-36-10.44-42,17.71-4.44,34-3.55,42.87-.67a72.14,72.14,0,0,1-7.8,17m-63.75,36.83c-13.84,1.42-26.13-3.87-33.27-7.89,6.73-10.34,22.69-28.33,28.29-31,2.18-1,4.45-1.8,6.73-2.63.24,11.79,2.62,32.68,8.55,40.31-3.39.46-6.8.85-10.3,1.21m86.52-69.36-2-.75a84.31,84.31,0,0,0-32.8-6.52c-12,0-24.8,2.37-38,7a37.09,37.09,0,0,0-8.74,4.77,24.55,24.55,0,0,1-3.81,2.32c-2,.85-4,1.58-6,2.3-2.85,1-5.69,2.08-8.43,3.33-11.6,5.33-39.73,37.5-42.34,50.62a9.91,9.91,0,0,0,3.49,9.64c.83.67,20.88,16.66,47.43,16.66a63.94,63.94,0,0,0,6.72-.34c13.74-1.42,28-2.88,42.35-10.73,14-7.66,25.43-18.78,36-35,7-10.71,10.53-22.38,12.85-31.37a9.91,9.91,0,0,0-6.69-12"/><path class="cls-1" d="M1045.72,725.24c2.93-11.9,12.57-22.35,21.09-31.57,2.48-2.69,5-5.29,7.53-7.86,7.16-7.35,14.58-14.93,20.86-24.45,6.84-10.4,10-21.85,12.68-32,1.95-7.18,3.79-14,6.65-19.49a14.39,14.39,0,0,0-6.2-19.54,14.72,14.72,0,0,0-19.69,6.35c-4.33,8.34-6.66,17-8.91,25.35-2.37,8.77-4.63,17-8.87,23.48-4.74,7.18-10.88,13.47-17.36,20.11-2.69,2.77-5.41,5.56-8.09,8.45-10.38,11.26-23.31,25.25-28,44.49l-1.4,6.16c-2.16,10.09-2.7,11.85-8.49,14.56a14.63,14.63,0,0,0-7.16,19.35,15.16,15.16,0,0,0,1.12,2,14.57,14.57,0,0,0,18.24,5c19.22-9,22.34-23.43,24.82-35Z"/><path class="cls-1" d="M425.72,64.47,420.64,75C409,99.73,391.09,118.79,372.16,139l-8.62,9.22a14.35,14.35,0,0,0,.71,20.58,14.59,14.59,0,0,0,20.58-.91l8.48-9.08c9.9-10.55,20-21.3,29.27-33.08-6.22,17.79-11.64,35.66-15.09,53.28A14.41,14.41,0,0,0,419,196a14.72,14.72,0,0,0,17.1-11.65C446,134,470.07,78.61,500.58,36.08a14.53,14.53,0,0,0-1.46-18.75,15,15,0,0,0-1.82-1.54A14.6,14.6,0,0,0,477,19.26c-1.79,2.47-3.27,5.32-5,7.86a78.28,78.28,0,0,0,2.23-11.39A14.39,14.39,0,0,0,461,.05a14.71,14.71,0,0,0-15.82,13.34c-1.23,13.88-11.77,35.39-19.45,51.08"/><path class="cls-1" d="M1329.13,1228.54c-1.25-5.06-2.49-10.09-3.94-15-7.27-24.67-12.74-50.62-18.06-75.72-3.06-14.47-6.11-29-9.54-43.4a14.49,14.49,0,0,0-17.47-10.83,14.66,14.66,0,0,0-10.73,17.64c3.37,14.19,6.37,28.45,9.4,42.71,5.41,25.65,11,52.18,18.63,77.94,1.3,4.5,2.44,9.12,3.57,13.72,3,12.35,6.17,25.12,12.79,37a14.4,14.4,0,0,0,19.74,5.56,14.7,14.7,0,0,0,5.52-19.93c-4.7-8.4-7.22-18.72-9.91-29.64"/><path class="cls-1" d="M1388.67,253.88c3.32-11.8.09-25.64-2.78-37.87-.83-3.56-1.76-7.07-2.67-10.55-2.6-9.92-5.31-20.18-6.08-31.55-.82-12.43,2.12-23.92,4.74-34.08,1.85-7.21,3.59-14,3.83-20.24a14.38,14.38,0,0,1,15-13.93,14.72,14.72,0,0,1,14,15.24c-.35,9.38-2.58,18-4.75,26.44-2.26,8.8-4.39,17.1-3.87,24.8.58,8.59,2.82,17.08,5.18,26.06,1,3.73,2,7.5,2.87,11.33,3.48,14.92,7.82,33.47,2.43,52.52l-1.83,6.06c-3.09,9.84-3.49,11.64.21,16.85a14.51,14.51,0,1,1-23.6,16.88c-12.27-17.33-7.87-31.4-4.32-42.69Z"/><path class="cls-1" d="M231.73,1011l-1.49-11.55c-3.18-27.19-14.11-51-25.65-76.13l-5.25-11.48a14.34,14.34,0,0,1,7.21-19.29A14.57,14.57,0,0,1,225.77,900l5.16,11.3c6,13.15,12.18,26.54,17.26,40.66-.25-18.85.28-37.51,2.6-55.32a14.41,14.41,0,0,1,16.28-12.46,14.72,14.72,0,0,1,12.52,16.47c-6.6,50.86-1.31,111.07,14.13,161.08a14.56,14.56,0,0,1-7.34,17.33,15.19,15.19,0,0,1-2.21.88,14.6,14.6,0,0,1-18.18-9.75c-.92-2.91-1.42-6.08-2.26-9a78.84,78.84,0,0,1-1.51,11.51,14.38,14.38,0,0,1-17.48,10.68A14.7,14.7,0,0,1,234,1065.63c3.23-13.56.07-37.29-2.24-54.61"/><path class="cls-1" d="M701.23,551.22S755.85,537.92,784,535c-21-85.3-107.24-65.73-82.79,16.22"/><path class="cls-1" d="M624.74,1041.29c-6-19.09-9.8-38-30.25-45.88-16.41-6.35-37.47-3.27-52.78,4.65-35.25,18.22-26.94,60-28.71,94l10.57,3.19c36.67,3.48,77-9.46,113.28-16.07-.17-14.17-7.93-26.65-12.11-39.89"/><path class="cls-1" d="M1644.34,952.8s80-19.48,121.28-23.76c-30.72-125-157.11-96.29-121.28,23.76"/></svg>