<svg id="Layer_1" data-name="Layer 1" xmlns="http://www.w3.org/2000/svg" viewBox="0 0 1900 1200"><defs><style>.cls-1{fill:#cac2c4;}.cls-2{fill:#f5d8cb;}</style></defs><title>collections</title><path class="cls-1" d="M620.93,397.24c5.18-3.55,137.59-84.53,137.59-84.53l60.41,52.88L758.48,465Z"/><path class="cls-2" d="M-117.07,531.52C-111.89,528,20.52,447,20.52,447l60.41,52.88L20.48,599.29Z"/><path class="cls-2" d="M359.93,350.36c1.88-1.29,50-30.74,50-30.74l22,19.23L410,375Z"/><path class="cls-2" d="M1250.93,801.71c3.35-2.41,89.17-57.71,89.17-57.71l40.55,33.84-38.22,66.31Z"/><path class="cls-2" d="M927.18,1158.9c6.18-5.11,164.36-122.11,164.36-122.11l75.12,72.22-70.16,140.72Z"/><path class="cls-2" d="M944.26,411c9.68,3.87,243.67,111.91,243.67,111.91L1170.69,655.1l-193,8.31Z"/><path class="cls-1" d="M1394.93,434.2c1.53.61,38.42,17.65,38.42,17.65l-2.72,20.84L1400.2,474Z"/><path class="cls-2" d="M1719.76,888c.89,4.42,17.17,114.77,17.17,114.77l-52,25.07-48.72-67.95Z"/><path class="cls-1" d="M612.5,144.07c-2-4-46.57-106.3-46.57-106.3L609.54,0l64.79,52.86Z"/><path class="cls-1" d="M1468,1329c-3.15-6.33-73-166.69-73-166.69l68.39-59.24,101.6,82.89Z"/><path class="cls-1" d="M1001.47,168c-1.16,1.14-31.26,27.88-31.26,27.88l-17.84-10.73L963.25,157Z"/><path class="cls-1" d="M1484.93,941.12c-1.16,1.14-31.26,27.88-31.26,27.88l-17.85-10.74,10.89-28.14Z"/><path class="cls-1" d="M1697.81,132c-1.27-2.55-29.46-67.25-29.46-67.25L1696,40.86l41,33.44Z"/><path class="cls-1" d="M968.38,942.56c-1-2-23.45-53.54-23.45-53.54l22-19,32.62,26.62Z"/><path class="cls-1" d="M57.54,975.63c6.67,8.15,160.89,217.87,160.89,217.87L138.68,1302l-174.75-86.83Z"/><path class="cls-2" d="M316.94,825c1.78,2.18,43,58.22,43,58.22l-21.31,29L291.92,889Z"/><path class="cls-2" d="M1764,230.33C1757.14,235,1582.59,342,1582.59,342l-79.76-69.67,79.6-131.21Z"/><path class="cls-1" d="M1859.27,419.31c.37,15.68-4.14,32-7.32,47.31-5.73,27.52-22.41,49.19-35,73.39-5.69,10.91-15.67,22.31-25.1,34s-18.29,23.7-27.1,32.4c-10.28-5.76-20.4-8.26-32.08-9.19-36.81-2.91-79.91,5.52-114.44,22.69-7.59,3.77-13.16,9.28-20,13.5,6.93,4.47,13.38,8.07,20.19,12.5,32.06,20.84,75.14,9.72,110.38,12.5-5.32,7.18-12,13.41-17.88,20.1-28.32,32-33.88,61.38-21.91,101.49,11.34-5.14,23.66-14.71,29-25.82,3.55-7.38,4.38-22.09,11.37-22.74,26-8.06,45.38-39,56.23-64.42,3.2-7.51,6-14.25,6-22.6,26-5.39,44.72-23.85,66.39-37.69,18.24-11.65,38-20.1,56.3-31.89,9.6-6.19,20.32-10.17,29.64-16.27Z"/><path class="cls-2" d="M121.73,240c-1.19-4.67-24.64-121.57-24.64-121.57l54.1-29.61,55.74,69.85Z"/><path class="cls-2" d="M639.2,1213.51c-8.28-36.59,0-72.13,1.92-108.49.87-16.39,6.69-35.75,11.66-55.17s9.09-38.89,15-54.33c15.67,1.31,29.35-1.26,44-6.6,46.31-16.82,94-50.91,126.4-90.86,7.12-8.78,10.84-18.55,16.74-27.43-10.89-1.59-20.71-2.4-31.42-4-50.46-7.57-96.62,29.77-140.93,45.89,2.48-11.66,7.08-22.9,10.58-34.3,16.7-54.47,7.18-93.27-29.56-135.34-10.93,12.51-20.58,31-20.93,47.4-.23,10.92,6.91,29.24-1.23,33.9-27.09,24.16-33.53,72.4-32.62,109.33.27,10.88.66,20.59,5.27,30.73-28.52,20.9-41.1,53.7-59.75,82.5-15.7,24.23-35.08,45.46-50.72,69.86-8.22,12.84-19,23.6-27,36.16L656.49,1275C647.36,1256.16,643.81,1233.85,639.2,1213.51Z"/><path class="cls-1" d="M442.27,611.2c-14-1.66-25.5-9-38.12-14.26-5.68-2.36-11.8-6.84-18-11s-12.61-8.09-17.34-12.1A37.23,37.23,0,0,0,372,557.42c-.15-18.48-6.23-39.6-16.3-56.07-2.21-3.61-5.2-6.15-7.6-9.35-1.93,3.65-3.44,7-5.35,10.61-9,16.89-1.57,37.88-1.42,55.57-3.81-2.34-7.21-5.37-10.8-8-17.17-12.72-32.08-14.21-51.55-6.49,3.06,5.43,8.36,11.15,14.14,13.34,3.83,1.44,11.2,1.21,11.83,4.67,5.15,12.61,21.4,20.92,34.57,25.22,3.88,1.27,7.36,2.35,11.52,2,3.82,12.7,13.85,21.25,21.69,31.45,6.61,8.58,11.68,18.1,18.35,26.68,3.51,4.51,6,9.68,9.41,14.06l65.73-48.28C458.37,613.65,450,612.11,442.27,611.2Z"/><path class="cls-2" d="M1135.45,28.25c18.83,17.34,28,40.51,41,61.68,5.86,9.55,10.1,22.68,14.83,35.51s10,25.37,12.65,36.32c-9.31,5.34-16,12.08-22.18,20.77-19.49,27.4-33,65-35.78,100-.6,7.69,1.1,14.62,1.22,21.89,6.73-3.32,12.56-6.68,19.21-9.93,31.27-15.3,42.73-54.16,61.37-80.39,3.13,7.51,4.89,15.6,7.35,23.36,11.73,37.07,32.11,55.17,69.05,64.57,1.29-11.26-.43-25.36-6.61-34.74-4.11-6.22-15.21-13.74-12.45-19.52,5.86-24.07-9.22-53.66-24-74.05-4.37-6-8.35-11.31-14.87-15.22,7.92-22.79,2.27-46.09,1.59-69.49-.57-19.7,2.09-39.13,1.41-58.9-.35-10.4,1.55-20.63,1.14-30.77H1101.91C1114.34,6.42,1125,18.61,1135.45,28.25Z"/></svg>