<svg id="Layer_1" data-name="Layer 1" xmlns="http://www.w3.org/2000/svg" viewBox="0 0 1900 1200"><defs><style>.cls-1{fill:#a7d8d0;}</style></defs><title>faq-page-bkgd</title><path class="cls-1" d="M863.93,287.36c8.07-5.53,214.5-131.77,214.5-131.77L1172.6,238l-94.23,155Z"/><path class="cls-1" d="M0,131.77C8.07,126.24,214.5,0,214.5,0l94.17,82.44-94.23,155Z"/><path class="cls-1" d="M1483.77,807c10,4,253.16,116.27,253.16,116.27L1719,1060.61l-200.53,8.64Z"/><path class="cls-1" d="M448,321c8.28,3.11,209,90.46,209,90.46L644.76,524,481.05,534.68Z"/><path class="cls-1" d="M1755.16-120c1.39,6.89,26.77,178.92,26.77,178.92l-81,39.08L1625-7.93Z"/><path class="cls-1" d="M714.29,213.58c-3.14-6.3-72.6-165.71-72.6-165.71l68-58.89,101,82.4Z"/><path class="cls-1" d="M1181.87,1293c-3.72-7.45-85.91-196.09-85.91-196.09l80.46-69.68,119.51,97.5Z"/><path class="cls-1" d="M573.76,973.91C583.22,985.47,802,1283.05,802,1283.05L688.88,1437,440.93,1313.79Z"/><path class="cls-1" d="M2042.93,424.05c-10.64,7.31-282.76,174.11-282.76,174.11L1635.84,489.54,1759.93,285Z"/><path class="cls-1" d="M1092,487.7c.58,24.45-6.46,49.9-11.41,73.76-8.93,42.9-34.94,76.68-54.61,114.41-8.87,17-24.43,34.77-39.13,53s-28.51,36.93-42.24,50.51c-16-9-31.81-12.88-50-14.33-57.39-4.55-124.57,8.6-178.41,35.36-11.83,5.88-20.51,14.47-31.09,21.05,10.8,7,20.85,12.58,31.47,19.49,50,32.48,117.14,15.16,172.07,19.49-8.29,11.19-18.63,20.9-27.87,31.33-44.15,49.83-52.82,95.69-34.16,158.22,17.69-8,36.89-22.93,45.23-40.26,5.53-11.5,6.82-34.43,17.73-35.44,40.51-12.56,70.73-60.73,87.65-100.43,5-11.7,9.29-22.21,9.3-35.23,40.44-8.4,69.71-37.18,103.49-58.76,28.43-18.16,59.33-31.33,87.78-49.71,15-9.66,31.66-15.86,46.2-25.37Z"/><path class="cls-1" d="M149.62,1206.14c-12.9-57,0-112.44,3-169.13,1.36-25.55,10.42-55.74,18.18-86s14.18-60.62,23.34-84.7c24.43,2,45.74-2,68.65-10.28,72.2-26.23,146.49-79.37,197.05-141.65,11.1-13.68,16.9-28.92,26.1-42.76-17-2.48-32.28-3.74-49-6.25-78.66-11.79-150.62,46.41-219.7,71.55,3.87-18.18,11-35.69,16.5-53.47,26-84.92,11.19-145.4-46.08-211-17,19.51-32.09,48.25-32.63,73.9-.35,17,10.76,45.58-1.92,52.84-42.24,37.67-52.27,112.88-50.85,170.44.42,17,1,32.1,8.21,47.91C66,850.13,46.4,901.26,17.33,946.15c-24.47,37.78-54.7,70.87-79.07,108.92-12.82,20-29.67,36.78-42.06,56.37L176.57,1302C162.34,1272.63,156.8,1237.85,149.62,1206.14Z"/><path class="cls-1" d="M1257.23,45c29.35,27,43.58,63.15,63.86,96.16,9.14,14.88,15.75,35.35,23.12,55.35s15.53,39.55,19.72,56.63c-14.52,8.32-24.94,18.83-34.58,32.38-30.39,42.71-51.52,101.35-55.78,155.93-.94,12,1.71,22.79,1.91,34.13,10.49-5.18,19.58-10.41,29.93-15.47,48.75-23.87,66.62-84.44,95.68-125.34,4.88,11.71,7.63,24.33,11.46,36.43,18.28,57.79,50.07,86,107.65,100.66,2-17.56-.67-39.54-10.31-54.16-6.4-9.7-23.71-21.43-19.4-30.43,9.12-37.52-14.39-83.66-37.49-115.44-6.81-9.36-13-17.64-23.18-23.73,12.34-35.53,3.54-71.85,2.47-108.33-.9-30.71,3.26-61,2.2-91.83-.55-16.21,2.41-32.16,1.78-48H1204.93C1224.31,11,1240.9,30,1257.23,45Z"/></svg>