<svg id="Layer_1" data-name="Layer 1" xmlns="http://www.w3.org/2000/svg" viewBox="0 0 334.67 150"><title>info</title><path d="M96.19,120.07a.5.5,0,0,0-.57.42c-.14.83-3.69,1.39-6.29,1.8-7.25,1.13-18.64-2.39-21.22-3.48l-.5-.22c-2.09-.88-4.07-1.71-5.19-3.62a.52.52,0,0,0-.35-.24.49.49,0,0,0-.4.12c-1.85,1.57-5.45,1.65-6.51,1.64a59.72,59.72,0,0,1-7-.46,26,26,0,0,1-8-2.73c-2.09-1.25-7.72-5.46-7.77-5.51a.49.49,0,0,0-.35-.09c-.06,0-5.39.53-7.4.57a44.84,44.84,0,0,1-12.6-1.73,58.22,58.22,0,0,1-6.21-2.68c-.6-.28-1-.5-1.26-.58a5.14,5.14,0,0,0-1-.29,2,2,0,0,1-1.11-.46.52.52,0,0,0-.71.07.49.49,0,0,0,.07.7,3,3,0,0,0,1.55.67,4.72,4.72,0,0,1,.83.23l1.21.57a57.64,57.64,0,0,0,6.36,2.73,45.82,45.82,0,0,0,12.9,1.77c1.85,0,6.29-.46,7.28-.56.95.71,5.74,4.27,7.7,5.45A26.94,26.94,0,0,0,48.06,117a61.65,61.65,0,0,0,7.09.46c1.36,0,4.61-.11,6.71-1.54,1.32,1.86,3.37,2.73,5.36,3.56l.5.21c1.61.69,10.76,3.8,18.39,3.8a23,23,0,0,0,3.38-.24c4.26-.67,6.88-1.16,7.12-2.63A.52.52,0,0,0,96.19,120.07Z"/><path d="M123.89,95.73a24.6,24.6,0,0,1-4.62,7l-.72.73a14.26,14.26,0,0,1-5.21,3.87.5.5,0,0,0-.28.65.48.48,0,0,0,.46.32.57.57,0,0,0,.18,0,15.11,15.11,0,0,0,5.56-4.11l.72-.73a25.56,25.56,0,0,0,4.82-7.28l.13-.29c.62-1.34,1.21-2.61.56-4.37a.5.5,0,1,0-.94.34c.51,1.38.08,2.32-.52,3.61Z"/><path d="M131.24,94.1a.5.5,0,0,0-.37.6c.43,1.75-.39,4.8-1.87,7l-.56.79c-.5.73-1,1.42-1.48,2.25a13.07,13.07,0,0,1-1.51,1.94l-.75.87a32.58,32.58,0,0,1-4.9,4.94c-1,.76-4.64,3.4-5.81,4.21a17.39,17.39,0,0,1-6,2.8.5.5,0,0,0,.11,1l.11,0a18.27,18.27,0,0,0,6.34-3c1.17-.82,4.84-3.47,5.85-4.23a33.76,33.76,0,0,0,5.06-5.1l.73-.85a14.31,14.31,0,0,0,1.62-2.09c.48-.8,1-1.47,1.44-2.18l.56-.81c1.65-2.4,2.52-5.73,2-7.76A.48.48,0,0,0,131.24,94.1Z"/><path d="M180.29,105.89c-.27.36-1.09.45-1.75.53a6.27,6.27,0,0,0-1,.17c-.6.16-1.23.3-1.86.44-.47.11-.94.21-1.4.33-4.58,1.15-9.4.32-13.55-.54l-1.76-.34a31.59,31.59,0,0,1-3.93-.89c-.64-.2-1.33-.38-2-.55a14.09,14.09,0,0,1-4.59-1.72.5.5,0,1,0-.57.82,14.89,14.89,0,0,0,4.91,1.87c.68.17,1.34.34,2,.54a35.18,35.18,0,0,0,4.05.92l1.73.33a43.91,43.91,0,0,0,8.87,1.12,21.32,21.32,0,0,0,5.13-.59c.46-.12.92-.22,1.38-.32.64-.14,1.29-.29,1.91-.46a7.29,7.29,0,0,1,.89-.14,3.34,3.34,0,0,0,2.43-.93.5.5,0,0,0-.1-.7A.51.51,0,0,0,180.29,105.89Z"/><path d="M267.69,111.53a29.16,29.16,0,0,1-5.76,2.15c-5.67,1.45-12.84.68-15.66.29a44.63,44.63,0,0,1-9.53-2.69c-.82-.31-1.72-.69-2.59-1-.45-.19-.88-.38-1.3-.54-.77-.32-1-.63-.82-1.33a.5.5,0,0,0-.74-.54,19.45,19.45,0,0,0-2.1,1.44,11.77,11.77,0,0,1-3.3,1.95,35,35,0,0,1-13.88,1.4c-6.32-.58-10.88-1.78-13.95-3.68a.5.5,0,0,0-.68.16.49.49,0,0,0,.16.69c3.2,2,7.91,3.23,14.38,3.82a35.68,35.68,0,0,0,14.28-1.44,12.38,12.38,0,0,0,3.59-2.1c.42-.32.83-.62,1.25-.9a2.12,2.12,0,0,0,1.44,1.45l1.29.54c.87.37,1.79.76,2.62,1.06a45.52,45.52,0,0,0,9.74,2.75,59.85,59.85,0,0,0,7.94.57,33.47,33.47,0,0,0,8.1-.88,31,31,0,0,0,5.95-2.22.5.5,0,0,0,.24-.66A.5.5,0,0,0,267.69,111.53Z"/><path d="M332.82,80.3c-.73-.39-1.53-.75-2.31-1.1s-1.39-.62-2-1a26.84,26.84,0,0,0-4.07-1.64,16.3,16.3,0,0,1-2.31-1,18.67,18.67,0,0,0-2.53-1.08c-3.14-1-5-1.6-7.53-2.51,0,0-.07,0-.11,0,0-.5-.07-1-.11-1.48a43.93,43.93,0,0,0-1.13-8.31c-.26-1-.49-2-.72-3.05a46,46,0,0,0-2-7.1,47.21,47.21,0,0,1-2.61-10.58c-.22-3,0-7.21,2.1-10,1.53-2,4.35-2.88,6.84-3.65l1-.31a13.55,13.55,0,0,1,4.9-.92,40.6,40.6,0,0,1,6,1l.44.11c1.51.36,2.94.7,4.55-.2a3.21,3.21,0,0,0,1.72-2,2,2,0,0,0-.49-1.69c-1.31-1.57-3.13-2.21-5.24-2.95-.76-.27-1.54-.54-2.34-.87l.1-.16c.26-.45.54-.91.33-1.33a.52.52,0,0,0-.42-.28,8.81,8.81,0,0,0-4,.78l0-.29c0-.25,0-.51.05-.76a.5.5,0,0,0-.78-.43,4,4,0,0,1-.89.37,5.23,5.23,0,0,0-1,.42,4.33,4.33,0,0,0-.93.81l-.08-.23A3,3,0,0,1,317,18a.5.5,0,0,0-.82-.35,3.05,3.05,0,0,1-1.14.51c-.23.07-.47.14-.71.23a7.12,7.12,0,0,0-1.2.68c-.27.17-.54.34-.8.48a5.22,5.22,0,0,1-.13-1.23.5.5,0,0,0-1-.19,4.58,4.58,0,0,1-1.33,1.45c-.19.16-.38.32-.54.47a3.11,3.11,0,0,1-.43.32,1.86,1.86,0,0,1-.22-.92.52.52,0,0,0-.29-.41.48.48,0,0,0-.49.05,7.91,7.91,0,0,0-2,2.06,2.69,2.69,0,0,1-.35-.81.5.5,0,0,0-1,.11,4.09,4.09,0,0,1-.65,1.76l-.26.49c-.12-.17-.26-.32-.37-.46l-.11-.13a.5.5,0,0,0-.89.3,5.65,5.65,0,0,1-.31,1.48c-.05.17-.1.34-.14.51a1.56,1.56,0,0,1-.55-.55.51.51,0,0,0-.44-.21.49.49,0,0,0-.41.27,4.53,4.53,0,0,0-.34,1.36,4.63,4.63,0,0,1-.12.7c-.09.32-.18.66-.24,1a3.52,3.52,0,0,0-.79-.48.51.51,0,0,0-.56.19.5.5,0,0,0,0,.59,2.08,2.08,0,0,1,.23,1.26v.21a1.26,1.26,0,0,0-1-.07c-.31.12-.69.44-.74,1.33a4.13,4.13,0,0,0,.27,1.54.48.48,0,0,0-.49.06.5.5,0,0,0-.14.64,1.38,1.38,0,0,1,0,.66,3,3,0,0,0,0,.9l.09.32-.16,0a1.92,1.92,0,0,1-.7-.22.5.5,0,0,0-.54,0,.5.5,0,0,0-.24.48,6.91,6.91,0,0,0,.23,1.24,6.68,6.68,0,0,0,1,1.9,4.26,4.26,0,0,1,1,2c.07.72.08,1.43.08,2.11a14,14,0,0,0,.32,3.46c.31,1.26.51,2.62.7,3.93.16,1.05.32,2.14.54,3.18s.49,2.1.76,3.12c.4,1.58.82,3.21,1.06,4.83a65.49,65.49,0,0,1,.8,10,3.48,3.48,0,0,1-2.13,1l-.54.14a17.55,17.55,0,0,1-3.29.6,20.5,20.5,0,0,1-4.59-.07c-2.08-.36-4.32-.76-6.63-1.25-1.48-.31-2.38-.88-2.75-1.76a.49.49,0,0,0-.56-.29.51.51,0,0,0-.4.49c0,.35-.73.67-1.16.85l-.32.14a9.55,9.55,0,0,1-4.14.89c-.46,0-.92,0-1.38.05s-1,0-1.52,0c-.18,0-.36,0-.52,0-.71,0-1,0-1.27-.44a.5.5,0,0,0-.83.55,2.07,2.07,0,0,0,2.13.89c.15,0,.31,0,.47,0,.54,0,1.07,0,1.6,0s.88-.05,1.32-.05a10.58,10.58,0,0,0,4.57-1l.28-.13a4.18,4.18,0,0,0,1.31-.76,5.09,5.09,0,0,0,3,1.53c2.33.49,4.58.89,6.67,1.25a13.31,13.31,0,0,0,2.39.18c.79,0,1.6,0,2.43-.09a20.45,20.45,0,0,0,3.5-.63l.51-.14a6.79,6.79,0,0,0,1.85-.65c0,.11,0,.21,0,.32,0,1-.13,2-.23,3s-.16,1.82-.21,2.72a23.93,23.93,0,0,1-.92,6.33A20.61,20.61,0,0,1,298.72,87c-.35.63-.71,1.28-1,2-.57,1.23-1.63,3.5-2.57,3.83a.62.62,0,0,0-.16.1l-.89-.23A8.24,8.24,0,0,1,291.19,91c-.32-.26-.64-.53-1-.8a.51.51,0,0,0-.7.11.5.5,0,0,0,.1.7c.35.25.66.51,1,.76a9.06,9.06,0,0,0,3.22,1.91,18.86,18.86,0,0,0,2,.47l.58.12a7.69,7.69,0,0,0,1.25.13c.24,0,.48,0,.72,0a18.55,18.55,0,0,1,2.66.51,20.11,20.11,0,0,0,5.53.66c.77,0,1.66,0,2.68-.08a14,14,0,0,0,5.49-1.57.5.5,0,0,0,.19-.68.49.49,0,0,0-.68-.19,12.91,12.91,0,0,1-5,1.44l-1.08,0,.34-.75c.18-.39.36-.78.5-1.1a36.71,36.71,0,0,0,3.1-9.26A43.51,43.51,0,0,0,312,73.06c2.4.86,4.23,1.45,7.25,2.41a18.93,18.93,0,0,1,2.39,1,20.15,20.15,0,0,0,2.44,1A25.22,25.22,0,0,1,328,79.13c.69.35,1.41.67,2.1,1s1.54.69,2.23,1.07a.53.53,0,0,0,.24.06A.49.49,0,0,0,333,81,.5.5,0,0,0,332.82,80.3Zm-21.84,3a36.51,36.51,0,0,1-3.05,9c-.13.3-.3.68-.48,1.07s-.38.83-.53,1.19a19.33,19.33,0,0,1-5.74-.63,21,21,0,0,0-2.79-.54c-.26,0-.52,0-.78,0a7.59,7.59,0,0,1-1.1-.11l-.2,0a13.58,13.58,0,0,0,2.29-3.79c.3-.65.65-1.29,1-1.91a19.3,19.3,0,0,0,1.54-3.24,24.36,24.36,0,0,0,1-6.59c.05-.9.13-1.79.21-2.68s.19-2,.23-3.08a62.12,62.12,0,0,0-.76-11.9,49.8,49.8,0,0,0-1.08-4.94c-.26-1-.53-2.05-.75-3.08s-.37-2.08-.53-3.12c-.19-1.33-.4-2.71-.72-4a13,13,0,0,1-.29-3.22,21,21,0,0,0-.09-2.21,5.22,5.22,0,0,0-1.15-2.54,5.21,5.21,0,0,1-.91-1.6l-.06-.25.16,0c.47.1.76.17.82.38a.5.5,0,0,0,1-.27,5.81,5.81,0,0,0-.3-.89,4.15,4.15,0,0,1-.24-.7,2.37,2.37,0,0,1,0-.54.66.66,0,0,1,.24.23.5.5,0,0,0,.62.25.5.5,0,0,0,.31-.6,8,8,0,0,0-.39-1.1,4.35,4.35,0,0,1-.44-1.77.93.93,0,0,1,.1-.45c.08,0,.47.11,1,.68a.51.51,0,0,0,.69,0,.5.5,0,0,0,.08-.67,1.84,1.84,0,0,1-.18-1.1v-.3l.06.09a.5.5,0,0,0,1-.21,5.9,5.9,0,0,1,.3-1.9,7.51,7.51,0,0,0,.14-.81c0-.09,0-.18,0-.27a1.64,1.64,0,0,0,.53.26,1.48,1.48,0,0,0,0,.21.5.5,0,0,0,.46.51.5.5,0,0,0,.53-.43,1.15,1.15,0,0,0,0-.31,7.2,7.2,0,0,1,.28-1.2c0-.17.11-.35.15-.53a.86.86,0,0,1,.12.35.5.5,0,0,0,1,.07,5.51,5.51,0,0,1,.6-1.39c.14-.25.28-.51.4-.78a4,4,0,0,0,.44.54.47.47,0,0,0,.46.14.52.52,0,0,0,.37-.32,5.37,5.37,0,0,1,1.38-1.85,1.28,1.28,0,0,0,.7.9c.65.24,1.27-.34,1.48-.52s.33-.29.51-.45.52-.44.77-.68c.05.23.12.46.2.71a.5.5,0,0,0,.61.32,5.3,5.3,0,0,0,1.53-.79,6.43,6.43,0,0,1,1-.58c.21-.08.42-.14.63-.2s.55-.17.83-.29c0,.1.07.21.11.31a2.11,2.11,0,0,1,.19.92.51.51,0,0,0,.28.49.5.5,0,0,0,.55-.07,7.09,7.09,0,0,0,.6-.62,3.73,3.73,0,0,1,.83-.77,4.49,4.49,0,0,1,.83-.34l.3-.1a6.41,6.41,0,0,0,0,1.07.49.49,0,0,0,.25.4.5.5,0,0,0,.46,0,9,9,0,0,1,3.57-1l-.06.1c-.23.39-.43.72-.32,1.06a.67.67,0,0,0,.33.37c1,.42,1.87.74,2.75,1.05,2,.69,3.68,1.29,4.81,2.65a1.06,1.06,0,0,1,.28.87,2.31,2.31,0,0,1-1.23,1.34c-1.27.71-2.4.44-3.83.1l-.45-.1a41.61,41.61,0,0,0-6.19-1,14.09,14.09,0,0,0-5.31,1l-.93.29c-2.63.81-5.61,1.74-7.33,4-2.33,3-2.54,7.5-2.31,10.69A48.67,48.67,0,0,0,307,52.43a43.62,43.62,0,0,1,2,7c.23,1,.47,2,.73,3.07a43.09,43.09,0,0,1,1.1,8.13c.06.76.11,1.52.18,2.3A43.67,43.67,0,0,1,311,83.29Z"/><path d="M131.5,55.59a24.56,24.56,0,0,1-3.82-.63,20,20,0,0,1-2.84-1.14c-.54-.25-1.09-.5-1.63-.72a10.11,10.11,0,0,0-1.94-.37c-.35-.15-2-.86-2.88-1.28a17.12,17.12,0,0,1-3.29-2.28c-1.6-1.31-3.25-2.66-5.49-3a9.68,9.68,0,0,0-9.42,4.74c-1.35,2.51-1.32,7.22-.78,9.66a27.12,27.12,0,0,0,1.65,4.58,14.05,14.05,0,0,1,.54,1.34,22.55,22.55,0,0,1,.22,4v.55c0,.13,0,.3,0,.51a9.3,9.3,0,0,1-.2,2.89l0,.07-.14.26s0,0,0,0a.46.46,0,0,0-.17.32l-1.1,2.05A31.11,31.11,0,0,0,87.92,73.5c-3.74-.1-7.22-.38-12-1A77.19,77.19,0,0,0,66.44,72c-.71,0-1.38,0-2,0h-.18c-1,0-3.08.12-5.32.25-2.83.16-5.77.33-6.94.3h-.28c-1.81,0-5.39.45-8.25.81-1.59.2-3,.37-3.54.4a20.91,20.91,0,0,0-2.29.37,22.32,22.32,0,0,1-3.75.53h-.17a.51.51,0,0,0-.42.21.49.49,0,0,0-.06.47,6,6,0,0,0,1.13,1.72,4,4,0,0,1,1,1.66l-2.43.1a73.61,73.61,0,0,0-7.82.55c-1.67.24-3.12.52-4.28.74l-1.37.26a17.07,17.07,0,0,0-3.64,1.2.5.5,0,0,0,0,.88,25.34,25.34,0,0,1,4.68,4.32,37.73,37.73,0,0,0-5.21,1.43c-1.19.41-2.28.85-3.34,1.27l-1.66.66a.5.5,0,0,0-.18.82c.1.1,2.31,2.3,2.92,2.79.42.33.75.65,1.1,1s.71.68,1.17,1a15,15,0,0,0,3.42,2.14,41.5,41.5,0,0,0,11.91,3.29c.33,0,.7.1,1.08.17a9.48,9.48,0,0,0,2.66.2,6.26,6.26,0,0,0,.73-.17,1,1,0,0,1,.3-.07,1.83,1.83,0,0,1,.75.31c.79.45,1.57.93,2.35,1.41A38.18,38.18,0,0,0,43,105.58c4,1.77,20,4.48,23.23,4.82l.69.07c3,.31,6.07.63,9.13.77q.61,0,1.23,0c1.45,0,2.87-.1,4.13-.18l.63,0c1.54-.1,17.56-1.53,23.17-3.21A16.46,16.46,0,0,0,110.9,105l.5-.35c.56-.38,1.19-.76,1.86-1.15a15.51,15.51,0,0,0,4.45-3.42c2.75-3.61,2.67-8.44,2.6-12.7l0-1.49a33.66,33.66,0,0,0-.74-5.29c-.21-1.13-.43-2.29-.59-3.35,0-.28-.07-.56-.1-.83a6.07,6.07,0,0,0-.91-3c-.24-.47-.43-.8-.65-1.16s-.54-.92-1-1.77a7.45,7.45,0,0,0-.56-.83,8.81,8.81,0,0,1-.54-.79,4.75,4.75,0,0,1,.5-4.35,8.69,8.69,0,0,1,6.44-3.79c1.49-.11,3.25-.14,5.1-.16s3.74-.06,5.4-.18a15.61,15.61,0,0,0,4.83-1.06,1.65,1.65,0,0,0,.64-1.27.93.93,0,0,0-.44-.77C136,56.11,133.73,55.85,131.5,55.59ZM19.25,84a8.44,8.44,0,0,0,1.63-.76,7.86,7.86,0,0,1,1.19-.61l.7-.32c.22-.1.44-.21.67-.3l.36-.12c.47-.13,1.06-.29,1.29-.73a.37.37,0,0,0-.17-.5.36.36,0,0,0-.5.16c-.08.15-.56.28-.82.35a4.38,4.38,0,0,0-.43.14,7,7,0,0,0-.73.33c-.21.1-.42.2-.65.29a10.41,10.41,0,0,0-1.29.66,7.25,7.25,0,0,1-1.72.78.26.26,0,0,0-.13.06c-.53-.49-1.07-.95-1.58-1.34a14.8,14.8,0,0,1,2.57-.76L21,81.1c1.21-.24,2.58-.5,4.23-.74A73.83,73.83,0,0,1,33,79.82l2.12-.09h.09a154.74,154.74,0,0,1,19.64.69c2,.16,4,.32,6.07.45l3.19.2c3.47.21,6.75.41,10.21.78a21.57,21.57,0,0,1,2.74.57,22.06,22.06,0,0,0,2.75.58A21.26,21.26,0,0,1,86,84.92a36.33,36.33,0,0,1,6.18,3.55,8.82,8.82,0,0,0,1.35.78c.94.47,1.83.93,2.07,1.76a43,43,0,0,1-4.18,1.32c-5.63,1.54-11.78,1.34-17.75,1.11a.62.62,0,0,1,0-.21A1.43,1.43,0,0,1,74,93a2.13,2.13,0,0,0,.32-.26.37.37,0,0,0-.54-.52,2.13,2.13,0,0,1-.22.18,1.62,1.62,0,0,0-.5.48,1,1,0,0,0-.14.57l-1.24,0a.86.86,0,0,1,.24-.28,3.47,3.47,0,0,1,.29-.25,4.28,4.28,0,0,0,.59-.55.38.38,0,0,0-.58-.48,5.19,5.19,0,0,1-.48.45l-.34.28a1.46,1.46,0,0,0-.47.79c-.75,0-1.51-.07-2.29-.13L68.59,93l.18-.15a.84.84,0,0,1,.27-.17,1.14,1.14,0,0,0,.32,0,1.73,1.73,0,0,0,.44-.25l.13-.1.15-.08a1.54,1.54,0,0,0,.59-.47.38.38,0,0,0-.63-.41,1,1,0,0,1-.32.22l-.19.1-.18.13a1.23,1.23,0,0,1-.22.15H69a.86.86,0,0,0-.46.15,1.71,1.71,0,0,0-.26.21,1.19,1.19,0,0,1-.25.18.4.4,0,0,0-.2.27,1,1,0,0,0,0,.36L66.6,93a1.51,1.51,0,0,1,.2-.17,5.21,5.21,0,0,1,.55-.36l.2-.13A3.09,3.09,0,0,0,68,92a2.37,2.37,0,0,1,.41-.33l.31-.13a1.7,1.7,0,0,0,.76-.44.36.36,0,0,0,0-.53.38.38,0,0,0-.53,0,1.15,1.15,0,0,1-.47.25l-.4.17a3.07,3.07,0,0,0-.56.43,3.17,3.17,0,0,1-.35.29l-.2.12c-.2.13-.41.26-.6.4a1.48,1.48,0,0,0-.46.47.7.7,0,0,0-.07.22l-1.38-.18c0-.11,0-.23.06-.27a2.93,2.93,0,0,0,.42,0,1.61,1.61,0,0,0,.48-.27,1.88,1.88,0,0,1,.18-.12,6.68,6.68,0,0,0,.67-.41l.35-.23.18-.1a3.12,3.12,0,0,0,.92-.73.38.38,0,1,0-.59-.47,2.37,2.37,0,0,1-.72.55l-.18.11-.38.25c-.2.13-.4.26-.61.37l-.25.17a1.68,1.68,0,0,1-.26.16,2.15,2.15,0,0,0-.39,0,.82.82,0,0,0-.63.9l-1.41-.21c.08-.2.2-.28.56-.42l.34-.11a2.42,2.42,0,0,0,.94-.44,4.32,4.32,0,0,0,.44-.42,1.9,1.9,0,0,1,.68-.55.38.38,0,1,0-.25-.71,2.55,2.55,0,0,0-1,.74,3.06,3.06,0,0,1-.36.36,1.75,1.75,0,0,1-.68.3l-.39.13a1.43,1.43,0,0,0-1,1l-1.16-.19-.17,0L59.84,92c0-.06,0-.11,0-.16s0-.23,0-.24a.89.89,0,0,1,.26,0,1.32,1.32,0,0,0,.39-.06,4.19,4.19,0,0,0,1.36-.88,6.54,6.54,0,0,1,.8-.59l.27-.16a2.15,2.15,0,0,1,.63-.31.38.38,0,0,0-.15-.74,2.78,2.78,0,0,0-.87.41l-.25.15a6.45,6.45,0,0,0-.91.67,3.65,3.65,0,0,1-1.11.74l-.21,0a1,1,0,0,0-.73.25,1.13,1.13,0,0,0-.26.67.78.78,0,0,1,0,.14l-1.8-.36.5-.32.26-.15a2.87,2.87,0,0,1,.56-.25,3.55,3.55,0,0,0,.75-.34c.38-.24.74-.47,1.14-.68a2.92,2.92,0,0,0,.34-.23,1.46,1.46,0,0,1,.43-.24.38.38,0,0,0-.15-.74,2.05,2.05,0,0,0-.72.37,1.28,1.28,0,0,1-.26.17c-.41.23-.8.47-1.19.73a2.91,2.91,0,0,1-.59.26,3.33,3.33,0,0,0-.71.31l-.25.15a6.42,6.42,0,0,0-1,.74l-1-.28a7.28,7.28,0,0,1,1.83-.91,8.42,8.42,0,0,0,1.89-.9l.25-.14c.15-.09.3-.16.46-.24l.56-.29a.39.39,0,0,0,.13-.52.4.4,0,0,0-.52-.13c-.15.1-.33.18-.5.27s-.34.16-.51.26l-.25.14a7.78,7.78,0,0,1-1.72.83,8.93,8.93,0,0,0-2.47,1.3l-.05,0c-.27-.09-.53-.2-.79-.31l.1,0a2.61,2.61,0,0,1,.52-.32l.44-.14a4.23,4.23,0,0,0,.63-.21,9.5,9.5,0,0,0,.89-.48,7.75,7.75,0,0,1,1.19-.59,3.09,3.09,0,0,0,1.1-.6.38.38,0,0,0,0-.53.37.37,0,0,0-.53,0,2.37,2.37,0,0,1-.84.46,7.13,7.13,0,0,0-1.33.64c-.27.16-.53.31-.82.45a4.51,4.51,0,0,1-.52.17,5.25,5.25,0,0,0-.52.17,3.1,3.1,0,0,0-.67.39A3.34,3.34,0,0,1,53,90l-.07.06a9.73,9.73,0,0,1-1.22-.71l.15-.06.25-.09A16,16,0,0,0,55,87.79l.12-.07a.51.51,0,0,0,.51-.12.41.41,0,0,0,.13-.47,2.4,2.4,0,0,1,.6-.28l.4-.16A.38.38,0,1,0,56.4,86l-.34.13a3.38,3.38,0,0,0-.79.38A.65.65,0,0,0,55,87h0a1.16,1.16,0,0,0-.45.19,14.7,14.7,0,0,1-2.75,1.37l-.25.1a7.51,7.51,0,0,0-1.18.51l-.3.18a11.43,11.43,0,0,0-1.23.77,5.36,5.36,0,0,1-.89.48,6.46,6.46,0,0,0-.89.48,7.63,7.63,0,0,1-1.58.75l-.37.13c-.3.12-.59.26-.88.39l-.71.32a3.06,3.06,0,0,0-1.34,1,.37.37,0,0,0,.06.52.34.34,0,0,0,.23.08.37.37,0,0,0,.3-.14,2.34,2.34,0,0,1,1-.74l.75-.34c.27-.13.55-.26.83-.37l.36-.13a8.12,8.12,0,0,0,1.74-.83,5.9,5.9,0,0,1,.79-.42,6,6,0,0,0,1-.56A9.66,9.66,0,0,1,50.44,90l.23-.13,0,.29a7.15,7.15,0,0,0-1.07.63,6.28,6.28,0,0,1-.94.56l-.46.2a8.74,8.74,0,0,0-1.86,1l-.15.12a6.34,6.34,0,0,1-.82.57l-.18.12a2.79,2.79,0,0,1-.28.16l-.27.15a.77.77,0,0,1-.18.1,9.76,9.76,0,0,0-.91.46l-.52.33c-.16.11-.31.2-.47.29l-.1,0s0,0,0,.05a3,3,0,0,0-.88.69,3.44,3.44,0,0,1-.35.3l-.23.17-.15.14a1.42,1.42,0,0,1-.21.17.38.38,0,0,0-.15.09,2.91,2.91,0,0,1-.42-.25l.31-.28.19-.19a2.07,2.07,0,0,1,.25-.15,2,2,0,0,0,.32-.2.37.37,0,1,0-.46-.59,1.16,1.16,0,0,1-.22.13,2.21,2.21,0,0,0-.36.23,3,3,0,0,0-.26.25,1.62,1.62,0,0,1-.3.26.36.36,0,0,0-.21.31h-.07a.61.61,0,0,0-.19.2l-.06,0a3,3,0,0,0-.51.41,3.37,3.37,0,0,1-.35.29,5.9,5.9,0,0,0-.62.5,4.49,4.49,0,0,1-.57.41l-.25.06a1,1,0,0,0-.43.35,1.3,1.3,0,0,1-.29.08,1.11,1.11,0,0,0-.73.33,1.27,1.27,0,0,0-.23.75v0a10,10,0,0,0-.82-.67,5.17,5.17,0,0,1-.82-.7A29.23,29.23,0,0,0,30,94.73l-.28-.25a.37.37,0,0,0,.05-.48l-.12-.21a.56.56,0,0,0,.23-.29,1.69,1.69,0,0,0,.31.13,1.74,1.74,0,0,0,.67.06.38.38,0,0,0,.32-.42.53.53,0,0,0-.13-.27l.52-.37.12-.08a2.4,2.4,0,0,1,.88-.29,5.29,5.29,0,0,0,.54-.13A8.62,8.62,0,0,0,35,91.27a8,8,0,0,1,1.82-.83l.12,0a1.83,1.83,0,0,0,1.17-.65h.13a.44.44,0,0,0,.32-.37l.12,0a2.57,2.57,0,0,0,.44-.22l.16-.1a2.19,2.19,0,0,1,1-.18h.12a1,1,0,0,0,.79-.23,2.1,2.1,0,0,0,.31-.37.92.92,0,0,1,.17-.22c.16-.15.22-.16.27-.16H42a1.11,1.11,0,0,0,.82-.24l.39-.27a7.68,7.68,0,0,0,1.05-.82.37.37,0,1,0-.52-.54,6.44,6.44,0,0,1-1,.74l-.4.28a.37.37,0,0,1-.35.1h-.12a1.12,1.12,0,0,0-.8.37,2.16,2.16,0,0,0-.27.33,1.26,1.26,0,0,1-.19.24s-.07.05-.26,0h-.14a2.7,2.7,0,0,0-1.36.28,1.18,1.18,0,0,0-.19.11,3,3,0,0,1-.3.16l-.1,0a.67.67,0,0,0-.42.28.48.48,0,0,0-.36.25c-.08.27-.31.35-.8.47l-.13,0a8.46,8.46,0,0,0-2,.9,8.73,8.73,0,0,1-1.7.8l-.47.11a3,3,0,0,0-1.16.4l-.11.08c-.2.14-.4.28-.63.46a.9.9,0,0,0-.33.34,1,1,0,0,0-.64-.14.39.39,0,0,0-.25.2,1.19,1.19,0,0,0-.1.28h0a.4.4,0,0,0-.27.14.37.37,0,0,0-.09.28.53.53,0,0,1,0,.12c-.47-.44-.93-.89-1.36-1.38a30,30,0,0,0-3.16-3.23,6.44,6.44,0,0,1-.64-.6,8.3,8.3,0,0,0-.73-.67l-.85-.7h.07a3.43,3.43,0,0,0,.47,0l.16,0H23a1.3,1.3,0,0,0,.75-.18,1.21,1.21,0,0,0,.25-.28,2.48,2.48,0,0,1,.26-.19A5.75,5.75,0,0,1,24.9,86c.37-.19.75-.34,1.13-.5l.6-.25a3.48,3.48,0,0,0,.43-.22c.09,0,.18-.11.29-.16l.25-.1a1.84,1.84,0,0,0,.6-.29,2.76,2.76,0,0,0,.3-.29,1.11,1.11,0,0,1,.29-.25c.17-.09.27-.06.58.05l.1,0a.39.39,0,0,0,.48-.23.37.37,0,0,0-.23-.48l-.1,0a1.34,1.34,0,0,0-1.18,0,1.89,1.89,0,0,0-.49.41,2.08,2.08,0,0,1-.21.21,2,2,0,0,1-.39.18l-.33.13a3.65,3.65,0,0,0-.34.18,2.89,2.89,0,0,1-.35.19l-.58.24c-.4.16-.8.32-1.23.54-.23.12-.47.24-.7.39a3,3,0,0,0-.35.27,1.23,1.23,0,0,0-.18.22,1,1,0,0,1-.33,0h-.25l-.19,0a1.26,1.26,0,0,1-.51,0,.38.38,0,0,0-.5.15c-.22-.28-.53-.65-.91-1.06h.3l.56,0a.35.35,0,0,0,.27-.14.37.37,0,0,0,.07-.3c0-.19,0-.25.56-.42l.28-.09c.23-.08.44-.17.65-.26a9.07,9.07,0,0,1,.87-.32l.41-.12a4.15,4.15,0,0,0,2.58-1.47.38.38,0,0,0-.6-.45A3.54,3.54,0,0,1,24.37,83l-.42.12a7,7,0,0,0-.94.35c-.2.08-.41.17-.62.24l-.25.08c-.35.1-1,.28-1.08.85H20.4a.37.37,0,0,0-.32.19ZM42.4,95.83a5.58,5.58,0,0,0,.45,1l.18.33L42.41,97c-.36-.07-.72-.14-1.07-.23v0l.12-.1.2-.15a4,4,0,0,0,.44-.38ZM45.62,94l.06,0c0,.1.06.2.08.3A4.77,4.77,0,0,0,46,95a2.76,2.76,0,0,1-.7.42h0s-.07.08-.1.11a12.84,12.84,0,0,1-1.59-.52c.11-.08.23-.15.35-.22a6.27,6.27,0,0,1,.82-.41,2.91,2.91,0,0,0,.3-.17l.17-.1A2.32,2.32,0,0,0,45.62,94Zm.83,1.72.15.18.1.11-.07,0-.41-.1Zm.24-2.46.14-.11a8,8,0,0,1,1.7-.89L49,92a7.49,7.49,0,0,0,1-.63,8.71,8.71,0,0,1,.78-.48c.05.19.11.38.17.57h0a1.55,1.55,0,0,1-.39.21,6.67,6.67,0,0,0-.85.42l-.43.27a3.77,3.77,0,0,1-1.11.59.37.37,0,0,0-.31.43.38.38,0,0,0,.37.31h.07a4.06,4.06,0,0,0,1.4-.69l.39-.25c.19-.11.39-.21.6-.31a4.68,4.68,0,0,0-.49.33,5.57,5.57,0,0,0-.56.51,3,3,0,0,1-.84.66.35.35,0,0,0-.15.12A7.1,7.1,0,0,1,46.69,93.21Zm3.52.6a5.45,5.45,0,0,1,.49-.45,4.49,4.49,0,0,1,.78-.47l.1,0c.06.12.12.25.19.37a1,1,0,0,1-.37.22l-.15.08a2.56,2.56,0,0,0-.94.91h0l-.64-.13A5.11,5.11,0,0,0,50.21,93.81Zm1.37.37.14-.06a2.55,2.55,0,0,0,.41-.24l0,0c.19.34.37.69.55,1-.52-.15-1.06-.27-1.59-.38A1.67,1.67,0,0,1,51.58,94.18Zm-10.51,7.61a14,14,0,0,1,1,2.2q-1.11-.6-2.19-1.26a2.54,2.54,0,0,1,.54-.69,1.28,1.28,0,0,1,.2-.11,1.32,1.32,0,0,0,.39-.26S41,101.75,41.07,101.79ZM37,101a1.89,1.89,0,0,0,.06-.18.8.8,0,0,1,.23-.42,1.53,1.53,0,0,1,.62-.38l.15,0a1.43,1.43,0,0,0,.59-.2.94.94,0,0,0,.28-.29.43.43,0,0,1,.07-.1,1.68,1.68,0,0,1,.27-.09,1.37,1.37,0,0,0,.57-.23c.12.29.25.59.38.88h0a3.22,3.22,0,0,1-.71.46,2.55,2.55,0,0,0-.33.17,5.49,5.49,0,0,0-1.21,1C37.6,101.36,37.29,101.16,37,101Zm-2.79-.41a8.54,8.54,0,0,1-2.34-.2c-.4-.07-.79-.14-1.14-.17A40.49,40.49,0,0,1,19.08,97a14,14,0,0,1-3.2-2,13.39,13.39,0,0,1-1.1-1c-.35-.33-.71-.67-1.17-1s-1.51-1.4-2.28-2.17l.95-.39c1.05-.42,2.12-.85,3.29-1.25a31,31,0,0,1,5.87-1.51s0,0,.08,0c.3.27.63.53,1,.79a6.69,6.69,0,0,1,.66.61,8.88,8.88,0,0,0,.68.64A27.74,27.74,0,0,1,26.9,92.8a28.13,28.13,0,0,0,2.61,2.5,27.71,27.71,0,0,1,3.29,3.24,6.57,6.57,0,0,0,.94.82c.57.42,1,.75,1.08,1.06h0A4.75,4.75,0,0,1,34.18,100.57Zm1.4-.23a.64.64,0,0,0-.06-.18.35.35,0,0,0,.11-.1,1.64,1.64,0,0,0,.14-.6,1.21,1.21,0,0,1,0-.33,1.3,1.3,0,0,1,.29-.08,1.38,1.38,0,0,0,.6-.2A1.41,1.41,0,0,0,37,98.6a.2.2,0,0,1,.1,0,1,1,0,0,0,.44-.17c.17-.13.34-.28.51-.42s.37-.32.57-.46a3.71,3.71,0,0,0,.42-.35l.15-.12a10.61,10.61,0,0,0,.38,1.25.29.29,0,0,0-.16.15.69.69,0,0,1-.29.1,1.4,1.4,0,0,0-.57.24,1.19,1.19,0,0,0-.22.25.49.49,0,0,1-.08.1.92.92,0,0,1-.29.08l-.21,0a2.53,2.53,0,0,0-1,.58,1.41,1.41,0,0,0-.41.75h0A2.59,2.59,0,0,0,35.58,100.34Zm3,1.61a4.57,4.57,0,0,1,.92-.72l.3-.16a4.25,4.25,0,0,0,.7-.43l.08.18.08.17a.35.35,0,0,0-.13.11c-.05.07-.1.09-.22.15a1.41,1.41,0,0,0-.34.18,3.24,3.24,0,0,0-.74.91l-.24-.15Zm74.87.24a7.85,7.85,0,0,0,1.07-1.09l.19-.22a6.52,6.52,0,0,1,1.88-1.42.37.37,0,0,0,.24.08A12.91,12.91,0,0,1,113.45,102.19Zm3.92-3.41a.53.53,0,0,1,.07-.24.38.38,0,0,1,.12-.09C117.5,98.56,117.44,98.67,117.37,98.78Zm1.29-17.47c0,.83-.88,1.8-1.56,2.5l-.41.43a.38.38,0,0,0,0,.53.35.35,0,0,0,.25.1.35.35,0,0,0,.28-.13l.39-.41a9.87,9.87,0,0,0,1.28-1.54c.07.39.13.76.18,1.12a.35.35,0,0,0-.12.17,3.15,3.15,0,0,1-.86,1.12l-.28.29-.11.12a6.48,6.48,0,0,0-1,1.28,3.59,3.59,0,0,1-1.27,1.3,4.3,4.3,0,0,0-1.24,1.3l-.11.18a2.76,2.76,0,0,1-1,1.23.38.38,0,0,0-.19.5.37.37,0,0,0,.34.22.32.32,0,0,0,.16,0,3.32,3.32,0,0,0,1.37-1.53l.11-.19a3.61,3.61,0,0,1,1-1.06,4.6,4.6,0,0,0,1.48-1.55,5.9,5.9,0,0,1,.89-1.13l.11-.11c.09-.09.18-.19.28-.28s.4-.41.58-.63c0,.27,0,.54,0,.77,0,.42,0,.84,0,1.27a.39.39,0,0,0-.13.2c-.07.31-.41.57-.73.82-.13.1-.25.19-.36.29a6.56,6.56,0,0,0-1.18,1.46l-.1.16a1.88,1.88,0,0,1-.42.54.46.46,0,0,1-.17.07,1.44,1.44,0,0,0-.53.28,4.22,4.22,0,0,0-.63.81,4.67,4.67,0,0,1-.36.51,3.76,3.76,0,0,1-1.07.84.38.38,0,0,0-.06.75h0c.66,0,1.64-1.09,1.65-1.1a5.79,5.79,0,0,0,.42-.59,3.13,3.13,0,0,1,.51-.66.65.65,0,0,1,.25-.13,1.3,1.3,0,0,0,.37-.16,2.46,2.46,0,0,0,.63-.77l.09-.15a5.74,5.74,0,0,1,1-1.3,3,3,0,0,1,.32-.26q.21-.16.42-.36c0,.51,0,1,0,1.53a.5.5,0,0,0-.08.12,6.07,6.07,0,0,1-1,1.58,1.22,1.22,0,0,1-.37.29,2.26,2.26,0,0,0-.46.34,1.34,1.34,0,0,0-.25.47l0,.12a.67.67,0,0,0-.89.34,1.06,1.06,0,0,0-.12.58c0,.16,0,.19-.06.25a1.94,1.94,0,0,1-.38.26,2.22,2.22,0,0,0-.56.38l-.38.32a5.46,5.46,0,0,0-.45.39c-.31.29-.63.61-1,1,0,0,0-.09,0-.13a.38.38,0,0,0-.29-.39.36.36,0,0,0-.43.21,3,3,0,0,1-.65.86l-.24.25a9.58,9.58,0,0,1-1.72,1.4c-.26.18-.53.36-.8.56a14.63,14.63,0,0,0-1.3,1.12l-.08.08a3.65,3.65,0,0,1-.7.58l-.2.08a1.6,1.6,0,0,0-.43.22A.59.59,0,0,0,106,101a.84.84,0,0,0-.53.26c-.31.2-.6.4-.9.61a13.31,13.31,0,0,1-2,1.2,8.8,8.8,0,0,0-1.5.85.4.4,0,0,1-.13.07,1.34,1.34,0,0,0-.37.25,1.41,1.41,0,0,0-.21.35,1.13,1.13,0,0,0-.1.13l0,0,0,0a.38.38,0,1,0-.35.67.94.94,0,0,0,.44.12.72.72,0,0,0,.58-.35l.07-.09a.75.75,0,0,0,.12-.21.52.52,0,0,1,.07-.11.4.4,0,0,1,.16-.09l.23-.13a7.4,7.4,0,0,1,1.37-.79,13.56,13.56,0,0,0,2.11-1.27c.28-.19.57-.39.87-.58l.08-.06v0a.62.62,0,0,0,.27.4.56.56,0,0,0,.46,0,.78.78,0,0,0,.3-.27.63.63,0,0,0,0-.3l.14,0a2,2,0,0,0,.3-.14,4.2,4.2,0,0,0,.86-.69l.08-.08c.46-.43.84-.76,1.23-1.06l.78-.55a10,10,0,0,0,1.85-1.51l.22-.23.16-.17a.64.64,0,0,0,.35.22.38.38,0,0,0,.39-.11c.52-.58,1-1,1.39-1.44.13-.12.28-.24.42-.35l.41-.35a2,2,0,0,1,.41-.28,2.18,2.18,0,0,0,.55-.38.94.94,0,0,0,.28-.8.38.38,0,0,1,0-.19h0a.7.7,0,0,0,.6,0,1.05,1.05,0,0,0,.38-.57.71.71,0,0,1,.08-.19,1.14,1.14,0,0,1,.32-.23,2.61,2.61,0,0,0,.54-.44,7.5,7.5,0,0,0,.48-.62,22.91,22.91,0,0,1-.26,2.64,2.87,2.87,0,0,0-1.47.75l-.08.07a4.55,4.55,0,0,0-.62.53,1.86,1.86,0,0,0-.31.46,1.46,1.46,0,0,1-.15.24,1.93,1.93,0,0,1-.5.28A2.79,2.79,0,0,0,115,97a3.32,3.32,0,0,0-.47.61,4,4,0,0,1-.35.46,2.94,2.94,0,0,1-1.07.66,1.14,1.14,0,0,1-.24,0,1.6,1.6,0,0,0-.63.25,2.58,2.58,0,0,0-.36.38,2.4,2.4,0,0,1-.21.23,15,15,0,0,1-2.28,1.79l-.34.21a8.43,8.43,0,0,0-1,.64,2.53,2.53,0,0,0-.39.42c-.29.36-.32.37-.56.22a.38.38,0,0,0-.46.06.35.35,0,0,0-.14-.35.38.38,0,0,0-.52.07,4.47,4.47,0,0,1-1.16.93,6.65,6.65,0,0,0-1.14.88l-.25.3a1.21,1.21,0,0,1-.35.36l-.36.21a3.87,3.87,0,0,0-.61.38,2,2,0,0,1-1.2.55.36.36,0,0,0-.38.36.36.36,0,0,0,.36.38H101a2.91,2.91,0,0,0,1.64-.71,2.33,2.33,0,0,1,.5-.31l.4-.23a2.36,2.36,0,0,0,.55-.54,2.12,2.12,0,0,1,.2-.24,5.48,5.48,0,0,1,1-.77,5.39,5.39,0,0,0,1.3-1.06.4.4,0,0,0,.17.36,1.21,1.21,0,0,0,.62.2,1.23,1.23,0,0,0,.92-.59,3,3,0,0,1,.28-.31c.25-.19.57-.39.88-.58l.36-.22a16.77,16.77,0,0,0,2.38-1.86c.09-.09.19-.2.28-.31a1.56,1.56,0,0,1,.23-.26.63.63,0,0,1,.31-.11,2.85,2.85,0,0,0,.35-.08,3.8,3.8,0,0,0,1.38-.86,4.44,4.44,0,0,0,.42-.55,3.14,3.14,0,0,1,.38-.5,1.83,1.83,0,0,1,.63-.38,2.34,2.34,0,0,0,.71-.42,1.67,1.67,0,0,0,.31-.44,1,1,0,0,1,.17-.28,4.88,4.88,0,0,1,.55-.47l.09-.07a3.62,3.62,0,0,1,.86-.57,13,13,0,0,1-.77,2.48.38.38,0,0,0-.4.17s-.11.08-.25.13a1.45,1.45,0,0,0-.62.4,1.24,1.24,0,0,0-.21.59s0,0,0,.08c-1,0-2.46,1.62-2.48,1.64l-.19.23a4,4,0,0,1-1.57,1.32.38.38,0,0,0-.27.46.36.36,0,0,0,.36.28h.1a2.36,2.36,0,0,0,.28-.12l-.1.06c-.68.4-1.33.78-1.92,1.19l-.5.34a15.48,15.48,0,0,1-4.74,2.53,2.21,2.21,0,0,1,.34-.26,9.83,9.83,0,0,0,1.79-1.26.38.38,0,0,0-.49-.57,9.67,9.67,0,0,1-1.65,1.18,3.47,3.47,0,0,0-.69.52,2.59,2.59,0,0,1-.77.53.37.37,0,0,0-.33.37C97.5,108.69,83.25,110,82,110.05l-.63,0a49.45,49.45,0,0,1-5.25.15c-3-.14-6.1-.45-9.07-.76l-.69-.08c-3.8-.39-19.18-3.08-22.92-4.73l-.28-.14A8.71,8.71,0,0,0,42,101.32c-.18-.34-.34-.65-.46-.91l-.14-.32a25.55,25.55,0,0,1-1.07-2.61,10.71,10.71,0,0,0,1.95.49,11.75,11.75,0,0,1,1.41.33.47.47,0,0,0,.47-.09.49.49,0,0,0,.18-.45,4,4,0,0,0-.57-1.47l-.08-.14a25.85,25.85,0,0,0,2.76.77l1.14.27A.48.48,0,0,0,48,97.1a.45.45,0,0,0,.19-.4,2.55,2.55,0,0,0-.8-1.5,4.36,4.36,0,0,1-.39-.51l-.09-.2a14.45,14.45,0,0,0,3.4,1,13.64,13.64,0,0,1,3.15.86.5.5,0,0,0,.68-.63A18.42,18.42,0,0,0,53,93.44a11.46,11.46,0,0,1-1.22-2.76c2.46,1.4,5.63,1.95,8.23,2.41l.17,0a81.07,81.07,0,0,0,11,1.23l2,.07c6.18.24,12.56.49,18.48-1.12a25.73,25.73,0,0,0,8.71-3.7.5.5,0,0,0-.6-.8,16.53,16.53,0,0,1-3.26,1.83A4.4,4.4,0,0,0,94,88.36a8.68,8.68,0,0,1-1.2-.69A37.37,37.37,0,0,0,86.43,84a22.26,22.26,0,0,0-6.53-2,23.63,23.63,0,0,1-2.62-.56,21,21,0,0,0-2.88-.59c-3.49-.38-6.78-.58-10.26-.79L61,79.88c-2-.13-4-.29-6.06-.45a165.71,165.71,0,0,0-18.54-.73,4.54,4.54,0,0,0-1.25-2.28c-.22-.27-.43-.52-.61-.78a31.66,31.66,0,0,0,3.3-.52A18.5,18.5,0,0,1,40,74.77c.61,0,1.93-.2,3.61-.41,2.84-.35,6.38-.8,8.13-.8h.25c1.2,0,4.17-.14,7-.3,2.23-.13,4.34-.25,5.26-.25h.16l2,0a76.92,76.92,0,0,1,9.34.5c4.83.58,8.34.86,12.11,1,4.26.13,10.73,2.63,12.1,3.8a.5.5,0,0,0,.42.11.51.51,0,0,0,.35-.25l1.51-2.82a2.33,2.33,0,0,0,.24-.41,4.55,4.55,0,0,1,3.7-1.58h.14a3.05,3.05,0,0,1,2.1.93,5.47,5.47,0,0,0,1.18.77,7.32,7.32,0,0,1-1.36,2.42,14.23,14.23,0,0,0-1.07,1.59.38.38,0,0,0,.16.51.34.34,0,0,0,.17.05.35.35,0,0,0,.33-.2,12.89,12.89,0,0,1,1-1.51,7.92,7.92,0,0,0,1.46-2.66,2.85,2.85,0,0,0,.52.06H111a3.93,3.93,0,0,0,.71-.09,2,2,0,0,0-.09.22,4.81,4.81,0,0,0-.18.65,4.75,4.75,0,0,1-.14.54,4.39,4.39,0,0,1-1.68,2.2.38.38,0,0,0,.14.73.4.4,0,0,0,.15,0A5,5,0,0,0,112,76.89a4.3,4.3,0,0,0,.18-.64,5.09,5.09,0,0,1,.14-.56l.12-.29a3.12,3.12,0,0,0,.19-.49c.31-.14.6-.29.89-.44a5.23,5.23,0,0,1,2.78-.83h0a1.13,1.13,0,0,1,.78.27c.12.25.25.54.4.89a.4.4,0,0,0,.1.15,14.49,14.49,0,0,1,.25,1.57c0,.27.07.55.11.84s.13.75.19,1.14a.79.79,0,0,0-.52.08,1.49,1.49,0,0,0-.54,1,2.17,2.17,0,0,1-.1.33,2.8,2.8,0,0,1-.66.81l-.15.13a9.41,9.41,0,0,0-1.36,1.79c-.21.32-.42.64-.65,1a.38.38,0,0,0,.08.53.34.34,0,0,0,.22.07.36.36,0,0,0,.3-.15c.25-.33.46-.66.68-1a8.46,8.46,0,0,1,1.25-1.64l.14-.14a3.33,3.33,0,0,0,.83-1,3.27,3.27,0,0,0,.15-.47c0-.16.12-.48.25-.52a.34.34,0,0,0,.2,0c.09.51.19,1,.29,1.53C118.59,80.94,118.62,81.12,118.66,81.31Zm-3.77-17.4a4.88,4.88,0,0,0,.09,6.26c.17.24.41.57.46.67a20.45,20.45,0,0,0,1,1.82l-.16,0a6.29,6.29,0,0,0-3.2,1,4.51,4.51,0,0,1-2.08.72h-.12a2.53,2.53,0,0,1-1.77-.81,4.07,4.07,0,0,0-2.71-1.15h-.17a6.09,6.09,0,0,0-3.37,1,17.89,17.89,0,0,0,0-1.79c0-.19,0-.36,0-.48v-.53c0-1,0-2.28-.1-3.32a1.91,1.91,0,0,0,.14-.79,1.5,1.5,0,0,1,.08-.61c.11-.21.24-.41.37-.61s.3-.46.43-.7a8.83,8.83,0,0,1,.8-1.26c.24-.31.45-.63.66-.95l.41-.61.25-.3a2.38,2.38,0,0,0,.72-1.33.42.42,0,0,0-.38-.37.37.37,0,0,0-.37.38c0,.19-.34.59-.54.83s-.22.26-.29.36-.28.42-.42.63-.41.62-.64.91a10.4,10.4,0,0,0-.87,1.36,5.2,5.2,0,0,1-.39.64c-.14.22-.28.43-.4.66q-.12-.32-.3-.72c-.29-.67-.65-1.5-1-2.35a3.84,3.84,0,0,0,.44-.46,2.57,2.57,0,0,1,.3-.33,5.64,5.64,0,0,0,1.18-1.27,8.1,8.1,0,0,1,1.51-1.47l.64-.55a8.14,8.14,0,0,0,1-1.06.36.36,0,0,0-.07-.52.37.37,0,0,0-.52.06,8,8,0,0,1-.9,1l-.62.53a9.25,9.25,0,0,0-1.64,1.61,5,5,0,0,1-1,1.12,2.86,2.86,0,0,0-.41.43l-.15.17c-.13-.43-.26-.85-.35-1.26s-.11-.57-.16-.9a4.6,4.6,0,0,0,1.13-.92l.13-.12a9.23,9.23,0,0,0,1-1.19,7.93,7.93,0,0,1,.81-1l.22-.24c.17-.19.34-.4.5-.6s.42-.52.65-.76l.46-.43c.22-.21.44-.41.64-.62a.38.38,0,0,0-.55-.51c-.18.19-.39.39-.6.58l-.48.45c-.25.26-.48.54-.7.82s-.31.38-.48.56l-.21.24a10,10,0,0,0-.88,1,7,7,0,0,1-.91,1.08l-.13.13a7,7,0,0,1-.68.62,19.59,19.59,0,0,1,0-3.43,5.29,5.29,0,0,0,.41-.41,3.18,3.18,0,0,1,.25-.26,5.84,5.84,0,0,1,.9-.71l.15-.09a6.93,6.93,0,0,0,1.09-.77,4.86,4.86,0,0,1,.91-.73c.18-.11.37-.24.56-.38a3.2,3.2,0,0,1,.68-.43c.1-.05.16-.08.18-.2s0,0,.17-.12a.37.37,0,0,0-.39-.64,1.23,1.23,0,0,0-.39.33,6,6,0,0,0-.7.46,4.68,4.68,0,0,1-.49.33,6.91,6.91,0,0,0-1.11.88,5.26,5.26,0,0,1-.89.63l-.16.09a7.82,7.82,0,0,0-1,.79h0a10,10,0,0,1,.56-2.06l.3-.31a2,2,0,0,1,.43-.41A1.25,1.25,0,0,1,102,51a3.06,3.06,0,0,0,.41-.1,4.44,4.44,0,0,0,1-.57,3.08,3.08,0,0,1,.54-.28c.18-.08.36-.16.52-.25l.32-.22a1.9,1.9,0,0,1,.5-.31.37.37,0,0,0,.37-.37.39.39,0,0,0-.38-.38,1.89,1.89,0,0,0-.94.46l-.24.17a4.54,4.54,0,0,1-.45.21,4.52,4.52,0,0,0-.68.36,3.71,3.71,0,0,1-.84.47l-.31.07-.12,0a8.57,8.57,0,0,1,7.66-3.18c2,.33,3.46,1.54,5,2.82A17.63,17.63,0,0,0,118,52.36c.61.29,1.57.71,2.24,1-.24.07-.5.14-.77.2l-.6.14a6.16,6.16,0,0,1-1.48.24.5.5,0,0,0-.2,1,2.67,2.67,0,0,1,1,.69,4.55,4.55,0,0,0,.63.51,2.37,2.37,0,0,1,.62.55l.06.08a11.86,11.86,0,0,0,.83,1.11,16.89,16.89,0,0,1,1.38,1.86A9.71,9.71,0,0,0,114.89,63.91Zm12.38-4.42c-1.58,0-3.08,0-4.43.12-.22-.36-.46-.71-.71-1.06l1.59.08.69,0,1.59.12c1.42.11,3.38.26,4.32.3.4,0,.79.07,1.17.12s.76.09,1.14.11h0C131,59.43,129.09,59.46,127.27,59.49ZM137,58.43a9.69,9.69,0,0,1-1.09.33.46.46,0,0,0-.31-.17c-1.05-.14-2-.23-2.86-.28-.36,0-.71-.06-1.08-.1s-.82-.1-1.24-.12c-.94-.05-2.89-.2-4.3-.31l-1.61-.12-.7,0-2.43-.12h0c-.09-.1-.16-.21-.25-.31a10.22,10.22,0,0,1-.77-1l-.06-.09a3.34,3.34,0,0,0-.87-.79,3.58,3.58,0,0,1-.49-.4l-.15-.14.33-.08.56-.13a9.88,9.88,0,0,0,1.11-.3,4.38,4.38,0,0,0,.5-.23,2.91,2.91,0,0,1,.44-.19l0,0a5.77,5.77,0,0,1,1.11.23c.29.11.57.24.85.37a1.42,1.42,0,0,0-1.09.48s-.26.1-.31.67.74,1,1.62.85.63-1.49,0-1.89l.51.22a21.27,21.27,0,0,0,3,1.19,26.23,26.23,0,0,0,4,.67c2.11.24,4.29.49,5.76,1.43A.62.62,0,0,1,137,58.43Z"/><path d="M111.66,50.6a1.51,1.51,0,0,0-.41.06h0a.35.35,0,0,0-.25-.16,1.42,1.42,0,0,0-1.78,1.17,2.13,2.13,0,0,0,.42,2.27,2,2,0,0,0,1.4.49h0a3.06,3.06,0,0,0,1.19-.25,1.47,1.47,0,0,0,.86-1.94C112.81,50.81,112.07,50.6,111.66,50.6Zm.28,2.89a2.13,2.13,0,0,1-.89.19h0a1.32,1.32,0,0,1-.89-.29,1.47,1.47,0,0,1-.21-1.51c.18-.61.42-.66.69-.66h.1a.7.7,0,0,0-.4.62c-.07.68.64,1,1.27.95.4-.07.43-.3.43-.66l-.34-.58a1.41,1.41,0,0,0-.18-.17.83.83,0,0,1,.15,0c.44,0,.64.73.71,1C112.51,53.07,112.43,53.28,111.94,53.49Z"/><path d="M131.14,48.73a5.93,5.93,0,0,1,.56.43c.13.11.26.22.4.32l.44.29a2.52,2.52,0,0,1,.71.54.47.47,0,0,0,.22.2,1.5,1.5,0,0,1,.33.24,3.23,3.23,0,0,0,.49.34.49.49,0,0,0,.23.06.5.5,0,0,0,.23-.95,2.28,2.28,0,0,1-.31-.22,2.53,2.53,0,0,0-.43-.32,3.38,3.38,0,0,0-.94-.74c-.14-.09-.27-.17-.37-.25l-.37-.28a4.58,4.58,0,0,0-.66-.5A.5.5,0,0,0,131,48,.49.49,0,0,0,131.14,48.73Z"/><path d="M139.41,50.19h.12a.5.5,0,0,0,.49-.38,7.67,7.67,0,0,0,.19-1.26c0-.28.06-.57.11-.85l.05-.3a11.76,11.76,0,0,0,.25-2,.5.5,0,0,0-.5-.5.49.49,0,0,0-.5.5,11.77,11.77,0,0,1-.23,1.82l-.06.3c-.05.31-.08.62-.12.93a7.55,7.55,0,0,1-.16,1.12A.5.5,0,0,0,139.41,50.19Z"/><path d="M144.61,51.36l.18,0a.36.36,0,0,0,.12-.08l.32-.18a4.15,4.15,0,0,0,.57-.35l.31-.23a5.45,5.45,0,0,0,.74-.61c.26-.27.93-.81,1.16-1a.49.49,0,0,0,.08-.7.5.5,0,0,0-.7-.08,16,16,0,0,0-1.26,1.09,4.07,4.07,0,0,1-.61.49l-.34.25a3.66,3.66,0,0,1-.42.26l-.18.1a.48.48,0,0,0-.44.35s0,0,0,.07,0,.07,0,.1a.51.51,0,0,0,.51.55Z"/><path d="M147.92,65.43a2.74,2.74,0,0,0,.08.37,2.94,2.94,0,0,0,.24.62c0,.1.09.2.12.3a25.5,25.5,0,0,0,1.94,3.75l.43.72a16.45,16.45,0,0,1,1.07,2.31,2.13,2.13,0,0,1,.21.88c-.2.05-.39.12-.57.18a.5.5,0,0,0,.35.94l.19-.07a.41.41,0,0,0,.18,0,.59.59,0,0,0,.22,0,.89.89,0,0,0,.24-.18,3.06,3.06,0,0,1,1.38,0,17.37,17.37,0,0,0,2.57.4c.87.07,1.63.11,2.33.11a16.93,16.93,0,0,0,2.22-.14c.11,0,.26,0,.42,0,.67,0,1.59-.06,2-.71a.5.5,0,1,0-.86-.52c-.07.12-.38.18-.68.2l-.3-.63a59.22,59.22,0,0,0-6.18-9.31l-.32-.43c-1.72-2.27-5.3-5.77-6.15-6.16-.23-.1-5.53-2.46-8.53-2a2,2,0,0,0-1.93,2.26A5.36,5.36,0,0,0,140,61a7,7,0,0,0,2.8,1.89c.88.37,1.84.81,2.79,1.25.78.36,1.55.72,2.28,1A1.57,1.57,0,0,1,147.92,65.43ZM143.19,62a6,6,0,0,1-2.45-1.65,5.21,5.21,0,0,1-1-1.44A8.07,8.07,0,0,1,142,60c.34.21.69.42,1.05.61a.46.46,0,0,0,.23.06.5.5,0,0,0,.23-1c-.33-.17-.66-.37-1-.58a8,8,0,0,0-2.93-1.25.8.8,0,0,1,.29-.47l.65.12a4.8,4.8,0,0,1,.81.18c.34.11.71.23,1,.36a22.63,22.63,0,0,1,2.23,1.06.46.46,0,0,0,.23.06.49.49,0,0,0,.44-.27.5.5,0,0,0-.21-.68,21.88,21.88,0,0,0-2.34-1.11h0a26.15,26.15,0,0,1,5.92,1.83,35.69,35.69,0,0,1,5.76,5.84l.33.44a58.56,58.56,0,0,1,6.07,9.15,2.1,2.1,0,0,1,.13.26,20.53,20.53,0,0,1-4.26,0,15.44,15.44,0,0,1-2.42-.39,3.67,3.67,0,0,0-1.23-.06,3.74,3.74,0,0,0-.27-1.05,18.29,18.29,0,0,0-1.14-2.44l-.43-.73a23.19,23.19,0,0,1-1.86-3.6l-.15-.35a2.58,2.58,0,0,1-.18-.46,1.67,1.67,0,0,1-.06-.29,3.16,3.16,0,0,0-.16-.62.51.51,0,0,0-.27-.27c-.78-.33-1.62-.72-2.46-1.11S144.09,62.37,143.19,62Z"/><path d="M283.2,90.66c-.11,0-.22-.08-.33-.12a3.42,3.42,0,0,0-.54-.18.27.27,0,0,0-.06-.1,7.4,7.4,0,0,1-.6-.81,9.33,9.33,0,0,0-.7-.92,21,21,0,0,0-2.24-2.08c-.38-.32-.76-.64-1.12-1l-.85-.75c-.37-.32-.76-.65-1.07-1a18.11,18.11,0,0,0-3.45-2.71c-.79-.45-1.57-.91-2.35-1.37a44,44,0,0,0-6.52-3.36c-.7-.26-1.35-.53-2-.8l-1.71-.69-.31-.12a21.47,21.47,0,0,0-2.7-.92l-1-.25c-1.21-.29-2.38-.56-3.58-.89a21.82,21.82,0,0,0-5.61-.7c-2.23,0-4.19-.11-6-.21a27.48,27.48,0,0,0-5.1.25c-.78.1-1.54.27-2.27.43a18.67,18.67,0,0,1-2.4.44,23.81,23.81,0,0,0-5.46,1.29,11,11,0,0,1-4.81.77c-1.07-.12-2.07-.24-3.13-.44a17.7,17.7,0,0,1-2.81-.73,26.16,26.16,0,0,1-5.2-2.84A37.52,37.52,0,0,1,204,66.82a19.37,19.37,0,0,1-3.79-4.48A8,8,0,0,1,199,58c0-.58-.05-1.18-.07-1.77,0-1.15-.1-2.3-.1-3.42a.52.52,0,0,0-.24-.39.6.6,0,0,0-.49,0,2.3,2.3,0,0,1-.23-.8c0-.11,0-.21,0-.3-.13-.62-.28-1.18-.48-1.87a8.27,8.27,0,0,1-.22-1.35c0-.21,0-.41-.07-.61s-.12-.67-.18-1a11.48,11.48,0,0,1-.21-1.24v-.11a3.41,3.41,0,0,0,.67-.91.5.5,0,0,0-.25-.66.45.45,0,0,0-.42,0,2.06,2.06,0,0,0-.15-.58.5.5,0,0,0-.66-.25.49.49,0,0,0-.24.66,3.32,3.32,0,0,1,.06,1.13v.15l-.48.39a5.63,5.63,0,0,0-1.77,2.88l-.24.68a5.37,5.37,0,0,1-.66,1.36l-.2.26a2.27,2.27,0,0,0-.55,1c-1.37,0-3.42.13-5,.25l-1.36.1a22.06,22.06,0,0,0-2.29.28l-.43,0a5.79,5.79,0,0,0-.6.07,1.44,1.44,0,0,0-.47.19,2,2,0,0,0,0-.24,5.42,5.42,0,0,0-.33-1.27l-.05-.12c-.24-.54-.51-1.16-.8-1.71a4.27,4.27,0,0,0-.85-1.07c-.13-.12-.26-.26-.39-.4a2.34,2.34,0,0,1-.43-1c0-.13-.07-.26-.11-.4a4.69,4.69,0,0,0-.33-.72,2.25,2.25,0,0,1-.3-.76v0a.5.5,0,0,0-1,0v.06a7.94,7.94,0,0,1-.18,1.35,8,8,0,0,0-.2,1.59c0,.34,0,.67,0,1a10.73,10.73,0,0,1,0,2,.53.53,0,0,0,0,.18c0,.06,0,.12,0,.23a.53.53,0,0,0,0,.22,6.53,6.53,0,0,1-.36,2.36,1.53,1.53,0,0,1-.16.31,2,2,0,0,0-.33.93,2.17,2.17,0,0,0,.1.62.89.89,0,0,1,0,.47,4.27,4.27,0,0,1-.42,1,4.84,4.84,0,0,0-.54,1.44,4.07,4.07,0,0,0,.14,1.61,6.07,6.07,0,0,1,.13.69l0,.31a7.08,7.08,0,0,1,.14,1.53l-.06,0-.3-.15-.47-.21a2.86,2.86,0,0,1-.7-.35c-.11-.08-.2-.17-.3-.25a3.13,3.13,0,0,0-.5-.4l-.09-.07a1,1,0,0,0-.63-.26.5.5,0,0,0-1,.16V61a.73.73,0,0,0,.25.62.79.79,0,0,0,.68.1l.07,0,.16.12a2.49,2.49,0,0,1,.36.3c.12.11.24.22.37.32a4.22,4.22,0,0,0,.92.47c.14.06.28.11.41.18l.29.14a11.5,11.5,0,0,0,1.07.5,6.18,6.18,0,0,1,.64.28c.17.08.33.16.49.22a.43.43,0,0,0,.19,0,.49.49,0,0,0,.46-.3.5.5,0,0,0-.26-.66l-.44-.2a7.84,7.84,0,0,0-.72-.32,5.12,5.12,0,0,0-.07-2.11l-.05-.29c0-.28-.09-.53-.15-.78a5.43,5.43,0,0,1-.12-.76,3.47,3.47,0,0,0,1,1.47,3.54,3.54,0,0,0,2.15,1h0a.86.86,0,0,0,.84-.65,1.49,1.49,0,0,0-.14-1,13.79,13.79,0,0,0-1.39-1.54,2.53,2.53,0,0,0-2.14-.67l.09-.18a5.65,5.65,0,0,0,.5-1.24,1.85,1.85,0,0,0,0-.93,1.33,1.33,0,0,1-.07-.37,1.6,1.6,0,0,1,.2-.44,3.19,3.19,0,0,0,.23-.45,8.23,8.23,0,0,0,.43-3,11.32,11.32,0,0,0,.08-2.39c0-.32,0-.64,0-1a6.64,6.64,0,0,1,.1-1,1.21,1.21,0,0,1,0,.18,3.25,3.25,0,0,0,.65,1.38c.14.17.29.32.43.46a3.59,3.59,0,0,1,.68.83c.27.52.52,1.09.76,1.64l0,.12a4.54,4.54,0,0,1,.27,1,5.27,5.27,0,0,0,.22,1,.49.49,0,0,0,.58.33,1.58,1.58,0,0,0,.61-.3,1.08,1.08,0,0,1,.27-.15,3.91,3.91,0,0,1,.48,0l.4,0c0,.07,0,.13,0,.2a4.9,4.9,0,0,0-.11.63c0,.13,0,.27,0,.42a2.08,2.08,0,0,1-.06.65.51.51,0,0,0,0,.4.53.53,0,0,0,.3.27.91.91,0,0,0,.23,0h.15a.51.51,0,0,0,.4-.59.44.44,0,0,0-.06-.16c0-.21,0-.42,0-.61s0-.23,0-.34a4.2,4.2,0,0,1,.08-.47,3.78,3.78,0,0,0,.1-.57l.38,0a6.2,6.2,0,0,1,0,.71c0,.76-.09,1.32.38,1.52a.65.65,0,0,0,.19,0,.5.5,0,0,0,.46-.31.46.46,0,0,0-.06-.49,5.71,5.71,0,0,1,0-.69,5.45,5.45,0,0,0,0-.88l1-.07a3.79,3.79,0,0,1,0,.76,3.8,3.8,0,0,0,0,.46v.14a1,1,0,0,0,.26.93.7.7,0,0,0,.46.16l.24,0a.48.48,0,0,0,.34-.58.52.52,0,0,0-.31-.35.17.17,0,0,1,0-.07v-.2c0-.12,0-.25,0-.39a4.61,4.61,0,0,0,0-.91l1.61-.11a2.85,2.85,0,0,1-.13,1.6.5.5,0,0,0,.12.7.52.52,0,0,0,.29.09.48.48,0,0,0,.4-.21,3.47,3.47,0,0,0,.33-2.23,18.8,18.8,0,0,1,2,0,.49.49,0,0,0,.53-.46,1.3,1.3,0,0,1,.4-1l.21-.27a5.71,5.71,0,0,0,.79-1.63l.25-.69a5,5,0,0,1,1.39-2.36c0,.25.09.51.14.76s.12.61.17.92,0,.39.07.59a9.09,9.09,0,0,0,.25,1.52c.19.67.34,1.2.46,1.8,0,.07,0,.16,0,.25a2,2,0,0,0,.7,1.5,1.33,1.33,0,0,0,.24.11c0,1,.06,2,.1,2.93,0,.59.05,1.18.07,1.76a9.13,9.13,0,0,0,.68,3.45l-.27,0a.63.63,0,0,1-.23,0,1.3,1.3,0,0,1-.21-.17,2.24,2.24,0,0,0-.32-.26,2,2,0,0,0-1.15-.23,1.41,1.41,0,0,1-.63-.07.38.38,0,0,0-.5.19.37.37,0,0,0,.18.49,2,2,0,0,0,1,.14,1.37,1.37,0,0,1,.74.12,1.4,1.4,0,0,1,.2.17,1.8,1.8,0,0,0,.36.28,1.19,1.19,0,0,0,.55.13l.21,0a.31.31,0,0,0,.13,0,.38.38,0,0,0,.26-.13c.12.24.24.47.39.71a20,20,0,0,0,4,4.7,38.72,38.72,0,0,0,5.34,4.22,26.74,26.74,0,0,0,5.4,2.94,18.65,18.65,0,0,0,3,.77c1.1.21,2.12.33,3.2.45a11.93,11.93,0,0,0,5.26-.82,22.43,22.43,0,0,1,5.23-1.23,22,22,0,0,0,2.52-.46c.71-.16,1.44-.33,2.17-.42a26.49,26.49,0,0,1,4.93-.24c1.81.1,3.78.16,6,.21a21.23,21.23,0,0,1,5.36.66c1.22.33,2.39.61,3.61.9l1,.25a21.23,21.23,0,0,1,2.58.88l.31.12,1.69.68c.67.28,1.33.55,2,.82a42.43,42.43,0,0,1,6.36,3.28c.79.47,1.57.93,2.37,1.38A17.31,17.31,0,0,1,275,84.51c.32.31.71.65,1.1,1s.58.5.83.73.75.66,1.14,1a20.43,20.43,0,0,1,2.15,2,6.47,6.47,0,0,1,.61.82c.13.18.25.36.39.53a3,3,0,0,0-.52.48,2,2,0,0,1-.44.4,12.79,12.79,0,0,1-2.84.95l-.92.24c-2.37.67-5.14,1.23-7.17,1.63a37.94,37.94,0,0,1-8.13.75A26.79,26.79,0,0,1,253,93.37c-.83-.28-1.7-.53-2.54-.76-.59-.16-1.17-.32-1.74-.5a5.54,5.54,0,0,1-1.07-.52,4,4,0,0,0-2.08-.71.5.5,0,0,0-.49.43c-.19,1.41-1.57,2-3,2.62l-.92.4a13.86,13.86,0,0,1-3.95,1.06.35.35,0,0,0-.18-.28l-.2-.12-.3-.18-.11,0a4.41,4.41,0,0,1-.95-.37c-.27-.12-.54-.25-.81-.34s-.61-.17-.92-.24a7.32,7.32,0,0,1-1.28-.38,3.3,3.3,0,0,0-1.21-.22c-.14,0-.3,0-.46,0a2,2,0,0,1-.72,0,.37.37,0,0,0-.33.67,2.28,2.28,0,0,0,1.07.13c.14,0,.27,0,.39,0h.09a2.6,2.6,0,0,1,.87.15,7.37,7.37,0,0,0,1.41.43c.29.07.58.14.87.23a5.38,5.38,0,0,1,.71.3,5,5,0,0,0,1.08.41h0l-.64.06a25.82,25.82,0,0,1-11-1.33,31.45,31.45,0,0,1-3.1-1.49c-.47-.25-.95-.51-1.44-.75l-.39-.21a1.48,1.48,0,0,0-2,0c-.19.16-.36.32-.53.48a5.62,5.62,0,0,1-1.28,1c-3,1.63-5.59,1.7-9.22,1.27l-1-.1A11.85,11.85,0,0,1,201,93.36a3.21,3.21,0,0,1-.78-.78,4.26,4.26,0,0,0-.92-.93l-.55-.37c-.32-.22-.59-.4-1-.73a.48.48,0,0,0-.55,0,6,6,0,0,1-.82.37,4.2,4.2,0,0,0-.49-1.46,6.83,6.83,0,0,0-1.35-1.76.37.37,0,0,0-.53,0,.39.39,0,0,0,0,.53,6,6,0,0,1,1.21,1.56c.53,1.07.41,1.31.4,1.34l0,0c-.45.12-.91.22-1.37.32l-.47.1h-.08a.44.44,0,0,0-.15-.18,2.3,2.3,0,0,0-.65-1.31l-.39-.49a6.31,6.31,0,0,1-1-1.39.37.37,0,0,0-.49-.2.39.39,0,0,0-.2.5A6.92,6.92,0,0,0,191.93,90l.39.48c.32.4.56.72.45,1a.42.42,0,0,0,0,.16,28,28,0,0,1-2.92.34,0,0,0,0,1,0,0,1.69,1.69,0,0,1-.09-.66,2.54,2.54,0,0,0-.13-1,3.64,3.64,0,0,0-.34-.63,1.61,1.61,0,0,1-.33-.81.37.37,0,0,0-.41-.34.36.36,0,0,0-.34.4,2.37,2.37,0,0,0,.44,1.15,2.72,2.72,0,0,1,.28.51,2,2,0,0,1,.08.69,4.28,4.28,0,0,0,.07.72c-.84,0-1.68,0-2.48,0-.14,0-.28,0-.42,0a4.55,4.55,0,0,0,0-.53,3.15,3.15,0,0,1-.05-.43c0-.1,0-.21,0-.33a2.45,2.45,0,0,0-.09-1,.38.38,0,0,0-.5-.19.37.37,0,0,0-.19.49,2.2,2.2,0,0,1,0,.7c0,.14,0,.27,0,.39a3.31,3.31,0,0,0,.06.53c0,.12,0,.23,0,.34l-.46,0c-.56-.07-1.12-.14-1.71-.17l-.77-.06a.36.36,0,0,0-.09-.3,1.83,1.83,0,0,1,0-.47c0-.09,0-.09.18-.2A1.38,1.38,0,0,0,183,89a.37.37,0,0,0-.69.29.61.61,0,0,1-.25.81,1,1,0,0,0-.49.71,2.24,2.24,0,0,0,.06.79,15.26,15.26,0,0,1-2.3-.43c.08-.15.14-.3.2-.44a2.32,2.32,0,0,1,.19-.42c.11-.18.23-.38.34-.58s.22-.39.34-.58a2.18,2.18,0,0,0,.39-.57.51.51,0,0,0-.2-.64A.5.5,0,0,0,180,88c-.11.15-.22.3-.31.45a1.33,1.33,0,0,1-.78.13,2.39,2.39,0,0,0,0-.59,2.35,2.35,0,0,1,.06-.63,2.7,2.7,0,0,1,1.15-1.73l.13-.06a.51.51,0,0,0,.25-.66.49.49,0,0,0-.65-.26l-.17.08-.1,0c-.29.13-.64.29-1,.42a10.33,10.33,0,0,1,1.7-3.89.5.5,0,0,0,0-.57.49.49,0,0,0-.52-.24,3.87,3.87,0,0,0-1.08.43l-.27.14a7.28,7.28,0,0,1,.31-2.5,10.5,10.5,0,0,0,.31-1.56.5.5,0,0,0-1-.27.68.68,0,0,1-.49.33,4,4,0,0,1-.06-1.48q0-.19,0-.33c0-.48,0-.93,0-1.37a13.56,13.56,0,0,1,.25-3,7.06,7.06,0,0,0,1.73,1,6.47,6.47,0,0,0,2.46.56,3.6,3.6,0,0,0,1.5-.31A12,12,0,0,0,185.48,71c.27-.2.54-.41.81-.59a5.07,5.07,0,0,0,.56-.48c.21.22.41.44.62.68s.5.58.78.85a3.33,3.33,0,0,0,.39.35,3.09,3.09,0,0,1,.57.58.48.48,0,0,0,.42.23.56.56,0,0,0,.27-.08.5.5,0,0,0,.15-.69,3.81,3.81,0,0,0-.76-.79c-.12-.11-.24-.2-.33-.3-.26-.26-.5-.54-.73-.81s-.47-.52-.73-.78a6.25,6.25,0,0,0,.92-2.11l.24,0h.23a1.8,1.8,0,0,1,.56.15l.37.14.15,0a.5.5,0,0,0,.15-1l-.31-.11a2.76,2.76,0,0,0-.86-.22h-.24a3.59,3.59,0,0,1-.65-.07,3.19,3.19,0,0,1-.44-.13l-.41-.12a5.32,5.32,0,0,0-1.12-.17,3.87,3.87,0,0,1-1.4-.15.49.49,0,0,0-.65.27.51.51,0,0,0,.27.65,5.16,5.16,0,0,0,1.79.23,4.28,4.28,0,0,1,.86.14l.35.11.13,0a5.44,5.44,0,0,1-.67,1.62l-.13-.11-.73-.63-.13-.12a2.58,2.58,0,0,0-.36-.31,3.47,3.47,0,0,0-.46-.27,3.15,3.15,0,0,1-.63-.43.5.5,0,0,0-.71,0,.51.51,0,0,0,0,.71,3.67,3.67,0,0,0,.86.61,2.5,2.5,0,0,1,.39.23,1.3,1.3,0,0,1,.22.19l.16.16.75.64.13.11c-.13.11-.25.23-.39.33s-.57.41-.86.62a10.3,10.3,0,0,1-1.71,1.13A4.16,4.16,0,0,1,180,71.1a5,5,0,0,1-3.29-4.65.49.49,0,0,0-.53-.46.48.48,0,0,0-.41.28l-.17.12a3.31,3.31,0,0,1-1,.58,9,9,0,0,0-1.59.91c-.21.14-.39.26-.5.32a2.14,2.14,0,0,1-.35.16,2.45,2.45,0,0,0-.75.43,3.06,3.06,0,0,1-.54.34c-.19.11-.41.23-.67.41a.5.5,0,0,0-.13.7.51.51,0,0,0,.41.21.52.52,0,0,0,.29-.09,5.24,5.24,0,0,1,.58-.35,3.83,3.83,0,0,0,.71-.46,1.48,1.48,0,0,1,.48-.26,4.8,4.8,0,0,0,.47-.22l.55-.35a10.29,10.29,0,0,1,1.33-.79,3.83,3.83,0,0,0,1-.49,5.86,5.86,0,0,0,1.25,2.74.4.4,0,0,0-.1.18,13.09,13.09,0,0,0-.36,3.56c0,.43,0,.87,0,1.33,0,.08,0,.18,0,.3-.07.84-.16,2,.49,2.39a1.18,1.18,0,0,0,.8.13c0,.1,0,.2-.08.3a7.17,7.17,0,0,0-.22,3.51.49.49,0,0,0,.54.37,2.12,2.12,0,0,0,.51-.13,14.89,14.89,0,0,0-1.2,3.75.47.47,0,0,0,.13.45.5.5,0,0,0,.45.14l.22,0a7.09,7.09,0,0,0-.25.73,3.6,3.6,0,0,0-.09.91,1,1,0,0,1-.22.79.5.5,0,0,0,0,.55.48.48,0,0,0,.49.25c.24,0,.46,0,.67,0H179l-.09.14a3.43,3.43,0,0,0-.27.58c-.1.25-.21.53-.35.59a.49.49,0,0,0-.29.47.48.48,0,0,0,.31.45,17.67,17.67,0,0,0,4.87.87c.57,0,1.11.11,1.64.18s1.12.14,1.7.17a28.42,28.42,0,0,0,7.47-.56l.46-.1a12.65,12.65,0,0,0,3-.88c.31.24.54.4.82.58l.53.36a3.8,3.8,0,0,1,.71.73,4.26,4.26,0,0,0,1,1,12.47,12.47,0,0,0,5.06,1.21l.95.1c3.75.45,6.56.36,9.81-1.37a6.78,6.78,0,0,0,1.5-1.16l.49-.46c.23-.2.29-.19.82.12.13.08.28.17.44.25.48.24,1,.48,1.42.73a31.77,31.77,0,0,0,3.21,1.54,25.58,25.58,0,0,0,9,1.5c.83,0,1.68,0,2.51-.1a18.18,18.18,0,0,0,5.9-1.33c.28-.14.57-.26.88-.39,1.45-.61,3.08-1.3,3.54-2.93a4.26,4.26,0,0,1,1.18.54,6.19,6.19,0,0,0,1.27.6c.58.18,1.18.35,1.77.51.83.23,1.68.47,2.48.75A28.38,28.38,0,0,0,261.2,96a39.19,39.19,0,0,0,8.34-.77c2-.4,4.84-1,7.24-1.65l.9-.23a13,13,0,0,0,3.08-1,2.84,2.84,0,0,0,.7-.61,1.61,1.61,0,0,1,.36-.34c.15-.09.3,0,.66.11a3.61,3.61,0,0,0,.42.16.51.51,0,0,0,.63-.33A.51.51,0,0,0,283.2,90.66ZM179.26,60.44c-.06.15-.09.15-.14.15h0v0a2.45,2.45,0,0,1-1.36-.58,2,2,0,0,0,.5-.24,4.84,4.84,0,0,0,.44-.3c.16.19.33.38.49.59A.76.76,0,0,1,179.26,60.44Zm-2.73-2.3a1.9,1.9,0,0,1,.94.2,9.07,9.07,0,0,1-.17,1.23v0a2.55,2.55,0,0,1-.78-1.38Z"/><path d="M187.32,56c-.29-.1-.63.06-1,.5s-.87.89-1.46,1.41c-.3.27-1,1-1.24,1.26a.37.37,0,0,0,0,.53.38.38,0,0,0,.25.09.39.39,0,0,0,.28-.12c.24-.27.9-.95,1.18-1.19.61-.55,1.12-1,1.51-1.47l.2-.19a.35.35,0,0,0,.32.14.38.38,0,0,0,.34-.41A.58.58,0,0,0,187.32,56Z"/><path d="M179.29,56.83a4.68,4.68,0,0,1,.46.39,4.87,4.87,0,0,1,.57.7.87.87,0,0,1,.09.17c.14.28.29.59.59.65h.08a.36.36,0,0,0,.36-.3.36.36,0,0,0-.21-.41c0-.06-.11-.2-.15-.28a1.57,1.57,0,0,0-.13-.23,4.84,4.84,0,0,0-.66-.82,4.19,4.19,0,0,0-.54-.46,2.76,2.76,0,0,1-.79-.82.37.37,0,0,0-.5-.18.36.36,0,0,0-.18.49A3.14,3.14,0,0,0,179.29,56.83Z"/><path d="M170.39,64.19c.38.08.77.2,1.17.31a14.86,14.86,0,0,0,1.75.42c.46.08.82.14,1.19.24s.59.18.88.28l.42.14a3,3,0,0,1,1,.48.5.5,0,0,0,.35.14.47.47,0,0,0,.35-.15.48.48,0,0,0,0-.7,3.51,3.51,0,0,0-1.41-.72l-.4-.14c-.31-.1-.63-.21-.94-.29a9.49,9.49,0,0,0-1.29-.26,14.48,14.48,0,0,1-1.64-.4c-.41-.12-.82-.24-1.23-.33a.51.51,0,0,0-.6.38A.52.52,0,0,0,170.39,64.19Z"/><path d="M189.23,58.12a6.16,6.16,0,0,0-1.07.11,3,3,0,0,0-1.25.53,3.37,3.37,0,0,1-.32.19,2.77,2.77,0,0,0-.57.37,7.71,7.71,0,0,0-1.32,1.36,1,1,0,0,0-.13.33v0a.38.38,0,0,0,0,.69.08.08,0,0,0,.06,0h.07a8.3,8.3,0,0,0,.92.19,2.5,2.5,0,0,0,.4,0c.18,0,.36,0,.52,0a.34.34,0,0,0,.24-.11,1.78,1.78,0,0,1,.52-.41,2.81,2.81,0,0,0,.38-.26,2.26,2.26,0,0,1,.28-.19,5.86,5.86,0,0,0,.82-.65,2.58,2.58,0,0,0,.38-.43l.16-.22a2.41,2.41,0,0,0,.36-.93l0-.17a.4.4,0,0,0-.11-.32A.43.43,0,0,0,189.23,58.12Zm-2.92,3.1a2.57,2.57,0,0,1-.62,0l-.38-.07s0,0,0,0a7.47,7.47,0,0,1,1-1.09,1.89,1.89,0,0,1,.24.26c.11.15.17.36.28.52A2.49,2.49,0,0,0,186.31,61.22Zm2.39-2-.2.26a1.68,1.68,0,0,1-.26.3,4.55,4.55,0,0,1-.71.57l-.07,0a1.84,1.84,0,0,0,0-.41c0-.19.06-.49.06-.75a2.3,2.3,0,0,1,.71-.27l.55-.08A1.07,1.07,0,0,1,188.7,59.22Z"/><path d="M190.45,62.75H190a5.25,5.25,0,0,0-.69.13L189,63a5.69,5.69,0,0,1-.68.18q-.72.12-1.44.27a5.5,5.5,0,0,0-1.08.34l-.13.07-.21.09-.32,0-.2,0h-.57a.51.51,0,0,0-.62.34.49.49,0,0,0,.32.62,1.43,1.43,0,0,0,.53,0h.25l.28,0h0a2.9,2.9,0,0,0,.58-.08,2.43,2.43,0,0,0,.37-.16l.1,0a4.17,4.17,0,0,1,.88-.27c.46-.1.93-.19,1.4-.27a4.83,4.83,0,0,0,.81-.21l.29-.09a3.29,3.29,0,0,1,.53-.1h.14a1.36,1.36,0,0,0,.51-.06.51.51,0,0,0,.31-.64A.5.5,0,0,0,190.45,62.75Z"/><path d="M180.59,66c0,.35-.06.6-.08.81a2.49,2.49,0,0,0-.32.2,5.4,5.4,0,0,0-.56.48c-.45.41-.7.62-1.15.59a.5.5,0,1,0-.08,1,2.34,2.34,0,0,0,1.91-.85c.14-.12.28-.26.44-.38a.51.51,0,0,0,.26.09.32.32,0,0,0,.14,0l.11,0c.17.14.32.31.48.47l.17.19.24.29a5.05,5.05,0,0,0,.56.58.51.51,0,0,0,.32.12.5.5,0,0,0,.39-.18.5.5,0,0,0-.06-.7,3.27,3.27,0,0,1-.44-.47c-.09-.11-.18-.22-.28-.32l-.16-.18a5.71,5.71,0,0,0-.66-.64,1.35,1.35,0,0,0-.31-.2c0-.23.05-.49.08-.71.06-.57.1-1,.11-1.27a5.92,5.92,0,0,0,.35-.48c.12-.18.25-.36.38-.52a1.76,1.76,0,0,0,.28-1.5.52.52,0,0,0-.27-.34,2.07,2.07,0,0,0-1-.21h-.19l-.5,0-.23,0a1.42,1.42,0,0,0-.36,0H180a.55.55,0,0,0-.4.25.59.59,0,0,0-.05.49,9.63,9.63,0,0,0,.39,1,6.24,6.24,0,0,0,.35.68l.4.58C180.7,65,180.64,65.58,180.59,66Zm.74-3.21h.11a1.62,1.62,0,0,1,.33,0,.67.67,0,0,1-.13.41c-.14.18-.27.36-.4.55a.88.88,0,0,1-.07-.12,6.45,6.45,0,0,1-.31-.58l-.13-.3Z"/><path d="M28.56,86.09c-.69.35-1.39.68-2.07,1l-1.12.56-.29.17a1.72,1.72,0,0,1-.7.3.39.39,0,0,0-.37.38.38.38,0,0,0,.38.37h0a2.13,2.13,0,0,0,1.07-.41l.26-.14c.36-.2.72-.38,1.09-.55.69-.33,1.39-.67,2.09-1a8.5,8.5,0,0,1,1-.38,6.42,6.42,0,0,0,1.37-.57l.23-.15a3.28,3.28,0,0,1,.31-.2l.14,0a.89.89,0,0,0,.48-.21.55.55,0,0,0,.14-.57l.28-.07a4,4,0,0,0,1.3-.51,4.4,4.4,0,0,0,1-.91.37.37,0,1,0-.62-.42,3.61,3.61,0,0,1-.8.71,3.43,3.43,0,0,1-1.06.4l-.19,0a.67.67,0,0,0-.54.42.72.72,0,0,0-.06.36l-.09,0a1.27,1.27,0,0,0-.3.09,3.34,3.34,0,0,0-.4.25l-.2.13a6.36,6.36,0,0,1-1.22.5A7.25,7.25,0,0,0,28.56,86.09Z"/><path d="M34.4,84.85a5.1,5.1,0,0,0-1,.73,1.57,1.57,0,0,1-.44.25,2.76,2.76,0,0,0-.4.18,2.6,2.6,0,0,0-.54.44,2.24,2.24,0,0,1-.38.31,1.65,1.65,0,0,1-.47.19,3,3,0,0,0-.61.25,3.89,3.89,0,0,0-.39.28,2.9,2.9,0,0,1-.36.25,1.59,1.59,0,0,1-.27.12l-.31.13a1.59,1.59,0,0,0-.27.18l-.13.1-.27.08a2.1,2.1,0,0,0-.24.06,2.33,2.33,0,0,0-1.05.8.8.8,0,0,0-.17.31l0,0a2.16,2.16,0,0,1-.57-.1.37.37,0,0,0-.49.21.36.36,0,0,0,.21.48,2.82,2.82,0,0,0,.86.16,1,1,0,0,0,.35-.06.72.72,0,0,0,.35-.43.53.53,0,0,1,.06-.13,1.8,1.8,0,0,1,.69-.56l.18,0a1.54,1.54,0,0,0,.46-.15,2.2,2.2,0,0,0,.25-.17.71.71,0,0,1,.14-.1,1.33,1.33,0,0,1,.24-.1l.36-.16a3.46,3.46,0,0,0,.46-.32l.31-.22a1.92,1.92,0,0,1,.46-.18,3.39,3.39,0,0,0,.64-.27,3.32,3.32,0,0,0,.49-.41,2.37,2.37,0,0,1,.41-.33,2,2,0,0,1,.3-.14,2.06,2.06,0,0,0,.67-.39,4.69,4.69,0,0,1,.86-.64l.48-.3c.26-.16.52-.33.79-.48a1.41,1.41,0,0,1,.84-.18.38.38,0,0,0,.38-.38.37.37,0,0,0-.38-.37,2,2,0,0,0-1.2.28c-.29.15-.56.32-.83.49Z"/><path d="M35.15,86.72a4.83,4.83,0,0,0-.45.32,2.26,2.26,0,0,1-.69.41.38.38,0,0,0,0,.75h.05l.21,0h0a3.89,3.89,0,0,1-.84.47l-.38.14a8.67,8.67,0,0,1-.9.31,2.41,2.41,0,0,1-.35.07l-.3.06a1.76,1.76,0,0,0-.78.47,1.57,1.57,0,0,1-1,.48.37.37,0,0,0-.31.26.54.54,0,0,0,0,.19l-.18,0a.38.38,0,0,0-.48.22.37.37,0,0,0,.22.48,2.25,2.25,0,0,0,.72.12,1,1,0,0,0,.66-.19.36.36,0,0,0,.12-.4,0,0,0,0,0,0,0,2.6,2.6,0,0,0,.8-.51l.07-.07a1,1,0,0,1,.4-.25l.25,0a3.58,3.58,0,0,0,.43-.08c.34-.1.65-.22,1-.34l.37-.14a4.67,4.67,0,0,0,1-.54l.39-.24.25-.13.35-.18a1.53,1.53,0,0,0,.16-.13s.08-.07.12,0a1,1,0,0,0,.31,0,.36.36,0,0,0,.3-.42.42.42,0,0,0-.45-.34.89.89,0,0,0-.37,0,.88.88,0,0,0-.39.23l-.08.06a2.1,2.1,0,0,1-.26.13l.11-.08.37-.26a6.87,6.87,0,0,1,1.18-.54A7.22,7.22,0,0,0,38.25,86a.76.76,0,0,1,.66-.1.38.38,0,0,0,.48-.22.37.37,0,0,0-.23-.48,1.43,1.43,0,0,0-1.32.18,6.65,6.65,0,0,1-1.39.73A8,8,0,0,0,35.15,86.72Z"/><path d="M38.31,87.08a1.89,1.89,0,0,0-.5.39,1.09,1.09,0,0,1-.24.21.66.66,0,0,1-.3,0,1.37,1.37,0,0,0-.35,0,.39.39,0,0,0-.29.21,1.69,1.69,0,0,0-.11.41c0,.06,0,.12,0,.13a.22.22,0,0,1-.18-.07.38.38,0,0,0-.53,0,.37.37,0,0,0,0,.53,1,1,0,0,0,.69.29.58.58,0,0,0,.19,0,.66.66,0,0,0,.49-.44c0-.1.05-.19.07-.29h0a1.15,1.15,0,0,0,.68-.13,1.58,1.58,0,0,0,.41-.34,1.28,1.28,0,0,1,.29-.24l.44-.21c.44-.21.9-.43,1.35-.69.94-.55,1-.87,1.09-1a.39.39,0,0,0-.23-.48.37.37,0,0,0-.48.23,2.71,2.71,0,0,1-.76.57,14.21,14.21,0,0,1-1.29.66Z"/><path d="M41.23,89.16a3.21,3.21,0,0,0-1.06.55l-.19.15c-.17.12-.34.25-.56.38a1.38,1.38,0,0,0-.25.17.69.69,0,0,0-.11.17.49.49,0,0,0-.24,0,.39.39,0,0,0-.23.24,1.07,1.07,0,0,0,0,.46s0,.13,0,.11l-.22.06a1.49,1.49,0,0,0-.25.07,7.6,7.6,0,0,0-1.25.61,4.65,4.65,0,0,0-.43.29,2.49,2.49,0,0,1-.63.36,4.47,4.47,0,0,0-1.63.76,1,1,0,0,1-.41.22l-.24,0a1.14,1.14,0,0,0-1,.54.27.27,0,0,0,0,.12.69.69,0,0,1-.25,0,.38.38,0,0,0-.43.31.36.36,0,0,0,.31.43l.3,0,.31,0a1.93,1.93,0,0,1,.34,0,.37.37,0,0,0,.3-.12.39.39,0,0,0,.09-.33.44.44,0,0,0-.06-.16l.2,0,.34-.07a1.81,1.81,0,0,0,.67-.36,3.58,3.58,0,0,1,1.41-.63,3,3,0,0,0,.81-.47c.12-.08.24-.17.36-.24a8,8,0,0,1,1.14-.56l.15,0a.94.94,0,0,0,.72-.43.9.9,0,0,0,.07-.27l.16,0a.37.37,0,0,0,.29-.38.91.91,0,0,1,0-.17l.11-.06.55-.39.19-.14a2.44,2.44,0,0,1,.82-.44A10.5,10.5,0,0,0,43.76,89a3.65,3.65,0,0,1,.93-.4.39.39,0,0,0,.28-.46.38.38,0,0,0-.46-.27,4.47,4.47,0,0,0-1.13.48A9.45,9.45,0,0,1,41.23,89.16Z"/><path d="M44.41,89.41a1.69,1.69,0,0,0-.82.32,2.39,2.39,0,0,0-.35.36,2,2,0,0,1-.29.29l-.07.05a.56.56,0,0,0-.29-.13c-.49-.06-1.19.62-1.19.63a1.13,1.13,0,0,0-.24.3h0a.64.64,0,0,0-.63.17.36.36,0,0,0-.07.43.82.82,0,0,0-.24.1l-.35.24a1.94,1.94,0,0,1-.74.4.3.3,0,0,0-.18.08l-.21.12a3.54,3.54,0,0,0-.33.19l-.71.55c-.34.26-.68.53-1,.76a2.68,2.68,0,0,1-.86.32l-.34.09a2.9,2.9,0,0,0-.78.41l-.29.19c-.36.21-.58.4-.63.74a.4.4,0,0,0-.42.16.38.38,0,0,0,.11.52,1,1,0,0,0,.47.13,1.16,1.16,0,0,0,.37-.07.38.38,0,0,0,.22-.41c0-.26,0-.26.25-.42l.34-.22a2.48,2.48,0,0,1,.57-.31l.32-.08A3.5,3.5,0,0,0,37,94.89c.38-.25.74-.52,1.1-.8l.71-.54a1.16,1.16,0,0,1,.22-.13,1.71,1.71,0,0,0,.23-.13,2.68,2.68,0,0,0,1-.52,2.73,2.73,0,0,1,.3-.21l.15,0a1.05,1.05,0,0,0,.4-.16.38.38,0,0,0,.09-.09.43.43,0,0,0,.25,0,.4.4,0,0,0,.3-.42.47.47,0,0,1,.16-.43,3.07,3.07,0,0,1,.53-.4.53.53,0,0,0,.3.15.86.86,0,0,0,.62-.22,2.15,2.15,0,0,0,.43-.42,3.07,3.07,0,0,1,.25-.26,1,1,0,0,1,.48-.16l.29-.06a5.38,5.38,0,0,0,1.28-.55,6.28,6.28,0,0,0,1-.71,5.81,5.81,0,0,1,.81-.62,4.22,4.22,0,0,1,.71-.31,4.8,4.8,0,0,0,.94-.46.37.37,0,0,0,.1-.52.38.38,0,0,0-.52-.1,4.14,4.14,0,0,1-.79.38,4.69,4.69,0,0,0-.83.37,7,7,0,0,0-.91.69,5.86,5.86,0,0,1-.83.63,4.7,4.7,0,0,1-1.11.47Z"/><path d="M40.14,93.88a1.61,1.61,0,0,0-.53.29l-.17.12a.87.87,0,0,1-.23.08,1.62,1.62,0,0,0-.5.24l-.23.22a.46.46,0,0,1-.2.17l-.57.3a5.58,5.58,0,0,1-.72.31l-.4.16a4.67,4.67,0,0,0-.76.47,3.46,3.46,0,0,1-.61.39,3.51,3.51,0,0,0-.7.42l-.05,0h-.22a.34.34,0,0,0-.33.38.42.42,0,0,0,.41.38h.2a.55.55,0,0,0,.18,0,.59.59,0,0,0,.29-.2,2.11,2.11,0,0,1,.51-.31,4.07,4.07,0,0,0,.76-.47,3.39,3.39,0,0,1,.62-.39l.37-.15a6.23,6.23,0,0,0,.87-.39l.47-.24a1.56,1.56,0,0,0,.44-.34,1,1,0,0,1,.14-.15.86.86,0,0,1,.25-.1,1.55,1.55,0,0,0,.41-.17,1.39,1.39,0,0,0,.22-.15,1,1,0,0,1,.29-.17.38.38,0,1,0-.21-.72Z"/><path d="M47.37,89.21a2.88,2.88,0,0,0-.66.48,2.08,2.08,0,0,1-.46.35l-.52.26a7.79,7.79,0,0,0-1,.52,1.6,1.6,0,0,0-.35.33.9.9,0,0,1-.26.23,1,1,0,0,1-.22.05,1.67,1.67,0,0,0-.3.08,3,3,0,0,0-.48.22,1.41,1.41,0,0,1-.54.21,1.57,1.57,0,0,0-.91.38l-.12.09a1.33,1.33,0,0,1-.12.06.72.72,0,0,0-.42.4.9.9,0,0,0-.07.27.54.54,0,0,1-.19,0,.38.38,0,0,0-.51.13.4.4,0,0,0,.13.52,1.51,1.51,0,0,0,.74.15h.24a.38.38,0,0,0,.34-.36V93.4c0-.07,0-.2,0-.25A1.15,1.15,0,0,0,42,93l.13-.1a.84.84,0,0,1,.54-.23,2.32,2.32,0,0,0,.83-.3,1.8,1.8,0,0,1,.37-.17.59.59,0,0,1,.19,0,1.47,1.47,0,0,0,.38-.11,1.35,1.35,0,0,0,.51-.41,1.83,1.83,0,0,1,.21-.2,7.66,7.66,0,0,1,.9-.48,5.6,5.6,0,0,0,.55-.27,2.68,2.68,0,0,0,.61-.45,2.23,2.23,0,0,1,.48-.36A9.11,9.11,0,0,0,49.2,89a9.49,9.49,0,0,1,1.4-.86,4.24,4.24,0,0,0,1-.76,1.19,1.19,0,0,1,.65-.27l.34-.08a.37.37,0,0,0,.26-.46.37.37,0,0,0-.46-.26,1.59,1.59,0,0,1-.3.06,1.91,1.91,0,0,0-1,.46,3.78,3.78,0,0,1-.86.64,10.32,10.32,0,0,0-1.5.92A8.81,8.81,0,0,1,47.37,89.21Z"/><path d="M111.85,80.49a.37.37,0,0,0,.3-.15,2.53,2.53,0,0,0,.36-.92,3.32,3.32,0,0,1,.21-.63,4.26,4.26,0,0,1,1-1.19,6.51,6.51,0,0,0,1.93-2.85.38.38,0,0,0-.29-.44.37.37,0,0,0-.44.3,5.78,5.78,0,0,1-1.7,2.44,4.69,4.69,0,0,0-1.16,1.4,3.8,3.8,0,0,0-.27.78,2.09,2.09,0,0,1-.25.67.37.37,0,0,0,.09.52A.34.34,0,0,0,111.85,80.49Z"/><path d="M115.16,78A17.61,17.61,0,0,1,112.83,81a.38.38,0,0,0,.27.65.38.38,0,0,0,.26-.11,18.51,18.51,0,0,0,2.43-3.06c.13-.21.27-.4.4-.59a6.17,6.17,0,0,0,1.21-2.49.37.37,0,0,0-.73-.13,5.64,5.64,0,0,1-1.09,2.19C115.44,77.62,115.3,77.82,115.16,78Z"/><path d="M106.16,84.81a.4.4,0,0,0,.23-.08,19.86,19.86,0,0,0,2-1.83,6.37,6.37,0,0,0,1-1.69.36.36,0,0,0-.18-.49.38.38,0,0,0-.5.18,5.74,5.74,0,0,1-.9,1.49,18,18,0,0,1-1.86,1.74.39.39,0,0,0-.07.53A.42.42,0,0,0,106.16,84.81Z"/><path d="M107.32,86.35l-.12.17c-.21.34-.32.47-.54.47a.38.38,0,1,0,0,.75h0a1.38,1.38,0,0,0,1.18-.81l.1-.16a4.35,4.35,0,0,1,1-1,17.36,17.36,0,0,0,2.18-2.19,2.71,2.71,0,0,0,.76-1.6.37.37,0,1,0-.74-.08,2.1,2.1,0,0,1-.63,1.24,15.13,15.13,0,0,1-2,2A5.15,5.15,0,0,0,107.32,86.35Z"/><path d="M113.16,83.5a1.62,1.62,0,0,1-.59,1.2c-.32.35-.59.72-.86,1.08a10.81,10.81,0,0,1-.83,1,9.85,9.85,0,0,0-.64.76,5.64,5.64,0,0,1-1.57,1.52.38.38,0,0,0-.16.5.39.39,0,0,0,.34.21.41.41,0,0,0,.17,0,6,6,0,0,0,1.8-1.71c.21-.25.4-.5.61-.72a11.16,11.16,0,0,0,.88-1.1c.27-.36.52-.7.81-1a2.41,2.41,0,0,0,.79-1.6.38.38,0,0,0-.75-.11Z"/><path d="M115.25,84.43a.37.37,0,0,0-.34.41c.06.73-.63,1.52-1.18,2.17l-.31.35-.09.11a10.3,10.3,0,0,1-.87,1,1,1,0,0,1-.48.23,1.42,1.42,0,0,0-.89.59,2,2,0,0,0-.26.75c-.07.32-.07.34-.29.36a.91.91,0,0,1-.23,0,1.23,1.23,0,0,0-.81.14,1.3,1.3,0,0,0-.43.6.82.82,0,0,1-.11.21,2.17,2.17,0,0,1-.68.54,4.74,4.74,0,0,0-.6.43c-.2.18-.4.38-.59.58a7.33,7.33,0,0,1-.7.67,7.54,7.54,0,0,1-1.67.93l-.51.24-.1.05a2.34,2.34,0,0,0-.84.56,1.75,1.75,0,0,0-.22.34c-.08.14-.11.21-.2.25a.37.37,0,0,0-.14.51.35.35,0,0,0,.32.2.35.35,0,0,0,.18-.05,1.22,1.22,0,0,0,.5-.56,1.07,1.07,0,0,1,.13-.21,1.69,1.69,0,0,1,.59-.36l.11-.06.49-.23a8.14,8.14,0,0,0,1.83-1,9,9,0,0,0,.77-.73c.18-.19.36-.37.55-.54a3.45,3.45,0,0,1,.5-.35,3,3,0,0,0,.88-.73,1.75,1.75,0,0,0,.2-.35.79.79,0,0,1,.16-.28c.06,0,.16,0,.33,0a1.53,1.53,0,0,0,.37,0,1,1,0,0,0,.94-1,1.51,1.51,0,0,1,.16-.48c.1-.16.23-.2.48-.28A1.87,1.87,0,0,0,113,89a11.45,11.45,0,0,0,.93-1l.09-.11.3-.35a4,4,0,0,0,1.36-2.72A.38.38,0,0,0,115.25,84.43Z"/><path d="M107.76,89.32a2.22,2.22,0,0,0-1.15,1c-.11.13-.2.26-.3.36-.35.37-.71.7-1.07,1s-.77.7-1.13,1.08a7.76,7.76,0,0,1-1,.84,11.86,11.86,0,0,0-1.53,1.32.38.38,0,0,0,0,.53.36.36,0,0,0,.26.11.36.36,0,0,0,.27-.12,10.25,10.25,0,0,1,1.43-1.24,7.55,7.55,0,0,0,1.1-.92c.35-.37.72-.71,1.09-1s.75-.68,1.11-1.06a4.06,4.06,0,0,0,.35-.43c.23-.3.49-.64.73-.69a.38.38,0,0,0,.28-.45A.36.36,0,0,0,107.76,89.32Z"/><path d="M101.5,92.37h.1c.56,0,.81-.49,1-.82a2.74,2.74,0,0,1,.19-.34,1.3,1.3,0,0,1,.57-.36,2.41,2.41,0,0,0,.7-.43,1.69,1.69,0,0,0,.32-.45l.17-.26c.1-.1.2-.21.31-.31l.31-.31.29-.34a3.35,3.35,0,0,1,.61-.63.37.37,0,0,0,.11-.52.38.38,0,0,0-.52-.11,3.84,3.84,0,0,0-.78.78l-.26.31-.29.29c-.11.11-.23.22-.33.34a1.83,1.83,0,0,0-.27.39,1.36,1.36,0,0,1-.18.28,1.91,1.91,0,0,1-.49.28,2,2,0,0,0-.87.6,2.79,2.79,0,0,0-.26.45c-.17.34-.24.42-.34.41a.38.38,0,0,0-.41.33A.39.39,0,0,0,101.5,92.37Z"/><path d="M90.47,105a.32.32,0,0,0,.13,0c.16-.06.33-.14.5-.22a2.78,2.78,0,0,1,.65-.25l.4,0a2,2,0,0,0,.93-.23c.45-.23.9-.44,1.36-.65s.83-.38,1.24-.59a8.29,8.29,0,0,0,1.8-1.29l.32-.29a5.17,5.17,0,0,1,1.28-.69c.26-.11.52-.23.75-.35a4.81,4.81,0,0,0,1.19-.93l.11-.1a2.94,2.94,0,0,1,.3-.22c.34-.22.76-.5.79-1a.38.38,0,0,0-.75,0c0,.11-.3.3-.45.4a4.18,4.18,0,0,0-.42.31l-.1.11a4.34,4.34,0,0,1-1,.8,7.67,7.67,0,0,1-.7.32,5.4,5.4,0,0,0-1.47.82l-.33.28a7.19,7.19,0,0,1-1.63,1.19l-1.23.58c-.46.22-.92.43-1.37.66a1.36,1.36,0,0,1-.65.15l-.47.05a3.17,3.17,0,0,0-.86.32,3.79,3.79,0,0,1-.42.18.38.38,0,0,0-.23.48A.36.36,0,0,0,90.47,105Z"/><path d="M112.21,94a3.4,3.4,0,0,0-.85.91c-.28.38-.6.81-.88.86a.31.31,0,0,0-.2.11,7.44,7.44,0,0,1-1.35,1,10.35,10.35,0,0,0-1.11.8c-.17.15-.32.3-.46.44a4.33,4.33,0,0,1-.5.46,3.06,3.06,0,0,0-.45.48,4.28,4.28,0,0,1-.31.36.37.37,0,0,0,.12.73h.06c.24,0,.42-.25.72-.62a2.35,2.35,0,0,1,.31-.35,5.78,5.78,0,0,0,.58-.53,5.42,5.42,0,0,1,.42-.4,10.52,10.52,0,0,1,1-.75,7.82,7.82,0,0,0,1.4-1.06A2.78,2.78,0,0,0,112,95.35a2.94,2.94,0,0,1,.64-.72.37.37,0,1,0-.39-.64Z"/><path d="M107.09,96.63a4.72,4.72,0,0,0,1.13-.95,5.56,5.56,0,0,1,1-.87l.25-.19.33-.24a4.33,4.33,0,0,0,1.32-1.27.37.37,0,0,0-.15-.51.36.36,0,0,0-.5.15,3.94,3.94,0,0,1-1.11,1L109,94l-.25.19a6.12,6.12,0,0,0-1.12,1,3.86,3.86,0,0,1-1,.8c-.14.1-.29.19-.43.3a8.83,8.83,0,0,0-1.43,1.25l-.19.22c-.27.3-.78.86-1,.92a.37.37,0,0,0,.08.74h.07a1.59,1.59,0,0,0,.2-.07l-.2.16-.49.32-.95.63c-.5.35-1,.72-1.51,1.1a20.92,20.92,0,0,1-4.08,2.56c-.76.32-1.5.68-2.22,1l-.88.43-.57.26a11.16,11.16,0,0,0-1,.5c-.17.09-.34.21-.53.33a2.88,2.88,0,0,1-1,.53.38.38,0,0,0-.31.43.38.38,0,0,0,.37.31h.07a3.48,3.48,0,0,0,1.28-.63,3.58,3.58,0,0,1,.46-.3c.32-.18.66-.33,1-.48l.59-.26.89-.43c.71-.35,1.44-.7,2.18-1a21,21,0,0,0,4.23-2.65c.51-.37,1-.74,1.5-1.08l.93-.62.5-.33a2.35,2.35,0,0,0,1-1.53.33.33,0,0,0,0-.26.23.23,0,0,1,.07-.07l.18-.21a8.44,8.44,0,0,1,1.32-1.15C106.83,96.81,107,96.71,107.09,96.63Z"/><path d="M95.94,107c-.93.5-1.29.59-1.59.12a.37.37,0,1,0-.63.39,1.23,1.23,0,0,0,1.09.67,3.44,3.44,0,0,0,1.48-.51l.48-.24a7.26,7.26,0,0,1,3.07-.74.38.38,0,1,0,0-.75,8.08,8.08,0,0,0-3.38.8C96.3,106.8,96.13,106.9,95.94,107Z"/><path d="M107.84,61.75a.36.36,0,0,0-.13.5,3.13,3.13,0,0,1-.47,1,3.72,3.72,0,0,0-.34.64c0,.13-.1.26-.15.4a3.58,3.58,0,0,0-.38,1.59.37.37,0,0,0,.37.34h0a.37.37,0,0,0,.35-.4,3.08,3.08,0,0,1,.32-1.25c.06-.15.12-.29.17-.43a5.5,5.5,0,0,1,.27-.51c.36-.6.77-1.28.47-1.77A.37.37,0,0,0,107.84,61.75Z"/><path d="M153.88,69.39c0-.09-.12-.2-.18-.32a5.6,5.6,0,0,1-.4-.75,4.38,4.38,0,0,0-1.44-2,.38.38,0,0,0-.53.07.36.36,0,0,0,.07.52,3.63,3.63,0,0,1,1.2,1.65,7.15,7.15,0,0,0,.45.86c0,.08.09.15.12.22s0,.59,0,1a.39.39,0,0,0,.38.38h0a.38.38,0,0,0,.37-.38c0-.5,0-1.07,0-1.07A.39.39,0,0,0,153.88,69.39Z"/><path d="M150,62.32a.34.34,0,0,0,.12,0,.46.46,0,0,0,0,.1c.13.23.27.46.41.67a4.22,4.22,0,0,0,.5.53,2,2,0,0,1,.53.63.38.38,0,0,0,.35.24.34.34,0,0,0,.14,0,.38.38,0,0,0,.21-.49,2.51,2.51,0,0,0-.72-.91,3.1,3.1,0,0,1-.4-.42,5.25,5.25,0,0,1-.38-.63.64.64,0,0,0-.24-.36.45.45,0,0,0-.31-.09c-.13-.08-.19-.18-.33-.44l0,0a.36.36,0,0,0-.5-.13.4.4,0,0,0-.14.53A1.61,1.61,0,0,0,150,62.32Z"/><path d="M153.58,67.26a5.15,5.15,0,0,0,.47.68,3.2,3.2,0,0,0,.25.27,3.44,3.44,0,0,1,.3.35,1.83,1.83,0,0,1,.13.24,2.25,2.25,0,0,0,.16.31.37.37,0,0,0,.31.17.3.3,0,0,0,.2-.06.36.36,0,0,0,.12-.51,2.12,2.12,0,0,1-.11-.21,1.85,1.85,0,0,0-.19-.37,3.31,3.31,0,0,0-.39-.45l-.21-.22a5.08,5.08,0,0,1-.4-.59,4.19,4.19,0,0,0-.59-.81.37.37,0,0,0-.53,0,.39.39,0,0,0,0,.53A4,4,0,0,1,153.58,67.26Z"/><path d="M155.34,72.93a2.1,2.1,0,0,0-.34-.57,1.6,1.6,0,0,1-.24-.36.37.37,0,0,0-.47-.24.38.38,0,0,0-.24.48,2.18,2.18,0,0,0,.35.58,2,2,0,0,1,.24.36,1,1,0,0,1,0,.35,1.19,1.19,0,0,0,0,.42.36.36,0,0,0,.36.29h.09a.37.37,0,0,0,.28-.45,1.31,1.31,0,0,1,0-.2A1.52,1.52,0,0,0,155.34,72.93Z"/><path d="M156.85,72.57l.46.64a3.71,3.71,0,0,1,.23.32.33.33,0,0,1,0,.15,1.79,1.79,0,0,0-.06.4.38.38,0,0,0,.37.37h0a.38.38,0,0,0,.37-.37.86.86,0,0,1,0-.21.86.86,0,0,0-.07-.75,3.56,3.56,0,0,0-.26-.36l-.46-.63c-.26-.37-.53-.74-.76-1.12a.37.37,0,1,0-.64.38C156.29,71.81,156.58,72.19,156.85,72.57Z"/><path d="M177.94,51.87a.37.37,0,0,0,.05.34,0,0,0,0,0,0,0,.37.37,0,0,0,.49.2,1.11,1.11,0,0,0,.35-.28l0,0,0,.06c0,.06.05.12.07.17l.08.15a1.37,1.37,0,0,1,.23,1,.36.36,0,0,0,.23.47.25.25,0,0,0,.12,0,.38.38,0,0,0,.36-.25,2,2,0,0,0-.27-1.59l-.07-.15a.3.3,0,0,1,0-.1c-.08-.21-.2-.52-.5-.61a1.06,1.06,0,0,0,.09-.36,1.86,1.86,0,0,0-.27-1,2.54,2.54,0,0,1-.16-.38.38.38,0,1,0-.72.22,3.55,3.55,0,0,0,.21.5,1.17,1.17,0,0,1,.19.61,1.55,1.55,0,0,1-.27.57A2.23,2.23,0,0,0,177.94,51.87Z"/><path d="M194.56,50.73a.44.44,0,0,0-.34,0,.37.37,0,0,0,.1.73H195c.28.16.47.59.55,1.28a.39.39,0,0,0,.38.33h0a.37.37,0,0,0,.33-.41A2.47,2.47,0,0,0,195.5,51a4.6,4.6,0,0,0,.05-1c0-.13,0-.26,0-.38a.38.38,0,0,0-.38-.38.37.37,0,0,0-.37.38c0,.13,0,.27,0,.42a5.6,5.6,0,0,1,0,.71h-.24Z"/><path d="M197.87,57.29a.35.35,0,0,0-.42-.29c-.13,0-.4-.42-.52-.58a3.06,3.06,0,0,0-.22-.29,8.75,8.75,0,0,0-1.06-1,.39.39,0,0,0-.53.07.37.37,0,0,0,.07.53,8.73,8.73,0,0,1,1,.93,2.12,2.12,0,0,1,.16.23c.28.38.64.89,1.1.89h.14A.4.4,0,0,0,197.87,57.29Z"/><path d="M196.63,58a8.3,8.3,0,0,1-1.37-1.2.38.38,0,1,0-.58.48,8.41,8.41,0,0,0,1.51,1.32q.39.29.78.6a.36.36,0,0,0,.24.09.35.35,0,0,0,.28-.13.37.37,0,0,0,0-.53C197.18,58.42,196.91,58.22,196.63,58Z"/><path d="M192.86,61.15a.37.37,0,0,0-.07.52,3.12,3.12,0,0,0,1.25.79c.16.08.31.14.43.21a.41.41,0,0,0,.19,0,.35.35,0,0,0,.32-.2.37.37,0,0,0-.14-.51l-.5-.23a3,3,0,0,1-1-.56A.37.37,0,0,0,192.86,61.15Z"/><path d="M196.87,67.59c-.75-.52-1.69-1.17-1.8-1.94a.37.37,0,1,0-.74.1c.16,1.1,1.24,1.85,2.12,2.46.2.13.39.27.55.39a9,9,0,0,1,1.91,1.83.38.38,0,0,0,.31.17.37.37,0,0,0,.21-.06.37.37,0,0,0,.1-.53,9.6,9.6,0,0,0-2.07-2Z"/><path d="M200,66.64a4.93,4.93,0,0,0-.79-.67,3.46,3.46,0,0,1-.7-.59.37.37,0,0,0-.53-.06.38.38,0,0,0-.05.53,4.12,4.12,0,0,0,.84.73,4.14,4.14,0,0,1,.67.56l.12.14c.37.4.74.82.7,1.26a.38.38,0,0,0,.35.4h0a.38.38,0,0,0,.37-.34,2.52,2.52,0,0,0-.89-1.82Z"/><path d="M198.81,74.15a.4.4,0,0,0,.23.08.36.36,0,0,0,.3-.15.37.37,0,0,0-.06-.52,4.38,4.38,0,0,1-.57-.57,4.07,4.07,0,0,0-.92-.84l-.53-.25c-.59-.25-1-.47-1.07-.85a.37.37,0,1,0-.74,0c.06.87.9,1.23,1.52,1.49a4.59,4.59,0,0,1,.44.21,3.36,3.36,0,0,1,.74.69A5.88,5.88,0,0,0,198.81,74.15Z"/><path d="M192.57,73.92a4.65,4.65,0,0,0,2.14,2l.63.38a17.57,17.57,0,0,1,2,1.43.38.38,0,0,0,.25.09.35.35,0,0,0,.28-.13.37.37,0,0,0,0-.53,17.13,17.13,0,0,0-2.07-1.49l-.65-.4a3.92,3.92,0,0,1-1.84-1.66.38.38,0,0,0-.5-.18A.37.37,0,0,0,192.57,73.92Z"/><path d="M179.59,76.08a.4.4,0,0,0,.15,0,.37.37,0,0,0,.34-.23,1.15,1.15,0,0,0,0-.7c0-.06,0-.12,0-.17a.37.37,0,0,0-.38-.37.37.37,0,0,0-.37.38,2.46,2.46,0,0,0,0,.26.78.78,0,0,1,0,.3A.38.38,0,0,0,179.59,76.08Z"/><path d="M182.19,80.35a.38.38,0,0,0,.37.37.41.41,0,0,0,.38-.37V80a3.23,3.23,0,0,0-.42-2,1.47,1.47,0,0,1-.17-.74l0-.28-.06-.42a3.76,3.76,0,0,1-.08-.87.39.39,0,0,0-.36-.39.37.37,0,0,0-.39.36,4.84,4.84,0,0,0,.09,1l.06.39c0,.08,0,.17,0,.25a2.26,2.26,0,0,0,.29,1.09,2.49,2.49,0,0,1,.3,1.59Z"/><path d="M185.33,80.8a.41.41,0,0,0,.38.3h.09a.35.35,0,0,0,.27-.43.39.39,0,0,1,0-.14,1.4,1.4,0,0,0,.06-.43,2.35,2.35,0,0,0-.18-.84,12.8,12.8,0,0,0-.7-1.44c-.15-.27-.29-.53-.42-.8l-.15-.31a4.62,4.62,0,0,0-.48-.9l-.19-.22c-.09-.09-.11-.11-.12-.2a3.26,3.26,0,0,1,0-.45,2.62,2.62,0,0,0,0-.27.38.38,0,1,0-.75,0,1.85,1.85,0,0,1,0,.23,2.51,2.51,0,0,0,0,.61,1,1,0,0,0,.31.59s.09.09.13.15A5.08,5.08,0,0,1,184,77l.15.33c.14.28.29.55.44.83a12,12,0,0,1,.66,1.35,1.71,1.71,0,0,1,.13.59.69.69,0,0,1,0,.22A.93.93,0,0,0,185.33,80.8Z"/><path d="M188.47,80h0a.38.38,0,0,0,.35-.39.57.57,0,0,1,0-.14.78.78,0,0,0-.13-.62,1.62,1.62,0,0,0-.32-.32.8.8,0,0,1-.21-.19,5.33,5.33,0,0,1-.31-.51,8,8,0,0,0-.43-.69,5.5,5.5,0,0,1-.6-1.07,6.38,6.38,0,0,0-.32-.57,3.28,3.28,0,0,1-.39-.8.37.37,0,0,0-.45-.27.38.38,0,0,0-.28.45,3.76,3.76,0,0,0,.48,1,5.06,5.06,0,0,1,.29.52,6.35,6.35,0,0,0,.67,1.18,4.72,4.72,0,0,1,.37.61c.11.19.22.38.35.57a1.78,1.78,0,0,0,.37.36,1.31,1.31,0,0,1,.16.14l.31-.21-.31.31a1.26,1.26,0,0,0,0,.28A.37.37,0,0,0,188.47,80Z"/><path d="M191.64,79.07a3,3,0,0,1-.33-.52A3.42,3.42,0,0,0,191,78a10.35,10.35,0,0,1-1.39-2.1c-.07-.13-.13-.26-.19-.39a4.06,4.06,0,0,0-.48-.85,1.76,1.76,0,0,1-.46-1,.37.37,0,0,0-.33-.42.36.36,0,0,0-.41.33,2.24,2.24,0,0,0,.61,1.55,3.94,3.94,0,0,1,.39.7,3.42,3.42,0,0,0,.21.43,11,11,0,0,0,1.48,2.24,3.92,3.92,0,0,1,.26.45,1.74,1.74,0,0,0,.68.84.4.4,0,0,0,.15,0,.37.37,0,0,0,.16-.71Z"/><path d="M181.43,83c0,.39,0,.78,0,1.17s0,.68,0,1a.38.38,0,0,0,.37.37h0a.37.37,0,0,0,.37-.37c0-.33,0-.67,0-1s0-.79,0-1.19a.38.38,0,0,0-.38-.37A.37.37,0,0,0,181.43,83Z"/><path d="M184.44,86.44a3.16,3.16,0,0,1-.09-.55,4.34,4.34,0,0,0-.13-.72.38.38,0,1,0-.72.21,2.89,2.89,0,0,1,.1.6,4.64,4.64,0,0,0,.11.65,2.59,2.59,0,0,0,.26.63,3.59,3.59,0,0,1,.17.34.38.38,0,0,0,.35.24l.13,0a.38.38,0,0,0,.22-.49,4.09,4.09,0,0,0-.2-.42A2.07,2.07,0,0,1,184.44,86.44Z"/><path d="M185.51,82.61a1.85,1.85,0,0,0,.31.64,3.88,3.88,0,0,0,.26.31,2.78,2.78,0,0,1,.26.34,4.79,4.79,0,0,1,.39.89c.06.16.12.33.19.48.13.3.25.59.35.89a1.85,1.85,0,0,1,0,.29,1.15,1.15,0,0,0,.24.83.36.36,0,0,0,.28.12.39.39,0,0,0,.26-.1.37.37,0,0,0,0-.52,2.8,2.8,0,0,1,0-.36,1.63,1.63,0,0,0-.06-.5c-.11-.31-.24-.62-.37-.94-.06-.14-.12-.3-.17-.45a5.9,5.9,0,0,0-.46-1,4.58,4.58,0,0,0-.34-.43c-.07-.09-.15-.17-.21-.26a1,1,0,0,1-.2-.42l0-.14a.38.38,0,0,0-.47-.25.38.38,0,0,0-.25.47Z"/><path d="M190.37,84l.12.19a7.34,7.34,0,0,1,.57,1l0,.09a3.17,3.17,0,0,0,.63,1.07.36.36,0,0,0,.24.09.39.39,0,0,0,.28-.13.37.37,0,0,0,0-.53,4.31,4.31,0,0,1-.42-.8l0-.09a7.55,7.55,0,0,0-.63-1.12l-.11-.19c-.15-.23-.35-.48-.56-.74a3.75,3.75,0,0,1-.89-1.49.39.39,0,0,0-.42-.32.38.38,0,0,0-.32.43,4.21,4.21,0,0,0,1.05,1.85A6.44,6.44,0,0,1,190.37,84Z"/><path d="M192.23,80.81c-.1,0-.27.1-.34.14a.38.38,0,0,0-.17.5.37.37,0,0,0,.42.2s0,.11,0,.16a1.92,1.92,0,0,0,.25.78,7.38,7.38,0,0,0,.54.71l.13.15a3.92,3.92,0,0,1,.33.5c.08.13.16.26.25.39l.23.27c.19.2.19.2.13.3a.42.42,0,0,0,0,.29.51.51,0,0,0,.21.27.48.48,0,0,0,.22,0,.32.32,0,0,0,.14,0,.38.38,0,0,0,.24-.47h0a1,1,0,0,0-.35-.92,1.75,1.75,0,0,1-.16-.2c-.08-.11-.15-.23-.22-.34s-.25-.4-.4-.59l-.13-.15a7.13,7.13,0,0,1-.49-.63,1.35,1.35,0,0,1-.14-.49,1.88,1.88,0,0,0-.21-.73A.37.37,0,0,0,192.23,80.81Z"/><path d="M197.22,81a.37.37,0,0,0-.14-.51A4.84,4.84,0,0,1,196,79.41l-.19-.23c-.16-.19-.33-.36-.49-.53a4.25,4.25,0,0,1-.8-1,.38.38,0,0,0-.5-.16.37.37,0,0,0-.17.5,4.72,4.72,0,0,0,.93,1.21c.15.16.3.31.45.49l.19.23a5.29,5.29,0,0,0,1.27,1.23.41.41,0,0,0,.18,0A.39.39,0,0,0,197.22,81Z"/><path d="M209.89,76.77l.14,0a.28.28,0,0,1,.17,0,.36.36,0,0,0,.41-.32.37.37,0,0,0-.32-.42h-.19a.87.87,0,0,0-.25-.44,2.17,2.17,0,0,0-.73-.36l-.31-.1a2.81,2.81,0,0,1-.88-.39,3.64,3.64,0,0,1-.45-.35,5,5,0,0,0-.74-.54q-.27-.17-.54-.3a3.13,3.13,0,0,1-1.5-1.26.37.37,0,0,0-.51-.15.37.37,0,0,0-.14.51,3.8,3.8,0,0,0,1.8,1.56c.17.09.34.18.51.29a3.88,3.88,0,0,1,.64.47c.16.13.32.27.49.39a3.86,3.86,0,0,0,1.09.48l.37.13a1.46,1.46,0,0,1,.38.17s0,0,.06.13a1.07,1.07,0,0,0,.23.43A.36.36,0,0,0,209.89,76.77Z"/><path d="M203.28,75.87a1.07,1.07,0,0,0-.44-.39,3.22,3.22,0,0,0-1.19-.21h-.13a.37.37,0,0,0-.39.36.39.39,0,0,0,.36.39h.13a2.42,2.42,0,0,1,.91.14c.05,0,.07,0,.14.14a1.33,1.33,0,0,0,.19.24,4.63,4.63,0,0,0,1.56.81c.14.05.45.23.75.39a6.68,6.68,0,0,0,1.27.63,2.35,2.35,0,0,1,1,.59.46.46,0,0,0,0,.22.39.39,0,0,0,.35.2.35.35,0,0,0,.17,0l.1-.07a.38.38,0,0,0,.18-.23.45.45,0,0,0-.05-.3,3,3,0,0,0-1.63-1.1,7.36,7.36,0,0,1-1.1-.55,7.11,7.11,0,0,0-.85-.44,3.91,3.91,0,0,1-1.29-.64A1.1,1.1,0,0,1,203.28,75.87Z"/><path d="M209.37,83.1A2.59,2.59,0,0,0,208,81.91a3.75,3.75,0,0,0-.47-.17,3.34,3.34,0,0,1-.55-.2l-.43-.21a12.33,12.33,0,0,1-1.25-.66,13.12,13.12,0,0,0-1.45-.73,9.59,9.59,0,0,1-1.65-.88.37.37,0,0,0-.44.6,9.61,9.61,0,0,0,1.78,1,10.18,10.18,0,0,1,1.36.69,14.19,14.19,0,0,0,1.33.7l.42.21a4.38,4.38,0,0,0,.66.24,4,4,0,0,1,.41.14,1.85,1.85,0,0,1,.95.81.37.37,0,0,0,.34.22.45.45,0,0,0,.16,0A.37.37,0,0,0,209.37,83.1Z"/><path d="M200.48,81.94a.38.38,0,1,0-.36.66c.22.12.45.23.69.34a6.05,6.05,0,0,1,1,.54,5.81,5.81,0,0,1,.58.54c.16.17.33.33.51.49a4.81,4.81,0,0,0,1.39.74,4.53,4.53,0,0,1,1.1.55.7.7,0,0,1,.25.31,1.1,1.1,0,0,0,.13.23,1,1,0,0,0,1,.48h.19v-.37l-.08-.38c-.36,0-.36,0-.43-.11a1.3,1.3,0,0,1-.11-.19,1.36,1.36,0,0,0-.47-.57,5.23,5.23,0,0,0-1.27-.64,4.16,4.16,0,0,1-1.18-.62c-.16-.14-.31-.29-.46-.44a4.59,4.59,0,0,0-1.81-1.23C200.9,82.16,200.69,82.06,200.48,81.94Z"/><path d="M197.72,85.46l.12.09a5.44,5.44,0,0,0,.91.5c.17.08.33.15.49.24l.45.23a4.84,4.84,0,0,1,.68.38,1.64,1.64,0,0,1,.31.33,1.55,1.55,0,0,0,.82.6l.17,0c.13,0,.13,0,.24.14l.08.09a1.25,1.25,0,0,0,.57.4h.11a.38.38,0,0,0,.36-.26.39.39,0,0,0-.24-.47c-.1,0-.13-.06-.24-.18l-.1-.11a1,1,0,0,0-.63-.36l-.14,0c-.16,0-.25-.14-.41-.34a1.9,1.9,0,0,0-.47-.47,5.4,5.4,0,0,0-.78-.44l-.41-.21q-.27-.15-.54-.27a4.48,4.48,0,0,1-.78-.43l-.13-.09a3.13,3.13,0,0,1-.78-.69.37.37,0,0,0-.48-.22.37.37,0,0,0-.22.48A2.77,2.77,0,0,0,197.72,85.46Z"/><path d="M208.94,92.15a6.34,6.34,0,0,1-2.2-.5l-.56-.2a2.5,2.5,0,0,0-.64-.1,1.12,1.12,0,0,1-.5-.09.75.75,0,0,1-.14-.12,1.42,1.42,0,0,0-.39-.3l-.36-.16c-.14-.06-.27-.11-.4-.18a.38.38,0,1,0-.36.66,4,4,0,0,0,.47.21l.32.14a.6.6,0,0,1,.18.15,1.29,1.29,0,0,0,.27.23,1.79,1.79,0,0,0,.86.21,1.89,1.89,0,0,1,.45.06l.54.19a6.8,6.8,0,0,0,2.44.55.39.39,0,0,0,.4-.37A.36.36,0,0,0,208.94,92.15Z"/><path d="M211.9,87.25a.39.39,0,0,0-.49.22.38.38,0,0,0,.22.48,4.27,4.27,0,0,0,1.36.2,6,6,0,0,1,.75,0l.62.12.76.13a25.35,25.35,0,0,0,3,.29h.18c.19,0,.69,0,.7.15a.38.38,0,0,0,.37.33h0a.39.39,0,0,0,.33-.42c-.09-.78-1-.8-1.44-.81h-.15a23.83,23.83,0,0,1-2.88-.28l-.75-.13-.62-.11a6,6,0,0,0-.86-.07A3.51,3.51,0,0,1,211.9,87.25Z"/><path d="M213.32,82a.37.37,0,0,0,.39.36l.75,0c.63,0,1.27-.07,1.9,0h.25a2.53,2.53,0,0,1,1,.12.65.65,0,0,0,.28.26,1.21,1.21,0,0,0,.65.07l.33,0c.13,0,.26,0,.39,0s.44,0,.66,0a8.94,8.94,0,0,1,1,0h.18a6,6,0,0,1,.86.07.33.33,0,0,0,.15.25.35.35,0,0,0,.22.08h.07a2.25,2.25,0,0,0,.37-.13l.12-.06a.37.37,0,0,0,.23-.48.38.38,0,0,0-.48-.23l-.16.07a2.36,2.36,0,0,0-1.36-.31H221a10.56,10.56,0,0,0-1.13,0c-.21,0-.41,0-.62,0l-.45,0-.34,0-.22,0a.49.49,0,0,0-.2-.21,2.78,2.78,0,0,0-1.45-.26h-.24c-.66,0-1.32,0-2,0l-.75,0A.37.37,0,0,0,213.32,82Z"/><path d="M215.2,77.52a6.72,6.72,0,0,1,.73,0,2.48,2.48,0,0,1,1,.33,2.87,2.87,0,0,0,1.3.27,2.35,2.35,0,0,1,1,.18,1.37,1.37,0,0,1,.23.21,1.15,1.15,0,0,0,.79.49h0a.78.78,0,0,0,.56-.31.36.36,0,1,0-.56-.44A1.18,1.18,0,0,1,220,78a1.7,1.7,0,0,0-.44-.37,3.2,3.2,0,0,0-1.32-.26,2.29,2.29,0,0,1-1-.18,3.06,3.06,0,0,0-1.28-.41,4.17,4.17,0,0,0-.85,0,2.75,2.75,0,0,1-1.1,0,.37.37,0,0,0-.5.17.36.36,0,0,0,.16.5A2.84,2.84,0,0,0,215.2,77.52Z"/><path d="M225.92,86.41a8.37,8.37,0,0,0-1.15-.17l-.81,0h-.67a6.27,6.27,0,0,0-1.16.09,7.25,7.25,0,0,1-.8.09.38.38,0,0,0-.36.39.38.38,0,0,0,.39.36,8.27,8.27,0,0,0,.87-.1,5.28,5.28,0,0,1,1-.08l.69,0c.26,0,.52,0,.78,0a6.36,6.36,0,0,1,1,.15l.35.07a6.49,6.49,0,0,0,1.23.09h.23a.38.38,0,0,0,.37-.37.37.37,0,0,0-.37-.38h-.22a6.75,6.75,0,0,1-1.11-.07Z"/><path d="M222.91,92h-.44a.38.38,0,0,0-.38.38.37.37,0,0,0,.38.37h.45a5.54,5.54,0,0,1,2.31.29l.15,0a.39.39,0,0,0,.35-.23.37.37,0,0,0-.2-.49A6.27,6.27,0,0,0,222.91,92Z"/><path d="M235.7,90.32a1,1,0,0,0-.24,0l-.15,0a.23.23,0,0,1,0-.09A.4.4,0,0,0,235,90c-.48,0-1-.12-1.43-.2a18.38,18.38,0,0,0-2-.26c-.32,0-.7,0-1.08,0a6.05,6.05,0,0,1-1.85-.09.38.38,0,1,0-.22.72,6.54,6.54,0,0,0,2.1.12c.36,0,.71,0,1,0a17.06,17.06,0,0,1,1.92.25c.42.07.85.14,1.27.19a.83.83,0,0,0,.86.34h.18a3.45,3.45,0,0,1,.82.12.37.37,0,0,0,.22.34.4.4,0,0,0,.15,0,.37.37,0,0,0,.34-.22,1,1,0,0,0,.07-.38.36.36,0,0,0-.26-.39A4.37,4.37,0,0,0,235.7,90.32Z"/><path d="M240.65,86.23a.38.38,0,1,0,0-.75c-.6,0-1.22,0-1.81,0s-1.2,0-1.81,0-1.17,0-1.75,0-1.16-.07-1.75-.07h-.28a4.34,4.34,0,0,1-.51,0h-.38a2.61,2.61,0,0,1-.71,0,.37.37,0,0,0-.36.65,2.13,2.13,0,0,0,1.09.14h.32a5.42,5.42,0,0,0,.57,0h.26c.57,0,1.14,0,1.7.07s1.2,0,1.8,0,1.18,0,1.76,0S240,86.23,240.65,86.23Z"/><path d="M233.24,81.45h-.36a8.61,8.61,0,0,0-1.74.14,5.17,5.17,0,0,0-.63.21,2,2,0,0,1-.72.19.38.38,0,0,0,0,.75h.08a2.77,2.77,0,0,0,1-.24,2.6,2.6,0,0,1,.49-.17,8,8,0,0,1,1.6-.13h.36a9.44,9.44,0,0,1,2.29.16l.13,0a1.27,1.27,0,0,0,.76,0,1.46,1.46,0,0,0,.46-.28l.16-.11a.39.39,0,0,0,.13-.51.38.38,0,0,0-.51-.14l-.25.18a1,1,0,0,1-.21.14.61.61,0,0,1-.33,0l-.16,0A9.63,9.63,0,0,0,233.24,81.45Z"/><path d="M234.46,78c-.08,0-.09,0-.2,0a1.8,1.8,0,0,0-.35-.14,2.59,2.59,0,0,0-.83,0h-.18l-.45,0a4.42,4.42,0,0,0-1.18.12l-.13,0a7.54,7.54,0,0,1-1.32.27,10.69,10.69,0,0,1-1.59,0,2.2,2.2,0,0,0-1.26.32l-.42.19a.38.38,0,0,0-.22.49.38.38,0,0,0,.35.24.31.31,0,0,0,.13,0l.5-.22a1.54,1.54,0,0,1,.87-.25,10.7,10.7,0,0,0,1.7,0,8,8,0,0,0,1.46-.3l.13,0a4,4,0,0,1,1-.09l.49,0h.2a1.88,1.88,0,0,1,.58,0l.19.08a.92.92,0,0,0,.74.1.37.37,0,0,0,.26-.46A.38.38,0,0,0,234.46,78Z"/><path d="M243.62,74.8a1.46,1.46,0,0,0-.28.13c-.12.07-.14.08-.19.07a.69.69,0,0,1-.2-.07,1.37,1.37,0,0,0-.6-.11,4.86,4.86,0,0,0-.55.1,2.27,2.27,0,0,1-.63.08c-.43,0-.88,0-1.34,0-.84,0-1.52,0-2.14,0l-.42,0a2.54,2.54,0,0,1-.9,0,.37.37,0,1,0-.3.68,1.32,1.32,0,0,0,.57.1,4.4,4.4,0,0,0,.73-.07l.37,0c.6,0,1.27,0,2.09,0,.44,0,.88,0,1.3,0a2.69,2.69,0,0,0,.84-.1,2.87,2.87,0,0,1,.44-.08.54.54,0,0,1,.26.06,1.57,1.57,0,0,0,.38.11,1,1,0,0,0,.66-.16l.16-.08a.37.37,0,1,0-.25-.7Z"/><path d="M245.81,78.56l-.14.08a1.79,1.79,0,0,0-1.11-.11.94.94,0,0,1-.23,0c-.36,0-.75,0-1.15-.07-1.34-.11-2.87-.24-4,.69a.37.37,0,0,0,0,.53.37.37,0,0,0,.28.14.38.38,0,0,0,.25-.09c.87-.73,2.17-.62,3.43-.52.42,0,.83.07,1.21.07l.31,0a3.18,3.18,0,0,1,.59,0,.37.37,0,0,0,.23.23.38.38,0,0,0,.33,0l.18-.11.27-.15a.39.39,0,0,0,.1-.53A.38.38,0,0,0,245.81,78.56Z"/><path d="M246.53,82.53a3,3,0,0,0-.41,0,2.09,2.09,0,0,1-.48,0l-.25-.07a1.34,1.34,0,0,0-.26-.09,7.11,7.11,0,0,0-2-.11l-.66,0h0a.37.37,0,0,0-.37.37.38.38,0,0,0,.37.38l.71,0a6.56,6.56,0,0,1,1.79.09,1.06,1.06,0,0,1,.19.06,1.57,1.57,0,0,0,.43.12,2.86,2.86,0,0,0,.66,0,2,2,0,0,1,.34,0,4.94,4.94,0,0,1,1.89.41c.31.11.62.23,1,.32a2.72,2.72,0,0,0,.65,0c.21,0,.6,0,.65.09a.38.38,0,0,0,.33.2.37.37,0,0,0,.34-.55c-.27-.5-.88-.5-1.33-.49a1.81,1.81,0,0,1-.44,0c-.32-.08-.62-.19-.91-.29A5.39,5.39,0,0,0,246.53,82.53Z"/><path d="M250.77,88l-.1,0-.66-.18c-.37-.1-.73-.21-1.1-.28s-.61-.11-.91-.15l-.71-.1a9.07,9.07,0,0,0-1.55-.12,7.41,7.41,0,0,1-1.59-.14.38.38,0,0,0-.46.28.38.38,0,0,0,.28.45,8,8,0,0,0,1.75.16,8.29,8.29,0,0,1,1.43.11l.75.11a7.91,7.91,0,0,1,.85.13c.36.08.71.17,1.06.27l.67.19.11,0c.34.09.67.17.8.4a.39.39,0,0,0,.33.19.35.35,0,0,0,.19-.06.38.38,0,0,0,.13-.51A1.88,1.88,0,0,0,250.77,88Z"/><path d="M259,78.74a2.47,2.47,0,0,1-.36-.19,3.14,3.14,0,0,0-.55-.29c-.25-.1-.52-.21-.77-.33a16.59,16.59,0,0,0-2.46-.78c-.36-.09-.74-.19-1.11-.3s-.64-.22-1-.34l-.63-.24a6.16,6.16,0,0,0-1.07-.27l-.33,0a2.1,2.1,0,0,1-.61-.1.37.37,0,0,0-.51-.07.38.38,0,0,0-.08.53c.23.31.71.35,1.14.39l.26,0a7.26,7.26,0,0,1,1,.24l.61.23c.34.13.68.26,1,.36l1.15.31a14,14,0,0,1,2.33.74c.27.12.55.24.82.34a2.05,2.05,0,0,1,.41.22,2.57,2.57,0,0,0,.49.26.31.31,0,0,0,.13,0,.37.37,0,0,0,.35-.24A.38.38,0,0,0,259,78.74Z"/><path d="M261.35,82.08a.92.92,0,0,0-.2-.19,2.79,2.79,0,0,0-.91-.34l-.18,0c-.5-.14-1-.29-1.48-.46a2.27,2.27,0,0,0-.83-.15,1.26,1.26,0,0,0-.27,0,.76.76,0,0,1-.19,0,.69.69,0,0,1-.18-.12,1.5,1.5,0,0,0-.25-.19,2.55,2.55,0,0,0-.84-.27,2.77,2.77,0,0,0-.58,0c-.4,0-.66,0-.76-.17a.39.39,0,0,0-.52-.12.38.38,0,0,0-.12.52,1.45,1.45,0,0,0,1.4.51,3.24,3.24,0,0,1,.45,0,1.79,1.79,0,0,1,.59.18.83.83,0,0,1,.15.11,1.07,1.07,0,0,0,.49.28,1.15,1.15,0,0,0,.49,0l.17,0a1.66,1.66,0,0,1,.56.11c.51.17,1,.33,1.53.47l.2,0a1.82,1.82,0,0,1,.72.29.67.67,0,0,0,.5.28.61.61,0,0,0,.25-.06.37.37,0,0,0-.19-.71Z"/><path d="M263.1,86.72a.38.38,0,0,0,.37-.38.35.35,0,0,0-.38-.37,11.15,11.15,0,0,1-2.71-.37,16.06,16.06,0,0,1-1.54-.46c-.31-.1-.61-.21-.92-.3l-.44-.16a4.18,4.18,0,0,0-.56-.2,2.36,2.36,0,0,0-.87,0,1.52,1.52,0,0,1-.69,0,.37.37,0,0,0-.49.19.38.38,0,0,0,.19.5,2.19,2.19,0,0,0,1,.1,2.07,2.07,0,0,1,.62,0,4.59,4.59,0,0,1,.48.17,4.29,4.29,0,0,0,.5.19l.9.29a14.25,14.25,0,0,0,1.61.48,11.88,11.88,0,0,0,2.82.39Z"/><path d="M262.18,90.81a1.28,1.28,0,0,0-.23-.14,1.45,1.45,0,0,0-.55-.11l-.17,0a5.85,5.85,0,0,1-.75-.15l-.43-.1c-.26-.06-.52-.14-.78-.22a9.07,9.07,0,0,0-1.14-.29,3,3,0,0,0-.82.06,2.6,2.6,0,0,1-.65,0,.38.38,0,0,0-.41.63,1.8,1.8,0,0,0,1.17.07,2.86,2.86,0,0,1,.61,0,6,6,0,0,1,1,.26c.29.09.57.17.85.23l.41.1c.27.06.54.13.82.17l.24,0a.84.84,0,0,1,.26,0l.14.09a1.1,1.1,0,0,0,.59.22h0a.37.37,0,0,0,.37-.35.38.38,0,0,0-.35-.4A.45.45,0,0,1,262.18,90.81Z"/><path d="M268.49,89.93c-.49-.12-1-.27-1.44-.42s-.75-.24-1.13-.34a.37.37,0,0,0-.46.26.38.38,0,0,0,.27.46l1.1.33c.48.16,1,.31,1.48.44a2.73,2.73,0,0,1,1.46.69.36.36,0,0,0,.31.16.39.39,0,0,0,.21-.06.37.37,0,0,0,.1-.52A3.13,3.13,0,0,0,268.49,89.93Z"/><path d="M273.1,88l.11.09a1,1,0,0,1,.3.27s.05.15.07.21a.77.77,0,0,0,.29.51.46.46,0,0,0,.2,0,.37.37,0,0,0,.32-.18.38.38,0,0,0-.05-.45,1,1,0,0,0,0-.14,1.85,1.85,0,0,0-.15-.39,2.07,2.07,0,0,0-.49-.49l-.1-.07A10.85,10.85,0,0,0,270.91,86c-.43-.18-.86-.36-1.28-.56l-.28-.17a2.51,2.51,0,0,0-.7-.33,1.48,1.48,0,0,0-.63,0l-.24,0a1.25,1.25,0,0,1-1-.59.37.37,0,0,0-.5-.18.36.36,0,0,0-.18.49,2,2,0,0,0,1.71,1,2,2,0,0,0,.34,0,1.05,1.05,0,0,1,.35,0,1.84,1.84,0,0,1,.49.24l.34.2c.44.21.88.4,1.33.58A10.54,10.54,0,0,1,273.1,88Z"/><path d="M272,83.85a1.6,1.6,0,0,0-.38-.42c-.25-.18-.52-.37-.78-.54l-.1,0A9,9,0,0,0,269.2,82a5.23,5.23,0,0,0-1-.23,4.49,4.49,0,0,1-1-.24,3.07,3.07,0,0,1-.51-.3,2.54,2.54,0,0,0-1-.48l-.33,0c-.3,0-.3,0-.36-.18a.37.37,0,0,0-.71.24,1,1,0,0,0,1,.69l.27,0a2,2,0,0,1,.69.36,3.58,3.58,0,0,0,.64.37,5.14,5.14,0,0,0,1.12.29,5.56,5.56,0,0,1,.87.19,8.62,8.62,0,0,1,1.43.77l.09,0c.25.16.5.34.74.51a.94.94,0,0,1,.21.23,1.15,1.15,0,0,0,.27.32.38.38,0,0,0,.22.07.36.36,0,0,0,.3-.15.37.37,0,0,0-.07-.52Z"/><path d="M301.93,86.65a.38.38,0,0,0-.48.24c-.1.3-.2.64-.3,1a13.91,13.91,0,0,1-.9,2.43.38.38,0,0,0,.14.52.39.39,0,0,0,.18,0,.39.39,0,0,0,.33-.19,14.26,14.26,0,0,0,1-2.59c.1-.33.19-.66.29-1A.38.38,0,0,0,301.93,86.65Z"/><path d="M304.85,88.38a.38.38,0,0,0-.21-.49.39.39,0,0,0-.49.21,4.29,4.29,0,0,0-.19,1.07c-.06.56-.15,1.33-.42,1.49a.6.6,0,0,1-.47,0,.38.38,0,1,0-.28.7,1.76,1.76,0,0,0,.6.13,1,1,0,0,0,.53-.14c.6-.36.7-1.26.78-2.06A4.51,4.51,0,0,1,304.85,88.38Z"/><path d="M307.35,89.25a.36.36,0,0,0-.49.19,7.58,7.58,0,0,1-.72,1.21l-.37.55-.21.33a10.05,10.05,0,0,0-.85,1.51.38.38,0,0,0,.22.49.31.31,0,0,0,.13,0,.38.38,0,0,0,.35-.24,8.39,8.39,0,0,1,.79-1.38l.21-.34.35-.53a8.33,8.33,0,0,0,.78-1.33A.37.37,0,0,0,307.35,89.25Z"/><path d="M304.48,82.64c-.06.46-.11.75-.4,1a.37.37,0,0,0-.07.52.38.38,0,0,0,.3.15.4.4,0,0,0,.23-.08,2,2,0,0,0,.69-1.47c0-.09,0-.2,0-.32a2.82,2.82,0,0,0,0-1.41.37.37,0,0,0-.48-.21.38.38,0,0,0-.22.48,2.6,2.6,0,0,1-.07,1C304.52,82.42,304.5,82.54,304.48,82.64Z"/><path d="M306.82,83.33a2,2,0,0,1-.42.64,3.48,3.48,0,0,0-.45.6,4.14,4.14,0,0,0-.34.77,2.15,2.15,0,0,0-.09.4,2,2,0,0,1-.08.35.38.38,0,0,0,.14.51.41.41,0,0,0,.19.05.4.4,0,0,0,.32-.18,2.21,2.21,0,0,0,.17-.6,2.27,2.27,0,0,1,.06-.3,3.8,3.8,0,0,1,.29-.64,3.53,3.53,0,0,1,.36-.48,2.47,2.47,0,0,0,.57-.9.38.38,0,1,0-.72-.22Z"/><path d="M309.86,74.52a.38.38,0,0,0-.4.35,2.46,2.46,0,0,1-.2.68l-.52,1.4c-.07.17-.14.34-.22.51s-.19.45-.27.68l0,.09c-.09.27-.25.72-.44.78a.37.37,0,0,0-.26.46.38.38,0,0,0,.36.27l.11,0c.57-.16.79-.81,1-1.33.08-.21.17-.42.26-.63s.16-.36.23-.55l.52-1.38a2.85,2.85,0,0,0,.25-.92A.37.37,0,0,0,309.86,74.52Z"/><path d="M305.79,75.42a5.32,5.32,0,0,0-.37,1.28c-.05.2-.09.39-.14.57s-.15.64-.21,1l0,.22a2.83,2.83,0,0,1-.14.63.38.38,0,0,0,.15.51.39.39,0,0,0,.18,0,.38.38,0,0,0,.33-.2,3.09,3.09,0,0,0,.22-.86l0-.2c.05-.31.12-.6.2-.91s.09-.39.14-.6a5.57,5.57,0,0,1,.32-1.12.38.38,0,0,0-.68-.32Z"/><path d="M303.94,73.4a.36.36,0,0,0,.33.41h0a.37.37,0,0,0,.37-.33,2.41,2.41,0,0,1,.2-.61c.07-.16.14-.32.19-.47a5.1,5.1,0,0,0,.16-1l0-.24a10,10,0,0,0,.08-1.26,2.43,2.43,0,0,0-.13-.63,1.43,1.43,0,0,1-.09-.44.38.38,0,0,0-.35-.4.37.37,0,0,0-.4.35,2.28,2.28,0,0,0,.12.7,1.63,1.63,0,0,1,.1.43,7.37,7.37,0,0,1-.08,1.16l0,.26a4.6,4.6,0,0,1-.14.84,3.2,3.2,0,0,1-.16.39A2.86,2.86,0,0,0,303.94,73.4Z"/><path d="M307.07,73a.36.36,0,0,0,.29-.13,4.43,4.43,0,0,0,.78-2.49c0-.11,0-.23,0-.34a3.6,3.6,0,0,1,0-.58,2.09,2.09,0,0,1,.4-.72l.13-.18c0-.06.09-.14.14-.24l.28-.46a.37.37,0,1,0-.2-.72c-.29.07-.48.38-.73.8a1.39,1.39,0,0,1-.11.19l-.12.17a2.59,2.59,0,0,0-.52,1,3.2,3.2,0,0,0-.06.7c0,.1,0,.21,0,.31a3.71,3.71,0,0,1-.6,2,.37.37,0,0,0,0,.53A.38.38,0,0,0,307.07,73Z"/><path d="M304.53,59.59a1.68,1.68,0,0,0,.24.77,3.27,3.27,0,0,0,.25.32.6.6,0,0,1,.22.46c0,.46.06.94.08,1.4,0,.08,0,.17,0,.27a1.69,1.69,0,0,0,.1.87.33.33,0,0,0,.31.19.39.39,0,0,0,.18,0,.39.39,0,0,0,.17-.5,1.76,1.76,0,0,1,0-.47c0-.13,0-.25,0-.35,0-.47,0-.95-.08-1.42a1.38,1.38,0,0,0-.4-.91,2.81,2.81,0,0,1-.2-.24,1.34,1.34,0,0,1-.12-.46,2.73,2.73,0,0,0-.14-.6.39.39,0,0,0-.5-.19.37.37,0,0,0-.19.49A1.47,1.47,0,0,1,304.53,59.59Z"/><path d="M307.55,62.18a2,2,0,0,0-.19.68,4.29,4.29,0,0,0,0,.8,4.14,4.14,0,0,1,0,.67.37.37,0,0,0,.32.42h.05a.36.36,0,0,0,.37-.32,4.1,4.1,0,0,0,0-.85,5.22,5.22,0,0,1,0-.67,1.34,1.34,0,0,1,.14-.43,2.55,2.55,0,0,0,.19-.59,4,4,0,0,0-.05-1.1l0-.24c0-.08,0-.19-.05-.3a1.42,1.42,0,0,1-.05-.52.37.37,0,0,0-.19-.49.37.37,0,0,0-.49.18,1.56,1.56,0,0,0,0,1c0,.09,0,.17,0,.24l0,.25a3.92,3.92,0,0,1,.05.89A1.74,1.74,0,0,1,307.55,62.18Z"/><path d="M304.6,49.17a2.62,2.62,0,0,0,.08.82l.07.24a3.71,3.71,0,0,1,.24,1,3.79,3.79,0,0,1-.13,1.39.37.37,0,0,0,.23.48l.12,0a.39.39,0,0,0,.36-.25,4.53,4.53,0,0,0-.1-2.88l-.07-.23a1.8,1.8,0,0,1,0-.58,2.28,2.28,0,0,0-.11-.92.38.38,0,0,0-.7.28A1.52,1.52,0,0,1,304.6,49.17Z"/><path d="M302.93,55.66h0a.37.37,0,0,0,.37-.37,7.35,7.35,0,0,0-.92-3.08c-.22-.47-.43-.92-.59-1.37a.38.38,0,0,0-.48-.24.38.38,0,0,0-.23.48,15.41,15.41,0,0,0,.62,1.45,6.59,6.59,0,0,1,.85,2.76A.38.38,0,0,0,302.93,55.66Z"/><path d="M301.27,46.48a.38.38,0,0,0,.23-.48,1.8,1.8,0,0,1,0-.67,2.83,2.83,0,0,0,0-.82,1.43,1.43,0,0,0-.19-.43.84.84,0,0,1-.1-.23,2.65,2.65,0,0,1,0-.83.38.38,0,0,0-.31-.43.36.36,0,0,0-.43.31,3.25,3.25,0,0,0,0,1.09,1.52,1.52,0,0,0,.19.46,1.17,1.17,0,0,1,.11.23,2.36,2.36,0,0,1,0,.6,2.46,2.46,0,0,0,.07,1,.38.38,0,0,0,.35.25Z"/><path d="M303.54,44.44a6.34,6.34,0,0,0-.08-.89c-.12-.67-.24-1.37-.31-2a.38.38,0,0,0-.4-.34.39.39,0,0,0-.34.42c.07.7.19,1.41.33,2.19a4.12,4.12,0,0,1,.05.7l0,.44a1.45,1.45,0,0,0,.12.75.42.42,0,0,0,.34.19.45.45,0,0,0,.19-.05.38.38,0,0,0,.13-.51,1.46,1.46,0,0,1,0-.38Z"/><path d="M300.54,39.6a.42.42,0,0,0,.34-.17.4.4,0,0,0,0-.37,1.06,1.06,0,0,1,0-.53,2.58,2.58,0,0,0,.05-.36c0-.28,0-.57,0-.85V36.9a3.63,3.63,0,0,0-.22-1.5c-.06-.14-.13-.27-.2-.4a3,3,0,0,1-.31-.83.37.37,0,0,0-.74.11,3.42,3.42,0,0,0,.38,1l.18.37a3,3,0,0,1,.16,1.2v.43c0,.27,0,.54,0,.8,0,.08,0,.17,0,.27a2,2,0,0,0,0,.74.34.34,0,0,0,0,.1.47.47,0,0,0,.31.36Z"/><path d="M302.2,36.56a.39.39,0,0,0,.18,0,.39.39,0,0,0,.33-.19,1.47,1.47,0,0,0,.09-.83c0-.1,0-.2,0-.27a7.24,7.24,0,0,1,.1-.83,2.4,2.4,0,0,1,.14-.36,3.88,3.88,0,0,0,.15-.36,2,2,0,0,0,.06-.43,1.42,1.42,0,0,1,0-.28.38.38,0,0,0-.63-.41,1.22,1.22,0,0,0-.15.63,1.43,1.43,0,0,1,0,.26,2.33,2.33,0,0,1-.11.28,2.07,2.07,0,0,0-.19.53,6.8,6.8,0,0,0-.12.92c0,.11,0,.24,0,.37a1.47,1.47,0,0,1,0,.42A.38.38,0,0,0,302.2,36.56Z"/><path d="M302.82,29.22h.1c.46-.13,1.16-1.27,1.28-1.49.21-.38.28-.63.21-.84a.39.39,0,0,0-.47-.28.34.34,0,0,0-.25.43,4.28,4.28,0,0,1-1,1.46.38.38,0,0,0-.23.46A.37.37,0,0,0,302.82,29.22Z"/><path d="M304.29,30.67a.38.38,0,0,0,.27.11.35.35,0,0,0,.26-.1l.32-.29a4.57,4.57,0,0,0,.66-.66,7.41,7.41,0,0,0,.49-.71l.27-.4.2-.29a5.44,5.44,0,0,1,.45-.62,1.59,1.59,0,0,0,.46-1.27.38.38,0,0,0-.38-.37.37.37,0,0,0-.37.38.83.83,0,0,1-.28.76,8.3,8.3,0,0,0-.51.7l-.19.29c-.09.13-.19.27-.28.42s-.29.44-.45.65a5.92,5.92,0,0,1-.56.56l-.35.31A.38.38,0,0,0,304.29,30.67Z"/><path d="M310.34,23.37a1.06,1.06,0,0,0,.45.08,4.31,4.31,0,0,0,.83-.11l.11,0a3,3,0,0,0,.93-.36,4.54,4.54,0,0,1,1.36-.58.39.39,0,0,0,.3-.44.37.37,0,0,0-.44-.3,5.79,5.79,0,0,0-1.59.66,2.21,2.21,0,0,1-.7.28l-.11,0a2.73,2.73,0,0,1-.84.07.37.37,0,0,0-.49.2A.37.37,0,0,0,310.34,23.37Z"/><path d="M313.38,25c-.63.14-1.41.3-1.58,1a.38.38,0,0,0,.28.45h.09a.37.37,0,0,0,.36-.29c.06-.24.58-.36,1-.45a3.62,3.62,0,0,0,.76-.21,2.53,2.53,0,0,0,.54-.36c.09-.06.17-.13.27-.19l.28-.21a.92.92,0,0,1,.32-.22.38.38,0,0,0-.16-.74,1.65,1.65,0,0,0-.64.38l-.2.15-.33.24a2.35,2.35,0,0,1-.4.27A3.44,3.44,0,0,1,313.38,25Z"/><path d="M318,22.75h.05a2.27,2.27,0,0,0,.58-.1,1.76,1.76,0,0,1,.47-.09.37.37,0,1,0,0-.74,2.44,2.44,0,0,0-.69.1,2,2,0,0,1-.4.08.36.36,0,0,0-.39.36A.38.38,0,0,0,318,22.75Z"/><path d="M321.78,22.43a1.23,1.23,0,0,0,.81.08.82.82,0,0,1,.21,0h.72a7.94,7.94,0,0,1,1.08.07l1.14.17.85.12h.05a.38.38,0,0,0,.05-.75l-.84-.13c-.39-.06-.77-.12-1.16-.16a9.33,9.33,0,0,0-1.17-.08h-.72a2,2,0,0,1-.3,0,1.38,1.38,0,0,1-.34,0,.37.37,0,0,0-.38.64Z"/><path d="M324.34,23.63a.84.84,0,0,1-.32,0,.39.39,0,0,0-.47.26.37.37,0,0,0,.26.46,1.38,1.38,0,0,0,.44.05h.11a.36.36,0,0,0,.36-.38A.38.38,0,0,0,324.34,23.63Z"/><path d="M320.41,24a2.5,2.5,0,0,0,1,.14l.45,0a2.29,2.29,0,0,1,.46.12.37.37,0,0,0,.5-.16.36.36,0,0,0-.16-.5,2.28,2.28,0,0,0-.71-.2c-.15,0-.34,0-.53,0a2.23,2.23,0,0,1-.73-.07.38.38,0,1,0-.32.68Z"/></svg>