<svg id="Layer_1" data-name="Layer 1" xmlns="http://www.w3.org/2000/svg" viewBox="0 0 1900 1200"><defs><style>.cls-1{fill:#f5d8cb;}</style></defs><title>index-bkgd-1</title><path class="cls-1" d="M174.93,57.9s68.94,84.46,85.41,93.68c0,0,105.1-8.4,121.59-11.09-19.21-23.1-31.3-40.27-50.71-61.77C319.31,65.55,302.56,49,302.56,49s-90.62-.45-127.63,8.9"/><path class="cls-1" d="M1587.93,945.32s68.94,84.46,85.41,93.68c0,0,105.1-8.4,121.59-11.09-19.21-23.1-31.3-40.27-50.71-61.76-11.91-13.18-28.66-29.72-28.66-29.72s-90.62-.45-127.63,8.89"/><path class="cls-1" d="M1416.93,111.68s99-45.56,112.1-59.2c0,0,18.23-103.84,19.76-120.48-27.18,12.8-46.84,20.2-72.51,33.61-15.74,8.22-36,20.29-36,20.29s-23.16,87.61-23.39,125.78"/><path class="cls-1" d="M-68.07,687.32S.87,771.78,17.34,781c0,0,105.1-8.4,121.59-11.09-19.21-23.1-31.3-40.27-50.71-61.76C76.31,695,59.56,678.43,59.56,678.43s-90.62-.45-127.63,8.89"/><path class="cls-1" d="M888,1106.32s68.94,84.46,85.41,93.68c0,0,105.1-8.4,121.59-11.09-19.21-23.1-31.3-40.27-50.71-61.76-11.91-13.18-28.66-29.72-28.66-29.72S925,1097,888,1106.32"/><path class="cls-1" d="M1228.48,199.05s5.14,108.9,12.89,126.11c0,0,89.46,55.8,104.31,63.45-1.69-30-1.18-51-4-79.81-1.72-17.68-5.34-40.94-5.34-40.94s-72.55-54.29-107.86-68.81"/><path class="cls-1" d="M1254.93,930.44s5.14,108.9,12.89,126.11c0,0,89.45,55.8,104.31,63.45-1.69-30-1.18-51-4-79.82-1.73-17.67-5.34-40.94-5.34-40.94s-72.56-54.29-107.86-68.8"/><path class="cls-1" d="M853.21,77.63,819.27,112l-38.11-10.28C739.52,70.9,534.93-312.93,534.93-312.93L598.3-351.7Z"/><path class="cls-1" d="M1074.93,122.85l16.85,33.09,30.88,1.06c38.52-13.3,284.65-250.27,284.65-250.27l-37.69-43Z"/><path class="cls-1" d="M507.93,548.31l30-21.83,28,13.07c28.28,29.35,140,352.24,140,352.24L652.82,913Z"/><path class="cls-1" d="M1605.93,411.57c12-11.85,324.59-289.15,324.59-289.15L2115.64,234,2002.53,526Z"/><path class="cls-1" d="M1532.29,695.05c-7.15-4-178.36-112.74-178.36-112.74L1381.19,481l151.4,13.69Z"/><path class="cls-1" d="M471.93,389.15c-9.7,6.86-258,163.85-258,163.85L98.1,454.63,209.69,264.79Z"/><path class="cls-1" d="M-95.07,1126.58C-81.13,1117,275.32,899,275.32,899L437.94,1041.4,275.22,1309Z"/><path class="cls-1" d="M1169.11,454l26.25,7,5.57,21.49c-3.49,28.93-134.22,235.73-134.22,235.73L1030.13,698Z"/><path class="cls-1" d="M909.17,483.74l48.23-2.53,21.23,33.27c10,50.83-97.43,472.3-97.43,472.3l-73-14Z"/><path class="cls-1" d="M978.58,211a29.62,29.62,0,0,0-16.4,54.3c3.61,2.86,13.05,17.56,18.14,31.62,7,19.14,7.72,24,5.34,34.68l-3.38,13.82c-2.2,8.63-4.83,18.93-7.73,32.49a29.59,29.59,0,0,0,22.77,35.15c15.89,3.64,31.71-6.74,35.15-22.77,2.72-12.61,5.18-22.18,7.21-30.2l3.84-15.71c6-27.1.67-45.16-7.49-67.68-.67-1.83-16.31-44.32-41.11-60.75A29.34,29.34,0,0,0,978.58,211"/><path class="cls-1" d="M1730.89,589.9A29.62,29.62,0,0,0,1682.51,624c5.55,8.81,10.76,19.41,15.44,28.79,2.94,5.88,5.68,11.38,8.18,16,8.95,16.51,11.43,23.45,17.09,38.85l2.39,6.5c4.11,11.29,6.28,19.2,8.46,27a358.62,358.62,0,0,0,11.57,35.8A29.63,29.63,0,0,0,1801,755.8a299.59,299.59,0,0,1-9.84-30.55c-2.54-9.13-5.11-18.36-9.94-31.61l-2.4-6.46c-6.77-18.52-9.87-26.86-20.65-46.77l-7.2-14.08c-5.51-11.11-11.78-23.57-18.38-34-.55-.82-1.1-1.63-1.71-2.41"/><path class="cls-1" d="M1653,67c-14.27,0-27,3.76-38,11.28-25.66,17.47-34.16,49.56-39.57,81.64-5.58,33.15-14.87,50.12-21.72,55-16.21-2.92-34.31,8.53-37.12,24.61s5.12,32,21.23,34.78c18.17,3.21,35.5-.64,50.1-11,22.74-16.08,38.2-47.55,45.94-93.49,5.38-32.05,11.4-40.38,14.49-42.52,1.89-1.22,6.31-1.31,11.89-.12a29.62,29.62,0,0,0,12.21-58A95.22,95.22,0,0,0,1653,67"/><path class="cls-1" d="M759.51,1064.4c-9.22-10.89-20.31-18.17-33.17-21.73-29.92-8.3-59.9,5.93-87.88,22.53-28.91,17.15-47.87,21-56,18.92-8.23-14.26-28.67-20.68-42.77-12.44s-21.1,24.56-12.83,38.67c9.29,16,23.42,26.69,40.78,31.13,27,7,61-1.56,101.05-25.32,27.94-16.6,38.18-17.39,41.82-16.41,2.14.65,5.07,4,7.77,9a29.62,29.62,0,1,0,52.14-28.12,95.48,95.48,0,0,0-10.92-16.22"/><path class="cls-1" d="M369.19,610.88a29.6,29.6,0,0,0-28.46,37.72c-.93,7.52-6.51,25.06-9.38,30.86-17.64,33.62-21.84,41.63-58.05,86.27a29.61,29.61,0,1,0,46,37.31c38.47-47.38,44.64-58.17,64.57-96.12.23-.49,27.27-54.39,10.7-81.78a29.68,29.68,0,0,0-25.37-14.26"/><path class="cls-1" d="M18.19-64.12A29.64,29.64,0,0,0,2.86-59.84,29.66,29.66,0,0,0-10.27-26.4c-.93,7.52-6.51,25.06-9.38,30.86-17.64,33.62-21.84,41.63-58,86.27a29.62,29.62,0,0,0,4.33,41.65A29.62,29.62,0,0,0-31.71,128C6.76,80.66,12.93,69.87,32.86,31.92c.23-.49,27.27-54.39,10.7-81.78A29.68,29.68,0,0,0,18.19-64.12"/><path class="cls-1" d="M1573.44,1093a29.59,29.59,0,0,0-28.46,37.72c-.93,7.53-6.52,25.06-9.38,30.86-17.65,33.62-21.84,41.63-58,86.27a29.61,29.61,0,1,0,46,37.31c38.47-47.38,44.64-58.17,64.56-96.12.24-.49,27.28-54.38,10.7-81.78a29.66,29.66,0,0,0-25.36-14.26"/><path class="cls-1" d="M754.08,283a29.54,29.54,0,0,0-24.47,12.9c-7.9,11.54-19.85,25.69-32,40.15-15,17.91-30.54,36.42-40.9,52.39a29.62,29.62,0,1,0,49.7,32.22c8.82-13.59,22.91-30.19,36.59-46.51,13.51-16.14,26.73-32,35.49-44.81A29.62,29.62,0,0,0,754.08,283"/><path class="cls-1" d="M492.48,225.28a29.62,29.62,0,0,0,46.89,32.79l15.88-13.54C574.6,228,626,184,638.53,178.21c16.09-3.07,24.88-18,21.79-34.11s-20.35-26.1-36.43-23c-15.71,3-37.73,19.09-107.16,78.48l-15.45,13.15a29.43,29.43,0,0,0-8.8,12.6"/></svg>