<svg id="Layer_1" data-name="Layer 1" xmlns="http://www.w3.org/2000/svg" viewBox="0 0 1900 1200"><defs><style>.cls-1{fill:#4dbcc3;}</style></defs><title>kits-page-bkgd</title><path class="cls-1" d="M753.31,742.12c-25.48,7.85-55.81,11.65-92.25,10-15.47-.69-30.8-2.77-46.15-4.88-11.47-1.58-22.95-3.18-34.52-4C483,736,392.06,787.19,291.84,849.69a26.1,26.1,0,0,1-27.61-44.29c83.42-52,197.61-123.27,320-114.23,12.63.94,25.21,2.66,37.77,4.39,13.76,1.88,27.5,3.81,41.37,4.43,104.29,4.68,141.32-38.3,170-114.1a26.09,26.09,0,1,1,48.82,18.44c-21.59,57.17-54.27,114.81-128.87,137.79"/><path class="cls-1" d="M1061.23,339.13c-26.44-3.36-55.64-12.41-88.17-28.93-13.8-7-26.91-15.22-40-23.47-9.8-6.17-19.6-12.37-29.79-17.91-85.8-46.75-189.7-37.62-306.77-22a26.1,26.1,0,1,1-6.89-51.74c97.45-13,230.87-30.79,338.65,27.93,11.12,6.07,21.88,12.82,32.61,19.58,11.75,7.38,23.47,14.81,35.85,21.1,93.08,47.27,144.54,23.39,201.89-33.86a26.1,26.1,0,1,1,36.87,36.94c-43.25,43.18-96.79,82.21-174.23,72.38"/><path class="cls-1" d="M1914.65,654.5c-24.68-10.09-50.53-26.39-77.68-50.77-11.52-10.34-22-21.67-32.58-33-7.87-8.49-15.72-17-24.13-25-70.76-67.37-173.48-85.46-290.6-100.71a26.1,26.1,0,1,1,6.74-51.76c97.48,12.7,231,30,319.87,114.68,9.17,8.74,17.81,18,26.42,27.35,9.44,10.18,18.84,20.39,29.17,29.66,77.66,69.77,133.55,60,203.77,19.59a26.09,26.09,0,1,1,26,45.22c-53,30.51-114.78,54.34-187,24.79"/><path class="cls-1" d="M144.83,489.55C99.92,526.36,45.22,545.36-7.85,563.81L-22.65,569c-17.5,6.14-35.42,11.33-53.34,16.51-32.62,9.42-63.45,18.32-90.91,32.94-71.64,38.2-116.62,113.56-156.35,180.1-8,13.41-25.88,17.48-39.95,9.19s-19-25.88-11.05-39.26c41.21-69,92.48-154.93,177.64-200.29,32.7-17.41,67.87-27.57,101.91-37.4C-77.84,525.89-61,521-44.46,515.23l15-5.21C25.55,490.89,77.41,472.91,116,436.57c68.31-64.39,91.93-113.1,76.64-157.95a27.26,27.26,0,0,1,18.44-35.36,30.63,30.63,0,0,1,37.12,19.36C278.35,351,211,428,157.64,478.29c-4.16,3.92-8.45,7.69-12.81,11.26"/><path class="cls-1" d="M1299.24,1069.58c-49.17,20.67-101.48,23.43-152.25,26.11l-14.16.77c-16.75.93-33.58.94-50.42.93-30.64,0-59.59,0-87.35,5.77-72.42,15.16-132.93,69.28-186.38,117.06a26.09,26.09,0,0,1-34.78-38.91c55.44-49.56,124.41-111.25,210.49-129.23,33-6.91,66.08-6.9,98.05-6.88,15.84,0,31.69,0,47.49-.86l14.31-.77c52.66-2.78,102.25-5.36,145.87-27.21,77.24-38.75,111.69-75.1,111.76-117.86a26.09,26.09,0,1,1,52.17.07c-.09,84.26-80.25,134.21-140.55,164.45-4.7,2.36-9.48,4.55-14.25,6.56"/><path class="cls-1" d="M1802.59,115c-.89-13.68-15.7-22.19-27.81-24.21-12.61-2.11-24.62,3.7-37.07,2.23-31.36-3.71-38.28-56.25-73.39-44.74,0,0-15.83,1.45-23.6,11.39-10.5,13.45-4.24,73-2,108.64,1,15.42,7.47,27.41,25.42,28.21,19.37.87,37.31-7.53,53.56-16.6,18.22-10.17,36.85-19.79,54.82-30.42,11.91-7,31.12-18.17,30.06-34.5"/><path class="cls-1" d="M851.7,955.42c-.89-13.68-15.7-22.19-27.81-24.21-12.62-2.11-24.63,3.7-37.07,2.23-31.36-3.71-38.28-56.25-73.39-44.74,0,0-15.83,1.45-23.6,11.39-10.5,13.45-4.24,73-2,108.64,1,15.42,7.47,27.41,25.42,28.21,19.37.87,37.31-7.53,53.55-16.6,18.23-10.17,36.86-19.79,54.83-30.42,11.91-7,31.12-18.18,30.06-34.5"/><path class="cls-1" d="M377.89,46.42c-.89-13.68-15.7-22.19-27.81-24.21-12.62-2.11-24.63,3.7-37.08,2.23-31.35-3.71-38.27-56.25-73.38-44.74,0,0-15.83,1.45-23.6,11.39-10.5,13.45-4.24,73-2,108.64,1,15.42,7.47,27.41,25.42,28.21,19.37.87,37.31-7.53,53.55-16.6,18.23-10.17,36.86-19.79,54.83-30.42,11.91-7,31.11-18.18,30.06-34.5"/><path class="cls-1" d="M211.7,1118.42c-.89-13.68-15.7-22.19-27.81-24.21-12.62-2.11-24.63,3.7-37.07,2.23-31.36-3.71-38.28-56.25-73.39-44.74,0,0-15.83,1.45-23.6,11.39-10.5,13.45-4.24,73-2,108.64,1,15.42,7.47,27.41,25.42,28.21,19.37.87,37.31-7.53,53.55-16.6,18.23-10.17,36.86-19.79,54.83-30.42,11.91-7,31.12-18.18,30.06-34.5"/><path class="cls-1" d="M1245.1,491.93c-11-8.15-27.08-2.33-36.44,5.63-9.74,8.28-13.05,21.2-22.21,29.76-23.07,21.57-67.68-7.05-81.54,27.2,0,0-9.1,13-6.52,25.38,3.5,16.7,53,50.35,81.72,71.62,12.4,9.21,25.76,12,38-1.23,13.16-14.23,18.32-33.36,21.88-51.62,4-20.49,8.65-40.93,12.13-61.51,2.3-13.64,6.19-35.5-7-45.23"/><path class="cls-1" d="M1853.89,739.42c-.89-13.68-15.7-22.19-27.81-24.21-12.62-2.11-24.63,3.7-37.08,2.23-31.35-3.71-38.27-56.25-73.38-44.74,0,0-15.83,1.45-23.6,11.39-10.5,13.45-4.24,73-2,108.64,1,15.42,7.47,27.41,25.42,28.21,19.37.87,37.31-7.53,53.55-16.6,18.23-10.17,36.86-19.79,54.83-30.42,11.91-7,31.11-18.18,30.06-34.5"/><path class="cls-1" d="M1702.42,1089.93c-10.3-9-26.79-4.59-36.78,2.54-10.41,7.44-14.8,20-24.64,27.8-24.8,19.55-66.84-12.71-83.53,20.26,0,0-10.17,12.21-8.63,24.74,2.08,16.93,48.62,54.62,75.41,78.22,11.59,10.22,24.66,14.1,37.92,2,14.31-13.08,21.06-31.7,26.14-49.6,5.69-20.08,12.06-40.06,17.25-60.27,3.44-13.4,9.15-34.86-3.14-45.66"/><path class="cls-1" d="M504.67,387.93c-10.3-9-26.79-4.59-36.78,2.54-10.41,7.44-14.8,20-24.64,27.8-24.8,19.55-66.84-12.71-83.53,20.26,0,0-10.17,12.21-8.63,24.74,2.08,16.93,48.62,54.62,75.41,78.22,11.59,10.22,24.66,14.1,37.92,2,14.31-13.08,21.06-31.7,26.14-49.6,5.69-20.08,12.06-40.06,17.25-60.27,3.45-13.4,9.15-34.86-3.14-45.66"/><path class="cls-1" d="M1228.45-49.41c-8.5-10.75-25.52-9.34-36.63-4.12-11.58,5.44-18.16,17-29.25,22.9-27.91,14.77-63.46-24.54-85.81,4.88,0,0-12.2,10.19-13,22.79-1,17,38,62.48,60.09,90.52,9.57,12.14,21.73,18.32,37,8.77,16.43-10.29,26.42-27.39,34.63-44.08,9.22-18.73,19.09-37.24,27.83-56.18,5.8-12.56,15.28-32.64,5.13-45.48"/></svg>