<svg id="Layer_1" data-name="Layer 1" xmlns="http://www.w3.org/2000/svg" viewBox="0 0 1900 1200"><defs><style>.cls-1{fill:#f8dd39;}</style></defs><title>collections</title><path class="cls-1" d="M1438,1136.35c-8.25,8.36-19.22,16.17-33.7,23.14-6.14,3-12.52,5.36-18.91,7.75-4.78,1.78-9.57,3.55-14.24,5.64-39.3,17.55-63.87,56.38-89.7,101.55a11.5,11.5,0,1,1-20-11.41c21.5-37.6,50.92-89.09,100.29-111.14,5.1-2.27,10.34-4.24,15.57-6.19,5.73-2.14,11.46-4.26,17-6.91,41.44-20,46.83-44.37,42.11-79.76a11.5,11.5,0,1,1,22.79-3c3.56,26.69,2.92,55.87-21.22,80.37"/><path class="cls-1" d="M901.77,1148.05c-10.87-4.44-22.26-11.62-34.22-22.36-5.08-4.56-9.72-9.55-14.35-14.56-3.47-3.74-6.93-7.5-10.64-11-31.17-29.68-76.42-37.65-128-44.37a11.5,11.5,0,1,1,3-22.8c43,5.6,101.75,13.24,140.92,50.52,4,3.85,7.84,8,11.64,12,4.16,4.49,8.3,9,12.85,13.07,34.21,30.74,58.83,26.44,89.77,8.63a11.49,11.49,0,1,1,11.47,19.92c-23.33,13.44-50.56,23.94-82.39,10.92"/><path class="cls-1" d="M543,145.55c-10.87-4.45-22.26-11.63-34.22-22.37-5.07-4.55-9.71-9.55-14.35-14.55-3.47-3.75-6.93-7.5-10.63-11-31.18-29.68-76.43-37.65-128-44.37a11.5,11.5,0,0,1,3-22.8C401.65,36,460.46,43.67,499.62,81c4,3.85,7.85,8,11.64,12.05,4.16,4.48,8.3,9,12.85,13.07,34.22,30.73,58.84,26.44,89.77,8.62a11.5,11.5,0,1,1,11.48,19.93C602,148.07,574.79,158.57,543,145.55"/><path class="cls-1" d="M1485.79,521.22c-11.65-1.48-24.51-5.46-38.84-12.74-6.08-3.08-11.86-6.71-17.63-10.34-4.32-2.72-8.64-5.45-13.13-7.89-37.79-20.6-83.57-16.58-135.15-9.7a11.5,11.5,0,0,1-3-22.8c42.93-5.71,101.71-13.56,149.19,12.31,4.9,2.67,9.64,5.65,14.37,8.62,5.18,3.26,10.34,6.53,15.79,9.3,41,20.83,63.68,10.3,89-14.92a11.5,11.5,0,1,1,16.24,16.28c-19,19-42.64,36.21-76.76,31.88"/><path class="cls-1" d="M1936.77,680.05c-10.87-4.44-22.26-11.62-34.22-22.36-5.08-4.56-9.72-9.55-14.35-14.56-3.47-3.74-6.93-7.5-10.64-11-31.17-29.68-76.42-37.65-128-44.37a11.5,11.5,0,1,1,3-22.8c43,5.6,101.75,13.24,140.92,50.52,4,3.85,7.84,7.95,11.64,12,4.16,4.49,8.3,9,12.85,13.07,34.21,30.74,58.83,26.44,89.77,8.63a11.49,11.49,0,1,1,11.47,19.92c-23.33,13.44-50.56,23.94-82.39,10.92"/><path class="cls-1" d="M1878.89,210.21c-11.43,2.69-24.88,3.45-40.85,1.64-6.78-.77-13.45-2.14-20.13-3.53-5-1-10-2.09-15.06-2.81-42.61-6.09-84.09,13.67-130,38.14a11.5,11.5,0,1,1-10.8-20.3c38.22-20.36,90.55-48.25,144.08-40.6,5.53.79,11,1.92,16.48,3.06,6,1.24,12,2.5,18.05,3.19,45.69,5.18,63.26-12.6,78.12-45.06a11.5,11.5,0,0,1,20.91,9.57c-11.21,24.48-27.3,48.84-60.78,56.7"/><path class="cls-1" d="M159.89,1029c-11.43,2.68-24.88,3.44-40.85,1.63-6.78-.76-13.45-2.14-20.13-3.53-5-1-10-2.08-15.06-2.8-42.61-6.09-84.09,13.67-130,38.13a11.49,11.49,0,0,1-15.55-4.74A11.5,11.5,0,0,1-57,1042.13c38.22-20.36,90.55-48.26,144.08-40.61,5.53.79,11,1.92,16.48,3.06,6,1.24,12,2.5,18,3.19,45.69,5.19,63.26-12.59,78.12-45a11.5,11.5,0,1,1,20.91,9.57c-11.21,24.48-27.3,48.83-60.78,56.7"/><path class="cls-1" d="M340.43,567.52c-11.54-2.2-24.13-7-38-15.14-5.88-3.46-11.42-7.44-17-11.42-4.14-3-8.27-6-12.6-8.7-36.44-22.91-82.38-21.76-134.28-18.12A11.49,11.49,0,1,1,137,491.21c43.21-3,102.36-7.2,148.14,21.59,4.72,3,9.26,6.24,13.79,9.5,5,3.57,9.92,7.16,15.19,10.27,39.63,23.34,62.91,14.26,89.7-9.34A11.5,11.5,0,0,1,419,540.49c-20.21,17.79-44.82,33.48-78.6,27"/><path class="cls-1" d="M1317,133.92c-21.75-8.9-38.89-24.35-55.52-39.35l-4.65-4.18c-5.5-4.93-10.75-10.18-16-15.43-9.52-9.56-18.53-18.59-29-25.44-27.26-17.86-63-19.89-94.5-21.69a11.49,11.49,0,0,1,1.31-22.95c32.71,1.86,73.41,4.17,105.8,25.41,12.44,8.16,22.72,18.47,32.66,28.44,4.93,4.94,9.86,9.89,15,14.54l4.69,4.22c17.26,15.56,33.5,30.22,53.88,37,36.12,12,58.18,11.46,71.54-1.83A11.49,11.49,0,1,1,1418.54,129c-26.3,26.19-66.83,16.74-95,7.35-2.2-.73-4.37-1.54-6.48-2.4"/><path class="cls-1" d="M1274.76,779.58c-16.69,16.54-37.62,26.27-57.92,35.72l-5.66,2.64c-6.69,3.14-13.57,5.91-20.45,8.68-12.53,5-24.36,9.79-34.75,16.73-27.1,18.11-42.93,50.18-56.91,78.51a11.5,11.5,0,0,1-20.62-10.19c14.5-29.37,32.54-65.93,64.76-87.44,12.37-8.26,25.87-13.69,38.94-19,6.48-2.6,13-5.2,19.27-8.16l5.72-2.67c21.06-9.8,40.9-19,55.13-35.12,25.2-28.54,33.3-49.06,26.29-66.55a11.49,11.49,0,1,1,21.33-8.56c13.83,34.45-10.71,68.06-30.38,90.34-1.54,1.73-3.13,3.41-4.75,5"/><path class="cls-1" d="M1732.05,1015.77c-10-23.54-11.31-49-12.56-73.74l-.36-6.89c-.44-8.16-.42-16.38-.4-24.6,0-14.95.08-29.09-2.71-42.51-7.31-35-33.63-63.34-56.87-88.35-4.68-5-4.2-13.1,1-18s13.29-4.86,18,.18c24.11,25.94,54.11,58.22,62.78,99.84,3.33,16,3.29,32.11,3.24,47.71,0,7.74,0,15.48.37,23.17l.36,7c1.29,25.65,2.49,49.8,13.1,70.6,18.8,36.84,36.49,52.84,57.34,51.91a12,12,0,0,1,12.68,12.16,13.5,13.5,0,0,1-12.77,13.31c-41.09,1.85-65.36-36.15-80-64.91-1.15-2.24-2.21-4.52-3.18-6.81"/><path class="cls-1" d="M1040.1,525.94c-19.79,16.22-43.88,24.59-67.26,32.72l-6.52,2.27c-7.71,2.71-15.61,5-23.5,7.28-14.37,4.14-28,8.07-40.05,14.51-31.56,16.83-51.38,50-68.88,79.34-3.52,5.91-11.4,7.7-17.6,4.05s-8.39-11.4-4.87-17.3c18.16-30.41,40.74-68.25,78.26-88.23,14.4-7.67,29.9-12.15,44.89-16.48,7.44-2.15,14.87-4.29,22.14-6.84l6.59-2.3c24.25-8.42,47.1-16.35,64.1-32.35,30.09-28.37,40.49-49.83,33.76-69.59a12,12,0,0,1,8.12-15.58,13.51,13.51,0,0,1,16.36,8.53c13.28,38.93-16.4,72.87-39.89,95-1.84,1.73-3.73,3.39-5.65,5"/><path class="cls-1" d="M133.27,232.69c-22.77,5.83-45.74,3.64-68,1.52L59,233.63c-7.35-.68-14.69-1.77-22-2.86-13.35-2-26-3.88-38.43-3.15C-34,229.53-63.87,249.2-90.26,266.56a11.49,11.49,0,0,1-15.92-3.29,11.49,11.49,0,0,1,3.29-15.92c27.37-18,61.42-40.42,100.1-42.68C12.05,203.8,26.45,206,40.38,208c6.9,1,13.81,2.07,20.75,2.7l6.28.6c23.13,2.2,44.91,4.29,65.33-2.41,36.17-11.88,53.54-25.49,56.34-44.12a11.49,11.49,0,1,1,22.73,3.41c-5.5,36.72-43.67,53.29-71.91,62.56-2.2.72-4.42,1.37-6.63,1.93"/><path class="cls-1" d="M980,67.7c-4.39-4.15-11.72-2.46-16.24.52-4.7,3.1-6.84,8.58-11.3,11.83-11.23,8.21-29.22-6.68-37.1,7.56,0,0-4.68,5.21-4.21,10.75.65,7.49,20.52,24.84,31.93,35.67,4.94,4.69,10.63,6.61,16.67,1.48,6.51-5.52,9.78-13.61,12.31-21.41,2.83-8.75,6-17.44,8.58-26.25,1.73-5.85,4.59-15.2-.64-20.15"/><path class="cls-1" d="M1837.84,410.12c-.39-6-6.91-9.78-12.25-10.67-5.56-.92-10.85,1.64-16.33,1-13.82-1.64-16.87-24.79-32.34-19.72,0,0-7,.64-10.39,5-4.63,5.93-1.87,32.17-.88,47.86.43,6.8,3.29,12.08,11.2,12.43,8.53.39,16.44-3.32,23.59-7.31,8-4.48,16.24-8.72,24.16-13.4,5.24-3.1,13.71-8,13.24-15.2"/><path class="cls-1" d="M1673.11,1175.12c-.39-6-6.92-9.78-12.25-10.67-5.56-.92-10.85,1.64-16.34,1-13.81-1.64-16.86-24.79-32.33-19.72,0,0-7,.64-10.39,5-4.63,5.93-1.87,32.17-.88,47.86.43,6.8,3.29,12.08,11.2,12.43,8.53.39,16.44-3.32,23.59-7.31,8-4.48,16.24-8.72,24.16-13.4,5.24-3.1,13.7-8,13.24-15.2"/><path class="cls-1" d="M62.91,405.69c-.39-6-6.91-9.78-12.25-10.67-5.56-.93-10.85,1.63-16.33,1C20.51,394.37,17.46,371.22,2,376.29c0,0-7,.64-10.39,5-4.63,5.92-1.87,32.16-.88,47.86C-8.85,436-6,441.25,1.92,441.6c8.54.38,16.44-3.32,23.6-7.31,8-4.49,16.23-8.72,24.15-13.4,5.24-3.1,13.71-8,13.24-15.2"/><path class="cls-1" d="M1090.84,740.06c-.39-6-6.91-9.78-12.25-10.67-5.56-.92-10.85,1.64-16.33,1-13.82-1.64-16.87-24.79-32.34-19.71,0,0-7,.63-10.39,5-4.63,5.93-1.87,32.17-.88,47.86.43,6.8,3.29,12.08,11.2,12.43,8.53.39,16.44-3.32,23.59-7.31,8-4.48,16.24-8.72,24.16-13.4,5.24-3.1,13.71-8,13.24-15.2"/><path class="cls-1" d="M1304.91,290.06c-.39-6-6.91-9.78-12.25-10.67-5.56-.92-10.85,1.64-16.33,1-13.82-1.64-16.87-24.79-32.34-19.71,0,0-7,.63-10.39,5-4.63,5.93-1.87,32.17-.88,47.86.43,6.8,3.29,12.08,11.2,12.43,8.54.39,16.44-3.32,23.6-7.31,8-4.48,16.23-8.72,24.15-13.4,5.24-3.1,13.71-8,13.24-15.2"/><path class="cls-1" d="M451.84,317.06c-.39-6-6.91-9.78-12.25-10.67-5.56-.92-10.85,1.64-16.33,1-13.82-1.64-16.87-24.79-32.34-19.71,0,0-7,.63-10.39,5-4.63,5.93-1.87,32.17-.88,47.86.43,6.8,3.29,12.08,11.2,12.43,8.53.39,16.44-3.32,23.59-7.31,8-4.48,16.24-8.72,24.16-13.4,5.24-3.1,13.71-8,13.24-15.2"/><path class="cls-1" d="M1698.38,49.82c-4.15-4.4-11.56-3.13-16.24-.41-4.88,2.83-7.32,8.17-12,11.17-11.69,7.54-28.79-8.35-37.48,5.42,0,0-5,4.93-4.81,10.49.21,7.51,19.06,26,29.83,37.44,4.66,5,10.23,7.21,16.55,2.43,6.82-5.14,10.55-13,13.52-20.67,3.33-8.57,7-17.07,10.07-25.72,2.07-5.73,5.46-14.91.52-20.15"/><path class="cls-1" d="M1514.58,778.92c-4.86-3.58-11.93-1-16,2.48-4.3,3.65-5.76,9.34-9.79,13.12-10.16,9.5-29.82-3.11-35.92,12,0,0-4,5.74-2.87,11.18,1.54,7.36,23.36,22.18,36,31.55,5.46,4.06,11.34,5.28,16.72-.54,5.79-6.27,8.07-14.7,9.63-22.74,1.76-9,3.82-18,5.35-27.1,1-6,2.72-15.64-3.07-19.93"/><path class="cls-1" d="M657,904.43c-.39-6-6.92-9.78-12.26-10.67-5.55-.93-10.84,1.63-16.33,1C614.6,893.11,611.55,870,596.08,875c0,0-7,.64-10.4,5-4.62,5.93-1.86,32.16-.87,47.86.42,6.8,3.29,12.08,11.2,12.43,8.53.38,16.43-3.32,23.59-7.31,8-4.48,16.24-8.72,24.15-13.4,5.25-3.1,13.71-8,13.25-15.2"/><path class="cls-1" d="M169.07,782.39c-3.66-4.81-11.18-4.32-16.11-2.11-5.14,2.31-8.13,7.37-13.06,9.86-12.41,6.29-27.76-11.3-37.84,1.49,0,0-5.45,4.39-5.88,9.93-.57,7.49,16.25,27.82,25.77,40.34,4.11,5.43,9.42,8.24,16.2,4.15,7.32-4.4,11.85-11.86,15.6-19.14,4.21-8.18,8.7-16.26,12.7-24.53,2.65-5.49,7-14.26,2.62-20"/><path class="cls-1" d="M1924,849.12c-4.54-4-11.8-2-16.2,1.12-4.59,3.28-6.52,8.83-10.86,12.25-10.92,8.61-29.45-5.6-36.8,8.92,0,0-4.48,5.38-3.8,10.9.92,7.46,21.42,24.06,33.22,34.46,5.11,4.5,10.87,6.22,16.71.87,6.3-5.76,9.28-14,11.51-21.85,2.51-8.85,5.32-17.65,7.61-26.56,1.51-5.9,4-15.35-1.39-20.11"/><path class="cls-1" d="M771.23,426.54c-4.33-4.21-11.69-2.63-16.24.29-4.75,3-7,8.48-11.47,11.67-11.35,8-29.13-7.1-37.21,7,0,0-4.75,5.14-4.36,10.69.54,7.49,20.16,25.13,31.42,36.12,4.86,4.75,10.53,6.76,16.64,1.72,6.59-5.43,10-13.48,12.61-21.23,3-8.71,6.22-17.36,9-26.13,1.81-5.82,4.81-15.13-.35-20.16"/><path class="cls-1" d="M1224.47,1096.74c-3.74-4.74-11.25-4.12-16.14-1.82-5.1,2.4-8,7.51-12.88,10.09-12.3,6.51-28-10.81-37.81,2.15,0,0-5.37,4.49-5.7,10-.44,7.5,16.74,27.53,26.47,39.88,4.21,5.35,9.57,8.07,16.28,3.86,7.24-4.53,11.64-12.07,15.26-19.42,4.06-8.25,8.41-16.4,12.26-24.75,2.55-5.53,6.73-14.38,2.26-20"/><path class="cls-1" d="M404.47,1164.06c-.39-6-6.91-9.78-12.25-10.67-5.56-.92-10.85,1.64-16.33,1-13.82-1.64-16.87-24.79-32.34-19.71,0,0-7,.63-10.39,5-4.63,5.93-1.87,32.17-.88,47.86.43,6.8,3.29,12.08,11.2,12.43,8.53.39,16.44-3.32,23.59-7.31,8-4.48,16.24-8.72,24.16-13.4,5.24-3.1,13.71-8,13.24-15.2"/><path class="cls-1" d="M579,755.69c-12.82,19.69-31.22,33.63-49.06,47.16l-5,3.78c-5.88,4.48-12,8.65-18.15,12.81-11.18,7.57-21.74,14.72-30.43,23.69-22.66,23.44-31.35,58.13-39,88.77a11.49,11.49,0,0,1-22.3-5.59c8-31.78,17.86-71.33,44.8-99.17,10.34-10.68,22.39-18.85,34.05-26.74,5.78-3.92,11.57-7.83,17.11-12.06l5-3.81c18.51-14,36-27.24,46.46-46,18.59-33.22,22.16-55,11.62-70.61a11.49,11.49,0,0,1,19-12.87c20.79,30.75,3.91,68.78-10.6,94.72-1.13,2-2.33,4-3.57,5.91"/></svg>