<?xml version="1.0" encoding="utf-8"?>
<!-- Generator: Adobe Illustrator 22.0.1, SVG Export Plug-In . SVG Version: 6.00 Build 0)  -->
<svg version="1.1" id="Layer_1" xmlns="http://www.w3.org/2000/svg" xmlns:xlink="http://www.w3.org/1999/xlink" x="0px" y="0px"
	 viewBox="0 0 80 75.4" style="enable-background:new 0 0 80 75.4;" xml:space="preserve">
<style type="text/css">
	.st0{fill:#231F20;}
</style>
<g>
	<path class="st0" d="M57.7,36.2c2.7-3.8,3.1-8.5,3.1-14C60.8,10.2,54.2,0,35,0C15.7,0,0.2,9.8,0.2,21.8c0,12.1,8.5,21.5,27.7,21.5
		c2.2,0,11.3,0.2,13.3,0c6.8-0.3,16.9-1.9,27.3-5.7c4.5-1.6,9.3-7.2,11.4-8.5C72.6,34.4,62.3,36,57.7,36.2z M32,14.4
		c0.2-0.4,0.6-0.9,0.8-1.1c0.5-0.6,1.1-0.8,1.8-0.9c1.2-0.2,3,0,4,1c1,1,1.5,2.8,1.3,4.1C39.8,19,39,20,37.7,20.6
		c-1.3,0.6-3,0.7-4.3-0.2C32.9,20,32.3,19.5,32,19c-0.3-0.6-0.4-1.5-0.4-2.1C31.5,16,31.5,14.8,32,14.4z M22.2,33.1
		c-0.6,0-1.3,0-1.9,0c0-0.3,0-0.5,0-0.8c-0.1-1.2-0.2-2.4-0.3-3.6c-0.1-0.8-0.2-3-1.7-1.9c-0.8,0.6-0.7,2.3-0.8,3.2
		c-0.1,1-0.1,1.9,0.1,3.2c0,0-1.2,0-1.8,0c0-0.5,0-0.8,0-1.3c0-1.1,0-6.9-2.2-5.5c-0.7,0.4-1,2.4-1,3.2c0,1.2,0.2,2.4,0.3,3.5
		c-0.6,0-1.1,0.1-1.7,0c-0.1-2.6-0.3-5.5-0.3-8c0.7,0,1.5,0,1.5,0s0.3,0.4,0.3,1c0.4-1.9,3.9-1.5,4.4,0.1c1.1-1.4,4-1.9,4.7,0.3
		c0.3,1,0.1,2.2,0.2,3.2C22.3,30.6,22.6,32.2,22.2,33.1z M22.2,20.8c-0.6,0-1.3,0-1.9,0c0-0.3,0-0.5,0-0.8c-0.1-1.2-0.2-2.4-0.3-3.6
		c-0.1-0.8-0.2-3-1.7-1.9c-0.8,0.6-0.7,2.3-0.8,3.2c-0.1,1-0.1,1.9,0.1,3.2c0,0-1.2,0-1.8,0c0-0.5,0-0.8,0-1.3c0-1.1,0-6.9-2.2-5.5
		c-0.7,0.4-1,2.4-1,3.2c0,1.2,0.2,2.4,0.3,3.5c-0.6,0-1.1,0.1-1.7,0c-0.1-2.6-0.3-5.5-0.3-8c0.7,0,1.5,0,1.5,0s0.3,0.4,0.3,1
		c0.4-1.9,3.9-1.5,4.4,0.1c1.1-1.4,4-1.9,4.7,0.3c0.3,1,0.1,2.2,0.2,3.2C22.3,18.3,22.6,19.9,22.2,20.8z M30.6,29.3
		c-0.9-0.1-1.9,0-2.8,0c-0.5,0-1,0-1.5,0c-0.2,0-0.5,0-0.7,0l-0.4,0c-0.2,0.1-0.2,0.1-0.2,0.2c-0.1,0.7,0.7,2.2,1.5,2.4
		c0.4,0.1,1.3,0,1.6-0.3c0.3-0.3,0.6-0.8,0.7-1.2c0.6-0.1,1.1,0.3,1.7,0.4c-0.1,0.8-0.7,1.4-1.3,1.9c-0.7,0.6-1.6,0.7-2.5,0.6
		c-0.6-0.1-1-0.2-1.5-0.5c-0.5-0.3-0.8-0.6-1.1-1c-0.6-0.8-0.9-2-0.9-3c0-1,0.4-2.3,1.1-3c0.4-0.4,0.7-0.6,1.1-0.8
		c0.2-0.1,0.6-0.1,0.8-0.2c0.3-0.1,0.6,0,0.9,0c0.5,0,1.1,0.1,1.6,0.3c0.5,0.2,0.7,0.6,1.1,1C30.4,27,30.7,28.2,30.6,29.3z M30.6,17
		c-0.9-0.1-1.9,0-2.8,0c-0.5,0-1,0-1.5,0c-0.2,0-0.5,0-0.7,0l-0.4,0C25.1,17,25,17,25,17.2c-0.1,0.7,0.7,2.2,1.5,2.4
		c0.4,0.1,1.3,0,1.6-0.3c0.3-0.3,0.6-0.8,0.7-1.2c0.6-0.1,1.1,0.3,1.7,0.4c-0.1,0.8-0.7,1.4-1.3,1.9c-0.7,0.6-1.6,0.7-2.5,0.6
		c-0.6-0.1-1-0.2-1.5-0.5c-0.5-0.3-0.8-0.6-1.1-1c-0.6-0.8-0.9-2-0.9-3c0-1,0.4-2.3,1.1-3c0.4-0.4,0.7-0.6,1.1-0.8
		c0.2-0.1,0.6-0.1,0.8-0.2c0.3-0.1,0.6,0,0.9,0c0.5,0,1.1,0.1,1.6,0.3c0.5,0.2,0.7,0.6,1.1,1C30.4,14.8,30.7,15.9,30.6,17z
		 M39.9,29.8c-0.2,1.5-0.9,2.4-2.2,3.1c-1.3,0.6-3,0.7-4.3-0.2c-0.5-0.4-1.2-0.8-1.5-1.4c-0.3-0.6-0.4-1.5-0.4-2.1
		c-0.1-0.8,0-2,0.5-2.4c0.2-0.4,0.6-0.9,0.8-1.1c0.5-0.6,1.1-0.8,1.8-0.9c1.2-0.2,3,0,4,1C39.6,26.7,40.1,28.4,39.9,29.8z M52.2,26
		c-0.1,0.3-0.3,0.7-0.4,1c-0.2,0.3-0.4,0.6-0.5,1c-0.1,0.3-0.7,1.8-0.9,2.2c-0.2,0.4-0.4,0.9-0.6,1.4L49,33.1h-0.7
		c0,0-0.5-0.7-0.6-1.1c-0.1-0.4-0.7-2-0.9-2.4c-0.2-0.4-0.5-0.9-0.7-1.4c0,0,0,0,0,0s-0.2,0.6-0.3,0.7c-0.1,0.2-0.2,0.4-0.3,0.6
		c-0.2,0.4-0.4,0.8-0.5,1.2c-0.1,0.4-0.3,0.8-0.5,1.2c-0.2,0.4-0.4,1.2-0.4,1.2l-1,0c0,0-0.3-0.6-0.4-0.8c-0.3-0.6-0.6-1.3-0.8-1.9
		l-1.3-2.7c-0.3-0.9-1.2-2.7-1.2-2.7l1.3,0.1c0,0,0.6,0,1,0.1c0,0.1,0,0.1,0.1,0.1l0.6,1.5c0.2,0.4,0.7,1.8,0.8,2.2
		c0.1,0.4,0.5,1.3,0.5,1.3s0.2-0.7,0.4-1c0.4-0.9,0.7-1.8,1-2.7c0.2-0.4,0.6-1.7,0.6-1.7h0.7c0,0,0.1,0.3,0.2,0.5
		c0.4,0.8,0.7,1.4,1,2.3c0.2,0.5,0.4,1,0.6,1.5c0.1,0.4,0.3,0.8,0.4,1.2c0,0,0,0,0,0c0.1,0,0.4-1.1,0.5-1.3c0.2-0.4,0.7-2.2,0.9-2.6
		c0.2-0.3,0.6-1.2,0.6-1.2l2.2,0C52.7,25.1,52.4,25.7,52.2,26z M52.2,13.7c-0.1,0.3-0.3,0.7-0.4,1c-0.2,0.3-0.4,0.6-0.5,1
		c-0.1,0.3-0.7,1.8-0.9,2.2c-0.2,0.4-0.4,0.9-0.6,1.4L49,20.9h-0.7c0,0-0.5-0.7-0.6-1.1c-0.1-0.4-0.7-2-0.9-2.4
		c-0.2-0.4-0.5-0.9-0.7-1.4c0,0,0,0,0,0s-0.2,0.6-0.3,0.7c-0.1,0.2-0.2,0.4-0.3,0.6c-0.2,0.4-0.4,0.8-0.5,1.2
		c-0.1,0.4-0.3,0.8-0.5,1.2c-0.2,0.4-0.4,1.2-0.4,1.2l-1,0c0,0-0.3-0.6-0.4-0.8c-0.3-0.6-0.6-1.3-0.8-1.9l-1.3-2.7
		c-0.3-0.9-1.2-2.7-1.2-2.7l1.3,0.1c0,0,0.6,0,1,0.1c0,0.1,0,0.1,0.1,0.1l0.6,1.5c0.2,0.4,0.7,1.8,0.8,2.2c0.1,0.4,0.5,1.3,0.5,1.3
		s0.2-0.7,0.4-1c0.4-0.9,0.7-1.8,1-2.7c0.2-0.4,0.6-1.7,0.6-1.7h0.7c0,0,0.1,0.3,0.2,0.5c0.4,0.8,0.7,1.4,1,2.3
		c0.2,0.5,0.4,1,0.6,1.5c0.1,0.4,0.3,0.8,0.4,1.2c0,0,0,0,0,0c0.1,0,0.4-1.1,0.5-1.3c0.2-0.4,0.7-2.2,0.9-2.6
		c0.2-0.3,0.6-1.2,0.6-1.2l2.2,0C52.7,12.8,52.4,13.4,52.2,13.7z"/>
	<path class="st0" d="M56.5,44.1C43.6,44.1,31,49.9,31,57.1c0,2.8,0.9,5.4,2.8,7.5c-4.5,4.9-29.9-2-33.8-3.1
		c16.2,7.3,42.8,12.5,46.4,13c3.2,0.3,9.2,0.9,13,0.9c12.9,0,20.4-11,20.4-18.3C79.9,49.9,69.4,44.1,56.5,44.1z M41.9,57.5l-1.4,0.1
		c0,0,0,1.1,0,1.7c0,0.3,0,1,0,1s0,0.6,0,1c0,0.7,0.1,2,0.1,2s-0.7,0.1-1,0.1c-0.3,0-0.9-0.1-0.9-0.1s0-1.1,0-1.6
		c0-0.7-0.1-1.3-0.1-2c0-0.3,0-0.7,0-1c0-0.3,0-1,0-1s-0.3,0-0.4-0.1c-0.2,0-0.4,0-0.4,0l0-1.5c0,0,0,0,0.3,0c0.2,0,0.4,0,0.6,0
		c0-0.2,0-1.1,0-1.3c-0.1-0.4,0-1.4,0-1.4s0.6,0,0.9,0s0.9,0,0.9,0s0,0.9,0,1.3c0,0.4,0,1.3,0,1.3s0.5,0,0.7,0c0.2,0,0.7,0,0.7,0
		s0,0.5,0,0.7C41.9,57.1,41.9,57.5,41.9,57.5z M53.9,57.6c-0.2,0.3-0.3,0.6-0.5,0.9c-0.1,0.3-0.7,1.6-0.9,2
		c-0.2,0.4-0.3,0.8-0.5,1.2l-0.7,1.5h-0.7c0,0-0.4-0.7-0.5-1c-0.1-0.4-0.7-1.9-0.9-2.2c-0.2-0.3-0.5-0.9-0.6-1.2c0,0,0,0,0,0
		s-0.2,0.5-0.3,0.6c-0.1,0.2-0.2,0.4-0.3,0.6c-0.2,0.4-0.3,0.7-0.5,1.1c-0.1,0.4-0.3,0.8-0.4,1.1c-0.2,0.4-0.4,1.1-0.4,1.1l-0.9,0
		c0,0-0.3-0.5-0.4-0.7c-0.3-0.6-0.6-1.2-0.7-1.8l-1.2-2.5c-0.3-0.9-1.1-2.5-1.1-2.5l1.2,0.1c0,0,0.6,0,0.9,0.1c0,0.1,0,0.1,0.1,0.1
		l0.5,1.4c0.1,0.4,0.7,1.6,0.8,2c0.1,0.4,0.4,1.2,0.4,1.2s0.2-0.6,0.3-1c0.3-0.8,0.6-1.6,0.9-2.5c0.1-0.4,0.6-1.6,0.6-1.6h0.7
		c0,0,0.1,0.3,0.2,0.5c0.3,0.7,0.6,1.3,0.9,2.1c0.2,0.4,0.4,0.9,0.5,1.4c0.1,0.3,0.3,0.8,0.4,1.1v0c0.1,0,0.4-1,0.5-1.2
		c0.1-0.4,0.6-2,0.8-2.4c0.1-0.3,0.5-1.1,0.5-1.1l2,0c0,0-0.3,0.5-0.4,0.8C54.1,57,54,57.3,53.9,57.6z M61.5,59.6
		c-0.8-0.1-1.7,0-2.6,0c-0.5,0-0.9,0-1.4,0c-0.2,0-0.5,0-0.7,0l-0.4,0c-0.1,0.1-0.2,0.1-0.2,0.2c-0.1,0.7,0.7,2,1.4,2.2
		c0.4,0.1,1.2,0,1.5-0.2c0.3-0.2,0.6-0.7,0.6-1.1c0.6-0.1,1,0.3,1.5,0.3c-0.1,0.7-0.6,1.3-1.2,1.8c-0.6,0.5-1.5,0.6-2.3,0.6
		c-0.5-0.1-1-0.2-1.4-0.5c-0.5-0.2-0.7-0.5-1.1-1c-0.6-0.7-0.8-1.8-0.8-2.7c0-0.9,0.4-2.1,1.1-2.8c0.3-0.4,0.6-0.5,1-0.7
		c0.2-0.1,0.5-0.1,0.7-0.2c0.2-0.1,0.6,0,0.8,0c0.5,0,1,0.1,1.5,0.3c0.5,0.2,0.7,0.6,1,0.9C61.2,57.6,61.5,58.6,61.5,59.6z
		 M69.3,59.6c-0.8-0.1-1.7,0-2.6,0c-0.5,0-0.9,0-1.4,0c-0.2,0-0.5,0-0.7,0l-0.4,0c-0.1,0.1-0.2,0.1-0.2,0.2c-0.1,0.7,0.7,2,1.4,2.2
		c0.4,0.1,1.2,0,1.5-0.2c0.3-0.2,0.6-0.7,0.6-1.1c0.6-0.1,1,0.3,1.5,0.3c-0.1,0.7-0.6,1.3-1.2,1.8c-0.6,0.5-1.5,0.6-2.3,0.6
		c-0.5-0.1-1-0.2-1.4-0.5c-0.5-0.2-0.7-0.5-1.1-1c-0.6-0.7-0.8-1.8-0.8-2.7c0-0.9,0.4-2.1,1.1-2.8c0.3-0.4,0.6-0.5,1-0.7
		c0.2-0.1,0.5-0.1,0.7-0.2c0.2-0.1,0.6,0,0.8,0c0.5,0,1,0.1,1.5,0.3c0.5,0.2,0.7,0.6,1,0.9C69,57.6,69.4,58.6,69.3,59.6z M73.9,57.5
		l-1.4,0.1c0,0,0,1.1,0,1.7c0,0.3,0,1,0,1s0,0.6,0,1c0,0.7,0.1,2,0.1,2s-0.7,0.1-1,0.1c-0.3,0-0.9-0.1-0.9-0.1s0-1.1,0-1.6
		c0-0.7-0.1-1.3-0.1-2c0-0.3,0-0.7,0-1c0-0.3,0-1,0-1s-0.3,0-0.4-0.1c-0.2,0-0.4,0-0.4,0l0-1.5c0,0,0,0,0.3,0c0.2,0,0.4,0,0.6,0
		c0-0.2,0-1.1,0-1.3c-0.1-0.4,0-1.4,0-1.4s0.6,0,0.9,0s0.9,0,0.9,0s0,0.9,0,1.3c0,0.4,0,1.3,0,1.3s0.5,0,0.7,0c0.2,0,0.7,0,0.7,0
		s0,0.5,0,0.7C73.9,57.1,73.9,57.5,73.9,57.5z"/>
</g>
</svg>
