<svg id="Layer_1" data-name="Layer 1" xmlns="http://www.w3.org/2000/svg" viewBox="0 0 160 219.33"><defs><style>.cls-1{fill:#231f20;}</style></defs><title>info</title><path class="cls-1" d="M108.64,13.21l.15.09.24.21a2.23,2.23,0,0,0,.58.41,5.2,5.2,0,0,0,2.07.46,2.35,2.35,0,0,0,1.7-.58,1.35,1.35,0,0,0,.41-.72,1.25,1.25,0,0,0,0-.6A3.72,3.72,0,0,0,111.23,10a6.25,6.25,0,0,0-3.19.15.44.44,0,0,0-.27.23,2.42,2.42,0,0,0,.31,2.31A1.53,1.53,0,0,0,108.64,13.21Zm0-2.18A5.7,5.7,0,0,1,111,11a2.75,2.75,0,0,1,1.81,1.75.82.82,0,0,1,0,.16s0,.08-.14.19c-.45.45-1.7.28-2.41,0l.94-1a.51.51,0,0,0,0-.71.5.5,0,0,0-.71,0l-1.07,1.08,0,0-.21-.13a.8.8,0,0,1-.21-.16A1.87,1.87,0,0,1,108.62,11Z"/><path class="cls-1" d="M99.12,14.38a.5.5,0,0,0,.32-.89.77.77,0,0,1-.22-.63,3.53,3.53,0,0,1,.26-1,1.67,1.67,0,0,1,.17-.38.34.34,0,0,1,.12-.11.5.5,0,1,0-.16-1,1.16,1.16,0,0,0-.77.51,2.21,2.21,0,0,0-.3.62,4,4,0,0,0-.32,1.26,1.78,1.78,0,0,0,.59,1.44A.47.47,0,0,0,99.12,14.38Z"/><path class="cls-1" d="M92.25,14.6a.52.52,0,0,0,.24.05.5.5,0,0,0,.44-.26.51.51,0,0,0-.21-.68.14.14,0,0,1,0-.1,1.67,1.67,0,0,1,0-.4l0-.5a1.17,1.17,0,0,1,.11-.56A.71.71,0,0,1,93,12a1.48,1.48,0,0,0,.61-.54.5.5,0,0,0-.85-.52.64.64,0,0,1-.24.18,1.69,1.69,0,0,0-.57.46,2,2,0,0,0-.3,1.12l0,.5a2.37,2.37,0,0,0,0,.68A1.16,1.16,0,0,0,92.25,14.6Z"/><path class="cls-1" d="M85.36,18.44a.64.64,0,0,0,.23-.05.51.51,0,0,0,.22-.67,2.48,2.48,0,0,1-.4-1.64,2.69,2.69,0,0,1,.22-.46,5.06,5.06,0,0,1,.36-.54,5.6,5.6,0,0,0,.43-.65.5.5,0,1,0-.87-.48,5.22,5.22,0,0,1-.37.54c-.15.22-.31.44-.43.65a2.87,2.87,0,0,0-.3.66,3.29,3.29,0,0,0,.46,2.36A.5.5,0,0,0,85.36,18.44Z"/><path class="cls-1" d="M79.15,22.39s0,.05.06.14a3,3,0,0,1,0,.45,4.33,4.33,0,0,0,.21,1.72,2.22,2.22,0,0,0,1.33,1.38.45.45,0,0,0,.16,0,.5.5,0,0,0,.17-1,1.31,1.31,0,0,1-.73-.79A3.61,3.61,0,0,1,80.22,23a2.36,2.36,0,0,0,0-.64,1.19,1.19,0,0,0-.52-.8.5.5,0,0,0-.52.86Z"/><path class="cls-1" d="M75.41,31.63a3.62,3.62,0,0,0,1.1,1A2.17,2.17,0,0,0,77.6,33a1.5,1.5,0,0,0,.45-.07.5.5,0,0,0-.28-1c-.22.07-.41,0-.76-.19a2.71,2.71,0,0,1-.8-.77,2.12,2.12,0,0,1-.28-.43,1.66,1.66,0,0,1-.17-.79.49.49,0,0,0-.47-.53.5.5,0,0,0-.52.47A2.64,2.64,0,0,0,75,31,4.56,4.56,0,0,0,75.41,31.63Z"/><path class="cls-1" d="M78.58,39.22a.5.5,0,1,0-.33-.95,2.4,2.4,0,0,1-2.69-.54,1.1,1.1,0,0,1-.19-.3.88.88,0,0,1,0-.17l0-.22a1.43,1.43,0,0,0-.54-.8l-.23.23-.44.5a.77.77,0,0,1,.22.26.68.68,0,0,1,0,.14c0,.11,0,.22.06.33a1.66,1.66,0,0,0,.41.7,3.19,3.19,0,0,0,2.41,1.05A4.35,4.35,0,0,0,78.58,39.22Z"/><polygon class="cls-1" points="74.43 36.59 74.55 36.47 74.77 36.22 74.43 36.59"/><path class="cls-1" d="M79,45.52l.35-.2a.48.48,0,0,1-.06.58.57.57,0,0,0,.14-.65.5.5,0,0,0-.57-.24,2.29,2.29,0,0,1-1.37,0l-.09,0a6.38,6.38,0,0,0-1.25-1.24.5.5,0,0,0-.7.11.48.48,0,0,0,.1.69,5.22,5.22,0,0,1,1,1.05,1.17,1.17,0,0,0,.6.38,3.38,3.38,0,0,0,.93.14,3.68,3.68,0,0,0,1-.15Z"/><path class="cls-1" d="M82.57,53.34a.5.5,0,0,0,.08-1,5.71,5.71,0,0,1-1.51-.45,1.47,1.47,0,0,1-.47-.28,2.15,2.15,0,0,1-.18-.24,3.24,3.24,0,0,0-.24-.31l-.2-.2a.91.91,0,0,1-.22-.23.5.5,0,0,0-.57-.43.51.51,0,0,0-.42.57,1.47,1.47,0,0,0,.53.83l.14.14.17.21a1.93,1.93,0,0,0,.28.36,2.7,2.7,0,0,0,.78.5,7.19,7.19,0,0,0,1.75.52Z"/><path class="cls-1" d="M85.05,59.33a2.18,2.18,0,0,1,.59-.06.51.51,0,0,0,.56-.44.5.5,0,0,0-.44-.55,2.93,2.93,0,0,0-.91.07c-.42.09-.65.13-.92-.06a2.6,2.6,0,0,0-.4-.23c-.13-.08-.26-.14-.35-.21l-.64-.56c-.21-.2-.43-.4-.67-.6a.5.5,0,1,0-.64.77c.23.19.43.38.64.57l.68.59a2.61,2.61,0,0,0,.52.32l.29.17a1.71,1.71,0,0,0,1,.31A2.82,2.82,0,0,0,85.05,59.33Z"/><path class="cls-1" d="M84.46,63.83a.5.5,0,0,0,0,.71A3.86,3.86,0,0,0,86,65.61a4,4,0,0,0,1.45.33,2.59,2.59,0,0,0,1-.21.5.5,0,1,0-.38-.92,2.13,2.13,0,0,1-1.73-.13,2.86,2.86,0,0,1-1.16-.83A.5.5,0,0,0,84.46,63.83Z"/><path class="cls-1" d="M88.18,71.38a2.25,2.25,0,0,1-.43-.45.45.45,0,0,1-.09-.33.5.5,0,1,0-1-.25,1.43,1.43,0,0,0,.22,1.12,3,3,0,0,0,.62.66,1.81,1.81,0,0,0,.64.41,1.79,1.79,0,0,0,.58.08l.68,0a6.62,6.62,0,0,0,1.32-.12.5.5,0,0,0,.4-.58.51.51,0,0,0-.59-.4,7.54,7.54,0,0,1-1.78.08.83.83,0,0,1-.29,0A1.21,1.21,0,0,1,88.18,71.38Z"/><path class="cls-1" d="M90.83,78.81l-.93-1.15a.7.7,0,0,1,0-.28.5.5,0,0,0-.45-.55.5.5,0,0,0-.54.46,1.35,1.35,0,0,0,.21,1l.94,1.17a1.33,1.33,0,0,0,.48.34l.13.07a2.87,2.87,0,0,0,.68.34,3.27,3.27,0,0,0,1.12.26,2.62,2.62,0,0,0,1-.21.51.51,0,0,0,.27-.66.5.5,0,0,0-.65-.27,1.6,1.6,0,0,1-1.45-.09,1.54,1.54,0,0,1-.34-.17L91,78.88Z"/><path class="cls-1" d="M92.67,87.09a11.18,11.18,0,0,1-1-.48,4.94,4.94,0,0,1-1.18-.81,1.29,1.29,0,0,1-.43-1,.5.5,0,1,0-1-.11,2.27,2.27,0,0,0,.7,1.83,5.7,5.7,0,0,0,1.42,1,9.29,9.29,0,0,0,1.34.59l.14,0h.08l1.11-.18a.49.49,0,0,0,.41-.57.51.51,0,0,0-.57-.42Z"/><path class="cls-1" d="M93.37,93.55a11.65,11.65,0,0,0-1.79-.5l-.18,0a4.41,4.41,0,0,1-.72-.16l-.29-.07a.68.68,0,0,1-.26-.1.48.48,0,0,0-.27-.51.5.5,0,0,0-.67.22.82.82,0,0,0,.13.89,1.39,1.39,0,0,0,.84.47l.21,0a5.6,5.6,0,0,0,.86.2l.18,0A9.53,9.53,0,0,1,93,94.5l.16,0a.52.52,0,0,0,.48-.33A.5.5,0,0,0,93.37,93.55Z"/><path class="cls-1" d="M90.89,99a2,2,0,0,1-1.82-1.16.51.51,0,0,0-.66-.26.5.5,0,0,0-.25.66A3,3,0,0,0,90.85,100h.07a.52.52,0,0,0,.49-.52A.5.5,0,0,0,90.89,99Z"/><path class="cls-1" d="M88.6,105.41a5.26,5.26,0,0,0-.89,0l-.21-.25-.08-.07c0-.06-.11-.12-.15-.18a.31.31,0,0,1,0-.25.5.5,0,0,0-.4-.58.49.49,0,0,0-.58.41,1.3,1.3,0,0,0,.19,1,3.17,3.17,0,0,0,.34.4,2.16,2.16,0,0,1,.29.37.5.5,0,0,0,.42.23h.09a4,4,0,0,1,1-.07.5.5,0,0,0,0-1Z"/><path class="cls-1" d="M85.88,112.78a8.16,8.16,0,0,0-1-.4l-.23-.08-.24-.36a6.81,6.81,0,0,1-.67-1.22.5.5,0,1,0-.93.35,6.65,6.65,0,0,0,.76,1.41c.11.16.22.33.32.5a.49.49,0,0,0,.26.21l.41.14a9,9,0,0,1,.94.35.54.54,0,0,0,.21,0,.52.52,0,0,0,.46-.29A.5.5,0,0,0,85.88,112.78Z"/><path class="cls-1" d="M82.24,116.52a1.87,1.87,0,0,0-.3,0c-.19,0-.25,0-.34-.17-.25-.4-.37-.58-.5-.76s-.24-.34-.47-.71a.49.49,0,0,0-.68-.16.5.5,0,0,0-.17.69c.25.4.38.58.5.76a7.76,7.76,0,0,1,.47.71,1.37,1.37,0,0,0,1.16.64l.16,0a.5.5,0,0,0,.17-1Z"/><path class="cls-1" d="M74.4,127.13a1.87,1.87,0,0,0,1.2.46h.05a.51.51,0,0,0,.48-.52.5.5,0,0,0-.52-.48,1.18,1.18,0,0,1-.5-.15,2.45,2.45,0,0,1-.43-.76.5.5,0,1,0-.93.38A3.11,3.11,0,0,0,74.4,127.13Z"/><path class="cls-1" d="M70.54,131a5.38,5.38,0,0,0,1.67.93l.16,0a.51.51,0,0,0,.48-.34.5.5,0,0,0-.32-.63,4.37,4.37,0,0,1-1.35-.75c-.21-.18-.32-.32-.32-.44a.5.5,0,0,0-.54-.45.49.49,0,0,0-.46.53A1.82,1.82,0,0,0,70.54,131Z"/><path class="cls-1" d="M67.12,157.46a8,8,0,0,0,1.29.62c.23.09.46.18.67.28a.54.54,0,0,0,.22,0,.5.5,0,0,0,.21-.95c-.23-.11-.47-.21-.72-.31a7.78,7.78,0,0,1-1.21-.58,1,1,0,0,1-.44-.39.52.52,0,0,0-.69-.19.49.49,0,0,0-.18.68A2.07,2.07,0,0,0,67.12,157.46Z"/><path class="cls-1" d="M75.5,176.17a4.13,4.13,0,0,0,2.11.47h0a.5.5,0,0,0,0-1,3.23,3.23,0,0,1-1.62-.33,3.39,3.39,0,0,1-.93-1.16.5.5,0,1,0-.94.36A4.21,4.21,0,0,0,75.5,176.17Z"/><path class="cls-1" d="M77.61,184.22a3.88,3.88,0,0,1-.77,0,1.67,1.67,0,0,1-.38-.05.58.58,0,0,1-.21-.32,1.37,1.37,0,0,0-.09-.43.5.5,0,0,0-.67-.21.54.54,0,0,0-.24.7,1.11,1.11,0,0,0,0,.29,1.58,1.58,0,0,0,.78.89,2.19,2.19,0,0,0,.71.13H77c.24,0,.46,0,.67,0a4.86,4.86,0,0,1,.77,0,.5.5,0,0,0,.54-.47.52.52,0,0,0-.47-.53A6.94,6.94,0,0,0,77.61,184.22Z"/><path class="cls-1" d="M73.74,193.29a1.49,1.49,0,0,0,1.3,1.46,5.31,5.31,0,0,0,1.07.14,2.59,2.59,0,0,0,.48,0,.5.5,0,1,0-.17-1,3,3,0,0,1-1.15-.1.94.94,0,0,1-.36-.13,1.12,1.12,0,0,1-.19-.54,2,2,0,0,0-.46-1.06.5.5,0,1,0-.71.7A1.25,1.25,0,0,1,73.74,193.29Z"/><path class="cls-1" d="M71.33,203a2.47,2.47,0,0,1-1.17-.31,1.17,1.17,0,0,1-.36-1,.5.5,0,0,0-1,0,2.11,2.11,0,0,0,.72,1.78,3.23,3.23,0,0,0,1.77.54h.06a.5.5,0,1,0,0-1Z"/><path class="cls-1" d="M62.23,208.62a.73.73,0,0,1-.7-.62,1.34,1.34,0,0,1,0-.68,2.37,2.37,0,0,1,.59-1.1.5.5,0,1,0-.71-.7,3.21,3.21,0,0,0-.84,1.54,2.32,2.32,0,0,0,0,1.19,1.72,1.72,0,0,0,1.64,1.37h.08a.5.5,0,0,0,.47-.53A.49.49,0,0,0,62.23,208.62Z"/><path class="cls-1" d="M52.18,206.38a.48.48,0,0,0-.6.36,2,2,0,0,1-.34.58,3.35,3.35,0,0,0-.39.61,2.15,2.15,0,0,0,.74,2.64.53.53,0,0,0,.27.08.51.51,0,0,0,.42-.23.49.49,0,0,0-.15-.69,1.14,1.14,0,0,1-.38-1.37,2.57,2.57,0,0,1,.29-.44,2.67,2.67,0,0,0,.5-.93A.49.49,0,0,0,52.18,206.38Z"/><path class="cls-1" d="M43.49,203.39a2,2,0,0,0-1.25.82c-.09.12-.18.22-.27.32a4.37,4.37,0,0,0-.86,1.32.94.94,0,0,0,0,.8.91.91,0,0,0,.41.37.34.34,0,0,1,.09.08,1,1,0,0,0,.55.34h.1a.53.53,0,0,0,.52-.39.48.48,0,0,0-.37-.58l-.09-.08a1,1,0,0,0-.27-.21,3.35,3.35,0,0,1,.68-1l.29-.34c.16-.2.38-.44.59-.46a.5.5,0,0,0-.12-1Z"/><path class="cls-1" d="M29.27,191.08a.5.5,0,0,0-.66.25,1.35,1.35,0,0,1-.24.25l-.13.12a2.82,2.82,0,0,0-.88,1.84.52.52,0,0,0,.47.54h0a.5.5,0,0,0,.5-.47,1.76,1.76,0,0,1,.56-1.18l.11-.1a1.92,1.92,0,0,0,.49-.58A.51.51,0,0,0,29.27,191.08Z"/><path class="cls-1" d="M26.91,178.32a.5.5,0,0,0-.66.25,1.09,1.09,0,0,1-.78.6.5.5,0,0,0-.42.57.5.5,0,0,0,.5.42h.08A2.09,2.09,0,0,0,27.16,179,.51.51,0,0,0,26.91,178.32Z"/><path class="cls-1" d="M22.72,78.18a4.92,4.92,0,0,0,.79-.62c.12-.1.23-.2.36-.29a1.81,1.81,0,0,1,1-.51.5.5,0,1,0,.05-1,2.61,2.61,0,0,0-1.69.71l-.39.33a5.79,5.79,0,0,1-.65.51l-.36.18a3,3,0,0,0-.93.62,1.9,1.9,0,0,0-.3.5c-.05.08-.1.2-.13.23-.38.36-.59.58-.93.92l-.55.57a.49.49,0,0,0,0,.7.5.5,0,0,0,.35.15.51.51,0,0,0,.36-.15l.56-.57.9-.9a1.79,1.79,0,0,0,.34-.52,1.92,1.92,0,0,1,.14-.26,2.2,2.2,0,0,1,.62-.39C22.43,78.33,22.58,78.26,22.72,78.18Z"/><path class="cls-1" d="M24.76,81.53a7.6,7.6,0,0,0-1.1,1.16c-.24.34-.52.7-.8,1.06s-.58.74-.83,1.09a.51.51,0,0,0,.12.7.52.52,0,0,0,.29.09.49.49,0,0,0,.41-.21c.24-.35.52-.7.8-1.06s.58-.74.83-1.1a6.79,6.79,0,0,1,.95-1l.25-.23a13.28,13.28,0,0,0,1-1.11l.27-.31a3,3,0,0,0,.44-.73l.09-.2a.56.56,0,0,1,.29-.3.5.5,0,1,0-.15-1,1.43,1.43,0,0,0-1,.83,2.56,2.56,0,0,0-.11.24,2,2,0,0,1-.28.48l-.28.32a13.17,13.17,0,0,1-.95,1Z"/><path class="cls-1" d="M5.07,122a.5.5,0,0,0-.92.39,29.2,29.2,0,0,0,4.64,7.29.49.49,0,0,0,.38.18.47.47,0,0,0,.32-.12.51.51,0,0,0,.06-.71A28.37,28.37,0,0,1,5.07,122Z"/><path class="cls-1" d="M13.52,126.14a3.54,3.54,0,0,1-1.53-1.6,7.28,7.28,0,0,1-.28-.73,7.52,7.52,0,0,0-.38-1,9.24,9.24,0,0,0-.67-1,3.22,3.22,0,0,1-.8-1.64.5.5,0,0,0-1,0,4,4,0,0,0,1,2.19,7.79,7.79,0,0,1,.59.91,5.81,5.81,0,0,1,.32.82,8.43,8.43,0,0,0,.33.83,4.49,4.49,0,0,0,2,2,.53.53,0,0,0,.23.06.51.51,0,0,0,.45-.27A.5.5,0,0,0,13.52,126.14Z"/><path class="cls-1" d="M140.06,145.27c.46-.48,1.23-1.27,1.42-1.44a17.77,17.77,0,0,0,2-1.93.52.52,0,0,0-.06-.71.51.51,0,0,0-.71.06,16.46,16.46,0,0,1-1.82,1.82c-.22.18-.81.79-1.5,1.51l-.44.46a1.81,1.81,0,0,1-1,.6.5.5,0,0,0,0,1H138a2.72,2.72,0,0,0,1.64-.89Z"/><path class="cls-1" d="M145.62,144.65a14.21,14.21,0,0,0-2.94,2.8,10.22,10.22,0,0,1-3.35,2.94.5.5,0,0,0-.25.66.52.52,0,0,0,.46.29.45.45,0,0,0,.2,0,11.15,11.15,0,0,0,3.7-3.19,12.62,12.62,0,0,1,2.72-2.61.5.5,0,0,0,.15-.69A.49.49,0,0,0,145.62,144.65Z"/><path class="cls-1" d="M151.19,83.71a3.9,3.9,0,0,1-.26-.64c0-.15-.07-.3-.1-.46a3.27,3.27,0,0,0-1.53-2.41.5.5,0,0,0-.65.76,3.38,3.38,0,0,1,1.07,1.26,2.68,2.68,0,0,1,.13.56,5.05,5.05,0,0,0,.12.56,5.65,5.65,0,0,0,.31.79l.15.32a9.78,9.78,0,0,1,.54,3.38.5.5,0,0,0,.5.48h0a.5.5,0,0,0,.48-.52,10.7,10.7,0,0,0-.62-3.73C151.3,83.94,151.24,83.83,151.19,83.71Z"/><path class="cls-1" d="M155.49,85.51a11.31,11.31,0,0,0-.47-5.23,3.72,3.72,0,0,0-.63-1.07,5.43,5.43,0,0,1-.35-.46.5.5,0,0,0-.69-.14.51.51,0,0,0-.14.7c.14.21.28.38.4.53a2.38,2.38,0,0,1,.47.78,10.29,10.29,0,0,1,.41,4.8.92.92,0,0,0,.17.74.64.64,0,0,0,.47.21h0a.5.5,0,0,0,.47-.52A.56.56,0,0,0,155.49,85.51Z"/><path class="cls-1" d="M139.44,133.56a14,14,0,0,0,2.48-4.37c.42-1.5,1.38-5.25,1.12-7.77a13.93,13.93,0,0,0-1.89-5.5c-.2-.27-.39-.57-.59-.88-.4-.6-.85-1.29-1.41-2-1.72-2.24-3.34-3.84-5.77-4.71a24,24,0,0,0,4.16-3.65c1.86-2.09,5-6.36,4.71-11.52-.17-3.88-2.51-7.91-6.59-11.36a31.71,31.71,0,0,0-11-5.84,90,90,0,0,0-26.15-4.86,13.58,13.58,0,0,1-1.84-.28,12.75,12.75,0,0,0-2.14-.3c-.07-.31-.12-.63-.21-.93a27.61,27.61,0,0,0-1.71-4.36c-.44-1-.83-1.91-1.19-2.83-.52-1.28-1.05-2.61-1.75-4-.44-.85-.88-1.72-1.3-2.56a48.94,48.94,0,0,0-2.48-4.64c-.29-.39-.69-.88-1.07-1.34s-.84-1-1-1.24a22.75,22.75,0,0,1-3.31-11.72,21.53,21.53,0,0,1,1.66-7.68,33,33,0,0,1,4.34-6.94l.19-.25c.89-1.19,1.82-2.31,2.86-3.56a9.11,9.11,0,0,1,3.21-2.28,4.78,4.78,0,0,1,3-.34,29.81,29.81,0,0,1,6,2.4,46.39,46.39,0,0,1,4.19,2.5,44.62,44.62,0,0,0,4.29,2.56l.44.23A16.74,16.74,0,0,0,114.43,25l.14,0a7,7,0,0,0,3.23.34,2.83,2.83,0,0,0,1.61-1.5l.08,0a4.59,4.59,0,0,1,1.08-.17c2.32-.07,5.06-.37,7.06-.58l.23,0c.8-.08,1.63-.09,2.24-.09.83,0,1,0,1.19-.23a.55.55,0,0,0,.1-.35c0-.48-.5-.64-.78-.74l-.15-.06a1.89,1.89,0,0,1-.27-.2l-.12-.1a1.37,1.37,0,0,1,0-.29,1,1,0,0,1,.42-.26.5.5,0,0,0-.07-1,3.13,3.13,0,0,0-1.72.33l-.16.06a13,13,0,0,1-2.59.62L125,21l-.13,0a9.44,9.44,0,0,1-3.52.25l-.26-.06c-.44-.09-.81-.17-1.51-.29a4.61,4.61,0,0,1-1.47-.54l-.63-.3a20.46,20.46,0,0,1-2.69-1.45,2.43,2.43,0,0,1-.9-1q.73.25,1.53.48c.72.2,1.39.42,2,.6a11.06,11.06,0,0,0,2.69.67,5.22,5.22,0,0,0,2.41-.48,2.05,2.05,0,0,0,1.37-2,.49.49,0,0,0-.08-.23,9.48,9.48,0,0,0-2-1.75,14.11,14.11,0,0,1-1.92-1.59c-2.29-2.66-3.29-3.57-6-4.92A11.39,11.39,0,0,0,108,7L106.46,7c-.62,0-1.24.09-1.61.09A7.92,7.92,0,0,1,103.74,7a14.94,14.94,0,0,0-2.3-.23c-.76,0-1.46,0-2.08.06a10.88,10.88,0,0,1-1.73,0c-.3,0-.59-.1-.89-.15a10.07,10.07,0,0,0-1.57-.23,5.37,5.37,0,0,0-1.48.23,5.37,5.37,0,0,1-1.21.23C90.79,7,87.86,8,85,9.62a27.73,27.73,0,0,0-5.84,4.14l-.64.66a26.33,26.33,0,0,0-2.79,3.18l-.56.75a12.52,12.52,0,0,0-1.77,2.85A8.46,8.46,0,0,0,72.87,23,14.43,14.43,0,0,1,72,26c-.07.17-.16.34-.25.52a5.89,5.89,0,0,0-.35.77A28,28,0,0,0,70,32.55a31.6,31.6,0,0,0,.44,8.78,15.53,15.53,0,0,0,2.33,7.52A47.47,47.47,0,0,1,77.89,59c.94,2.51,1.81,5,2.69,7.4.41,1.16.83,2.33,1.25,3.5A55.68,55.68,0,0,0,65.41,71a96.62,96.62,0,0,0-15.66,4.19c-.77.28-5,1.86-9.1,3.86a.34.34,0,0,0-.12.06c-3.07,1.49-6.1,3.2-7.63,4.78l-.89.9A53.54,53.54,0,0,0,23.83,95c-1.54,2.48-1,5.57-.19,8.27a7.6,7.6,0,0,0,1.21,2.37A7.62,7.62,0,0,0,22.42,109a16.93,16.93,0,0,0,.63,11,39.77,39.77,0,0,0,4.62,8.61,8.85,8.85,0,0,0,1.66,1.75,9.11,9.11,0,0,0,1.47.95,6,6,0,0,1,1.08.69,9.16,9.16,0,0,1,.69.88,7.35,7.35,0,0,0,1.55,1.69A14,14,0,0,0,36.73,136,9.75,9.75,0,0,1,39,137.48,11.17,11.17,0,0,0,41.4,139c.28.12.57.28.86.44a7.19,7.19,0,0,0,1.44.66l1.18.34c2.84.84,9.49,2.79,12.61,3.48l1.27.29a14,14,0,0,0,0,9.12,24.42,24.42,0,0,0,3.43,6.3c.69,1,1.4,2.08,2,3.14a31.14,31.14,0,0,1,1.44,2.9l.25.56a16.51,16.51,0,0,1,.74,2.22,18.71,18.71,0,0,0,.7,2.21c.42,1,.94,2,1.45,3A20.43,20.43,0,0,1,70.65,178a23,23,0,0,1-.14,11.9c-1,3.33-3.21,6.42-6.87,9.45a14.32,14.32,0,0,1-10.89,2.79,22.83,22.83,0,0,1-7.24-2c-.9-.51-1.76-.94-2.6-1.37a34,34,0,0,1-4.53-2.61c-3.39-2.42-5.71-4.59-6.81-7.95a23.63,23.63,0,0,1-.66-11.12,19.15,19.15,0,0,1,2.16-5.65c.64-1.19,1.25-2.14,1.78-3,1.12-1.75,1.93-3,1.84-4.71a2.29,2.29,0,0,1,0-.41,2.06,2.06,0,0,0-.05-.74c-.18-.9-1.23-1.26-2.08-1.3a2.56,2.56,0,0,0-1.94,1.18,11,11,0,0,0-1,1.31A9.77,9.77,0,0,1,30.8,165a15.45,15.45,0,0,0-1.74,2.74,4.38,4.38,0,0,1-.5.74,5.07,5.07,0,0,0-.71,1.15c-.08.19-.16.41-.25.65a14.92,14.92,0,0,1-1.17,2.61,17,17,0,0,0-2.8,12.49c.07.39.1.82.14,1.28a8.48,8.48,0,0,0,.34,2.16,12.78,12.78,0,0,1,.33,1.38,9.19,9.19,0,0,0,.61,2.13,20.7,20.7,0,0,0,1.84,3.15c.48.7,1,1.53,1.47,2.42,1.25,2.17,2.67,4.63,4.83,6.14,5.74,4,12.5,8.3,20.09,8.43l.82,0c.62,0,1.28,0,1.93,0s1.15,0,1.68-.05a30.71,30.71,0,0,0,8.8-1.71,12.52,12.52,0,0,0,3.17-1.7l.17-.13a23.83,23.83,0,0,0,2.56-2.12,30.87,30.87,0,0,0,5.33-7.48c1.58-3.05,3.31-11.05,3.31-15.3,0-4.83-.38-9.94-3.07-14.56-.33-.57-.75-1.17-1.16-1.76a21.19,21.19,0,0,1-1.44-2.27c-.48-1-.87-2-1.25-3a29.19,29.19,0,0,0-1.34-3.19,26.53,26.53,0,0,0-1.88-3,25.9,25.9,0,0,1-2-3.35,9.37,9.37,0,0,1-.37-6,1,1,0,0,1,.25-.39c1.91.36,3.84.66,5.86.84,1.63.15,3.33.23,5.13.31,1.63.07,3.31.15,4.95.28,1.48.12,3.14.17,4.94.17a127.8,127.8,0,0,0,17.88-1.41c1.88-.29,4-.85,6.11-1.4,1.38-.36,2.69-.7,3.89-1,8.37-1.78,11.53-3.25,13.7-4.58C136.15,136.7,138.08,135,139.44,133.56Zm.11-2.39a7.2,7.2,0,0,1-2.7-1.59l-.08-.08a3.32,3.32,0,0,0-.83-.68,3.46,3.46,0,0,0-.74-.26l-.07,0a10.09,10.09,0,0,0,1.13-1.49,4.26,4.26,0,0,0,.39.51c.09.11.19.22.27.33l.18.31a2.2,2.2,0,0,0,.15.26,6.68,6.68,0,0,0,2.93,2.21c-.11.22-.23.43-.35.64A.5.5,0,0,0,139.55,131.17Zm-7.69,7,0,0c-.18-.1-.62-.4-1.08-.73l.16.08a9.5,9.5,0,0,1,1.1.57Zm-3.68-4.37c.48.63.94,1.28,1.37,1.94a5,5,0,0,1,.25.46,3.63,3.63,0,0,0,.67,1c-.46-.34-.89-.67-1.07-.83l-.46-.43a18.35,18.35,0,0,1-1.66-1.64ZM123.79,135a34.1,34.1,0,0,1-7.42,2.27l-.63.15a.45.45,0,0,0-.28,0l-.14.08-1.5.35c-3.29.83-6.08,1.45-9.31,2.18l-2.41.54-.06,0-3.09.7a25.75,25.75,0,0,1-5.62.49c-.74,0-1.45,0-2.12.06a93.89,93.89,0,0,1-18.72-1.15l-2.43-.35,0-.1a8.75,8.75,0,0,1,1.09-3c.12-.15.25-.29.38-.43s.44-.49.64-.74c1-1.22,1.89-2.54,2.76-3.79l.55-.8c.65-.94,1.16-1.68,1.93-2.68.16-.2.33-.46.51-.73a8.43,8.43,0,0,1,.85-1.13,36.92,36.92,0,0,0,3.42-3.46s0,0,0,0a95.35,95.35,0,0,0,44.39-11.11l0,0,1.08.42c2.94,1.14,6.27,2.43,7.59,5,1.66,3.24,1.71,6,.18,8.61C133.7,129.47,128.28,132.83,123.79,135Zm-3.48,6.87a1.69,1.69,0,0,0-.45-.25,7.11,7.11,0,0,1-3.5-3.32l.23,0,1.74-.4c.41.73.85,1.45,1.29,2.18l.58.95a2.66,2.66,0,0,0,.66.83,2.91,2.91,0,0,0,.6.35l.27.13.06,0-1.08.27A1,1,0,0,0,120.31,141.83Zm-17.45.65c.26.3.53.63.88,1l.38.41a9.26,9.26,0,0,0,.76.77l.55.42.2.15a1.48,1.48,0,0,1,.41.67c-3.79.52-7.63.89-11.21,1.07h0a.51.51,0,0,0-.17-.69,5.75,5.75,0,0,1-1.93-1.9c-.16-.26-.31-.54-.45-.82s-.26-.49-.4-.73l1.45,0a27.27,27.27,0,0,0,5.84-.51l2.83-.65A6.62,6.62,0,0,1,102.86,142.48Zm-37.41-.42a10.1,10.1,0,0,0,.42,1.15,9.82,9.82,0,0,0,.63,1.1c.17.27.34.53.47.79l-1.42-.31a.8.8,0,0,0,0-.15l-.26-.64a4.13,4.13,0,0,0-.33-.71c-.08-.14-.18-.28-.28-.42a1.88,1.88,0,0,1-.16-.23,6.84,6.84,0,0,1-.67-1.48l-.31-.84,1.25.21A4.28,4.28,0,0,1,65.45,142.06Zm-5.67-3.45A18.12,18.12,0,0,1,61.67,134,36.9,36.9,0,0,1,64,130.5l3.84-5.3a3.89,3.89,0,0,1,.54-.65l.22-.19c.42-.36,1-.88.93-1.56,3.43.3,7,.58,10.66.65h.69c-.82.9-1.78,1.81-2.79,2.75a8.28,8.28,0,0,0-1,1.3l-.48.68c-.79,1-1.31,1.77-2,2.73l-.54.79c-.87,1.23-1.79,2.55-2.73,3.75-.18.23-.38.45-.59.67l-.34.38a.51.51,0,0,0-.22-.06,2.85,2.85,0,0,1-2.37-1.23.5.5,0,0,0-.88.48,3.79,3.79,0,0,0,2.92,1.73,11,11,0,0,0-.84,2.68s0,0,0,.06C66,139.72,62.82,139.24,59.78,138.61Zm-10.89-.84a5.83,5.83,0,0,0,.25.7,3.18,3.18,0,0,1,.23.65l0,.32a1.94,1.94,0,0,0,.29,1l.17.21.08.09a.66.66,0,0,1,.05.15l-.35-.1a25.35,25.35,0,0,0-1.38-3.55l-.27-.62a1.63,1.63,0,0,1-.18-.54,1.26,1.26,0,0,1,.28-.71l1,.57A2.64,2.64,0,0,0,48.89,137.77Zm-4.11-5.55-.93-.57a20.45,20.45,0,0,1-3.26-2.36A11,11,0,0,0,39,128l-.32-.22a.58.58,0,0,0-.23-.18,2.25,2.25,0,0,1-.33-.35,8.68,8.68,0,0,0-1.81-1.64c-.24-.18-.49-.37-.72-.56-.08-.07-.42-.47-.71-.82-.63-.75-1.42-1.68-1.9-2.13a15.09,15.09,0,0,1-4.2-7.52,6.79,6.79,0,0,1-.15-2.18.37.37,0,0,0,.09-.28h-.05a.11.11,0,0,0,0,0,3,3,0,0,1,.91-1.65,51,51,0,0,0,16.65,8.7c7.19,2.19,14.88,2.91,22.33,3.57a1.16,1.16,0,0,0,0,.18c.06.15-.32.49-.58.71l-.24.21a4.9,4.9,0,0,0-.68.8l-3.84,5.3a38.31,38.31,0,0,0-2.42,3.64,18.35,18.35,0,0,0-2,4.86,34.58,34.58,0,0,1-8.25-2.78C49.15,134.94,46.31,133.17,44.78,132.22Zm-7.4,2.71a17.17,17.17,0,0,1-.93-5.34,6.38,6.38,0,0,1,0-1.45,2.06,2.06,0,0,1,.31-.8,3.68,3.68,0,0,1,.5.54,4.92,4.92,0,0,0,.43.46l-.09,1.2a13.5,13.5,0,0,0,.29,5c.12.38.25.8.1,1h0c-.2-.12-.4-.22-.61-.32A.5.5,0,0,0,37.38,134.93ZM27,125.19c0,.11,0,.21-.07.32-.18-.31-.37-.61-.54-.9a.44.44,0,0,0,0-.1,12.11,12.11,0,0,1,.8-4.18,3.87,3.87,0,0,1,.54-1.22l.23-.25a4,4,0,0,0,.34-.38,3,3,0,0,0,.24-.38c.06-.1.13-.18.19-.27.17.38.35.75.55,1.12a2.17,2.17,0,0,0-1.24,1,5.1,5.1,0,0,0-.47,1.85C27.45,122.94,27.25,124.08,27,125.19ZM22.8,114c0-.12,0-.25,0-.38s.26-.28.37-.42a3.15,3.15,0,0,1,.6-.61,5.61,5.61,0,0,1,2.38-.94,5.26,5.26,0,0,1,1.54,0h0a10.36,10.36,0,0,0-2.29.6l-1.49.7a1.13,1.13,0,0,0-.34.23,1.22,1.22,0,0,0-.26.52A.44.44,0,0,1,23,114,.46.46,0,0,1,22.8,114Zm1.08-15.37H24a6.62,6.62,0,0,0,2-.35l.26-.08a2.74,2.74,0,0,1,.62-.18,3.47,3.47,0,0,1,.86,0,5,5,0,0,0,1.15,0,4,4,0,0,0,.74-.24,2.4,2.4,0,0,1,.85-.21h0a5.28,5.28,0,0,0,.05,1,7.58,7.58,0,0,0-1.95.3,26,26,0,0,0-3.47,1L25,100a4.43,4.43,0,0,1-.95.32A10.53,10.53,0,0,1,23.88,98.67Zm7.85-2.09c.43-1.23,2.73-3.77,4.51-5.29a46.81,46.81,0,0,1,17.57-9.48c2.11-.6,4.59-1.07,6.77-1.48l.52-.1a122.12,122.12,0,0,1,23.51-2.57,6.15,6.15,0,0,1,.17,1.15c0,.88.13,1.88.22,2.84s.22,2.18.23,3.12a49.73,49.73,0,0,1-.54,8.64l-1.14-.11c-1.32-.13-2.69-.27-4-.32-4.43-.15-8.86-.11-14.1.15h-.07l-.06,0-2,.1-1.59.07a33.76,33.76,0,0,0-3.88.27c-.88.15-1.76.34-2.61.53-1,.22-2.05.45-3.09.59s-2.25.4-3.37.64l-.91.2c-.87.19-1.76.42-2.66.65s-1.77.46-2.63.65l-1.23.27a.42.42,0,0,0-.22,0c-.85.19-1.66.39-2.53.64a15.91,15.91,0,0,0-3.84,1.72,12.49,12.49,0,0,1-2.42,1.15A4.69,4.69,0,0,1,31.73,96.58Zm2.05-4.74a4.06,4.06,0,0,0-.82-.57l-1.22-.66A9.28,9.28,0,0,0,30,89.8l-.15,0a2.47,2.47,0,0,1-.45-.18.7.7,0,0,1-.23-.31l.48-.55a.5.5,0,0,0,.24,0,1.29,1.29,0,0,1,1,.26l.12.1a2.1,2.1,0,0,0,.39.3,1.54,1.54,0,0,0,.49.14l.16,0a6,6,0,0,1,2.41,2l-.55.54C33.9,92,33.84,91.92,33.78,91.84Zm9.75-7.94a15.69,15.69,0,0,0-2.08-1.22A10.6,10.6,0,0,1,38.94,81c.58-.3,1.18-.61,1.8-.91l1,.93c.2.17.38.35.56.53A6.83,6.83,0,0,0,44,82.88l.25.11a3.6,3.6,0,0,1,.55.29l.19.13a1.81,1.81,0,0,1,.59.5c-.47.24-.94.46-1.4.71A2.65,2.65,0,0,0,43.53,83.9Zm10.52-9.12.69.91c.27.35.53.7.85,1.1a5.79,5.79,0,0,0,1.28,1.29c.19.12.39.22.59.32a4.13,4.13,0,0,1,.58.33,3.09,3.09,0,0,1,.75.92l-2,.4a18.5,18.5,0,0,1-1.34-1.48,6.94,6.94,0,0,0-2.56-2.21l-.22-.1a3.06,3.06,0,0,1-.72-.39,1,1,0,0,1-.29-.31Zm9.42-2.36a10.17,10.17,0,0,0,2.19,2.47l.55.5A5.78,5.78,0,0,1,68,78c-2.26.34-4.58.76-7.1,1.23l-.52.1-.57.11a4.42,4.42,0,0,0-1.19-1.54,4.74,4.74,0,0,0-.72-.41c-.17-.09-.34-.17-.49-.27a5.08,5.08,0,0,1-1.05-1.07c-.31-.39-.57-.74-.83-1.08s-.3-.41-.46-.61c2.66-.79,5.34-1.42,8.38-2.06Zm4-.78a62.78,62.78,0,0,1,8.76-.92,13.74,13.74,0,0,0,2.67,4l.25.26a6.16,6.16,0,0,1,.77.87,2,2,0,0,1,.38.9c-3,.13-5.75.37-8.5.71-.43-2-2.09-3.42-3.35-4.36l-.11-.08a2.67,2.67,0,0,1-.73-.68A1,1,0,0,1,67.47,71.64Zm11-.94a10.31,10.31,0,0,0,2.09,2.9l.12.11a4.78,4.78,0,0,1,.44.46,4.18,4.18,0,0,1,.39.73l.28.59a9.78,9.78,0,0,0,.61,1.21l-1.08,0a3,3,0,0,0-.57-1.43,6.56,6.56,0,0,0-.88-1l-.24-.25a13.1,13.1,0,0,1-2.3-3.36C77.7,70.69,78.09,70.69,78.46,70.7ZM96,90.56,96.17,89a31.2,31.2,0,0,0,.18-4.75c-.14-2.18-.4-4.37-.69-6.53.62-.65,1-.56,2-.34l.7.15c.63.12,1.28.28,1.93.44s1.64.41,2.5.56,1.49.19,2.22.26,1.52.14,2.2.27a30.15,30.15,0,0,1,5.61,1.42c.31.12.63.22.95.32l.15,0,.58.16c.41.1.82.21,1.21.34l2.35.82c1.27.44,2.54.89,4,1.35a10.73,10.73,0,0,1,1.52.68c.39.19.78.39,1.19.56l.83.32A9.74,9.74,0,0,1,128,86.2a2.26,2.26,0,0,0,.67.33,1.16,1.16,0,0,1,.42.2,8.24,8.24,0,0,0,2.67,1.13l.88.27c2.33.8,3.4,4.4,3.41,6.7,0,2.59-1.1,4.22-2.79,5.86a7.79,7.79,0,0,0-.65.77,5.89,5.89,0,0,1-.5.6,1.27,1.27,0,0,1-.33.23,2.22,2.22,0,0,0-.46.29,15,15,0,0,1-2.87,1.77c-.52.27-1.06.55-1.65.89l-.44.25a.64.64,0,0,0-.15-.13,106.68,106.68,0,0,0-23.74-8.81.39.39,0,0,0-.18,0c-1.11-.28-2.23-.56-3.39-.83a13.9,13.9,0,0,0-3.46-.36l.09-.41A34.49,34.49,0,0,0,96,90.56Zm4.26-18.39a16.11,16.11,0,0,0,1.14,2.53l.33.63a8.14,8.14,0,0,0,.88,1.45l.26.31c.1.12.21.23.3.36l.1.17-.3,0c-.49-.08-1-.19-1.45-.3a5.37,5.37,0,0,0-.5-1.08c-.49-.84-1-1.65-1.46-2.47l-1-1.65Zm10,1.13c.22.45.46.92.71,1.39s.57,1.09.8,1.59c.32.68.67,1.29,1,1.94a5.69,5.69,0,0,1,.63,1.44l-.2-.07a31.42,31.42,0,0,0-5.8-1.47c-.72-.14-1.48-.21-2.29-.29l-.75-.07a2.14,2.14,0,0,0-.4-.91c-.11-.15-.23-.28-.35-.42a3.11,3.11,0,0,1-.23-.28,7.36,7.36,0,0,1-.77-1.28l-.33-.63a18.17,18.17,0,0,1-.93-2A86.17,86.17,0,0,1,110.26,73.3Zm3.41,1.58a4,4,0,0,0,.91,1.11l.16.14a2.61,2.61,0,0,1,.17.57,3.19,3.19,0,0,0,.15.53c.15.37.31.69.47,1a8.3,8.3,0,0,1,.62,1.53,3.85,3.85,0,0,1,.13.74l-.2-.07c-.41-.15-.84-.26-1.27-.37L114.5,80a5.77,5.77,0,0,0-.82-2.27c-.36-.63-.7-1.22-1-1.86s-.53-1.08-.82-1.63l-.38-.73c.69.13,1.37.28,2.06.42A1.49,1.49,0,0,0,113.67,74.88Zm11.75,2.38c.78.29,1.54.58,2.28.89a4.71,4.71,0,0,0-.32.86,1.94,1.94,0,0,0,0,.93,2.36,2.36,0,0,1,0,.31,6.73,6.73,0,0,0,.29,1.29l.11.38a8.74,8.74,0,0,1,.25,3.18,12.5,12.5,0,0,0-1.83-.84,1.17,1.17,0,0,1,.05-.2,4.64,4.64,0,0,0,.12-.57,4.06,4.06,0,0,0-.29-2.41l-.59-1.63a3.81,3.81,0,0,1-.31-1.4A2,2,0,0,1,125.42,77.26Zm12.19,7.84a14.35,14.35,0,0,1,3.57,7.21.32.32,0,0,0,0,.14,1.39,1.39,0,0,1-.55,0l-1.11-.08a2.21,2.21,0,0,0-.72,0,2.43,2.43,0,0,0-.9.49l-.26.18c-.22.14-.43.15-.46.11a.49.49,0,0,0-.31-.14,10.8,10.8,0,0,0-.72-2.45,1.6,1.6,0,0,0,.48-.49,2.87,2.87,0,0,0,.31-1C137.17,87.81,137.39,86.45,137.61,85.1ZM141.19,95h-.06a10.26,10.26,0,0,0-4.13-.16c0-.21,0-.42,0-.63a1.87,1.87,0,0,0,.25,0,1.72,1.72,0,0,0,.92-.29l.32-.22a1.39,1.39,0,0,1,.52-.31,1.51,1.51,0,0,1,.43,0l1.11.08a2.63,2.63,0,0,0,.73,0A11.2,11.2,0,0,1,141.19,95Zm-6.82,9.1c0,.75,0,1.5,0,2.24a45.94,45.94,0,0,1-7.29,4.67l-.77.4c.08-.21.15-.41.22-.65a10.88,10.88,0,0,0,.47-4.48l.28-.16c.56-.33,1.09-.6,1.6-.87a16.18,16.18,0,0,0,3-1.88,1.89,1.89,0,0,1,.3-.19,2.38,2.38,0,0,0,.57-.4c.2-.21.38-.45.57-.69a6.08,6.08,0,0,1,.56-.66c.16-.15.29-.3.44-.45A29.31,29.31,0,0,1,134.37,104.08Zm-46.5,18.19a2.34,2.34,0,0,0,.71-.69,4.3,4.3,0,0,0,.43-.74l.21-.38a6.56,6.56,0,0,1,.74-1c.14-.16.27-.32.4-.49a4.1,4.1,0,0,0,.82-1.56l1.46-.28-.21.33c-.23.36-.46.72-.69,1.12a7.22,7.22,0,0,1-.63,1c-.14.18-.3.35-.45.52a7.8,7.8,0,0,0-.6.69,2.68,2.68,0,0,0-.55,1.35C89,122.21,88.42,122.24,87.87,122.27Zm3-.87a6,6,0,0,1,.53-.6c.17-.19.35-.38.51-.58a9,9,0,0,0,.71-1.11c.22-.38.44-.73.67-1.08s.45-.72.68-1.12a0,0,0,0,0,0,0c2.66-.57,5.24-1.21,7.69-1.84a3.51,3.51,0,0,1-.4,2.23,5.79,5.79,0,0,1-.45.65l-.21.26a10.75,10.75,0,0,0-.73,1.16,2.93,2.93,0,0,0-.4,1.48c-3,.56-5.93,1-8.93,1.25A2.09,2.09,0,0,1,90.86,121.4Zm9.61-.78a2.19,2.19,0,0,1,.28-.8,7.59,7.59,0,0,1,.66-1l.19-.25c.18-.25.37-.49.52-.75a4.6,4.6,0,0,0,.51-3l.58-.15.82-.2a5,5,0,0,1-.43,1.36c-.06.13-.13.25-.2.38a5.53,5.53,0,0,0-.46,1,5.8,5.8,0,0,0-.17.89,4,4,0,0,1-.08.5,3.18,3.18,0,0,1-.94,1.67.66.66,0,0,0-.12.17Zm3.2-1.86a5.81,5.81,0,0,0,.09-.58,4.84,4.84,0,0,1,.14-.72,4.09,4.09,0,0,1,.37-.8,4.23,4.23,0,0,0,.22-.42,5.72,5.72,0,0,0,.58-2.07l1.14-.29c2.27-.57,4.58-1.15,6.88-1.82a3.58,3.58,0,0,1-.18,1.72,6.58,6.58,0,0,1-.55,1L111.6,116a3.91,3.91,0,0,0-.53,1,1.81,1.81,0,0,0-.06.89q-3.89,1.25-7.86,2.16A4.21,4.21,0,0,0,103.67,118.76Zm8.31-1.21a1.26,1.26,0,0,1,0-.27,3.18,3.18,0,0,1,.42-.79l.76-1.18a7.19,7.19,0,0,0,.64-1.16,4.58,4.58,0,0,0,.21-2.38l.92-.29a5.23,5.23,0,0,1-.32,2.17,4.44,4.44,0,0,1-.24.49,7.12,7.12,0,0,0-.35.74l0,.17c-.07.2-.17.48-.27.51a.5.5,0,0,0-.33.49l0,1C113,117.23,112.47,117.39,112,117.55Zm2.46-.86,0-.39a2,2,0,0,0,.53-.93l0-.14a5.18,5.18,0,0,1,.3-.63c.09-.18.19-.37.27-.56a6.61,6.61,0,0,0,.4-2.86c1.22-.4,2.44-.83,3.64-1.31,1.41-.56,2.76-1.16,4.07-1.82-.12.74-.25,1.49-.38,2.22-.17,1-.34,1.91-.5,2.89Q118.7,115.13,114.44,116.69ZM100.6,97.2a.53.53,0,0,0,.12,0l.34.08a6.75,6.75,0,0,0-.55.65,5.32,5.32,0,0,1-.77.85,3.12,3.12,0,0,0-1,1.29,2,2,0,0,0-.19.85c-.37,0-.75-.09-1.13-.12a5.3,5.3,0,0,1,1.06-1.57l1.15-1.29C99.92,97.56,100.25,97.22,100.6,97.2Zm-1,3.84c-.07-.19,0-.3.09-.62a2.2,2.2,0,0,1,.71-.89,5.58,5.58,0,0,0,.93-1,3.91,3.91,0,0,1,1-1c2.62.67,5.1,1.37,7.46,2.12a2.3,2.3,0,0,1,0,.45.52.52,0,0,1-.05.13.82.82,0,0,1-.15.11,8.16,8.16,0,0,0-2.56,2.62l-1.36-.38a7.85,7.85,0,0,0-1.08-.18,5.89,5.89,0,0,1-.92-.15,5.09,5.09,0,0,1-.77-.34,5.82,5.82,0,0,0-1-.41C101.07,101.32,100.32,101.17,99.56,101Zm10.5.13a1.46,1.46,0,0,0,.38-.34,1.37,1.37,0,0,0,.21-.47,2.45,2.45,0,0,0,0-.38c.73.24,1.46.48,2.17.73a1.69,1.69,0,0,1,0,.39.45.45,0,0,1-.18.34.86.86,0,0,1-.25.1,6.31,6.31,0,0,0-1.6.8,2.84,2.84,0,0,0-1.28,1.37l-1.62-.46A7.3,7.3,0,0,1,110.06,101.17Zm1.3,2a5.34,5.34,0,0,1,1.37-.69,2.32,2.32,0,0,0,.5-.22,1.47,1.47,0,0,0,.62-1,1.08,1.08,0,0,0,0-.18c2.37.86,4.65,1.78,6.87,2.78a5.62,5.62,0,0,1-1.13,1.28l-.2.19-.09.05a1.5,1.5,0,0,0-.28.17,2.19,2.19,0,0,0-.6.92l-.06.14c-.16.35-.29.43-.35.45a.46.46,0,0,0-.23.15l-.86-.49a38.12,38.12,0,0,0-3.56-1.68c-1-.42-2-.74-2.86-1A2.18,2.18,0,0,1,111.36,103.19Zm8.74,5.39a.58.58,0,0,0-.15-.11l-.21-.12c.38-.17.76-.33,1.13-.51a1,1,0,0,0,.46-.39,1,1,0,0,0,.13-.43c0-.06.17-.18.23-.23l1.93-1.57c.57.27,1.13.55,1.69.84A50,50,0,0,1,120.1,108.58Zm1-2.57a1.46,1.46,0,0,0-.56.75,1.08,1.08,0,0,1-.07.18c-.52.25-1,.48-1.57.71a1.91,1.91,0,0,0,.41-.64l.07-.16a1.61,1.61,0,0,1,.32-.54l.09,0a1.58,1.58,0,0,0,.32-.21l.2-.19a6.45,6.45,0,0,0,1.36-1.59l1,.46Zm3.23,4.43c.17-1,.34-2,.51-3,.41-.21.82-.44,1.22-.67a10.16,10.16,0,0,1-.47,3.65c-.09.31-.19.59-.28.86s-.16.49-.25.75l-1.11.56C124,111.89,124.16,111.16,124.29,110.44ZM95.17,96.32a13.39,13.39,0,0,1,3.45.33l.67.17a4.15,4.15,0,0,0-.42.43l-1.15,1.29a5.29,5.29,0,0,0-1.35,2.16c-.72,0-1.48,0-2.25,0C94.5,99.21,94.85,97.76,95.17,96.32Zm-1.32,5.34a27.39,27.39,0,0,1,7.69.82,5.75,5.75,0,0,1,.81.34,5.07,5.07,0,0,0,.94.4,8,8,0,0,0,1.07.19,5,5,0,0,1,.93.15l1.53.42a50.38,50.38,0,0,1,6.17,2,34,34,0,0,1,3.47,1.64c.4.21.8.45,1.22.71s.82.5,1.26.75a105.79,105.79,0,0,1-13,3.85l-3,.76c-3.76,1-7.88,2-12.12,2.82h0a.44.44,0,0,0-.28.07c-1.32.24-2.64.44-4,.61l.58-.91a52.22,52.22,0,0,0,4.19-7.35A53.47,53.47,0,0,0,93.85,101.66Zm-7.79,16.58c1.34-.16,2.67-.37,4-.6a3.74,3.74,0,0,1-.47.74l-.38.46a8.34,8.34,0,0,0-.83,1.1l-.25.44a3.75,3.75,0,0,1-.38.65c-.24.32-.3.38-.42.38a.49.49,0,0,0-.5.45,1.9,1.9,0,0,0,0,.48q-3.28.16-6.59.11l-1.48,0A1.45,1.45,0,0,1,79,122a5,5,0,0,1,.38-.41l.28-.3a7.92,7.92,0,0,0,.88-1.23,5.66,5.66,0,0,1,1.08-1.39C83.1,118.57,84.6,118.41,86.06,118.24Zm-6.41,1.31a8.7,8.7,0,0,1-.78,1.11l-.25.25c-.16.17-.32.33-.46.51a2.05,2.05,0,0,0-.42,1l-1.32-.07.14-.15.41-.46a11.2,11.2,0,0,0,2-2.8l1.19-.07C80,119.06,79.8,119.31,79.65,119.55ZM76.21,121l-.4.46-.4.44-.27.3c-2.09-.13-4.15-.3-6.13-.48l-2.17-.19a.82.82,0,0,1,.09-.32,2.82,2.82,0,0,1,.44-.64l1.49-1.87a58.73,58.73,0,0,0,5.87.3c1,0,2,0,3-.07A11.78,11.78,0,0,1,76.21,121ZM30.06,109.58a.26.26,0,0,0,0-.08h0l.68-.53c.28-.22.55-.43.87-.66a11.43,11.43,0,0,0,1.12-1.1c.23-.24.44-.45.54-.54.33-.3.58-.56.79-.79a5.81,5.81,0,0,1,.64-.59,23.18,23.18,0,0,0,6.11,5.16c.55.28,1.12.55,1.69.82a20.22,20.22,0,0,1-3.14,3,3,3,0,0,1-1,.62A48.44,48.44,0,0,1,30.06,109.58ZM40,115a18.86,18.86,0,0,0,3.36-3.31l.73.32-.17.17c-.83.79-1.68,1.56-2.52,2.34l-1.31,1.21-.64-.3C39.65,115.3,39.83,115.15,40,115Zm2.08.25c.84-.77,1.69-1.56,2.52-2.35l.48-.45q2.94,1.28,6.26,2.42c.6.21,1.21.4,1.83.59a3.94,3.94,0,0,1-.43.63c-.37.46-.75.94-1.16,1.36a2,2,0,0,1-.32.25,2.17,2.17,0,0,0-.7.65,1.56,1.56,0,0,0-.19.67l0,.17c-1.3-.31-2.59-.63-3.86-1a52,52,0,0,1-5.39-2Zm9.28,3.88a1.33,1.33,0,0,1,.06-.28,2.13,2.13,0,0,1,.4-.32,3.11,3.11,0,0,0,.49-.39c.43-.46.83-1,1.21-1.42a4.25,4.25,0,0,0,.61-1l1,.28a18.09,18.09,0,0,0-2,2.1c-.35.42-.75.89-1.23,1.41l-.57-.13C51.34,119.32,51.35,119.22,51.36,119.14Zm2.53-.36a13.58,13.58,0,0,1,2.44-2.41c2.8.73,5.87,1.37,9.26,1.93a15.28,15.28,0,0,1-1.34,2.07l-.13.17a1.41,1.41,0,0,1-.74.64l-.06,0c-3.45-.35-6.9-.8-10.29-1.45C53.34,119.42,53.63,119.09,53.89,118.78Zm11,2.36L65,121a15,15,0,0,0,1.59-2.53c.35.06.71.11,1.05.15L66.59,120a4,4,0,0,0-.57.84,2,2,0,0,0-.18.65l-1.09-.1Zm.92-3.81a87.77,87.77,0,0,1-14.17-3.39,76.49,76.49,0,0,1-10.43-4.39,20.6,20.6,0,0,1-5.12-4.16,31.34,31.34,0,0,1,3.44-2,27.62,27.62,0,0,1,4.74-1.83,36.92,36.92,0,0,1,3.63-.88l1.54-.27c1.08-.18,2.21-.37,3.33-.61.66-.14,1.34-.27,2-.39L56,99.14a27.5,27.5,0,0,1,4.62-.36l1.46,0c1.12,0,2.25-.13,3.37-.21s2-.15,2.93-.19A50.62,50.62,0,0,1,83,99.78c-.56,1.36-1.21,2.69-1.9,4l-.17.33c-.37.74-.7,1.5-1,2.25s-.7,1.6-1.1,2.37a50.26,50.26,0,0,1-3.41,6l-.18.26a4.84,4.84,0,0,0-1.2,3A53.61,53.61,0,0,1,65.84,117.33ZM39.24,99.46c.13-.4.3-.8.54-.86a.72.72,0,0,0,.21-.12l.74-.19a.64.64,0,0,1,0,.07,17.17,17.17,0,0,1-1.13,2.6,2.1,2.1,0,0,0-.36,1.46l-.09,0c-.44.21-.87.45-1.3.69a2.84,2.84,0,0,1,.3-.89A28.1,28.1,0,0,0,39.24,99.46Zm3.62-1.65c.87-.18,1.77-.42,2.67-.65s1.76-.45,2.62-.64l.92-.2L50.74,96l-1.08,1.62a4.4,4.4,0,0,0-.41.71,2.62,2.62,0,0,0-.2,1.14l-1.3.22c-1.26.23-2.51.57-3.72.91A25.59,25.59,0,0,0,40.22,102a2.59,2.59,0,0,1,.23-.5,18.94,18.94,0,0,0,1.2-2.75,3,3,0,0,0,.14-.55l0-.12Zm33.5-1.65a3.38,3.38,0,0,0-.44.87l0,.11a1.91,1.91,0,0,0-.09.39c-.64-.06-1.28-.11-1.93-.15a1.41,1.41,0,0,1,.2-.62,4.52,4.52,0,0,1,.8-.84l1-.88a5.55,5.55,0,0,0,1-1.12l1,0a10.82,10.82,0,0,0-1.14,1.57C76.65,95.72,76.51,95.94,76.36,96.16ZM75.2,94.29l-1,.88a5.49,5.49,0,0,0-1,1,2.29,2.29,0,0,0-.37,1.11c-1.49-.06-3-.06-4.49,0-1,0-2,.12-3,.19l-1,.08a3.89,3.89,0,0,1,1.16-2.09,1.27,1.27,0,0,0,.36-.46,1.37,1.37,0,0,0,.08-.63l0-.32c3.49-.17,6.62-.23,9.64-.21ZM65,94.16l0,.33c0,.05,0,.15,0,.17l-.16.15a5.26,5.26,0,0,0-1.51,2.86q-.54,0-1.08.06a1.42,1.42,0,0,1,.08-.84,3.53,3.53,0,0,1,.63-.82c.13-.14.26-.29.38-.44a2.27,2.27,0,0,0,.59-1.41Zm-2,.11a1.4,1.4,0,0,1-.36.74l-.35.39a4.13,4.13,0,0,0-.79,1.07,2.4,2.4,0,0,0-.21,1.29l-.59,0a28.81,28.81,0,0,0-4.79.38l-1.22.24c-.68.12-1.38.25-2,.39l-.81.16h0a2.73,2.73,0,0,1,.24-.53,9.26,9.26,0,0,1,2.27-3.06h0l1.23-.27c.84-.18,1.7-.37,2.55-.51a31.1,31.1,0,0,1,3.75-.26Zm-11.8,3.66a3.55,3.55,0,0,0-.33.76,1.94,1.94,0,0,0-.06.46l-.71.12a1.87,1.87,0,0,1,.12-.57,3.92,3.92,0,0,1,.33-.56l1.6-2.4.27,0,.24,0A14.59,14.59,0,0,0,51.14,97.93Zm32.22.91a52.51,52.51,0,0,0-6.56-1.2,1,1,0,0,1,0-.22l0-.12a2.47,2.47,0,0,1,.32-.59l.43-.67A6.85,6.85,0,0,1,79.33,94h.22c1.25,0,2.6.18,3.9.31l1.08.11c-.17.88-.36,1.74-.59,2.61C83.77,97.64,83.58,98.25,83.36,98.84Zm-48,1.54a16.15,16.15,0,0,1,3-1.42l-.06.18a24.05,24.05,0,0,1-1.07,2.7,2.63,2.63,0,0,0-.31,1.86l-1.43.92,0,0c-.53-.6-1-1.17-1.38-1.64s-.77-1-1.1-1.48A13.34,13.34,0,0,0,35.33,100.38Zm-1.62,3.79.29.35a9.15,9.15,0,0,0-.71.67c-.2.21-.42.44-.73.72-.11.1-.33.33-.59.6s-.82.86-1,1c-.33.23-.62.46-.91.69s-.5.39-.78.59a2.3,2.3,0,0,0-.29-.39,9.71,9.71,0,0,0,1.24-1c.21-.18.4-.36.59-.5l.22-.18A9.85,9.85,0,0,0,33.71,104.17Zm108.18,16.44h0l-1.1-.06-.15,0a.89.89,0,0,0-.17-.17,1,1,0,0,0-.44-.16,7.28,7.28,0,0,0-2.71.13,2.61,2.61,0,0,0-.06-.27c.48-.14,1-.26,1.44-.35a2.39,2.39,0,0,1,.44,0l.19,0,.28,0a2.44,2.44,0,0,0,.67,0l.16,0a3.67,3.67,0,0,1,1.28.12C141.78,120.1,141.84,120.36,141.89,120.61Zm-.93,8.31a6.48,6.48,0,0,1-.33.84,5.56,5.56,0,0,1-2.53-1.82l-.13-.22a3.07,3.07,0,0,0-.23-.39,4.35,4.35,0,0,0-.33-.42,1.32,1.32,0,0,1-.39-.62.51.51,0,0,0-.19-.33,8.42,8.42,0,0,0,.67-4.65,6.5,6.5,0,0,1,2.36-.14l.1.11a1.14,1.14,0,0,0,.76.26l1.1.07h0a.65.65,0,0,0,.2,0C142.28,124,141.27,127.8,141,128.92Zm-1.24-13.33c.21.32.41.62.61.9a10.06,10.06,0,0,1,1,2.25,4.11,4.11,0,0,0-1,0l-.18,0a2.48,2.48,0,0,1-.45,0l-.18,0-.3,0a2.29,2.29,0,0,0-.7,0c-.53.09-1.06.22-1.58.36a14.16,14.16,0,0,0-.74-1.74,7.28,7.28,0,0,0-1.54-2c.4-.44.81-.87,1.24-1.28a1.39,1.39,0,0,1,.45-.36.76.76,0,0,1,.16-.06c.09,0,.19-.07.28-.12a2.28,2.28,0,0,0,.57-.42,1.35,1.35,0,0,1,.38-.27l.62.78C138.9,114.33,139.33,115,139.72,115.59Zm-2.65-3.51a3.86,3.86,0,0,0-.38.3,1.94,1.94,0,0,1-.35.27l-.17.06-.24.1a2.58,2.58,0,0,0-.73.55c-.45.44-.89.9-1.32,1.36-.21-.16-.43-.3-.66-.45a5.64,5.64,0,0,0,.76-.61,5.44,5.44,0,0,0,.47-.49l.14-.15a11.74,11.74,0,0,1,1.85-1.6Q136.76,111.73,137.07,112.08Zm-1.38-1.34a12.72,12.72,0,0,0-1.83,1.6l-.14.16c-.14.15-.27.3-.42.44a6.66,6.66,0,0,1-1,.77,36.08,36.08,0,0,0-4.19-1.85l-.31-.12c1.52-.84,3.07-1.72,4.56-2.71A8.79,8.79,0,0,1,135.69,110.74Zm-.34-5.3c0-.44,0-.89,0-1.33a22.91,22.91,0,0,0-.14-4.16c.18-.23.34-.47.5-.7a6.82,6.82,0,0,1,.47,2.49,12.44,12.44,0,0,1-.3,2.62l-.11.65v0C135.65,105.18,135.5,105.31,135.35,105.44Zm1.68-1.72a10.32,10.32,0,0,0,.17-2,7.17,7.17,0,0,0-.89-3.52,7.5,7.5,0,0,0,.65-2.39,9.31,9.31,0,0,1,3.93.12.66.66,0,0,1,.15,0A17.47,17.47,0,0,1,137,103.72Zm-.28-19.55c-.24,1.59-.52,3.21-.82,4.79a2,2,0,0,1-.19.64.2.2,0,0,1-.08.08,6.48,6.48,0,0,0-1.14-1.48A8,8,0,0,0,135.2,86c0-.19.07-.37.11-.55.15-.7.36-1.4.57-2.09C136.16,83.57,136.45,83.86,136.75,84.17Zm-1.69-1.59a27.07,27.07,0,0,0-.73,2.61c0,.19-.07.38-.11.57a8.13,8.13,0,0,1-.5,1.81,4.18,4.18,0,0,0-.8-.38L132,86.9a7.68,7.68,0,0,1-2.35-1,1.93,1.93,0,0,0-.62-.32,9.93,9.93,0,0,0-.23-4l-.12-.4a5.78,5.78,0,0,1-.25-1.1,2.57,2.57,0,0,0-.06-.4,1.06,1.06,0,0,1,0-.5,4,4,0,0,1,.27-.72,26.7,26.7,0,0,1,6.4,4Zm-10.58-5.65a2.75,2.75,0,0,0-.26,1.06,4.56,4.56,0,0,0,.37,1.8l.59,1.62a4.6,4.6,0,0,1,.28,1,4.07,4.07,0,0,1,0,.91,2.11,2.11,0,0,1-.09.44s0,.07,0,.1l-.11,0c-.38-.15-.74-.34-1.11-.52a10.55,10.55,0,0,0-1.67-.74c-1.44-.46-2.71-.91-4-1.35l-1.1-.38c0-.13,0-.24,0-.36a6.43,6.43,0,0,0-.17-1,8.81,8.81,0,0,0-.7-1.72c-.15-.3-.3-.6-.44-.94,0-.1-.06-.23-.09-.37a2.12,2.12,0,0,0-.45-1.06l-.16-.16a3.48,3.48,0,0,1-.69-.79.61.61,0,0,1-.08-.36,91,91,0,0,1,9.83,2.76Zm-28-5.15.88.16c.46.78.91,1.55,1.36,2.3l1.45,2.46c.06.1.1.19.15.28-.58-.15-1.16-.29-1.73-.4-.25,0-.47-.09-.68-.14a2.93,2.93,0,0,0-2.42.16c-.18-1.28-.36-2.55-.55-3.8q-.09-.64-.21-1.29A14.16,14.16,0,0,1,96.49,71.78Zm17.72-52.29A20.24,20.24,0,0,0,117,21l.62.3a5.46,5.46,0,0,0,1.74.62c.68.12,1,.2,1.46.29l.27.06a10.23,10.23,0,0,0,3.93-.25l.13,0,1-.17a14.44,14.44,0,0,0,2.78-.68l.16-.06a1.11,1.11,0,0,0,.26.95c-.48,0-1.05,0-1.59.09l-.22,0c-2,.22-4.71.51-7,.59a5.47,5.47,0,0,0-1.3.19,3.29,3.29,0,0,1-.53.1l-1-.43a19,19,0,0,1-4.36-2.29,10.31,10.31,0,0,1-1.86-2.06,3.85,3.85,0,0,1-.55-2,14.1,14.1,0,0,0,1.79,1A3.11,3.11,0,0,0,114.21,19.49ZM78.83,58.65a49.24,49.24,0,0,0-5.17-10.34,14.36,14.36,0,0,1-2.18-7.06A30.39,30.39,0,0,1,71,32.67a25.76,25.76,0,0,1,1.33-5.1,5.31,5.31,0,0,1,.3-.64,6.81,6.81,0,0,0,.29-.62,15.78,15.78,0,0,0,.9-3.07,7.4,7.4,0,0,1,.48-1.66A12.22,12.22,0,0,1,76,19l.57-.77a27.5,27.5,0,0,1,2.69-3.06l.65-.67a27.2,27.2,0,0,1,5.61-4C88.18,9,91,7.94,92.51,7.9a6.69,6.69,0,0,0,1.43-.26,4.23,4.23,0,0,1,1.19-.2,9.2,9.2,0,0,1,1.42.21c.31.06.63.12.94.16a11.81,11.81,0,0,0,1.91,0c.61,0,1.29-.06,2-.06a14,14,0,0,1,2.16.22,9.13,9.13,0,0,0,1.26.14c.39,0,1,0,1.67-.09L108,8a10.38,10.38,0,0,1,5.36,1.31c2.46,1.22,3.37,2,5.7,4.67a15.25,15.25,0,0,0,2.08,1.74,15.29,15.29,0,0,1,1.71,1.39c0,.22-.12.61-.8.92a4.21,4.21,0,0,1-2,.39,11.91,11.91,0,0,1-2.39-.62c-.62-.19-1.3-.41-2-.61a14,14,0,0,1-4.88-2.26.51.51,0,0,0-.8.37,5.46,5.46,0,0,0,.68,3.53,11.22,11.22,0,0,0,2,2.28,19.54,19.54,0,0,0,4.63,2.46l.71.31a.54.54,0,0,0,.15.15,1.69,1.69,0,0,1-.65.48,6.55,6.55,0,0,1-2.72-.35l-.14,0a16,16,0,0,1-3.48-1.42l-.44-.23a46.39,46.39,0,0,1-4.19-2.5,46.76,46.76,0,0,0-4.29-2.57,31.91,31.91,0,0,0-6.21-2.48,5.72,5.72,0,0,0-3.69.42,10.33,10.33,0,0,0-3.56,2.54c-1,1.26-2,2.4-2.89,3.6l-.19.25a34,34,0,0,0-4.45,7.14,22.54,22.54,0,0,0-1.75,8A23.86,23.86,0,0,0,83,49.16a15.67,15.67,0,0,0,1,1.34c.37.45.77.93,1,1.31.42.56,1.37,2.47,2.39,4.49.42.84.86,1.72,1.3,2.57.68,1.32,1.18,2.56,1.71,3.88.37.93.76,1.9,1.21,2.88a27.57,27.57,0,0,1,1.66,4.2A27.24,27.24,0,0,1,94,73c.56,3.73,1.14,7.58,1.39,11.4a29.74,29.74,0,0,1-.18,4.6L95,90.47a33.51,33.51,0,0,1-.54,4.23c-.43,2-.91,4.1-1.47,6.16a.51.51,0,0,0-.11.31s0,0,0,0a52.2,52.2,0,0,1-2.53,7.28,50.53,50.53,0,0,1-4.11,7.21c-.34.52-.68,1.06-1,1.61A90.88,90.88,0,0,1,75,118a3.88,3.88,0,0,1,1-2.45l.19-.26a52.36,52.36,0,0,0,3.47-6.06c.41-.8.77-1.63,1.12-2.44s.65-1.48,1-2.19l.16-.33a35.12,35.12,0,0,0,2.94-7,45.49,45.49,0,0,0,1.32-12.51c0-1-.12-2.12-.23-3.21-.1-.94-.19-1.92-.22-2.77a13.82,13.82,0,0,0-1.21-4.36l-.37-1c-.94-2.51-1.81-5-2.68-7.4S79.77,61.17,78.83,58.65Zm4.44,15.16c.12.32.24.65.37,1,.25.62.49,1.26.69,1.88h-.75a7.36,7.36,0,0,1-.89-1.6l-.28-.6a4.81,4.81,0,0,0-.5-.91,5.12,5.12,0,0,0-.56-.58l-.11-.11a9,9,0,0,1-1.63-2.14c.89,0,1.77.1,2.6.2C82.56,71.89,82.9,72.84,83.27,73.81ZM65.6,72l.85-.15a2.14,2.14,0,0,0,.31,1.07,3.6,3.6,0,0,0,1,1l.1.08c1.72,1.27,2.67,2.45,3,3.67L69,77.87a6.53,6.53,0,0,0-2.11-3.21c-.18-.18-.37-.34-.56-.51a10.64,10.64,0,0,1-1.81-2ZM50.1,76.13l.63-.23a2,2,0,0,0,.6.74,4.08,4.08,0,0,0,1,.54l.2.09a6.13,6.13,0,0,1,2.2,1.94c.28.34.61.71,1,1.1-.73.17-1.45.34-2.13.53a46.33,46.33,0,0,0-7,2.63,2.77,2.77,0,0,0-.94-.9l-.18-.12a4.58,4.58,0,0,0-.69-.37l-.23-.1a5.79,5.79,0,0,1-1.43-1.12c-.19-.19-.39-.38-.6-.56l-.73-.65C44.71,78.24,47.85,77,50.1,76.13ZM32.73,85.5l.88-.91A20.2,20.2,0,0,1,38,81.53a10.27,10.27,0,0,0,3,2,16.5,16.5,0,0,1,1.94,1.14,1.64,1.64,0,0,1,.42.42,49.35,49.35,0,0,0-7.75,5.41l-.35.31a7.17,7.17,0,0,0-2.73-2.16,1.44,1.44,0,0,0-.45-.12l-.15,0a2,2,0,0,1-.21-.16l-.15-.13a2.25,2.25,0,0,0-1-.46C31.31,86.94,32,86.19,32.73,85.5Zm-4.2,4.58a1.52,1.52,0,0,0,.34.33,2.7,2.7,0,0,0,.72.3l.14.05a9.25,9.25,0,0,1,1.53.72l1.22.67a2.55,2.55,0,0,1,.58.39.52.52,0,0,1,.15.31,12.59,12.59,0,0,0-2.43,3.39c0,.12-.07.23-.1.35l-.13,0a3,3,0,0,0-1.24.28,4.49,4.49,0,0,1-.59.19,3.87,3.87,0,0,1-.91,0,4.84,4.84,0,0,0-1.07,0,5.32,5.32,0,0,0-.78.22l-.24.08a5.29,5.29,0,0,1-1.78.29,5.49,5.49,0,0,1,.74-2.18A49.76,49.76,0,0,1,28.53,90.08Zm-4.34,11.24a5.09,5.09,0,0,0,1.16-.38l.18-.07a23.67,23.67,0,0,1,3.33-1,6,6,0,0,1,2-.25A12.81,12.81,0,0,0,33,103.21s0,.06,0,.1c.09.63-1.4,1.78-2.49,2.62l-.23.18c-.19.15-.41.34-.64.55a5.93,5.93,0,0,1-1.37,1A20.18,20.18,0,0,1,26,105.39h0A7,7,0,0,1,24.6,103C24.45,102.42,24.31,101.87,24.19,101.32Zm1.29,5.07A28,28,0,0,0,28.16,109l.1.09a1,1,0,0,1,.25.35,2.39,2.39,0,0,0,.26.39,3.7,3.7,0,0,0-.7,1l-.28,0a6.06,6.06,0,0,0-1.77,0,6.5,6.5,0,0,0-2.84,1.11,3,3,0,0,0-.37.32,12.77,12.77,0,0,1,.56-2.87A6.59,6.59,0,0,1,25.48,106.39Zm-2.6,8.66a1.63,1.63,0,0,0,.48-.09,1.44,1.44,0,0,0,.89-.85s.09-.18.09-.18l1.49-.7a8,8,0,0,1,1.72-.47,8.64,8.64,0,0,0,.2,2,13.76,13.76,0,0,0,.59,2,3.71,3.71,0,0,0-.28.26,3.31,3.31,0,0,0-.36.53c-.06.09-.11.19-.18.28s-.17.19-.26.29-.2.21-.29.32a4.37,4.37,0,0,0-.71,1.54,18.81,18.81,0,0,0-.75,3A31.22,31.22,0,0,1,24,119.56,20,20,0,0,1,22.88,115.05Zm10.5,17.15a10.87,10.87,0,0,0-.75-1,5.72,5.72,0,0,0-1.33-.89,9,9,0,0,1-1.37-.88,8,8,0,0,1-1.42-1.5l-.87-1.33a8.51,8.51,0,0,0,.34-1.23c.25-1.14.45-2.31.61-3.55a4.06,4.06,0,0,1,.35-1.41,1,1,0,0,1,.89-.56h0a14.67,14.67,0,0,0,2.41,3c.44.4,1.23,1.35,1.81,2a9,9,0,0,0,.84,1c.25.21.51.4.77.59l.32.24a3,3,0,0,0-.52,1.31,7.89,7.89,0,0,0,0,1.68,20.61,20.61,0,0,0,.8,5,14.42,14.42,0,0,1-1.53-1A6.43,6.43,0,0,1,33.38,132.2Zm10.59,7a6.44,6.44,0,0,1-1.23-.58c-.32-.18-.64-.35-1-.49a10,10,0,0,1-2.2-1.42l-.67-.51a.61.61,0,0,0,.08-.28.27.27,0,0,0,0-.09,2.69,2.69,0,0,0-.16-1.63,12.27,12.27,0,0,1-.22-4.57l0-.59a10.1,10.1,0,0,1,1.27,1,21.26,21.26,0,0,0,3.41,2.47l.92.57c.77.48,1.88,1.17,3,1.83a2.09,2.09,0,0,0-.42,1.28,2.56,2.56,0,0,0,.27.9l.27.61c.41.91.83,1.86,1.15,2.81l-3.34-1Zm7.07,2a1.71,1.71,0,0,0-.29-1,1.46,1.46,0,0,0-.16-.19l-.09-.11a1.09,1.09,0,0,1-.1-.53,2.7,2.7,0,0,0,0-.41,3.78,3.78,0,0,0-.28-.88,3.66,3.66,0,0,1-.21-.55,1.74,1.74,0,0,1,.11-1.08l.15.08A37,37,0,0,0,59,139.47c1.11.24,2.25.46,3.39.66l.5,1.37a7.41,7.41,0,0,0,.78,1.7l.18.26a4,4,0,0,1,.23.34,3.83,3.83,0,0,1,.27.58l.06.15L61.93,144l-2.25-.52,0,0a.45.45,0,0,0-.23,0L57.7,143C56.1,142.63,53.53,141.93,51,141.23Zm16.56,5.25a7.51,7.51,0,0,0-.4,3.09,1.45,1.45,0,0,1-1.18-.1l-.24-.16a1.19,1.19,0,0,1-.45-.4.5.5,0,1,0-.82.58,2.25,2.25,0,0,0,.75.67l.15.1a2.15,2.15,0,0,0,1.3.39,2.62,2.62,0,0,0,.57-.07,9.36,9.36,0,0,0,.71,2.69,26,26,0,0,0,2.1,3.49,32.56,32.56,0,0,1,1.82,2.93,28.55,28.55,0,0,1,1.28,3.08,31.83,31.83,0,0,0,1.3,3.1l.22.41a.37.37,0,0,0-.15,0,4,4,0,0,1-1.18-.08L72.2,166c-.41-.06-.85-.15-1-.4a.5.5,0,0,0-.86.52A2.29,2.29,0,0,0,72,167l1.18.19a7,7,0,0,0,1.06.11,3,3,0,0,0,.42,0,.5.5,0,0,0,.4-.34c.29.45.6.9.9,1.34.42.6.81,1.16,1.11,1.69,2.58,4.42,2.94,9.37,2.94,14.06,0,4.05-1.7,12-3.2,14.84a29.71,29.71,0,0,1-5.17,7.26,24.67,24.67,0,0,1-2.43,2l-.18.14a11.4,11.4,0,0,1-2.91,1.55,29.44,29.44,0,0,1-8.52,1.65c-1.07.07-2.37,0-3.52,0l-.83,0c-7.3-.13-13.9-4.32-19.52-8.24a1.5,1.5,0,0,0,.43-.8,2.58,2.58,0,0,0,0-.4,1.23,1.23,0,0,1,0-.31,1.06,1.06,0,0,1,.22-.29c.31-.32.66-.66,1-.65a.5.5,0,1,0,.05-1,2.45,2.45,0,0,0-1.76,1,1.82,1.82,0,0,0-.42.61,1.94,1.94,0,0,0-.11.63,1,1,0,0,1,0,.25.6.6,0,0,1-.24.36,20.87,20.87,0,0,1-3.75-5.2c-.52-.9-1-1.75-1.52-2.49a19.47,19.47,0,0,1-1.76-3,8.62,8.62,0,0,1-.53-1.89,11.34,11.34,0,0,0-.37-1.5,9.12,9.12,0,0,1-.29-1.91v0a.56.56,0,0,0,.21.06h0a.49.49,0,0,0,.46-.53,1.11,1.11,0,0,1,.23-.64,1,1,0,0,1,.41-.37,1.46,1.46,0,0,1,.66,0,.5.5,0,0,0,.13-1,2.31,2.31,0,0,0-1.15.07,1.85,1.85,0,0,0-.87.73,2.15,2.15,0,0,0-.25.47s0-.08,0-.12a16,16,0,0,1,2.64-11.74,14.53,14.53,0,0,0,1.28-2.82c.09-.24.17-.46.25-.64a3.72,3.72,0,0,1,.57-.91,5.32,5.32,0,0,0,.6-.89,14.7,14.7,0,0,1,1.6-2.54,10.14,10.14,0,0,0,1-1.32,11,11,0,0,1,.92-1.25c.35-.4.72-.81,1.09-.79.59,0,1.1.25,1.15.5a1.24,1.24,0,0,1,0,.42,2.28,2.28,0,0,0,0,.58c.07,1.37-.62,2.46-1.68,4.12-.55.86-1.17,1.83-1.82,3a19.75,19.75,0,0,0-2.27,6,24.69,24.69,0,0,0,.7,11.59c1.18,3.61,3.63,5.91,7.18,8.44a34.66,34.66,0,0,0,4.66,2.7c.82.41,1.67.84,2.56,1.35a23.7,23.7,0,0,0,7.62,2.11,15.37,15.37,0,0,0,11.64-3c3.82-3.16,6.17-6.41,7.19-9.94a24,24,0,0,0,.15-12.42,21.69,21.69,0,0,0-1.94-4.51c-.5-.94-1-1.93-1.41-2.9a18.26,18.26,0,0,1-.67-2.1,16,16,0,0,0-.79-2.36l-.25-.56a31.62,31.62,0,0,0-1.48-3c-.61-1.1-1.34-2.17-2-3.21a23.46,23.46,0,0,1-3.3-6,12.69,12.69,0,0,1,0-8.59l2,.45c2,.48,4,.94,6,1.35A1.86,1.86,0,0,0,67.6,146.48Zm.55-1.13a6.54,6.54,0,0,0-.81-1.58,9.92,9.92,0,0,1-.57-1,9.38,9.38,0,0,1-.36-1,8.06,8.06,0,0,0-.37-1l3.79.56,2.52.36,2.19.31a6.39,6.39,0,0,0,.65,1.28c.27.42.53.8.79,1.19s.52.74.77,1.15a7.43,7.43,0,0,0,.7.93c-.94,0-1.85-.1-2.73-.18A59.67,59.67,0,0,1,68.15,145.35Zm11,1.25a.38.38,0,0,0-.13-.09,3.84,3.84,0,0,1-1.42-1.46c-.26-.42-.53-.81-.79-1.19s-.51-.75-.77-1.15c-.12-.2-.24-.4-.35-.61.66.09,1.31.16,2,.23.13.21.27.4.41.59a4.4,4.4,0,0,1,.67,1.19c.08.18.15.36.24.53a8,8,0,0,0,1.54,2l-.69,0Zm5.64.31c-.93-.07-1.87-.13-2.81-.18a.61.61,0,0,0-.07-.1,9.12,9.12,0,0,1-2-2.43c-.08-.16-.15-.32-.22-.48a5.78,5.78,0,0,0-.4-.83c-.09-.15-.19-.29-.29-.43,3.06.3,5.92.45,8.61.45h.52a17.84,17.84,0,0,0,.86,1.69,5.8,5.8,0,0,0,2.26,2.32.63.63,0,0,0,.22.05.48.48,0,0,0,.45-.28.5.5,0,0,0-.23-.67,4.67,4.67,0,0,1-1.85-1.95,12.29,12.29,0,0,1-.62-1.18l1.54,0A8.54,8.54,0,0,1,91.4,144c.16.3.31.6.49.89A6.79,6.79,0,0,0,94,147,76.5,76.5,0,0,1,84.79,146.91Zm22.59-1.23-.35,0a2.58,2.58,0,0,0-.8-1.34l-.22-.15c-.16-.12-.31-.23-.49-.38a6,6,0,0,1-.66-.67l-.42-.45c-.32-.32-.58-.62-.82-.91s-.29-.34-.44-.5l1.55-.35.23,0c.59,1.06,1.24,2.11,1.93,3.11a2,2,0,0,0,.79.76,1.62,1.62,0,0,0,.28.11l.18.06a2.06,2.06,0,0,1,.07.25,2.11,2.11,0,0,0,.07.3Zm9.94-2.34c-1.22.26-2.54.6-3.93,1s-2.78.72-4.12,1a0,0,0,0,0,0,0,.68.68,0,0,1-.07-.26,1.37,1.37,0,0,0-.36-.78,1.44,1.44,0,0,0-.57-.3l-.16,0a1.19,1.19,0,0,1-.39-.43c-.62-.89-1.19-1.83-1.73-2.78,2.72-.61,5.22-1.18,8.09-1.9.43-.11.87-.2,1.3-.3a8.08,8.08,0,0,0,4.12,4,.74.74,0,0,1,.18.09s.06.06.06.2Zm5.54-1.34a1.68,1.68,0,0,0-.64-.63l-.34-.16a2.11,2.11,0,0,1-.4-.22,2.08,2.08,0,0,1-.43-.56l-.58-1c-.38-.63-.76-1.27-1.13-1.91a26.75,26.75,0,0,0,4.88-1.7c.49-.23,1.26-.61,2.15-1.08a18.81,18.81,0,0,0,1.9,1.89l.46.42a25.41,25.41,0,0,0,2.2,1.65l-.23.13A27.94,27.94,0,0,1,122.86,142Zm10.08-4.54a.69.69,0,0,0-.13-.11c-1.37-.77-1.52-.81-1.65-.88a2.7,2.7,0,0,1-.47-.74,4.83,4.83,0,0,0-.3-.55c-.42-.65-.88-1.29-1.34-1.92a30.28,30.28,0,0,0,5.31-3.93,3.73,3.73,0,0,0,.59.2,2.53,2.53,0,0,1,.53.18,2.29,2.29,0,0,1,.57.49l.08.08a8.12,8.12,0,0,0,3.17,1.85,6.39,6.39,0,0,1-.58.74A31.32,31.32,0,0,1,132.94,137.46Z"/></svg>