<svg id="Layer_1" data-name="Layer 1" xmlns="http://www.w3.org/2000/svg" viewBox="0 0 1900 1200"><defs><style>.cls-1{fill:#bbce4e;}</style></defs><title>retailers-page-bkgd</title><path class="cls-1" d="M512.82,335.46a131.91,131.91,0,0,0,22.44-40.83,146.22,146.22,0,0,0,6.1-26.68c2.18,1.61,4.52,3.39,7.12,5.5,13.34,10.78,32,35.88,10.55,57.47-14.14,14.21-32.34,8.06-46.21,4.54M332.25,186.31c-.84-15.67,16.33-28.85,29.93-30.65,9.58-1.27,35.72,2.57,50.47,12.66l2.61,2c-13.44,7.48-19.75,12.71-23.21,15.65-15.32,13-28.89,28.29-37.05,45.73-9.87-14-22.11-33.34-22.75-45.36M616.71,344.69c2-24.14-23.18-45.06-39.91-60.06-11.06-9.92-23-18.79-35.07-27.56a111.54,111.54,0,0,0,0-13.67c-1.57-23.72-14.31-47.3-32.4-64.47-22.82-21.66-60.79-18.88-82.11-13a178.88,178.88,0,0,0-52.16-22.83,127.69,127.69,0,0,0-30.6-3.16c-20.63,1.09-51.9,1.27-57.53,24.91-5.85,24.57,7.51,49.38,32.22,72.12,9.36,8.62,18.22,17.19,27.16,25.51a80.07,80.07,0,0,0,2,22.8c4.58,19.77,31.18,50,53.64,63.12,11.23,6.55,37.31,17.46,49.55,17.92A65.61,65.61,0,0,0,484,359c21.43,11.49,43.74,20.4,64,20.12,22.18-.3,66.63-9.35,68.71-34.47"/><path class="cls-1" d="M393.67,951.36a108.43,108.43,0,0,0,24.75-29.22,120.48,120.48,0,0,0,9.28-20.49c1.49,1.66,3.08,3.47,4.84,5.6,9,10.86,19.92,34.14-.91,48-13.72,9.13-27.37,1.2-38-3.9m-121-149.68c1.89-12.76,17.88-20.56,29.12-19.79,7.93.55,28.36,7.92,38.59,18.46l1.78,2c-12.05,3.82-18,7-21.26,8.81-14.47,8-27.89,18.06-37.32,30.77-5.66-12.92-12.36-30.48-10.91-40.26M475.83,975.79c5.56-19.12-11.3-40.09-22.31-54.91C446.24,911.08,438,902,429.78,893a90,90,0,0,0,2.27-11c2.61-19.36-3.79-40.44-15.56-57.23-14.83-21.18-45.87-25.15-64-23.92a147,147,0,0,0-38.28-26.92,104.36,104.36,0,0,0-24.13-7.55c-16.79-2.5-42-7.47-50.41,10.65-8.74,18.83-2,41,14.15,63.36,6.13,8.47,11.86,16.83,17.7,25A66,66,0,0,0,269.4,884c.46,16.68,16.94,45.4,32.88,59.62,8,7.11,27.2,20.17,37,22.54a54,54,0,0,0,27.35-.53c15.37,12.76,31.88,23.59,48.24,26.68,17.92,3.38,55.2,3.36,61-16.53"/><path class="cls-1" d="M1194.67,1239.36a108.43,108.43,0,0,0,24.75-29.22,120.48,120.48,0,0,0,9.28-20.49c1.49,1.66,3.08,3.47,4.84,5.6,9,10.86,19.92,34.14-.91,48-13.72,9.13-27.37,1.2-38-3.9m-121.05-149.68c1.89-12.76,17.88-20.56,29.12-19.79,7.93.55,28.36,7.92,38.59,18.46l1.78,2c-12,3.82-18,7-21.26,8.81-14.47,8-27.89,18.06-37.32,30.77-5.66-12.92-12.36-30.48-10.91-40.26m203.21,174.11c5.56-19.12-11.3-40.09-22.31-54.91-7.28-9.8-15.48-18.89-23.74-27.93a90,90,0,0,0,2.27-11c2.61-19.36-3.79-40.44-15.56-57.23-14.83-21.18-45.87-25.15-64-23.92a147,147,0,0,0-38.28-26.92,104.36,104.36,0,0,0-24.13-7.55c-16.79-2.5-42-7.47-50.41,10.65-8.74,18.83-2,41,14.15,63.36,6.13,8.47,11.86,16.83,17.7,25a66,66,0,0,0-2.12,18.68c.46,16.68,16.94,45.4,32.88,59.62,8,7.11,27.2,20.17,37,22.54a54,54,0,0,0,27.35-.53c15.37,12.76,31.88,23.59,48.24,26.68,17.92,3.38,55.2,3.36,61-16.53"/><path class="cls-1" d="M1580.91,684.3c0,.86,13.76-2.19,16-2.61,11.18-2.1,16.28-5,28.21-9.72-2.68,4.72-5.09,9.48-8,14.11-8.51,13.51-19.39,25.54-29.71,37.71-5.83,6.89-12.12,13.48-18.2,20.13-3.25,3.56-12.69,11.57-14.12,13.9,2.84.51,36.76-5.7,40.93-5.12-4.3,6.86-8.38,13.13-14,19.38-10.86,12.15-54,56.68-55.94,58.68-1.59,1.65-3.54,3.78-5.13,5.27,2.38-1.32,36.23-4,42.56-5.63-.34,4-8.1,13.27-10,16.12-7.62,11.36-18.14,21.14-27.63,31-5.51,5.7-16.15,15.84-18.76,19.35-1.79,2.4-11.74,15.42-12.83,18.13,8.14.53,16.7-4.12,24.53-5.72,5.2-1,29.53-8.7,29.53-8.7s-12.27,18.6-15.86,22.59c-5.44,6.05-63.1,69-66.17,72.57a13,13,0,0,0,4.78,2.2c17.64,4.92,35.63-8.26,52.79-9.41a12.53,12.53,0,0,1,10.16,3.78c2.48,2.74,3.11,7,6.56,8.78,5.31,2.83,16.95.58,22.3-1.46,7.86-3,12-8.76,21.26-7.83,3.91.39,6.6,1.81,8.51,5.25,1.61,2.91,1.66,7.55,4.14,9.83,4.69,4.33,17.39-.35,22.11-2.46,4.06-1.8,6.36-5.07,10.07-7.36,3.55-2.2,7.56-2,11.56-1.27,4.6.79,8.17.8,11.79,3.86,3.41,2.89,5.93,6.32,9,9.55,10.43,11,24.59.86,34.77-4.82,5.28-3,16.79-4.23,22.35,0a32.91,32.91,0,0,0,15.63,6.41c6.43.8,12.12-3.58,17-7.18,4.18-3.1,9.89-9.87,14.89-6.72s9.87,6.12,14.11,10.1c5,4.73,10.42,4.16,16.13.3s10.3-6.59,17.13-7.38c13.42-1.54,24.6,9.94,38.49,6.65v-.38s-13.44-16.45-22.33-29c-9.83-13.9-23.81-25.75-38.22-47.29,16.85,2.26,34.6,7.85,55.14,10.37-6.45-14.57-30.74-53.69-36.4-60.2-6.25-7.21-17.61-19.91-22.34-28.47,13.29,2.7,43.25,8.66,43.25,8.66-22.33-32.06-39.29-65.6-69.92-98,10,1.48,24.91-.31,35.32,0-17.56-27.13-36-58.95-56.59-84.7,11,1.93,42.17,2.52,42.17,2.52-7.28-11.77-17.07-23.36-24.51-35-14.67-22.85-28.18-43.94-40.68-67.74-10.74-20.46-18.41-43.27-35.36-66.34-7.37,11.62-15,26.75-22.71,39.28-14.35,23.47-27.75,50-42.17,73.89C1607.22,639.46,1580.91,684.3,1580.91,684.3Z"/><path class="cls-1" d="M887.94,29.3c0,.59,9.45-1.51,11-1.8,7.68-1.44,11.18-3.4,19.38-6.68-1.85,3.25-3.5,6.52-5.51,9.7-5.84,9.28-13.32,17.55-20.4,25.9-4,4.74-8.33,9.26-12.51,13.83-2.23,2.45-8.71,8-9.7,9.55,1.95.35,25.26-3.92,28.12-3.52a93.1,93.1,0,0,1-9.59,13.31c-7.47,8.35-37.1,38.94-38.43,40.31-1.1,1.13-2.44,2.6-3.53,3.62,1.64-.9,24.89-2.75,29.24-3.87-.23,2.73-5.57,9.12-6.88,11.08-5.23,7.8-12.45,14.52-19,21.27-3.78,3.92-11.09,10.88-12.88,13.3-1.23,1.64-8.07,10.58-8.82,12.45,5.59.36,11.48-2.83,16.86-3.93,3.57-.73,20.28-6,20.28-6s-8.43,12.78-10.9,15.52c-3.74,4.15-43.34,47.4-45.45,49.85a8.82,8.82,0,0,0,3.29,1.51c12.11,3.38,24.47-5.67,36.26-6.46a8.63,8.63,0,0,1,7,2.59c1.7,1.89,2.13,4.78,4.5,6,3.65,1.94,11.65.4,15.32-1,5.4-2,8.27-6,14.6-5.38a6.74,6.74,0,0,1,5.85,3.61c1.1,2,1.14,5.19,2.84,6.75,3.22,3,12-.24,15.19-1.69,2.79-1.24,4.37-3.48,6.92-5s5.19-1.35,7.94-.88c3.16.55,5.61.56,8.1,2.66s4.07,4.34,6.18,6.55c7.16,7.53,16.89.6,23.89-3.31,3.62-2,11.53-2.9,15.34,0a22.57,22.57,0,0,0,10.74,4.41c4.42.55,8.33-2.46,11.66-4.93,2.87-2.14,6.79-6.78,10.23-4.62a61.77,61.77,0,0,1,9.69,6.94c3.46,3.25,7.16,2.85,11.08.2s7.08-4.53,11.77-5.06c9.21-1.06,16.89,6.82,26.44,4.56v-.26s-9.24-11.3-15.34-19.94c-6.76-9.55-16.35-17.69-26.25-32.48,11.57,1.55,23.76,5.38,37.87,7.12-4.43-10-21.12-36.88-25-41.35-4.3-4.95-12.1-13.68-15.35-19.56,9.13,1.85,29.71,6,29.71,6-15.34-22-27-45.07-48-67.35,6.91,1,17.12-.21,24.26,0-12.06-18.63-24.75-40.49-38.87-58.18,7.57,1.33,29,1.73,29,1.73-5-8.08-11.73-16-16.84-24-10.07-15.69-19.35-30.18-27.94-46.53C973.86-58.27,968.59-73.94,957-89.79c-5.07,8-10.34,18.38-15.6,27-9.86,16.12-19.07,34.36-29,50.75C906-1.5,887.94,29.3,887.94,29.3Z"/><path class="cls-1" d="M1806.58,114.1a182.58,182.58,0,0,0-25.85-58.95A202.75,202.75,0,0,0,1756.63,26c3.6-1,7.52-2.09,12-3.17,23-5.55,66.27-4.89,71.84,36.82,3.66,27.45-18.4,42.22-33.92,54.44m-315.42,72.31c-17.88-12.27-17.86-42.19-8.39-58.59,6.68-11.57,32.89-37,56.36-44.65l4.35-1.2c-3.12,21-2.7,32.33-2.39,38.6,1.35,27.73,6.68,55.47,18.91,79.09-23.68-1-55.14-3.84-68.84-13.25m413-178.35c-24.77-22.52-68.89-12.54-99.4-6.84-20.18,3.76-40,9.42-59.72,15.22a156,156,0,0,0-14.94-11.55c-27.31-18.24-63.88-24.13-97.92-18.76-42.94,6.76-71.85,50.71-83.37,79a247.14,247.14,0,0,0-68.92,37.93c-10.48,8.19-24,23.22-29.23,30.87-16.17,23.52-42.3,57.94-21.13,84,22,27.09,60.43,33.34,106.14,25.41,17.31-3,34.16-5.5,50.81-8.29a111,111,0,0,0,26.66,17c25.52,11.62,81.06,7.94,114.31-5.64,16.63-6.79,50.55-26.19,61.35-39.21a90.72,90.72,0,0,0,19.38-41.69c30.62-13.8,59.17-30.74,75.91-53.16,18.34-24.57,45.84-80.89,20.07-104.3"/><path class="cls-1" d="M1318.12,563.19a99,99,0,0,0-14.69-31.66A109.52,109.52,0,0,0,1290,516c1.94-.61,4-1.22,6.48-1.86,12.43-3.27,35.87-3.41,39.37,19.14,2.29,14.84-9.49,23.1-17.77,29.9M1148,606c-9.82-6.45-10.16-22.66-5.21-31.67,3.49-6.34,17.41-20.42,30-24.84l2.35-.7c-1.45,11.43-1.1,17.56-.86,21,1,15,4.26,30,11.16,42.66-12.85-.27-29.94-1.45-37.48-6.4m221.85-101.4c-13.69-11.92-37.49-6-54-2.58a333.43,333.43,0,0,0-32.2,8.94,83.55,83.55,0,0,0-8.23-6.09c-15-9.58-34.9-12.35-53.3-9.05-23.19,4.16-38.36,28.31-44.29,43.78a134,134,0,0,0-36.93,21.35A95.45,95.45,0,0,0,1125.39,578c-8.5,12.93-22.27,31.89-10.5,45.78,12.23,14.43,33.14,17.38,57.83,12.56,9.36-1.83,18.46-3.37,27.46-5.07a60.41,60.41,0,0,0,14.64,8.91c14,6,44,3.38,61.91-4.37,8.93-3.87,27.1-14.77,32.81-22a49.29,49.29,0,0,0,10-22.82c16.44-7.84,31.72-17.34,40.54-29.69,9.66-13.53,23.93-44.37,9.69-56.77"/><path class="cls-1" d="M784.83,722.19c0,.63,10.07-1.6,11.72-1.91,8.18-1.54,11.92-3.63,20.65-7.12-2,3.45-3.73,6.94-5.86,10.33-6.23,9.89-14.2,18.7-21.75,27.61-4.27,5-8.88,9.86-13.33,14.73-2.38,2.61-9.29,8.47-10.33,10.18,2.08.37,26.91-4.17,30-3.75a100.21,100.21,0,0,1-10.23,14.19c-7.95,8.89-39.53,41.49-40.95,42.95-1.16,1.21-2.59,2.77-3.75,3.86,1.74-1,26.52-2.93,31.16-4.12-.25,2.9-5.94,9.71-7.33,11.8-5.59,8.31-13.28,15.48-20.23,22.67-4,4.17-11.82,11.6-13.73,14.17-1.31,1.75-8.6,11.28-9.4,13.27,6,.39,12.23-3,18-4.19,3.81-.77,21.62-6.37,21.62-6.37S752,894.11,749.4,897c-4,4.43-46.2,50.51-48.44,53.12a9.32,9.32,0,0,0,3.5,1.61c12.91,3.61,26.08-6,38.64-6.88a9.14,9.14,0,0,1,7.44,2.76c1.81,2,2.28,5.09,4.8,6.43,3.89,2.07,12.41.43,16.33-1.07,5.75-2.19,8.81-6.41,15.56-5.73,2.86.29,4.83,1.32,6.23,3.84,1.18,2.13,1.21,5.53,3,7.2,3.43,3.16,12.73-.26,16.19-1.8,3-1.32,4.65-3.71,7.36-5.39s5.54-1.44,8.47-.93c3.37.58,6,.59,8.63,2.83s4.34,4.62,6.59,7c7.63,8,18,.64,25.45-3.52,3.87-2.17,12.3-3.1,16.36,0A24.07,24.07,0,0,0,897,961.17c4.71.59,8.88-2.62,12.42-5.26,3.06-2.27,7.25-7.22,10.91-4.92a66.39,66.39,0,0,1,10.33,7.4c3.69,3.46,7.63,3,11.81.22s7.53-4.83,12.53-5.4c9.83-1.13,18,7.27,28.18,4.86v-.27s-9.84-12-16.35-21.25c-7.19-10.18-17.42-18.86-28-34.62,12.33,1.65,25.32,5.74,40.36,7.59-4.72-10.66-22.5-39.3-26.64-44.07-4.58-5.28-12.89-14.57-16.36-20.84,9.73,2,31.66,6.33,31.66,6.33-16.34-23.46-28.76-48-51.19-71.76,7.37,1.08,18.25-.23,25.86,0-12.85-19.86-26.38-43.15-41.42-62C909.18,718.59,932,719,932,719c-5.33-8.62-12.5-17.11-18-25.59-10.73-16.73-20.62-32.16-29.77-49.59-7.86-15-13.48-31.67-25.89-48.56-5.4,8.51-11,19.58-16.62,28.76-10.51,17.18-20.32,36.62-30.88,54.09C804.09,689.36,784.83,722.19,784.83,722.19Z"/><path class="cls-1" d="M-.4,1076.6c0,.63,10.07-1.6,11.72-1.91,8.18-1.53,11.91-3.63,20.65-7.11-2,3.45-3.73,6.93-5.86,10.33-6.23,9.89-14.2,18.7-21.75,27.6-4.27,5-8.88,9.87-13.33,14.74-2.38,2.61-9.29,8.47-10.33,10.17,2.07.37,26.91-4.17,30-3.75A99.07,99.07,0,0,1,.43,1140.86c-7.95,8.9-39.53,41.49-40.95,43-1.17,1.21-2.59,2.76-3.75,3.86,1.74-1,26.52-2.94,31.15-4.13-.24,2.91-5.93,9.72-7.32,11.8-5.59,8.32-13.28,15.48-20.23,22.68-4,4.17-11.82,11.59-13.74,14.16-1.31,1.76-8.59,11.29-9.39,13.27,6,.39,12.23-3,18-4.18,3.81-.77,21.62-6.37,21.62-6.37s-9,13.61-11.62,16.53c-4,4.43-46.19,50.52-48.43,53.13a9.32,9.32,0,0,0,3.5,1.61c12.91,3.6,26.08-6,38.64-6.89a9.21,9.21,0,0,1,7.44,2.76c1.81,2,2.28,5.09,4.8,6.44,3.89,2.06,12.41.42,16.33-1.07,5.75-2.19,8.81-6.42,15.56-5.74,2.86.29,4.83,1.33,6.23,3.85,1.18,2.13,1.21,5.53,3,7.19,3.43,3.17,12.73-.25,16.19-1.8,3-1.32,4.65-3.7,7.36-5.38s5.54-1.44,8.47-.94c3.37.59,6,.59,8.63,2.83s4.34,4.63,6.59,7c7.63,8,18,.63,25.45-3.53,3.87-2.16,12.3-3.09,16.36,0a24.18,24.18,0,0,0,11.44,4.7c4.71.58,8.88-2.63,12.42-5.26,3.06-2.27,7.25-7.22,10.9-4.92a66,66,0,0,1,10.33,7.39c3.7,3.47,7.63,3,11.82.22s7.53-4.82,12.53-5.4c9.83-1.13,18,7.28,28.18,4.87v-.28s-9.84-12-16.35-21.25c-7.19-10.18-17.42-18.85-28-34.61,12.33,1.65,25.32,5.74,40.36,7.58-4.72-10.66-22.51-39.3-26.64-44.06-4.58-5.28-12.9-14.58-16.36-20.85,9.73,2,31.66,6.34,31.66,6.34-16.35-23.47-28.76-48-51.19-71.77,7.36,1.09,18.24-.22,25.86,0-12.85-19.86-26.38-43.15-41.42-62,8.07,1.41,30.87,1.85,30.87,1.85-5.33-8.62-12.5-17.11-17.95-25.59-10.73-16.73-20.63-32.16-29.77-49.59-7.87-15-13.48-31.68-25.89-48.56-5.4,8.5-11,19.58-16.63,28.75-10.5,17.18-20.31,36.63-30.87,54.1C18.86,1043.78-.4,1076.6-.4,1076.6Z"/><path class="cls-1" d="M4.39,355.72c0,.44,7-1.12,8.16-1.33,5.71-1.07,8.31-2.53,14.4-5-1.37,2.41-2.6,4.83-4.09,7.2-4.34,6.89-9.89,13-15.15,19.24-3,3.52-6.19,6.88-9.29,10.27-1.66,1.82-6.48,5.9-7.21,7.09,1.45.26,18.76-2.9,20.89-2.61A70.06,70.06,0,0,1,5,400.51c-5.54,6.2-27.56,28.92-28.54,29.94-.82.84-1.81,1.93-2.62,2.69,1.21-.67,18.49-2.05,21.72-2.88-.18,2-4.14,6.77-5.11,8.23-3.89,5.8-9.26,10.79-14.1,15.8-2.81,2.91-8.24,8.08-9.57,9.88-.92,1.22-6,7.86-6.55,9.25,4.15.27,8.52-2.11,12.52-2.92,2.65-.54,15.07-4.44,15.07-4.44s-6.27,9.49-8.1,11.52c-2.78,3.09-32.2,35.21-33.76,37a6.46,6.46,0,0,0,2.44,1.12c9,2.52,18.18-4.21,26.93-4.8a6.42,6.42,0,0,1,5.19,1.93c1.26,1.4,1.59,3.55,3.35,4.48,2.7,1.44,8.64.3,11.38-.74,4-1.53,6.14-4.47,10.84-4a5,5,0,0,1,4.34,2.68c.82,1.48.85,3.85,2.11,5,2.4,2.2,8.88-.18,11.29-1.26,2.07-.92,3.24-2.58,5.13-3.75s3.86-1,5.9-.65c2.35.4,4.17.41,6,2a60.44,60.44,0,0,1,4.59,4.87c5.32,5.59,12.55.44,17.74-2.46,2.7-1.51,8.57-2.16,11.4,0a16.72,16.72,0,0,0,8,3.27c3.28.41,6.18-1.83,8.66-3.66,2.13-1.59,5-5,7.59-3.43a45.14,45.14,0,0,1,7.2,5.15c2.58,2.42,5.32,2.12,8.24.16s5.25-3.37,8.73-3.77c6.85-.79,12.55,5.07,19.64,3.39v-.19s-6.85-8.4-11.39-14.81c-5-7.1-12.15-13.14-19.5-24.13,8.6,1.15,17.65,4,28.14,5.29-3.3-7.43-15.69-27.39-18.58-30.71-3.19-3.68-9-10.16-11.4-14.53,6.78,1.37,22.07,4.41,22.07,4.41-11.39-16.35-20.05-33.47-35.68-50,5.13.76,12.72-.15,18,0-9-13.84-18.39-30.07-28.88-43.21,5.63,1,21.52,1.28,21.52,1.28-3.72-6-8.71-11.92-12.51-17.83C87,324,80.07,313.26,73.69,301.11c-5.48-10.43-9.39-22.07-18-33.84-3.76,5.92-7.67,13.64-11.58,20-7.32,12-14.16,25.53-21.52,37.7C17.81,332.84,4.39,355.72,4.39,355.72Z"/></svg>