<svg id="Layer_1" data-name="Layer 1" xmlns="http://www.w3.org/2000/svg" viewBox="0 0 1900 1200"><defs><style>.cls-1{fill:#f5d8cb;}.cls-2{fill:#cac2c4;}</style></defs><title>collections</title><path class="cls-1" d="M336.9,360.66A82.64,82.64,0,0,0,343,332.18a90.75,90.75,0,0,0-1.16-17.06c1.6.57,3.32,1.21,5.26,2,9.92,4.05,25.63,15.7,16.67,32.49-5.89,11.05-17.89,10.66-26.82,11.05M201.93,304c-3.33-9.23,4.57-20.21,12.38-23.74,5.51-2.49,21.84-4.91,32.49-1.53l1.91.7A82.8,82.8,0,0,0,237.65,293c-6.83,10.55-12.18,22.14-13.92,34-8.44-6.62-19.25-16-21.8-23m198.79,43.45c-3.16-14.81-22-22.79-34.71-28.75a276,276,0,0,0-26-10.16,69.38,69.38,0,0,0-2.44-8.19c-5.22-13.91-17.1-25.72-31-32.73-17.56-8.84-39.77-.33-51.47,7a111.87,111.87,0,0,0-35.34-4.24A79.64,79.64,0,0,0,200.89,274c-12.15,4.38-30.83,10.13-29.93,25.29.93,15.76,13.4,28.2,32.29,37.34,7.16,3.47,14,7,20.86,10.37a50,50,0,0,0,5.31,13.28c6.3,11,27.68,24.3,43.48,28.09,7.9,1.9,25.48,3.72,32.89,1.79A41.1,41.1,0,0,0,323.91,380c14.89,3,29.85,4.32,41.92.5,13.22-4.19,38.18-17.62,34.89-33"/><path class="cls-1" d="M1974.9,262.82a82.69,82.69,0,0,0,6-28.48,90.8,90.8,0,0,0-1.16-17.07c1.6.57,3.32,1.22,5.26,2,9.92,4,25.63,15.69,16.67,32.48-5.89,11.06-17.89,10.66-26.82,11.06m-135-56.67c-3.33-9.23,4.57-20.21,12.38-23.74,5.51-2.49,21.84-4.91,32.49-1.53l1.91.7a82.27,82.27,0,0,0-11.06,13.56c-6.83,10.54-12.18,22.14-13.92,34-8.44-6.61-19.25-16-21.8-23m198.79,43.45c-3.16-14.81-22-22.79-34.71-28.74a273.32,273.32,0,0,0-26-10.17,69.38,69.38,0,0,0-2.44-8.19c-5.22-13.9-17.1-25.71-31-32.73-17.56-8.84-39.77-.32-51.47,7a111.89,111.89,0,0,0-35.34-4.25,79.61,79.61,0,0,0-18.88,3.63c-12.15,4.37-30.83,10.12-29.93,25.28.93,15.76,13.4,28.2,32.29,37.35,7.16,3.46,14,7,20.86,10.36a50,50,0,0,0,5.31,13.28c6.3,11,27.68,24.31,43.48,28.09,7.9,1.9,25.48,3.72,32.89,1.79a41.18,41.18,0,0,0,18.12-10.2c14.89,3,29.85,4.31,41.92.49,13.22-4.18,38.18-17.62,34.89-33"/><path class="cls-1" d="M114,94.85a36.21,36.21,0,0,0,8.23-9.71,40.28,40.28,0,0,0,3.08-6.81c.5.55,1,1.15,1.61,1.86,3,3.61,6.62,11.34-.3,16-4.56,3-9.1.39-12.62-1.3M73.72,45.1c.62-4.24,5.94-6.84,9.68-6.58,2.63.18,9.42,2.63,12.82,6.13l.59.67a35.76,35.76,0,0,0-7.06,2.93A38.11,38.11,0,0,0,77.34,58.48c-1.88-4.3-4.11-10.13-3.62-13.38M141.26,103c1.85-6.36-3.76-13.33-7.42-18.25A119.87,119.87,0,0,0,126,75.43a29.5,29.5,0,0,0,.76-3.66c.87-6.43-1.26-13.44-5.17-19-4.93-7-15.25-8.36-21.28-8a48.9,48.9,0,0,0-12.72-8.95,34.65,34.65,0,0,0-8-2.51c-5.58-.83-14-2.48-16.76,3.54-2.9,6.26-.67,13.63,4.71,21.06,2,2.82,3.94,5.6,5.88,8.31a21.92,21.92,0,0,0-.7,6.21C72.8,78,78.27,87.55,83.57,92.28c2.65,2.36,9,6.7,12.3,7.49a17.85,17.85,0,0,0,9.08-.18c5.12,4.24,10.6,7.85,16,8.87,6,1.13,18.35,1.12,20.27-5.49"/><path class="cls-1" d="M1270.24,276.51a21.06,21.06,0,0,0-3.63-6.49,23.82,23.82,0,0,0-3.1-3.09c.4-.15.84-.32,1.35-.49,2.58-.9,7.56-1.31,8.67,3.43.73,3.11-1.65,5.06-3.29,6.64m-35.47,11.83c-2.19-1.21-2.52-4.65-1.61-6.64a14.71,14.71,0,0,1,6-5.76l.48-.19a21.76,21.76,0,0,0,.16,4.47,22.41,22.41,0,0,0,3.06,8.88c-2.74.15-6.38.17-8.07-.76m45.5-25.12c-3.1-2.31-8.06-.67-11.51.33a70.24,70.24,0,0,0-6.69,2.41,19.25,19.25,0,0,0-1.85-1.16,16.18,16.18,0,0,0-11.47-1.06c-4.86,1.26-7.69,6.63-8.7,10a28.34,28.34,0,0,0-7.5,5.14,20.1,20.1,0,0,0-3,3.87c-1.6,2.89-4.22,7.14-1.49,9.9s7.32,3.16,12.49,1.73c2-.54,3.86-1,5.75-1.52a12.59,12.59,0,0,0,3.25,1.66c3.07,1.05,9.41,0,13.08-1.93,1.84-1,5.52-3.57,6.62-5.19a10.55,10.55,0,0,0,1.76-5c3.37-1.93,6.46-4.19,8.14-7,1.83-3,4.36-9.81,1.14-12.22"/><path class="cls-1" d="M1169.54,1030.9c0,.54,8.6-1.37,10-1.63,7-1.31,10.18-3.1,17.63-6.08-1.67,3-3.18,5.93-5,8.83-5.32,8.44-12.12,16-18.57,23.56-3.65,4.31-7.58,8.43-11.38,12.58-2,2.23-7.93,7.23-8.82,8.69,1.77.32,23-3.56,25.58-3.2a85.52,85.52,0,0,1-8.73,12.12c-6.79,7.59-33.75,35.42-35,36.67-1,1-2.22,2.36-3.21,3.3,1.49-.83,22.64-2.51,26.6-3.53-.21,2.48-5.06,8.3-6.26,10.08-4.76,7.1-11.33,13.22-17.26,19.36-3.45,3.56-10.1,9.9-11.73,12.09-1.12,1.5-7.34,9.63-8,11.33,5.09.33,10.44-2.58,15.33-3.57,3.25-.66,18.46-5.44,18.46-5.44s-7.67,11.62-9.92,14.12c-3.4,3.78-39.43,43.12-41.35,45.35a8.08,8.08,0,0,0,3,1.38c11,3.08,22.27-5.16,33-5.88a7.8,7.8,0,0,1,6.35,2.36c1.55,1.71,2,4.34,4.1,5.49,3.32,1.76,10.6.36,13.94-.91,4.91-1.87,7.52-5.48,13.29-4.9a6.14,6.14,0,0,1,5.31,3.28c1,1.82,1,4.72,2.59,6.15,2.93,2.7,10.87-.22,13.82-1.54,2.54-1.13,4-3.17,6.29-4.6s4.73-1.23,7.23-.8c2.88.5,5.11.51,7.37,2.42a75.41,75.41,0,0,1,5.62,6c6.52,6.86,15.37.54,21.74-3,3.3-1.84,10.49-2.64,14,0a20.58,20.58,0,0,0,9.77,4c4,.5,7.58-2.24,10.61-4.49,2.61-1.94,6.18-6.16,9.3-4.2a56.43,56.43,0,0,1,8.82,6.31c3.15,3,6.52,2.6,10.09.19s6.43-4.12,10.7-4.61c8.39-1,15.37,6.21,24.06,4.15v-.23s-8.4-10.28-14-18.14c-6.15-8.69-14.88-16.1-23.89-29.56,10.53,1.41,21.63,4.9,34.47,6.48-4-9.1-19.22-33.56-22.75-37.62-3.91-4.51-11-12.45-14-17.8,8.31,1.69,27,5.41,27,5.41-14-20-24.55-41-43.7-61.27,6.29.92,15.58-.19,22.08,0-11-17-22.53-36.84-35.37-52.94,6.89,1.21,26.36,1.58,26.36,1.58-4.55-7.36-10.67-14.61-15.32-21.85-9.17-14.28-17.61-27.46-25.42-42.34-6.72-12.78-11.51-27-22.11-41.46-4.61,7.26-9.4,16.72-14.19,24.55-9,14.67-17.35,31.27-26.36,46.19C1186,1002.88,1169.54,1030.9,1169.54,1030.9Z"/><path class="cls-1" d="M1861.7,803.92c0,.26,4.18-.67,4.86-.79,3.39-.64,4.94-1.51,8.56-3-.81,1.43-1.54,2.87-2.43,4.28a103.2,103.2,0,0,1-9,11.44c-1.78,2.1-3.68,4.09-5.53,6.11-1,1.08-3.85,3.51-4.28,4.22.86.16,11.15-1.73,12.42-1.55a42.44,42.44,0,0,1-4.24,5.88c-3.3,3.69-16.39,17.2-17,17.81s-1.08,1.15-1.56,1.6c.73-.4,11-1.22,12.92-1.71-.1,1.2-2.46,4-3,4.89-2.31,3.45-5.5,6.42-8.38,9.4-1.67,1.73-4.9,4.81-5.7,5.88a64.42,64.42,0,0,0-3.89,5.5c2.47.16,5.07-1.25,7.44-1.74,1.58-.32,9-2.64,9-2.64s-3.73,5.65-4.82,6.86c-1.65,1.83-19.15,20.94-20.08,22a4.08,4.08,0,0,0,1.45.67c5.35,1.49,10.81-2.51,16-2.86a3.84,3.84,0,0,1,3.09,1.15c.75.83.94,2.11,2,2.67,1.61.85,5.14.17,6.77-.45,2.38-.9,3.65-2.66,6.45-2.37a3,3,0,0,1,2.58,1.59c.49.88.5,2.29,1.26,3,1.42,1.32,5.28-.1,6.71-.74,1.23-.55,1.93-1.54,3-2.24a4.89,4.89,0,0,1,3.51-.38c1.4.24,2.48.24,3.58,1.17a35.7,35.7,0,0,1,2.73,2.9c3.17,3.32,7.47.26,10.56-1.47,1.6-.89,5.09-1.28,6.78,0a9.92,9.92,0,0,0,4.74,2c2,.24,3.68-1.09,5.15-2.18,1.27-.94,3-3,4.52-2a26.94,26.94,0,0,1,4.28,3.07c1.53,1.43,3.17,1.26,4.9.09a11,11,0,0,1,5.2-2.24c4.07-.47,7.46,3,11.68,2v-.11s-4.08-5-6.78-8.81c-3-4.22-7.22-7.82-11.6-14.35,5.12.68,10.5,2.38,16.74,3.14-2-4.42-9.33-16.29-11-18.27-1.9-2.18-5.34-6-6.78-8.64,4,.82,13.13,2.63,13.13,2.63-6.78-9.73-11.93-19.91-21.23-29.75,3.06.44,7.57-.1,10.73,0-5.33-8.24-10.94-17.89-17.18-25.71,3.35.58,12.8.77,12.8.77-2.21-3.58-5.18-7.1-7.44-10.61-4.45-6.94-8.55-13.34-12.35-20.56-3.25-6.21-5.58-13.14-10.73-20.14-2.24,3.53-4.57,8.12-6.89,11.93-4.35,7.12-8.42,15.18-12.8,22.42C1869.69,790.31,1861.7,803.92,1861.7,803.92Z"/><path class="cls-1" d="M351.65,1022.33a15.78,15.78,0,0,0,2.62-.43,21.56,21.56,0,0,0,4.61-1.58c-.44.77-.83,1.54-1.31,2.3a56.48,56.48,0,0,1-4.85,6.17c-1,1.12-2,2.2-3,3.28-.53.59-2.07,1.9-2.31,2.28.47.08,6-.93,6.69-.84a22.25,22.25,0,0,1-2.28,3.17c-1.78,2-8.83,9.26-9.14,9.59s-.58.61-.84.86c.39-.22,5.92-.66,7-.92-.06.65-1.33,2.17-1.64,2.63a38.73,38.73,0,0,1-4.52,5.06c-.9.93-2.64,2.59-3.06,3.17a33.14,33.14,0,0,0-2.1,3c1.33.08,2.73-.68,4-.94.85-.17,4.83-1.42,4.83-1.42s-2,3-2.6,3.69c-.89,1-10.31,11.28-10.81,11.86a2.06,2.06,0,0,0,.78.36c2.88.81,5.82-1.35,8.63-1.53a2,2,0,0,1,1.66.61c.4.45.51,1.14,1.07,1.44.87.46,2.77.09,3.65-.24,1.28-.49,2-1.43,3.47-1.28a1.58,1.58,0,0,1,1.39.86c.26.47.27,1.23.68,1.6.76.71,2.84,0,3.61-.4a13.79,13.79,0,0,0,1.64-1.2,2.63,2.63,0,0,1,1.89-.21,3.47,3.47,0,0,1,1.93.63,19.66,19.66,0,0,1,1.47,1.56c1.71,1.79,4,.14,5.68-.78a4,4,0,0,1,3.66,0,5.26,5.26,0,0,0,2.55,1,4.09,4.09,0,0,0,2.77-1.17c.69-.51,1.62-1.61,2.44-1.1a14.39,14.39,0,0,1,2.3,1.65,1.91,1.91,0,0,0,2.64,0,5.85,5.85,0,0,1,2.8-1.2c2.19-.26,4,1.62,6.29,1.08v-.06s-2.2-2.69-3.65-4.74c-1.61-2.28-3.89-4.21-6.25-7.73,2.76.37,5.66,1.28,9,1.69a78.61,78.61,0,0,0-5.95-9.84,33.68,33.68,0,0,1-3.65-4.65l7.06,1.42c-3.65-5.24-6.42-10.73-11.42-16a55.52,55.52,0,0,0,5.77,0c-2.87-4.43-5.89-9.63-9.25-13.84,1.8.32,6.89.41,6.89.41-1.19-1.92-2.79-3.81-4-5.71-2.4-3.73-4.61-7.18-6.65-11.07-1.76-3.34-3-7.07-5.78-10.84-1.2,1.9-2.46,4.37-3.71,6.42-2.35,3.84-4.54,8.18-6.89,12.08C356,1015,351.65,1022.33,351.65,1022.33Z"/><path class="cls-1" d="M738.65,1183.11a15.78,15.78,0,0,0,2.62-.43,21.07,21.07,0,0,0,4.61-1.59c-.44.78-.83,1.55-1.31,2.31a55.43,55.43,0,0,1-4.85,6.16c-1,1.13-2,2.21-3,3.29-.53.59-2.07,1.89-2.31,2.27.47.09,6-.93,6.69-.83a22.83,22.83,0,0,1-2.28,3.17c-1.78,2-8.83,9.26-9.14,9.59s-.58.61-.84.86c.39-.22,5.92-.66,7-.92-.06.64-1.33,2.16-1.64,2.63a38.73,38.73,0,0,1-4.52,5.06c-.9.93-2.64,2.59-3.06,3.16a34.79,34.79,0,0,0-2.1,3c1.33.08,2.73-.68,4-.94.85-.17,4.83-1.42,4.83-1.42s-2,3-2.6,3.69c-.89,1-10.31,11.28-10.81,11.86a2.06,2.06,0,0,0,.78.36c2.88.81,5.82-1.35,8.63-1.54a2,2,0,0,1,1.66.62c.4.45.51,1.14,1.07,1.44.87.46,2.77.09,3.65-.24,1.28-.49,2-1.43,3.47-1.28a1.58,1.58,0,0,1,1.39.86c.26.47.27,1.23.68,1.6.76.71,2.84-.06,3.61-.4a13.79,13.79,0,0,0,1.64-1.2,2.63,2.63,0,0,1,1.89-.21,3.47,3.47,0,0,1,1.93.63,18.07,18.07,0,0,1,1.47,1.56c1.71,1.79,4,.14,5.68-.79a4,4,0,0,1,3.66,0,5.37,5.37,0,0,0,2.55,1,4.09,4.09,0,0,0,2.77-1.17c.69-.51,1.62-1.61,2.44-1.1a14.39,14.39,0,0,1,2.3,1.65,1.92,1.92,0,0,0,2.64.05,6,6,0,0,1,2.8-1.21c2.19-.25,4,1.63,6.29,1.09v-.06s-2.2-2.69-3.65-4.75c-1.61-2.27-3.89-4.2-6.25-7.72,2.76.37,5.66,1.28,9,1.69a78.61,78.61,0,0,0-5.95-9.84,34.29,34.29,0,0,1-3.65-4.65l7.06,1.41c-3.65-5.23-6.42-10.72-11.42-16,1.64.24,4.07,0,5.77,0-2.87-4.43-5.89-9.63-9.25-13.84,1.8.32,6.89.41,6.89.41-1.19-1.92-2.79-3.82-4-5.71-2.4-3.73-4.61-7.18-6.65-11.07-1.76-3.34-3-7.07-5.78-10.84-1.2,1.9-2.46,4.37-3.71,6.42-2.35,3.83-4.54,8.17-6.89,12.07C743,1175.78,738.65,1183.11,738.65,1183.11Z"/><path class="cls-1" d="M607.12,789.43c0,.37,5.91-.94,6.87-1.12,4.8-.9,7-2.13,12.11-4.18-1.15,2-2.18,4.07-3.44,6.06-3.65,5.8-8.32,11-12.75,16.19-2.51,3-5.21,5.79-7.82,8.64-1.39,1.53-5.44,5-6.06,6,1.22.22,15.78-2.44,17.58-2.2a58.18,58.18,0,0,1-6,8.32c-4.67,5.22-23.19,24.34-24,25.2-.68.7-1.52,1.62-2.2,2.26,1-.57,15.55-1.72,18.27-2.42-.14,1.71-3.48,5.7-4.3,6.92-3.27,4.88-7.78,9.08-11.86,13.3-2.36,2.44-6.93,6.8-8,8.31-.77,1-5.05,6.61-5.51,7.78,3.49.23,7.17-1.77,10.53-2.46,2.23-.45,12.68-3.73,12.68-3.73s-5.27,8-6.81,9.7c-2.34,2.59-27.09,29.62-28.41,31.15a5.5,5.5,0,0,0,2.05,1c7.57,2.11,15.3-3.55,22.67-4a5.37,5.37,0,0,1,4.36,1.62c1.06,1.18,1.33,3,2.81,3.77,2.28,1.21,7.28.25,9.58-.63,3.37-1.28,5.17-3.76,9.12-3.36a4.24,4.24,0,0,1,3.66,2.25c.69,1.25.71,3.25,1.78,4.23,2,1.85,7.46-.16,9.49-1.06,1.74-.77,2.73-2.17,4.32-3.16a6.91,6.91,0,0,1,5-.55c2,.35,3.51.35,5.07,1.66a53.45,53.45,0,0,1,3.86,4.1c4.48,4.71,10.56.37,14.93-2.07,2.27-1.27,7.21-1.81,9.59,0a14.17,14.17,0,0,0,6.71,2.76c2.76.34,5.21-1.54,7.29-3.09,1.79-1.33,4.24-4.23,6.39-2.88a38,38,0,0,1,6.06,4.33c2.16,2,4.47,1.79,6.93.13s4.42-2.83,7.35-3.17c5.76-.66,10.56,4.27,16.52,2.86v-.16s-5.77-7.07-9.58-12.47c-4.22-6-10.22-11-16.41-20.3,7.23,1,14.85,3.37,23.67,4.45-2.77-6.25-13.2-23-15.62-25.84-2.69-3.1-7.57-8.55-9.6-12.23,5.71,1.16,18.57,3.72,18.57,3.72-9.59-13.76-16.87-28.16-30-42.09,4.32.64,10.7-.13,15.17,0-7.54-11.65-15.48-25.31-24.3-36.36,4.73.83,18.11,1.08,18.11,1.08-3.13-5.06-7.33-10-10.53-15-6.29-9.81-12.1-18.86-17.46-29.08-4.61-8.78-7.9-18.58-15.18-28.48-3.17,5-6.46,11.48-9.75,16.87-6.16,10.07-11.92,21.47-18.11,31.72C618.41,770.18,607.12,789.43,607.12,789.43Z"/><path class="cls-2" d="M872,84.43a113.93,113.93,0,0,0-16.16-36.84A125.73,125.73,0,0,0,840.8,29.38c2.25-.65,4.71-1.31,7.52-2,14.4-3.46,41.42-3.05,44.9,23,2.29,17.15-11.5,26.38-21.2,34M674.88,129.62C663.71,122,663.72,103.26,669.64,93c4.17-7.23,20.56-23.11,35.22-27.9l2.72-.75c-2,13.14-1.68,20.21-1.49,24.13.84,17.33,4.18,34.66,11.82,49.43-14.8-.63-34.46-2.4-43-8.29M933,18.16c-15.49-14.08-43.06-7.84-62.13-4.28-12.61,2.35-25,5.89-37.32,9.52a97.66,97.66,0,0,0-9.34-7.22C807.14,4.77,784.29,1.1,763,4.45c-26.84,4.23-44.9,31.7-52.11,49.37a154.38,154.38,0,0,0-43.07,23.71,109.85,109.85,0,0,0-18.27,19.3c-10.11,14.7-26.44,36.21-13.21,52.5,13.74,16.93,37.77,20.84,66.34,15.88,10.82-1.88,21.35-3.43,31.76-5.18a69.51,69.51,0,0,0,16.66,10.63c15.95,7.26,50.66,5,71.44-3.53,10.4-4.24,31.59-16.37,38.35-24.5A56.83,56.83,0,0,0,873,116.57c19.14-8.63,37-19.21,47.45-33.23C931.91,68,949.1,32.79,933,18.16"/><path class="cls-2" d="M1675.78,337.79a61.79,61.79,0,0,0-21.81-.29,69.13,69.13,0,0,0-12.37,3.35c.18-1.25.41-2.61.7-4.15,1.52-7.89,7.78-21.14,21.43-17,9,2.72,10.45,11.59,12,18.1m-21.89,107.45c-6.3,3.8-15.52-.4-19.26-5.62-2.63-3.68-6.8-15.33-5.88-23.65,0,0,.09-.55.24-1.51a61.57,61.57,0,0,0,11.58,6.15c8.74,3.47,18,5.71,27,5.25-3.62,7.17-8.91,16.47-13.73,19.38m2.84-152.42c-10.42,4.49-13.52,19.5-16,29.71a206.7,206.7,0,0,0-3.67,20.56,53.47,53.47,0,0,0-5.66,3c-9.46,5.87-16.4,16.32-19.51,27.58-3.93,14.2,5.58,29.27,12.69,36.8a83.41,83.41,0,0,0,2,26.58,59.47,59.47,0,0,0,5.43,13.34c5,8.29,11.94,21.17,23,18.29,11.44-3,18.76-14,22.72-29.18,1.5-5.77,3.09-11.32,4.56-16.84a37.45,37.45,0,0,0,9-5.85c7.17-6.24,13.81-23.9,14.28-36.06.24-6.08-1-19.27-3.5-24.42a30.8,30.8,0,0,0-10.14-11.83c0-11.38-1.2-22.56-5.77-30.87-5-9.1-18.53-25.48-29.37-20.81"/><path class="cls-2" d="M26.87,442.94a61.74,61.74,0,0,0-9.18-19.78,68.18,68.18,0,0,0-8.37-9.71c1.21-.37,2.54-.76,4-1.16,7.77-2,22.42-2.13,24.61,12,1.43,9.27-5.93,14.43-11.11,18.68M-79.48,469.69c-6.14-4-6.35-14.16-3.26-19.79,2.18-4,10.88-12.76,18.78-15.53l1.46-.43A62.14,62.14,0,0,0-63,447c.65,9.39,2.66,18.75,7,26.66-8-.17-18.71-.9-23.42-4M59.17,406.32c-8.55-7.45-23.43-3.76-33.73-1.61A205.54,205.54,0,0,0,5.32,410.3a50.78,50.78,0,0,0-5.15-3.81c-9.38-6-21.81-7.72-33.31-5.66-14.5,2.6-24,17.7-27.68,27.36A83.92,83.92,0,0,0-83.9,441.54a59.76,59.76,0,0,0-9.68,10.66c-5.31,8.09-13.92,19.94-6.56,28.62,7.64,9,20.71,10.86,36.14,7.85,5.85-1.14,11.54-2.11,17.16-3.17a37.75,37.75,0,0,0,9.15,5.57c8.73,3.75,27.52,2.11,38.69-2.73,5.59-2.42,16.94-9.23,20.51-13.72a30.85,30.85,0,0,0,6.27-14.27c10.27-4.89,19.83-10.83,25.34-18.55,6-8.45,14.95-27.73,6.05-35.48"/><path class="cls-2" d="M1661.46,93.89a23.27,23.27,0,0,0,1.58-8,26.31,26.31,0,0,0-.41-4.8c.45.15.94.33,1.49.54,2.81,1.09,7.29,4.3,4.84,9.07-1.61,3.13-5,3.08-7.5,3.23m-38.24-15.32c-1-2.58,1.19-5.71,3.37-6.74a16.48,16.48,0,0,1,9.14-.58l.54.19a22.92,22.92,0,0,0-3,3.87,24.66,24.66,0,0,0-3.76,9.64c-2.4-1.82-5.49-4.4-6.24-6.38m56.14,11.31c-.95-4.16-6.29-6.31-9.9-7.93a75.27,75.27,0,0,0-7.35-2.74,19.24,19.24,0,0,0-.73-2.29,17.82,17.82,0,0,0-8.88-9.07c-5-2.41-11.19.09-14.45,2.21a31.51,31.51,0,0,0-10-1,22.59,22.59,0,0,0-5.3,1.11c-3.4,1.29-8.63,3-8.31,7.26.34,4.43,3.91,7.87,9.26,10.36,2,.94,4,1.9,5.92,2.82a14.2,14.2,0,0,0,1.56,3.71c1.82,3.06,7.9,6.71,12.36,7.7,2.24.5,7.19.93,9.27.35a11.55,11.55,0,0,0,5.05-3c4.2.78,8.42,1.08,11.8,0,3.7-1.24,10.66-5.14,9.66-9.45"/><path class="cls-2" d="M142.35,645.13c0,.39,6.29-1,7.32-1.2,5.12-1,7.45-2.27,12.91-4.44-1.23,2.15-2.33,4.33-3.66,6.45-3.9,6.18-8.88,11.69-13.6,17.26-2.67,3.15-5.54,6.16-8.32,9.2-1.49,1.63-5.81,5.3-6.47,6.36,1.3.24,16.82-2.6,18.73-2.34a62.13,62.13,0,0,1-6.39,8.87c-5,5.56-24.71,25.93-25.59,26.85-.73.75-1.63,1.73-2.35,2.41,1.09-.61,16.58-1.83,19.47-2.58-.15,1.82-3.71,6.07-4.58,7.38-3.49,5.19-8.3,9.67-12.64,14.17-2.52,2.6-7.39,7.24-8.58,8.85-.82,1.1-5.38,7-5.87,8.29,3.72.25,7.64-1.88,11.22-2.61,2.38-.48,13.51-4,13.51-4s-5.61,8.51-7.26,10.33c-2.49,2.77-28.87,31.57-30.27,33.21a6,6,0,0,0,2.19,1c8.07,2.25,16.3-3.78,24.15-4.3a5.72,5.72,0,0,1,4.65,1.72c1.13,1.26,1.42,3.19,3,4,2.43,1.3,7.75.27,10.2-.66,3.6-1.37,5.51-4,9.73-3.59a4.49,4.49,0,0,1,3.89,2.4c.74,1.33.76,3.46,1.9,4.5,2.14,2,8-.16,10.11-1.12,1.86-.83,2.91-2.32,4.61-3.37a7.33,7.33,0,0,1,5.29-.58c2.11.36,3.74.37,5.39,1.77a54.73,54.73,0,0,1,4.12,4.36c4.77,5,11.25.4,15.91-2.2,2.42-1.35,7.68-1.94,10.22,0a15.16,15.16,0,0,0,7.15,2.93c2.95.37,5.55-1.64,7.77-3.28,1.91-1.42,4.52-4.52,6.81-3.08a40.83,40.83,0,0,1,6.46,4.62c2.3,2.17,4.77,1.91,7.38.14s4.71-3,7.83-3.38c6.14-.7,11.26,4.55,17.62,3v-.18s-6.15-7.52-10.22-13.28c-4.5-6.36-10.89-11.78-17.49-21.63,7.71,1,15.83,3.58,25.23,4.74-2.95-6.67-14.07-24.56-16.65-27.54-2.86-3.3-8.06-9.11-10.23-13,6.08,1.24,19.79,4,19.79,4-10.21-14.67-18-30-32-44.85,4.6.67,11.4-.14,16.16,0-8-12.42-16.49-27-25.89-38.76,5,.89,19.3,1.16,19.3,1.16-3.33-5.39-7.81-10.69-11.22-16-6.71-10.45-12.89-20.1-18.61-31-4.91-9.36-8.42-19.79-16.18-30.35-3.37,5.32-6.88,12.24-10.39,18-6.56,10.74-12.7,22.89-19.29,33.81C154.38,624.61,142.35,645.13,142.35,645.13Z"/><path class="cls-2" d="M1602.65,959.33a15.78,15.78,0,0,0,2.62-.43,21.56,21.56,0,0,0,4.61-1.58c-.44.77-.83,1.54-1.31,2.3a56.48,56.48,0,0,1-4.85,6.17c-1,1.12-2,2.2-3,3.28-.53.59-2.07,1.9-2.31,2.28.47.08,6-.93,6.69-.84a22.25,22.25,0,0,1-2.28,3.17c-1.78,2-8.83,9.26-9.14,9.59s-.58.61-.84.86c.39-.22,5.92-.66,7-.92-.06.65-1.33,2.17-1.64,2.63a38.73,38.73,0,0,1-4.52,5.06c-.9.93-2.64,2.59-3.06,3.17a33.14,33.14,0,0,0-2.1,3c1.33.08,2.73-.68,4-.94.85-.17,4.83-1.42,4.83-1.42s-2,3-2.6,3.69c-.89,1-10.31,11.28-10.81,11.86a2.06,2.06,0,0,0,.78.36c2.88.81,5.82-1.35,8.63-1.53a2,2,0,0,1,1.66.61c.4.45.51,1.14,1.07,1.44.87.46,2.77.09,3.65-.24,1.28-.49,2-1.43,3.47-1.28a1.58,1.58,0,0,1,1.39.86c.26.47.27,1.23.68,1.6.76.71,2.84,0,3.61-.4a13.79,13.79,0,0,0,1.64-1.2,2.63,2.63,0,0,1,1.89-.21,3.47,3.47,0,0,1,1.93.63,19.66,19.66,0,0,1,1.47,1.56c1.71,1.79,4,.14,5.68-.78a4,4,0,0,1,3.66,0,5.26,5.26,0,0,0,2.55,1,4.09,4.09,0,0,0,2.77-1.17c.69-.51,1.62-1.61,2.44-1.1a14.39,14.39,0,0,1,2.3,1.65,1.91,1.91,0,0,0,2.64.05,5.85,5.85,0,0,1,2.8-1.2c2.19-.26,4,1.62,6.29,1.08v-.06s-2.2-2.69-3.65-4.74c-1.61-2.28-3.89-4.21-6.25-7.73,2.76.37,5.66,1.28,9,1.69a78.61,78.61,0,0,0-6-9.84,33.68,33.68,0,0,1-3.65-4.65l7.06,1.42c-3.65-5.24-6.42-10.73-11.42-16a55.52,55.52,0,0,0,5.77,0c-2.87-4.43-5.89-9.63-9.25-13.84,1.8.32,6.89.41,6.89.41-1.19-1.92-2.79-3.81-4-5.71-2.4-3.73-4.61-7.18-6.65-11.07-1.76-3.34-3-7.07-5.78-10.84-1.2,1.9-2.46,4.37-3.71,6.42-2.35,3.84-4.54,8.18-6.89,12.08C1607,952,1602.65,959.33,1602.65,959.33Z"/><path class="cls-2" d="M673,488.81a13.38,13.38,0,0,0,2.24-.37,17.84,17.84,0,0,0,3.95-1.36c-.37.66-.71,1.33-1.12,2a48,48,0,0,1-4.16,5.28c-.82,1-1.7,1.89-2.55,2.82-.46.5-1.78,1.62-2,1.95.4.07,5.15-.8,5.74-.72a19.61,19.61,0,0,1-2,2.71c-1.52,1.71-7.57,7.94-7.84,8.22s-.49.53-.72.74c.34-.18,5.08-.56,6-.79a8.77,8.77,0,0,1-1.41,2.26,33.09,33.09,0,0,1-3.87,4.34c-.77.8-2.26,2.22-2.63,2.71a30.73,30.73,0,0,0-1.79,2.54c1.14.07,2.34-.58,3.43-.8.73-.15,4.14-1.22,4.14-1.22s-1.72,2.61-2.22,3.16c-.76.85-8.84,9.67-9.27,10.17a1.79,1.79,0,0,0,.67.31c2.47.69,5-1.16,7.39-1.32a1.8,1.8,0,0,1,1.43.53c.34.38.43,1,.92,1.23a4.93,4.93,0,0,0,3.12-.2c1.1-.42,1.69-1.23,3-1.1a1.37,1.37,0,0,1,1.19.73c.23.41.23,1.06.58,1.38.66.61,2.44,0,3.1-.34a13.05,13.05,0,0,0,1.41-1,2.22,2.22,0,0,1,1.62-.18A3,3,0,0,1,683,533a15.84,15.84,0,0,1,1.26,1.33c1.46,1.54,3.44.13,4.87-.67a3.45,3.45,0,0,1,3.13,0,4.64,4.64,0,0,0,2.19.9,3.52,3.52,0,0,0,2.38-1c.58-.43,1.38-1.38,2.08-.94a12.55,12.55,0,0,1,2,1.42,1.64,1.64,0,0,0,2.26,0,5.12,5.12,0,0,1,2.4-1c1.88-.21,3.44,1.4,5.39.94v-.06s-1.88-2.3-3.13-4.06c-1.38-2-3.33-3.61-5.35-6.63,2.36.32,4.84,1.1,7.72,1.45a64.51,64.51,0,0,0-5.1-8.43,31.27,31.27,0,0,1-3.13-4l6.06,1.22c-3.13-4.49-5.5-9.19-9.79-13.74a48.07,48.07,0,0,0,4.95,0c-2.46-3.8-5-8.25-7.93-11.86,1.54.27,5.91.35,5.91.35-1-1.65-2.4-3.27-3.44-4.89-2.05-3.2-4-6.16-5.7-9.49-1.5-2.87-2.57-6.06-5-9.3-1,1.63-2.11,3.75-3.18,5.51-2,3.28-3.89,7-5.91,10.35C676.66,482.53,673,488.81,673,488.81Z"/><path class="cls-2" d="M925,821.81a13.38,13.38,0,0,0,2.24-.37,17.84,17.84,0,0,0,3.95-1.36c-.37.66-.71,1.33-1.12,2a48,48,0,0,1-4.16,5.28c-.82,1-1.7,1.89-2.55,2.82-.46.5-1.78,1.62-2,2,.4.07,5.15-.8,5.74-.72a19.61,19.61,0,0,1-2,2.71c-1.52,1.71-7.57,7.94-7.84,8.22s-.49.53-.72.74c.34-.18,5.08-.56,6-.79a8.77,8.77,0,0,1-1.41,2.26,33.09,33.09,0,0,1-3.87,4.34c-.77.8-2.26,2.22-2.63,2.71a30.73,30.73,0,0,0-1.79,2.54c1.14.07,2.34-.58,3.43-.8.73-.15,4.14-1.22,4.14-1.22s-1.72,2.61-2.22,3.16c-.76.85-8.84,9.67-9.27,10.17a1.79,1.79,0,0,0,.67.31c2.47.69,5-1.16,7.39-1.32a1.8,1.8,0,0,1,1.43.53c.34.38.43,1,.92,1.23a4.93,4.93,0,0,0,3.12-.2c1.1-.42,1.69-1.23,3-1.1a1.37,1.37,0,0,1,1.19.73c.23.41.23,1.06.58,1.38.66.61,2.44,0,3.1-.34a13.05,13.05,0,0,0,1.41-1,2.22,2.22,0,0,1,1.62-.18A3,3,0,0,1,935,866a15.84,15.84,0,0,1,1.26,1.33c1.46,1.54,3.44.13,4.87-.67a3.45,3.45,0,0,1,3.13,0,4.64,4.64,0,0,0,2.19.9,3.52,3.52,0,0,0,2.38-1c.58-.43,1.38-1.38,2.08-.94a12.55,12.55,0,0,1,2,1.42,1.64,1.64,0,0,0,2.26,0,5.12,5.12,0,0,1,2.4-1c1.88-.21,3.44,1.4,5.39.94v-.06s-1.88-2.3-3.13-4.06c-1.38-2-3.33-3.61-5.35-6.63,2.36.32,4.84,1.1,7.72,1.45a64.51,64.51,0,0,0-5.1-8.43,31.27,31.27,0,0,1-3.13-4l6.06,1.22c-3.13-4.49-5.5-9.19-9.79-13.74a48.07,48.07,0,0,0,4.95,0c-2.46-3.8-5-8.25-7.93-11.86,1.54.27,5.91.35,5.91.35-1-1.65-2.4-3.27-3.44-4.89-2.05-3.2-4-6.16-5.7-9.49-1.5-2.87-2.57-6.06-5-9.3-1,1.63-2.11,3.75-3.18,5.51-2,3.28-3.89,7-5.91,10.35C928.66,815.53,925,821.81,925,821.81Z"/><path class="cls-2" d="M-14.47,1131.84c0,.28,4.39-.7,5.11-.83,3.56-.67,5.19-1.58,9-3.1-.85,1.5-1.62,3-2.55,4.5-2.71,4.31-6.19,8.15-9.47,12-1.87,2.19-3.87,4.29-5.81,6.41-1,1.14-4.05,3.69-4.5,4.44.9.16,11.72-1.82,13.05-1.64a43.73,43.73,0,0,1-4.45,6.19c-3.47,3.87-17.23,18.07-17.84,18.71s-1.13,1.2-1.64,1.68c.76-.42,11.55-1.28,13.57-1.8-.1,1.27-2.58,4.23-3.19,5.14-2.43,3.63-5.78,6.75-8.81,9.88-1.76,1.82-5.15,5-6,6.17a68.11,68.11,0,0,0-4.09,5.78c2.59.17,5.32-1.31,7.82-1.82,1.66-.34,9.42-2.78,9.42-2.78s-3.92,5.93-5.06,7.21c-1.74,1.93-20.13,22-21.1,23.14a4.06,4.06,0,0,0,1.52.7c5.63,1.57,11.36-2.63,16.83-3a4,4,0,0,1,3.25,1.2c.79.88,1,2.22,2.09,2.81,1.69.9,5.4.18,7.11-.47,2.51-1,3.84-2.79,6.78-2.5a3.15,3.15,0,0,1,2.71,1.68c.51.92.53,2.4,1.32,3.13,1.5,1.38,5.55-.11,7.05-.78,1.3-.58,2-1.62,3.21-2.35a5.17,5.17,0,0,1,3.69-.41c1.47.26,2.61.26,3.76,1.24a37.5,37.5,0,0,1,2.87,3c3.32,3.5,7.84.28,11.09-1.54,1.68-.94,5.35-1.34,7.12,0a10.51,10.51,0,0,0,5,2c2,.25,3.86-1.14,5.41-2.29,1.33-1,3.15-3.15,4.75-2.14a27.94,27.94,0,0,1,4.5,3.22c1.61,1.51,3.32,1.32,5.14.09a11.71,11.71,0,0,1,5.46-2.35c4.28-.49,7.85,3.17,12.28,2.12v-.12s-4.29-5.25-7.12-9.26c-3.14-4.43-7.59-8.21-12.19-15.08,5.37.72,11,2.5,17.59,3.31-2.06-4.65-9.81-17.12-11.61-19.2-2-2.3-5.62-6.35-7.13-9.08,4.24.86,13.79,2.76,13.79,2.76C58.14,1177.71,52.73,1167,43,1156.67c3.2.47,7.94-.1,11.26,0-5.6-8.65-11.49-18.8-18-27,3.51.61,13.44.8,13.44.8-2.32-3.75-5.44-7.45-7.81-11.14-4.68-7.29-9-14-13-21.61-3.43-6.52-5.88-13.79-11.28-21.15-2.35,3.7-4.8,8.53-7.24,12.53-4.58,7.48-8.85,16-13.45,23.56C-6.08,1117.54-14.47,1131.84-14.47,1131.84Z"/><path class="cls-2" d="M1282.05,518.52c0,.3,4.82-.77,5.61-.91,3.91-.74,5.7-1.74,9.88-3.41-.94,1.65-1.79,3.32-2.81,4.94-3,4.74-6.79,9-10.4,13.21-2,2.41-4.25,4.72-6.38,7-1.13,1.25-4.44,4.05-4.94,4.87,1,.17,12.87-2,14.33-1.8a46.6,46.6,0,0,1-4.89,6.79c-3.8,4.26-18.91,19.85-19.59,20.55s-1.24,1.32-1.8,1.85c.84-.47,12.69-1.41,14.91-2-.12,1.39-2.84,4.65-3.51,5.65-2.67,4-6.35,7.4-9.67,10.85-1.93,2-5.66,5.54-6.57,6.77-.63.84-4.11,5.4-4.5,6.35,2.85.19,5.85-1.44,8.6-2,1.82-.37,10.34-3,10.34-3s-4.3,6.51-5.56,7.91c-1.9,2.12-22.1,24.17-23.17,25.41a4.32,4.32,0,0,0,1.67.77c6.18,1.73,12.48-2.89,18.49-3.29a4.37,4.37,0,0,1,3.56,1.32c.87,1,1.09,2.44,2.3,3.08,1.86,1,5.93.2,7.81-.51,2.75-1.05,4.21-3.07,7.44-2.75a3.46,3.46,0,0,1,3,1.84c.56,1,.58,2.65,1.45,3.45,1.64,1.51,6.09-.13,7.74-.86,1.42-.64,2.23-1.78,3.53-2.58a5.61,5.61,0,0,1,4-.45c1.61.28,2.86.28,4.13,1.36a43.31,43.31,0,0,1,3.15,3.34c3.65,3.84,8.61.3,12.18-1.69,1.85-1,5.88-1.48,7.82,0a11.64,11.64,0,0,0,5.47,2.25c2.26.28,4.25-1.26,6-2.52,1.46-1.09,3.46-3.45,5.21-2.35a31.26,31.26,0,0,1,4.94,3.53c1.77,1.66,3.65,1.46,5.65.11a12.69,12.69,0,0,1,6-2.58c4.7-.54,8.61,3.48,13.48,2.32v-.13s-4.71-5.76-7.82-10.16c-3.44-4.87-8.34-9-13.38-16.56,5.9.79,12.11,2.74,19.31,3.62-2.26-5.09-10.77-18.8-12.75-21.07-2.19-2.53-6.17-7-7.83-10,4.66.95,15.15,3,15.15,3-7.82-11.23-13.76-23-24.49-34.34,3.53.52,8.73-.1,12.37,0-6.15-9.5-12.62-20.64-19.81-29.66,3.86.68,14.76.89,14.76.89-2.54-4.13-6-8.19-8.58-12.25-5.14-8-9.87-15.38-14.24-23.72-3.76-7.16-6.45-15.15-12.39-23.23-2.58,4.07-5.27,9.37-8,13.76-5,8.22-9.72,17.52-14.77,25.87C1291.26,502.82,1282.05,518.52,1282.05,518.52Z"/></svg>