<svg id="Layer_1" data-name="Layer 1" xmlns="http://www.w3.org/2000/svg" viewBox="0 0 1900 1200"><defs><style>.cls-1{fill:#ef6c55;}</style></defs><title>soap-page-bkgd</title><path class="cls-1" d="M922.42,424.6a68.82,68.82,0,0,1-27.88,29.33,120.52,120.52,0,0,1-55.1,14.28A79.5,79.5,0,0,1,822.9,508c-15.73,20.18-41.54,29.42-64.51,25.15-3.46,10.72-10.31,22.47-23.12,33.41-19.41,16.6-48.52,20-69.35,16.28a88.52,88.52,0,0,1-29.38,42.82c-18.87,15.07-40.77,21.68-63.34,19.13a90.54,90.54,0,0,1-16.34-3.42c-.29,18.86-7.65,35.32-21.41,47.33-26.51,23.12-63,22-85.71,11.22-22.49-10.71-35.36-29.36-46.71-45.82l-2.6-3.76c-6.49-9.32,1.7-39.13,1.7-39.13s25.56,6.33,32,15.65l2.7,3.89c9.24,13.41,18,26.07,30.54,32,11,5.25,29.16,5.26,41-5.08,4.06-3.55,9.19-10,6.73-24.48-2-12.07-8.49-23.8-13.38-30.17-6.87-8.95-.85-42.51-.85-42.51s26.22,8.37,33.24,17.2c8.57,10.77,25.14,24.09,43.66,26.18,11.81,1.34,22.63-2.07,33.07-10.41,12.67-10.11,17.67-23.75,17.24-33.64-5.86-7.15-10.35-14.86-14.23-21.52-1.65-2.84-3.22-5.53-4.72-7.9-5.56-8.75.39-38.79.39-38.79s23.55,5.72,31.09,12.85c9.61,9.09,19.62,20.12,24.87,34.75A16.38,16.38,0,0,0,671.2,542c11.06,2.7,28.49.93,37.36-6.66,8-6.84,11.91-14.19,11.91-22.48a29.15,29.15,0,0,0-.39-4.6,185.65,185.65,0,0,1-13.59-20.83c-2-3.42-3.92-6.66-5.81-9.56-5.57-8.57-1.21-41.63-1.21-41.63s24,8.15,31.79,14.78a88.43,88.43,0,0,1,25.85,37,26.64,26.64,0,0,0,3.38,2.64c6.43,4.22,21.3,3.24,30-7.88,5.37-6.9,9.08-18.26,7.76-30.27-13.36-13-19.33-30.68-21.93-38.36-3-8.78,2.19-41.43,2.19-41.43s23.7,13.22,30.71,19.28a90.14,90.14,0,0,1,24.55,34.76c.3.05.59.1.88.13,11,1.36,28.57-2.54,40-8.87,10.55-5.84,15.57-18.91,14.94-28.23-.52-7.85-8.2-16.45-15.63-24.77l-3.09-3.47c-7.49-8.53-3.18-44.5-3.18-44.5s26.56,8.82,34.06,17.35l2.87,3.24c10.36,11.59,24.53,27.47,26,49.41.77,11.35-1.76,25-8.15,37.6"/><path class="cls-1" d="M1523.39,89c6.54-1.66,12.94-3.28,19.34-4.92,5.74-1.48,11.48-3,17.22-4.49q12.3-3.16,24.61-6.29c5.76-1.44,11.54-2.8,17.32-4.21,6.6-1.61,13.22-3.19,19.8-4.89,2.76-.71,5.44-1.74,8.16-2.57,3-.91,5.92-1.74,8.87-2.64,2.76-.85,5.5-1.78,8.27-2.63s5.74-1.72,8.6-2.59c.78-.23,1.55-.46,2.3-.75,2-.78,3.74.34,5.59.62a31.18,31.18,0,0,1,3.51.91c-1.86,1.36-3.44,2.54-5,3.7-1.35,1-2.68,2-4.09,2.82a17.64,17.64,0,0,1-3.32,1.56c-2.43.83-4.91,1.51-7.34,2.34s-5.09,1.85-7.65,2.74-5.29,1.78-7.94,2.66l-7.16,2.42-8.38,2.83c-1.21.41-2.41.86-3.64,1.26-3,1-5.93,2-8.88,3a29.61,29.61,0,0,0-7.93,4.06,42,42,0,0,1-4,2.42c-3.77,2.21-7.58,4.38-11.33,6.64-4.72,2.85-9.3,6-14.12,8.62-5.22,2.89-10.62,5.46-16,8-9.72,4.67-19.54,9.14-29.21,13.91-5,2.44-9.67,5.35-14.48,8.07a1.3,1.3,0,0,0-.62.87c-.2,2.67-.33,5.34-.49,8,0,.93.38,1,1.17.78,4.76-1.33,9.52-2.65,14.29-3.92,4.31-1.15,8.66-2.18,13-3.35s8.77-2.49,13.16-3.71,9-2.35,13.49-3.62c2.83-.8,5.6-1.81,8.41-2.66,2.63-.8,5.29-1.49,7.93-2.26s5.17-1.59,7.76-2.35c3.64-1.08,7.3-2.09,10.93-3.19,2.78-.83,5.52-1.79,8.29-2.63s5.29-1.5,7.93-2.27,5.28-1.58,7.92-2.37l10.48-3.15c2.73-.81,5.46-1.62,8.18-2.45s5.35-1.64,8-2.44,5.46-1.63,8.21-2.37c5.5-1.49,11-2.93,16.52-4.37,1.06-.28,2.13-.52,3.2-.75a1.38,1.38,0,0,1,1.82.89c.41,1,.92,2,1.43,3a1.13,1.13,0,0,1-.59,1.75c-2.33,1.21-4.66,2.41-6.95,3.7-2,1.14-4,2.44-6,3.56-1,.53-2.15.74-3.19,1.19-2,.9-4,2-6,2.8-3.51,1.47-7.07,2.82-10.61,4.25-1,.41-1.89.93-2.85,1.36-4.11,1.81-8.22,3.63-12.34,5.42-2.88,1.25-5.79,2.47-8.69,3.7-2.72,1.15-5.39,2.43-8.18,3.43-3.57,1.27-6.55,3.53-9.74,5.44-2.58,1.55-5.21,3-7.78,4.56s-4.8,3.06-7.22,4.58c-1.17.73-2.36,1.43-3.55,2.12-3.68,2.17-7.4,4.28-11,6.49-3.41,2.07-6.74,4.29-10.15,6.36-2.72,1.65-5.53,3.17-8.28,4.78-3.32,2-6.62,3.95-10,5.91q-2.32,1.37-4.71,2.66c-2.16,1.2-4.37,2.32-6.52,3.55-3.43,2-6.71,4.21-10.26,5.92s-5.29,4.85-7.73,7.46c-1.53,1.64-3,3.38-4.47,5a2.33,2.33,0,0,0-.39,2.88c1,2.16,2.07,4.32,3.08,6.5.4.85.82,1.08,1.79.67,3.86-1.63,7.75-3.18,11.65-4.73,3.18-1.27,6.39-2.49,9.58-3.73l9.57-3.72c3.28-1.28,6.54-2.64,9.85-3.82,3.79-1.36,7.66-2.53,11.46-3.85,2.65-.91,5.25-2,7.9-2.89s5.32-1.76,8-2.65c1.36-.45,2.7-.95,4-1.42,4.22-1.46,8.46-2.9,12.67-4.38,3.73-1.31,7.42-2.7,11.15-4s7.57-2.53,11.34-3.83c2.7-.94,5.37-2,8-2.93a29,29,0,0,0,3.2-1.16q12.46-6,24.89-12.16c7.35-3.61,14.74-7.12,22-10.92,2.23-1.18,3.79-.16,5.54.64.23.1.38,1,.2,1.26a12.58,12.58,0,0,1-4.5,4.28c-3.37,1.75-6.57,3.84-9.85,5.76-1.52.9-3.06,1.75-4.6,2.62-1.83,1-3.68,2-5.5,3.05-3.54,2-7.06,4.13-10.6,6.18-1.86,1.07-3.76,2.06-5.62,3.14-3.54,2.05-7,4.13-10.58,6.19-1.52.89-3.09,1.69-4.58,2.62-3,1.9-6,3.86-9,5.77-2,1.25-3.94,2.47-5.89,3.73-2.16,1.38-4.29,2.8-6.44,4.19-1.83,1.18-3.69,2.32-5.53,3.52-4,2.6-8,5.16-11.9,7.84-3.07,2.1-6,4.35-9,6.53-3.82,2.75-7.62,5.5-11.44,8.24s-7.76,5.81-11.86,8.39-7,6-9.78,9.7c-5.7,7.45-11.45,14.85-17.18,22.27-.23.31-.42.64-.86,1.31,1.81-.1,3.34-.16,4.86-.28,3.29-.28,6.59-.48,9.85-.94a16.28,16.28,0,0,0,3.84-1.48l9.74-4.18,8.68-3.71,9.09-3.88,8.69-3.71c3.12-1.33,6.22-2.69,9.35-4a50.54,50.54,0,0,0,4.74-1.93c3.24-1.8,6.39-3.77,9.57-5.67,1.27-.75,2.53-1.51,3.82-2.23,1.69-1,3.43-1.85,5.11-2.84,3-1.77,5.93-3.59,8.89-5.39q2-1.18,3.94-2.32c3-1.71,6.06-3.38,9.06-5.11q5.42-3.15,10.79-6.36c3.72-2.21,7.36-4.57,11.15-6.65a52.54,52.54,0,0,1,6.36-2.51c.18-.07.37-.11.55-.18,3.07-1.32,6.13-2.67,9.21-4q6.21-2.58,12.45-5.08c3.36-1.36,6.75-2.63,10.1-4,4.33-1.74,8.64-3.55,13-5.29,3.39-1.38,6.82-2.66,10.22-4.05,4.72-1.92,9.42-3.9,14.13-5.87,2.77-1.16,5.53-2.35,8.29-3.53,3.33-1.43,6.65-2.91,10-4.3,1.78-.74,3.61-1.33,5.82-2.14-1.52,2.65-3,4.92-4.2,7.32-5.08,9.91-12,18.53-18.87,27.19-3.86,4.88-7.54,9.91-11.39,14.79q-7.12,9-14.39,17.87t-14.69,17.81c-3,3.56-6.19,6.93-9,10.64-1.36,1.81-2.06,4.17-2.86,6.35-1.06,2.92-1.94,5.9-2.87,8.87-.52,1.64-1,3.28-1.48,4.93a1.31,1.31,0,0,0,0,.83c1.76,3.77,3.56,7.53,5.45,11.52,2-1.13,3.95-2,5.67-3.26,3.53-2.48,7-5.1,10.38-7.73a270.52,270.52,0,0,0,23.31-20.81c4.65-4.54,9.3-9.08,14.14-13.43s9.76-8.25,14.61-12.42c5.76-4.94,11.45-10,17.2-14.92,3.32-2.87,6.62-5.77,10-8.5a32.51,32.51,0,0,1,4.8-2.79c2.39-1.29,4.82-2.52,7.21-3.82,3.17-1.74,6.34-3.5,9.47-5.31,1.85-1.06,3.55-2.4,5.46-3.3a40.3,40.3,0,0,1,5.42-1.75c2.22-.68,4.45-1.34,6.68-2,2-.64,4-1.33,6.09-2,3-.95,6.08-1.87,9.12-2.79s5.91-1.76,8.86-2.67c2-.64,4.05-1.35,6.09-2s3.91-1.19,5.86-1.8c2.27-.7,4.53-1.43,6.8-2.13,3.12-1,6.26-1.89,9.38-2.88,3-.93,5.87-1.92,8.81-2.89.13-.05.27-.19.39-.16,2.14.39,2.1-1.31,2.65-2.59a78.2,78.2,0,0,1,3.87-8.17,9.88,9.88,0,0,0,1.1-6.42q-1.29-11.34-2.46-22.68c-1.07-10.21-2.08-20.44-3.22-30.65a34.6,34.6,0,0,0-1.46-5.5q-1.82-6.31-3.67-12.6c-1-3.34-2-6.65-3-10s-1.88-6.76-2.86-10.14c-.74-2.56-1.56-5.1-2.31-7.66-1-3.38-1.94-6.76-2.94-10.14s-2.05-6.73-3.05-10.1c-.89-3-1.83-6-2.56-9.07-.24-1-.82-1-1.41-1-2.47-.28-5-.49-7.43-.72q-7.58-.69-15.14-1.36c-4.62-.42-9.24-.81-13.86-1.23-3.81-.35-7.61-.89-11.43-1-3.19-.11-6.4.22-9.59.41-5,.3-10.1.64-15.16,1q-10.95.71-21.89,1.39c-7.82.49-15.66.83-23.47,1.49-5.08.43-10.12,1.29-15.16,2-4.2.63-8.38,1.38-12.57,2.09L1699,22c-5.5.93-11,1.84-16.52,2.78q-9.93,1.71-19.88,3.46c-3.61.63-7.24,1.17-10.81,2-4.63,1.06-9.2,2.37-13.8,3.53s-9.33,2.28-14,3.46-9.29,2.43-13.93,3.62c-5.16,1.33-10.29,2.74-15.49,3.9A52.09,52.09,0,0,0,1579,51c-3.31,2-7,3.39-10.46,5.1-4.84,2.4-9.64,4.87-14.49,7.24Q1537.94,71.2,1521.8,79c-1.73.84-1.78,1.1-1.1,2.86s1.27,3.79,1.93,5.68a12,12,0,0,0,.76,1.47"/><path class="cls-1" d="M1528.61,1103.62a11.11,11.11,0,0,0-.85,1.42c-.77,1.84-1.43,3.74-2.28,5.55s-.75,2,.92,2.92q15.61,8.84,31.25,17.67c4.69,2.67,9.33,5.44,14,8.12,3.37,1.93,6.94,3.55,10.12,5.75a51.92,51.92,0,0,0,15.16,7.16c5.11,1.49,10.15,3.21,15.21,4.85,4.57,1.48,9.11,3,13.69,4.48s9.16,2.86,13.73,4.32,9,3,13.55,4.38c3.52,1,7.11,1.8,10.68,2.66q9.81,2.36,19.63,4.67c5.43,1.29,10.87,2.53,16.31,3.8l18,4.2c4.13,1,8.25,2,12.4,2.86,5,1.06,10,2.23,15,3,7.76,1.14,15.56,2,23.33,2.93l21.77,2.75c5,.63,10,1.28,15.07,1.89,3.18.39,6.36.91,9.54,1,3.83.1,7.65-.21,11.48-.32,4.63-.13,9.27-.23,13.91-.36l15.2-.43c2.48-.07,5-.13,7.45-.25.59,0,1.18,0,1.47-1,.92-3,2.05-5.94,3.13-8.9,1.2-3.3,2.46-6.58,3.66-9.88s2.36-6.64,3.56-9.95c.91-2.5,1.88-5,2.78-7.5,1.19-3.31,2.3-6.63,3.48-9.94s2.41-6.51,3.6-9.78q2.24-6.17,4.44-12.35a34.28,34.28,0,0,0,1.79-5.41c1.78-10.12,3.41-20.26,5.11-30.39,1.27-7.5,2.54-15,3.87-22.48a10,10,0,0,0-.71-6.48,77.18,77.18,0,0,1-3.35-8.39c-.48-1.31-.33-3-2.49-2.75-.12,0-.25-.13-.38-.18-2.87-1.15-5.73-2.32-8.61-3.43-3-1.18-6.13-2.3-9.19-3.46-2.22-.83-4.43-1.7-6.65-2.54-1.91-.73-3.83-1.43-5.74-2.17s-4-1.6-6-2.36c-2.89-1.1-5.79-2.14-8.68-3.22l-8.92-3.34c-2-.76-4-1.57-6-2.34-2.18-.83-4.37-1.62-6.55-2.44a40.35,40.35,0,0,1-5.29-2.08c-1.85-1-3.47-2.46-5.25-3.63-3-2-6.07-4-9.13-5.89-2.3-1.45-4.65-2.82-7-4.26a31.85,31.85,0,0,1-4.61-3.07c-3.26-2.94-6.37-6-9.51-9.12-5.42-5.3-10.8-10.66-16.24-15.95-4.59-4.46-9.33-8.74-13.81-13.3s-8.92-9.46-13.29-14.28a270.84,270.84,0,0,0-22-22.21c-3.25-2.84-6.52-5.66-9.89-8.36-1.64-1.32-3.53-2.34-5.46-3.6-2.13,3.87-4.16,7.51-6.15,11.16a1.37,1.37,0,0,0,0,.83c.38,1.67.76,3.35,1.17,5,.75,3,1.44,6,2.32,9a24.68,24.68,0,0,0,2.46,6.52c2.53,3.87,5.54,7.44,8.28,11.17q6.83,9.31,13.56,18.68c4.46,6.22,8.9,12.44,13.26,18.73,3.55,5.11,6.9,10.36,10.46,15.46,6.32,9.08,12.69,18.1,17.15,28.31,1.07,2.47,2.38,4.83,3.74,7.56-2.15-.93-3.95-1.64-5.68-2.48-3.26-1.6-6.48-3.28-9.71-4.92-2.68-1.35-5.37-2.71-8.06-4-4.57-2.25-9.15-4.52-13.74-6.73-3.3-1.59-6.65-3.09-10-4.67-4.21-2-8.4-4.08-12.61-6.09-3.27-1.56-6.57-3-9.84-4.6q-6.08-2.88-12.11-5.85c-3-1.47-6-3-9-4.51-.17-.09-.36-.14-.54-.22a51.41,51.41,0,0,1-6.19-2.9c-3.66-2.3-7.14-4.89-10.71-7.32s-6.9-4.7-10.38-7c-2.89-1.91-5.82-3.76-8.73-5.66-1.27-.83-2.53-1.69-3.79-2.56-2.84-2-5.68-4-8.54-5.93-1.61-1.09-3.29-2.08-4.92-3.14-1.24-.8-2.46-1.64-3.68-2.47-3.06-2.09-6.07-4.25-9.2-6.24a49,49,0,0,0-4.61-2.23c-3-1.5-6.06-3.05-9.09-4.57l-8.44-4.24c-3-1.47-5.88-3-8.83-4.44s-5.63-2.81-8.44-4.23c-3.15-1.59-6.3-3.2-9.46-4.78a16.52,16.52,0,0,0-3.74-1.71c-3.22-.66-6.51-1.07-9.77-1.55-1.51-.22-3-.37-4.84-.58.4.7.57,1,.78,1.36,5.26,7.76,10.54,15.5,15.77,23.29,2.59,3.85,5.31,7.5,9.17,10.28s7.55,6.05,11.31,9.11l10.9,8.94c2.87,2.36,5.68,4.79,8.61,7.07,3.74,2.92,7.59,5.72,11.39,8.57,1.76,1.3,3.55,2.55,5.31,3.84,2,1.53,4.09,3.08,6.16,4.59,1.87,1.37,3.77,2.71,5.65,4.08,2.88,2.1,5.73,4.24,8.63,6.32,1.43,1,3,1.92,4.42,2.9,3.39,2.27,6.77,4.57,10.17,6.83,1.79,1.19,3.63,2.3,5.42,3.49,3.4,2.26,6.79,4.56,10.2,6.82,1.74,1.15,3.53,2.25,5.29,3.38,1.48,1,3,1.91,4.44,2.9,3.15,2.12,6.21,4.4,9.47,6.35a12.72,12.72,0,0,1,4.23,4.56,1.36,1.36,0,0,1-.28,1.24c-1.8.7-3.41,1.61-5.58.3-7-4.24-14.15-8.2-21.26-12.26q-12-6.86-24.09-13.68a32.48,32.48,0,0,0-3.13-1.36c-2.61-1.14-5.21-2.31-7.85-3.41-3.68-1.54-7.39-3-11.08-4.53s-7.24-3.14-10.88-4.68c-4.12-1.74-8.25-3.44-12.37-5.16-1.32-.55-2.63-1.13-3.95-1.66-2.59-1.06-5.21-2.05-7.79-3.14s-5.12-2.3-7.71-3.38c-3.71-1.55-7.49-3-11.2-4.54-3.23-1.39-6.4-2.95-9.6-4.43l-9.31-4.31c-3.12-1.43-6.24-2.84-9.34-4.31-3.79-1.79-7.58-3.57-11.33-5.44-.94-.47-1.38-.26-1.83.56-1.14,2.11-2.31,4.2-3.48,6.3a2.35,2.35,0,0,0,.21,2.9c1.42,1.74,2.73,3.57,4.15,5.29,2.28,2.76,3.89,6,7.26,7.93s6.58,4.37,9.87,6.54c2.07,1.36,4.21,2.62,6.3,3.95,1.52,1,3,1.94,4.53,2.95,3.2,2.16,6.37,4.35,9.57,6.5,2.64,1.78,5.35,3.47,8,5.29,3.27,2.28,6.45,4.7,9.73,7,3.51,2.44,7.09,4.78,10.63,7.16,1.15.77,2.29,1.54,3.41,2.34,2.32,1.67,4.59,3.39,6.93,5s5,3.33,7.47,5c3.07,2.11,5.9,4.55,9.39,6,2.72,1.16,5.31,2.6,8,3.93,2.81,1.4,5.64,2.79,8.44,4.22q6,3.06,12,6.18c.93.49,1.82,1.07,2.76,1.53,3.44,1.64,6.91,3.22,10.33,4.9,2,1,3.86,2.14,5.81,3.16,1,.52,2.16.8,3.11,1.39,2,1.24,3.83,2.66,5.78,3.93,2.21,1.42,4.46,2.77,6.71,4.12a1.12,1.12,0,0,1,.47,1.78c-.56,1-1.13,1.89-1.61,2.89a1.37,1.37,0,0,1-1.87.77c-1-.3-2.1-.6-3.14-.94-5.41-1.79-10.82-3.56-16.22-5.39-2.7-.9-5.37-1.89-8-2.87s-5.25-2-7.88-2.94l-8-2.95-10.27-3.79c-2.59-.95-5.16-1.92-7.76-2.86s-5.2-1.79-7.77-2.75c-2.72-1-5.39-2.13-8.12-3.14-3.55-1.32-7.14-2.55-10.7-3.85-2.54-.92-5.06-1.91-7.61-2.83s-5.2-1.79-7.77-2.75c-2.76-1-5.46-2.2-8.23-3.17-4.4-1.54-8.84-3-13.24-4.45s-8.59-3.06-12.91-4.52-8.5-2.73-12.73-4.14c-4.69-1.56-9.36-3.18-14-4.8-.78-.27-1.22-.23-1.22.71,0,2.67,0,5.35,0,8a1.3,1.3,0,0,0,.56.91c4.63,3,9.17,6.2,14,9,9.35,5.36,18.88,10.43,28.29,15.69,5.21,2.92,10.45,5.82,15.48,9,4.65,2.95,9,6.33,13.55,9.47,3.61,2.49,7.28,4.89,10.91,7.33a43.83,43.83,0,0,1,3.89,2.67,29.69,29.69,0,0,0,7.66,4.54c2.89,1.2,5.79,2.35,8.68,3.54,1.2.48,2.37,1,3.56,1.48l8.18,3.35c2.33,1,4.66,1.91,7,2.85,2.59,1,5.18,2.07,7.76,3.15s5,2.18,7.47,3.21,4.81,1.8,7.18,2.79a17.27,17.27,0,0,1,3.21,1.76c1.36.94,2.63,2,3.91,3.07,1.53,1.25,3,2.53,4.8,4a33.77,33.77,0,0,1-3.55.7c-1.87.16-3.7,1.17-5.62.27-.73-.34-1.49-.62-2.25-.9-2.81-1-5.62-2-8.43-3.11s-5.38-2.12-8.09-3.14c-2.89-1.08-5.8-2.09-8.68-3.18-2.67-1-5.28-2.19-8-3.07-6.47-2.11-13-4.09-19.47-6.11-5.67-1.76-11.36-3.48-17-5.27-8.06-2.57-16.12-5.19-24.17-7.8-5.64-1.84-11.27-3.71-16.91-5.54-6.29-2-12.58-4-19-6.11"/><path class="cls-1" d="M429.93,327.31c-4.09-5.36-8.11-10.61-12.11-15.87-3.58-4.73-7.13-9.49-10.71-14.21q-7.67-10.12-15.38-20.21c-3.62-4.71-7.31-9.37-11-14.06-4.18-5.37-8.38-10.71-12.49-16.13-1.72-2.28-3.18-4.74-4.8-7.09-1.75-2.54-3.56-5-5.31-7.57-1.64-2.38-3.21-4.81-4.85-7.2s-3.43-4.91-5.13-7.37c-.47-.66-.93-1.32-1.34-2-1.06-1.84-3.14-2.05-4.76-3a35,35,0,0,0-3.32-1.46c.61,2.22,1.12,4.13,1.66,6,.45,1.59.87,3.2,1.45,4.75a17.29,17.29,0,0,0,1.63,3.28c1.38,2.17,2.91,4.24,4.3,6.4s2.84,4.61,4.3,6.9,3,4.67,4.56,7l4.12,6.35,4.8,7.42c.7,1.08,1.37,2.17,2.07,3.25,1.69,2.62,3.42,5.23,5.1,7.87a29.44,29.44,0,0,1,3.7,8.1,42.77,42.77,0,0,0,1.66,4.41c1.59,4.08,3.23,8.14,4.76,12.25,1.93,5.16,3.59,10.43,5.71,15.51,2.31,5.51,4.94,10.89,7.56,16.26,4.71,9.7,9.63,19.3,14.25,29,2.36,5,4.26,10.2,6.34,15.32a1.32,1.32,0,0,1-.06,1.07c-1.5,2.21-3.05,4.39-4.59,6.58-.53.77-.92.55-1.4-.11q-4.35-6-8.76-11.95c-2.67-3.58-5.43-7.09-8.09-10.68s-5.32-7.4-8-11.08-5.6-7.44-8.32-11.22c-1.72-2.38-3.27-4.89-4.95-7.31-1.56-2.25-3.22-4.45-4.81-6.69s-3.06-4.46-4.62-6.67c-2.18-3.1-4.43-6.17-6.58-9.28-1.66-2.38-3.21-4.83-4.87-7.21s-3.21-4.46-4.81-6.7-3.15-4.52-4.73-6.78l-6.26-9c-1.63-2.33-3.27-4.66-4.89-7s-3.17-4.62-4.78-6.91-3.26-4.67-5-7c-3.39-4.58-6.82-9.13-10.24-13.69-.66-.87-1.35-1.72-2-2.57a1.38,1.38,0,0,0-2-.43c-1,.55-2,1-3,1.45a1.13,1.13,0,0,0-.63,1.74c1.07,2.39,2.15,4.78,3.15,7.21.88,2.15,1.59,4.38,2.5,6.52.44,1,1.23,1.92,1.76,2.92,1,2,1.9,4,3,5.92,1.83,3.33,3.79,6.61,5.66,9.92.52.92.91,1.9,1.41,2.84q3.12,6,6.29,11.91c1.48,2.77,3,5.53,4.52,8.29,1.41,2.6,2.72,5.26,4.28,7.77,2,3.22,2.94,6.84,4.25,10.32,1.06,2.81,2.22,5.58,3.27,8.4s1.86,5.38,2.81,8.07c.47,1.3,1,2.59,1.47,3.87,1.54,4,3.14,7.95,4.63,11.95,1.39,3.74,2.62,7.54,4,11.29,1.1,3,2.36,5.92,3.51,8.89,1.4,3.6,2.75,7.21,4.14,10.81.64,1.68,1.33,3.35,2,5,1,2.28,2,4.54,2.91,6.83,1.47,3.67,2.64,7.47,4.37,11s1.13,7.08,1.42,10.65c.19,2.24.21,4.48.38,6.72a2.34,2.34,0,0,1-1.48,2.5c-2.16,1.05-4.31,2.1-6.45,3.18-.84.42-1.32.34-1.82-.58-2-3.68-4.1-7.31-6.19-10.94-1.71-3-3.47-5.92-5.2-8.88s-3.46-5.9-5.18-8.86-3.5-6.13-5.35-9.11c-2.13-3.43-4.44-6.74-6.6-10.13-1.51-2.37-2.89-4.81-4.39-7.18s-3.08-4.68-4.61-7c-.78-1.19-1.52-2.41-2.29-3.62-2.39-3.76-4.82-7.52-7.2-11.3-2.1-3.34-4.14-6.72-6.26-10.06s-4.36-6.68-6.5-10c-1.54-2.41-3-4.86-4.49-7.29a31.46,31.46,0,0,1-1.79-2.9q-6-12.5-12-25c-3.51-7.38-7.13-14.73-10.45-22.2-1-2.32-2.87-2.49-4.74-2.94-.24-.07-.92.53-.94.86a12.6,12.6,0,0,0,.87,6.15c1.56,3.46,2.76,7.08,4.14,10.63.63,1.64,1.32,3.27,2,4.91.79,1.93,1.63,3.86,2.41,5.8,1.51,3.8,3,7.62,4.47,11.43.79,2,1.67,3.95,2.45,5.95,1.5,3.8,3,7.62,4.45,11.43.64,1.63,1.37,3.24,2,4.9,1.18,3.36,2.3,6.74,3.47,10.11.76,2.2,1.55,4.38,2.3,6.58.84,2.42,1.62,4.86,2.44,7.28.71,2.07,1.46,4.12,2.15,6.19,1.51,4.51,3.06,9,4.46,13.55,1.1,3.54,2,7.14,3,10.71q1.92,6.8,3.85,13.57c1.33,4.65,2.47,9.38,4.08,13.94s1.72,9,1.64,13.67c-.15,9.38-.24,18.76-.37,28.13,0,.38-.06.76-.13,1.56-1.36-1.21-2.52-2.2-3.64-3.24-2.4-2.26-4.87-4.47-7.13-6.85a16.06,16.06,0,0,1-2.1-3.55c-1.68-3.1-3.35-6.22-5-9.32q-2.24-4.16-4.51-8.3l-4.7-8.69-4.51-8.3c-1.62-3-3.21-6-4.84-8.94a48.14,48.14,0,0,1-2.52-4.47c-1.43-3.42-2.67-6.91-4-10.38-.52-1.38-1-2.76-1.6-4.12-.73-1.81-1.54-3.58-2.24-5.4-1.24-3.24-2.42-6.5-3.63-9.74-.53-1.43-1.08-2.86-1.64-4.27-1.3-3.22-2.65-6.41-3.93-9.63q-2.3-5.83-4.51-11.69c-1.54-4-2.92-8.15-4.6-12.13a54.09,54.09,0,0,0-3.43-5.92c-.1-.17-.23-.31-.32-.48-1.59-2.94-3.14-5.9-4.76-8.82q-3.25-5.88-6.6-11.72c-1.79-3.15-3.66-6.25-5.45-9.4-2.3-4.05-4.56-8.15-6.87-12.2-1.81-3.19-3.7-6.33-5.49-9.52-2.51-4.44-5-8.91-7.44-13.38q-2.16-3.94-4.3-7.92c-1.72-3.19-3.4-6.4-5.16-9.58-.94-1.68-2-3.28-3.25-5.29-.44,3-.71,5.71-1.24,8.35-2.18,10.92-2.1,22-2.1,33,0,6.22-.25,12.45-.26,18.67,0,7.65.07,15.29.18,22.94s.27,15.39.46,23.08c.12,4.64.55,9.28.41,13.9-.06,2.27-1,4.55-1.71,6.76-1,2.94-2.14,5.83-3.25,8.73-.61,1.6-1.26,3.19-1.91,4.78a1.24,1.24,0,0,1-.51.65c-3.72,1.86-7.46,3.7-11.43,5.65-.86-2.13-1.83-4.05-2.42-6.07-1.22-4.14-2.29-8.33-3.33-12.51a270,270,0,0,1-5.34-30.79c-.84-6.44-1.66-12.9-2.75-19.31s-2.52-12.53-3.74-18.81c-1.44-7.44-2.79-14.91-4.21-22.37-.83-4.31-1.6-8.63-2.59-12.91a32.69,32.69,0,0,0-2-5.16c-1.08-2.5-2.22-5-3.28-7.47-1.41-3.34-2.8-6.68-4.13-10-.79-2-1.3-4.09-2.23-6a38.56,38.56,0,0,0-3.16-4.73c-1.32-1.92-2.66-3.82-4-5.74-1.2-1.77-2.36-3.56-3.56-5.32q-2.7-3.94-5.42-7.85c-1.75-2.53-3.53-5.05-5.28-7.6-1.2-1.76-2.35-3.57-3.54-5.34s-2.32-3.37-3.47-5.06c-1.34-2-2.66-3.93-4-5.89-1.86-2.7-3.74-5.37-5.57-8.08-1.73-2.56-3.41-5.16-5.11-7.74-.07-.12-.09-.31-.21-.37-1.91-1-.83-2.33-.47-3.67a79,79,0,0,0,2-8.8,9.9,9.9,0,0,1,3.12-5.73q8.05-8.07,16-16.24c7.19-7.34,14.33-14.73,21.57-22a34.16,34.16,0,0,1,4.55-3.41q5.35-3.83,10.71-7.6c2.84-2,5.71-4,8.53-6s5.68-4.13,8.54-6.17c2.17-1.55,4.39-3,6.57-4.57,2.88-2,5.72-4.1,8.6-6.13s5.79-4,8.66-6c2.58-1.81,5.18-3.57,7.65-5.51.78-.61,1.25-.27,1.76,0,2.11,1.32,4.19,2.7,6.26,4.06l12.72,8.33c3.88,2.54,7.74,5.11,11.62,7.65,3.21,2.1,6.52,4,9.6,6.29,2.57,1.9,4.88,4.14,7.26,6.27,3.78,3.38,7.52,6.78,11.28,10.17q8.14,7.35,16.3,14.69c5.83,5.24,11.76,10.37,17.47,15.74,3.71,3.5,7.13,7.3,10.62,11,2.9,3.1,5.71,6.28,8.55,9.44l12.34,13.71c3.74,4.15,7.49,8.28,11.22,12.44q6.74,7.5,13.44,15c2.44,2.74,4.94,5.42,7.24,8.28,3,3.71,5.74,7.57,8.62,11.34s5.89,7.58,8.8,11.39,5.77,7.67,8.68,11.5c3.21,4.23,6.36,8.53,9.71,12.67A52.09,52.09,0,0,1,410,262.92c1.35,3.62,3.36,7,5,10.5,2.31,4.88,4.54,9.8,6.87,14.67q7.74,16.2,15.54,32.37c.84,1.72.71,2-.91,2.91s-3.36,2.19-5,3.25a12.64,12.64,0,0,1-1.51.69"/><path class="cls-1" d="M559.87,302l-25.37,1.34-11.16-17.51c-5.26-26.73,51.24-248.4,51.24-248.4L613,44.86Z"/><path class="cls-1" d="M1706.79,512.52l15.8,11.48,14.72-6.88c14.88-15.43,73.62-185.25,73.62-185.25L1783,320.71Z"/><path class="cls-1" d="M1207.93,944.19l15.8-11.48,14.72,6.88c14.87,15.44,73.62,185.25,73.62,185.25L1284.13,1136Z"/><path class="cls-1" d="M1943.41,691.81c-30.61,4.38-107.41,37.86-138.69,39.91-37.67,2.48-74.08,12.13-114.36,14.53-33.54,2-24.73,2.73-58.41,2.93-36.23.22-72-5.67-108.29-4.27-5.33.21-32.62-.13-48.1,2-6.71.9-5.19,13.91,10.39,19.2-9.22,2.29-26.06-5.16-32.47,5.57-9.07,15.18,8,24.13,20.78,25.38-3.33,7.76-12.56,24.67,7.37,26.38,21.88,1.89,37.23-5.25,59.07-6.37,34.7-1.78,85.11,2.05,119.68-1.33,34.36-3.35,64.64.08,98.92-3.74,41.18-4.6,131.77-10.38,171.1-11.13Z"/><path class="cls-1" d="M910.93,197.41s51.49-.83,79.33-11.52,155-75.91,156.93-228.43C982-50.06,915.43,35,910.93,197.41"/><path class="cls-1" d="M109.93,952.89s23.84,45.37,45.58,65.42,135.21,104.48,267.88,39.56c-67.7-150-171.07-172-313.46-105"/><path class="cls-1" d="M.07,403.5c19.45-25.6,37.47-52.39,55.86-78.9L24,308c-26.36,41-53.1,81.53-80,122.22,31.67,25.91,35.41.42,56-26.72"/><path class="cls-1" d="M9.07,1231.5c19.45-25.6,37.47-52.39,55.86-78.9L33,1136c-26.36,41-53.1,81.53-80,122.22,31.67,25.91,35.41.42,56-26.72"/><path class="cls-1" d="M548.41,960.38c21.39-28.15,41.21-57.61,61.43-86.77l-35.07-18.25c-29,45.06-58.4,89.66-88,134.41,34.83,28.5,38.94.47,61.62-29.39"/><path class="cls-1" d="M1326.72,199.36c-6.89,4.86-13.66,10.06-20.44,15.12l2.29,9c21.8,21.69,44.74,43.33,67.77,63.49,17.47,15.29,36.85,36.37,56.14,48.05,6-12.32,8.35-30.47,9.45-44-8.24-.63-17.77-5.41-26.22-8.53-37.12-13.69-66.72-59.07-89-83.14"/><path class="cls-1" d="M1037.14,723.67C944.72,636.5,852.06,615.46,843.89,614c0,0-20.34,96.28-30.37,131.28-15.4,53.84-125.84,400.33-125.84,400.33L1153.93,873s-24.36-62.18-116.79-149.37"/><path class="cls-1" d="M-164.5,884c93-63.69,178.08-135.13,277.18-190.29,61.23-34.09,126.5-62.05,186.79-97.39,35.31-20.69,64.79-54.41,104.54-66.76l-16.5-15.8c-34.16,20.29-70.57,32.17-103.59,55.66-32.28,23-64.84,52.69-102.65,66.19-15.8,5.65-32.72,4-48.4,10.4-22.13,9.1-43.22,26-63.22,39-82.51,53.47-159.2,114-238.72,170.47Z"/><path class="cls-1" d="M1421.79,631.4c-25.46,11.72-42.51,18.82-68.26,18.82s-54-4.69-77-17.58c-40.39-22.63-66.08-70-71.57-99.53-9.09-48.88-5.94-99.31-5.94-99.31s26.84-8.35,36-10.06c23.82-4.47,48.33-6,72.5-7,32.26-1.34,64.77-1.1,96.9,2.49,24.9,2.79,49.7,7.83,72.75,17.95a166,166,0,0,1,17.31,8.49s18.16,143.9-72.66,185.72"/></svg>