<svg id="Layer_1" data-name="Layer 1" xmlns="http://www.w3.org/2000/svg" viewBox="0 0 1900 1200"><defs><style>.cls-1{fill:#a6d7d0;}</style></defs><title>collections</title><path class="cls-1" d="M612.42,530.85a44.6,44.6,0,0,1-18.09,19,78.34,78.34,0,0,1-35.77,9.28A51.77,51.77,0,0,1,547.82,585c-10.21,13.1-27,19.1-41.88,16.32-2.25,7-6.69,14.59-15,21.69-12.61,10.79-31.5,13-45,10.57a57.47,57.47,0,0,1-19.08,27.81c-12.24,9.77-26.46,14.07-41.12,12.41a59.19,59.19,0,0,1-10.6-2.22c-.2,12.25-5,22.93-13.9,30.73-17.22,15-40.91,14.29-55.64,7.28s-23-19.06-30.33-29.75l-1.69-2.44c-4.21-6,1.11-25.39,1.11-25.39s16.59,4.1,20.8,10.15l1.75,2.53c6,8.7,11.67,16.92,19.83,20.8,7.16,3.41,18.93,3.42,26.62-3.29,2.64-2.31,6-6.46,4.37-15.9a48.06,48.06,0,0,0-8.69-19.58c-4.46-5.81-.55-27.6-.55-27.6s17,5.43,21.58,11.16c5.56,7,16.32,15.65,28.34,17,7.67.87,14.69-1.34,21.47-6.75,8.23-6.57,11.48-15.43,11.19-21.85a104.72,104.72,0,0,1-9.23-14c-1.08-1.85-2.09-3.59-3.07-5.13-3.61-5.69.25-25.19.25-25.19s15.3,3.71,20.19,8.34c6.24,5.91,12.74,13.07,16.15,22.57a10.42,10.42,0,0,0,3.68,1.73c7.17,1.76,18.49.61,24.25-4.32,5.2-4.44,7.73-9.21,7.73-14.59a19.15,19.15,0,0,0-.25-3,120.18,120.18,0,0,1-8.82-13.52c-1.31-2.22-2.55-4.32-3.77-6.21-3.62-5.56-.79-27-.79-27s15.59,5.3,20.64,9.6a57.62,57.62,0,0,1,16.78,24,16.7,16.7,0,0,0,2.19,1.72c4.17,2.73,13.83,2.1,19.46-5.12,3.48-4.48,5.89-11.85,5-19.65-8.68-8.46-12.55-19.91-14.24-24.9-1.93-5.71,1.42-26.9,1.42-26.9s15.38,8.58,19.94,12.52a58.68,58.68,0,0,1,15.94,22.56l.56.09c7.15.88,18.55-1.65,26-5.76,6.85-3.8,10.1-12.27,9.69-18.33-.33-5.1-5.32-10.68-10.14-16.08l-2-2.25c-4.87-5.54-2.07-28.89-2.07-28.89s17.24,5.73,22.11,11.26c.61.7,1.23,1.4,1.87,2.1,6.72,7.53,15.92,17.84,16.86,32.08a48.22,48.22,0,0,1-5.29,24.41"/><path class="cls-1" d="M783.83,5.19A44.67,44.67,0,0,1,810,7.3a78.3,78.3,0,0,1,29.69,22,51.59,51.59,0,0,1,26.83-7.88c16.61-.29,31.81,9,39,22.32,6.83-2.63,15.56-4,26.31-2,16.3,3,29.9,16.34,36.51,28.38A57.47,57.47,0,0,1,1002,67.53c15.3,3.38,27.58,11.74,35.5,24.18a59.07,59.07,0,0,1,4.93,9.64c9.65-7.54,21-10.54,32.64-8.49,22.49,4,36.83,22.83,40.63,38.7s-.4,29.84-4.08,42.29l-.84,2.84c-2.06,7.08-20.45,15.1-20.45,15.1s-7.23-15.48-5.17-22.56c.28-1,.57-2,.87-2.95,3-10.14,5.82-19.71,3.72-28.5-1.85-7.71-9.24-16.87-19.3-18.63-3.45-.61-8.77-.59-15.1,6.59a48.05,48.05,0,0,0-9.78,19.06c-1.72,7.12-21.12,17.77-21.12,17.77s-6.47-16.65-4.88-23.8c1.94-8.72,1.91-22.53-4.59-32.73-4.14-6.51-10.27-10.58-18.74-12.45-10.28-2.28-19.21.77-24,5a104.56,104.56,0,0,1-5.06,16c-.76,2-1.48,3.88-2.06,5.61-2.15,6.38-19.75,15.63-19.75,15.63s-6.72-14.23-6.2-20.94c.67-8.56,2.16-18.12,7.41-26.74a10.73,10.73,0,0,0-1-4C942.44,77.49,934.43,69.41,927,68c-6.73-1.25-12-.22-16.21,3.16a19.24,19.24,0,0,0-2.17,2.08,118.51,118.51,0,0,1-5,15.35c-.91,2.42-1.76,4.7-2.46,6.84-2,6.31-20.53,17.6-20.53,17.6S875,97.59,875.14,91a57.51,57.51,0,0,1,8.13-28.15,17.12,17.12,0,0,0,0-2.78c-.49-5-7.05-12.08-16.21-11.92-5.67.1-12.92,2.86-18.45,8.43-1.13,12.07-7.6,22.28-10.42,26.73-3.22,5.08-21.82,15.79-21.82,15.79s-3-17.36-2.79-23.37a58.61,58.61,0,0,1,7.54-26.58c-.1-.17-.19-.34-.29-.5C817,42.5,807.85,35.22,800,32c-7.25-2.95-15.9-.15-20.35,4-3.75,3.47-5,10.86-6.13,18-.17,1-.33,2-.5,3-1.24,7.27-21.17,19.77-21.17,19.77s-6.38-17-5.13-24.28c.16-.91.31-1.84.46-2.77,1.63-10,3.86-23.6,14.35-33.28A48.28,48.28,0,0,1,783.83,5.19"/><path class="cls-1" d="M2054.4,1029.49a44.63,44.63,0,0,1-25.83,4.77,78.33,78.33,0,0,1-34.39-13.54,51.68,51.68,0,0,1-23.87,14.58c-16,4.59-33-.41-43.47-11.42-5.91,4.31-14,7.86-24.9,8.72-16.53,1.31-33.12-8-42.63-17.92a57.46,57.46,0,0,1-31.78,11.27c-15.65.71-29.68-4.18-40.56-14.13a59.35,59.35,0,0,1-7.27-8c-7.35,9.78-17.5,15.62-29.31,16.67-22.75,2-41.49-12.48-49.29-26.82s-7.36-28.92-7-41.89c0-1,0-2,.07-3,.15-7.37,15.83-19.89,15.83-19.89s11,13.07,10.85,20.44c0,1,0,2-.07,3.08-.26,10.56-.5,20.54,3.81,28.48,3.79,7,13.3,13.89,23.47,13,3.49-.31,8.62-1.72,12.88-10.29a48.17,48.17,0,0,0,4.49-21c-.19-7.32,15.78-22.64,15.78-22.64s10.58,14.4,10.89,21.71c.39,8.93,4,22.25,12.93,30.42,5.69,5.21,12.67,7.55,21.34,7.16,10.52-.48,18.35-5.73,21.9-11.09a103.41,103.41,0,0,1,.74-16.73c.21-2.12.42-4.13.53-6,.42-6.72,15-20.22,15-20.22s10.18,12,11.42,18.61c1.57,8.44,2.62,18.06-.21,27.75a10.78,10.78,0,0,0,2,3.57c4.77,5.64,14.6,11.36,22.16,10.76,6.82-.53,11.67-2.91,14.83-7.26a17.7,17.7,0,0,0,1.55-2.57,121.53,121.53,0,0,1,.82-16.12c.25-2.56.48-5,.6-7.24.34-6.62,15.25-22.32,15.25-22.32s9.5,13.45,11,19.9a57.43,57.43,0,0,1-.54,29.29,17.31,17.31,0,0,0,.76,2.68c1.77,4.67,9.95,9.83,18.75,7.3,5.45-1.57,11.73-6.12,15.63-12.93-2-12,1.56-23.49,3.12-28.52,1.8-5.74,17-20.92,17-20.92s7.39,16,8.77,21.85a58.68,58.68,0,0,1-.38,27.62,5.29,5.29,0,0,0,.41.41c5.26,4.92,16,9.57,24.39,10.61,7.77,1,15.39-4,18.61-9.13,2.73-4.32,2-11.77,1.25-19-.1-1-.2-2-.29-3-.68-7.34,15.31-24.58,15.31-24.58s10.58,14.77,11.26,22.11c.09.92.18,1.85.28,2.8,1,10,2.39,23.78-5.22,35.86a48.12,48.12,0,0,1-18.63,16.63"/><path class="cls-1" d="M-23.82,1235.11a7.32,7.32,0,0,1-1.06.17c-1.29,0-2.6,0-3.89,0s-1.38,0-1.54-1.25q-1.59-11.55-3.18-23.09c-.49-3.48-1-6.94-1.55-10.41-.35-2.49-.48-5-1-7.48a34,34,0,0,1-.69-10.87c.33-3.43.5-6.89.72-10.34.2-3.1.37-6.21.58-9.32s.47-6.22.68-9.33.32-6.15.6-9.22c.22-2.37.62-4.72,1-7.08.61-4.32,1.24-8.65,1.88-13,.53-3.59,1.08-7.17,1.61-10.76.6-4,1.18-7.9,1.77-11.84.41-2.73.79-5.46,1.25-8.18.55-3.26,1-6.54,1.8-9.76,1.17-5,2.54-9.86,3.82-14.78q1.79-6.9,3.56-13.8c.82-3.18,1.62-6.37,2.46-9.55.53-2,1-4,1.68-6,.86-2.33,2-4.57,2.94-6.85,1.19-2.76,2.37-5.54,3.56-8.3Q-5,1019.63-3,1015.1c.64-1.48,1.27-3,1.94-4.44.17-.35.3-.71.94-.66,2,.17,4.07.19,6.11.25,2.29.06,4.57.09,6.85.16s4.57.16,6.85.23c1.73.05,3.46.06,5.19.12,2.29.08,4.56.2,6.84.28s4.5.11,6.76.18c2.84.08,5.67.17,8.52.28a21.41,21.41,0,0,1,3.68.21c6.54,1.35,13,2.79,19.57,4.19,4.83,1,9.65,2.06,14.49,3.06a6.42,6.42,0,0,1,3.74,2,49.23,49.23,0,0,0,4.26,4c.68.6,1.73.92,1.06,2.16,0,.07,0,.18,0,.27,0,2,0,4,0,6s-.08,4.25-.12,6.37c0,1.54,0,3.08-.06,4.62,0,1.33,0,2.66-.06,4s0,2.78,0,4.17c0,2-.09,4-.13,6s-.09,4.13-.12,6.19c0,1.39,0,2.77,0,4.16s-.07,3-.1,4.53a26.74,26.74,0,0,0,0,3.69c.17,1.36.65,2.68.93,4,.49,2.3.94,4.6,1.37,6.91.32,1.74.59,3.49.9,5.23a21.58,21.58,0,0,0,.75,3.52c1,2.67,2.13,5.28,3.22,7.92,1.91,4.54,3.85,9.07,5.74,13.62,1.59,3.83,3,7.72,4.72,11.52s3.57,7.65,5.43,11.43a177.19,177.19,0,0,1,8.14,18.58c.93,2.64,1.85,5.29,2.68,8,.4,1.31.56,2.69.86,4.16l-8.21,1a.93.93,0,0,1-.51-.18c-.92-.62-1.84-1.25-2.75-1.9-1.63-1.18-3.3-2.32-4.89-3.56a16.24,16.24,0,0,1-3.34-3c-1.73-2.45-3.16-5.12-4.76-7.67q-4-6.35-8-12.66t-8.12-12.48c-2.24-3.37-4.6-6.65-6.83-10-4-6-7.88-12-13-17.13-1.24-1.24-2.35-2.59-3.67-4.07,0,1.53,0,2.78.14,4,.18,2.35.43,4.69.64,7,.17,1.95.35,3.89.51,5.83.26,3.3.53,6.61.77,9.91.17,2.37.27,4.75.43,7.12.2,3,.45,6,.65,9.07.16,2.34.26,4.69.42,7,.2,2.91.4,5.81.63,8.71.17,2.17.39,4.33.58,6.49,0,.12,0,.25,0,.37a34.22,34.22,0,0,0,.27,4.43c.51,2.76,1.24,5.48,1.85,8.22s1.19,5.29,1.75,7.94c.46,2.21.87,4.42,1.32,6.63.2,1,.42,1.93.64,2.89.51,2.19,1,4.38,1.53,6.58.27,1.23.47,2.48.72,3.72.19.94.4,1.88.61,2.81.53,2.35,1.11,4.69,1.56,7a30.33,30.33,0,0,1,.24,3.32c.18,2.19.39,4.38.58,6.57l.54,6.11q.27,3.19.56,6.39c.18,2,.35,4.07.53,6.11.21,2.28.42,4.57.62,6.85a10.49,10.49,0,0,1,.14,2.67c-.37,2.1-.92,4.18-1.41,6.27-.23,1-.5,1.91-.81,3-.32-.4-.49-.59-.63-.79-3.42-5-6.83-10.08-10.28-15.1a25.12,25.12,0,0,1-4-8c-.76-3.05-1.84-6-2.78-9s-1.85-5.81-2.78-8.72c-.74-2.29-1.53-4.57-2.21-6.88-.86-3-1.63-6-2.44-8.93-.36-1.37-.69-2.75-1.05-4.12-.42-1.61-.87-3.21-1.29-4.82s-.73-2.92-1.11-4.39c-.57-2.24-1.18-4.47-1.74-6.72-.27-1.11-.45-2.24-.69-3.36-.56-2.59-1.14-5.18-1.69-7.77-.29-1.37-.52-2.74-.81-4.11-.54-2.59-1.12-5.18-1.67-7.78-.28-1.33-.51-2.68-.77-4-.22-1.12-.44-2.25-.68-3.37-.53-2.41-1.17-4.8-1.57-7.24a8.22,8.22,0,0,0-1.74-3.64c-.12-.17-.71-.25-.81-.13-.86.92-1.79,1.67-1.52,3.29.88,5.24,1.56,10.51,2.3,15.77q1.26,8.91,2.49,17.81c.1.73,0,1.47.07,2.21.06,1.86.14,3.71.18,5.56,0,2.59,0,5.18.07,7.77s.16,5.12.22,7.69c.07,2.9.1,5.8.15,8.7,0,.92.05,1.85.06,2.78,0,1.81,0,3.63,0,5.45s.17,3.64.2,5.46c0,2.61,0,5.23.06,7.85.06,2.28.24,4.56.37,6.85s.24,4.43.37,6.65.22,4.45.36,6.67c.17,2.71.34,5.43.57,8.14.06.68-.17.89-.78,1-1.54.18-3.08.39-4.63.59a1.53,1.53,0,0,1-1.7-.82c-.71-1.28-1.5-2.5-2.2-3.78-1.12-2-2.71-3.79-3-6.28s-1.06-5-1.58-7.52c-.33-1.57-.58-3.16-.88-4.74-.21-1.15-.44-2.3-.69-3.44-.54-2.45-1.1-4.89-1.64-7.33-.44-2-.81-4.06-1.28-6.08-.59-2.52-1.29-5-1.87-7.54-.63-2.7-1.18-5.42-1.78-8.13-.19-.88-.38-1.75-.59-2.62-.45-1.8-.95-3.58-1.37-5.38s-.81-3.82-1.24-5.72a35.52,35.52,0,0,1-1.4-7.11c-.05-1.92-.3-3.83-.46-5.74s-.34-4.07-.53-6.11c-.27-2.9-.57-5.8-.86-8.7-.07-.68-.21-1.36-.26-2-.17-2.46-.28-4.94-.48-7.4-.12-1.43-.37-2.84-.52-4.26-.07-.74,0-1.5-.09-2.22-.28-1.48-.69-2.94-1-4.42-.33-1.68-.61-3.36-.88-5-.1-.58-.38-.8-1-.71s-1.41.23-2.12.28a.89.89,0,0,0-.92.94c-.07.71-.14,1.42-.18,2.12-.22,3.7-.45,7.39-.64,11.08-.1,1.85-.14,3.7-.19,5.54s-.07,3.64-.12,5.46-.09,3.69-.13,5.53l-.18,7.11c0,1.79-.07,3.57-.13,5.36s-.17,3.57-.2,5.35,0,3.77,0,5.65c0,2.46-.17,4.92-.24,7.38,0,1.76-.06,3.51-.11,5.27s-.17,3.57-.21,5.35,0,3.82-.06,5.73c-.12,3-.34,6-.48,9s-.21,5.92-.37,8.87-.39,5.79-.55,8.68c-.18,3.2-.32,6.4-.46,9.61,0,.53-.16.78-.72.56-1.62-.64-3.24-1.26-4.84-1.92a.87.87,0,0,1-.42-.56c-.71-3.51-1.54-7-2-10.56-1-6.93-1.77-13.89-2.7-20.83-.5-3.85-1-7.7-1.73-11.51-.67-3.51-1.66-7-2.47-10.44-.64-2.78-1.21-5.56-1.81-8.34a29.29,29.29,0,0,0-.68-3,19.14,19.14,0,0,1-.9-5.71c0-2,0-4.06-.06-6.09,0-.84,0-1.67,0-2.5l-.06-5.74c0-1.64,0-3.27-.05-4.91,0-1.81,0-3.62,0-5.43s-.13-3.52-.15-5.28.07-3.33,0-5a11,11,0,0,0-.29-2.36c-.24-1-.59-2.07-.92-3.09-.39-1.23-.8-2.44-1.26-3.86a20.3,20.3,0,0,0-1.27,2c-.55,1.09-1.6,2-1.52,3.32,0,.52,0,1.05,0,1.58-.05,1.94-.11,3.88-.14,5.83s0,3.75-.05,5.63-.12,4-.16,6c0,1.85.06,3.71-.06,5.56-.28,4.4-.64,8.8-1,13.21-.29,3.84-.62,7.68-.89,11.53-.38,5.48-.73,11-1.09,16.45-.24,3.84-.46,7.69-.7,11.53-.28,4.28-.57,8.56-.87,12.93"/><path class="cls-1" d="M1607.68,116l12.55-3.19c3.73-1,7.46-2,11.18-2.92q8-2.05,16-4.08c3.74-.94,7.49-1.82,11.24-2.73,4.29-1.05,8.58-2.07,12.86-3.18,1.79-.46,3.53-1.13,5.3-1.67s3.84-1.13,5.75-1.71,3.57-1.16,5.37-1.71,3.72-1.12,5.58-1.68c.51-.15,1-.3,1.5-.49,1.28-.5,2.42.22,3.63.4a23.09,23.09,0,0,1,2.27.6c-1.2.88-2.23,1.65-3.27,2.4-.87.62-1.74,1.27-2.65,1.83a11.48,11.48,0,0,1-2.16,1c-1.57.54-3.18,1-4.76,1.52s-3.31,1.2-5,1.78-3.43,1.15-5.15,1.73l-4.65,1.57-5.44,1.84c-.79.26-1.57.55-2.36.82-1.92.65-3.85,1.28-5.77,1.94a19.43,19.43,0,0,0-5.15,2.63,27.58,27.58,0,0,1-2.62,1.58c-2.46,1.43-4.93,2.84-7.37,4.31-3.06,1.85-6,3.86-9.16,5.59-3.39,1.88-6.9,3.55-10.39,5.23-6.31,3-12.69,5.93-19,9-3.22,1.59-6.28,3.47-9.41,5.24a.87.87,0,0,0-.4.56c-.13,1.73-.21,3.47-.31,5.2,0,.61.24.66.75.51,3.09-.86,6.18-1.72,9.28-2.54,2.8-.75,5.62-1.42,8.42-2.18s5.69-1.62,8.54-2.4,5.85-1.54,8.76-2.36c1.84-.52,3.63-1.17,5.46-1.73s3.44-1,5.15-1.46,3.36-1,5-1.53c2.36-.7,4.74-1.35,7.09-2.07,1.8-.54,3.58-1.16,5.38-1.71s3.44-1,5.15-1.47,3.43-1,5.14-1.54l6.81-2,5.3-1.59,5.22-1.59c1.77-.53,3.55-1.06,5.33-1.54q5.35-1.44,10.73-2.83c.68-.18,1.38-.34,2.07-.49a.89.89,0,0,1,1.18.58c.27.66.6,1.29.93,1.93a.73.73,0,0,1-.38,1.14c-1.51.78-3,1.57-4.51,2.4-1.32.74-2.58,1.59-3.9,2.31-.65.35-1.4.48-2.08.78-1.3.58-2.57,1.26-3.89,1.81-2.28.95-4.59,1.83-6.89,2.76-.63.26-1.22.6-1.85.88-2.67,1.18-5.33,2.36-8,3.52-1.87.82-3.76,1.61-5.64,2.4s-3.5,1.58-5.31,2.23a35.7,35.7,0,0,0-6.33,3.54c-1.67,1-3.38,1.94-5,3s-3.12,2-4.69,3c-.76.48-1.53.93-2.3,1.38-2.4,1.41-4.81,2.78-7.18,4.22s-4.37,2.78-6.59,4.12c-1.77,1.08-3.59,2.06-5.37,3.11-2.16,1.27-4.31,2.56-6.46,3.83-1,.6-2,1.17-3.06,1.73-1.41.78-2.84,1.51-4.24,2.31-2.22,1.27-4.35,2.73-6.65,3.84s-3.44,3.14-5,4.84c-1,1.06-1.91,2.2-2.9,3.27a1.52,1.52,0,0,0-.25,1.87c.67,1.4,1.35,2.8,2,4.21.26.56.53.71,1.16.45,2.51-1.07,5-2.07,7.56-3.08,2.07-.82,4.15-1.61,6.22-2.42l6.21-2.41c2.14-.83,4.25-1.72,6.4-2.49,2.47-.88,5-1.64,7.44-2.49,1.72-.6,3.41-1.28,5.13-1.88s3.45-1.14,5.18-1.72l2.62-.92c2.74-.95,5.49-1.88,8.22-2.85,2.42-.85,4.82-1.75,7.24-2.59s4.92-1.64,7.36-2.49c1.75-.61,3.49-1.27,5.23-1.9a21.45,21.45,0,0,0,2.08-.75q8.08-3.93,16.15-7.9c4.77-2.34,9.57-4.62,14.28-7.09,1.45-.76,2.46-.1,3.6.42a.89.89,0,0,1,.13.82,8.32,8.32,0,0,1-2.93,2.78c-2.19,1.13-4.26,2.49-6.39,3.74-1,.58-2,1.13-3,1.69-1.19.67-2.39,1.31-3.57,2-2.3,1.33-4.58,2.69-6.88,4-1.21.7-2.44,1.35-3.65,2-2.29,1.33-4.57,2.69-6.86,4-1,.57-2,1.09-3,1.7-2,1.23-3.9,2.5-5.85,3.74-1.27.81-2.55,1.6-3.82,2.42s-2.79,1.82-4.18,2.72c-1.19.77-2.4,1.51-3.59,2.28-2.58,1.69-5.18,3.36-7.73,5.1-2,1.36-3.9,2.82-5.86,4.23l-7.42,5.35c-2.56,1.84-5,3.78-7.7,5.45a25,25,0,0,0-6.35,6.3q-5.55,7.24-11.15,14.46c-.15.2-.28.41-.56.85,1.18-.07,2.17-.11,3.16-.19,2.13-.18,4.27-.31,6.39-.61a10.41,10.41,0,0,0,2.49-1l6.32-2.71,5.64-2.41,5.9-2.52,5.64-2.41c2-.86,4-1.74,6.07-2.59a32,32,0,0,0,3.08-1.26c2.11-1.16,4.15-2.44,6.22-3.68.82-.48,1.64-1,2.47-1.45,1.1-.62,2.23-1.2,3.32-1.84,1.93-1.15,3.85-2.33,5.77-3.5.85-.51,1.7-1,2.56-1.5,2-1.12,3.93-2.2,5.88-3.32,2.35-1.36,4.68-2.74,7-4.13s4.77-3,7.23-4.32a36.17,36.17,0,0,1,4.13-1.63c.12,0,.25-.06.36-.11,2-.86,4-1.73,6-2.57q4-1.68,8.08-3.3c2.18-.88,4.38-1.71,6.56-2.59,2.81-1.13,5.61-2.31,8.42-3.44,2.2-.89,4.43-1.72,6.63-2.62,3.07-1.25,6.12-2.54,9.18-3.81l5.38-2.3c2.16-.93,4.31-1.89,6.49-2.79,1.16-.48,2.35-.86,3.78-1.39-1,1.72-1.93,3.2-2.73,4.75-3.3,6.44-7.79,12-12.25,17.66-2.51,3.16-4.89,6.43-7.4,9.6-3.07,3.9-6.2,7.75-9.34,11.6s-6.34,7.72-9.53,11.56c-1.93,2.31-4,4.5-5.82,6.91a16.16,16.16,0,0,0-1.85,4.12c-.69,1.89-1.26,3.83-1.87,5.76-.33,1.06-.65,2.13-1,3.2a.9.9,0,0,0,0,.54c1.15,2.44,2.31,4.89,3.54,7.48,1.3-.74,2.56-1.33,3.68-2.12,2.29-1.61,4.52-3.31,6.74-5a174.54,174.54,0,0,0,15.13-13.51c3-2.94,6-5.9,9.18-8.72s6.34-5.36,9.49-8.06c3.73-3.21,7.43-6.46,11.16-9.68,2.16-1.87,4.3-3.75,6.53-5.53a19.85,19.85,0,0,1,3.11-1.8c1.55-.84,3.13-1.64,4.68-2.49,2.06-1.13,4.12-2.27,6.15-3.44,1.2-.69,2.31-1.56,3.55-2.15a26.12,26.12,0,0,1,3.51-1.13c1.44-.45,2.9-.87,4.34-1.32s2.63-.86,4-1.27l5.91-1.81c1.92-.58,3.84-1.14,5.75-1.74,1.33-.41,2.64-.87,4-1.29l3.81-1.17,4.41-1.39c2-.62,4.07-1.22,6.09-1.87s3.81-1.24,5.72-1.87c.08,0,.17-.12.25-.11,1.39.26,1.36-.85,1.72-1.68a53.48,53.48,0,0,1,2.51-5.3,6.41,6.41,0,0,0,.72-4.17c-.56-4.9-1.08-9.81-1.6-14.72-.7-6.63-1.35-13.27-2.09-19.9a22.67,22.67,0,0,0-1-3.57c-.78-2.73-1.58-5.46-2.38-8.18-.64-2.17-1.31-4.32-1.93-6.48s-1.23-4.39-1.86-6.59c-.48-1.66-1-3.31-1.5-5-.65-2.19-1.26-4.39-1.91-6.58s-1.33-4.37-2-6.56c-.58-2-1.19-3.9-1.66-5.89-.15-.62-.53-.64-.92-.68-1.6-.18-3.21-.32-4.82-.47l-9.83-.88-9-.8c-2.47-.22-4.94-.58-7.42-.67-2.07-.07-4.15.14-6.22.27-3.28.19-6.56.42-9.84.62l-14.22.91c-5.07.31-10.16.53-15.23,1-3.3.28-6.57.84-9.85,1.33-2.72.4-5.43.89-8.15,1.35l-11.81,2L1711,74.26q-6.46,1.11-12.91,2.24c-2.35.41-4.7.76-7,1.29-3,.69-6,1.54-9,2.3s-6,1.48-9.07,2.25-6,1.57-9,2.35c-3.35.85-6.68,1.77-10,2.53a33.65,33.65,0,0,0-10.11,4c-2.15,1.29-4.53,2.2-6.79,3.32-3.14,1.55-6.26,3.15-9.41,4.7q-10.47,5.12-21,10.19c-1.12.55-1.15.72-.71,1.86s.83,2.46,1.25,3.68a6.68,6.68,0,0,0,.5,1"/><path class="cls-1" d="M1208.6,938.76a8.49,8.49,0,0,0-.56.93c-.5,1.19-.93,2.42-1.47,3.6s-.49,1.28.59,1.89q10.14,5.73,20.29,11.48c3,1.73,6.06,3.52,9.1,5.27,2.19,1.25,4.5,2.3,6.57,3.73a33.77,33.77,0,0,0,9.84,4.65c3.32,1,6.59,2.08,9.88,3.15,3,1,5.91,1.95,8.88,2.9s6,1.86,8.92,2.81,5.84,2,8.8,2.84c2.28.67,4.61,1.17,6.92,1.73l12.75,3c3.53.84,7.06,1.64,10.59,2.47,3.89.9,7.78,1.82,11.66,2.73,2.69.62,5.36,1.28,8.06,1.85,3.23.69,6.47,1.45,9.74,1.93,5,.75,10.1,1.28,15.15,1.91l14.13,1.78c3.26.41,6.52.84,9.78,1.23,2.06.25,4.13.59,6.2.65,2.48.06,5-.14,7.44-.21l9-.23,9.87-.28c1.61-.05,3.23-.08,4.84-.17.39,0,.77,0,1-.63.59-1.94,1.32-3.85,2-5.77.79-2.14,1.61-4.27,2.39-6.42s1.53-4.3,2.3-6.45c.59-1.63,1.23-3.24,1.81-4.87.77-2.15,1.49-4.31,2.26-6.46s1.56-4.23,2.33-6.35c1-2.66,1.93-5.34,2.89-8a22.42,22.42,0,0,0,1.16-3.5c1.15-6.57,2.21-13.16,3.32-19.73q1.23-7.31,2.51-14.6a6.47,6.47,0,0,0-.46-4.21,49.36,49.36,0,0,1-2.18-5.44c-.3-.85-.21-2-1.61-1.78-.08,0-.16-.09-.25-.13-1.86-.74-3.72-1.5-5.59-2.22s-4-1.49-6-2.24l-4.31-1.66c-1.24-.47-2.49-.92-3.73-1.4s-2.57-1-3.87-1.54c-1.87-.71-3.76-1.39-5.63-2.09s-3.86-1.43-5.8-2.17c-1.29-.49-2.57-1-3.86-1.51s-2.84-1-4.25-1.59a25.58,25.58,0,0,1-3.44-1.35c-1.2-.66-2.25-1.6-3.41-2.36q-2.94-1.94-5.92-3.82c-1.49-.94-3-1.83-4.52-2.76a20.6,20.6,0,0,1-3-2c-2.11-1.91-4.13-3.92-6.17-5.92-3.52-3.44-7-6.92-10.54-10.35-3-2.9-6.06-5.68-9-8.64s-5.79-6.14-8.62-9.27a176.4,176.4,0,0,0-14.27-14.41c-2.11-1.85-4.23-3.68-6.42-5.43a41,41,0,0,0-3.54-2.34c-1.39,2.51-2.7,4.88-4,7.25a.8.8,0,0,0,0,.53c.24,1.09.49,2.18.75,3.26.49,2,.94,3.93,1.51,5.86a15.94,15.94,0,0,0,1.6,4.23c1.64,2.51,3.59,4.83,5.37,7.25q4.44,6,8.81,12.13c2.89,4,5.77,8.08,8.6,12.16,2.31,3.32,4.48,6.72,6.79,10,4.1,5.89,8.24,11.75,11.13,18.38.7,1.6,1.55,3.13,2.44,4.9-1.41-.6-2.57-1.06-3.69-1.61-2.12-1-4.21-2.13-6.31-3.19-1.74-.88-3.48-1.76-5.23-2.62-3-1.47-5.94-2.94-8.92-4.37-2.14-1-4.31-2-6.46-3-2.73-1.31-5.45-2.65-8.19-4-2.12-1-4.26-2-6.38-3q-3.94-1.87-7.87-3.8c-1.94-1-3.87-1.95-5.81-2.93-.11-.06-.23-.09-.34-.14a35.23,35.23,0,0,1-4-1.88c-2.37-1.5-4.63-3.18-7-4.76s-4.48-3.05-6.74-4.55c-1.87-1.25-3.78-2.45-5.66-3.68-.83-.54-1.65-1.1-2.46-1.66-1.85-1.28-3.69-2.58-5.55-3.85-1-.71-2.13-1.35-3.19-2-.81-.52-1.6-1.06-2.39-1.6-2-1.36-3.94-2.77-6-4.06a31.81,31.81,0,0,0-3-1.44c-2-1-3.93-2-5.9-3l-5.48-2.75-5.73-2.88-5.48-2.75c-2-1-4.09-2.08-6.14-3.1a10.85,10.85,0,0,0-2.43-1.12c-2.09-.43-4.22-.69-6.34-1-1-.14-2-.24-3.14-.38.26.46.37.68.51.88,3.41,5,6.84,10.07,10.23,15.13a25.06,25.06,0,0,0,5.95,6.67c2.55,1.84,4.91,3.93,7.35,5.92l7.08,5.8c1.86,1.53,3.68,3.11,5.58,4.59,2.43,1.89,4.93,3.71,7.4,5.56,1.14.84,2.3,1.66,3.44,2.5,1.34,1,2.66,2,4,3s2.45,1.76,3.67,2.65c1.87,1.37,3.72,2.75,5.6,4.1.94.67,1.92,1.25,2.87,1.89,2.21,1.47,4.4,3,6.61,4.43,1.16.77,2.35,1.5,3.51,2.27,2.21,1.46,4.41,3,6.62,4.42,1.14.75,2.3,1.47,3.44,2.2,1,.62,1.93,1.24,2.88,1.88,2,1.38,4,2.86,6.15,4.13a8.14,8.14,0,0,1,2.74,3c.11.18,0,.75-.18.81-1.17.45-2.21,1.05-3.61.19-4.55-2.75-9.2-5.32-13.81-8q-7.82-4.46-15.64-8.88a20.44,20.44,0,0,0-2-.89c-1.7-.74-3.39-1.5-5.1-2.21-2.38-1-4.8-1.95-7.19-2.94s-4.7-2-7.06-3c-2.67-1.13-5.36-2.23-8-3.35-.86-.36-1.71-.73-2.57-1.08-1.68-.69-3.38-1.33-5.06-2s-3.32-1.49-5-2.19c-2.41-1-4.87-1.92-7.27-3-2.1-.9-4.15-1.91-6.23-2.87l-6-2.8c-2-.93-4-1.85-6.06-2.8-2.46-1.16-4.92-2.32-7.36-3.53-.61-.3-.89-.17-1.18.36-.74,1.37-1.5,2.73-2.26,4.09a1.51,1.51,0,0,0,.14,1.88c.92,1.13,1.76,2.32,2.69,3.44,1.48,1.79,2.53,3.92,4.71,5.15s4.27,2.83,6.41,4.24c1.34.88,2.73,1.7,4.09,2.56,1,.63,2,1.26,2.94,1.92,2.07,1.4,4.13,2.82,6.21,4.22,1.72,1.16,3.47,2.25,5.17,3.44,2.13,1.48,4.2,3,6.32,4.52,2.28,1.58,4.61,3.1,6.9,4.65.75.5,1.49,1,2.22,1.52,1.5,1.08,3,2.2,4.49,3.26s3.25,2.16,4.86,3.26a36.33,36.33,0,0,0,6.09,3.92c1.77.76,3.45,1.69,5.17,2.55s3.66,1.82,5.48,2.75c2.6,1.32,5.18,2.66,7.77,4,.61.31,1.19.69,1.8,1,2.23,1.07,4.49,2.09,6.7,3.18,1.29.63,2.51,1.39,3.77,2,.66.34,1.41.52,2,.9,1.28.81,2.48,1.73,3.75,2.55,1.43.93,2.89,1.8,4.35,2.68a.74.74,0,0,1,.31,1.16,21.34,21.34,0,0,0-1,1.87.88.88,0,0,1-1.21.5c-.68-.19-1.37-.39-2-.61-3.51-1.16-7-2.31-10.53-3.49-1.75-.6-3.49-1.24-5.22-1.87l-5.11-1.91-5.2-1.91-6.67-2.46c-1.68-.62-3.35-1.25-5-1.86s-3.38-1.16-5.05-1.79-3.5-1.38-5.27-2c-2.3-.85-4.63-1.65-6.95-2.5-1.65-.6-3.28-1.24-4.93-1.83s-3.38-1.17-5-1.79-3.54-1.42-5.35-2.06c-2.85-1-5.73-1.91-8.59-2.89s-5.57-2-8.38-2.93-5.52-1.77-8.27-2.69c-3-1-6.07-2.06-9.1-3.11-.5-.18-.79-.15-.78.46,0,1.73,0,3.47,0,5.21a.85.85,0,0,0,.36.59c3,1.95,6,4,9.07,5.8,6.07,3.48,12.25,6.78,18.36,10.19,3.39,1.9,6.79,3.78,10.06,5.86,3,1.92,5.85,4.11,8.79,6.15,2.34,1.62,4.73,3.17,7.08,4.76a29.69,29.69,0,0,1,2.53,1.73,19.09,19.09,0,0,0,5,2.95c1.88.78,3.76,1.53,5.64,2.3l2.31,1,5.31,2.17,4.54,1.85c1.68.69,3.37,1.35,5,2.05s3.22,1.42,4.85,2.08,3.12,1.18,4.66,1.82a10.6,10.6,0,0,1,2.09,1.14c.88.61,1.7,1.31,2.53,2,1,.81,2,1.64,3.12,2.6a21.47,21.47,0,0,1-2.31.45c-1.21.1-2.4.76-3.65.18-.47-.22-1-.41-1.46-.59-1.82-.67-3.65-1.33-5.47-2s-3.49-1.37-5.25-2-3.76-1.36-5.64-2.07-3.42-1.42-5.18-2c-4.2-1.37-8.43-2.66-12.64-4-3.68-1.14-7.37-2.26-11.05-3.42-5.24-1.67-10.46-3.37-15.69-5.06l-11-3.6-12.33-4"/><path class="cls-1" d="M437.75,209.05c-2.65-3.48-5.26-6.88-7.85-10.3-2.33-3.07-4.63-6.16-7-9.23q-5-6.57-10-13.12c-2.35-3.06-4.75-6.08-7.11-9.12-2.71-3.49-5.44-7-8.11-10.48-1.12-1.47-2.07-3.07-3.12-4.6s-2.31-3.26-3.44-4.91-2.09-3.13-3.15-4.68-2.23-3.18-3.33-4.78a15.65,15.65,0,0,1-.87-1.31c-.69-1.2-2-1.33-3.09-1.94a22.15,22.15,0,0,0-2.15-1c.39,1.44.72,2.68,1.07,3.91.29,1,.57,2.08.94,3.09a11.43,11.43,0,0,0,1.06,2.13c.9,1.4,1.89,2.75,2.79,4.15s1.85,3,2.79,4.48,2,3,3,4.55l2.68,4.12c1,1.61,2.08,3.21,3.11,4.82.46.7.89,1.41,1.35,2.11,1.1,1.7,2.22,3.39,3.31,5.11a19,19,0,0,1,2.4,5.26,27.47,27.47,0,0,0,1.08,2.86c1,2.65,2.09,5.29,3.09,7.95,1.25,3.35,2.33,6.78,3.71,10.08,1.49,3.57,3.2,7.06,4.9,10.55,3.06,6.29,6.25,12.53,9.25,18.85,1.54,3.24,2.77,6.62,4.12,9.95a.83.83,0,0,1,0,.69c-1,1.44-2,2.85-3,4.27-.34.5-.59.36-.91-.07-1.88-2.59-3.77-5.19-5.69-7.76-1.73-2.32-3.52-4.6-5.25-6.93s-3.45-4.8-5.2-7.19-3.63-4.83-5.4-7.28c-1.12-1.55-2.12-3.18-3.21-4.75s-2.09-2.89-3.12-4.35-2-2.89-3-4.32c-1.42-2-2.88-4-4.28-6-1.07-1.54-2.08-3.14-3.15-4.68s-2.09-2.9-3.13-4.35-2-2.93-3.07-4.4l-4.06-5.83-3.18-4.54c-1-1.49-2.06-3-3.1-4.49s-2.12-3-3.22-4.51q-3.3-4.46-6.64-8.89c-.43-.56-.88-1.11-1.33-1.67a.89.89,0,0,0-1.28-.28,20.21,20.21,0,0,1-1.93.94.73.73,0,0,0-.41,1.13c.7,1.55,1.4,3.11,2.05,4.68.57,1.4,1,2.85,1.62,4.24.29.67.8,1.24,1.14,1.89.66,1.27,1.24,2.59,1.93,3.84,1.19,2.17,2.46,4.29,3.68,6.45.33.59.59,1.23.91,1.84q2,3.87,4.08,7.73c1,1.8,2,3.59,2.94,5.38s1.76,3.42,2.78,5a36.49,36.49,0,0,1,2.76,6.7c.69,1.82,1.44,3.62,2.12,5.45s1.21,3.49,1.82,5.24c.31.84.63,1.68.95,2.51,1,2.59,2.05,5.16,3,7.76.9,2.43,1.7,4.9,2.6,7.33.72,1.94,1.54,3.84,2.29,5.77.9,2.33,1.78,4.68,2.68,7,.42,1.09.86,2.17,1.32,3.25.62,1.48,1.29,2.94,1.89,4.44.95,2.37,1.72,4.84,2.83,7.14s.74,4.6.93,6.92c.12,1.45.14,2.9.25,4.36a1.53,1.53,0,0,1-1,1.62c-1.4.68-2.8,1.36-4.19,2.06-.54.28-.85.22-1.18-.37-1.3-2.39-2.66-4.75-4-7.11-1.11-1.93-2.24-3.84-3.37-5.76L385.1,252c-1.15-2-2.26-4-3.47-5.92-1.38-2.22-2.88-4.37-4.28-6.57-1-1.54-1.88-3.12-2.85-4.66s-2-3-3-4.56c-.51-.78-1-1.57-1.49-2.35-1.55-2.45-3.13-4.89-4.67-7.34-1.37-2.17-2.69-4.36-4.07-6.53s-2.83-4.34-4.22-6.52c-1-1.57-1.94-3.16-2.92-4.74a20.2,20.2,0,0,1-1.16-1.88q-3.9-8.1-7.76-16.22c-2.28-4.8-4.63-9.57-6.78-14.42-.67-1.5-1.86-1.61-3.08-1.91-.16,0-.6.35-.61.56a8.21,8.21,0,0,0,.56,4c1,2.25,1.8,4.6,2.69,6.9.41,1.07.86,2.13,1.29,3.19.52,1.26,1.06,2.51,1.57,3.77,1,2.47,1.92,4.95,2.9,7.42.51,1.29,1.08,2.57,1.59,3.86,1,2.47,1.92,4.95,2.89,7.42.42,1.06.89,2.1,1.28,3.18.77,2.18,1.49,4.38,2.25,6.57.49,1.42,1,2.84,1.5,4.27s1.05,3.15,1.58,4.73c.46,1.34.94,2.67,1.4,4,1,2.93,2,5.85,2.89,8.8.72,2.3,1.31,4.63,2,7,.83,2.94,1.66,5.87,2.5,8.81s1.6,6.09,2.65,9.05a25,25,0,0,1,1.06,8.88c-.1,6.09-.16,12.17-.24,18.26,0,.25,0,.49-.08,1-.89-.78-1.64-1.43-2.36-2.1-1.56-1.47-3.16-2.9-4.64-4.45a10.3,10.3,0,0,1-1.35-2.3c-1.1-2-2.18-4-3.27-6.06-1-1.8-1.95-3.59-2.93-5.39s-2-3.76-3.05-5.63l-2.93-5.39c-1-1.94-2.08-3.88-3.14-5.81a28.69,28.69,0,0,1-1.64-2.9c-.93-2.22-1.73-4.49-2.58-6.74-.35-.89-.68-1.79-1.05-2.67-.47-1.18-1-2.33-1.45-3.51-.8-2.1-1.57-4.22-2.36-6.32-.34-.93-.7-1.86-1.06-2.77-.85-2.09-1.72-4.16-2.55-6.26-1-2.52-2-5-2.93-7.58s-1.9-5.29-3-7.88a35.06,35.06,0,0,0-2.22-3.84c-.07-.11-.15-.21-.21-.31-1-1.91-2-3.83-3.09-5.73-1.41-2.55-2.85-5.08-4.29-7.61-1.16-2-2.37-4.06-3.53-6.1-1.5-2.63-3-5.29-4.46-7.92-1.18-2.07-2.41-4.11-3.57-6.18-1.63-2.88-3.23-5.79-4.83-8.68-.94-1.71-1.86-3.43-2.79-5.15-1.12-2.07-2.21-4.16-3.35-6.21-.61-1.1-1.3-2.14-2.11-3.44-.29,2-.46,3.71-.8,5.42-1.42,7.09-1.37,14.26-1.37,21.44,0,4-.16,8.08-.16,12.12,0,5,0,9.93.11,14.9s.17,10,.3,15c.07,3,.35,6,.26,9a16,16,0,0,1-1.1,4.39c-.64,1.91-1.4,3.78-2.12,5.67-.39,1-.81,2.07-1.23,3.1a.91.91,0,0,1-.34.43l-7.41,3.66c-.57-1.38-1.19-2.63-1.58-3.94-.79-2.69-1.48-5.41-2.16-8.12a175.86,175.86,0,0,1-3.47-20c-.54-4.18-1.07-8.37-1.78-12.53s-1.64-8.14-2.43-12.21c-.93-4.84-1.81-9.69-2.73-14.53-.54-2.8-1-5.6-1.69-8.38a20.56,20.56,0,0,0-1.31-3.35c-.7-1.62-1.45-3.23-2.13-4.85-.92-2.17-1.82-4.34-2.68-6.52-.52-1.29-.84-2.65-1.45-3.89a26.45,26.45,0,0,0-2.05-3.07c-.86-1.24-1.73-2.48-2.58-3.72s-1.53-2.32-2.31-3.46q-1.76-2.55-3.52-5.09c-1.14-1.65-2.29-3.28-3.42-4.94-.78-1.14-1.53-2.31-2.31-3.47s-1.5-2.18-2.25-3.28c-.87-1.27-1.72-2.55-2.6-3.82-1.2-1.75-2.42-3.49-3.61-5.25s-2.21-3.35-3.32-5c-.05-.08-.06-.21-.13-.24-1.25-.66-.54-1.51-.31-2.39a51.34,51.34,0,0,0,1.33-5.71,6.48,6.48,0,0,1,2-3.72q5.22-5.23,10.39-10.54c4.67-4.77,9.3-9.56,14-14.3a23.25,23.25,0,0,1,3-2.21c2.31-1.65,4.63-3.3,7-4.93,1.84-1.3,3.71-2.57,5.54-3.88s3.69-2.68,5.54-4c1.41-1,2.86-2,4.27-3,1.87-1.32,3.71-2.67,5.58-4s3.76-2.6,5.62-3.91c1.68-1.17,3.37-2.32,5-3.58.51-.4.81-.17,1.14,0,1.37.86,2.72,1.75,4.07,2.63l8.25,5.41,7.55,5c2.08,1.36,4.23,2.61,6.23,4.08,1.67,1.23,3.17,2.69,4.71,4.07,2.45,2.19,4.88,4.41,7.33,6.61l10.58,9.53C347.4,75.15,351.25,78.48,355,82c2.41,2.27,4.63,4.74,6.89,7.15,1.89,2,3.71,4.08,5.55,6.13q4,4.45,8,8.9c2.42,2.7,4.86,5.38,7.28,8.08q4.37,4.88,8.72,9.77c1.59,1.78,3.21,3.52,4.7,5.38,1.93,2.4,3.73,4.91,5.6,7.36s3.82,4.92,5.71,7.39,3.75,5,5.64,7.46c2.08,2.75,4.13,5.54,6.3,8.23a34,34,0,0,1,5.42,9.44c.88,2.35,2.18,4.54,3.26,6.82,1.5,3.17,2.95,6.36,4.46,9.52q5,10.51,10.09,21c.54,1.12.46,1.28-.59,1.9s-2.18,1.42-3.28,2.11a7.16,7.16,0,0,1-1,.44"/><path class="cls-1" d="M274.38,1100.22l9-2.4,1.91-7.34c-1.19-9.87-45.83-80.48-45.83-80.48l-12.49,6.9Z"/><path class="cls-1" d="M705.47,451.14,689,452l-7.25-11.36C678.34,423.29,715,279.38,715,279.38l24.91,4.8Z"/><path class="cls-1" d="M1531.93,576.52l10.26,7.45,9.55-4.46c9.66-10,47.79-120.27,47.79-120.27L1581.4,452Z"/><path class="cls-1" d="M1491.32,1038.48l10.26-7.45,9.56,4.46c9.65,10,47.79,120.27,47.79,120.27L1540.8,1163Z"/><path class="cls-1" d="M103.16,7.45,113.42,0,123,4.46c9.66,10,47.8,120.27,47.8,120.27L152.63,132Z"/><path class="cls-1" d="M940.38,641l9,2.4,1.91,7.34c-1.19,9.88-45.83,80.48-45.83,80.48l-12.49-6.9Z"/><path class="cls-1" d="M1786.38,1136l9,2.4,1.91,7.34c-1.19,9.88-45.83,80.48-45.83,80.48l-12.49-6.9Z"/><path class="cls-1" d="M140,722.86l16.47-.86,7.25,11.36c3.41,17.35-33.27,161.26-33.27,161.26l-24.91-4.8Z"/><path class="cls-1" d="M888.61,920c15.44-4.22,52.72-26.38,68.66-29.45,19.18-3.71,37.26-11,57.79-14.84,17.11-3.2,12.53-3,29.82-5.28,18.6-2.45,37.35-1.74,55.89-4.8,2.73-.45,16.77-2,24.59-4.11,3.38-.9,1.77-7.48-6.58-9.19,4.59-1.77,13.72,1,16.32-5,3.68-8.38-5.67-11.87-12.32-11.69,1.22-4.2,4.86-13.49-5.48-13.08-11.36.44-18.79,5.1-29.93,7.09-17.71,3.15-43.85,4.44-61.39,8.4s-33.21,4.14-50.57,8.32c-20.85,5-67,13.83-87.16,16.76Z"/><path class="cls-1" d="M436.18,1259.37c1.82-15.9-4.88-58.75-1.81-74.69,3.69-19.19,3.63-38.68,7.71-59.17,3.39-17.06,1.87-12.75,6.18-29.64,4.64-18.17,12.28-35.32,16.33-53.67.59-2.7,4.34-16.32,5.32-24.35.43-3.48-6.28-4.42-11,2.69.06-4.92,6-12.38,1.47-17-6.42-6.54-13.14.85-15.44,7.08-3.45-2.69-10.71-9.52-14.18.23-3.81,10.71-2.24,19.34-4.55,30.42-3.65,17.61-12.17,42.35-15,60.11s-8.51,32.37-11.08,50c-3.1,21.22-12.07,67.35-16.85,87.14Z"/><path class="cls-1" d="M1351.93,597.58c-14.54-13.84-62.5-39.5-76.13-54.61-16.42-18.2-36-32.87-53.41-52.42-14.51-16.29-11.34-11.51-25-28.59-14.69-18.37-26.08-39-41.39-56.88-2.26-2.64-13.06-16.68-20.35-23.73-3.16-3.05-9.18,2.95-5.6,13-4.88-3.77-7.86-15.35-15.9-14.3-11.39,1.48-9.08,13.79-4.57,20.8-5.3,1.42-17.63,3.53-10.49,14.37,7.85,11.91,17.66,16.85,27,27.53,14.86,17,33.19,44.19,48.82,60.45s26,33,41.71,48.89c18.9,19.13,58.3,63,74.5,82.69Z"/><path class="cls-1" d="M64.93,677s33.43-.54,51.5-7.48,100.62-49.28,101.88-148.3C111.05,516.34,67.85,571.55,64.93,677"/><path class="cls-1" d="M398.28,900.13s33.27-.52,51.26-7.24,100.14-47.72,101.39-143.6C444.18,744.56,401.19,798,398.28,900.13"/><path class="cls-1" d="M922,496c21.44,3.35,43,5.49,64.4,9l-1.18-10.14c-22.74-4.32-45.88-7.78-68.21-13.95-11.87-3.28-35.85-1.2-35.85-1.2s-6.68,7.76-6.15,13.83c15.3,2.95,31.39,0,47,2.47"/><path class="cls-1" d="M1820.76,489.64c-9.61-5.54-15-14.86-21.64-23.33-10-12.69-19.17-25.95-29-38.71-4.48,3.15-9.55,6.5-13.19,10.34l2.59,2.7c12.5,16.87,24.68,34.08,38.47,49.93,7.35,8.44,15.79,20.41,27.12,23.62,4.56,1.29,9,.69,13.66.54,1-5.76.41-11.76,1.68-17.16-3.82-4.84-14.11-4.71-19.69-7.93"/><path class="cls-1" d="M972.62,1078.76c-7.55-11.15-15.76-21.9-23.82-32.76l-10.87,10.43c12.73,16,25.24,32,37.78,48.16,14.54-9.09,4.92-14-3.09-25.83"/><path class="cls-1" d="M349.15,426.22c8.15-10.72,15.71-22,23.41-33.06l-13.36-7c-11.05,17.17-22.25,34.17-33.52,51.22,13.26,10.86,14.83.18,23.47-11.2"/><path class="cls-1" d="M1489.71,41.77c9.54-9.5,18.56-19.59,27.72-29.54l-12.28-8.72c-13.3,15.49-26.73,30.79-40.23,46.13,11.65,12.58,14.67,2.22,24.79-7.87"/><path class="cls-1" d="M704.13,769.36c-5.2-10.55-13-19.92-20.06-29.36l-8.35,9.13c26.73,28.51,29,72,58.69,98,4.9-3.48,9.73-7.17,14.52-10.81-5.56-8.46-13.5-12.49-20.1-20.79-5.15-6.49-10.94-14.18-14-21.85s-6.89-16.59-10.72-24.35"/><path class="cls-1" d="M1203.19,30.94c-4.47,3.16-8.86,6.53-13.26,9.82l1.48,5.83c14.15,14.08,29,28.13,44,41.22,11.34,9.92,23.92,23.61,36.45,31.19,3.87-8,5.41-19.78,6.13-28.55-5.35-.4-11.53-3.51-17-5.53-24.1-8.89-43.32-38.35-57.78-54"/><path class="cls-1" d="M808.11,1180.2c-60-56.59-120.15-70.26-125.46-71.2,0,0-13.2,62.5-19.71,85.23-10,35-81.7,259.88-81.7,259.88l302.69-176.95s-15.81-40.36-75.82-97"/><path class="cls-1" d="M2086.46,634.91c-12.31-81.55-51.22-129.41-54.81-133.43,0,0-49,41-68.1,54.92-29.43,21.33-224.62,154.14-224.62,154.14L2086.32,758s12.45-41.52.14-123.09"/><path class="cls-1" d="M1672.62,677.29c-12,39.56-19.95,79.53-35.64,118.06-9.7,23.8-22,46.78-31.1,70.73-5.36,14-6.06,30.44-14.6,43.1l8.35.73c5.12-13.64,12.81-25.4,16.87-39.7,4-14,6.46-30,14.18-42.49,3.23-5.25,8.46-8.65,11.46-14.09,4.25-7.68,6.4-17.36,9.15-25.66,11.34-34.24,19.39-69.16,29.19-103.56Z"/><path class="cls-1" d="M1018.93,675.55c39,13.66,78.62,23.3,116.44,40.62,23.38,10.7,45.81,23.92,69.35,34.07,13.79,5.94,30.16,7.34,42.44,16.41l1.09-8.31c-13.42-5.69-24.84-13.88-39-18.54-13.8-4.55-29.66-7.73-41.86-16-5.1-3.45-8.27-8.81-13.58-12.05-7.5-4.57-17.08-7.13-25.25-10.22-33.73-12.79-68.27-22.31-102.24-33.56Z"/><path class="cls-1" d="M540.4,1100c34.11-23.36,65.32-49.57,101.67-69.8,22.46-12.5,46.4-22.76,68.51-35.72,12.95-7.59,23.77-20,38.35-24.49l-6-5.8c-12.53,7.45-25.89,11.8-38,20.42-11.84,8.42-23.78,19.33-37.65,24.28-5.8,2.07-12,1.45-17.75,3.82-8.12,3.33-15.86,9.54-23.19,14.29-30.27,19.62-58.4,41.82-87.57,62.53Z"/><path class="cls-1" d="M-29.79,204.51c31.58,26.68,65.14,49.8,94.3,79.47,18,18.33,34.27,38.68,52.64,56.56C127.91,351,142.71,358.15,151,371l4-7.37c-10.5-10.11-18.25-21.82-29.78-31.21-11.27-9.18-25-17.8-33.41-29.85-3.53-5-4.59-11.18-8.39-16.1C78,279.53,69.93,273.72,63.4,267.91c-26.95-24-55.83-45.18-83.55-67.8Z"/><path class="cls-1" d="M535.39,274.7c36.65-19.13,70.76-41.43,109.26-57.18,23.79-9.74,48.78-17.07,72.29-27.3,13.76-6,26-17,41-19.74L752.61,164c-13.33,5.9-27.1,8.63-40.16,15.74-12.76,6.95-25.92,16.35-40.28,19.62-6,1.36-12.09,0-18.08,1.67-8.46,2.34-16.88,7.59-24.73,11.43C597,228.33,566.4,247,535,264.1Z"/><path class="cls-1" d="M1287.54,1177.89c-3.64,17.83-6.47,29.48-16.36,43s-23.17,26.45-38.75,33.55c-27.36,12.45-62,7.71-79.58-.75-29.08-14-54.27-35-54.27-35s5.93-17.25,8.53-22.68c6.81-14.19,15.42-27.59,24.18-40.63,11.69-17.41,24.29-34.34,38.51-49.77,11-12,23.18-23,37.32-31.2a107.31,107.31,0,0,1,11.1-5.8s82.3,45.74,69.32,109.34"/><path class="cls-1" d="M1433.88,358.78c-16.53,7.62-27.6,12.22-44.32,12.22s-35-3-50-11.41c-26.22-14.69-42.9-45.45-46.46-64.62-5.9-31.73-3.86-64.47-3.86-64.47s17.43-5.42,23.34-6.53c15.47-2.9,31.37-3.88,47.07-4.53,20.94-.87,42-.72,62.9,1.62,16.17,1.8,32.27,5.07,47.23,11.64a106.35,106.35,0,0,1,11.24,5.52s11.79,93.42-47.17,120.56"/><path class="cls-1" d="M-44.27,516.16c-18.17-1-30.11-2.17-44.87-10S-118.64,487-127.9,472.6c-16.26-25.28-16.55-60.27-10.69-78.86C-128.9,363-111.73,335-111.73,335s17.93,3.39,23.67,5.19c15,4.7,29.53,11.3,43.69,18.09,18.9,9.07,37.46,19.11,54.78,31,13.42,9.19,26.11,19.64,36.23,32.46A106,106,0,0,1,54,431.85s-33.45,88-98.25,84.31"/></svg>