<svg id="Layer_1" data-name="Layer 1" xmlns="http://www.w3.org/2000/svg" viewBox="0 0 351 219.33"><title>info</title><path d="M130.37,26.15l.25.1a22.93,22.93,0,0,0,7.79,1.36l-.34.82-.32.8a17.35,17.35,0,0,1-.8,1.86l-.07.12c-.73,1.36-1.34,2.74-.84,3.52a.88.88,0,0,0,.67.39h.11c1.45,0,4.34-2.73,4.37-2.75a13.81,13.81,0,0,0,1.33-1.66,6.45,6.45,0,0,1,2.68-2.55c.57-.2,3.39-.92,4.31-1.1a18.46,18.46,0,0,0,3.78-1.4l.33-.15c-1.49,2.34-1.77,3.14-1.27,3.56,1.12,1,5.24-1.93,5.68-2.35a17.68,17.68,0,0,0,2.53-3,22.65,22.65,0,0,0,5.17-1.12c1-.34,2-.65,3-1,1.21-.38,2.46-.78,3.69-1.21.9-.32,1.76-.6,2.6-.87,1.63-.54,3.17-1,4.86-1.76,1.37-.57,3.66-1.53,4.71-3a1.64,1.64,0,0,0,.34-1.57c-.37-.93-1.72-1.2-2.81-1.42l-.13,0a26.53,26.53,0,0,0-6.59-.34,31.07,31.07,0,0,0-3.44.43l-1.19.19a6.11,6.11,0,0,0-2.7-2l-.23-.11c-2.28-1.12-7.38-.87-7.95-.84a21.71,21.71,0,0,0-4.21.53,9.3,9.3,0,0,0-1.67.7,4.85,4.85,0,0,1-2.53.72.49.49,0,0,0-.49.31.49.49,0,0,0,.13.57,11.33,11.33,0,0,0,2.76,1.53c.45.2.89.4,1.28.6a11.5,11.5,0,0,0,3.13,1,36.62,36.62,0,0,0-8.64,4.31c-1.25.83-2.89,1.94-4.44,3.16l-.37.3a5.87,5.87,0,0,1-2.36,1.39,9.22,9.22,0,0,1-2.87,0l-.76-.08c-1-.1-2-.16-3.06-.22l-1.62-.11c-1.81-.13-3.82-.23-4.83.22-.52.24-.62.56-.61.79C128.73,25.54,129.56,25.85,130.37,26.15Zm48-13.32a1,1,0,0,1,.15.51,1.35,1.35,0,0,1-.25.94.92.92,0,0,0-.1-.67.74.74,0,0,0-.68-.35.77.77,0,0,0-.6.83,1,1,0,0,0,.12.52.89.89,0,0,1-.26-.11,1,1,0,0,1-.22-.89,1.44,1.44,0,0,1,1-1.14h.45A.78.78,0,0,1,178.35,12.83ZM134.08,24.89l1.63.1c1,.07,2,.13,3,.22l.74.08a9.82,9.82,0,0,0,3.2,0,6.79,6.79,0,0,0,2.76-1.59l.37-.3c1.51-1.19,3.06-2.24,4.37-3.1a32.83,32.83,0,0,1,10.32-4.74c.83,0,1.66.06,2.5.06,1.67,0,3.34-.07,4.92-.22a2.4,2.4,0,0,0,1.32-.44.5.5,0,0,0-.64-.77,1.5,1.5,0,0,1-.77.21,53.61,53.61,0,0,1-6.86.18.5.5,0,0,0-.2-.08,15.45,15.45,0,0,1-5.16-1.24c-.41-.22-.87-.42-1.35-.63s-1-.43-1.4-.66a9.15,9.15,0,0,0,1.57-.67,8.25,8.25,0,0,1,1.49-.62,20.91,20.91,0,0,1,4-.5c2.57-.15,6,0,7.45.73l.23.12A4.78,4.78,0,0,1,170,12.9a.5.5,0,0,0,.52.28l1.54-.24a29.14,29.14,0,0,1,3.33-.42c.38,0,.75,0,1.12,0a1.85,1.85,0,0,0-.53,1.07h0a1.33,1.33,0,0,0,.42,1.36,1.51,1.51,0,0,0,.88.25,2,2,0,0,0,.57-.09,1.8,1.8,0,0,0,.51-.24,1.67,1.67,0,0,0,.6-1.49,1.51,1.51,0,0,0-.23-.79l-.05-.06a21.74,21.74,0,0,1,3.05.35l.13,0c.67.14,1.91.38,2.08.8.07.18-.11.47-.22.63a3.74,3.74,0,0,1-.43.47l-1.19-.1a6.07,6.07,0,0,0-1,0,3.82,3.82,0,0,0-2.05.74.38.38,0,0,0-.07.53.38.38,0,0,0,.3.15.35.35,0,0,0,.22-.08,3,3,0,0,1,1.64-.59,8,8,0,0,1,.85,0l.39,0a18.85,18.85,0,0,1-3,1.49c-1.39.59-2.68,1-4,1.47a.36.36,0,0,0-.11-.14l-1.05-.93A1.35,1.35,0,0,1,174,17a1.25,1.25,0,0,1-.05-.24,1.82,1.82,0,0,1,0-.65.3.3,0,0,1,.14-.22.5.5,0,1,0-.21-1,1.23,1.23,0,0,0-.91,1,2.75,2.75,0,0,0,0,1,1.83,1.83,0,0,0,.12.44,2.12,2.12,0,0,0,.59.73l.76.67c-.75.25-1.52.5-2.33.79-1.21.43-2.45.82-3.65,1.19-1,.32-2,.63-3,1a22.43,22.43,0,0,1-5,1.08l0-.36a.38.38,0,0,0-.41-.34.36.36,0,0,0-.33.41,4.25,4.25,0,0,1,0,.79A17.18,17.18,0,0,1,157.35,26a14.89,14.89,0,0,1-4.16,2.31,17,17,0,0,1,1.36-2.38,12.87,12.87,0,0,1,2.16-2.43l.41-.39a.5.5,0,0,0-.69-.72l-.4.38c-.42.39-.8.75-1.17,1.15h0c-.64.23-1.28.52-2,.83a17.75,17.75,0,0,1-3.57,1.33c-1,.19-3.83.92-4.43,1.13a7.13,7.13,0,0,0-3.17,2.92,12.59,12.59,0,0,1-1.22,1.53c-1,1-3.19,2.57-3.61,2.51,0-.06-.2-.49.88-2.5l.07-.12a19.93,19.93,0,0,0,.86-2l.3-.78.62-1.5a.49.49,0,0,0-.45-.69,23,23,0,0,1-8.17-1.3l-.27-.11c-.17-.06-.46-.17-.7-.28A16.7,16.7,0,0,1,134.08,24.89Z"/><path d="M100.09,38.5a.53.53,0,0,0,.24-.06l8-4.32a14.54,14.54,0,0,0,2.56-1.63A27.3,27.3,0,0,1,115.26,30a42.43,42.43,0,0,0,8.86-4.55.5.5,0,0,0-.57-.83A41.56,41.56,0,0,1,114.91,29a26.27,26.27,0,0,0-4.63,2.69,13.63,13.63,0,0,1-2.38,1.5l-8.05,4.33a.5.5,0,0,0-.2.68A.51.51,0,0,0,100.09,38.5Z"/><path d="M117.9,37.68l-.47.3a.5.5,0,0,0,.26.92.45.45,0,0,0,.27-.08l.47-.29a44.21,44.21,0,0,1,5.86-3.32,19.74,19.74,0,0,0,2.53-1.35,8.31,8.31,0,0,1,3.56-1.53.5.5,0,1,0-.09-1,9.61,9.61,0,0,0-4,1.68,18.51,18.51,0,0,1-2.41,1.29A45.68,45.68,0,0,0,117.9,37.68Z"/><path d="M133.88,37.13a6,6,0,0,1-1.52,1.11,28.59,28.59,0,0,0-2.58,2c-.58.47-1.09.88-1.31,1a.5.5,0,0,0-.13.7.49.49,0,0,0,.41.21.52.52,0,0,0,.29-.09c.23-.17.77-.6,1.37-1.09.86-.7,2-1.66,2.43-1.88a7.07,7.07,0,0,0,1.83-1.36.5.5,0,0,0-.09-.7A.5.5,0,0,0,133.88,37.13Z"/><path d="M140.9,17.25a.57.57,0,0,0,.25-.06c.8-.47,1.55-1,2.3-1.42s1.48-.94,2.27-1.4a4.91,4.91,0,0,1,.82-.42l.4-.11a2.21,2.21,0,0,0,1.41-.79.5.5,0,0,0-.14-.69.49.49,0,0,0-.69.13,1.43,1.43,0,0,1-.83.38l-.47.14a5.17,5.17,0,0,0-1,.49c-.81.47-1.56.95-2.31,1.42s-1.48.94-2.27,1.4a.5.5,0,0,0,.26.93Z"/><path d="M147.35,18.22a.51.51,0,0,0,.43.23.48.48,0,0,0,.26-.07l1.27-.79a3,3,0,0,1,1.49-.4.49.49,0,0,0,.53-.47.5.5,0,0,0-.46-.53,4,4,0,0,0-2.09.55l-1.26.79A.5.5,0,0,0,147.35,18.22Z"/><path d="M156.1,25.6a.24.24,0,0,0-.08.34.27.27,0,0,0,.21.12.27.27,0,0,0,.14,0,6.81,6.81,0,0,0,2.22-3.11.24.24,0,0,0-.13-.33.25.25,0,0,0-.33.12A6.54,6.54,0,0,1,156.1,25.6Z"/><path d="M139.55,30.48l.09,0a.25.25,0,0,0,.23-.16c.25-.61.47-1.25.66-1.89a.25.25,0,0,0-.48-.14c-.18.62-.4,1.24-.64,1.85A.25.25,0,0,0,139.55,30.48Z"/><path d="M141.56,29.94h0a.25.25,0,0,0,.21-.28,1.84,1.84,0,0,1,.8-1.45.25.25,0,0,0,0-.35.24.24,0,0,0-.35-.06,2.34,2.34,0,0,0-1,1.93A.25.25,0,0,0,141.56,29.94Z"/><path d="M137.12,26.21h.17a5.61,5.61,0,0,0,1.09-.15,3.2,3.2,0,0,1,1.36-.1.25.25,0,0,0,.3-.18.25.25,0,0,0-.19-.3,3.47,3.47,0,0,0-1.57.09,4.48,4.48,0,0,1-1.13.14.25.25,0,0,0-.26.23A.23.23,0,0,0,137.12,26.21Z"/><path d="M161.9,12c.32,0,.65-.08,1-.14l.7-.11a9.75,9.75,0,0,1,2.29,0,2,2,0,0,1,1.15.4.23.23,0,0,0,.17.07.27.27,0,0,0,.19-.08.25.25,0,0,0,0-.35,2.44,2.44,0,0,0-1.44-.54,10.23,10.23,0,0,0-2.41,0l-.71.11c-.31.05-.63.11-.94.14a14.83,14.83,0,0,1-1.49,0H158a.25.25,0,0,0,0,.5h2.4A13.35,13.35,0,0,0,161.9,12Z"/><path d="M167.82,12.75a9.18,9.18,0,0,0-3.75-.49c-.64,0-1.29.09-1.91.14s-1.19.11-1.78.14a.25.25,0,0,0-.24.26.24.24,0,0,0,.26.24c.6,0,1.21-.08,1.8-.14s1.26-.12,1.89-.14a8.76,8.76,0,0,1,3.55.45.15.15,0,0,0,.09,0,.26.26,0,0,0,.24-.16A.25.25,0,0,0,167.82,12.75Z"/><path d="M217.5,112c-.09.64-.19,1.3-.31,2s-.41,1-.51,1.06-.64,0-.74-.23a3.27,3.27,0,0,1-.23-.92l0-.2a.52.52,0,0,0-.55-.42.51.51,0,0,0-.45.52,1.18,1.18,0,0,1-.26.88.52.52,0,0,1-.39.14c-.49,0-.53-.18-.56-.27a2.24,2.24,0,0,1-.07-.83,1.49,1.49,0,0,0,0-.42.5.5,0,0,0-1,0l0,.31a1,1,0,0,1-.29.47,1.54,1.54,0,0,1-1.16.37c-.14,0-.44-.25-.44-.4.21-5,2.54-10.09,4.55-14a.5.5,0,1,0-.89-.46c-2.05,4-4.44,9.2-4.66,14.39a1.57,1.57,0,0,0,1.31,1.43,2.55,2.55,0,0,0,1.73-.44,1.44,1.44,0,0,0,1.41.84,1.49,1.49,0,0,0,1.15-.41,1.6,1.6,0,0,0,1.36.69,1.68,1.68,0,0,0,.55-.1c.59-.22,1-.82,1.14-1.82.13-.71.23-1.38.32-2a25.2,25.2,0,0,1,.74-3.8,23.15,23.15,0,0,1,2.41-4.83c.29-.48.58-1,.84-1.42a.51.51,0,0,0-.19-.68.49.49,0,0,0-.68.19c-.26.45-.54.92-.83,1.4a23.83,23.83,0,0,0-2.51,5.06A25.11,25.11,0,0,0,217.5,112Z"/><path d="M203.12,95.34a.35.35,0,0,0-.38-.37.37.37,0,0,0-.37.38,9.23,9.23,0,0,1-.32,3.19,4.45,4.45,0,0,1-.82,1.41.38.38,0,0,0,0,.52.35.35,0,0,0,.25.1.39.39,0,0,0,.28-.13,5.37,5.37,0,0,0,1-1.65A10.06,10.06,0,0,0,203.12,95.34Z"/><path d="M204.18,108.13a.39.39,0,0,0-.39.37,3.85,3.85,0,0,1-.34,1.31,7.35,7.35,0,0,0-.27.79c-.05.18-.09.36-.13.55s-.08.37-.13.55a1.54,1.54,0,0,1-.46.78.37.37,0,0,0-.06.52.35.35,0,0,0,.29.15.4.4,0,0,0,.23-.08,2.16,2.16,0,0,0,.72-1.15c.06-.21.1-.42.15-.62a4.64,4.64,0,0,1,.11-.51c.07-.24.16-.48.25-.72a4.32,4.32,0,0,0,.39-1.56A.36.36,0,0,0,204.18,108.13Z"/><path d="M207.05,109.36a.38.38,0,0,0-.52.13,7.91,7.91,0,0,0-.93,2l-.06.29a2.8,2.8,0,0,1-.12.5.6.6,0,0,1-.32.38.37.37,0,0,0,.11.73.25.25,0,0,0,.12,0,1.31,1.31,0,0,0,.79-.83,3.32,3.32,0,0,0,.16-.62c0-.09,0-.17.05-.26a7.05,7.05,0,0,1,.85-1.83A.38.38,0,0,0,207.05,109.36Z"/><path d="M205.32,99.78h.08a.38.38,0,0,0,.37-.29,7.11,7.11,0,0,1,.69-1.83l.08-.14c.08-.15.17-.3.24-.46a6.37,6.37,0,0,0,.36-1.34.37.37,0,0,0-.31-.43.36.36,0,0,0-.43.3,4.83,4.83,0,0,1-.31,1.16c-.06.14-.13.27-.2.4l-.09.15a8.22,8.22,0,0,0-.76,2A.37.37,0,0,0,205.32,99.78Z"/><path d="M210.22,96.88a2.67,2.67,0,0,0,.11-1,.37.37,0,0,0-.74.08,2.25,2.25,0,0,1-.1.71l-.65,2.7a.39.39,0,0,0,.28.46h.09a.37.37,0,0,0,.36-.29Z"/><path d="M214,88.3a.37.37,0,0,0,.18.5.32.32,0,0,0,.16,0,.38.38,0,0,0,.34-.21c.22-.46.42-.92.59-1.39a3.09,3.09,0,0,0,.2-2.16.37.37,0,0,0-.7.26,2.47,2.47,0,0,1-.2,1.64Q214.36,87.66,214,88.3Z"/><path d="M212.38,84.4a.36.36,0,0,0-.46.25,20.61,20.61,0,0,0-.55,3.65.49.49,0,0,0,.32.32h.09a.42.42,0,0,0,.32-.14.38.38,0,0,0,0-.45,22,22,0,0,1,.5-3.17A.38.38,0,0,0,212.38,84.4Z"/><path d="M209.34,84.49a.37.37,0,0,0-.25-.46.38.38,0,0,0-.47.25c-.12.37-.22.73-.32,1.09a29.31,29.31,0,0,1-1,3.09.39.39,0,0,0,.21.49.34.34,0,0,0,.14,0,.37.37,0,0,0,.35-.23A29.12,29.12,0,0,0,209,85.57C209.12,85.22,209.22,84.87,209.34,84.49Z"/><path d="M205.23,87.73a.37.37,0,0,0-.07-.38,7.89,7.89,0,0,1,.52-3.3.37.37,0,0,0-.17-.5.36.36,0,0,0-.5.17,8.55,8.55,0,0,0-.6,3.66.53.53,0,0,0,.33.56.35.35,0,0,0,.14,0A.38.38,0,0,0,205.23,87.73Z"/><path d="M201.58,85.91a2.56,2.56,0,0,0-.11.24,3.18,3.18,0,0,0-.15.69L201.19,88a.36.36,0,0,0,.33.41h0a.37.37,0,0,0,.37-.33l.14-1.12a1.77,1.77,0,0,1,.1-.49,1.42,1.42,0,0,1,.08-.18,1.37,1.37,0,0,0,.15-.35,2,2,0,0,0,.07-.62l0-1.54a.37.37,0,0,0-.37-.37h0a.37.37,0,0,0-.37.38l0,1.54a1.26,1.26,0,0,1,0,.4A1,1,0,0,1,201.58,85.91Z"/><path d="M202.67,53.35a.39.39,0,0,0,.25-.1A5.22,5.22,0,0,0,204.14,51a1.83,1.83,0,0,0,.57-.14.38.38,0,1,0-.31-.69.77.77,0,0,1-.27.07,10.79,10.79,0,0,0,.1-1.19.37.37,0,0,0-.36-.39.38.38,0,0,0-.39.36,6.19,6.19,0,0,1-1.11,3.75.38.38,0,0,0,0,.51A.42.42,0,0,0,202.67,53.35Z"/><path d="M223.09,55.91a1.27,1.27,0,0,0,.61.05,5.05,5.05,0,0,0-.25,1.24.38.38,0,0,0,.35.4h0a.38.38,0,0,0,.38-.36,5.11,5.11,0,0,1,.23-1.11,5.9,5.9,0,0,0,.25-1.29.38.38,0,0,0-.75,0,.49.49,0,0,1-.2.35.44.44,0,0,1-.4.05.38.38,0,0,0-.47.24A.36.36,0,0,0,223.09,55.91Z"/><path d="M214.17,59a.36.36,0,0,0,.24-.09,3.55,3.55,0,0,1,1.64-.74.39.39,0,0,0,.31-.43.37.37,0,0,0-.43-.31,4.24,4.24,0,0,0-2,.9.38.38,0,0,0-.05.53A.4.4,0,0,0,214.17,59Z"/><path d="M207.58,55.78a4,4,0,0,1,.85.55.37.37,0,0,0,.24.08.36.36,0,0,0,.29-.13.39.39,0,0,0,0-.53,4.67,4.67,0,0,0-1-.66c-.1-.05-.26-.12-.28-.17a.37.37,0,1,0-.69.29A1.15,1.15,0,0,0,207.58,55.78Z"/><path d="M204.6,57.34a2.39,2.39,0,0,0-1.45,2.5,3.67,3.67,0,0,0,.15.81c0,.09,0,.19.08.31a1.55,1.55,0,0,0,.3.69l.08.1a1.76,1.76,0,0,0,.85.67,4.56,4.56,0,0,0,1,.13,2.6,2.6,0,0,0,.61-.07,3.94,3.94,0,0,0,1.66-1,2.22,2.22,0,0,0,.49-.56,1.74,1.74,0,0,0,.2-.86,2.86,2.86,0,0,0-.9-2.06,3.16,3.16,0,0,0-2.07-.85,2.26,2.26,0,0,0-1,.17Zm.3.69a1.37,1.37,0,0,1,.6-.11h.07a2.42,2.42,0,0,1,1.58.64,2.15,2.15,0,0,1,.67,1.52,1,1,0,0,1-.11.5,1.54,1.54,0,0,1-.33.36,3.26,3.26,0,0,1-1.33.81,3.06,3.06,0,0,1-1.28-.06c-.11,0-.34-.31-.43-.42l-.09-.11a.9.9,0,0,1-.14-.37c0-.13-.06-.24-.09-.34a2.89,2.89,0,0,1-.12-.66,1.65,1.65,0,0,1,1-1.76Z"/><path d="M214.23,65.74a2.35,2.35,0,0,0,.45,0,4.56,4.56,0,0,0,.78-.08,3.86,3.86,0,0,0,1.73-.67,2.47,2.47,0,0,0,.93-2A2.43,2.43,0,0,0,217,61.06h0a2.34,2.34,0,0,0-2.48,0,3.5,3.5,0,0,0-1.71,3,1.87,1.87,0,0,0,.27,1A1.72,1.72,0,0,0,214.23,65.74Zm.64-4a1.78,1.78,0,0,1,.87-.25,1.57,1.57,0,0,1,.85.26,1.66,1.66,0,0,1,.78,1.33,1.73,1.73,0,0,1-.64,1.41,3.08,3.08,0,0,1-1.4.52,2.86,2.86,0,0,1-1,.05,1,1,0,0,1-.67-.4,1.28,1.28,0,0,1-.15-.62A2.74,2.74,0,0,1,214.87,61.69Z"/><path d="M215.28,63.38h.11a.68.68,0,0,0,.42-.14.71.71,0,0,0,.19-.44.76.76,0,0,0-.19-.45.8.8,0,0,0-.36-.14.46.46,0,0,0-.36.13.31.31,0,0,0-.11.09.63.63,0,0,0-.11.58A.66.66,0,0,0,215.28,63.38Z"/><path d="M205.7,60.07A.58.58,0,0,0,206,60a.48.48,0,0,0,.23-.44.72.72,0,0,0-.13-.37.53.53,0,0,0-.14-.11.49.49,0,0,0-.67.05.62.62,0,0,0-.18.41.46.46,0,0,0,.17.41A.58.58,0,0,0,205.7,60.07Z"/><path d="M201.28,63.33l.13,0a3.47,3.47,0,0,1,1.15.58,5.69,5.69,0,0,0,.93.55l.39.15c.38.14.73.27.86.53a.38.38,0,0,0,.34.21.32.32,0,0,0,.16,0,.37.37,0,0,0,.17-.5,2,2,0,0,0-1.27-.9l-.35-.14a4.91,4.91,0,0,1-.81-.48,4.1,4.1,0,0,0-1.42-.7l-.15,0c-.16,0-.43-.08-.45-.16a.38.38,0,0,0-.48-.23.38.38,0,0,0-.23.48C200.42,63.18,200.94,63.27,201.28,63.33Z"/><path d="M199.21,69.4h.06c1-.16,1.76-.27,2.47-.36,0,.18,0,.35.07.54a7.69,7.69,0,0,0,1.4,3.54A11.62,11.62,0,0,0,205,74.84a5.42,5.42,0,0,0,1.65,1,5.27,5.27,0,0,0,1.28.22c.43,0,.86.06,1.31.06a7.83,7.83,0,0,0,1.08-.07,11.89,11.89,0,0,0,3.49-1.27,7.73,7.73,0,0,0,1.71-1,9.31,9.31,0,0,0,1-1,.5.5,0,1,0-.77-.63,8.19,8.19,0,0,1-.84.92,7,7,0,0,1-1.5.88,11.08,11.08,0,0,1-3.19,1.18,10.49,10.49,0,0,1-2.17,0,4,4,0,0,1-1-.17,4.42,4.42,0,0,1-1.33-.87A10.11,10.11,0,0,1,204,72.5a6.6,6.6,0,0,1-1.2-3.08c0-.17,0-.34-.06-.5.77-.08,1.5-.12,2.3-.16a.38.38,0,0,0,0-.75c-.81,0-1.54.09-2.33.16,0-.59,0-1.19,0-1.89a3.85,3.85,0,0,1,1.19.14.25.25,0,0,0,.12,0,.37.37,0,0,0,.35-.25.38.38,0,0,0-.23-.48,5.77,5.77,0,0,0-1.79-.18,5.53,5.53,0,0,1-1.3-.07c-.22,0-.34-.14-.35-.18a.36.36,0,0,0-.43-.3.37.37,0,0,0-.3.44,1.06,1.06,0,0,0,.92.77,4.67,4.67,0,0,0,.82.09c0,.72,0,1.36,0,2-.73.09-1.54.21-2.53.37a.39.39,0,0,0-.31.44A.38.38,0,0,0,199.21,69.4Z"/><path d="M217.61,67A7.9,7.9,0,0,0,216,67a.39.39,0,0,0-.35.4.37.37,0,0,0,.39.35,7,7,0,0,1,1.45,0l.34.07.34.07a5.15,5.15,0,0,0,1,.08c.37,0,.73,0,1.09,0a.38.38,0,0,0,.34-.41.37.37,0,0,0-.4-.34,7.62,7.62,0,0,1-1.85,0l-.31-.06Z"/><path d="M215.1,68.48l1.09.56a5.08,5.08,0,0,1,.86.49c.12.09.23.19.34.29a4,4,0,0,0,.38.32,3.3,3.3,0,0,0,1.11.55l.11,0a.38.38,0,0,0,.36-.27.39.39,0,0,0-.26-.47,2.83,2.83,0,0,1-.87-.43c-.12-.09-.23-.19-.33-.28s-.25-.22-.39-.32a5.35,5.35,0,0,0-1-.57l-1.09-.56a.38.38,0,0,0-.51.17A.37.37,0,0,0,215.1,68.48Z"/><path d="M214.37,69.41a.37.37,0,0,0,0,.53l.09.08c1.48,1.31,3,2.67,3.9,2.93h.11a.37.37,0,0,0,.36-.27.37.37,0,0,0-.26-.46A17.82,17.82,0,0,1,215,69.46l-.08-.08A.38.38,0,0,0,214.37,69.41Z"/><path d="M208.6,65.93c.09,1,.28,1.45.45,1.62A12.62,12.62,0,0,0,208.5,69s0,.07,0,.1a9.53,9.53,0,0,1-2.3.28.4.4,0,0,0-.38.37.38.38,0,0,0,.37.38h.12a10.18,10.18,0,0,0,2.14-.25.94.94,0,0,0,.2.43,1.39,1.39,0,0,0,.41.31.94.94,0,0,1,.18.11,1.11,1.11,0,0,1,.21.31,1.85,1.85,0,0,0,.21.33,1.48,1.48,0,0,0,1.17.57,1.41,1.41,0,0,0,.45-.07.37.37,0,0,0,.23-.47.37.37,0,0,0-.47-.24.75.75,0,0,1-.79-.24,1.88,1.88,0,0,1-.14-.24,1.77,1.77,0,0,0-.38-.52,2.7,2.7,0,0,0-.31-.2.86.86,0,0,1-.2-.13c-.08-.09-.07-.3,0-.62a14.29,14.29,0,0,1,.62-1.65.06.06,0,0,0,0,0,4.57,4.57,0,0,0,.78-.63l.19-.18a3.36,3.36,0,0,0,1-1.06.38.38,0,0,0-.06-.42.39.39,0,0,0-.42-.09.33.33,0,0,1-.23,0,2,2,0,0,1-.3-.18l-.08-.06a2.08,2.08,0,0,0-.81-.36,1.1,1.1,0,0,0-1,.31A1.42,1.42,0,0,0,208.6,65.93Zm.75-.06a.72.72,0,0,1,.08-.5.33.33,0,0,1,.25-.09h.09a1.6,1.6,0,0,1,.59.29,3,3,0,0,0,.4.24l-.41.35-.23.21a5.47,5.47,0,0,1-.6.51,4.81,4.81,0,0,1-.17-1Z"/><path d="M335.26,72.4c-4.32-2.86-8.82-.1-11.79,1.73-2,1.21-2.77,3.59-2.13,4.76a2.61,2.61,0,0,0,1.73,1.45,3.44,3.44,0,0,0,2.66-1.09l.21-.17a4,4,0,0,1,4.13-.69,3.36,3.36,0,0,1,1.78,3.17c0,2.8-3.61,9-6.25,12.49a41.46,41.46,0,0,1-5.8,6.18c-.84.71-1.84,1.5-1.86,1.52a36.81,36.81,0,0,1-4.2,3.16,31.09,31.09,0,0,1-4.93,2.27l-1.54.61a89.42,89.42,0,0,1-13.9,4.38l-3.66.93c-2.47.65-4.49,1.11-6.64,1.59-1.87.41-3.81.85-6.23,1.45-1.27.32-2.45.56-3.6.79s-2.09.42-3.05.67a23.15,23.15,0,0,1-5.76.84c-.25-1.26-.52-2.53-.86-3.81a35.44,35.44,0,0,0-1.82-4.71c-.46-1.06-.95-2.17-1.36-3.26a21.33,21.33,0,0,0-1.94-3.59c-.26-.41-.52-.83-.77-1.25-1.13-1.93-4.17-5-5.78-4.28-1.21.76-1.37,2.18-.41,3.8a12.68,12.68,0,0,0,1.9,2.35l.58.61a11.55,11.55,0,0,1,2.33,4.57c.2.61.4,1.22.65,1.86s.5,1.12.79,1.73c.2.41.41.82.6,1.25a11.83,11.83,0,0,1,.41,1.12c.11.32.21.62.33.91a23.68,23.68,0,0,1,1.17,3.63,127.78,127.78,0,0,1-20.32,2.86h-.06c-.21-1.65-.41-3.35-.53-5l-.1-1.34a121.8,121.8,0,0,0-1.48-13.48c-1.33-7.41-3.06-13.22-5.29-17.75-.15-.31-.34-.67-.56-1.08C231.15,82.16,230,80,230,78.82a44.09,44.09,0,0,0-.82-10.42,57.21,57.21,0,0,0-1.56-5.51c-.25-.77-.49-1.52-.7-2.22a4.85,4.85,0,0,1,.1-2.41,11.73,11.73,0,0,0,.25-1.5l.46-6.23a.5.5,0,0,0-.27-.48.49.49,0,0,0-.54.05,18.51,18.51,0,0,1-3.24,2,22.91,22.91,0,0,0-3.84,2.33c-1.92-1.13-4.75-1.66-7-2.09-.86-.16-1.68-.31-2.3-.47a6.35,6.35,0,0,0-.7-.12c-.42-.06-1-.15-1.13-.35l-.27-.41a7.94,7.94,0,0,1-.5-.78l-3.41-6.51a.5.5,0,0,0-.44-.27.51.51,0,0,0-.45.26c-.12.23-3.08,5.72-3.63,8.81a16.39,16.39,0,0,1-.94,3.44,14.5,14.5,0,0,1-.86,1.72c-.25.45-.5.89-.69,1.3a32.15,32.15,0,0,0-2,6.6,24.23,24.23,0,0,0-.11,11.32l.07.29a6.2,6.2,0,0,1,.27,1.43,6.72,6.72,0,0,1-.52,2.38l-.11.32A27.4,27.4,0,0,0,194,85.43l-.08.55a7,7,0,0,1-.91,2.93,3.16,3.16,0,0,1-2.27-.55,8,8,0,0,0-.93-.45,7,7,0,0,0-2.06-.37,5.62,5.62,0,0,1-1.74-.29c-.28-.1-.63-.19-1-.29a9.9,9.9,0,0,1-1.29-.41c-.32-.15-.67-.28-1-.42a9.18,9.18,0,0,1-1.27-.56,38.71,38.71,0,0,1-5.52-3.91,18.65,18.65,0,0,1-2.41-2.29c-.28-.34-.53-.69-.79-1.05a15.94,15.94,0,0,0-1.11-1.41,4.54,4.54,0,0,0-3-1.63,2.79,2.79,0,0,0-2.62,1.42,4.42,4.42,0,0,0-1.38-.33,2.17,2.17,0,0,0-1,.14,1.94,1.94,0,0,0-1.07,1.69,3.51,3.51,0,0,0,.06.8,1.3,1.3,0,0,0-.93.67,2,2,0,0,0,.18,1.88,9.74,9.74,0,0,0,3.64,3.34c.61.39,1.24.8,1.8,1.24s1.28,1.12,1.88,1.69a20.35,20.35,0,0,0,3.27,2.67,21.73,21.73,0,0,0,4.05,1.75l1.31.48c.66.23,1.29.47,2,.69a11.31,11.31,0,0,1,1.87.88c.38.21.76.42,1.15.6l1,.46c3.42,1.59,7,3.24,9.44,6a3.36,3.36,0,0,1,.6.85,3.17,3.17,0,0,1,.16.92,20.69,20.69,0,0,1-.23,3.48,22.8,22.8,0,0,0-.23,3.52c0,.73.13,1.45.22,2.15.06.4.11.79.15,1.18.13,1.2.14,2.45.16,3.66,0,.75,0,1.49,0,2.23.09,2.05.26,4.12.48,6.18l-8.46,1.74a22.82,22.82,0,0,1-2.73.44,21.69,21.69,0,0,1-3.22-.09l-9.61-.75c-.3-.57-.62-1.13-.94-1.69a3.48,3.48,0,0,1-.4-.83,3.53,3.53,0,0,1,0-1,34.49,34.49,0,0,0-.62-8.17.5.5,0,0,0-.39-.39,28.44,28.44,0,0,0-2.32-7.47,1.72,1.72,0,0,1-.14-.37h0a1.87,1.87,0,0,1,0-.48,35.45,35.45,0,0,0-.83-9.9.5.5,0,0,0-.35-.37.52.52,0,0,0-.5.14l-2.87,3c-.75.78-1.51,1.59-2.33,2.36a1.5,1.5,0,0,1-.47.35,1.69,1.69,0,0,1-.6,0,22,22,0,0,0-7.09.5l-.18,0-.11-.09-6.68-6a.52.52,0,0,0-.51-.1.51.51,0,0,0-.32.4l-1.37,9.38a24.17,24.17,0,0,1-.55,2.94c-.11.4-.24.79-.37,1.18a16.1,16.1,0,0,0-.56,1.9,19,19,0,0,0,.07,3.84.47.47,0,0,0,.2.35,30.49,30.49,0,0,0,.89,5.08q.16.69.33,1.44a2.49,2.49,0,0,0,.29.68,1.26,1.26,0,0,1,.19.5,4.13,4.13,0,0,1-.51,1.68c-.41.89-.8,1.79-1.16,2.67-3.84-.06-7.74,0-11.51,0s-7.65.06-11.47,0c-1.64,0-4-.19-6.44-.36-2.73-.19-5.55-.4-7.44-.39h-1.35c-7.09,0-13.21,0-19.12-.38a276.61,276.61,0,0,1-28.45-3.61c-.69-.12-1.32-.28-1.93-.43a7.75,7.75,0,0,0-5-.08,7.53,7.53,0,0,0-2.94,2.32c-.32.36-.64.72-1,1.07-3.49,3.31-7.15,6.62-10.69,9.82s-7.21,6.52-10.71,9.84a30,30,0,0,0-6,7,9.46,9.46,0,0,0-.35,8.76,4.76,4.76,0,0,1,.22.72,2.65,2.65,0,0,0,1,1.72,4.06,4.06,0,0,0,1.38.45,4.58,4.58,0,0,1,.75.19,16.84,16.84,0,0,0,2.24.59s0,.05,0,.08c.14,1.1.34,2.2.53,3.27s.38,2.14.51,3.21.18,2,.24,2.92.11,2,.24,3a76.8,76.8,0,0,0,2.77,12.41A32,32,0,0,1,11,191.55a.51.51,0,0,0-.59.4.5.5,0,0,0,.4.58A33.08,33.08,0,0,0,26,191.46l.15.49a.49.49,0,0,0,.48.36l.14,0a.5.5,0,0,0,.34-.62l-.15-.49a45.23,45.23,0,0,0,13.66-7A32.59,32.59,0,0,0,59,193.44,18.6,18.6,0,0,0,70.56,192a14.49,14.49,0,0,0,4.89-3.37,24,24,0,0,0,4.45,2.88l.76.42a22.56,22.56,0,0,0,5.42,2.37l2,.54c3.77,1,7.68,2.11,11.9,1.84a20.34,20.34,0,0,0,10.38-3.84,26.33,26.33,0,0,0,2.86-2.24,23.2,23.2,0,0,0,5.2,5.24,23.46,23.46,0,0,0,9.19,3.71,15.8,15.8,0,0,0,2.62.21c5.61,0,12.48-2.58,16.75-5.42l.63-.41a11.06,11.06,0,0,0,1.94-1.44c5.23,2.41,11.4,4.75,17.77,4.2,4.45-.38,12.36-4.17,16.3-6.81,3.48,1.66,8,3.57,12.75,4a48.36,48.36,0,0,0,8.43-.37,21.86,21.86,0,0,0,7.42-2.25,18.17,18.17,0,0,1,3.21-1.41,25.09,25.09,0,0,0,2.38-1,30.78,30.78,0,0,0,7.89-5.16c4.48,4.8,11.71,5.77,16.83,6.08a27.84,27.84,0,0,0,6.59-.7l.13,0,.86-.14a12.73,12.73,0,0,0,2.92-.72,15.42,15.42,0,0,0,4-2.92,17.37,17.37,0,0,1,3.45-2.65l.29-.19.29-.2a1.08,1.08,0,0,1,.18.16,2,2,0,0,0,.4.33c3.91,2.34,10,5,16.86,4.44a21.16,21.16,0,0,0,6.52-1.89,17,17,0,0,0,7.82-6.4,22.12,22.12,0,0,0,4.49,3.49l1,.62a15.54,15.54,0,0,0,5,1.91c.28.06.63.11,1,.16s1,.15,1.33.24A25.32,25.32,0,0,0,326,182a.5.5,0,0,0-.54-.84,24.67,24.67,0,0,1-19.54,3.11c-.41-.11-.93-.19-1.44-.27l-.92-.15a16.71,16.71,0,0,1-3.6-1.18c.67-1,1.44-2,2.25-3a59.51,59.51,0,0,0,4.22-6,96.24,96.24,0,0,0,4.7-9c2.13-4.63,4.32-9.42,6.07-14.32a98.09,98.09,0,0,0,5.13-26.91,20.9,20.9,0,0,0-.74-7.72c.74-.8,1.51-1.66,2.43-2.73,1.53-1.77,3.16-3.79,5-6.2a55.88,55.88,0,0,0,4.9-8c2.29-4.32,4.71-9.48,5.31-15C339.69,79,338.05,74.24,335.26,72.4Zm-71.92,71.07a3.4,3.4,0,0,0,1,.13,7.31,7.31,0,0,0,1.48-.19,60.15,60.15,0,0,0,6.88-1.85,19.14,19.14,0,0,1,2.55-.71,30.3,30.3,0,0,0,6.44-1.91,45.28,45.28,0,0,1,4.41-1.77l.2-.08c-.15.11-.29.21-.45.31a36.12,36.12,0,0,1-7.24,3.94c-1,.33-2.15.77-3.23,1.2s-2.28.9-3.33,1.24c-2.42.76-5,1.73-7.51,2.67l-2.35.87C262.6,146,263,144.75,263.34,143.47Zm26.64-9a30.92,30.92,0,0,1-4.27,1.78,45.52,45.52,0,0,0-4.52,1.82,28.9,28.9,0,0,1-6.16,1.81,21.43,21.43,0,0,0-2.69.75,58.79,58.79,0,0,1-6.77,1.82,4,4,0,0,1-2,.06c.44-1.7.82-3.42,1.2-5.18l.29-1.27a24.31,24.31,0,0,0,.74-4.78,46.38,46.38,0,0,0-.39-6.58,26.61,26.61,0,0,0,7.39-1c2.58-.74,5.21-1.41,7.82-2,1.5-.33,3-.63,4.5-.92,1.73-.35,3.46-.69,5.19-1.08a73.94,73.94,0,0,0,17.41-6l.91-.47a27.65,27.65,0,0,1,3.93-1.77l.88-.26c.51-.15,1-.29,1.53-.49a49,49,0,0,1-8.43,9.62,29.84,29.84,0,0,0-2.88,3.06c-.66.77-1.29,1.51-1.89,2.08a48.64,48.64,0,0,1-5.66,4.47c-.75.54-1.5,1.07-2.23,1.62ZM259.7,114.52a11.42,11.42,0,0,0-.45-1.22c-.2-.44-.4-.86-.61-1.28-.29-.59-.56-1.14-.76-1.66s-.44-1.22-.63-1.8a12.31,12.31,0,0,0-2.55-4.94c-.2-.21-.39-.42-.59-.62a11.38,11.38,0,0,1-1.76-2.17c-.39-.65-.89-1.83,0-2.41.58-.27,3.14,1.71,4.44,3.91.26.43.52.85.79,1.27a19.89,19.89,0,0,1,1.84,3.42c.43,1.11.91,2.22,1.39,3.3a35.27,35.27,0,0,1,1.76,4.56,81.75,81.75,0,0,1,1.85,9.91,46.19,46.19,0,0,1,.38,6.46,23.66,23.66,0,0,1-.72,4.57l-.28,1.28a74.52,74.52,0,0,1-2.92,10.67c-1.26.45-2.41.84-3.39,1.11,1.13-2.85,2.08-5.59,2.8-8.11,1.93-6.81,3-17.54-.32-25.42C259.89,115.09,259.8,114.81,259.7,114.52Zm-.35,26c-.36,1.3-.79,2.65-1.27,4a.46.46,0,0,0-.26,0,34.87,34.87,0,0,1-7,1.14h-.93c-.49,0-1,0-1.48,0a21.6,21.6,0,0,0-2.16.27l-.73.11a32.6,32.6,0,0,1-4.41.33c-.07-.94-.15-1.86-.24-2.78-.14-1.5-.29-3.05-.37-4.58s0-3.18,0-4.74c0-.7,0-1.4.07-2.1,0-1,0-2.11-.09-3.16a75.35,75.35,0,0,0,14.21-1.63,47.28,47.28,0,0,0,6.33-1.76A48.85,48.85,0,0,1,259.35,140.49Zm-18.13,6.91a33.52,33.52,0,0,0,4.48-.34l.75-.11a20.71,20.71,0,0,1,2.06-.26c.47,0,1,0,1.42,0h.95a34.61,34.61,0,0,0,6.83-1.08c-.43,1.18-.88,2.39-1.38,3.62h0c-3.63.91-8.88,1.88-13.19,2.67l-1.84.34A42.82,42.82,0,0,0,241.22,147.4Zm19.25-27.06a33.38,33.38,0,0,1,.57,4.28,48.18,48.18,0,0,1-6.47,1.81A74.8,74.8,0,0,1,240.5,128c-.13-1.62-.32-3.23-.51-4.82h0A127.5,127.5,0,0,0,260.47,120.34Zm-65.7-13.61a21.06,21.06,0,0,0,.22-3.65,3.23,3.23,0,0,0-1-2.38c-2.62-2.93-6.26-4.62-9.77-6.25l-1-.46c-.37-.18-.73-.38-1.09-.58a11.92,11.92,0,0,0-2-1c-.67-.22-1.3-.45-1.94-.68l-1.33-.48A22.23,22.23,0,0,1,173,89.64a19.1,19.1,0,0,1-3.1-2.55c-.62-.58-1.26-1.18-2-1.74a21.7,21.7,0,0,0-1.88-1.3,8.9,8.9,0,0,1-3.29-3,1.18,1.18,0,0,1-.17-1,.29.29,0,0,1,.16-.11.29.29,0,0,1,.14,0,.5.5,0,0,0,.63.24.5.5,0,0,0,.29-.61,4.06,4.06,0,0,1-.25-1.34,1,1,0,0,1,.48-.84,1.27,1.27,0,0,1,.57-.07,3.44,3.44,0,0,1,1.49.48.49.49,0,0,0,.47,0,.48.48,0,0,0,.28-.39,1.67,1.67,0,0,1,1.76-1.2,3.66,3.66,0,0,1,2.3,1.3,15.61,15.61,0,0,1,1,1.33c.27.37.54.75.83,1.1a20,20,0,0,0,2.54,2.42,38.71,38.71,0,0,0,5.66,4,8.74,8.74,0,0,0,1.4.63c.32.13.65.26.95.4a9.88,9.88,0,0,0,1.45.47c.34.09.66.17.92.26a6.66,6.66,0,0,0,2,.35,5.84,5.84,0,0,1,1.77.31,6,6,0,0,1,.81.39,3.94,3.94,0,0,0,3.18.59.51.51,0,0,0,.24-.17,7,7,0,0,0,1.21-3.53l.09-.53a26.57,26.57,0,0,1,1-4l.11-.31a7.28,7.28,0,0,0,.58-2.75,7.4,7.4,0,0,0-.3-1.65l-.07-.27a23.26,23.26,0,0,1,.12-10.87,31.37,31.37,0,0,1,2-6.39c.18-.39.41-.81.65-1.23a14,14,0,0,0,.94-1.9,16.55,16.55,0,0,0,1-3.57c.4-2.25,2.24-6,3.09-7.67l3,5.66a8.84,8.84,0,0,0,.55.89c.09.12.18.25.26.38a2.44,2.44,0,0,0,1.83.8,4.52,4.52,0,0,1,.59.1c.32.08.67.16,1,.23a5.88,5.88,0,0,1-.48.93,8.94,8.94,0,0,0-.44.8.39.39,0,0,0,.19.5.4.4,0,0,0,.15,0,.37.37,0,0,0,.34-.22,7.53,7.53,0,0,1,.41-.73,6.25,6.25,0,0,0,.57-1.16l.57.11.58.11a5.74,5.74,0,0,1-1.05,2.13.37.37,0,0,0,.05.52.38.38,0,0,0,.24.09.37.37,0,0,0,.29-.14A6.37,6.37,0,0,0,214,53.54l1.67.36-.15.14a2.44,2.44,0,0,0-.28.39,2.84,2.84,0,0,0-.21.62,1.63,1.63,0,0,1-.18.5.36.36,0,0,0,.08.52.34.34,0,0,0,.22.07.37.37,0,0,0,.3-.15,2,2,0,0,0,.31-.76,2.07,2.07,0,0,1,.14-.44,1.5,1.5,0,0,1,.19-.25,4.26,4.26,0,0,1,.43-.42,11.34,11.34,0,0,1,3.15,1.3.5.5,0,0,0,.59,0A20.58,20.58,0,0,1,224.16,53a27,27,0,0,0,2.51-1.42l-.38,5.15a9,9,0,0,1-.23,1.38A5.67,5.67,0,0,0,226,61c.21.7.45,1.46.7,2.24a53.89,53.89,0,0,1,1.54,5.4,42.72,42.72,0,0,1,.8,10.21c0,1.43,1.15,3.63,2,5.24.21.4.4.75.54,1,2.19,4.45,3.9,10.17,5.21,17.49A119,119,0,0,1,238.24,116l.1,1.35c.14,1.85.37,3.75.6,5.58a65.7,65.7,0,0,1,.71,9.29c0,.7,0,1.39-.07,2.08-.06,1.58-.12,3.21,0,4.83s.23,3.11.37,4.62a61.32,61.32,0,0,1,.39,8.69l-.62.11a22.54,22.54,0,0,0-3,.71c-.58.21-2.39.6-3,.73s-2.26.53-4.06,1-4.16,1-6.17,1.46a3.56,3.56,0,0,0-.95-2.74.5.5,0,0,0-.47-.17,6.3,6.3,0,0,1-1.16.06,8.51,8.51,0,0,1,0-.87,5.58,5.58,0,0,0-.07-1.48.46.46,0,0,0-.08-.19.91.91,0,0,0-1-.19h0a1,1,0,0,0,0-.15l.42-3.41a.51.51,0,0,0-.18-.45.51.51,0,0,0-.49-.08,2.94,2.94,0,0,1-.71.17c.43-1.42.94-2.83,1.51-4.2a.5.5,0,0,0-.13-.56.5.5,0,0,0-.57-.07,1.58,1.58,0,0,1-.5.18,13.35,13.35,0,0,1,1.63-3.38.5.5,0,0,0-.45-.78l-.63,0c.16-1.28,1-2.15,2.4-3.36a.5.5,0,0,0,0-.7.5.5,0,0,0-.71,0c-1.69,1.5-2.8,2.64-2.76,4.64a.53.53,0,0,0,.17.36.49.49,0,0,0,.36.13h.23a14.59,14.59,0,0,0-1.43,3.46.49.49,0,0,0,.06.39.49.49,0,0,0,.33.23,2.88,2.88,0,0,0,.65,0c-.51,1.31-1,2.65-1.36,4a.53.53,0,0,0,.07.42.49.49,0,0,0,.37.21,4.36,4.36,0,0,0,1,0l-.33,2.67a1.6,1.6,0,0,0,.12,1c.22.38.66.33,1,.27,0,.26,0,.55,0,.83a6,6,0,0,0,.06,1.48.5.5,0,0,0,.41.38,6.17,6.17,0,0,0,1.55,0,2.5,2.5,0,0,1,.58,1.65c0,.1-.09.22-.37.31a.5.5,0,0,0-.31.31c-1.18.26-2.19.46-2.84.56-1.37.21-2.75.45-4.13.69-2,.35-4.08.71-6.11,1-1.63.2-3.29.35-4.9.5l-2,.18a17,17,0,0,0-2.09.38,15.58,15.58,0,0,1-1.93.34c-1.36.12-2.86.29-4.42.49a14.37,14.37,0,0,1,.33-3.43.5.5,0,0,0-.25-.56.48.48,0,0,0-.48,0c0-.11.05-.22.07-.32a6,6,0,0,1,.39-1.27.53.53,0,0,0-.17-.62.51.51,0,0,0-.64.05,1.83,1.83,0,0,1-.31.26,24.1,24.1,0,0,0,1.41-4.36.49.49,0,0,0-.2-.52.5.5,0,0,0-.55,0l-.37.23a10,10,0,0,1,1-3.92.49.49,0,0,0-.14-.6.51.51,0,0,0-.63,0l-.48.39a9.64,9.64,0,0,1,1-2.46,10.84,10.84,0,0,0,.93-2.29.51.51,0,0,0-.2-.54.47.47,0,0,0-.4-.07,12.53,12.53,0,0,1,2.06-3.57,7.8,7.8,0,0,0,1-1.44,2.28,2.28,0,0,0,.1-1.74c0-.1-.05-.2-.07-.31a103.44,103.44,0,0,1-1.68-14.47c0-.73,0-1.46,0-2.19,0-1.23,0-2.5-.16-3.76,0-.4-.1-.8-.16-1.2-.09-.68-.18-1.38-.21-2.06A21.09,21.09,0,0,1,194.77,106.73Zm-15.31,56.2c-.15-1.21-.31-2.41-.46-3.6q-.28-2.27-.57-4.5a12.54,12.54,0,0,1,2.63.19,16,16,0,0,0,2.31.22,6.66,6.66,0,0,0,1.33-.13l.67-.17a4.49,4.49,0,0,1,1.09-.22,4.64,4.64,0,0,1,.64,0,2.85,2.85,0,0,0,1.77-.26l.17-.11a.76.76,0,0,1,.16-.11,1.19,1.19,0,0,1,.25,0l2,.32c-.1.22-.18.46-.29.68a.5.5,0,0,0,0,.46.51.51,0,0,0,.38.25l.17,0a2.8,2.8,0,0,0,.49,0,2.46,2.46,0,0,1-.07.29,8.31,8.31,0,0,1-.43,1.47.51.51,0,0,0,.54.69l.33-.08a18.57,18.57,0,0,0-.12,2.58c-3,.4-6.2.89-9.35,1.38Zm16.35-29c0,.12.05.24.08.36a1.36,1.36,0,0,1,0,1.08,7.23,7.23,0,0,1-.9,1.29,15.74,15.74,0,0,0-2.73,5.24.48.48,0,0,0,.16.56.47.47,0,0,0,.45.09l-.35.7a9.36,9.36,0,0,0-1.22,4,.51.51,0,0,0,.27.47.52.52,0,0,0,.55-.06h0a12.38,12.38,0,0,0-.45,3.52.49.49,0,0,0,.26.44.49.49,0,0,0,.51,0l.11-.07c-.2.71-.44,1.4-.7,2.09a.44.44,0,0,0-.16-.06l-2-.32a1.55,1.55,0,0,0-.68,0,1.71,1.71,0,0,0-.47.25l-.11.08a2,2,0,0,1-1.17.11,6.61,6.61,0,0,0-.76,0,5.62,5.62,0,0,0-1.32.26c-.2.05-.4.11-.6.15a9.45,9.45,0,0,1-3.3-.1,12.75,12.75,0,0,0-2.9-.19,110.8,110.8,0,0,0-2.9-15c-.41-1.49-.9-3-1.43-4.42l1.3,0c5.87,0,12.9-.64,16.82-1.06l3.56-.37C195.7,133.33,195.75,133.65,195.81,134Zm-15.7-5.35c.78.07,1.59.13,2.4.13.32,0,.64,0,1,0a22,22,0,0,0,2.85-.45l8.36-1.72c.21,1.84.48,3.68.79,5.5l-3.49.37a160.91,160.91,0,0,1-18.39,1,56.84,56.84,0,0,0-2.49-5.52ZM153,117.39a.2.2,0,0,1-.16,0,2.26,2.26,0,0,1-.87-1,4.43,4.43,0,0,1,1.26,0l.13,0a.34.34,0,0,1,0,.24A1.06,1.06,0,0,1,153,117.39Zm3.28-3.8c-.56.06-.67,0-.69,0s-.09-.1-.07-.61a6.52,6.52,0,0,1,.44-2.71,1.28,1.28,0,0,1,.19-.3,1.59,1.59,0,0,1,.32-.16,2.41,2.41,0,0,0,.53-.27,2.33,2.33,0,0,0,.38-.4l.16-.18a.84.84,0,0,1,.49-.24h.19a2.17,2.17,0,0,0,.54-.06,1.93,1.93,0,0,0,.88-.68l0,0a1,1,0,0,0,.4.26.94.94,0,0,0,.66,0l.37.6.05.07v.09l-.06.54a8.27,8.27,0,0,1-.68,2.9c0,.11-.08.13-.09.12a.94.94,0,0,0-.43.12,1,1,0,0,0-.4.57c-.15.38-.69.54-1.18.54a5,5,0,0,1-.77-.07,9,9,0,0,0-.92-.07Zm-11.86-5a1.24,1.24,0,0,0,.11-.28l.68,0a.81.81,0,0,1,.24,0v0c.12.69.52.74.75.71a.49.49,0,0,0,.44-.5,1.59,1.59,0,0,1,.1-.78.52.52,0,0,1,.16-.12,1.2,1.2,0,0,1,0,.36,1.66,1.66,0,0,0,.2.94.5.5,0,0,0,.49.23.53.53,0,0,0,.31-.17,1.8,1.8,0,0,0,.08.21,2.48,2.48,0,0,0,1,1,3.08,3.08,0,0,1,.41.3,1.54,1.54,0,0,1,.52,1.24.41.41,0,0,0-.05-.09l-.68-.72a4.3,4.3,0,0,0-.74-.66,4.61,4.61,0,0,0-.86-.43l-1.31-.53a2.3,2.3,0,0,0-1.24-.25,1.11,1.11,0,0,0-1,.7c-.28.8.44,1.85.75,2.19h0a3.47,3.47,0,0,0,1.07.68l.1,0a2.39,2.39,0,0,0,1,.19h.38a4.3,4.3,0,0,0,2.39-.64h0a1.55,1.55,0,0,1-.94.93,3.48,3.48,0,0,1-1,.14l-1,.05a1.65,1.65,0,0,1-1.82-.66l-.5-.52a3.74,3.74,0,0,1-1.32-2.07,2.26,2.26,0,0,1,.17-1.06l.13,0A.75.75,0,0,0,144.43,108.58Zm2.48,2.61a.54.54,0,0,0,.44.2h.06a.75.75,0,0,0,.65-.53,4,4,0,0,1,.6.56l.36.37a4.45,4.45,0,0,1-1.6.28,2.39,2.39,0,0,1-1.09-.11l-.1,0a2.7,2.7,0,0,1-.82-.49c-.33-.36-.72-1.1-.6-1.44,0,0,.05-.16.36-.2a1.71,1.71,0,0,1,.85.19l.87.36a1,1,0,0,0-.1.6A.59.59,0,0,0,146.91,111.19Zm4.81,5.13h0l-.21.1Zm15.75,0Zm-25.08,9.82a4.88,4.88,0,0,0,.6-2.1,2.09,2.09,0,0,0-.31-1,2.19,2.19,0,0,1-.19-.43c-.12-.5-.23-1-.34-1.45a29.11,29.11,0,0,1-.86-4.92,1.5,1.5,0,0,0,.84-.82l.08,0a2.88,2.88,0,0,0,1.62.33,2.91,2.91,0,0,1,1,.13l.19.1a1.71,1.71,0,0,0,.77.26,1.58,1.58,0,0,0,.58-.11l1.28-.4a.48.48,0,0,0,.36.34,2.35,2.35,0,0,0,2-.43l.08-.06.13-.1s.2.16.34.5a.52.52,0,0,0,.5.31h0a1,1,0,0,0,.07.22h0c.11.22.66,1.29,1.39,1.54a12.11,12.11,0,0,0,.21,2,1.64,1.64,0,0,0-.39.31,3.58,3.58,0,0,0-.3.36c-.1.11-.19.23-.3.34s-.11.13-.16.19-.2.23-.28.24a.37.37,0,0,0,0,.74h.05a1.19,1.19,0,0,0,.75-.5l.13-.15c.12-.12.23-.26.34-.39a4.15,4.15,0,0,1,.27-.32.39.39,0,0,1,.1-.08.32.32,0,0,0,.2.07h.08a.37.37,0,0,0,.18-.11,8.06,8.06,0,0,0,1.84.71.38.38,0,0,0,.18-.73,7.49,7.49,0,0,1-1.68-.65,1.92,1.92,0,0,0-.32-.14,12.39,12.39,0,0,1-.21-1.93l.08,0a1.91,1.91,0,0,0,.73-1.18,1.11,1.11,0,0,0-.12-.71l.77-.06a1,1,0,0,1,.54,0,.43.43,0,0,1,.09.1,1.36,1.36,0,0,0,.35.3,1,1,0,0,0,.48.12,1.33,1.33,0,0,0,.83-.32,2.13,2.13,0,0,0,.3-.3,2,2,0,0,1,.26-.24.66.66,0,0,1,.79,0,.84.84,0,0,0,.37.2c.6.12.82-.47.89-.66l.05-.12c0-.08.35-.08.58-.08a2.13,2.13,0,0,0,1.25-.27,2,2,0,0,0,.39-.38.93.93,0,0,1,.19-.2,1.2,1.2,0,0,1,.24,0l.22,0a1.73,1.73,0,0,0,1.18-.38,2.48,2.48,0,0,0,.79.82l.24.14c.17.08.34.18.37.26a.5.5,0,0,1,0,.13,1.27,1.27,0,0,0,.13.39,1.25,1.25,0,0,0,1.27.56c.1,0,.2,0,.3,0a1.17,1.17,0,0,1,.45,0l0,0,0,.19a.5.5,0,0,0,.4.43,34.46,34.46,0,0,1,.34,6.44,4.33,4.33,0,0,0,.07,1.28,4.43,4.43,0,0,0,.52,1.12,57.64,57.64,0,0,1,3.89,8.17v0a.52.52,0,0,0,.15.38c.61,1.59,1.16,3.2,1.62,4.83,1.86,6.66,2.69,13.31,3.57,20.35.15,1.19.3,2.4.46,3.62-5.26.78-9.89,1.38-12.5,1.24a105.8,105.8,0,0,1-13.28-.6l-.31,0a15.28,15.28,0,0,0-5.86.08,17.31,17.31,0,0,1-2.08.29,17.88,17.88,0,0,1-3.61-.27c-.73-.1-1.49-.21-2.24-.26s-1.61-.05-2.41,0l0-7.82c0-1.62,0-3.28.13-4.91.14-1.93.45-3.88.75-5.76.44-2.8.9-5.69,1.59-8.48A59.34,59.34,0,0,1,142.39,126.12Zm-7,24.56c-.06.81-.09,1.62-.11,2.43A123,123,0,0,1,121,154.35c-3.62,0-7.3-.28-10.86-.57l-15.18-1.23c-2.83-.23-5.73-.53-8.6-.89-1.49-.19-2.77-.46-4-.72a32.92,32.92,0,0,0-4.11-.68c-1.32-.12-2.59-.15-3.82-.17a27.86,27.86,0,0,1-6.93-.74c-1.43-.38-2.47-.57-3.92-.83-1-.2-2.28-.42-4-.79a102.26,102.26,0,0,1-5.6-16.26h0l21.5,2.22c.68.07,1.39.1,2.08.12s1.34,0,2,.11a14.11,14.11,0,0,1,1.62.28,16.26,16.26,0,0,0,1.72.3c1,.11,2.21.24,3.43.39,2.06.24,4.18.49,5.91.61a135.35,135.35,0,0,0,14.08.15l2.72-.06c6.28-.13,15.12-.25,19.48.19.65.06,1.23.14,1.8.21.72.1,1.43.19,2.25.26a39,39,0,0,0,3.91,0l1.26,0v0c-.71,2.83-1.17,5.74-1.61,8.57C135.8,146.75,135.49,148.72,135.35,150.68ZM52.9,131.52A103.18,103.18,0,0,0,58.56,148c-1.06,1.41-1.91,2.66-2.8,4-1.27,1.87-2.58,3.81-4.67,6.42a95.18,95.18,0,0,1-20.1-4c-.46-.15-.48-.26-.48-.26a.92.92,0,0,1,.23-.5c2.45-2.85,5.18-5.53,7.82-8.13l2.63-2.61a12.62,12.62,0,0,0,1.06-1.28,9.33,9.33,0,0,1,1-1.21c1.22-1.2,2.66-2.48,4.06-3.72.9-.81,1.8-1.6,2.61-2.36a15.45,15.45,0,0,0,1.15-1.18A15.84,15.84,0,0,1,52.23,132,2.51,2.51,0,0,1,52.9,131.52Zm3.69,21c.87-1.29,1.69-2.51,2.72-3.86,1.75.37,3,.6,4,.79,1.43.26,2.45.45,3.84.82a28.62,28.62,0,0,0,7.17.77c1.21,0,2.47,0,3.75.16a33.72,33.72,0,0,1,4,.67c1.25.26,2.55.54,4.09.73,2.88.36,5.79.66,8.63.89L110,154.78c3.42.28,7,.57,10.45.57H121a121.87,121.87,0,0,0,14.25-1.23c0,.51,0,1,0,1.54l0,7.85a24.41,24.41,0,0,1-3.42,0c-.75-.07-1.52-.22-2.26-.36a21.46,21.46,0,0,0-3-.42,9.91,9.91,0,0,0-2.5.25,14,14,0,0,1-1.67.24A29.14,29.14,0,0,1,118,163l-1.86-.15c-2-.12-4-.19-5.89-.25s-3.89-.13-5.86-.25a24.76,24.76,0,0,1-2.57-.34c-.81-.13-1.64-.27-2.51-.33-2.29-.17-4.66-.26-7-.36-2.13-.08-4.33-.18-6.46-.32-1.39-.1-2.64-.11-3.86-.12s-2.45,0-3.82-.12c-1-.06-2.07-.24-3.2-.42-1-.16-1.93-.31-2.87-.41-1.75-.17-3.62-.24-5.43-.31-1.35-.05-2.63-.1-3.83-.19-3.59-.26-7.12-.52-10.6-.87C54.15,156.16,55.39,154.33,56.59,152.57Zm264.7-29.23A96.64,96.64,0,0,1,316.21,150c-1.73,4.85-3.91,9.63-6,14.24a97.82,97.82,0,0,1-4.65,8.9,59.83,59.83,0,0,1-4.15,5.9c-.85,1.11-1.65,2.15-2.35,3.17l-.17-.1c-.32-.22-.64-.42-1-.63a18.31,18.31,0,0,1-4.72-3.83.51.51,0,0,0-.83.07,15.73,15.73,0,0,1-7.72,6.6,20.51,20.51,0,0,1-6.19,1.81c-6.59.55-12.48-2-16.27-4.31a1,1,0,0,1-.2-.17,1.19,1.19,0,0,0-.9-.46,1.69,1.69,0,0,0-.85.38l-.19.13a18,18,0,0,0-3.65,2.79,14.21,14.21,0,0,1-3.75,2.74,11.31,11.31,0,0,1-2.68.65l-.87.15-.13,0a27.81,27.81,0,0,1-6.35.68c-5.07-.31-12.29-1.27-16.48-6.12a.5.5,0,0,0-.36-.18.53.53,0,0,0-.37.15,29.28,29.28,0,0,1-8,5.33,22.23,22.23,0,0,1-2.29.92,19.36,19.36,0,0,0-3.4,1.51,21.1,21.1,0,0,1-7,2.09,47.3,47.3,0,0,1-8.24.37c-4.68-.38-9.22-2.33-12.66-4a.52.52,0,0,0-.5,0c-3.66,2.53-11.74,6.44-16.05,6.81-6.27.54-12.42-1.86-17.59-4.27a.51.51,0,0,0-.58.12,9.53,9.53,0,0,1-2,1.54l-.65.42c-4.8,3.19-13,6-18.63,5A22.34,22.34,0,0,1,119,195a22.92,22.92,0,0,1-5.3-5.48.51.51,0,0,0-.38-.2.48.48,0,0,0-.39.16A21.23,21.23,0,0,1,109.8,192a19.37,19.37,0,0,1-9.87,3.66c-4.06.26-7.88-.79-11.58-1.8l-2-.55A21.89,21.89,0,0,1,81.14,191l-.76-.42a19.83,19.83,0,0,1-4.63-3.1.53.53,0,0,0-.41-.15.5.5,0,0,0-.37.22c-1.06,1.63-3.35,2.76-4.86,3.5a17.6,17.6,0,0,1-11,1.4A31.4,31.4,0,0,1,41,183.12a.49.49,0,0,0-.67-.05,44.1,44.1,0,0,1-13.69,7.15A74.6,74.6,0,0,1,23.93,178c-.12-1-.18-2-.24-2.91s-.11-2-.23-3-.34-2.2-.53-3.27-.35-2-.48-3C26,166.48,31,167,35.26,167.4c2.25.23,4.19.42,5.51.6,1.62.22,3.5.58,5.68,1a151.35,151.35,0,0,0,22.23,2.89,15.39,15.39,0,0,1,2.19.31,18.15,18.15,0,0,0,2.18.31c2.74.18,5.52.27,8.2.36,2.88.09,5.86.19,8.8.39,9.06.63,16,1.27,21.72,2a41.74,41.74,0,0,0,7.32.12c1.08,0,2.18-.09,3.31-.09.31,0,1.31,0,2.77.06,3.82.11,10.93.32,16.67.29,2.33,0,4.73,0,7.16,0h5c4.43,0,8.9-.05,13.24-.27,2.57-.14,5.08-.47,7.52-.79a65.68,65.68,0,0,1,8.1-.76,52.47,52.47,0,0,0,7.45-.87c1-.17,2-.33,3-.46,1.49-.21,2.89-.35,4.24-.49,2-.21,3.87-.4,6-.77,3.84-.66,7.72-1.45,11.49-2.22,3.15-.64,6.41-1.31,9.61-2,2.16-.48,4.07-1,6.08-1.52,1.42-.38,2.84-.76,4.38-1.13l.46-.11a74.66,74.66,0,0,0,7.72-2.15c.8-.29,1.61-.63,2.43-1a30,30,0,0,1,4.82-1.68c1.07-.24,2.4-.51,3.89-.81,6.25-1.24,14.81-2.94,19.19-5.59a28.82,28.82,0,0,1,4.77-2.19c.65-.25,1.31-.51,2-.79a25.36,25.36,0,0,0,5.79-3c.66-.5,1.26-1.05,1.85-1.59a15.7,15.7,0,0,1,2.72-2.17,8.26,8.26,0,0,1,1.77-.69,6.4,6.4,0,0,0,2.67-1.3,24.33,24.33,0,0,1,3.09-2.49l1.09-.79A43.31,43.31,0,0,0,303.9,134c.55-.54,1.1-1.08,1.68-1.61l1.37-1.26c.92-.84,1.87-1.7,2.76-2.6a69.75,69.75,0,0,0,4.64-5.34,16.37,16.37,0,0,1,1.21-1.23c.4-.39.81-.79,1.14-1.14l2.4-2.52c.58-.6,1.12-1.16,1.65-1.73A20.84,20.84,0,0,1,321.29,123.34Zm16.89-39.63c-.57,5.32-2.95,10.37-5.2,14.61a54.31,54.31,0,0,1-4.81,7.83c-1.81,2.38-3.43,4.4-4.95,6.15-.88,1-1.64,1.87-2.36,2.65h-.06a.48.48,0,0,0-.33.41c-.69.74-1.35,1.43-2.09,2.2s-1.49,1.55-2.41,2.53c-.32.34-.72.72-1.11,1.1a18.59,18.59,0,0,0-1.3,1.34s-2.32,3-4.56,5.25c-.87.88-1.81,1.73-2.72,2.56l-1.39,1.27-1.69,1.63a43.31,43.31,0,0,1-4.48,4l-1.07.77a25,25,0,0,0-3.2,2.59,5.53,5.53,0,0,1-2.28,1.06,10.05,10.05,0,0,0-2,.78,17.59,17.59,0,0,0-2.89,2.3c-.57.52-1.16,1.07-1.77,1.53a24.65,24.65,0,0,1-5.58,2.9c-.66.28-1.31.53-1.95.78a29.31,29.31,0,0,0-4.92,2.26c-4.24,2.56-13.05,4.31-18.87,5.47-1.5.3-2.84.57-3.92.81a31.56,31.56,0,0,0-5,1.73c-.81.33-1.6.66-2.4.95a75.31,75.31,0,0,1-7.6,2.12l-.47.11c-1.54.38-3,.76-4.39,1.13-2,.54-3.91,1-6,1.51-3.19.7-6.44,1.37-9.6,2-3.75.77-7.62,1.56-11.45,2.21-2.1.37-4,.56-5.93.76-1.36.14-2.77.29-4.28.5-.95.13-2,.29-3,.46a51.24,51.24,0,0,1-7.3.86,65.32,65.32,0,0,0-8.23.77c-2.41.32-4.9.65-7.44.78-5.94.31-12.16.28-18.18.26-2.43,0-4.83,0-7.17,0-5.72,0-12.82-.18-16.63-.29-1.49,0-2.51-.07-2.81-.06-1.14,0-2.25.05-3.35.09a41.58,41.58,0,0,1-7.14-.11c-5.78-.74-12.7-1.37-21.78-2-3-.2-6-.3-8.84-.39-2.67-.09-5.44-.18-8.16-.36a15.9,15.9,0,0,1-2.07-.3,18.32,18.32,0,0,0-2.31-.32A150.57,150.57,0,0,1,46.63,168c-2.18-.42-4.07-.78-5.73-1-1.34-.18-3.28-.37-5.54-.6-5.5-.55-13-1.3-15.83-2.31a6.14,6.14,0,0,0-.89-.23,3.24,3.24,0,0,1-1.05-.33c-.27-.16-.4-.65-.52-1.12a6.31,6.31,0,0,0-.28-.87,8.47,8.47,0,0,1,.32-7.87,29.08,29.08,0,0,1,5.8-6.77c3.49-3.31,7.15-6.63,10.69-9.83s7.21-6.52,10.7-9.84c.38-.36.73-.75,1.07-1.12a6.66,6.66,0,0,1,2.54-2.05,6.75,6.75,0,0,1,4.46.11c.62.15,1.27.32,2,.44a274.66,274.66,0,0,0,28.55,3.63c5.94.39,12.07.38,19.18.38h1.35c1.87,0,4.66.19,7.37.38,2.48.18,4.82.34,6.5.37,3.83.06,7.72,0,11.49,0s7.4,0,11.11,0a59.17,59.17,0,0,0-1.94,5.87l-1.56,0c-1.25,0-2.66.06-3.8,0-.81-.07-1.5-.16-2.21-.26l-1.83-.22c-4.36-.44-12.77-.33-19.6-.19l-2.72.06a133.35,133.35,0,0,1-14-.15c-1.71-.12-3.83-.37-5.87-.61-1.23-.14-2.41-.28-3.45-.38-.53-.06-1.06-.17-1.62-.29a15.64,15.64,0,0,0-1.71-.3c-.68-.07-1.38-.09-2.06-.11s-1.36-.05-2-.11l-21.5-2.22a2.56,2.56,0,0,0-2.51.78,15.69,15.69,0,0,0-1.23,1.26c-.33.36-.65.71-1.09,1.12-.81.75-1.7,1.54-2.6,2.34-1.4,1.25-2.85,2.54-4.09,3.75a11.51,11.51,0,0,0-1.11,1.33,9.36,9.36,0,0,1-1,1.17c-.87.88-1.75,1.74-2.63,2.6-2.65,2.62-5.39,5.32-7.87,8.2a1.78,1.78,0,0,0-.46,1.3c.11.72.9,1,1.16,1.07,10.53,3.44,21,4.21,32.12,5,1.22.09,2.5.14,3.86.19,1.8.07,3.65.14,5.38.31.9.09,1.87.24,2.8.4,1.1.17,2.24.36,3.29.43,1.4.1,2.66.11,3.88.12s2.44,0,3.8.12c2.14.14,4.35.23,6.49.32s4.64.19,6.91.36c.83.06,1.64.19,2.42.32s1.75.29,2.67.35c2,.12,4,.18,5.9.25s3.88.13,5.86.25l1.84.15a30.83,30.83,0,0,0,4.47.18,13.27,13.27,0,0,0,1.79-.26,9.94,9.94,0,0,1,2.27-.24,23.09,23.09,0,0,1,2.89.41c.76.15,1.55.3,2.34.38a28.92,28.92,0,0,0,3.72,0,29.9,29.9,0,0,1,3.14,0c.72.05,1.46.16,2.17.26a19.28,19.28,0,0,0,3.81.28,21.79,21.79,0,0,0,2.19-.3,18.12,18.12,0,0,1,2-.28,18.51,18.51,0,0,1,3.56.21l.32,0a107.77,107.77,0,0,0,13.38.6c.26,0,.54,0,.84,0a97.14,97.14,0,0,0,12.1-1.31l.15,0h.06a.4.4,0,0,0,.21-.09l3.93-.6c5.16-.79,10.5-1.61,14.7-2A15.43,15.43,0,0,0,200,161a16.1,16.1,0,0,1,2-.35l2-.18c1.62-.15,3.29-.3,4.93-.51,2.05-.26,4.14-.63,6.16-1,1.37-.23,2.75-.47,4.11-.68,2-.3,7.05-1.53,10.74-2.42,1.79-.44,3.29-.8,4.06-1a30.94,30.94,0,0,0,3.11-.76,23.87,23.87,0,0,1,2.8-.67l.81-.15.07,0a.46.46,0,0,0,.3-.09l2.27-.42c4.71-.86,10.56-1.94,14.21-2.93,1.11-.3,2.46-.76,3.93-1.29h.05c1.06-.38,2.18-.8,3.33-1.24,2.49-.93,5.06-1.89,7.46-2.65,1.09-.34,2.26-.81,3.4-1.26s2.16-.85,3.16-1.18a37.06,37.06,0,0,0,7.51-4.06c1.6-1.11,2.88-2,4.16-2.95l.08,0,0-.05c1.19-.86,2.39-1.75,3.86-2.85.73-.54,1.47-1.07,2.21-1.6a51,51,0,0,0,5.77-4.56c.64-.61,1.28-1.37,2-2.16a26.79,26.79,0,0,1,2.76-3A45.3,45.3,0,0,0,317.14,109a4.06,4.06,0,0,0,.56-1.24.51.51,0,0,0-.34-.6.49.49,0,0,0-.61.29c-.14.34-.3.69-.48,1.06a3.32,3.32,0,0,1-1.19,1.06,11.28,11.28,0,0,1-1.88.66c-.31.08-.61.17-.91.27a27.39,27.39,0,0,0-4.09,1.83l-.9.47a73,73,0,0,1-17.18,5.94c-1.72.38-3.44.72-5.16,1.06-1.51.3-3,.6-4.52.93-2.64.58-5.29,1.25-7.89,2a26.16,26.16,0,0,1-7.25,1c-.19-1.34-.41-2.76-.68-4.25a24.37,24.37,0,0,0,5.82-.86c.93-.24,1.94-.44,3-.66s2.35-.47,3.64-.8c2.41-.6,4.34-1,6.21-1.45,2.15-.48,4.18-.93,6.67-1.59,1.27-.34,2.47-.63,3.65-.93a88.94,88.94,0,0,0,14-4.42l1.52-.61a31.81,31.81,0,0,0,5.1-2.35,37.2,37.2,0,0,0,4.3-3.24s1-.8,1.88-1.53a41.94,41.94,0,0,0,5.94-6.33c2.13-2.76,6.5-9.61,6.46-13.11a4.4,4.4,0,0,0-2.34-4.06,4.94,4.94,0,0,0-5.17.79l-.26.21c-.44.37-1.18,1-1.83.87a1.66,1.66,0,0,1-1-1c-.38-.68.26-2.49,1.77-3.42,2.76-1.69,6.93-4.26,10.72-1.75C337.16,74.85,338.65,79.36,338.18,83.71Z"/><path d="M308.76,83.44a.38.38,0,0,0,.3-.6,5.81,5.81,0,0,1-1.05-2.4.38.38,0,1,0-.74.14,6.57,6.57,0,0,0,1.19,2.7A.37.37,0,0,0,308.76,83.44Z"/><path d="M310.19,79.35c.38.19.44.82.49,1.37v.11a2.69,2.69,0,0,0,1.06,1.75.38.38,0,0,0,.25.09.35.35,0,0,0,.28-.13.38.38,0,0,0,0-.53,1.86,1.86,0,0,1-.81-1.25v-.12c-.07-.7-.16-1.58-.9-2a.38.38,0,0,0-.51.17A.37.37,0,0,0,310.19,79.35Z"/><path d="M342.69,65.62a2.91,2.91,0,0,0-1.39-2,.37.37,0,0,0-.29.69c.52.23.77.92,1,1.55l1.12,3.69a.38.38,0,0,0,.36.27l.11,0a.38.38,0,0,0,.25-.47Z"/><path d="M348.46,66.39a8.62,8.62,0,0,0-1-2.27l-.19-.28a5,5,0,0,1-.48-.82,5.31,5.31,0,0,1-.3-1.75.37.37,0,0,0-.39-.35.38.38,0,0,0-.36.4,4.54,4.54,0,0,0,.91,2.94l.18.27a7.9,7.9,0,0,1,.94,2.07.38.38,0,0,0,.36.27h.11A.38.38,0,0,0,348.46,66.39Z"/><path d="M328.32,133a.37.37,0,0,0-.23.71.63.63,0,0,1,.36.45,2.11,2.11,0,0,1,0,.83c0,.26-.08.52-.14.83l-.27,1.57a.37.37,0,0,0,.31.43h.06a.38.38,0,0,0,.37-.31l.28-1.62c.05-.27.1-.54.13-.81a2.82,2.82,0,0,0,0-1.12A1.37,1.37,0,0,0,328.32,133Z"/><path d="M332.67,134.52a2.2,2.2,0,0,0-.06-.58l-.15-.47a2.5,2.5,0,0,1-.2-1,.38.38,0,0,0-.36-.39.37.37,0,0,0-.39.36,3.25,3.25,0,0,0,.24,1.26,4.56,4.56,0,0,1,.14.44,1.94,1.94,0,0,1,0,.38,2.4,2.4,0,0,0,.06.6,7.31,7.31,0,0,1,.31,1.86.38.38,0,0,0,.38.36h0A.38.38,0,0,0,333,137a7.85,7.85,0,0,0-.34-2.05A1.51,1.51,0,0,1,332.67,134.52Z"/><path d="M286.27,194.15a.38.38,0,0,0-.25.47c.29.93-.34,1.93-1.06,2.88s-1.36,1.78-2.09,2.63l-.21.23a11.75,11.75,0,0,0-1,1.23,5.82,5.82,0,0,0-.71,1.54.37.37,0,0,0,.25.46l.11,0a.38.38,0,0,0,.36-.27,5.25,5.25,0,0,1,.62-1.34,9.57,9.57,0,0,1,.92-1.14l.21-.24c.74-.86,1.44-1.78,2.11-2.66.85-1.11,1.57-2.31,1.19-3.56A.38.38,0,0,0,286.27,194.15Z"/><path d="M291.87,194.93a2.3,2.3,0,0,0-.56,1.38l-.05.27a3.67,3.67,0,0,1-1.33,2.19.36.36,0,0,0-.07.52.36.36,0,0,0,.3.15.4.4,0,0,0,.23-.08,4.36,4.36,0,0,0,1.61-2.64l.05-.29a1.67,1.67,0,0,1,.34-1,.37.37,0,1,0-.52-.54Z"/><path d="M297.77,195.34a.38.38,0,0,0-.48.22,15.67,15.67,0,0,1-1.76,3.4.37.37,0,0,0,.09.52.44.44,0,0,0,.22.07.36.36,0,0,0,.3-.17,15.88,15.88,0,0,0,1.86-3.56A.38.38,0,0,0,297.77,195.34Z"/><path d="M304.24,196.05a.37.37,0,0,0-.38.38,2.09,2.09,0,0,1-.17,1.06,2.34,2.34,0,0,1-.25.3,2.73,2.73,0,0,0-.23.25,1.18,1.18,0,0,0-.26,1.06.38.38,0,0,0,.36.26.25.25,0,0,0,.12,0,.38.38,0,0,0,.24-.47.44.44,0,0,1,.13-.36l.18-.21a2,2,0,0,0,.34-.42,2.64,2.64,0,0,0,.29-1.46A.38.38,0,0,0,304.24,196.05Z"/><path d="M243.17,201.8a.38.38,0,0,0-.29.45,1,1,0,0,1-.18.78.38.38,0,0,0,.07.52.4.4,0,0,0,.23.08.37.37,0,0,0,.3-.15,1.75,1.75,0,0,0,.31-1.38A.37.37,0,0,0,243.17,201.8Z"/><path d="M237.38,200.4a.38.38,0,0,0-.28.45,1.74,1.74,0,0,1-.22,1.26,6.7,6.7,0,0,1-.91,1.17l-.94,1a.37.37,0,0,0,0,.53.35.35,0,0,0,.25.1.39.39,0,0,0,.28-.12l.93-1a6.7,6.7,0,0,0,1-1.33,2.53,2.53,0,0,0,.29-1.79A.37.37,0,0,0,237.38,200.4Z"/><path d="M232.34,201a7.23,7.23,0,0,0-1.48,2.12l-.11.25a3.52,3.52,0,0,1-.44.79.79.79,0,0,1-.72.32.38.38,0,0,0-.47.25.39.39,0,0,0,.26.47,1.12,1.12,0,0,0,.32,0,1.59,1.59,0,0,0,1.19-.6,3.73,3.73,0,0,0,.54-1l.11-.23a6.32,6.32,0,0,1,1.33-1.91.39.39,0,0,0,0-.53A.37.37,0,0,0,232.34,201Z"/><path d="M226.17,199.31a.38.38,0,0,0-.35.4c.13,1.41-.92,2.95-1.95,4.27l-.45.54a6.48,6.48,0,0,0-1.39,2.2.38.38,0,0,0,.26.47l.1,0a.37.37,0,0,0,.36-.27A5.92,5.92,0,0,1,224,205c.16-.18.32-.37.47-.56,1.12-1.43,2.26-3.12,2.11-4.79A.37.37,0,0,0,226.17,199.31Z"/><path d="M180.19,205.51a.38.38,0,0,0-.51.15,6.54,6.54,0,0,1-1.12,1.49.38.38,0,0,0,.27.64.4.4,0,0,0,.27-.11,7.81,7.81,0,0,0,1.24-1.66A.39.39,0,0,0,180.19,205.51Z"/><path d="M174.65,205.45a.37.37,0,0,0-.45.27,3.06,3.06,0,0,1-1,1.52l-.23.18a2,2,0,0,0-.91,1.18.38.38,0,0,0,.3.44h.07a.38.38,0,0,0,.37-.31c0-.28.33-.49.63-.73l.25-.19a3.75,3.75,0,0,0,1.2-1.91A.38.38,0,0,0,174.65,205.45Z"/><path d="M169.6,205.11a.35.35,0,0,0-.38.37,2,2,0,0,1-.3,1.12,2.74,2.74,0,0,1-.51.51l-2.55,2.2a.37.37,0,0,0,0,.53.35.35,0,0,0,.28.13.38.38,0,0,0,.25-.09l2.55-2.2a3.87,3.87,0,0,0,.64-.64,2.75,2.75,0,0,0,.43-1.56A.37.37,0,0,0,169.6,205.11Z"/><path d="M163.64,204.65a.37.37,0,0,0-.28.45,1,1,0,0,1-.33.84c-.38.39-2.76,3.78-2.87,3.93a8.76,8.76,0,0,1-1.91,1.78.37.37,0,0,0-.08.52.38.38,0,0,0,.3.15.34.34,0,0,0,.23-.08,9.26,9.26,0,0,0,2.08-1.94c.94-1.35,2.54-3.58,2.79-3.84a1.7,1.7,0,0,0,.52-1.54A.37.37,0,0,0,163.64,204.65Z"/><path d="M105.25,207.65a.38.38,0,0,0-.48.23,1.92,1.92,0,0,1-.55.81.38.38,0,0,0-.36.38.38.38,0,0,0,.38.37h0c.74,0,1.23-1.3,1.24-1.31A.38.38,0,0,0,105.25,207.65Z"/><path d="M82.32,206.41A5.27,5.27,0,0,0,81,208a7.72,7.72,0,0,1-.79,1.08,7.06,7.06,0,0,1-.89.73l-2.75,2a.38.38,0,0,0-.08.53.37.37,0,0,0,.3.15.34.34,0,0,0,.22-.07l2.76-2a7.25,7.25,0,0,0,1-.81,7.61,7.61,0,0,0,.88-1.19A4.7,4.7,0,0,1,82.75,207a.37.37,0,0,0-.43-.61Z"/><path d="M87.25,207a.38.38,0,0,0-.49.21,4.63,4.63,0,0,1-1.37,1.61l-.1.09c-.76.66-1.49,1.36-2.18,2.09a.38.38,0,0,0,0,.53.39.39,0,0,0,.53,0c.68-.71,1.39-1.4,2.13-2.05l.1-.08a5.15,5.15,0,0,0,1.58-1.91A.37.37,0,0,0,87.25,207Z"/><path d="M92.78,207.78a13.53,13.53,0,0,0-1.81,2l-.24.36a6.51,6.51,0,0,1-.43.6,3.26,3.26,0,0,1-1.13.88.37.37,0,0,0-.18.49.38.38,0,0,0,.34.22.41.41,0,0,0,.16,0,4,4,0,0,0,1.39-1.08,7.24,7.24,0,0,0,.47-.66l.23-.35a13.06,13.06,0,0,1,1.72-1.85.38.38,0,0,0,0-.53A.37.37,0,0,0,92.78,207.78Z"/><path d="M98.65,207.87a.38.38,0,0,0-.38.37c0,.32-.38.61-.77.86a1.94,1.94,0,0,0-1.08,1.5.38.38,0,0,0,.38.37h0a.38.38,0,0,0,.37-.37c0-.33.38-.63.75-.87S99,209,99,208.26A.39.39,0,0,0,98.65,207.87Z"/><path d="M76.11,173.79a.38.38,0,0,0-.36.39,11.63,11.63,0,0,1-.19,2.57.38.38,0,0,0,.3.44h.07a.38.38,0,0,0,.37-.31,12.56,12.56,0,0,0,.2-2.74A.38.38,0,0,0,76.11,173.79Z"/><path d="M3.15,147.57a.39.39,0,0,0-.49.22,4.22,4.22,0,0,0-.33,1.41,3.89,3.89,0,0,0,0,.49l0,.2a7.52,7.52,0,0,1-.33,2.5,14.42,14.42,0,0,0-.35,1.76.66.66,0,0,0,.26.59.45.45,0,0,0,.24,0,.45.45,0,0,0,.24-.06.36.36,0,0,0,.12-.51.52.52,0,0,0-.1-.11,14,14,0,0,1,.32-1.54,8.16,8.16,0,0,0,.35-2.75l0-.22a2.58,2.58,0,0,1,0-.4,3.48,3.48,0,0,1,.29-1.15A.38.38,0,0,0,3.15,147.57Z"/><path d="M41.48,113.87h.1a.37.37,0,0,0,.36-.27c.07-.22.43-.35.74-.44l1.26-.38a.36.36,0,0,0,.25-.46.38.38,0,0,0-.46-.26l-1.27.38c-.34.1-1.05.31-1.24,1A.38.38,0,0,0,41.48,113.87Z"/><path d="M43.3,117.52a.38.38,0,0,0,.35.24.32.32,0,0,0,.14,0l3.85-1.54a.38.38,0,1,0-.28-.7L43.51,117A.39.39,0,0,0,43.3,117.52Z"/><path d="M159.78,112.29a4.1,4.1,0,0,0,1-3,.38.38,0,0,0-.35-.34,4.47,4.47,0,0,0-2.52.59,3.54,3.54,0,0,0-1.64,2h0a5,5,0,0,0-.14,1.53.37.37,0,0,0,.34.35h.31a5.25,5.25,0,0,0,2.19-.43A3,3,0,0,0,159.78,112.29Zm-2.95.39a3.49,3.49,0,0,1,.12-.93h0A2.8,2.8,0,0,1,158,110.3a.66.66,0,0,0,.17.29.72.72,0,0,0,.48.21l.15,0a.89.89,0,0,0,.6-.94l0-.09a3.1,3.1,0,0,1,.61-.09,3.33,3.33,0,0,1-.8,2.14,2.22,2.22,0,0,1-.63.54A4.65,4.65,0,0,1,156.83,112.68Z"/><path d="M143.57,117.33c.1-.07.34,0,.52,0a10,10,0,0,0,1.9.18,10.25,10.25,0,0,0,2.34-.27.38.38,0,0,0,.27-.46.37.37,0,0,0-.45-.27,9.42,9.42,0,0,1-3.92.08,1.34,1.34,0,0,0-1.09.12.37.37,0,1,0,.43.61Z"/><path d="M143.27,120.37h.11a2.52,2.52,0,0,0,1.33-.51,3.65,3.65,0,0,1,.74-.37,3.12,3.12,0,0,1,.63-.07l.26,0a4.89,4.89,0,0,0,2.41-.84.38.38,0,0,0,.1-.52.37.37,0,0,0-.52-.1,4.21,4.21,0,0,1-2.05.71l-.23,0a3.19,3.19,0,0,0-.8.1,3.36,3.36,0,0,0-.93.46,1.76,1.76,0,0,1-1,.39.37.37,0,0,0-.4.35A.38.38,0,0,0,143.27,120.37Z"/><path d="M147.35,120.86c-.12.08-.24.13-.36.2a9,9,0,0,1-.48-.86.5.5,0,0,0-.9.44,9.84,9.84,0,0,0,.5.9,6.14,6.14,0,0,0-1.22.78.38.38,0,0,0,0,.53.37.37,0,0,0,.28.13.42.42,0,0,0,.25-.1,5.75,5.75,0,0,1,1.15-.72c.47.65,1,1.27,1.48,1.87a6.07,6.07,0,0,0,1.29,1.23,6.17,6.17,0,0,0,3.2.75c.35,0,.72,0,1.09,0a6.58,6.58,0,0,0,2.43-.38,6.21,6.21,0,0,0,1.89-1.22,9.42,9.42,0,0,0,2.15-2.67,2.53,2.53,0,0,1,.37.18,5.55,5.55,0,0,1,.78.55c.23.17.45.35.69.5a4.74,4.74,0,0,0,2.06.71h0a.38.38,0,0,0,0-.75,3.88,3.88,0,0,1-1.72-.59c-.22-.14-.43-.3-.64-.46a6.19,6.19,0,0,0-.87-.62l-.42-.2a6.4,6.4,0,0,0,.38-1.17.49.49,0,0,0-.27-.56,8.56,8.56,0,0,1,1.81.45.35.35,0,0,0,.14,0,.39.39,0,0,0,.35-.25.38.38,0,0,0-.22-.48,9.39,9.39,0,0,0-2.09-.51l-.55,0-2.66-.24a.38.38,0,0,0-.06.75l2.65.23.3,0a.5.5,0,0,0-.37.37,6.46,6.46,0,0,1-.3.94c-.3-.17-.59-.35-.89-.56a.37.37,0,1,0-.42.62c.32.22.65.43,1,.62a8.59,8.59,0,0,1-1.92,2.38,5.44,5.44,0,0,1-1.59,1,8,8,0,0,1-3.12.28,5.39,5.39,0,0,1-2.7-.58,5.27,5.27,0,0,1-1.06-1.05c-.47-.55-.94-1.11-1.37-1.7l.34-.19.36-.25a3,3,0,0,1,1-.55.38.38,0,0,0,.29-.45A.38.38,0,0,0,149,120a3.65,3.65,0,0,0-1.33.68Z"/><path d="M156.8,117.68a.35.35,0,0,0,.25-.1,2.61,2.61,0,0,1,.93-.41l1.25-.35a1.86,1.86,0,0,1,.49-.1,2.06,2.06,0,0,1,.47.07,2.41,2.41,0,0,0,.37.07,1.22,1.22,0,0,0,1.18-.4.39.39,0,0,0-.08-.53.38.38,0,0,0-.53.09.52.52,0,0,1-.47.1l-.3-.06a3.29,3.29,0,0,0-.65-.09,2.82,2.82,0,0,0-.69.13l-1.24.35a2.94,2.94,0,0,0-1.23.58.39.39,0,0,0,0,.53A.39.39,0,0,0,156.8,117.68Z"/><path d="M147.08,135.85l.17-4.54a.37.37,0,0,0-.36-.39.38.38,0,0,0-.39.36l-.17,4.54a.37.37,0,0,0,.36.39h0A.38.38,0,0,0,147.08,135.85Z"/><path d="M148.88,140.6a.41.41,0,0,0,.39-.34.45.45,0,0,0-.07-.28l0-2.19a3.26,3.26,0,0,1,.5-2.27.38.38,0,0,0,0-.53.39.39,0,0,0-.53,0,3.84,3.84,0,0,0-.7,2.79l0,2.35a.51.51,0,0,0,.41.44Z"/><path d="M152.15,137.86a4.87,4.87,0,0,0-.91,3,.37.37,0,0,0,.38.35h0a.37.37,0,0,0,.35-.39,4.05,4.05,0,0,1,.77-2.56.38.38,0,0,0-.61-.44Z"/><path d="M158.61,138.2a.37.37,0,0,0-.23.47,1.06,1.06,0,0,1-.15.66,4.78,4.78,0,0,0-.19.48,3.61,3.61,0,0,0-.08.84v1.73a.38.38,0,1,0,.75,0v-1.73a2.63,2.63,0,0,1,.06-.64,2.46,2.46,0,0,1,.14-.38,1.62,1.62,0,0,0,.18-1.2A.37.37,0,0,0,158.61,138.2Z"/><path d="M162.14,135.94l0-2.18a.37.37,0,0,0-.37-.38.37.37,0,0,0-.38.37l0,2.18a6,6,0,0,1-.47,2.45.36.36,0,0,0,.12.41.54.54,0,0,0,.37.13.32.32,0,0,0,.14,0,.37.37,0,0,0,.27-.45.28.28,0,0,0-.08-.15,6.68,6.68,0,0,0,.33-1.28A7.83,7.83,0,0,0,162.14,135.94Z"/><path d="M163.83,129.38l0,2a4.42,4.42,0,0,1,0,.73c0,.12,0,.23-.07.35s-.05.24-.07.35a3.33,3.33,0,0,0,.09,1.44.38.38,0,0,0,.36.26h.11a.38.38,0,0,0,.25-.47,2.55,2.55,0,0,1-.07-1.1l.06-.31c0-.13.06-.27.08-.4a4.9,4.9,0,0,0,0-.85l0-1.95a.38.38,0,0,0-.38-.37A.39.39,0,0,0,163.83,129.38Z"/><path d="M163,143.54a.37.37,0,0,0-.49.2,9.08,9.08,0,0,0-.4,4.24.67.67,0,0,0,.23.51.34.34,0,0,0,.23.08.41.41,0,0,0,.3-.14.38.38,0,0,0,0-.48s0,0,0,0a8.46,8.46,0,0,1,.34-3.9A.37.37,0,0,0,163,143.54Z"/><path d="M158.64,150.31a.49.49,0,0,1,0-.15l.07-3.15a.37.37,0,0,0-.36-.39.39.39,0,0,0-.39.37l-.07,3.15c0,.59.29.85.57.89h.05a.39.39,0,0,0,.38-.32A.4.4,0,0,0,158.64,150.31Z"/><path d="M151.46,150.71a1,1,0,0,1,0-.25,4.81,4.81,0,0,0-.21-1.33l-.09-.35a3,3,0,0,1,.06-1.44.37.37,0,0,0-.29-.44.38.38,0,0,0-.44.29,3.64,3.64,0,0,0-.06,1.75l.09.37a3.9,3.9,0,0,1,.18,1.19,1.52,1.52,0,0,0,0,.41.71.71,0,0,0,.56.52h.05a.4.4,0,0,0,.41-.32A.34.34,0,0,0,151.46,150.71Z"/><path d="M147.34,143.46h0a.38.38,0,0,0-.38.37,22.43,22.43,0,0,0,.39,4.33.38.38,0,0,0,.37.31h.07a.37.37,0,0,0,.3-.44,21.67,21.67,0,0,1-.38-4.18A.37.37,0,0,0,147.34,143.46Z"/><path d="M149.92,157a.36.36,0,0,0-.51.1,2.62,2.62,0,0,0-.34,1.14,2.29,2.29,0,0,1-.18.78.37.37,0,0,0,.07.44l.07.07a.4.4,0,0,0,.26.11.36.36,0,0,0,.27-.12.37.37,0,0,0,.09-.37,3.55,3.55,0,0,0,.17-.81,2,2,0,0,1,.21-.83A.35.35,0,0,0,149.92,157Z"/><path d="M153.55,154.8a.37.37,0,0,0-.43.31,7.34,7.34,0,0,0-.05,1.93.37.37,0,0,0,.37.34h0a.38.38,0,0,0,.34-.41,6.33,6.33,0,0,1,0-1.74A.38.38,0,0,0,153.55,154.8Z"/><path d="M160.33,155.33a.38.38,0,0,0-.75-.08,3.31,3.31,0,0,0,.6,2.11.36.36,0,0,0,.32.18.32.32,0,0,0,.19,0,.37.37,0,0,0,.13-.51A2.69,2.69,0,0,1,160.33,155.33Z"/></svg>