<svg id="Layer_1" data-name="Layer 1" xmlns="http://www.w3.org/2000/svg" xmlns:xlink="http://www.w3.org/1999/xlink" viewBox="0 0 1792.35 960.01"><defs><style>.cls-1{fill:none;clip-rule:evenodd;}.cls-2{clip-path:url(#clip-path);}.cls-3{fill:#d4dc45;}</style><clipPath id="clip-path"><path class="cls-1" d="M603.47,588.68s35.86-.56,55.25-7.81S766.65,529.43,768,426.09C652.94,421,606.6,478.61,603.47,588.68"/></clipPath></defs><title>who-we-are-ouringredients-bkgd</title><path class="cls-3" d="M636,546s35.31-.56,54.4-7.76S796.64,487.09,798,384.32C684.68,379.25,639.06,436.55,636,546"/><path class="cls-3" d="M387.18,232s18.76-31.84,22.8-52.79S422.68,56.67,332.52,0c-66.26,98.48-40.46,170.17,54.66,232"/><path class="cls-3" d="M128.64,542.66s.92-36.95-5.73-57.21S74.44,372.16-31.9,366.47c-10,118.27,47.35,168.38,160.54,176.19"/><path class="cls-3" d="M321,807s37,.09,57.08-7,112.17-51,115.48-157.43C375.07,635.18,326.25,693.68,321,807"/><path class="cls-3" d="M1083.42,938.66s3-36.84-2.55-57.44-42.11-115.8-148-127.38c-16.58,117.53,37.94,170.75,150.52,184.82"/><path class="cls-3" d="M1047.42,308.66s3-36.84-2.55-57.44-42.11-115.8-148-127.38c-16.58,117.53,38,170.75,150.53,184.82"/><path class="cls-3" d="M1090.22,519s25.37,31.2,44.33,43.91,113.94,64.14,192.94,3.55C1251.3,462.29,1175.54,456,1090.22,519"/><path class="cls-3" d="M1483.87,361s35.09-21.8,50.36-39.73,79.09-109.61,25.39-201.81c-116.24,63.86-131.27,142.35-75.75,241.54"/><path class="cls-3" d="M1684.26,771s40.39-8.64,60.83-20.34,111.53-76.37,92.2-181.3c-131,20.74-171.7,89.51-153,201.64"/></svg>