<svg id="Layer_1" data-name="Layer 1" xmlns="http://www.w3.org/2000/svg" viewBox="0 0 135.67 30"><defs><style>.cls-1{fill:#231f20;}</style></defs><title>who-we-are</title><path class="cls-1" d="M12.64,8.57s.06.17.06.35a1,1,0,0,0,.3.84.94.94,0,0,0,.4.17,1,1,0,0,1,.33.16l.25.15a.59.59,0,0,1,.33.47.81.81,0,0,0,0,.32.68.68,0,0,0,.52.38.77.77,0,0,1,.15.06.8.8,0,0,1,0,.28.89.89,0,0,0,.28.82,1,1,0,0,0,.62.15H16a.44.44,0,0,0,0,.2c.05.36.42.59.92.55a1.3,1.3,0,0,1,.32,0h0v.15a.71.71,0,0,0,.18.6.79.79,0,0,0,.35.17l.54.14-.2.78a.3.3,0,0,0,.05.27.32.32,0,0,0,.24.14l.61,0a1.91,1.91,0,0,0,.53,1.35l.51.63a8.7,8.7,0,0,0,2,2.1c.56.29,1.12.54,1.69.77a.35.35,0,0,0,.28.15h.07c1.21.49,2.43.89,3.7,1.3l.16.05a12.65,12.65,0,0,0,2.52.52,13.07,13.07,0,0,0,2.58,0c1.18-.11,2.36-.28,3.5-.45l.58-.08a28.72,28.72,0,0,0,5.73-1.3c1.5-.54,3.09-1.14,4.67-1.85a9.56,9.56,0,0,1,5.68-.57c1.87.35,3.73.89,5.54,1.41l.51.15c1.41.4,2.82.88,4.18,1.34l1,.34c.39.13.77.29,1.15.44l.58.23a14.45,14.45,0,0,0,5.32,1.27H72l.83,0a18.92,18.92,0,0,0,2.36-.19l.84-.13a13.67,13.67,0,0,0,3.51-.87c1.31-.57,2.67-1.16,4.16-1.78a10.16,10.16,0,0,1,1.43-.49c.35-.08.71-.14,1.07-.21s.62-.1.92-.17a9.61,9.61,0,0,1,5.13.09c.86.28,1.75.51,2.61.75l.83.22A8.34,8.34,0,0,0,96.9,21l1.67.17c.75.07,1.5.14,2.24.24a10.1,10.1,0,0,0,5-.62,19.92,19.92,0,0,0,6.64-3.86l.68-.63c.42-.37.83-.75,1.24-1.14a7.81,7.81,0,0,1,5.73-2.47c.47,0,1,.1,1.42.16l.77.09c2,.23,4.16.37,5.23-.32a2,2,0,0,0,.51-.43c.66.17,1.17.18,1.86.4.31.09.89.32,1.21.38a5.19,5.19,0,0,0,1,.19,4.81,4.81,0,0,0,1.77-.25,5.65,5.65,0,0,0,1.21-.71,1.55,1.55,0,0,0,.56-.55,1.64,1.64,0,0,0-1.3-.06.63.63,0,0,0,.54-.51,3,3,0,0,0-1.91.37c-.65.24-1.34,0-2,.06-.42.06-.76-.27-1.3-.35a4.65,4.65,0,0,1-1.29-.63,4.21,4.21,0,0,0-.27-.75h0c-.59-1.32-2.3-1.72-3.54-1.91a3.46,3.46,0,0,1-1.36-.48c-.47-.61-1.45-.64-2.24-.66h-.29c-2.14-.09-5.82.44-7,1.5A9.36,9.36,0,0,0,111.44,10a44.64,44.64,0,0,1-3.29,3.14l-.7.62a5.61,5.61,0,0,1-2.2,1.52,29.74,29.74,0,0,1-7.64.27l-.13,0-.13,0a22,22,0,0,1-2.5-.82,24.92,24.92,0,0,0-2.49-.82c-3.92-1-7.25,0-11.34,1.77a38.77,38.77,0,0,1-5.55,2,13,13,0,0,1-5,.19,23.92,23.92,0,0,1-3.34-.71c-.63-.16-1.23-.32-1.77-.44A4.77,4.77,0,0,1,64,16c-.22-.13-.45-.26-.67-.37-.62-.3-1.23-.61-1.83-.92-1.57-.8-3.05-1.55-4.69-2.2-3.94-1.58-7.91-1-12.12,1.76l-.31.18a3.76,3.76,0,0,0-.5.31,9.63,9.63,0,0,1-3.44,1.45l0,0a.26.26,0,0,0-.15,0l0,0c-1.73.48-3.49.82-5,1.09a28.71,28.71,0,0,1-3.56.4,17,17,0,0,1-4.71-.64c-.7-.16-1.36-.31-2-.43a3.37,3.37,0,0,1-.8-.29l-.19-.08a2.85,2.85,0,0,1-1.17-.77l-.06-.07a7.6,7.6,0,0,1-.59-.81,1.34,1.34,0,0,0-.92-.62,1.57,1.57,0,0,0-.11-.64,1,1,0,0,0-1-.69,1.53,1.53,0,0,0-.29.07c-.06,0-.15.05-.15,0a2.8,2.8,0,0,1-.08-.54c0-.15,0-.3,0-.45a1.25,1.25,0,0,0-.83-1.06,1.54,1.54,0,0,0-.42,0h-.17A.49.49,0,0,0,18,10.6a.66.66,0,0,0,0-.15.65.65,0,0,0-.18-.53,1.17,1.17,0,0,0-.8-.36c-.29,0-.6,0-.77-.09a.89.89,0,0,1-.16-.17L16,9.18a1.84,1.84,0,0,0-1-.57l-.16,0a.76.76,0,0,1-.34-.1.62.62,0,0,1,0-.1.84.84,0,0,0-.05-.17c-.26-.62-1.07-.64-1.33-.65a.79.79,0,0,0-.69.31.45.45,0,0,0,0,.46A.55.55,0,0,0,12.64,8.57ZM16,11.81a.35.35,0,0,0-.31.08v-.11a1.45,1.45,0,0,0,0-.46.55.55,0,0,0,.29-.09,2.3,2.3,0,0,0,.35-.47.68.68,0,0,1,.46-.34c.14,0,.28.06.42.05a.34.34,0,0,0,.17-.05s0,0,0,.06a.83.83,0,0,0-.05.37l0,.09a1.51,1.51,0,0,1-.44.65A1,1,0,0,1,16,11.81Zm4.43,1.87v0a1.68,1.68,0,0,1,0,.75s0,0,0,0a1.2,1.2,0,0,1-.45.33A3.42,3.42,0,0,1,19,15a.28.28,0,0,0-.13,0l.17-.64a2.86,2.86,0,0,0,.62-.13A1.55,1.55,0,0,0,20.44,13.68ZM23.89,20h0Zm12.64,1.59-.28,0a1.42,1.42,0,0,1,.2-.61,3.24,3.24,0,0,0,.21-.35.76.76,0,0,0,0-.11l.12,1Zm67.08-.83-.49.07a.43.43,0,0,0,0-.11,2.35,2.35,0,0,1,.52-1.21A5.22,5.22,0,0,0,103.61,20.71Zm11-7.71a1.32,1.32,0,0,1,.58.65l-.42.3A1.59,1.59,0,0,1,114.59,13Zm-.69,1.58c0-.06-.12-.71-.13-.72a2.6,2.6,0,0,1,.4.58l-.25.22S113.91,14.61,113.9,14.58ZM99.12,16.47c.12.19.09.51-.12.58a.35.35,0,0,1-.23-.32,1.35,1.35,0,0,0-.07-.41l0,0,.39,0A.51.51,0,0,0,99.12,16.47ZM86,14.54l.74-.16c-.25.27-.33.79-.67,1A2.17,2.17,0,0,0,86,14.54ZM41.17,16.76a.85.85,0,0,1,.09.83c-.06.13-.16.25-.21.38a5.36,5.36,0,0,0-.29-1.13l.39-.11Zm-.05,2.15c0-.15,0-.29,0-.43v0A1.07,1.07,0,0,1,41.12,18.91Zm-13,.83,0,.07a2.51,2.51,0,0,1,.21-1.66l.48.09A2.64,2.64,0,0,1,28.09,19.74Zm1.34-1.39,0,0v0Zm-7.91-3.28a10,10,0,0,0,.65.88l0,.06a3.33,3.33,0,0,0,1.42,1l.19.09a4,4,0,0,0,1,.33c.62.11,1.27.26,2,.42l.86.2a3.18,3.18,0,0,0-.15,2.15.33.33,0,0,0,.32.24l.09,0a.33.33,0,0,0,.23-.25.23.23,0,0,0,.07.07.28.28,0,0,0,.19.07.33.33,0,0,0,.27-.14c.11-.15.22-.31.31-.46l-.21.57a.34.34,0,0,0,.2.43l.11,0a.32.32,0,0,0,.31-.22L29.88,19a3,3,0,0,0-.09.43.38.38,0,0,0,0,.26c.12.17.39.06.55-.07a6.06,6.06,0,0,0,1.08-1.18h.19a28.13,28.13,0,0,0,3.64-.41c1.45-.26,3.15-.59,4.84-1a5.44,5.44,0,0,1,.27,2.68.33.33,0,0,0,.27.38h.06A.35.35,0,0,0,41,20c.06.11.23.11.35.06a1.8,1.8,0,0,0,.86-1.09c.31-.73.62-1.45.92-2.18a.75.75,0,0,0,.08-.24.69.69,0,0,0-.16-.45,6.7,6.7,0,0,0,1.2-.72,4.5,4.5,0,0,1,.43-.27l.34-.2a15.79,15.79,0,0,1,4.69-2.17.63.63,0,0,1,.26.41,2.06,2.06,0,0,1-.18.76,2.73,2.73,0,0,0-.15,1.2.76.76,0,0,0,.18.51,1,1,0,0,0,.64.21.39.39,0,0,0,.15,0c.14,0,.15-.25.19-.39a1.45,1.45,0,0,1,.49-.61A2.77,2.77,0,0,0,52,13.57c0-.1,0-.25,0-.31s-.13,0-.18-.08,0-.25.06-.35l.33-.42a.59.59,0,0,0,0-.08,11,11,0,0,1,4.28.83c1.62.64,3.08,1.39,4.64,2.18l.53.27a3,3,0,0,0-.19,1.1c0,.17,0,.34,0,.5,0,.33-.15.64-.19,1a1,1,0,0,0,.28.89.35.35,0,0,0,.43,0c.14-.13.06-.36,0-.54a1.82,1.82,0,0,0,.73-.31,3.77,3.77,0,0,0,.86-.92.68.68,0,0,0,.12-.22.55.55,0,0,0,0-.28,1.26,1.26,0,0,0-.13-.26l.13.07a5.46,5.46,0,0,0,1.56.69c.53.12,1.13.27,1.74.43,1,.26,2.06.53,3,.67a3,3,0,0,0,0,.63,6.7,6.7,0,0,1-.1,1.48.7.7,0,0,0,0,.25.65.65,0,0,0,.13.16l.55.53s0,.05.08.05.12-.08.17-.14.29-.08.45-.07a1.9,1.9,0,0,0,.84-.21.16.16,0,0,0,.08-.06c.08-.11-.11-.21-.17-.34s.11-.33.27-.42l1.29-.78c.09,0,.2-.13.21-.24a.3.3,0,0,0-.1-.23.82.82,0,0,0-1-.1c-.07,0-.13.11-.22.11s-.27-.18-.32-.34a.25.25,0,0,0-.3,0,.26.26,0,0,0-.07.29c-.18.06-.36-.18-.55-.13s-.18.2-.23.32-.22.25-.33.16a.26.26,0,0,1-.07-.16l-.12-.7a14,14,0,0,0,5.26-.22,41.79,41.79,0,0,0,5.64-2,30.13,30.13,0,0,1,4.27-1.58,5.48,5.48,0,0,1-.19.75,3.1,3.1,0,0,0-.51,1.52,1.57,1.57,0,0,0,.73,1.37.58.58,0,0,0,.34.07.25.25,0,0,0,.2-.25c0-.1-.11-.18-.13-.28a.41.41,0,0,1,.07-.26,8.83,8.83,0,0,1,1-1.55,3.7,3.7,0,0,0,.47-.65,2.21,2.21,0,0,0,.22-1.15,12.2,12.2,0,0,1,4.43.28,23.24,23.24,0,0,1,2.41.79,24.25,24.25,0,0,0,2.58.85l.09,0,.12,0a1.31,1.31,0,0,0,.09.64,7.45,7.45,0,0,0,.62,1.61,2.15,2.15,0,0,1,.28.62,1.35,1.35,0,0,0,.06.35.44.44,0,0,0,.66.18c.21-.16.22-.47.37-.7a1.73,1.73,0,0,1,.53-.43,2.1,2.1,0,0,0,1-1.45.4.4,0,0,0-.15-.42c-.18-.1-.39.06-.53.21l-.87.93c0-.49.45-.93.43-1.4a23,23,0,0,0,5.46-.4,5.63,5.63,0,0,0,2.3-1.5,3.65,3.65,0,0,0,1.32.5c.44.11.7.41,1.14.52a2,2,0,0,0,.83-.12,1.59,1.59,0,0,1-.61-.65,1.2,1.2,0,0,0,1.12-.22c0-.18-.28-.2-.44-.29a.61.61,0,0,1-.24-.57,4.07,4.07,0,0,0-.06-.6,6.4,6.4,0,0,0-.33-1.05c.51-.49,1-1,1.48-1.47a8.1,8.1,0,0,1,2-1.68l.07-.05c.93-.87,4.37-1.45,6.58-1.36h.3c.63,0,1.5,0,1.75.43a.27.27,0,0,0,.11.1,4.06,4.06,0,0,0,1.66.6c1.7.27,2.69.76,3,1.53h0a2.31,2.31,0,0,1,.29,1.19,5.64,5.64,0,0,0-2.19-.33,1.15,1.15,0,0,0-.34.07,1,1,0,0,0-.37.27l-.07.07a.34.34,0,0,0-.33-.1.34.34,0,0,0-.23.42.56.56,0,0,0,.54.37l.13,0a.9.9,0,0,0,.45-.29.53.53,0,0,1,.13-.11l.13,0a5,5,0,0,1,1.83.26,2.62,2.62,0,0,1-.3.24c-1,.65-3.77.34-4.81.22l-.76-.1c-.48-.06-1-.12-1.44-.16a7.47,7.47,0,0,0-4.55,1.32,2.08,2.08,0,0,0-.88-1.43,5.26,5.26,0,0,1-1.09-.68c0-.06-.1-.12-.17-.11a.21.21,0,0,0-.11,0l-.47.32a.34.34,0,0,0-.08.09.26.26,0,0,0,0,.15,2.64,2.64,0,0,1,0,1.25,2.94,2.94,0,0,0-.06,1.25,1.27,1.27,0,0,0,.72.86l-.78.73-.69.63a16.18,16.18,0,0,1-3,2.16.57.57,0,0,1,0-.13,2.34,2.34,0,0,0-.17-.75,2.55,2.55,0,0,0-.66-.77c-.33-.29-.49-.56-.93-.26a.51.51,0,0,0-.24.46.91.91,0,0,0,.14.34,1.3,1.3,0,0,1,.2.64c0,.21-.07.41-.07.62a.48.48,0,0,0,.29.5h.15c-.62.3-1.28.58-2,.86a2,2,0,0,0-.69-1.23,3,3,0,0,1-.89-1.19,1.29,1.29,0,0,0-.19-.47c-.12-.13-.37-.13-.42,0s0,.14,0,.2-.22.16-.33.25-.15.35-.23.53a1.31,1.31,0,0,1-.28.35,2.61,2.61,0,0,0-.55.65.78.78,0,0,0,0,.82,1.22,1.22,0,0,1,.15.17.71.71,0,0,1,.06.59,8.92,8.92,0,0,1-1.37-.07c-.75-.1-1.51-.18-2.26-.25-.56-.05-1.11-.1-1.67-.17a7.12,7.12,0,0,1-1.07-.24l-.83-.22c-.85-.23-1.73-.47-2.58-.74L92,19l.06-.07a1.64,1.64,0,0,0,.34-.6,1.75,1.75,0,0,0-.13-.87A9.54,9.54,0,0,1,92,16.08a.85.85,0,0,0-.13-.45.29.29,0,0,0-.42,0c-.07.11-.08.3-.21.29l-.09,0c-.15,0-.28.09-.37.22L89.6,17.61a.72.72,0,0,0-.19.46.73.73,0,0,0,.41.66,12.34,12.34,0,0,0-2.8.32l-.89.16c-.37.07-.75.13-1.12.22a10.34,10.34,0,0,0-1.3.43c-.09-.34-.18-.68-.28-1a.43.43,0,0,1,0-.16s0-.08,0-.12a.32.32,0,0,0,0-.19l-.24-.42a.2.2,0,0,0-.06-.07c-.13-.09-.24.15-.39.18S82.5,18,82.39,18s-.19.18-.19.31a1,1,0,0,1,0,.38c-.08.18-.31.24-.42.39s-.08.63-.34.72a.55.55,0,0,0-.72-.41c.25.57-.26,1.09-.15,1.65a.3.3,0,0,0,.06.14l-1.29.57a13.33,13.33,0,0,1-3.35.81l-.85.14a19.12,19.12,0,0,1-2.28.18l-.84,0a12.26,12.26,0,0,1-5.09-1.06c-.12-.26-.37-.49-.4-.78s.19-.68,0-.92c0-.05-.12-.1-.11-.17s.07-.09.11-.12a.37.37,0,0,0-.3-.65l.09-.44c-.18-.05-.36.11-.48.26a5.16,5.16,0,0,1-.74.81c-.23.19-.51.32-.73.53a.77.77,0,0,0-.27.42l-.35-.12c-1.37-.46-2.79-.94-4.2-1.35L59,19.17l-1.43-.41.45-1a1.57,1.57,0,0,0,.2-.79.54.54,0,0,0-.51-.53c.23-.47.41-1-.42-1.36a.58.58,0,0,1,0,.32c0,.1-.21.15-.27.06a.58.58,0,0,1,0-.19c0-.06-.06-.13-.12-.11l-.81,1a1.5,1.5,0,0,1-.35.36c-.19.13-.44.17-.64.3a.47.47,0,0,0-.23.59c.16-.08.33.13.29.3a.85.85,0,0,1-.25.32c-.49-.12-1-.22-1.49-.32a12.16,12.16,0,0,0-2.13-.2,9.86,9.86,0,0,0-2.89.43,2.55,2.55,0,0,0-.27-.79.68.68,0,0,1-.13-.43c0-.16.18-.26.32-.36a2.77,2.77,0,0,0,.5-.47c-.17-.1-.38,0-.54.15s-.43.19-.54,0a1.29,1.29,0,0,1-.07-.21.32.32,0,0,0-.42-.18c-.18.08-.25.3-.32.48s-.23.38-.42.35-.21-.14-.31-.22-.26-.12-.34,0c-.07.43.14.9,0,1.3a4.39,4.39,0,0,1-.51.63c-.4.53,0,.76.42.82-1,.41-2,.79-3,1.14a26.62,26.62,0,0,1-5.24,1.22l-.33-2.77a.34.34,0,0,0-.37-.29.34.34,0,0,0-.29.37l.06.53a.16.16,0,0,0-.08,0,.44.44,0,0,0-.34.11,2.73,2.73,0,0,0-.46.5c-.33.43-1.14,1.3-1.08,1.9a1,1,0,0,0,0,.1q-.78.11-1.56.18a11.79,11.79,0,0,1-2.45,0,12.05,12.05,0,0,1-2.39-.49l-.16-.05c-1.21-.39-2.37-.77-3.52-1.22.17-.36.38-.78.64-1.26A.34.34,0,0,0,25,18.5a.32.32,0,0,0-.19,0,.3.3,0,0,0-.17-.18.33.33,0,0,0-.13,0l0-.06a.32.32,0,0,0-.21-.41.33.33,0,0,0-.42.21c-.05.14-.11.28-.16.43,0,0,0-.05,0-.07s0-.1,0-.1a.33.33,0,1,0-.57-.33l-.46.78a1.18,1.18,0,0,0-.18.51.41.41,0,0,0,0,.11l-.11-.06a9.2,9.2,0,0,1-1.83-1.92c-.2-.26-.38-.49-.52-.65a1.25,1.25,0,0,1-.37-.89,1.15,1.15,0,0,0,0-.2,4.18,4.18,0,0,0,.58-.16,1.8,1.8,0,0,0,.82-.68A.66.66,0,0,1,21.52,15.07Zm-3.28-3.64h.24c.18.05.3.3.34.53a2.56,2.56,0,0,1,0,.39A3.2,3.2,0,0,0,19,13a.67.67,0,0,0,.24.39.57.57,0,0,0,.49.11.8.8,0,0,1-.22.13,3.06,3.06,0,0,1-.92.11.32.32,0,0,0-.19.07L18,13.75h0v-.11a1.13,1.13,0,0,0,0-.3l.51-.33a.34.34,0,0,0,.09-.46.32.32,0,0,0-.45-.09l-.6.39a1.56,1.56,0,0,0-.55,0c-.13,0-.22,0-.21,0a.78.78,0,0,0,0-.3l0,0a1.82,1.82,0,0,0,.63-.33,2.27,2.27,0,0,0,.54-.71l.15,0Z"/><path class="cls-1" d="M87.5,24.79a6.35,6.35,0,0,1,3.89-.21c.14.05.27.12.41.18s.35.16.54.23a3.51,3.51,0,0,0,1.15.22A2.59,2.59,0,0,0,95.57,24a.33.33,0,0,0-.53-.4,1.88,1.88,0,0,1-2.48.75c-.17-.06-.33-.14-.49-.21l-.44-.2a7.1,7.1,0,0,0-4.3.19.33.33,0,0,0-.23.41A.32.32,0,0,0,87.5,24.79Z"/><path class="cls-1" d="M86.74,26.42a.33.33,0,0,0,.42.2,5.55,5.55,0,0,1,2.75-.45,5.68,5.68,0,0,1,1,.36c.2.08.39.17.59.24l.17.06a5.61,5.61,0,0,0,1.91.44h.2c.85-.05,2-.24,2.45-1.23a.33.33,0,0,0-.18-.43.33.33,0,0,0-.43.18c-.21.5-.79.75-1.89.82a4.58,4.58,0,0,1-1.84-.39l-.17-.07c-.18-.06-.37-.14-.55-.22a5.86,5.86,0,0,0-1.18-.4,6.1,6.1,0,0,0-3.1.48A.33.33,0,0,0,86.74,26.42Z"/><path class="cls-1" d="M.36,9.31a19.52,19.52,0,0,0,2,.1,21,21,0,0,0,4.53-.5.33.33,0,1,0-.15-.64,20.14,20.14,0,0,1-6.34.38.33.33,0,1,0-.06.66Z"/><path class="cls-1" d="M1.23,14.31a.33.33,0,0,0,.33.33h0c2.88,0,5.79-.14,8.66-.37a.33.33,0,0,0,.31-.35.34.34,0,0,0-.36-.31c-2.85.23-5.75.36-8.61.37A.33.33,0,0,0,1.23,14.31Z"/><path class="cls-1" d="M11.66,19.28h.06a24.61,24.61,0,0,1,4.2-.42.33.33,0,0,0,.32-.34.32.32,0,0,0-.33-.32,25,25,0,0,0-4.31.43.33.33,0,0,0-.27.38A.33.33,0,0,0,11.66,19.28Z"/><path class="cls-1" d="M31.35,27.36a.31.31,0,0,0,.27-.37.34.34,0,0,0-.38-.28,7.81,7.81,0,0,1-5.68-1.32.33.33,0,0,0-.46.08.33.33,0,0,0,.08.46,8.5,8.5,0,0,0,4.87,1.54A8.15,8.15,0,0,0,31.35,27.36Z"/><path class="cls-1" d="M25.63,28.28a.33.33,0,1,0-.09.65,22.38,22.38,0,0,1,3.45.78l.1,0a.34.34,0,0,0,.32-.23.34.34,0,0,0-.22-.42A22.64,22.64,0,0,0,25.63,28.28Z"/><path class="cls-1" d="M19.77,5.67l1.47.44.09,0a.33.33,0,0,0,.1-.65L20,5a.33.33,0,0,0-.41.22A.33.33,0,0,0,19.77,5.67Z"/><path class="cls-1" d="M18.91,7.57l1,.28H20a.33.33,0,0,0,.09-.65l-1-.28a.34.34,0,0,0-.41.24A.32.32,0,0,0,18.91,7.57Z"/><path class="cls-1" d="M43.46,5.45h0a40.12,40.12,0,0,1,5.36-.37H49a.33.33,0,0,0,.33-.33A.33.33,0,0,0,49,4.42a40.41,40.41,0,0,0-5.6.37.33.33,0,0,0,0,.66Z"/><path class="cls-1" d="M45.15,7.4a.32.32,0,0,0-.08.46.32.32,0,0,0,.27.14.35.35,0,0,0,.19-.06,5.67,5.67,0,0,1,5.13-.67.33.33,0,0,0,.43-.19.34.34,0,0,0-.2-.43A6.34,6.34,0,0,0,45.15,7.4Z"/><path class="cls-1" d="M118.31,1a.33.33,0,0,0-.21-.41,3.22,3.22,0,0,0-3,.53.32.32,0,0,0-.09.4.32.32,0,0,0,.3.19h.06a7,7,0,0,0,.94-.27,2.65,2.65,0,0,1,1.59-.2A.32.32,0,0,0,118.31,1Z"/><path class="cls-1" d="M117.78,2.26a1.69,1.69,0,0,0-1.25,0l-.06,0c-.37.13-.79.27-1,.1a.31.31,0,0,0-.46.05.32.32,0,0,0,0,.46,1.68,1.68,0,0,0,1.64,0l.06,0a1,1,0,0,1,.74,0,.15.15,0,0,1,.1.11.34.34,0,0,0,.32.23h.1a.33.33,0,0,0,.21-.42A.82.82,0,0,0,117.78,2.26Z"/><path class="cls-1" d="M76,20.93c.06.18.07.43.25.49a.33.33,0,0,0,.27-.05c.35-.21.43-.68.61-1s.77-.9.89-1.45a.34.34,0,0,1,.09-.19l.13,0a.36.36,0,0,0,.14-.52.52.52,0,0,0-.55-.18,1.29,1.29,0,0,0-.66.6c-.09-.09-.34-.38-.49-.2s0,.1-.08.14c-.16.22-.55,0-.74.16s0,.37-.06.57a.94.94,0,0,1-.08.32c-.1.3-.21.59-.32.89A.71.71,0,0,1,76,20.93Z"/><path class="cls-1" d="M120.11,9.58a.83.83,0,0,0,.25.41,1.38,1.38,0,0,0,.31.17l.48.2a3,3,0,0,0,.66.22,1.86,1.86,0,0,0,.33,0,1.33,1.33,0,0,0,.54-.11,1.08,1.08,0,0,0,.45-.38,1.53,1.53,0,0,0,.26-.61s0,0,0-.07a.36.36,0,0,0,.28-.13A.21.21,0,0,0,123.6,9a4.36,4.36,0,0,0-2.89-.54,1.09,1.09,0,0,0-.64.25.59.59,0,0,0,0,.7Zm2.62-.1a1.07,1.07,0,0,1-.18.41.56.56,0,0,1-.21.18.53.53,0,0,1-.29,0v0a1.61,1.61,0,0,1,.2-1,2.7,2.7,0,0,1,.57.18A.71.71,0,0,0,122.73,9.48ZM120.61,9s0,0,.2,0l.51,0a1.53,1.53,0,0,1-.24.83l-.09,0-.14-.07a.53.53,0,0,1-.1-.2l-.08-.2C120.65,9.19,120.58,9,120.61,9Z"/></svg>