<svg id="Layer_1" data-name="Layer 1" xmlns="http://www.w3.org/2000/svg" viewBox="0 0 211 218.67"><title>who-we-are</title><path d="M192.07,164h.09a.45.45,0,0,1,.79-.32.55.55,0,0,0,.34-.13.51.51,0,0,0,.17-.48.55.55,0,0,0,.42.23.48.48,0,0,0,.26-.07.52.52,0,0,0,.2-.72,3.6,3.6,0,0,1-.28-.84c0-.14-.07-.29-.11-.44-.21-.71-.37-1.46-.53-2.18-.09-.43-.18-.85-.28-1.27a.54.54,0,0,0-.64-.4.53.53,0,0,0-.39.64v.05a.58.58,0,0,0-.4-.16.53.53,0,0,0-.51.55l0,.37c0,.24,0,.48,0,.73-.17-.32-.36-.63-.55-.92a.53.53,0,1,0-.88.59,11.51,11.51,0,0,1,1.72,4.33A.53.53,0,0,0,192.07,164Zm.31-4.73c.16.74.33,1.51.55,2.26,0,.13.07.27.1.4a7.63,7.63,0,0,0,.23.73,6.65,6.65,0,0,1-.54-1.27l-.12-.32a7.45,7.45,0,0,1-.31-2.22Z"/><path d="M193.66,159c.08.41.15.82.25,1.22a4.4,4.4,0,0,0,.3.77,5.21,5.21,0,0,1,.2.5,2.84,2.84,0,0,1,.06.31,1.72,1.72,0,0,0,.3.88.55.55,0,0,0,.4.21,1.3,1.3,0,0,0,.14.57.53.53,0,0,0,.47.28.45.45,0,0,0,.25-.07.51.51,0,0,0,.21-.71,2.13,2.13,0,0,1,0-.44,2.76,2.76,0,0,0,0-.58,5.5,5.5,0,0,0-.21-.87l-.08-.24a14.47,14.47,0,0,1-.51-2.18.54.54,0,0,0-.6-.46.6.6,0,0,0-.23.1c0-.26-.09-.51-.15-.76a.53.53,0,0,0-.65-.39.52.52,0,0,0-.38.64C193.52,158.19,193.59,158.6,193.66,159Z"/><path d="M200.53,177c-.31-1.52-.58-2.9-.82-4.17-.63-3.2-1.13-5.72-1.73-8.1-.19-.73-.37-1.58-.56-2.46-.26-1.22-.53-2.49-.84-3.58a18.71,18.71,0,0,0-.77-2.13,10.23,10.23,0,0,1-.43-1.16,22.87,22.87,0,0,0-2.31-5c-.45-.82-1-1.73-1.53-2.82-.31-.59-.58-1.14-.84-1.67a28.19,28.19,0,0,0-2.61-4.47c-.93-1.26-1.84-2.64-2.73-4s-1.65-2.5-2.5-3.66a45.42,45.42,0,0,1-3.1-5.2c-.31-.59-.63-1.18-.95-1.76-2.37-4.27-4.23-7.92-4.92-12.8-.25-1.8-.31-4-.37-5.9l0-1.3-.06-2c0-2.07-.11-4-.29-6.06a29.85,29.85,0,0,0-.55-3.32,24.12,24.12,0,0,1-.57-3.57,43.25,43.25,0,0,0-.95-6.44c-.28-1.41-.54-3.18-.67-4.63a12.92,12.92,0,0,0-2.09-5.52,9.7,9.7,0,0,0,1.9.79.43.43,0,0,0,.45-.21.44.44,0,0,0-.07-.5,41.1,41.1,0,0,1-4.85-6.7,12.32,12.32,0,0,0,2,.6l.23,0a.42.42,0,0,0,.56-.18.43.43,0,0,0-.18-.58c-1.64-.87-3.86-5.15-4.53-7.65a16.5,16.5,0,0,0,1.38,1,9.87,9.87,0,0,1,.86.57,4.87,4.87,0,0,0,.51.5.43.43,0,0,0,.62-.58,3.07,3.07,0,0,0-.54-.54,5,5,0,0,1-.67-1.17,8.82,8.82,0,0,0-.75-1.38c-.31-.45-.67-.91-1-1.39l-.39-.5a3.08,3.08,0,0,0,1.47.74.53.53,0,0,0,.4-.24.42.42,0,0,0-.12-.57,8,8,0,0,1-2.46-3.15A12.32,12.32,0,0,0,162,52.09l0-.05c.81.38,1.72.77,2.07.88a.43.43,0,0,0,.51-.23.43.43,0,0,0-.15-.54A18.83,18.83,0,0,1,160,47.48c.91.35,1.94.58,2.4.16a.41.41,0,0,0,.13-.44.42.42,0,0,0-.35-.29,4.92,4.92,0,0,1-2.65-2c-.36-.45-.67-.84-1-1.29a3.6,3.6,0,0,0,1.77-.12.43.43,0,0,0-.16-.82,5,5,0,0,1-2.92-1.54,23.24,23.24,0,0,1-1.64-2l-.17-.24a4.8,4.8,0,0,0,1.48-.11.44.44,0,0,0,.32-.35.42.42,0,0,0-.2-.43,30.34,30.34,0,0,1-3.82-2.79,12.47,12.47,0,0,1-1.53-1.65,12.44,12.44,0,0,0-2-2.07,1.9,1.9,0,0,1-.81-1.19,3.8,3.8,0,0,1,.13-1.1A5.69,5.69,0,0,0,149.2,28v-.48a26.7,26.7,0,0,0-.21-4.1c-.1-.61-.19-1.24-.28-1.87a26.82,26.82,0,0,0-1.41-6.36,6.87,6.87,0,0,0-1.51-2.47,3.63,3.63,0,0,1-.59-2.7c0-.25,0-.5,0-.75,0-8.71-.57-8.72-.92-8.72a1.23,1.23,0,0,0-1,.39,1.48,1.48,0,0,1-.3.23,12.63,12.63,0,0,0-2.34,1.62,9.29,9.29,0,0,0-.76.78c-.18.19-.35.38-.52.54a6.61,6.61,0,0,1-1.19.83,5.91,5.91,0,0,0-2.15,1.84h-1.2a31.27,31.27,0,0,0-6.43.45l-.46.09a2.62,2.62,0,0,1-1.31.1,2.36,2.36,0,0,1-.59-.5l-.44-.45-.08-.06c-.79-.74-1.68-1.56-2.53-2.24a21.9,21.9,0,0,1-1.68-1.5A14.82,14.82,0,0,0,118,.05a.38.38,0,0,0-.4,0,.42.42,0,0,0-.22.35,14,14,0,0,1-.21,1.83A16.75,16.75,0,0,0,117,4.32c0,.38-.06.76-.1,1.15a9.07,9.07,0,0,0,0,2.33c0,.29.11.58.18.87a3.28,3.28,0,0,1,.05,2.14,4.92,4.92,0,0,1-.23.46c-.1.18-.19.36-.29.58a4.71,4.71,0,0,0-.28,1.39l-.08.69a10.81,10.81,0,0,1-.55,2.61c-.06-.06-.14-.11-.19-.17a2.6,2.6,0,0,1-.33-.62,3,3,0,0,0-.72-1.13,22,22,0,0,1-2.14-2.17,10.06,10.06,0,0,0-.71-.73c-.18-.18-.36-.35-.52-.54s-.19-.23-.28-.35a4.6,4.6,0,0,0-1.1-1.13,4.86,4.86,0,0,0-1.14-.53c-.44-.16-.85-.31-1-.55a4.31,4.31,0,0,1-.16-1.4,6.5,6.5,0,0,0,0-.82l-.07-.53a14.86,14.86,0,0,0-.69-3.45.43.43,0,0,0-.41-.26.44.44,0,0,0-.39.3,10.33,10.33,0,0,1-1,2.12A9.18,9.18,0,0,0,104.12,6c-.25.71-.42,1.39-.59,2.05q-.14.57-.3,1.17l-.22,0a3.4,3.4,0,0,0-1,0,15.86,15.86,0,0,0-4.6,1.65,4.05,4.05,0,0,1-.41-.61,2.68,2.68,0,0,0-.27-.43,22.84,22.84,0,0,0-1.89-2.27c-.49-.53-1-1.08-1.63-1.88-.06-.07-.13-.17-.21-.28-.46-.64-.85-1.14-1.32-1.18a.92.92,0,0,0-.28,0,.38.38,0,0,0-.16-.06.43.43,0,0,0-.48.37,1.73,1.73,0,0,1-.07.31,2.7,2.7,0,0,0-.17.59A12.46,12.46,0,0,1,89.7,7a15.05,15.05,0,0,0-.79,1.55l-.3.75c-.51,1.28-1,2.49-1.61,3.7a12.21,12.21,0,0,0-1.2,5l0,.41a2,2,0,0,1-.26.94.66.66,0,0,1-.36.25,2,2,0,0,0-.61.33,4.58,4.58,0,0,0-1,1.71c-.11.25-.2.49-.3.68a6.65,6.65,0,0,1-1.56,2.08c-.69.57-2,1.74-2,1.74a.43.43,0,0,0-.08.54.42.42,0,0,0,.52.17l1-.38A10.7,10.7,0,0,1,79.91,28a12.79,12.79,0,0,1-2.23,1.9.43.43,0,0,0-.16.48.4.4,0,0,0,.41.3c.25,0,.57-.06.93-.11a33.85,33.85,0,0,0-4,5.31l-.06.09a.45.45,0,0,0,0,.42.42.42,0,0,0,.35.24,3.51,3.51,0,0,0,1.29-.29,2.75,2.75,0,0,0-.17.29,23.17,23.17,0,0,1-3.37,4.46.44.44,0,0,0-.06.51.44.44,0,0,0,.47.2c.39-.09,1-.28,1.57-.48-.57.94-1.37,2.23-1.77,2.84L70.85,47.5a.43.43,0,0,0,.57.61s1-.54,1.85-1c-1.41,2.25-3.5,5.16-3.52,5.2a.42.42,0,0,0,.55.61l1.31-.73c-.9,1.29-2.13,3.08-2.78,4.14a.42.42,0,0,0,0,.5.41.41,0,0,0,.48.11,12,12,0,0,0,2.4-1.54l.12-.09a63.1,63.1,0,0,1-3.65,6.58.41.41,0,0,0,0,.5.43.43,0,0,0,.5.1l.22-.11c.6-.29,1.23-.61,1.79-.93-.37.67-.78,1.35-1.16,1.9a15.13,15.13,0,0,1-1.25,1.47,17.72,17.72,0,0,0-1.21,1.42.44.44,0,0,0,0,.53.41.41,0,0,0,.52.09c.21-.11.52-.28.89-.46l1.13-.6A19.27,19.27,0,0,1,68,68.27c-.42.52-.81,1-1.16,1.51a.42.42,0,0,0,.45.65,8.55,8.55,0,0,0,1.92-.75c-.38,1.63-1.13,4.89-1.6,6.79-.09.37-.16.69-.22,1a10.4,10.4,0,0,1-.49,1.8,25.77,25.77,0,0,0-.72,2.5c-.2.75-.38,1.47-.56,2-.46,1.35-.87,2.61-1.27,3.86-.61,1.89-1.19,3.68-1.91,5.69C62,94.46,61.5,95.74,61,97c-.58,1.55-1.17,3.13-1.67,4.55a46.48,46.48,0,0,0-2.87,5.2c-.42.84-.83,1.68-1.29,2.53-.71,1.31-1.35,2.33-2,3.33s-1.22,1.95-1.91,3.21a47,47,0,0,1-4.34,6.8c-.51.66-.9,1.24-1.28,1.81a15.87,15.87,0,0,1-3.54,4,16.69,16.69,0,0,0-2.5,2.67,10.52,10.52,0,0,1-.71.83c-.74.67-1.34,1.32-2,2l-.38.41a33.81,33.81,0,0,1-4.93,4.18,26.37,26.37,0,0,0-4.59,4.87l-.65.82-1.05,1.26a27.43,27.43,0,0,0-3,4,77.08,77.08,0,0,0-4.74,10.72c-.27.72-.54,1.43-.81,2.12-.82,2.12-1.84,4.78-2.4,6.45-.11.32-.25.65-.4,1a18.1,18.1,0,0,0-1.49,6.54,12.07,12.07,0,0,1-1,2.94,25.54,25.54,0,0,0-1.73,5.4,31.26,31.26,0,0,0,.56,11.44c.24.8.46,1.55.67,2.28,1.07,3.7,1.92,6.62,4.76,10a12.4,12.4,0,0,0,4,3.5,4.31,4.31,0,0,0,3.56.19c.84-.5,1.15-2,.74-3.63A8.23,8.23,0,0,0,22.93,206a17.66,17.66,0,0,1-2.33-5.39c-1.83-6.61-1.6-11.05-.54-16.94,1.12-6.2,2.65-14.68,5.77-21.23,2.32-4.84,4-8,7.4-10.82,3.24-2.68,5.6-3.84,7-3.44a2.08,2.08,0,0,1,1.36,1.5,96.71,96.71,0,0,1,2.61,11,9.35,9.35,0,0,1-.1,2.73A9.55,9.55,0,0,0,44,166a49,49,0,0,1,.12,14.38c-.54,3.18-1,8-1,8v.1a5.31,5.31,0,0,0,.57,1.52,7,7,0,0,1,.53,1.26c.63,2.25,1.42,4.41,2.19,6.49a55.1,55.1,0,0,1,2.83,9.3,18.36,18.36,0,0,0,.82,2.58c.31.86.64,1.75.82,2.47.12.48.2.94.27,1.35.23,1.34.45,2.6,2,2.46a6.53,6.53,0,0,0,1.32-.33l.53-.17a2.28,2.28,0,0,0,2,1.48h.22a2.25,2.25,0,0,0,1.75-2,1.46,1.46,0,0,0,1-.32c.68-.58.68-1.81.6-2.94a44.09,44.09,0,0,0-1.55-7.44c-.1-.35-.18-.64-.23-.83-.6-2.42-1.46-4.8-2.28-7.1l-.35-1c-.21-.59-.4-1.3-.58-2-.09-.32-.18-.64-.26-.94a2.2,2.2,0,0,0-.77-1.21s-.09-.08-.1-.07h0c.38-.4,1.84-2,2.33-2.6.82-1,1.85-2.31,2.57-3.32,1.62-2.24,3-4.07,4.55-6.24l.35-.48a18.94,18.94,0,0,0,1.89-4.52c.27,1.28.64,2.45,1,3.75s.93,3,1.37,4.9a15.9,15.9,0,0,1,.27,1.67,8.93,8.93,0,0,0,.63,2.62c.24.57,4.61,3.72,6.5,4.69a7.42,7.42,0,0,1,.64.39,6.65,6.65,0,0,0,2.94,1.3,1.55,1.55,0,0,0,.31,0,1.33,1.33,0,0,0,.92-.87,2,2,0,0,0,0-1.44,1.31,1.31,0,0,0,.46-.76c.32-1.7-2.48-4.63-5.55-7.54-.33-.31-.65-.61-.69-.66a34.88,34.88,0,0,1-.08-9.52c.15-.78.33-1.59.53-2.45.3-1.28.61-2.61.8-4a6.2,6.2,0,0,1,1-2.62,48.74,48.74,0,0,0,4.07-6.47c.28-.63.69-1.9,1.14-3.3.28-.84.46-1.49.62-2.06.12-.4.21-.75.33-1.1a19.33,19.33,0,0,0,.56-3.57c0-.75.08-1.52.12-2.29.17-3,.34-6.17.32-9.13.37-.4.75-.79,1.11-1.19a68.18,68.18,0,0,0,4.21-5.45L91,127c2.44-3.31,4.9-7.37,7.28-11.29l.72-1.19a27.79,27.79,0,0,0,2.35-5.26l.08-.22a4.63,4.63,0,0,1,.6-1,4.27,4.27,0,0,0,.7-1.31,32.15,32.15,0,0,1,1.58-3.89q.31-.66.6-1.32a42.91,42.91,0,0,0,2.33-6.59c.18-.72.4-1.48.62-2.26a32.33,32.33,0,0,0,1.4-6.62c0-.43.07-.9.12-1.39h.43c1,0,1.76,0,2,0a7.48,7.48,0,0,0,1.19-.36c.29-.1.57-.2.87-.28a9.23,9.23,0,0,1,1.62-.18l.71,0a22.64,22.64,0,0,0,3.63-.72c.8-.21,1.56-.4,2.29-.52l.48-.1c.36,1.78.71,3.63,1,5.43.27,1.5.55,3,.83,4.41.19.92.46,2,.73,3.08a27,27,0,0,1,.74,3.41,7.66,7.66,0,0,0,.69,2.51,11.06,11.06,0,0,1,.56,1.55l.59,2.27c1.2,4.56,2.69,10.23,3.23,12.57a45.36,45.36,0,0,0,3.44,9.55c-1.31,3.64-1,7.23-.59,10.61a32,32,0,0,0,2,7.12c.41,1.11.83,2.25,1.19,3.43a26.34,26.34,0,0,0,2,5.11,12.7,12.7,0,0,1,1.31,4.49l.06.38A56.3,56.3,0,0,1,141,169.2a29.63,29.63,0,0,1-2.43,11.17c-.06.13-.11.28-.17.44a1.68,1.68,0,0,1-.27.6,2.35,2.35,0,0,1-1,.42h-.22a1.79,1.79,0,0,0-1.26.38,2,2,0,0,0-1.41.26,1.19,1.19,0,0,0-.47.53,1.24,1.24,0,0,0-.94.47,1,1,0,0,0-.2.5,1.63,1.63,0,0,0-1.83,1.66,2.73,2.73,0,0,0-1.64,1.28,2.44,2.44,0,0,0,0,2.19,2,2,0,0,0,2.06,1.24h.13a3.69,3.69,0,0,0,2-.43,22.08,22.08,0,0,0,1.85-1.36,8.61,8.61,0,0,1,3.68-2.07c1.17-.24,2.26-.55,3.55-.94l.54-.16a5,5,0,0,0,3.14-1.81,9.69,9.69,0,0,0,.8-1.74,9.47,9.47,0,0,1,.81-1.73,15.8,15.8,0,0,0,1.38-2.76c.2-.48.4-1,.63-1.44.47-1,.84-1.86,1.2-2.72a38.87,38.87,0,0,1,1.65-3.6l.2-.37.05-.09,1,2.76a56.06,56.06,0,0,0,2.38,5.88c.48,1,1,1.89,1.49,2.83l.31.56a11.47,11.47,0,0,1,1,2,15,15,0,0,0,.74,1.63,7.59,7.59,0,0,1,.61,1.38,8.67,8.67,0,0,1-.59,2.2l-.16.38a28.88,28.88,0,0,1-1.61,3.54c-.24.41-.59,1-.94,1.52a22.48,22.48,0,0,0-1.66,2.85,6.27,6.27,0,0,1-1.11,1.81c-.2.25-.4.51-.59.78l-.42.62a9.77,9.77,0,0,1-1.62,2,12.13,12.13,0,0,0-2.69,3.07,3.43,3.43,0,0,0-.44,1.63,1.13,1.13,0,0,0,.29.65,2.58,2.58,0,0,0-.62,1.56,4.47,4.47,0,0,0,.41,2.51,1.81,1.81,0,0,0,2.19.73l.15-.05a1.78,1.78,0,0,1,.76.57,2.47,2.47,0,0,0,1.47.9c1.31.14,2.33-1.09,2.8-2.19.27-.64.5-1.18.71-1.69a37.63,37.63,0,0,1,1.56-3.43c1-1.8,2.24-3.95,3.37-5.85l1.18-2c1.31-2.24,5.09-7.41,7.85-11.18,1-1.29,1.77-2.41,2.32-3.19a.42.42,0,0,0,.05-.39c-1.27-3.53-2.37-6.58-1.82-10.84.11-.8.19-1.63.28-2.46a37.21,37.21,0,0,1,.76-5.16c.1-.41.22-.81.34-1.22a12.86,12.86,0,0,0,.65-3.23c.14-3.74,1.49-9.06,4.07-9.16,5.37-.22,9.49,5.48,12.58,17.4.2.94.37,2,.55,3.1.23,1.45.47,2.95.79,4.19.24,1.45.53,2.92.81,4.34.84,4.32,1.72,8.79,1.4,13.22-.37,5-1.06,10.53-4.73,13.8a9.22,9.22,0,0,1-4.14,1.65,7.65,7.65,0,0,1-1.92-.24,3.47,3.47,0,0,0-2.94.21,2.12,2.12,0,0,0-1,1.94c.14,1.59,2,3.21,3.34,3.85a12,12,0,0,0,5.33,1.32,10.3,10.3,0,0,0,3.47-.6,12.25,12.25,0,0,0,6.86-6.54c.32-.7.68-1.38,1-2a20.61,20.61,0,0,0,1.76-4.08,35,35,0,0,0,.72-8.45c0-.86,0-1.74,0-2.63v-.58C201.35,186.59,201.48,181.68,200.53,177ZM26.73,158.72l-.3.6A.85.85,0,0,1,26.73,158.72Zm56.48-14.21c0,.78-.08,1.54-.12,2.29a18.81,18.81,0,0,1-.52,3.36c-.12.36-.22.72-.34,1.13-.15.56-.34,1.2-.62,2.08-.43,1.33-.84,2.58-1.1,3.16a47.59,47.59,0,0,1-4,6.31,7.17,7.17,0,0,0-1.14,3c-.19,1.31-.49,2.62-.78,3.88-.21.88-.4,1.7-.54,2.49-.51,2.71-.35,9.47.23,10.19.09.11.32.33.78.77,1.38,1.3,5.58,5.28,5.3,6.76,0,.12-.08.26-.36.37a.44.44,0,0,0-.25.28.44.44,0,0,0,.07.37,1.15,1.15,0,0,1,.17,1,.49.49,0,0,1-.31.33c-.57.13-1.89-.71-2.6-1.16-.29-.18-.54-.34-.71-.43a41,41,0,0,1-6.11-4.26,8.34,8.34,0,0,1-.57-2.4,16.8,16.8,0,0,0-.28-1.75c-.45-2-1-3.57-1.39-5a29.76,29.76,0,0,1-1.3-5.16l0-.07c.44-1.46.86-3,1.25-4.39l.38-1.39c.31-1.11.58-2.14.85-3.14.4-1.53.78-3,1.26-4.53q.21-.7.45-1.44a22.23,22.23,0,0,0,1.27-5.32c.09-1.32.79-4.85.89-5.35a9,9,0,0,1,1.65-2.06c1-1,2.07-1.9,3.12-2.84,1.9-1.71,3.84-3.47,5.69-5.35C83.51,139,83.36,141.79,83.21,144.51ZM107,92.44c-.23.79-.45,1.56-.63,2.29a42.19,42.19,0,0,1-2.29,6.45l-.59,1.31a32.1,32.1,0,0,0-1.63,4,3.43,3.43,0,0,1-.58,1.06,5.32,5.32,0,0,0-.7,1.24l-.08.22a26.89,26.89,0,0,1-2.28,5.11l-.72,1.19c-2.37,3.9-4.82,7.94-7.23,11.22L89,128.29a67.44,67.44,0,0,1-4.15,5.38,99.48,99.48,0,0,1-7.6,7.38c-1.05.94-2.1,1.89-3.13,2.85a9.19,9.19,0,0,0-1.85,2.34.49.49,0,0,0,0,.11c0,.16-.82,4.05-.92,5.52A21.6,21.6,0,0,1,70.1,157c-.17.5-.33,1-.47,1.46-.47,1.58-.86,3-1.26,4.56-.27,1-.54,2-.85,3.14l-.38,1.38c-1,3.77-2.47,8.92-3.54,10.38l-.34.47c-1.6,2.18-2.94,4-4.56,6.25-.71,1-1.73,2.28-2.54,3.29-.53.65-2.36,2.63-2.38,2.65a.44.44,0,0,0-.1.19.89.89,0,0,0,.36,1,1.35,1.35,0,0,1,.5.79c.09.3.17.61.25.93.19.7.39,1.43.61,2.06l.35,1c.82,2.28,1.66,4.64,2.26,7,.05.19.13.49.23.84a44.59,44.59,0,0,1,1.52,7.29c0,.45.14,1.85-.3,2.22a.87.87,0,0,1-.76.07.48.48,0,0,0-.35.07.42.42,0,0,0-.17.31c-.09.94-.51,1.6-1.08,1.67s-1.11-.42-1.42-1.26a.43.43,0,0,0-.47-.28,10.07,10.07,0,0,0-1,.28,6.31,6.31,0,0,1-1.12.3c-.73.06-.86-.26-1.12-1.76-.08-.43-.16-.91-.29-1.42-.19-.76-.52-1.67-.84-2.55a18.42,18.42,0,0,1-.79-2.44,55.38,55.38,0,0,0-2.86-9.44c-.76-2.07-1.55-4.21-2.17-6.42a7.39,7.39,0,0,0-.59-1.42,5.06,5.06,0,0,1-.48-1.21c.05-.53.47-4.92,1-7.88a50.05,50.05,0,0,0-.1-14.65,8.45,8.45,0,0,1,.12-2.37,9.11,9.11,0,0,0,.09-3,96.47,96.47,0,0,0-2.63-11.09,2.91,2.91,0,0,0-1.94-2c-2.31-.65-5.55,1.74-7.79,3.6a20.31,20.31,0,0,0-4.21,4.73.54.54,0,0,0-.4-.63.55.55,0,0,0-.54.2.48.48,0,0,0-.29-.32.52.52,0,0,0-.57.1c.06-.14.12-.28.17-.43a.53.53,0,1,0-1-.35c-.09.26-.2.52-.31.77,0-.23,0-.48,0-.75a.53.53,0,0,0-.53-.53h0a.53.53,0,0,0-.53.53,3.7,3.7,0,0,1-.65,2.32l-.24.34a5.55,5.55,0,0,0-1,1.89.53.53,0,0,0,.39.64l.12,0a.48.48,0,0,0,.29-.1.56.56,0,0,0,.22.26.59.59,0,0,0,.26.07.55.55,0,0,0,.37-.18A3.94,3.94,0,0,0,24,161a.54.54,0,0,0,.53.54h0A.53.53,0,0,0,25,161a3.56,3.56,0,0,1,.35-1.34.51.51,0,0,0,.5.41h0a.47.47,0,0,0,.17,0c-.33.67-.67,1.36-1,2.1a55.45,55.45,0,0,0-3.46,10,3.72,3.72,0,0,0,0-.66.53.53,0,0,0-.59-.46.55.55,0,0,0-.31.16c0-.11,0-.22,0-.32a.53.53,0,0,0-.53-.53h0a.53.53,0,0,0-.54.53c0,.21,0,.44,0,.68a4.39,4.39,0,0,1,0,1.32,2,2,0,0,1-.36.56,2.86,2.86,0,0,0-.3.41,8.4,8.4,0,0,0-.85,1.92.53.53,0,0,0,.34.67.45.45,0,0,0,.16,0,.51.51,0,0,0,.34-.13.13.13,0,0,1,0,.06,2.62,2.62,0,0,1,0,.62.53.53,0,0,0,.25.7.68.68,0,0,0,.23,0,.53.53,0,0,0,.48-.3,2.24,2.24,0,0,0,.09-1.15,2.93,2.93,0,0,1,0-.84,2.85,2.85,0,0,1,.38-.7l.18-.27.21-.33a7.66,7.66,0,0,0,.56-1c-.91,3.71-1.57,7.37-2.13,10.46-1.08,6-1.31,10.55.56,17.32a18.73,18.73,0,0,0,2.42,5.61,7.36,7.36,0,0,1,1.07,2.24c.33,1.29.08,2.43-.35,2.69a3.48,3.48,0,0,1-2.77-.24,11.64,11.64,0,0,1-3.67-3.27,18.44,18.44,0,0,1-1.71-2.34.5.5,0,0,0,.23-.39c.11-1.22-.08-1.63-.46-2a16.93,16.93,0,0,1-.15-2.23s0,0,0,0a7.63,7.63,0,0,1,.64,2.25,3.61,3.61,0,0,0,.76,2.07.55.55,0,0,0,.38.16.53.53,0,0,0,.37-.15.54.54,0,0,0,0-.76,2.61,2.61,0,0,1-.47-1.45,8.92,8.92,0,0,0-.81-2.77.53.53,0,0,0-1,.38.56.56,0,0,0-.42-.23h0a.54.54,0,0,0-.53.54,18.17,18.17,0,0,0,.11,1.94,44.65,44.65,0,0,1-1.55-4.7c-.21-.73-.43-1.49-.68-2.29a26.22,26.22,0,0,1-.75-5.25,3,3,0,0,0,.14.59.54.54,0,0,0,.5.35l.18,0a.59.59,0,0,0,.17-.1,2.45,2.45,0,0,0,.16.66.54.54,0,0,0,.49.31.52.52,0,0,0,.48-.74,3.66,3.66,0,0,1-.11-1.3c0-.14,0-.29,0-.42,0-.62-.06-1.21-.12-1.79a15.77,15.77,0,0,1-.11-1.79.55.55,0,0,0-.53-.54.5.5,0,0,0-.26.08.51.51,0,0,0-.43-.15.54.54,0,0,0-.46.6,7.68,7.68,0,0,1-.07,1.89c0,.31-.07.63-.09,1a24,24,0,0,1,.27-4.37,24.55,24.55,0,0,1,1.68-5.22,12.18,12.18,0,0,0,1-3.21c0-.43,0-.82.09-1.2a.5.5,0,0,0,.24.06.39.39,0,0,0,.18,0,.51.51,0,0,0,.3-.67,1.41,1.41,0,0,1,.08-.4,3.2,3.2,0,0,0,.09-.49l0-.2a3.21,3.21,0,0,1,.22-1,15.4,15.4,0,0,1,.74-1.46l.06-.12s0,.05,0,.08a3.23,3.23,0,0,1-.25,2.2c0,.1-.15.25-.26.44-.48.76-.93,1.48-.58,2a.54.54,0,0,0,.44.23.55.55,0,0,0,.3-.09l0,0a.87.87,0,0,0,.35.29.46.46,0,0,0,.22.06.54.54,0,0,0,.46-.28.53.53,0,0,0,0-.49h0l.18-.22a7.31,7.31,0,0,0,.72-1.32,15.79,15.79,0,0,0,.6-1.66c.14-.43.28-.84.43-1.22a10.67,10.67,0,0,1-.39,1.17,10.28,10.28,0,0,0-.6,2.08,4.42,4.42,0,0,1-.2.56c-.25.62-.39,1-.17,1.32a.52.52,0,0,0,.44.22.55.55,0,0,0,.3-.09.54.54,0,0,0,.22-.52,4.66,4.66,0,0,1,.2-.54,4.34,4.34,0,0,0,.26-.81,9.2,9.2,0,0,1,.55-1.85,12.41,12.41,0,0,0,.44-1.35.54.54,0,0,0-.39-.64.53.53,0,0,0-.61.33s0-.09.05-.13a.53.53,0,1,0-1-.43,14.72,14.72,0,0,0-.57,1.57l-.06.18a3.15,3.15,0,0,0-.15-1.34.54.54,0,0,0-.68-.31c.13-.25.25-.49.36-.75a.53.53,0,0,0-.28-.7.52.52,0,0,0-.51.07c.57-1.67,1.53-4.17,2.32-6.2l.81-2.12c.39-1,.81-2.12,1.25-3.21a.06.06,0,0,0,0,0,.51.51,0,0,0,.51.41l.13,0,.1,0a.76.76,0,0,1,0,.11.53.53,0,0,0,.31.68.72.72,0,0,0,.19,0H21a2.26,2.26,0,0,0-.06.57.52.52,0,0,0,.53.51h0a.54.54,0,0,0,.51-.56,2.71,2.71,0,0,1,.34-1.1s.06-.08.1-.14a1.66,1.66,0,0,0,.3-.47,1.53,1.53,0,0,0,.06-.58,1.28,1.28,0,0,1,0-.22,1.24,1.24,0,0,1,.36-.43,1.69,1.69,0,0,0,.66-1.08c0-.13,0-.24.05-.35a.91.91,0,0,1,.32-.73.53.53,0,0,0,0-.75.54.54,0,0,0-.75,0,1.93,1.93,0,0,0-.52.72.52.52,0,0,0-.4-.38h-.19a.33.33,0,0,0-.15-.11.53.53,0,0,0-.71.25,13,13,0,0,1-1,1.88l-.11.17A50.74,50.74,0,0,1,23.13,150a27.09,27.09,0,0,1,2.89-3.9l1.05-1.27.65-.82a26,26,0,0,1,4.43-4.71A34.71,34.71,0,0,0,37.2,135l.39-.42c.62-.67,1.21-1.32,1.92-2a9.35,9.35,0,0,0,.8-.93,16.48,16.48,0,0,1,2.37-2.54A16.72,16.72,0,0,0,46.39,125c.38-.56.76-1.14,1.25-1.76a47.52,47.52,0,0,0,4.41-6.92c.68-1.24,1.29-2.22,1.89-3.17s1.27-2,2-3.38c.46-.85.88-1.7,1.3-2.56A46.45,46.45,0,0,1,60.09,102a.36.36,0,0,0,0-.09c.5-1.43,1.1-3,1.68-4.59.49-1.3,1-2.58,1.39-3.74.72-2,1.3-3.82,1.92-5.72.4-1.24.81-2.5,1.27-3.85.18-.54.37-1.27.57-2s.47-1.81.7-2.41a11.25,11.25,0,0,0,.52-1.93c.06-.29.13-.61.22-1,.63-2.59,1.81-7.73,1.82-7.78a.42.42,0,0,0-.66-.44,8,8,0,0,1-1.21.69l.27-.34a13.27,13.27,0,0,0,2.45-3.89.41.41,0,0,0-.15-.47.42.42,0,0,0-.49,0c-.25.17-.67.41-1.13.66a13,13,0,0,0,1-1.24,22.8,22.8,0,0,0,2-3.64.41.41,0,0,0-.18-.53.42.42,0,0,0-.55.11,6.86,6.86,0,0,1-1.91,1.29c1.46-2.43,3.26-5.64,3.39-6.81a.42.42,0,0,0-.65-.4c-.38.25-.79.55-1.21.87l-.68.51c1.22-1.83,2.8-4.05,2.83-4.08a.43.43,0,0,0,0-.53.43.43,0,0,0-.53-.09l-1.31.73c1-1.4,2.38-3.47,3.18-4.89a.42.42,0,0,0-.51-.61,17.37,17.37,0,0,0-1.66.77l1.29-1.93c.69-1,2.39-3.85,2.46-4a.44.44,0,0,0,0-.5.43.43,0,0,0-.5-.1,11.56,11.56,0,0,1-1.18.47A22.66,22.66,0,0,0,77,37c.3-.51.57-.95.89-1.39a.41.41,0,0,0,0-.51.42.42,0,0,0-.51-.12c-.54.24-.94.4-1.25.51a23.71,23.71,0,0,1,4.3-5.26.44.44,0,0,0,.13-.48.4.4,0,0,0-.41-.28,4.77,4.77,0,0,0-.67.07,12.76,12.76,0,0,0,1.06-1A12.88,12.88,0,0,0,82,26.41c.13-.23.26-.44.38-.63a.44.44,0,0,0,0-.49.42.42,0,0,0-.33-.16l.19-.16A7.35,7.35,0,0,0,84,22.64a7.92,7.92,0,0,0,.33-.75,4.19,4.19,0,0,1,.77-1.39,1.14,1.14,0,0,1,.36-.19,1.4,1.4,0,0,0,.75-.54,2.89,2.89,0,0,0,.42-1.36l0-.42a11.55,11.55,0,0,1,1.11-4.66c.63-1.24,1.14-2.52,1.64-3.76l.3-.75a13.66,13.66,0,0,1,.7-1.37v1c0,.53,0,1.06,0,1.6s0,.92,0,1.39a5.86,5.86,0,0,0,.12,1.14l.06.34a.43.43,0,1,0,.84-.13l-.06-.36a5.56,5.56,0,0,1-.11-1c0-.46,0-.92,0-1.38s0-1.07,0-1.61V6.79a8.65,8.65,0,0,1,.07-1.22,4,4,0,0,0,.15-.49L91.56,5c.18.06.56.6.73.83l.23.32c.66.82,1.17,1.38,1.67,1.92A23.31,23.31,0,0,1,96,10.22c.06.1.14.23.21.36.3.52.71,1.23,1.41,1A15.89,15.89,0,0,1,102.12,10a2.49,2.49,0,0,1,.77,0,3.82,3.82,0,0,0,.68,0,.42.42,0,0,0,.38-.3c.16-.53.28-1,.41-1.52a19,19,0,0,1,.56-2,8.75,8.75,0,0,1,.6-1.24c.18-.33.38-.68.56-1.08.14.67.23,1.41.31,2.06l.07.53c0,.19,0,.45,0,.73A4.32,4.32,0,0,0,106.75,9a2.37,2.37,0,0,0,1.43,1,4.37,4.37,0,0,1,.95.44,3.81,3.81,0,0,1,.91.94c.11.14.21.28.32.4s.37.39.57.59.42.41.66.68a23.46,23.46,0,0,0,2.21,2.24,2.27,2.27,0,0,1,.51.83,3.13,3.13,0,0,0,.46.83,5.41,5.41,0,0,0,1,.9,6.68,6.68,0,0,1,.71.55,1.41,1.41,0,0,0-.66.32.81.81,0,0,0-.23.6,5,5,0,0,0,.63,1.45,1.56,1.56,0,0,0,.73.59c-.07.21-.14.43-.22.65l-.12.35c-.36,1.07-.61,1.68-1.56,1.8-.54.07-1.09.12-1.62.14a.44.44,0,0,0-.36-.21.43.43,0,0,0-.42.31,1,1,0,0,0,0,.34.46.46,0,0,0,.08.25c.32,1.53.69,2.69,2.47,2.81l.23,0c.15,0,.32,0,.49,0a2.49,2.49,0,0,0,.53-.07l.11.15.15.25.24.28a.67.67,0,0,0-.14.15c-.93,1.65-3.17,1.9-4.08,1.93l-.63,0c-1,0-1.52,0-1.85.4s-.31.89-.24,1.94V33s.29,4.26.71,4.68a8.47,8.47,0,0,0,2.25.84c.9.3,1.92.63,2.5.86l.41.17a11.87,11.87,0,0,0,4.34,1.12c0,.22,0,.45,0,.68s0,.55,0,.85c0,.52,0,1.05,0,1.58l-2-.92-.74-.35c-.75-.35-1.53-.72-2.33-1a11.37,11.37,0,0,1-2.31-1.18l-1.62-1c-1-.62-2.11-1.27-3.11-1.94a31.46,31.46,0,0,1-2.58-2l-.73-.59c-.55-.45-1.08-.87-1.6-1.38a1.4,1.4,0,0,0-.79-.42c-.34-.16-2.31-1.9-3-2.47l-.45-.38c-.13-.12-.29-.23-.45-.35s-.26-.19-.37-.29a11.47,11.47,0,0,0-1.53-1l-.14-.09a4,4,0,0,0-2.16-.76l-.27,0-.06,0-.17-.06a.28.28,0,0,1-.11-.05,2.67,2.67,0,0,0-.48-.54.33.33,0,0,0-.38,0,.35.35,0,0,0-.14.35s.09.32.15.46L93,28l.06.13a1.86,1.86,0,0,0,.1.25.46.46,0,0,1,.07.22v0l0,.08-.24,0a4.54,4.54,0,0,0-1.75.05l-.13-.11-.14-.13a1.13,1.13,0,0,0-.35-.2l-.31-.12h0a.46.46,0,0,0-.19-.09.43.43,0,0,0-.32.76h0a1.17,1.17,0,0,1,.33.63c0,.08-.1.15-.14.23a1.44,1.44,0,0,0-.1,1.19,1.65,1.65,0,0,0,.27.42l0,.06a1.51,1.51,0,0,0-.63.15l-.05-.05-.7-.65a.32.32,0,0,0-.41,0,.32.32,0,0,0-.08.41,9.86,9.86,0,0,1,.58,1.24,1.51,1.51,0,0,0,.13.45L89,33a2.2,2.2,0,0,1,.16.78,3.5,3.5,0,0,0,.47,1.43s0,.05,0,.07a2.29,2.29,0,0,0-1.09.44,1.23,1.23,0,0,0-.36.46A4.89,4.89,0,0,0,87.16,36l-.06,0a1.92,1.92,0,0,1-.83-.49.35.35,0,0,0-.42,0,.34.34,0,0,0-.09.41,1.29,1.29,0,0,1,.13.81.38.38,0,0,0,0,.15,2,2,0,0,0,.21,1.3,8,8,0,0,0,.5.94,1.47,1.47,0,0,0-.53,1.09.38.38,0,0,0-.15.09l-.05.06h0a.24.24,0,0,0-.12-.07,1.69,1.69,0,0,1-.31-.13,2,2,0,0,1-.3-.51.32.32,0,0,0-.59.23l.22.67a1,1,0,0,1,0,.31V41a.28.28,0,0,1,0,.23,1.54,1.54,0,0,0-.72.3.56.56,0,0,1-.34-.08,1.3,1.3,0,0,0-.1-.15l0,0c-.09-.13-.24-.29-.38-.45a.35.35,0,0,0-.23-.12.36.36,0,0,0-.27.12.35.35,0,0,0,0,.37h0a5.09,5.09,0,0,0,.39.47c0,.05.08.11.12.15l0,.11.1.2a.11.11,0,0,1,0,.06.3.3,0,0,0,0,.21,1.1,1.1,0,0,0,.38,1.28,1.16,1.16,0,0,0-.11.16,3.54,3.54,0,0,0-1-.27.31.31,0,0,0-.29.19.38.38,0,0,0,.08.39.33.33,0,0,0,.17.21c.06,0,.08,0,.15.11l.08.09a2.55,2.55,0,0,0,.37.25c.11.08.31.2.38.27a.31.31,0,0,0,.24.2,2.38,2.38,0,0,0,.65.81,16.3,16.3,0,0,0,1.5,1c.42.24.86.49,1.27.77A22.24,22.24,0,0,0,92,50c.53.2,1,.39,1.53.59,2.2.89,4.06,1.66,6.27,2.66.72.33,1.39.62,2,.9a36.53,36.53,0,0,1,4.34,2.09c1.43.84,3.47,1.94,5,2.68.21.11.75.38,5.32-.89a43.92,43.92,0,0,0,6-2.16l.37-.18c1.76-.79,3.42-1.54,5.06-2.19a53.16,53.16,0,0,0,6.41-3.08,24.47,24.47,0,0,0,2.8-1.89l1.11-.81.84-.6a14.6,14.6,0,0,1,1.64-1.1c.77-.45,1.4-.9,2.07-1.37.31-.23.64-.46,1-.7s.92-.7,1.34-1a11.58,11.58,0,0,1,1.61-1.2,7.44,7.44,0,0,0,1.8-1.55,4.39,4.39,0,0,1,1-.92,1.19,1.19,0,0,1,.85-.14,1.45,1.45,0,0,1,.66.81.42.42,0,0,0,.39.26.42.42,0,0,0,.38-.25.86.86,0,0,1,.54-.08,1.55,1.55,0,0,1,.81.23c.16.19.16.28.13.57a3.11,3.11,0,0,0,0,.34v.47a3.3,3.3,0,0,0,.11,1.27.43.43,0,0,0,.38.28,1.55,1.55,0,0,1,.78.21,1.83,1.83,0,0,1,.09,1.09,3.38,3.38,0,0,1-1.78,2.2,46.66,46.66,0,0,0-4.18,2.68c-3,2.19-6.06,4.29-8.77,6.07a63.91,63.91,0,0,1-5.72,3.46,35.42,35.42,0,0,0-3.51,2.11c-.55.36-1.11.73-1.72,1.1-1.2.75-2.11,1.22-3.16,1.77-.87.45-1.76.91-2.93,1.58-1.34.78-2.68,1.42-4.1,2.11l-1.78.87-1.33.69c-1.07.56-2.28,1.19-3.25,1.58-.32.12-.61.26-.91.4a12.9,12.9,0,0,1-1.19.51l-.09,0a.47.47,0,0,0-.17,0,.42.42,0,0,0-.33.17,15.91,15.91,0,0,1-2.14.36.43.43,0,0,0-.39.46.42.42,0,0,0,.42.39h0a15.85,15.85,0,0,0,2-.32,78.85,78.85,0,0,1-.73,9c-.12.91-.23,1.8-.31,2.63a.34.34,0,0,0,0,.18s0,0,0,0c-.06.59-.11,1.17-.15,1.69A31.49,31.49,0,0,1,107,92.44ZM22.79,154.7a1.48,1.48,0,0,1,0,.19.65.65,0,0,1-.27.43C22.6,155.12,22.7,154.91,22.79,154.7ZM118.18,20.28c.37.36.4.87.4,1.6,0,.95-.18,1.32-.66,1.46a1.67,1.67,0,0,1-.74,0,7.25,7.25,0,0,0,.28-.78l.12-.34A17.43,17.43,0,0,0,118.18,20.28Zm2.28,17.6,0,.63c0,.45-.08.9-.1,1.34a11,11,0,0,1-4.06-1.06l-.41-.17c-.61-.24-1.65-.58-2.56-.88-.74-.24-1.66-.54-1.87-.62a33.11,33.11,0,0,1-.5-4.15v-.16a4,4,0,0,1,0-1.32,3.61,3.61,0,0,1,1.25-.12l.63,0a6.48,6.48,0,0,0,4.11-1.47A5.38,5.38,0,0,0,118,32.29l.29.43a15.52,15.52,0,0,0,1.75,2.2l.27.28c.22.23.31.32.31.43C120.6,36.15,120.52,37.15,120.46,37.88Zm-3.18-10.1-.14-.22a2.71,2.71,0,0,0-.28-.41.45.45,0,0,0-.22-.23,1.67,1.67,0,0,0-.26-.17,1.31,1.31,0,0,0-.52-.09h-.15a2.63,2.63,0,0,1,1.34-.8,4,4,0,0,1,.5,0,2.79,2.79,0,0,1,.47.05.36.36,0,0,0,.23.09h0a1.21,1.21,0,0,1,.59.47c.33.5.53,1.45,0,1.86S117.62,28.26,117.28,27.78Zm.27-2.6a3.08,3.08,0,0,0-.61.06,4,4,0,0,0-2.2,1.52l0,0c-.57-.2-.79-.69-1-1.7.5,0,1-.07,1.53-.13a2.21,2.21,0,0,0,1.51-.81,2.83,2.83,0,0,0,.71.1,2.22,2.22,0,0,0,.37,0c0,.3,0,.56,0,.79,0,.07,0,.13,0,.19A2.48,2.48,0,0,0,117.55,25.18Zm-.3-4.68a.71.71,0,0,1-.26-.21,9.4,9.4,0,0,1-.51-1s.21-.16,1-.16A8.52,8.52,0,0,1,117.25,20.5ZM100.11,44.12c2.32,1.79,4.7,3.52,7.56,5.57l.8.58a20.17,20.17,0,0,0,5.67,3.24,11,11,0,0,1,2.9,1.34,7.9,7.9,0,0,0,1.87.79c.34.11.69.23,1,.37-1.45.55-2.71.94-3.53,1.17l-.07,0a14.05,14.05,0,0,1-2.11-.78l-.77-.32a11.86,11.86,0,0,0-1.27-.43,6.19,6.19,0,0,1-.85-.3c-2.74-1.29-5.3-2.6-8.56-4.39-.57-.31-1.21-.63-1.86-1a30.48,30.48,0,0,1-4-2.27C96,47.06,95,46.44,94,45.85s-1.94-1.18-2.77-1.78l-.86-.61a30.73,30.73,0,0,1-3.2-2.5l-.09-.23c-.26-.5-.36-.71.31-1.21a.42.42,0,0,0,.09-.59,7.44,7.44,0,0,1-.63-1.1c-.25-.59-.25-.72,0-.9a2.72,2.72,0,0,1,1.57.12.42.42,0,0,0,.36,0,.46.46,0,0,0,.18-.32.5.5,0,0,1,.18-.36,2.14,2.14,0,0,1,1.29-.27h0C93.37,38.7,96.77,41.54,100.11,44.12ZM85,43.46l-.34-.21c-.54-.31-.57-.4-.45-.65s.46-.66.9-.53a.42.42,0,0,0,.41-.1.4.4,0,0,0,.12-.4c0-.19,0-.35,0-.38s.52,0,1,.42a.6.6,0,0,0,.11.06,31.34,31.34,0,0,0,3.2,2.48l.85.61c.86.62,1.86,1.22,2.83,1.81s2,1.2,2.81,1.81a33.05,33.05,0,0,0,4.12,2.34c.65.33,1.28.65,1.84,1,3.28,1.8,5.85,3.12,8.61,4.41a6,6,0,0,0,1,.34c.31.09.66.2,1.2.41l.74.31c.32.14.67.29,1,.43a11.75,11.75,0,0,1-3.43.61c-1.47-.73-3.49-1.83-4.91-2.65a37.25,37.25,0,0,0-4.43-2.14l-2-.89c-2.23-1-4.1-1.78-6.31-2.68-.49-.2-1-.39-1.55-.59a21.47,21.47,0,0,1-4.58-2.13c-.44-.31-.9-.57-1.33-.82a15.67,15.67,0,0,1-1.43-.89,1.61,1.61,0,0,1-.57-1.18.51.51,0,0,1,.27,0A.43.43,0,0,0,85.1,44,.42.42,0,0,0,85,43.46Zm66.09-4.92h0ZM135.43,59.21a76.21,76.21,0,0,0,7.83-3.14c1.16-.52,2.25-1,3.4-1.47l.19-.07A27.38,27.38,0,0,0,151,52.64a8.93,8.93,0,0,0,1.26-1c.78-.74,1.46-1.38,2.44-1.28a1.74,1.74,0,0,1-.07,1.2l-.08.33a.47.47,0,0,0,.1.36.41.41,0,0,0,.34.14c1.09,0,1.82.16,1.95.54s-.27,1-.94,1.49a.41.41,0,0,0-.17.41.44.44,0,0,0,.28.34c.56.19,1.1.42,1.22.82s-.05.56-.3.92a3,3,0,0,0-.23.38c-1.73,0-3.23,1.15-4.69,2.23a14,14,0,0,1-3,1.89,21.43,21.43,0,0,0-3.68,1.84,34.7,34.7,0,0,1-5.33,2.43,26.92,26.92,0,0,0-5,2.4,27.62,27.62,0,0,1-2.57,1.53l-.25,0a.42.42,0,0,0-.51.31.66.66,0,0,0,0,.14,62.35,62.35,0,0,1-9.25,3.48l-1.37.43a26.84,26.84,0,0,0-3.51,1.49,22,22,0,0,1-7.49,2.4,50.94,50.94,0,0,0,.31-5.49l.11,0a11.13,11.13,0,0,0,1.29-.54c.27-.13.55-.26.86-.38,1-.41,2.24-1,3.32-1.62.47-.24.91-.48,1.32-.68l1.77-.87c1.37-.66,2.78-1.34,4.15-2.13,1.16-.67,2-1.12,2.9-1.57,1-.53,2-1,3.22-1.79.62-.39,1.18-.76,1.73-1.12a35.37,35.37,0,0,1,3.43-2.06l.55-.3A.42.42,0,0,0,135.43,59.21ZM122,81.68a22.64,22.64,0,0,0-2.36.54,21.77,21.77,0,0,1-3.49.69l-.68,0a9,9,0,0,0-1.78.21c-.33.08-.64.19-1,.3a7.12,7.12,0,0,1-1.06.32c-.19,0-1.27,0-1.85,0h-.34c.08-.72.17-1.48.27-2.26.11-.94.23-1.92.34-2.91a22.55,22.55,0,0,0,8-2.51,25,25,0,0,1,3.39-1.44l1.36-.43a59.36,59.36,0,0,0,9.91-3.81,4.67,4.67,0,0,0,2-.1,5.86,5.86,0,0,1,.9-.14,7.05,7.05,0,0,0,1.75-.34c.31-.08.61-.17.93-.23.75-.15,1.39-.32,2-.49.4-.11.8-.22,1.24-.32.26-.07.53-.12.79-.18a12.81,12.81,0,0,0,1.93-.51c1.09-.41,2.22-.78,3.32-1.14a55.89,55.89,0,0,0,5.73-2.15,4.92,4.92,0,0,0,1.13-.85,4.88,4.88,0,0,1,.78-.65,4.66,4.66,0,0,1,1.52-.59,2,2,0,0,1-.07.59,3,3,0,0,0-.09.79.42.42,0,0,0,.43.4c.94,0,2.18.19,2.56.87.17.31,0,.71-.56,1.33a7.17,7.17,0,0,1-1.21,1,.42.42,0,0,0,0,.72c.36.22.87.7.84,1a2.13,2.13,0,0,1-.84,1.42,4.38,4.38,0,0,1-2.76.86c-1.23-.22-2.82.45-4.5,1.15a24.06,24.06,0,0,1-2.27.86c-.68.21-1.35.46-2,.69-.82.3-1.66.61-2.51.84-.39.1-.79.18-1.18.26a11.75,11.75,0,0,0-2.13.56c-1.47.58-3,1.06-4.5,1.51l-1.54.48-1.06.34a37.1,37.1,0,0,1-4.65,1.3,20.61,20.61,0,0,0-3.36,1,23.3,23.3,0,0,1-2.28.74.39.39,0,0,0-.26,0,.36.36,0,0,0-.23.15C122.37,81.6,122.17,81.65,122,81.68Zm30,87.13-.2.38a39.11,39.11,0,0,0-1.69,3.67c-.35.85-.72,1.74-1.17,2.68-.24.5-.45,1-.65,1.48a15.63,15.63,0,0,1-1.31,2.62,10.11,10.11,0,0,0-.89,1.89,9.74,9.74,0,0,1-.73,1.6,4.29,4.29,0,0,1-2.65,1.44l-.56.16a34.82,34.82,0,0,1-3.47.93,9.51,9.51,0,0,0-4,2.23,17.5,17.5,0,0,1-1.77,1.3,3.08,3.08,0,0,1-1.65.31c-.66,0-1-.12-1.3-.74a1.64,1.64,0,0,1,0-1.45,2,2,0,0,1,1.43-.93.43.43,0,0,0,.28-.19.45.45,0,0,0,0-.34.78.78,0,0,1,.34-.92.6.6,0,0,1,.69,0,.46.46,0,0,0,.42.1.43.43,0,0,0,.29-.32,2,2,0,0,0,0-.41.51.51,0,0,1,.05-.3c.08-.1.15-.12.44-.14l.24,0a.44.44,0,0,0,.36-.42s0-.11.15-.21a1.1,1.1,0,0,1,.91-.09.43.43,0,0,0,.52-.14c.18-.25.39-.26.8-.27h.25a3.07,3.07,0,0,0,1.59-.66,2.36,2.36,0,0,0,.49-.94,2.34,2.34,0,0,1,.13-.35,30.55,30.55,0,0,0,2.51-11.49,57.37,57.37,0,0,0-.65-11l-.07-.38a13.11,13.11,0,0,0-1.4-4.76,27,27,0,0,1-1.91-5c-.36-1.17-.78-2.33-1.2-3.44a31.2,31.2,0,0,1-2-6.94,22.81,22.81,0,0,1,.3-9.39c.85,1.7,1.8,3.43,2.86,5.28l.53.91c.42.73.78,1.35,1.22,2.15a19,19,0,0,0,2,2.91,24.85,24.85,0,0,0,2.69,2.76l.22.19a19.76,19.76,0,0,0,2.62,2.1,11.27,11.27,0,0,0,0,2,12.15,12.15,0,0,1,0,1.26,15.3,15.3,0,0,0,.08,1.58,16.63,16.63,0,0,0,.51,2.84c.26.86.35,1.22.59,2.27,0,.23.13.49.2.75a7.13,7.13,0,0,1,.26,1.07,31.38,31.38,0,0,0,.87,3.62c.2.58.35,1.07.51,1.59.08.29.18.59.28.93.29.91.62,1.86,1,3L152,167l.4,1.11Zm38.65-.12c-.35-1.35-.91-3.53-1.76-5.91a2.43,2.43,0,0,0,.41.63l.14.14.09.1a.85.85,0,0,0,.71.95l.14,0a.86.86,0,0,0,.84-.72,1.68,1.68,0,0,0-.57-1.53l-.1-.11a2,2,0,0,1-.32-.83l-.06-.29a6.15,6.15,0,0,0-.28-1,3.44,3.44,0,0,0-.64-.94,3.09,3.09,0,0,1-.32-.4.85.85,0,0,0-1.15-.34.81.81,0,0,0-.41.58c-2.14-4.49-5.37-8.61-10.15-8.42-3.71.15-4.79,7.26-4.89,10a12.19,12.19,0,0,1-.62,3c-.12.42-.25.83-.35,1.25a38.47,38.47,0,0,0-.78,5.29q-.12,1.23-.27,2.43c-.57,4.37.51,7.48,1.79,11l-2.18,3c-2.77,3.78-6.57,9-7.91,11.25-.36.62-.76,1.29-1.17,2-1.14,1.91-2.43,4.07-3.39,5.9a36.67,36.67,0,0,0-1.6,3.5c-.2.5-.43,1-.7,1.67-.38.87-1.14,1.77-1.93,1.68a1.76,1.76,0,0,1-.95-.64,2.34,2.34,0,0,0-1.22-.81,1.32,1.32,0,0,0-.51.05c-.52.13-.92.19-1.27-.36a3.7,3.7,0,0,1-.27-2,1.74,1.74,0,0,1,.39-1,.22.22,0,0,1,.17-.06.42.42,0,0,0,.29-.76l-.17-.13c-.29-.2-.34-.24-.36-.41a2.66,2.66,0,0,1,.36-1.11,11.27,11.27,0,0,1,2.49-2.83,10.68,10.68,0,0,0,1.77-2.21l.41-.6c.18-.26.37-.51.56-.75a7.14,7.14,0,0,0,1.25-2.06,24.23,24.23,0,0,1,1.57-2.66c.36-.58.71-1.13,1-1.54a29.12,29.12,0,0,0,1.67-3.66l.15-.39a8.63,8.63,0,0,0,.66-2.61,6.09,6.09,0,0,0-.7-1.67,13.55,13.55,0,0,1-.69-1.51,12.49,12.49,0,0,0-1.05-2.14c-.1-.18-.21-.36-.31-.55-.51-.93-1-1.81-1.46-2.79a54.4,54.4,0,0,1-2.35-5.79c-.59-1.66-1.19-3.3-1.79-5l-.52-1.39c-.41-1.14-.74-2.08-1-3l-.28-.92c-.16-.53-.31-1-.51-1.62a26.87,26.87,0,0,1-.83-3.44,8.08,8.08,0,0,0-.29-1.21c-.07-.24-.14-.48-.19-.69-.24-1.07-.35-1.46-.61-2.34a16.14,16.14,0,0,1-.48-2.72c-.05-.39-.06-.93-.07-1.46s0-.95,0-1.33a10.25,10.25,0,0,1,0-1.92l0-.27a.42.42,0,0,0-.34-.44,13.3,13.3,0,0,1-2.59-2l-.22-.19a23.83,23.83,0,0,1-2.59-2.65,18.39,18.39,0,0,1-1.93-2.79c-.43-.8-.8-1.43-1.23-2.17l-.52-.91c-3.22-5.6-5.47-10.18-6.76-15.71-.54-2.35-2-8-3.24-12.58L128,102.6a11.42,11.42,0,0,0-.6-1.67,7,7,0,0,1-.62-2.25,26.81,26.81,0,0,0-.77-3.55c-.26-1-.53-2.13-.71-3-.29-1.42-.56-2.9-.84-4.39-.33-1.82-.68-3.68-1-5.47.78-.21,1.52-.47,2.23-.73a20.82,20.82,0,0,1,3.22-1,38,38,0,0,0,4.77-1.33l1-.34,1.54-.48c1.51-.46,3.06-.93,4.57-1.53a11.16,11.16,0,0,1,2-.52c.42-.08.83-.16,1.23-.27.9-.24,1.76-.55,2.59-.86.63-.23,1.29-.47,1.95-.67s1.56-.57,2.35-.9c1.49-.62,3-1.27,4-1.09a5.2,5.2,0,0,0,3.41-1,2.93,2.93,0,0,0,.91-1.12.2.2,0,0,0,.09-.09,1.86,1.86,0,0,1,.37-.38l.23-.21a2.08,2.08,0,0,1,.38-.27,2,2,0,0,0,.57-.45.32.32,0,0,0,0-.37.33.33,0,0,0-.35-.14,3.81,3.81,0,0,1-.95.16.7.7,0,0,1-.36-.07,2.66,2.66,0,0,0-.46-.53,5.93,5.93,0,0,0,.89-.77,2.59,2.59,0,0,0,.83-1.74,1.76,1.76,0,0,1,.13-.25l.21-.24c.11-.13.22-.26.34-.38a.33.33,0,0,0-.2-.54,2.76,2.76,0,0,0-.76,0,1.7,1.7,0,0,1-.67,0,4.68,4.68,0,0,0-2.05-.54l0-.16a2.31,2.31,0,0,0,.05-1.05l0-.06.06-.14a1.39,1.39,0,0,0,.18-.87.32.32,0,0,0-.57-.13l-.14.19a2.15,2.15,0,0,1-.33.43,5.55,5.55,0,0,0-2,.72,6.5,6.5,0,0,0-.93.75,4.09,4.09,0,0,1-.9.71,54.85,54.85,0,0,1-5.65,2.11c-1.1.36-2.24.74-3.35,1.15a11.73,11.73,0,0,1-1.81.48l-.81.18-1.26.33c-.63.17-1.22.33-1.94.47-.34.07-.67.16-1,.25a6.64,6.64,0,0,1-1.56.31,5.12,5.12,0,0,0-1.05.17l-.28.06c.45-.27.9-.55,1.34-.85a26.42,26.42,0,0,1,4.82-2.31,36.34,36.34,0,0,0,5.47-2.49,20.31,20.31,0,0,1,3.55-1.78,15.05,15.05,0,0,0,3.18-2c1.5-1.11,2.91-2.16,4.46-2a.43.43,0,0,0,.46-.42,1.35,1.35,0,0,1,.19-.34,2.06,2.06,0,0,0,.48-1.24,4.9,4.9,0,0,1,1-.88.32.32,0,0,0,.15-.34.32.32,0,0,0-.29-.25,2,2,0,0,0-.92.12l-.1.06a2,2,0,0,1-.25.14l-.09,0,0,0a2.54,2.54,0,0,0-.66-.44,2.23,2.23,0,0,0,.74-1.63l.56-.49c.63-.54.58-.67.52-.81a.26.26,0,0,0-.26-.19l-.37-.08a.39.39,0,0,0-.21,0l-.44.23a4.21,4.21,0,0,1-.47.24,3.34,3.34,0,0,0-1.61-.39c0-.13.06-.27.08-.42a3.22,3.22,0,0,1,.7-.68.48.48,0,0,0,.12-.16,1.71,1.71,0,0,1,.22-.29c.13-.15.2-.23.19-.38a.3.3,0,0,0-.15-.24c-.14-.09-.25,0-.44,0a4.14,4.14,0,0,1-1,.26h0a.44.44,0,0,0-.22-.1c-1.47-.25-2.45.67-3.31,1.48a6.81,6.81,0,0,1-1.12.94,27.62,27.62,0,0,1-4,1.82l-.19.07c-1.17.46-2.27,1-3.44,1.49s-2.73,1.23-4.45,1.91l1.9-1.23c2.71-1.79,5.76-3.89,8.8-6.1,1.14-.82,2.52-1.71,4.1-2.62a4.26,4.26,0,0,0,2.2-2.8,3.77,3.77,0,0,0,0-1.17h0a1.48,1.48,0,0,1,.41-.84.21.21,0,0,0-.3-.3,1,1,0,0,1-.75.22s-.05,0-.08,0a2.69,2.69,0,0,0-.61-.17,4.14,4.14,0,0,1,0-.71V41a2,2,0,0,1,0-.26,1.56,1.56,0,0,0-.14-.92h0v-.08l.19-.42a.33.33,0,0,0-.08-.36.34.34,0,0,0-.37-.05,1.25,1.25,0,0,1-.42.15.3.3,0,0,0-.21.08,3,3,0,0,0-1.29-.11,1.71,1.71,0,0,0-.29.08l0,0a6.66,6.66,0,0,0,.29-1.13.31.31,0,0,0-.11-.3.29.29,0,0,0-.32,0,2.62,2.62,0,0,0-1,.64v0a2,2,0,0,0-1.26.23,4.44,4.44,0,0,0-1.3,1.1,6.7,6.7,0,0,1-1.6,1.39,12.35,12.35,0,0,0-1.73,1.29,15.57,15.57,0,0,1-1.28,1l-1,.71a22.21,22.21,0,0,1-2,1.33,18.54,18.54,0,0,0-1.73,1.15l-.82.6-1.13.82a24.74,24.74,0,0,1-2.71,1.83,52.89,52.89,0,0,1-6.3,3c-1.67.66-3.33,1.41-5.1,2.21l-.37.17-1.08.46a10,10,0,0,0-1.83-.74,7.58,7.58,0,0,1-1.68-.71,11.87,11.87,0,0,0-3.1-1.43A19.26,19.26,0,0,1,109,49.58l-.81-.58c-2.85-2-5.22-3.77-7.53-5.55-3.48-2.69-7-5.67-10-8.4a3.33,3.33,0,0,1-.54-1.38,3.41,3.41,0,0,0-.21-1l0-.12-.07-.15a.61.61,0,0,1,.6-.18.73.73,0,0,0,.77-.3c.26-.43-.08-.86-.3-1.15l-.15-.19A.68.68,0,0,1,90.7,30a1.05,1.05,0,0,1,.62-.52,3.66,3.66,0,0,1,1.54-.05l.68.07a.44.44,0,0,0,.33-.13.38.38,0,0,0,.12-.32.58.58,0,0,1,.13-.41.42.42,0,0,1,.3-.13,3.25,3.25,0,0,1,1.7.64l.14.09a10.15,10.15,0,0,1,1.42,1l.42.31.4.31.43.38c2.47,2.16,3,2.57,3.29,2.64a.71.71,0,0,1,.44.22c.55.53,1.09,1,1.66,1.43l.72.59c.93.76,1.67,1.36,2.65,2s2.1,1.33,3.15,2l1.6,1a12,12,0,0,0,2.48,1.26,23.46,23.46,0,0,1,2.25,1l.75.35,2.15,1,1.68.78c.34.15.69.3,1,.44l1,.41c.4.18.78.31,1.12.43a5.82,5.82,0,0,1,1.43.72.42.42,0,1,0,.48-.69,6,6,0,0,0-1.64-.83c-.37-.13-.69-.25-1-.4s-.65-.29-1-.42-.68-.28-1-.44l-1-.45c0-.67,0-1.37,0-2,0-.3,0-.58,0-.84,0-1,.07-1.85.14-2.79l.06-.63c.06-.75.14-1.78.12-2.34a1.45,1.45,0,0,0-.56-1l-.24-.25A15.46,15.46,0,0,1,119,32.26q-.15-.24-.3-.45a4.64,4.64,0,0,1-1-2.9,1.61,1.61,0,0,0,.72.19,1.41,1.41,0,0,0,.91-.32c.86-.68.58-2,.13-2.71a1.91,1.91,0,0,0-.74-.64c0-.15,0-.3,0-.45a7.89,7.89,0,0,1,0-1.08,2.38,2.38,0,0,0,.76-2,2.52,2.52,0,0,0-1.08-2.53h0c0-.21,0-.42,0-.64a.42.42,0,0,0-.11-.31.43.43,0,0,0-.3-.13h-.56a.44.44,0,0,0-.11-.35,6.8,6.8,0,0,0-1-.8l0,0A10.91,10.91,0,0,0,117,14l0-.34,0-.37a3.79,3.79,0,0,1,.23-1.14,3.88,3.88,0,0,1,.25-.5c.08-.16.17-.32.26-.52a4.1,4.1,0,0,0,0-2.68c-.07-.27-.13-.54-.17-.8a8,8,0,0,1,0-2.12c0-.41.08-.81.1-1.21a15.83,15.83,0,0,1,.22-2c.06-.41.13-.83.17-1.26a17.31,17.31,0,0,1,2.59,2.14c.56.52,1.13,1.06,1.74,1.55.83.65,1.71,1.47,2.48,2.19l.08.07.41.4a2.73,2.73,0,0,0,.88.71,3,3,0,0,0,1.8-.06l.46-.09a30.77,30.77,0,0,1,6.26-.43h1.44a.49.49,0,0,0,.37-.21,4.78,4.78,0,0,1,2-1.75A8.17,8.17,0,0,0,140,4.7c.18-.17.36-.38.55-.59a9.39,9.39,0,0,1,.7-.71,12.07,12.07,0,0,1,2.19-1.51,2.67,2.67,0,0,0,.47-.36l.09-.08c.17,1.12.34,5,.35,7.8,0,.24,0,.48,0,.71a4.39,4.39,0,0,0,.8,3.29,6.14,6.14,0,0,1,1.37,2.22,27.28,27.28,0,0,1,1.35,6.17c.09.63.18,1.27.28,1.89a26,26,0,0,1,.2,4V28a4.58,4.58,0,0,1-.15,1,4.08,4.08,0,0,0-.14,1.38,2.71,2.71,0,0,0,1.13,1.76,11.29,11.29,0,0,1,1.86,1.94,12.7,12.7,0,0,0,1.64,1.76A31.49,31.49,0,0,0,155.56,38a5.52,5.52,0,0,1-1-.18.43.43,0,0,0-.44.68c.27.33.55.71.84,1.1a22.66,22.66,0,0,0,1.71,2.11,7.21,7.21,0,0,0,.76.66.33.33,0,0,0-.1.06.42.42,0,0,0-.11.54,14,14,0,0,0,1.7,2.46,10.75,10.75,0,0,0,1,1.08,7.88,7.88,0,0,1-.7-.37.43.43,0,0,0-.6.56A19.26,19.26,0,0,0,161.81,51a6,6,0,0,1-.68-.36.43.43,0,0,0-.57-.08.43.43,0,0,0-.13.56c.32.56.59,1,.84,1.39a11.69,11.69,0,0,1,1.06,2,6.83,6.83,0,0,0,.46.94c-.3-.27-.55-.5-.72-.67a.43.43,0,0,0-.55-.05.44.44,0,0,0-.13.54,20.84,20.84,0,0,0,2.14,3.16c.37.47.72.92,1,1.35a7.22,7.22,0,0,1,.59,1.06,7.64,7.64,0,0,1-1.61-1.34.42.42,0,0,0-.47-.12.43.43,0,0,0-.27.4c0,1.77,1.89,6.09,3.79,8.35-.9-.3-1.43-.62-1.58-1a.42.42,0,0,0-.54-.23.43.43,0,0,0-.25.53c.53,1.61,2.71,4.87,4.57,7.16a9.48,9.48,0,0,1-1.79-1.1l-.2-.24a.44.44,0,0,0-.57-.07.42.42,0,0,0-.12.56,1.14,1.14,0,0,0,.23.28c.87,1.06,2.94,3.87,3.21,6.87.14,1.48.4,3.29.69,4.72a43.44,43.44,0,0,1,.93,6.33,25.1,25.1,0,0,0,.58,3.69,29.67,29.67,0,0,1,.55,3.22c.17,2,.23,4,.28,6,0,.67,0,1.36.06,2l0,1.3a58.52,58.52,0,0,0,.38,6c.7,5,2.69,8.89,5,13.09.32.58.63,1.17.94,1.75a46,46,0,0,0,3.16,5.3c.84,1.15,1.67,2.41,2.48,3.63s1.82,2.73,2.76,4a27.24,27.24,0,0,1,2.53,4.35c.26.54.54,1.09.85,1.68.57,1.1,1.09,2,1.54,2.84a21.94,21.94,0,0,1,2.23,4.78,12.79,12.79,0,0,0,.47,1.26,16.57,16.57,0,0,1,.73,2c.31,1.07.57,2.32.83,3.53.19.89.37,1.75.56,2.49.6,2.36,1.09,4.87,1.72,8.06v.06a.47.47,0,0,0-.4,0,.52.52,0,0,0-.24.71,1.19,1.19,0,0,1,0,.43,3.45,3.45,0,0,0,0,.45c0,.21,0,.41.09.62a5.15,5.15,0,0,1,.07.53l0,.43c0,.24,0,.49,0,.74a1.27,1.27,0,0,1-.18-.44,12.08,12.08,0,0,1-.1-2.55.53.53,0,0,0-.49-.57.55.55,0,0,0-.52.31.51.51,0,0,0-.4-.19.53.53,0,0,0-.46.27c0-.15,0-.32,0-.47a.53.53,0,1,0-1.06,0c0,.56,0,1.14,0,1.73V176a12.73,12.73,0,0,0-.54-2.08l-.1-.32a.54.54,0,0,0-.67-.35.54.54,0,0,0-.35.67l.11.33a11.36,11.36,0,0,1,.52,2,8.71,8.71,0,0,1,0,.87,7.38,7.38,0,0,0,.12,1.29,4.29,4.29,0,0,1-.45-1.93,7.7,7.7,0,0,0-.63-2.82.53.53,0,0,0-.7-.27.38.38,0,0,0-.13.09,1.39,1.39,0,0,0-.12-.36.53.53,0,0,0-.7-.26.5.5,0,0,0-.26.28c-.08-.42-.15-.85-.21-1.27C191,170.73,190.86,169.67,190.65,168.69Zm-2.73-8.41.05.06a1.93,1.93,0,0,1,.35.48,3.49,3.49,0,0,1,.18.66c0,.12.05.23.08.35s0,.18.07.28C188.42,161.51,188.18,160.89,187.92,160.28Zm4.64,14.33a6.72,6.72,0,0,1,.34,1.81c0-.12-.08-.24-.13-.36a5.22,5.22,0,0,1-.2-.87A5.41,5.41,0,0,1,192.56,174.61ZM193.79,212a3.72,3.72,0,0,0,.35-.24,3.25,3.25,0,0,1,.61-.35.38.38,0,0,0-.09.09,3.29,3.29,0,0,1-1.24.88l-.11.07A1.17,1.17,0,0,1,193.79,212Zm4.17-5.33c-.36.68-.71,1.37-1,2.09a13.61,13.61,0,0,1-1.64,2.64l0,0a.46.46,0,0,0-.23-.06.38.38,0,0,0,.19-.36.42.42,0,0,0-.44-.41,1.23,1.23,0,0,0-.32.07,1.23,1.23,0,0,0,.45-.59.43.43,0,0,0-.29-.53.2.2,0,0,0-.13,0,.67.67,0,0,1,.06-.12.43.43,0,1,0-.8-.3,2.52,2.52,0,0,1-1,1.07,8.41,8.41,0,0,0-1.84,1.41.43.43,0,0,0,0,.6.43.43,0,0,0,.31.13.42.42,0,0,0,.29-.12l.27-.24a.33.33,0,0,0,.14.17.41.41,0,0,0,.59-.11.7.7,0,0,1,.22-.17,1.83,1.83,0,0,0-.34.7.43.43,0,0,0,.3.52l.11,0a.44.44,0,0,0,.35-.22.34.34,0,0,0,0,.1.4.4,0,0,0,.34.27,10.11,10.11,0,0,1-2.94,1.66,10.33,10.33,0,0,1-8.15-.68c-1.13-.56-2.76-2-2.86-3.16a1.27,1.27,0,0,1,.62-1.18c.58-.43,1.32-.27,2.25-.07a8.42,8.42,0,0,0,2.14.26,10,10,0,0,0,4.67-1.87,9.13,9.13,0,0,0,.7-.69l0,.05a4,4,0,0,0-.23.46c-.19.41-.27.56-.59.58a.43.43,0,0,0,0,.85h0a1.24,1.24,0,0,0,.45-.11,2.09,2.09,0,0,0-.09.62.43.43,0,0,0,.42.43h0a.42.42,0,0,0,.42-.42c0-.27,0-.37,0-.37a.69.69,0,0,1,.19,0,2.57,2.57,0,0,0,.74-.21,1.22,1.22,0,0,0,.64-.67,1.1,1.1,0,0,1,.13-.23.38.38,0,0,1,.13-.12,1.39,1.39,0,0,0,.28-.27h0a.91.91,0,0,0,.88-.2.44.44,0,0,0,0-.61.42.42,0,0,0-.59,0,.65.65,0,0,1-.18,0,1.51,1.51,0,0,0-.48,0,.41.41,0,0,0-.35.34.72.72,0,0,1-.12.11,1.6,1.6,0,0,0-.3.29,1.79,1.79,0,0,0-.21.37c-.08.16-.09.2-.23.26a1.87,1.87,0,0,1-.51.14l-.2,0a3,3,0,0,0,.2-.4c.06-.12.11-.24.18-.36a2.32,2.32,0,0,1,.74-.69,3.91,3.91,0,0,0,.41-.3.42.42,0,1,0-.52-.66l-.37.26a3.94,3.94,0,0,0-.49.37c2.87-3.49,3.5-8.52,3.84-13.06l0,.72a5.87,5.87,0,0,0,.38,2,.43.43,0,0,0,.39.26.33.33,0,0,0,.17,0,.42.42,0,0,0,.22-.56,4.91,4.91,0,0,1-.31-1.71c0-.49,0-1-.07-1.46v-.44a3.9,3.9,0,0,0-.14-1.41.43.43,0,0,0-.55-.25l-.06,0a64.71,64.71,0,0,0-1.47-10.69c-.12-.61-.24-1.24-.36-1.87a.52.52,0,0,0,.4.2H193a.53.53,0,0,0,.31-.21c.08.19.18.39.29.6a.53.53,0,0,0,.46.26A.52.52,0,0,1,195,179l.13,0a.52.52,0,0,0,.39-.63s0,0,0,0a.53.53,0,0,0,.49.34H196a.53.53,0,0,0,.46-.6,17.14,17.14,0,0,1-.13-2.18,8.66,8.66,0,0,0,.12.89c0,.08,0,.17,0,.26a2.17,2.17,0,0,0,.62,1.46.54.54,0,0,0,.34.12.53.53,0,0,0,.41-.19.55.55,0,0,0,.11-.3l.39.32.23.17a.52.52,0,0,0,.33.12.55.55,0,0,0,.42-.2.54.54,0,0,0-.09-.75l-.11-.08a.53.53,0,0,0,.37-.5c0-.32,0-.64,0-1v-.05l.21,1c.92,4.58.8,9.45.68,14.15v.58c0,.3,0,.58,0,.88a.35.35,0,0,0-.18-.05.41.41,0,0,0-.18.05.41.41,0,0,0-.67-.41,1.88,1.88,0,0,0-.12-.92.42.42,0,1,0-.76.37,2.19,2.19,0,0,1,0,.6,3.49,3.49,0,0,0,0,.45,4.59,4.59,0,0,1-.06,1,5.38,5.38,0,0,1-.21.81l-.09.31c0-.13,0-.25,0-.37s0-.3,0-.44,0-.45,0-.71a4.39,4.39,0,0,0-.15-2.1.42.42,0,0,0-.56-.2.43.43,0,0,0-.2.57,4,4,0,0,1,.06,1.66c0,.29,0,.56,0,.78s0,.31,0,.47a3.48,3.48,0,0,1-.1,1.32.42.42,0,0,0,.23.55.34.34,0,0,0,.16,0,.43.43,0,0,0,.4-.27c0-.09.05-.18.08-.28a.39.39,0,0,0,.3.19h0a.43.43,0,0,0,.43-.37,2.21,2.21,0,0,1,.05-.25.42.42,0,0,0,.4.33h.06a.44.44,0,0,0,.37-.48,1.47,1.47,0,0,1,.07-.51s0-.05,0-.07v.63a.42.42,0,0,0,.42.43l.15,0a29.29,29.29,0,0,1-.68,6.89A20.11,20.11,0,0,1,198,206.69Z"/><path d="M92.32,10.36a5.4,5.4,0,0,0,0,.7,3.4,3.4,0,0,1,.11.7,2.31,2.31,0,0,0,.46,0c.07,0,.17-.83.37-1.08a5.28,5.28,0,0,0,.36-.44c.07-.12.11-.25.19-.37-.24,0-.48.11-.72.11a1.73,1.73,0,0,0,.1-.75,5,5,0,0,1-.51.36,1.64,1.64,0,0,1,0,.38.47.47,0,0,1-.17,0,1,1,0,0,1-.06-.34c-.07,0-.16.14-.16.14a8.91,8.91,0,0,1,0-1c0-.21.18-.62.4-.72a.71.71,0,0,0-.48.27,2.62,2.62,0,0,0-.24.87,6.87,6.87,0,0,0,0,1.2Z"/><path d="M93.44,13.05c.13.11.33.33.33.33a6.09,6.09,0,0,0,.8-.59,2.41,2.41,0,0,0,.88-1.52c-.19.17-.33.39-.52.56a1.71,1.71,0,0,1-.42.28l-.05-.25c.05-.12-.06-.23,0-.36a3.36,3.36,0,0,1,.19-.38c.12-.19.29-.51.52-.58-.42-.16-.7,0-1,.32s-1,1.08-1,1.08S93.09,12.73,93.44,13.05Z"/><path d="M119.18,6.61l.23-.35c0-.07-.09-.24,0-.33s.1-.14.13-.21a.48.48,0,0,0,0-.56c-.25.23-.94,1-.94,1S119.1,6.79,119.18,6.61Z"/><path d="M119.06,7.19c0,.17.27.59.27.59a3,3,0,0,0,.44-.5l.15-.24c.09-.25,0-.45.2-.66s.44-.36.41-.64a1.88,1.88,0,0,0-.55.46c-.15.17-.33.29-.56.54A1.4,1.4,0,0,0,119.06,7.19Z"/><path d="M122.23,8.12a4.23,4.23,0,0,0-.92.55,2.16,2.16,0,0,1-.73.24s0-.47.12-.6.63-.52.63-.52l-.07-.25a1.49,1.49,0,0,0-.43.2c-.1.1-.16.25-.28.34a1.06,1.06,0,0,1-.38.16L120,8.11s.66-.79.66-.79a2.08,2.08,0,0,1,.08-.33,1,1,0,0,0-.56.46,3,3,0,0,1-.61.63,1.51,1.51,0,0,0-.56.64c0,.09,0,.33,0,.4s.26-.08.34.17c.12.41,0,.86,0,1.28.35,0,.49-.19.72-.41s.59-.47.89-.72l1.26-1Z"/><path d="M141.14,8.93a6.2,6.2,0,0,1-.61-.54c-.16-.17-.29-.36-.45-.53s-.7-.5-.73,0a.82.82,0,0,0,.3.55,6.58,6.58,0,0,0,.75.63,10,10,0,0,0,1.29.91l.3,0C142,9.5,141.46,9.18,141.14,8.93Z"/><path d="M141.48,8.37a3.3,3.3,0,0,0,.93.74s.23.09.23.05.42-.65.42-.65-.38-.41-.49-.55a5.23,5.23,0,0,1-.29-.58c-.11-.22-.26-.42-.36-.65s-.19-.46-.19-.46-.26-.21-.39-.13-.08.27-.05.38c.08.35.34.59.34,1a1.8,1.8,0,0,1-.53-.33l-.39.14a2.8,2.8,0,0,0,.17.55C141,8.11,141.26,8.17,141.48,8.37Z"/><path d="M142.49,7.26a1.81,1.81,0,0,1,.14.45.7.7,0,0,0,.29,0c0-.18,0-.38,0-.56a1.46,1.46,0,0,1,.07-.51A2.12,2.12,0,0,0,143,6a4.51,4.51,0,0,1,0-.52c0-.22.09-.41.07-.63a1.06,1.06,0,0,0-.47,0,.26.26,0,0,0-.15.17,1.4,1.4,0,0,1-.1.16c-.07.17.15.16.24.24a.36.36,0,0,1,0,.43c-.15.12-.34-.14-.49-.17l-.28,0c0,.15,0,.29,0,.43s.09.22.16.33A4.81,4.81,0,0,1,142.49,7.26Z"/><path d="M107.59,19a3.35,3.35,0,0,0,.63.05h0c.67,0,1.51-.09,1.68-.51s-.42-1.23-.48-1.3l-.49-.57c-.15-.17-.3-.33-.44-.5l-.13-.17a4.25,4.25,0,0,0-.82-.82,3.09,3.09,0,0,0-1.2-.42h0l-1.46.13,0,.24a3.43,3.43,0,0,0,.62,2.52A4.24,4.24,0,0,0,107.59,19Zm-1.33-3.61a2.63,2.63,0,0,1,.93.32,2.63,2.63,0,0,1,.42.4.81.81,0,0,0-.43.32,1.41,1.41,0,0,0-.18.44l0,.12a.43.43,0,0,0,.2.57.58.58,0,0,0,.18,0,.44.44,0,0,0,.39-.25l.09-.25.05-.18.08,0a1.18,1.18,0,0,0,.25-.1,3.47,3.47,0,0,0,.25.29l.48.56.07.1a.81.81,0,0,0-.21.63,4.91,4.91,0,0,1-.57,0h0a2.93,2.93,0,0,1-.49,0,3.65,3.65,0,0,1-1.82-1.15,2.83,2.83,0,0,1-.51-1.76Z"/><path d="M109.39,15.52l.46.34a.32.32,0,0,0,.31.23h.08a.32.32,0,0,0,.23-.39c-.07-.23-.32-.41-.71-.69s-.85-.6-1-.88a.32.32,0,0,0-.41-.18.31.31,0,0,0-.19.41A3.15,3.15,0,0,0,109.39,15.52Z"/><path d="M128.5,20.76a.31.31,0,0,0,.22-.11.3.3,0,0,0,.08-.24,3.81,3.81,0,0,0-3-3.74,3.67,3.67,0,0,0-1.62.1.26.26,0,0,1-.13,0h0a.32.32,0,0,0-.5.36,5.58,5.58,0,0,0,4.8,3.67Zm-2.84-3.46A3,3,0,0,1,128,19.59l-.09-.07a1.56,1.56,0,0,1-.2-.16,4.54,4.54,0,0,0-.82-.7,6.61,6.61,0,0,1-.74-.53l-.11-.09a2.72,2.72,0,0,1-.34-.34,2,2,0,0,0-.2-.21,1.29,1.29,0,0,0-.17-.16l-.08-.08A1.33,1.33,0,0,1,125.66,17.3Zm-1.28.09.08,0,.29-.07v0a2.41,2.41,0,0,0,.21.24l.09.08.15.14.19.21a3.59,3.59,0,0,0,.39.39l.11.08a7.22,7.22,0,0,0,.77.56,4,4,0,0,1,.75.64,1.28,1.28,0,0,0,.26.2l.19.15.06.07h0A5,5,0,0,1,124.38,17.39Z"/><path d="M127.16,14.57a2.53,2.53,0,0,1,.66.48,3,3,0,0,0,1.28.77h.1a.43.43,0,0,0,.11-.84,2.09,2.09,0,0,1-.92-.58,3.77,3.77,0,0,0-.86-.61.43.43,0,0,0-.37.77Z"/><path d="M135.15,16.36a.44.44,0,0,0,.33-.15,9.92,9.92,0,0,0,.81-1.13,5.05,5.05,0,0,1,.68-.89.43.43,0,1,0-.55-.65,5.41,5.41,0,0,0-.84,1.08,9.44,9.44,0,0,1-.75,1,.43.43,0,0,0,0,.6A.41.41,0,0,0,135.15,16.36Z"/><path d="M139.48,16.15l-.13,0a5.25,5.25,0,0,0-3.07,2.9,3.42,3.42,0,0,0-.15,1.57.25.25,0,0,1,0,.19.32.32,0,0,0,.25.51h.1c1.6-.49,4-2.09,4-4.5C140.41,16.38,139.76,16.15,139.48,16.15Zm-2.6,3.12a4.8,4.8,0,0,1,2.6-2.48.69.69,0,0,1,.29.11,2.51,2.51,0,0,1-.28.29l-.08.07a1.69,1.69,0,0,0-.2.25,1.45,1.45,0,0,1-.17.19,4.21,4.21,0,0,0-.72.8,6.28,6.28,0,0,1-.55.7l-.1.12a2.23,2.23,0,0,1-.35.33l-.22.2-.16.15-.08.09-.13.1A3,3,0,0,1,136.88,19.27Zm.36,1h0a.93.93,0,0,1,.14-.14l.2-.18a3.69,3.69,0,0,0,.41-.38l.1-.12a8.52,8.52,0,0,0,.57-.74,4.08,4.08,0,0,1,.66-.73,1.79,1.79,0,0,0,.22-.25.69.69,0,0,1,.11-.13A4.68,4.68,0,0,1,137.24,20.3Z"/><path d="M131.79,27.15a5.2,5.2,0,0,1-1,.13l-.31,0a1.79,1.79,0,0,1-1.4-.52.33.33,0,0,0-.45,0,.32.32,0,0,0,0,.45,2.48,2.48,0,0,0,1.68.68h.18l.3,0a5.47,5.47,0,0,0,1.25-.17,1.16,1.16,0,0,0,.51-.23l.21.14a2.91,2.91,0,0,0,1.23.25,2.52,2.52,0,0,0,1.15-.24,2,2,0,0,0,.72-.75c.08-.11.15-.23.25-.35a.32.32,0,0,0,0-.45.33.33,0,0,0-.45,0,4.7,4.7,0,0,0-.3.41,1.58,1.58,0,0,1-.5.55,2.44,2.44,0,0,1-1.78,0c-.28-.14-.3-.3-.31-.35a5.56,5.56,0,0,1,0-.82c0-.18,0-.37,0-.54s0-.53,0-.8a1.34,1.34,0,0,1,0-.2h0a2.13,2.13,0,0,0,1-1.16l.06-.78c0-.3,0-.59.08-.87a.32.32,0,0,0-.28-.35.33.33,0,0,0-.36.28c0,.29-.05.59-.07.89l0,.31a2,2,0,0,0-.58-.07h-.1a1.5,1.5,0,0,0-1,.32l-.06,0a1,1,0,0,1-.15-.38l0-.35a6.91,6.91,0,0,0-.2-1.05.32.32,0,0,0-.4-.22.32.32,0,0,0-.21.4,7.73,7.73,0,0,1,.18,1l.05.36a2,2,0,0,0,.75,1.17,2.86,2.86,0,0,0,.64.43,1.93,1.93,0,0,1,0,.24c0,.29,0,.57,0,.86s0,.33,0,.49a5.9,5.9,0,0,0,0,.94.84.84,0,0,0,0,.2A.9.9,0,0,1,131.79,27.15Zm.82-3.89a3.87,3.87,0,0,1,.45,0,2.08,2.08,0,0,1-.44.45c-.2,0-.46-.15-.66-.32a.81.81,0,0,1,.53-.18Z"/><path d="M138.18,25.38a.32.32,0,0,0-.3.34,4.64,4.64,0,0,1-1.06,2.92l-.18.28c-.56.89-1,1.49-1.95,1.7a11.13,11.13,0,0,1-3.81.18,5.44,5.44,0,0,1-3.43-1.61c-.43-.45-.82-.91-1.19-1.34a3.75,3.75,0,0,1-.71-1.82.32.32,0,0,0-.37-.26.32.32,0,0,0-.26.37,4.46,4.46,0,0,0,.86,2.12c.37.44.77.91,1.21,1.37a6.06,6.06,0,0,0,3.8,1.8,12.25,12.25,0,0,0,4-.18,3.67,3.67,0,0,0,2.35-2l.18-.27a5.27,5.27,0,0,0,1.16-3.32A.31.31,0,0,0,138.18,25.38Z"/><path d="M109.73,21c.32-.87-2.7.27-3.15.51a12.89,12.89,0,0,0,2.89-.16C109.71,21.32,109.69,21.16,109.73,21Z"/><path d="M109.06,25.35c-.11-.81-2.65.76-3.06,1.07.49-.07,2.15-.48,2.85-.67C109.1,25.68,109.08,25.48,109.06,25.35Z"/><path d="M107.28,29.47c.49-.07,1.12-.92,2.57-.85.25,0,.23-.27.21-.4C110,27.41,107.74,28.57,107.28,29.47Z"/><path d="M109.48,26.69c-.1-.7-2.31.38-3.08.88-.11.07-.21.37-.15.28.49-.07,2.27-.57,3-.76A.34.34,0,0,0,109.48,26.69Z"/><path d="M108.8,24c.22-.13.26-.17.28-.3,0-.29-.31-.42-.8-.22a13.57,13.57,0,0,0-2.76,2c.22,0,1.31-.62,1.77-.82C108,24.28,108.43,24.15,108.8,24Z"/><path d="M108.52,22.6c.21-.06.45-.16.46-.29,0-.36-2.34.23-2.72.45A9.22,9.22,0,0,0,108.52,22.6Z"/><path d="M120.7,21.46a.22.22,0,0,0-.16.25,2.52,2.52,0,0,1-.06.29,1.53,1.53,0,0,0-.07.24c0,.16,0,.3,0,.45v.2a4,4,0,0,1,0,.49c0,.15,0,.3-.07.44a6,6,0,0,0-.09.85.21.21,0,0,0,.21.21h0a.21.21,0,0,0,.21-.21,5.49,5.49,0,0,1,.09-.78c0-.15,0-.3.07-.46a4.87,4.87,0,0,0,0-.54V22.7c0-.13,0-.26,0-.4s0-.12,0-.19a1.08,1.08,0,0,0,.07-.49A.22.22,0,0,0,120.7,21.46Z"/><path d="M122.37,22.69a.21.21,0,0,0-.23.19,1.06,1.06,0,0,1-.11.29l-.08.17c0,.14-.09.29-.13.43s0,.16-.07.24a5,5,0,0,0-.19,1.58.21.21,0,0,0,.42,0,4.4,4.4,0,0,1,.18-1.45,2.5,2.5,0,0,1,.07-.26,2.4,2.4,0,0,1,.12-.38l.06-.15a1.5,1.5,0,0,0,.15-.42A.22.22,0,0,0,122.37,22.69Z"/><path d="M123.39,22.79a5,5,0,0,0-.15.5c0,.16-.07.32-.1.4a5.72,5.72,0,0,0-.45,1.92.23.23,0,0,0,.21.22.21.21,0,0,0,.21-.21,5.73,5.73,0,0,1,.42-1.79c0-.09.08-.26.13-.43a3.23,3.23,0,0,1,.12-.43.21.21,0,0,0-.39-.18Z"/><path d="M140.51,22a.35.35,0,0,0-.31.13c-.13.21,0,.5.19.81l.11.2h0v.28c0,.26,0,.53,0,.8s0,.53,0,.79a.21.21,0,0,0,.21.21.21.21,0,0,0,.22-.21c0-.26,0-.52,0-.78s0-.54,0-.81v-.16a1.86,1.86,0,0,0-.25-1.18A.19.19,0,0,0,140.51,22Z"/><path d="M142.63,23.43a1,1,0,0,1-.11-.23,4.61,4.61,0,0,1-.07-.86,4.91,4.91,0,0,1,.08-.78c0-.14,0-.27.05-.41a.32.32,0,0,0-.28-.35.31.31,0,0,0-.35.28c0,.13,0,.26,0,.39a7.81,7.81,0,0,0-.09.86,4.9,4.9,0,0,0,.09,1,1.42,1.42,0,0,0,.17.39,1.2,1.2,0,0,1,.15.34.32.32,0,0,0,.31.22h.09a.32.32,0,0,0,.21-.4A2.07,2.07,0,0,0,142.63,23.43Z"/><path d="M144.21,22.84a5.19,5.19,0,0,1,.24.88.21.21,0,0,0,.21.19h0a.22.22,0,0,0,.18-.24,5.38,5.38,0,0,0-.26-1,5.9,5.9,0,0,1-.19-.67,3.82,3.82,0,0,1,0-1.17l0-.36c0-.28,0-.57,0-.84a.21.21,0,0,0-.42,0,7.13,7.13,0,0,1,0,.79l0,.36a4.34,4.34,0,0,0,.05,1.29C144.06,22.38,144.14,22.61,144.21,22.84Z"/><path d="M144.76,36.59l-.27-.35a3.65,3.65,0,0,1-.24-.31,5.46,5.46,0,0,1-.3-.54,4.51,4.51,0,0,0-.33-.62.43.43,0,0,0-.59-.12.42.42,0,0,0-.12.59,5.24,5.24,0,0,1,.28.53c.12.22.23.44.35.63s.19.26.29.38a2.37,2.37,0,0,1,.58,1.11.43.43,0,0,0,.4.31l.12,0a.42.42,0,0,0,.29-.53A3.51,3.51,0,0,0,144.76,36.59Z"/><path d="M146.13,31.1a.43.43,0,1,0-.84.14,2,2,0,0,0,1,1.42l.5-.68C146.38,31.69,146.21,31.56,146.13,31.1Z"/><path d="M162.91,39.18a3.23,3.23,0,0,0,1.6,1.63.33.33,0,0,0,.17,0,.43.43,0,0,0,.17-.82,2.53,2.53,0,0,1-1.21-1.27,5.57,5.57,0,0,0-.64-1,.42.42,0,0,0-.6-.06.43.43,0,0,0-.05.6A5.66,5.66,0,0,1,162.91,39.18Z"/><path d="M166.55,51.84c.33.1.52.5.74,1a3.23,3.23,0,0,0,1,1.34.42.42,0,1,0,.48-.7,2.56,2.56,0,0,1-.68-1A2.32,2.32,0,0,0,166.81,51a.43.43,0,1,0-.26.81Z"/><path d="M177,53.4a5.19,5.19,0,0,1,.67.67,3.59,3.59,0,0,0,1.51,1.4.32.32,0,0,0,.14,0,.43.43,0,0,0,.14-.83c-.41-.14-.82-.72-1.1-1.09a6.22,6.22,0,0,0-.78-.81c-.35-.32-1-.91-1-1.13a.43.43,0,0,0-.84.13C175.8,52.24,176.28,52.72,177,53.4Z"/><path d="M178.76,64.18a.43.43,0,0,0,.39.23.39.39,0,0,0,.18,0,.43.43,0,0,0,.2-.57,2.29,2.29,0,0,0-.69-.75,1.38,1.38,0,0,1-.4-.4,9.74,9.74,0,0,0-1.51-2.11.43.43,0,0,0-.48.71,9.68,9.68,0,0,1,1.24,1.8,2.15,2.15,0,0,0,.63.67A1.36,1.36,0,0,1,178.76,64.18Z"/><path d="M174,69c.41.89.88,1.89,2,2.08h.07a.43.43,0,0,0,.08-.85c-.65-.11-1-.8-1.34-1.6a4.66,4.66,0,0,0-1.21-1.78.43.43,0,1,0-.51.69A3.81,3.81,0,0,1,174,69Z"/><path d="M176.35,77.2a.42.42,0,0,0-.55-.23.43.43,0,0,0-.23.56,10.6,10.6,0,0,0,1,1.77,11.25,11.25,0,0,1,.91,1.6.43.43,0,0,0,.39.26.35.35,0,0,0,.17,0,.42.42,0,0,0,.22-.56,12.13,12.13,0,0,0-1-1.72A9.66,9.66,0,0,1,176.35,77.2Z"/><path d="M183.51,75.05A10.65,10.65,0,0,1,185,76.77a.42.42,0,0,0,.36.2.46.46,0,0,0,.23-.06.42.42,0,0,0,.13-.59,11.43,11.43,0,0,0-1.57-1.86c-.34-.35-.7-.72-1-1.09a.42.42,0,1,0-.65.53C182.79,74.31,183.16,74.69,183.51,75.05Z"/><path d="M183.11,91.89h0a.42.42,0,0,0,.42-.39.41.41,0,0,0-.38-.45c-.83-.08-1.89-1.88-2.46-3.54a.44.44,0,0,0-.54-.27.43.43,0,0,0-.26.55C180.07,88.19,181.34,91.73,183.11,91.89Z"/><path d="M185.55,85.88a.43.43,0,0,0-.25.55,13.91,13.91,0,0,0,2,3l.65-.55a12.94,12.94,0,0,1-1.82-2.77A.43.43,0,0,0,185.55,85.88Z"/><path d="M186.17,101.92a6.09,6.09,0,0,0-.69-1.26.43.43,0,0,0-.66.54,5.2,5.2,0,0,1,.58,1.08c.46,1,1,2.09,1.9,2.17h0a.43.43,0,0,0,0-.85C186.93,103.56,186.49,102.62,186.17,101.92Z"/><path d="M160.18,76.42l-.12,0c-.09-.27-.17-.57-.25-.88a5.51,5.51,0,0,0-.8-2,.42.42,0,0,0-.59-.09.43.43,0,0,0-.09.6,4.83,4.83,0,0,1,.66,1.74,7.22,7.22,0,0,0,.51,1.55.41.41,0,0,0,.31.23h.07a.43.43,0,0,0,.3-.13,1.19,1.19,0,0,0,.26-.42A.42.42,0,0,0,160.18,76.42Z"/><path d="M162.68,76.06l.15,0a.42.42,0,0,0,.24-.55c-.16-.41-.37-.82-.57-1.22s-.3-.59-.44-.89a.42.42,0,1,0-.77.35c.14.31.3.62.45.93a9.7,9.7,0,0,1,.54,1.14A.43.43,0,0,0,162.68,76.06Z"/><path d="M164,82.37a3.5,3.5,0,0,0-.85-1.82l0-.07a.42.42,0,0,0-.59-.09.43.43,0,0,0-.1.59l.06.07a2.68,2.68,0,0,1,.68,1.41,12.75,12.75,0,0,0,.28,1.64.43.43,0,0,0,.42.33H164a.42.42,0,0,0,.32-.51A11,11,0,0,1,164,82.37Z"/><path d="M142.14,93.68l.41-.11-.39.19a3.13,3.13,0,0,0,1,1.85.42.42,0,0,0,.28.1.41.41,0,0,0,.32-.15.42.42,0,0,0-.05-.59,2.43,2.43,0,0,1-.67-1.42l0-.08a4.15,4.15,0,0,0-1-2.09.42.42,0,0,0-.59-.06.43.43,0,0,0-.06.6A3.45,3.45,0,0,1,142.14,93.68Z"/><path d="M138.79,93.85a12.45,12.45,0,0,0,.36,1.7c.1.34.22.65.33,1a11.78,11.78,0,0,1,.58,1.88.43.43,0,0,0,.42.34h.08a.43.43,0,0,0,.33-.51,12.44,12.44,0,0,0-.61-2c-.11-.29-.22-.58-.32-.91a11.64,11.64,0,0,1-.33-1.57,7,7,0,0,0-.9-3,.42.42,0,0,0-.7.48A6.57,6.57,0,0,1,138.79,93.85Z"/><path d="M137.82,99.54a.43.43,0,0,0-.1-.59,3.82,3.82,0,0,1-.86-2.1,7.42,7.42,0,0,0-.44-1.48l-.15-.3a2.69,2.69,0,0,1-.38-1.17v-.29a2.92,2.92,0,0,0-.65-2.08.43.43,0,0,0-.61.6,2.18,2.18,0,0,1,.41,1.52l0,.3a3.28,3.28,0,0,0,.46,1.5l.15.29A7.48,7.48,0,0,1,136,97a4.2,4.2,0,0,0,1.2,2.6.43.43,0,0,0,.24.08A.42.42,0,0,0,137.82,99.54Z"/><path d="M133.9,100.08h0a.42.42,0,0,0,.43-.4,4.62,4.62,0,0,0-.69-2.23,7.17,7.17,0,0,1-.45-1c-.11-.32-.19-.65-.27-1s-.1-.43-.16-.65a7.42,7.42,0,0,0-.32-.9,4.7,4.7,0,0,1-.39-1.29.41.41,0,0,0-.45-.39.43.43,0,0,0-.4.45,5.58,5.58,0,0,0,.45,1.55,7.06,7.06,0,0,1,.29.8c.06.21.11.42.16.62a9.73,9.73,0,0,0,.28,1.06,8.53,8.53,0,0,0,.5,1.12,4.07,4.07,0,0,1,.6,1.81A.42.42,0,0,0,133.9,100.08Z"/><path d="M130.65,98.42c-.12-.08-.24-.48-.35-1.19,0-.12,0-.22-.05-.3a5.9,5.9,0,0,0-.42-1.16,5.41,5.41,0,0,1-.32-.83c-.12-.46-.29-.91-.45-1.35a8,8,0,0,1-.63-2.67.43.43,0,0,0-.85,0,8.55,8.55,0,0,0,.69,3c.15.43.3.85.42,1.28a6.68,6.68,0,0,0,.36,1,5,5,0,0,1,.36,1c0,.06,0,.15.05.25.11.72.3,1.9,1.16,1.9h0a.42.42,0,0,0,.41-.44A.41.41,0,0,0,130.65,98.42Z"/><path d="M136.58,117.69a20.19,20.19,0,0,1-1.79-3.49,5.39,5.39,0,0,1-.25-1.22c0-.22-.06-.45-.11-.67a6,6,0,0,0-.32-1,4.42,4.42,0,0,1-.31-1.1.42.42,0,0,0-.46-.38.41.41,0,0,0-.38.46,4.58,4.58,0,0,0,.36,1.32,5.85,5.85,0,0,1,.28.9c0,.21.07.41.09.62a6.5,6.5,0,0,0,.3,1.4,21.06,21.06,0,0,0,1.86,3.63l.07.13a.43.43,0,0,0,.37.21.46.46,0,0,0,.22-.06.43.43,0,0,0,.15-.58Z"/><path d="M140.27,117.29l.14,0a.43.43,0,0,0,.27-.54,10.35,10.35,0,0,0-1-2c-.15-.25-.3-.5-.44-.76a7,7,0,0,1-1-3.33.43.43,0,0,0-.41-.44.43.43,0,0,0-.44.41,7.72,7.72,0,0,0,1.06,3.77c.14.27.3.53.45.79a9,9,0,0,1,1,1.88A.43.43,0,0,0,140.27,117.29Z"/><path d="M143.32,112.65c-.14-.35-.27-.74-.41-1.15a16.89,16.89,0,0,0-.78-2,.43.43,0,0,0-.76.39,17.65,17.65,0,0,1,.74,1.92c.14.41.28.82.42,1.18a8.12,8.12,0,0,1,.26.83,4.13,4.13,0,0,0,1.35,2.41.46.46,0,0,0,.25.08.43.43,0,0,0,.24-.78,3.41,3.41,0,0,1-1-2C143.52,113.24,143.43,112.93,143.32,112.65Z"/><path d="M145.63,110a2.41,2.41,0,0,0,1.3,2,.41.41,0,0,0,.19,0,.43.43,0,0,0,.38-.24.43.43,0,0,0-.2-.57c-.62-.3-.71-.76-.83-1.41a3.25,3.25,0,0,0-.67-1.66.42.42,0,1,0-.64.55A2.55,2.55,0,0,1,145.63,110Z"/><path d="M149.42,109.29a.41.41,0,0,0,.34.16.44.44,0,0,0,.25-.08.42.42,0,0,0,.08-.6,5.31,5.31,0,0,1-.46-.79,6.27,6.27,0,0,0-.63-1,.43.43,0,0,0-.67.54,4.94,4.94,0,0,1,.55.89A6.14,6.14,0,0,0,149.42,109.29Z"/><path d="M143.92,134.48a3,3,0,0,1-1.33-1.52c-.12-.23-.25-.46-.39-.68s-.27-.41-.41-.63a6.73,6.73,0,0,1-1.35-3,.42.42,0,1,0-.84.05,7.18,7.18,0,0,0,1.48,3.41c.14.21.28.41.4.61s.25.42.36.63a3.71,3.71,0,0,0,1.74,1.9.47.47,0,0,0,.17,0,.43.43,0,0,0,.39-.26A.43.43,0,0,0,143.92,134.48Z"/><path d="M146.41,131.12a5.39,5.39,0,0,0-1.48-2.58.42.42,0,1,0-.54.65,4.81,4.81,0,0,1,1.22,2.21,5.35,5.35,0,0,0,1.71,2.81.39.39,0,0,0,.25.08.42.42,0,0,0,.25-.76A4.72,4.72,0,0,1,146.41,131.12Z"/><path d="M150.61,130.3a16.94,16.94,0,0,0-1.52-2.33.43.43,0,0,0-.6-.08.44.44,0,0,0-.07.6,15.62,15.62,0,0,1,1.44,2.22l.39.64a5.65,5.65,0,0,1,.73,1.42.42.42,0,0,0,.41.34h.08a.41.41,0,0,0,.34-.49,5.75,5.75,0,0,0-.84-1.71Q150.76,130.57,150.61,130.3Z"/><path d="M155.08,131.56a2.28,2.28,0,0,1-.43-.8,4.15,4.15,0,0,0-.35-.73c-.35-.5-.69-1-1-1.59l-.62-1a.42.42,0,1,0-.71.46l.6,1c.35.57.69,1.12,1,1.64a3.36,3.36,0,0,1,.26.56c.21.52.45,1.11.94,1.28a.34.34,0,0,0,.14,0,.42.42,0,0,0,.39-.28A.42.42,0,0,0,155.08,131.56Z"/><path d="M156.35,127.44a4.36,4.36,0,0,1-.54-1.15.43.43,0,0,0-.53-.29.42.42,0,0,0-.29.53s.48,1.59,1.15,1.78l.16,0a.55.55,0,0,0,.38-.15.43.43,0,0,0-.33-.74Z"/><path d="M56.47,41h.09a.42.42,0,0,0,.41-.35c.08-.37.41-.59.79-.85l.39-.27a4.14,4.14,0,0,0,.92-1.07,5.48,5.48,0,0,1,.35-.49.42.42,0,1,0-.65-.54,5.12,5.12,0,0,0-.4.55,3.26,3.26,0,0,1-.75.88l-.34.24a2.25,2.25,0,0,0-1.14,1.39A.42.42,0,0,0,56.47,41Z"/><path d="M72.45,33.14l.12,0a.43.43,0,0,0,.29-.53c-.09-.31.4-.72.87-1.12.67-.56,1.5-1.26,1.35-2.24a.42.42,0,0,0-.84.12c.08.51-.5,1-1.06,1.47s-1.39,1.18-1.13,2A.42.42,0,0,0,72.45,33.14Z"/><path d="M85.7,29.38a.39.39,0,0,0,.27-.1,6.7,6.7,0,0,0,1.35-2.73,2.84,2.84,0,0,0,.06-1,1.9,1.9,0,0,1,0-.78.43.43,0,0,0,0-.6.42.42,0,0,0-.6,0,1.77,1.77,0,0,0-.32,1.46,2.64,2.64,0,0,1,0,.71,6.67,6.67,0,0,1-1.09,2.35.42.42,0,0,0,.28.74Z"/><path d="M91.11,23.2a.49.49,0,0,0,.23-.06A1.61,1.61,0,0,0,92.13,21a.42.42,0,0,0-.58-.14.41.41,0,0,0-.14.58c.21.36-.25.79-.53,1a.41.41,0,0,0-.13.58A.42.42,0,0,0,91.11,23.2Z"/><path d="M80.76,39.64h.08a.43.43,0,0,0,.42-.34,12.73,12.73,0,0,1,1.27-3.51.43.43,0,0,0-.73-.44,14,14,0,0,0-1.38,3.78A.43.43,0,0,0,80.76,39.64Z"/><path d="M78.14,54h0a.41.41,0,0,0,.42-.37,13,13,0,0,1,.48-2A8.3,8.3,0,0,0,79.61,48a.43.43,0,0,0-.49-.35.41.41,0,0,0-.35.48,7.63,7.63,0,0,1-.49,3.27,12.12,12.12,0,0,0-.51,2.14A.43.43,0,0,0,78.14,54Z"/><path d="M80,57.62a.34.34,0,0,0,.14,0,.42.42,0,0,0,.4-.29,12.25,12.25,0,0,0,.52-2.48c.05-.34.1-.67.16-1a.43.43,0,0,0-.34-.5.44.44,0,0,0-.5.34c-.06.34-.11.68-.16,1a12.9,12.9,0,0,1-.48,2.33A.41.41,0,0,0,80,57.62Z"/><path d="M80.62,63.72a.36.36,0,0,0,.2-.06c.73-.39,1.16-2.41,1.18-2.49.27-1.26,0-1.56,0-1.67a.43.43,0,0,0-.61-.09.4.4,0,0,0-.08.58,5.58,5.58,0,0,1-.84,2.93.42.42,0,0,0-.17.57A.4.4,0,0,0,80.62,63.72Z"/><path d="M77.51,60.58a.43.43,0,0,0-.48-.36.41.41,0,0,0-.36.48c.16,1.12-.36,3.56-1.27,4.23a.43.43,0,0,0-.09.6.42.42,0,0,0,.34.17.5.5,0,0,0,.26-.08C77.13,64.71,77.71,62,77.51,60.58Z"/><path d="M66.49,45.06a.4.4,0,0,0,.35-.19c.35-.51.64-1,.89-1.39.61-1,1-1.55,1.47-1.63a.42.42,0,0,0,.36-.48.43.43,0,0,0-.48-.36c-.94.13-1.42.93-2.08,2-.24.4-.52.86-.86,1.35a.43.43,0,0,0,.35.67Z"/><path d="M53.5,53.66a1.24,1.24,0,0,0,.27,0c1.32,0,2.36-1.75,2.64-2.76a.41.41,0,0,0-.29-.52.43.43,0,0,0-.53.29c-.26.94-1.16,2.26-1.94,2.13a.42.42,0,0,0-.15.83Z"/><path d="M64.39,60.4a.43.43,0,0,0,.34-.16A10.16,10.16,0,0,0,66.8,56a.42.42,0,1,0-.84-.11,9,9,0,0,1-1.9,3.87.43.43,0,0,0,.07.6A.43.43,0,0,0,64.39,60.4Z"/><path d="M56,61.1a2.81,2.81,0,0,0,1.28-1.57A.41.41,0,0,0,57,59a.42.42,0,0,0-.52.3,2,2,0,0,1-.94,1.08l-.11.08c-.62.41-1.16.82-1.11,1.35a.77.77,0,0,0,.54.64.35.35,0,0,0,.14,0,.42.42,0,0,0,.38-.28.43.43,0,0,0-.16-.51,4.46,4.46,0,0,1,.68-.52Z"/><path d="M60.42,70.94a.46.46,0,0,0,.22.06.43.43,0,0,0,.37-.21c.14-.24.32-.51.52-.8a7.28,7.28,0,0,0,1.52-3.37.42.42,0,0,0-.4-.44.43.43,0,0,0-.45.4,6.59,6.59,0,0,1-1.38,2.94c-.2.3-.39.58-.55.84A.42.42,0,0,0,60.42,70.94Z"/><path d="M52.8,79.06A.39.39,0,0,0,53,79a5.25,5.25,0,0,0,2.07-4,.42.42,0,0,0-.42-.42h0a.42.42,0,0,0-.43.42,4.47,4.47,0,0,1-1.68,3.29.43.43,0,0,0,.23.78Z"/><path d="M45,74h.12c.64-.18,1.23-.94,1.91-1.81a8.32,8.32,0,0,1,1.42-1.57.42.42,0,0,0-.49-.69,8.73,8.73,0,0,0-1.6,1.73c-.51.67-1.09,1.42-1.47,1.52a.43.43,0,0,0-.3.52A.44.44,0,0,0,45,74Z"/><path d="M89,91.31a.42.42,0,0,0,.26-.08c.28-.22.43-.78.71-2.25,0-.22.08-.41.11-.54a.44.44,0,0,0-.32-.51.43.43,0,0,0-.51.33c0,.13-.07.33-.11.57a10.66,10.66,0,0,1-.43,1.75.42.42,0,0,0,0,.56A.44.44,0,0,0,89,91.31Z"/><path d="M92.24,91.6a4.84,4.84,0,0,0,.84-2.53.43.43,0,0,0-.85.1,4.62,4.62,0,0,1-.74,2,14.31,14.31,0,0,0-.9,2,.43.43,0,0,0,.27.54l.14,0a.42.42,0,0,0,.4-.29A12.34,12.34,0,0,1,92.24,91.6Z"/><path d="M94,93.63a.45.45,0,0,0,.16,0,2.76,2.76,0,0,0,1.5-2.06,4.21,4.21,0,0,1,.34-.91c.26-.46.48-.93.69-1.38a14.69,14.69,0,0,1,.87-1.67.43.43,0,0,0-.13-.58.42.42,0,0,0-.59.13,14.85,14.85,0,0,0-.92,1.76c-.21.44-.41.88-.66,1.32a5.49,5.49,0,0,0-.42,1.08c-.2.68-.37,1.26-1,1.52a.43.43,0,0,0-.22.56A.41.41,0,0,0,94,93.63Z"/><path d="M101.46,89.31a.43.43,0,0,0-.61-.6,8.17,8.17,0,0,0-1.32,2.23c-.17.36-.33.7-.49,1l-.2.37a8.66,8.66,0,0,0-.71,1.47,5.45,5.45,0,0,0-.2.82,3,3,0,0,1-.33,1,.42.42,0,0,0,.12.59.39.39,0,0,0,.23.07.45.45,0,0,0,.36-.19,3.67,3.67,0,0,0,.45-1.34,6.92,6.92,0,0,1,.17-.72,8.12,8.12,0,0,1,.65-1.33l.21-.37c.16-.3.33-.66.51-1A8.05,8.05,0,0,1,101.46,89.31Z"/><path d="M103.65,88a.41.41,0,0,0-.38.46A8.75,8.75,0,0,1,102,93.05a7.91,7.91,0,0,0-.66,1.8A3.4,3.4,0,0,1,100,97.16a.44.44,0,0,0-.1.6.43.43,0,0,0,.6.1,4.32,4.32,0,0,0,1.69-2.8,6.59,6.59,0,0,1,.58-1.6,9.6,9.6,0,0,0,1.33-5A.43.43,0,0,0,103.65,88Z"/><path d="M79.86,105.37a.41.41,0,0,0-.44.41,5.13,5.13,0,0,1-.48,1.64c-.09.21-.18.43-.26.65a.42.42,0,0,0,.25.55.36.36,0,0,0,.14,0,.41.41,0,0,0,.4-.27c.08-.22.17-.42.25-.63a5.64,5.64,0,0,0,.55-1.94A.42.42,0,0,0,79.86,105.37Z"/><path d="M83.07,108.11a4.07,4.07,0,0,0,.39-.57,3.5,3.5,0,0,0,.28-.85,3.67,3.67,0,0,1,.14-.52.42.42,0,1,0-.78-.32,3.11,3.11,0,0,0-.19.65,2.36,2.36,0,0,1-.21.65,2.58,2.58,0,0,1-.31.45,2.84,2.84,0,0,0-.51.89,4.56,4.56,0,0,0-.16,1c0,.57-.1,1.11-.47,1.39a.43.43,0,0,0,.25.77.43.43,0,0,0,.26-.09,2.56,2.56,0,0,0,.81-2,3.74,3.74,0,0,1,.12-.81A2.12,2.12,0,0,1,83.07,108.11Z"/><path d="M86.39,106a.42.42,0,0,0-.45.39,9.65,9.65,0,0,1-1,3l-.28.62a4.93,4.93,0,0,1-.75,1.33l-.11.1a.91.91,0,0,0-.36.6c0,.09,0,.17-.07.25-.07.29-.15.59.08.81a.47.47,0,0,0,.34.13l.19,0a.41.41,0,0,0,.27-.54.27.27,0,0,0-.06-.12v0a2.45,2.45,0,0,0,.08-.29l.07-.12a1.83,1.83,0,0,0,.21-.2,5.51,5.51,0,0,0,.89-1.55l.27-.6a10,10,0,0,0,1.07-3.27A.42.42,0,0,0,86.39,106Z"/><path d="M90.65,106.19a.42.42,0,0,0-.57.17,7.72,7.72,0,0,0-.63,1.6,10.61,10.61,0,0,1-.5,1.34,30.23,30.23,0,0,0-1.12,3,.44.44,0,0,0,.27.54l.14,0a.42.42,0,0,0,.4-.29,26.08,26.08,0,0,1,1.07-2.87,11.2,11.2,0,0,0,.55-1.46,8.63,8.63,0,0,1,.55-1.45A.42.42,0,0,0,90.65,106.19Z"/><path d="M94.74,106.26a.43.43,0,0,0-.51.32,13.15,13.15,0,0,1-1,2.55c-.17.35-.34.71-.5,1.08s-.31.8-.49,1.3a17.78,17.78,0,0,1-.84,2.15.42.42,0,0,0,.19.57.43.43,0,0,0,.19,0,.41.41,0,0,0,.38-.23,21.05,21.05,0,0,0,.89-2.25c.16-.48.31-.91.46-1.24s.32-.71.49-1a13.12,13.12,0,0,0,1.06-2.73A.42.42,0,0,0,94.74,106.26Z"/><path d="M98.33,107.49a.43.43,0,0,0-.55.24l-.29.8c-1.09,3.12-1.85,4.84-2.25,5.12a.44.44,0,0,0-.45.27.43.43,0,0,0,.26.55.6.6,0,0,0,.21,0,.76.76,0,0,0,.31-.07c.75-.36,1.6-2.42,2.72-5.63.13-.35.22-.62.28-.77A.43.43,0,0,0,98.33,107.49Z"/><path d="M71.53,127.77c.16-.51.3-1.06.43-1.6a19.42,19.42,0,0,1,.56-2,.42.42,0,1,0-.8-.28c-.24.69-.42,1.4-.59,2.1-.13.53-.25,1-.41,1.55a.43.43,0,0,0,.28.54h.13A.41.41,0,0,0,71.53,127.77Z"/><path d="M74.42,126.74A13.53,13.53,0,0,0,73.21,129a8.59,8.59,0,0,1-1.82,2.87.44.44,0,0,0,0,.6.45.45,0,0,0,.32.14.43.43,0,0,0,.28-.11,9.49,9.49,0,0,0,2-3.15,12.79,12.79,0,0,1,1.13-2.11.42.42,0,0,0-.09-.59A.43.43,0,0,0,74.42,126.74Z"/><path d="M79.42,127.41a.43.43,0,0,0-.59.11A28.1,28.1,0,0,0,77.41,130a27.24,27.24,0,0,1-1.55,2.62.43.43,0,0,0,.1.6.44.44,0,0,0,.24.07.41.41,0,0,0,.35-.18,25.7,25.7,0,0,0,1.61-2.71A26,26,0,0,1,79.54,128,.42.42,0,0,0,79.42,127.41Z"/><path d="M82.06,129.49a.43.43,0,0,0-.59.15,11,11,0,0,0-.68,1.38,12.11,12.11,0,0,1-.67,1.35,6.06,6.06,0,0,1-.48.61,5.54,5.54,0,0,0-.58.77,5.31,5.31,0,0,0-.39,1,2.83,2.83,0,0,1-.38.93.42.42,0,0,0,.09.59.41.41,0,0,0,.25.08.42.42,0,0,0,.34-.17,3.67,3.67,0,0,0,.52-1.18,4,4,0,0,1,.31-.83,4.37,4.37,0,0,1,.49-.64,6.88,6.88,0,0,0,.56-.72,12.8,12.8,0,0,0,.71-1.44,11.92,11.92,0,0,1,.64-1.29A.43.43,0,0,0,82.06,129.49Z"/><path d="M85.46,129.15a.43.43,0,0,0-.58.17l-.4.76a7.21,7.21,0,0,1-1.71,2.43.42.42,0,0,0,0,.6.41.41,0,0,0,.32.15.42.42,0,0,0,.28-.1,8.32,8.32,0,0,0,1.91-2.69c.12-.24.25-.49.39-.74A.43.43,0,0,0,85.46,129.15Z"/><path d="M196.85,191.15a.42.42,0,0,0-.5-.34.41.41,0,0,0-.32.29.43.43,0,0,0-.42-.42h0a.43.43,0,0,0-.43.43V194a3.77,3.77,0,0,0,.17,1.6.42.42,0,0,0,.37.22.53.53,0,0,0,.2-.05.41.41,0,0,0,.21-.3.45.45,0,0,0,.3.12h0a.43.43,0,0,0,.41-.44c0-.2,0-.4,0-.61s0-.6,0-.9,0-.55,0-.85A6.36,6.36,0,0,0,196.85,191.15Zm-.82,1v-.48A3.84,3.84,0,0,1,196,192.19Z"/><path d="M193.88,207.8a.43.43,0,0,0-.58.17,2.56,2.56,0,0,1-1.1,1.19,5.84,5.84,0,0,0-.52.39c-.25.21-.65.56-.86.54a.45.45,0,0,0-.45.41.42.42,0,0,0,.4.44h.06a2.49,2.49,0,0,0,1.39-.73,2.32,2.32,0,0,1,.41-.31,3.56,3.56,0,0,0,1.42-1.52A.43.43,0,0,0,193.88,207.8Z"/><path d="M15.35,187a.53.53,0,0,0-.69-.31.55.55,0,0,0-.27.25v-.23a.53.53,0,0,0-.55-.51.53.53,0,0,0-.51.55,12.32,12.32,0,0,1-.08,1.54,7.37,7.37,0,0,0,.11,3,.53.53,0,0,0,.5.36.47.47,0,0,0,.17,0,.48.48,0,0,0,.24-.18.68.68,0,0,0,.47.35h.12a.53.53,0,0,0,.32-.95A9.9,9.9,0,0,1,15.3,189,4.93,4.93,0,0,0,15.35,187Zm-1,1.26c0-.2,0-.4,0-.59C14.36,187.81,14.34,188,14.32,188.24Z"/><path d="M17.24,186.46h0a.53.53,0,0,0-1-.05l-.12,1a22.31,22.31,0,0,0-.27,3.85.53.53,0,0,0,.53.51h0a.52.52,0,0,0,.51-.55,22,22,0,0,1,.25-3.62,7.47,7.47,0,0,1-.06,1.87,11.45,11.45,0,0,0-.1,1.24.53.53,0,0,0,.53.53h0a.53.53,0,0,0,.53-.53c0-.32.05-.71.09-1.12a5.58,5.58,0,0,0-.14-2.86A.52.52,0,0,0,17.24,186.46Z"/><path d="M18.09,199.06c.05.29.09.59.14.89.08.49.15,1,.24,1.47a11.86,11.86,0,0,0,.31,1.27.35.35,0,0,0-.14,0,7.48,7.48,0,0,1-.65-2.77.53.53,0,0,0-.53-.53.54.54,0,0,0-.53.54s0,.26.06.63l-.18-.53a.53.53,0,0,0-.69-.29.51.51,0,0,0-.3.68,12.73,12.73,0,0,1,.66,2.57,2.18,2.18,0,0,1,0,.35c0,.46-.08,1.55.87,1.64h.05a.54.54,0,0,0,.14-1,3.24,3.24,0,0,1,0-.54,3.34,3.34,0,0,0,0-.55,1.79,1.79,0,0,0,.47.7.85.85,0,0,0,.56.21h.14a.5.5,0,0,0,.39-.32.85.85,0,0,0,.31.27.64.64,0,0,0,.3.08.73.73,0,0,0,.29-.07.53.53,0,0,0-.09-1,7.09,7.09,0,0,1-.38-1.47c-.09-.46-.17-1-.24-1.42-.05-.31-.09-.61-.14-.9a.54.54,0,0,0-.62-.44A.52.52,0,0,0,18.09,199.06Z"/><path d="M161.62,63.49a.4.4,0,0,0,.33-.17.42.42,0,0,0-.07-.59,7,7,0,0,1-.93-1.41,7.92,7.92,0,0,0-.74-1.16.43.43,0,0,0-.64.56,8.69,8.69,0,0,1,.64,1,6.14,6.14,0,0,0,1.15,1.66A.41.41,0,0,0,161.62,63.49Z"/></svg>