<svg id="Layer_1" data-name="Layer 1" xmlns="http://www.w3.org/2000/svg" viewBox="0 0 211 175"><defs><style>.cls-1{fill:#010101;}</style></defs><title>who-we-are</title><path class="cls-1" d="M72.74,9.77A.37.37,0,0,0,73,9.64a.38.38,0,0,0,0-.53.84.84,0,0,1-.18-.88l.33-.08a1.44,1.44,0,0,0,.37-.1.37.37,0,0,0,.23-.46.37.37,0,0,0-.45-.25L73,7.4c-.06,0-.08,0-.09-.05a.77.77,0,0,1,.1-.58.79.79,0,0,1,.46-.37A.38.38,0,0,0,73.79,6a.39.39,0,0,0-.3-.36.54.54,0,0,1-.4-.29.28.28,0,0,1,.07-.32.39.39,0,0,0,.14-.52.4.4,0,0,0-.52-.13,1,1,0,0,0-.39,1.25,1.25,1.25,0,0,0,.27.39,1.84,1.84,0,0,0-.27.34,1.52,1.52,0,0,0-.18,1.15l.05.14A.73.73,0,0,0,72,8a1.65,1.65,0,0,0,.46,1.65A.36.36,0,0,0,72.74,9.77Z"/><path class="cls-1" d="M87.85,8l.26.06a.85.85,0,0,1,0,.42.63.63,0,0,1-.31.45.37.37,0,0,0,.17.71.34.34,0,0,0,.16,0,1.34,1.34,0,0,0,.71-1,1.62,1.62,0,0,0,0-.85h0a1.07,1.07,0,0,0,.54-.57,1.52,1.52,0,0,0-.08-1.11,1,1,0,0,0-.75-.5.39.39,0,0,0-.42.33.37.37,0,0,0,.33.42.28.28,0,0,1,.19.12,1,1,0,0,1,0,.45.5.5,0,0,1-.26.23,2,2,0,0,1-.52.13.37.37,0,0,0-.31.36A.38.38,0,0,0,87.85,8Z"/><path class="cls-1" d="M77.93,14.65a.47.47,0,0,0,.17,0,.36.36,0,0,0,.33-.21,2.7,2.7,0,0,1,.6-.86.64.64,0,0,1,.69-.13.4.4,0,0,0,.37,0,.38.38,0,0,0,.2-.3c0-.27.43-.45.79-.47a1.29,1.29,0,0,1,1.16.45.37.37,0,0,0,.29.16.37.37,0,0,0,.31-.13,1.21,1.21,0,0,1,1.07-.39l0,.1a1.08,1.08,0,0,0,.08.19.69.69,0,0,0,.55.35.51.51,0,0,0,.45-.22.38.38,0,0,0-.1-.52.41.41,0,0,0-.28-.06h0a.83.83,0,0,0-.26-.41.85.85,0,0,0-.42-.17,1.91,1.91,0,0,0-1.39.36A2.2,2.2,0,0,0,81,12a1.69,1.69,0,0,0-1.34.71,1.47,1.47,0,0,0-1.13.33,3.3,3.3,0,0,0-.79,1.11A.37.37,0,0,0,77.93,14.65Z"/><path class="cls-1" d="M73.55,18.05a1.4,1.4,0,0,1,0-.54,3,3,0,0,0,.1-.61.49.49,0,0,0-.47-.52.5.5,0,0,0-.53.47,2.39,2.39,0,0,1-.07.44,2.19,2.19,0,0,0-.06.89,1.53,1.53,0,0,0,.33.89,1.44,1.44,0,0,0,.77.42,3.35,3.35,0,0,0,1.57,0l.21.75a1.3,1.3,0,0,0,.33.62,1.2,1.2,0,0,0,.86.29,2.42,2.42,0,0,0,1.88-.95,2.36,2.36,0,0,0,.35.65,2.1,2.1,0,0,0,1.64.81h.19a2.09,2.09,0,0,0,1.64-1.14l0,0a1.45,1.45,0,0,0,1.3.84A2,2,0,0,0,85,20.74a2.63,2.63,0,0,0,.81-1.32.78.78,0,0,0-.22-.87.65.65,0,0,0-.89.1.57.57,0,0,0,0,.8,1.81,1.81,0,0,1-.4.54,1,1,0,0,1-.67.29.45.45,0,0,1-.42-.25l0-.1a1,1,0,0,0-.46-.67.87.87,0,0,0-1,.25,1.57,1.57,0,0,0-.24.43l0,.1a1.05,1.05,0,0,1-.84.58,1.1,1.1,0,0,1-.94-.4,2,2,0,0,1-.31-.87.78.78,0,0,0-.38-.62.63.63,0,0,0-.52,0,1,1,0,0,0-.54.58,1.44,1.44,0,0,1-1.28.85h-.15a1.71,1.71,0,0,1-.07-.18L76,18.64a.5.5,0,0,0-.76-.27,2.07,2.07,0,0,1-1.38.15c-.17,0-.23-.09-.24-.11A.75.75,0,0,1,73.55,18.05Z"/><path class="cls-1" d="M85.07,28.54a.5.5,0,0,0-.38.1l-1,.81a1.64,1.64,0,0,1-.53.33.68.68,0,0,1-.57-.18,1.64,1.64,0,0,1-.43-.69.5.5,0,0,0-1,.05,1,1,0,0,1-.64.67,1.26,1.26,0,0,1-1-.13.91.91,0,0,1-.34-.29c-.22-.32-.09-.87,0-1.36a.5.5,0,1,0-1-.28,2.65,2.65,0,0,0,.08,2.21,2,2,0,0,0,.69.59,2.29,2.29,0,0,0,1.72.22,2,2,0,0,0,.82-.5,2.23,2.23,0,0,0,.26.27,1.73,1.73,0,0,0,1.12.43,1.1,1.1,0,0,0,.31,0,2.4,2.4,0,0,0,1-.52l.59-.48.32.44a1.42,1.42,0,0,0,.51.49,1.52,1.52,0,0,0,1.55-.36,1.86,1.86,0,0,0,.56-.61A2.11,2.11,0,0,0,88,29a1.24,1.24,0,0,1,.06-.35.51.51,0,0,0,.14-.7.5.5,0,0,0-.69-.14A1.31,1.31,0,0,0,87,28.87a1.3,1.3,0,0,1-.07.39,1.21,1.21,0,0,1-.28.27c-.38.29-.49.25-.49.25A.71.71,0,0,1,86,29.6l-.63-.86A.5.5,0,0,0,85.07,28.54Z"/><path class="cls-1" d="M67.11,29.87a2.88,2.88,0,0,0,.66.43,3,3,0,0,0-.49,1.12,1.73,1.73,0,0,0,.07,1.13,1.66,1.66,0,0,0,1.28.81l.18,0a2.67,2.67,0,0,0-.08,1.19.91.91,0,0,0,.2.5,1,1,0,0,0,.37.27,2.74,2.74,0,0,0,1.13.25,2.88,2.88,0,0,0,.59-.07.5.5,0,0,0-.22-1,1.56,1.56,0,0,1-1.08-.12A1.74,1.74,0,0,1,70,33.21a.51.51,0,0,0,0-.52.49.49,0,0,0-.44-.25,4.49,4.49,0,0,1-.73-.06c-.3-.06-.5-.16-.56-.28a.79.79,0,0,1,0-.46c.1-.44.35-.95.74-1.06a.51.51,0,0,0,.37-.53.49.49,0,0,0-.45-.45,2.17,2.17,0,0,1-1.19-.5,6,6,0,0,1,.84-1.28.48.48,0,0,0,0-.7.49.49,0,0,0-.7.05,6.84,6.84,0,0,0-1,1.5,1,1,0,0,0-.12.48A1,1,0,0,0,67.11,29.87Z"/><path class="cls-1" d="M75.66,35.68A.49.49,0,0,0,75,36a1.87,1.87,0,0,0,1.13,2.23,2.44,2.44,0,0,0,2.25-.31,2.61,2.61,0,0,1,.45,1,.5.5,0,0,0,.48.37h0a2.28,2.28,0,0,0,2-1.37c.05-.12.09-.24.13-.37h0a2.46,2.46,0,0,0,.24.45,1.89,1.89,0,0,0,2,.69,2.41,2.41,0,0,0,1.53-1.36l0-.1a1.15,1.15,0,0,0,.1-.26.34.34,0,0,1,.16.14c0,.08.09.16.13.24a2.41,2.41,0,0,0,.35.55,1.54,1.54,0,0,0,2,.16,1.63,1.63,0,0,0,.46-1.93.5.5,0,0,0-.67-.24.49.49,0,0,0-.24.66.61.61,0,0,1-.16.71.53.53,0,0,1-.66,0,1.59,1.59,0,0,1-.19-.32c-.07-.12-.13-.24-.2-.34A1.12,1.12,0,0,0,85.16,36a1.4,1.4,0,0,0-.75.89,1.46,1.46,0,0,1-.89.82.93.93,0,0,1-1-.3,2.24,2.24,0,0,1-.19-.38,2,2,0,0,0-.52-.82.49.49,0,0,0-.55-.07,1.62,1.62,0,0,0-.75,1.09c0,.1-.07.2-.1.29a1.29,1.29,0,0,1-.76.69,2.85,2.85,0,0,0-.92-1.37.78.78,0,0,0-.36-.16.6.6,0,0,0-.58.35c-.15.29-.85.41-1.33.23a.87.87,0,0,1-.51-1A.5.5,0,0,0,75.66,35.68Z"/><path class="cls-1" d="M71.06,43.09c-.19-.18-.17-.61-.12-1A.5.5,0,1,0,70,42a2.08,2.08,0,0,0,.43,1.85,1.68,1.68,0,0,0,.75.39,3.47,3.47,0,0,0,2.75-.54A2.34,2.34,0,0,0,75,44.79a2.31,2.31,0,0,0,2.36-.25l.2-.16A2.28,2.28,0,0,0,80,45.89,3.07,3.07,0,0,0,81.8,45a3.55,3.55,0,0,0,.54.8,1.9,1.9,0,0,0,1.4.71h.09c.93,0,1.62-1,2.09-1.6l0,0,0,0a2.11,2.11,0,0,0,.27.25A1.46,1.46,0,0,0,88,45a3.14,3.14,0,0,0,.78-1.18.5.5,0,0,0-.91-.41,2.41,2.41,0,0,1-.51.83.47.47,0,0,1-.5.1.68.68,0,0,1-.12-.12l-.2-.19a.92.92,0,0,0-1-.15,1.12,1.12,0,0,0-.33.32l-.08.1c-.33.46-.9,1.21-1.31,1.19s-.43-.09-.75-.41a2.91,2.91,0,0,1-.58-1.15.51.51,0,0,0-.38-.47.5.5,0,0,0-.55.23,2.33,2.33,0,0,1-1.66,1.22A1.26,1.26,0,0,1,78.5,44c-.07-.49-.29-.76-.64-.81a.9.9,0,0,0-.42.07,2.15,2.15,0,0,0-.52.36l-.16.13a1.34,1.34,0,0,1-1.34.14,1.33,1.33,0,0,1-.76-1.11.49.49,0,0,0-.32-.44.5.5,0,0,0-.53.11,2.64,2.64,0,0,1-2.43.8A.73.73,0,0,1,71.06,43.09Z"/><path class="cls-1" d="M57.74,39.93a1.34,1.34,0,0,0-.15.48A1.64,1.64,0,0,0,58.42,42a1.7,1.7,0,0,0,.83.23,3.64,3.64,0,0,0,0,.73,1.17,1.17,0,0,0,.22.7,1.19,1.19,0,0,0,.84.4c.22,0,.44,0,.67,0a6.45,6.45,0,0,0,.76,0,.5.5,0,0,0-.12-1,4.82,4.82,0,0,1-1.2,0c-.1,0-.15,0-.16,0s0-.06,0-.12a3.13,3.13,0,0,1,.2-1.17.5.5,0,0,0-.14-.55.48.48,0,0,0-.56-.07.88.88,0,0,1-.79,0,.66.66,0,0,1-.32-.61A.5.5,0,0,1,59,40.1H59a.48.48,0,0,0,.42-.55.5.5,0,0,0-.55-.44h0a1.58,1.58,0,0,1-1.57-.91c0-.07,0-.11,0-.11a.28.28,0,0,1,.08-.08,2.05,2.05,0,0,1,1.09-.41.49.49,0,0,0,.47-.47.5.5,0,0,0-.42-.52,1.33,1.33,0,0,1-.66-.35,1.6,1.6,0,0,1-.16-2,.12.12,0,0,1,.12,0,.51.51,0,0,0,.57-.43.5.5,0,0,0-.43-.56,1.11,1.11,0,0,0-.91.26,2.1,2.1,0,0,0-.61,1.54A2.24,2.24,0,0,0,57.08,37a3.11,3.11,0,0,0-.38.25,1.2,1.2,0,0,0-.42.54,1.14,1.14,0,0,0,.07.82A2.55,2.55,0,0,0,57.74,39.93Z"/><path class="cls-1" d="M51.68,47.94a1.22,1.22,0,0,0-.44,1.18,1.29,1.29,0,0,0,.47.74,2.41,2.41,0,0,0,1.57.57,2.29,2.29,0,0,0,1.25-.35.49.49,0,0,0,.16-.69.51.51,0,0,0-.69-.16,1.42,1.42,0,0,1-1.63-.12c-.13-.11-.15-.18-.15-.2s.06-.19.18-.26a2.11,2.11,0,0,1,.72-.19.49.49,0,0,0,.43-.51.51.51,0,0,0-.46-.48,1.5,1.5,0,0,1-1.15-.74.84.84,0,0,1-.11-.28.75.75,0,0,1,.4-.6,3.3,3.3,0,0,1,1.08-.29.51.51,0,0,0,.42-.57.5.5,0,0,0-.57-.42,4,4,0,0,0-1.44.42,1.68,1.68,0,0,0-.88,1.55,1.74,1.74,0,0,0,.22.68A2.52,2.52,0,0,0,51.68,47.94Z"/><path class="cls-1" d="M68.56,48.27a.5.5,0,0,0-.7.1,3.15,3.15,0,0,0,.06,3.78,1.69,1.69,0,0,0,.7.55,1.73,1.73,0,0,0,.78.09,3.77,3.77,0,0,0,1.67-.53,2.22,2.22,0,0,0,1.24,1.51,3,3,0,0,0,.83.18,3.7,3.7,0,0,0,1.44-.07,1.92,1.92,0,0,0,.62-.32,2.83,2.83,0,0,0,.7.76,2.27,2.27,0,0,0,2,.37,1.91,1.91,0,0,0,.85-.54,2.34,2.34,0,0,0,.66.43,3.11,3.11,0,0,0,1.26.29l.28,0A2.06,2.06,0,0,0,82.43,54a2.73,2.73,0,0,0,.42-1.26,1.41,1.41,0,0,0,0-.7.85.85,0,0,0-.9-.55.5.5,0,0,0-.41.58.48.48,0,0,0,.37.4s0,.11,0,.14a1.88,1.88,0,0,1-.25.81,1.06,1.06,0,0,1-.76.42,2,2,0,0,1-1-.2c-.29-.13-.58-.37-.59-.58V53a.5.5,0,0,0-1-.06.17.17,0,0,0,0,.07.89.89,0,0,1-.61.71,1.32,1.32,0,0,1-1.13-.23,2.22,2.22,0,0,1-.73-1.09.51.51,0,0,0-.51-.35.49.49,0,0,0-.46.41.7.7,0,0,1-.5.45,2.81,2.81,0,0,1-1.05,0,2.08,2.08,0,0,1-.55-.1c-.6-.25-.75-1.15-.79-1.52a.5.5,0,0,0-.33-.42.48.48,0,0,0-.51.11,2.81,2.81,0,0,1-1.73.77.83.83,0,0,1-.35,0,.86.86,0,0,1-.28-.25,2.13,2.13,0,0,1,0-2.54A.52.52,0,0,0,68.56,48.27Z"/><path class="cls-1" d="M87.64,58.47a.5.5,0,0,0-.49.51,1.22,1.22,0,0,1-.07.51.32.32,0,0,1-.1.09,1,1,0,0,1-.19-.11,1,1,0,0,0-1-.18,1,1,0,0,0-.54.83v.16a.84.84,0,0,1,0,.19.51.51,0,0,1-.35.11,2.13,2.13,0,0,1-1-.2,1.43,1.43,0,0,0-.49-.14.77.77,0,0,0-.82.55c0,.12,0,.23-.1.3a.89.89,0,0,1-.43-.28,3.55,3.55,0,0,1-.56-.73.51.51,0,0,0-.68-.19.52.52,0,0,0-.19.69,4.63,4.63,0,0,0,.72.93,1.68,1.68,0,0,0,1,.57h.1a1.15,1.15,0,0,0,.75-.29.9.9,0,0,0,.28-.49h0a3.25,3.25,0,0,0,1.41.26,1.33,1.33,0,0,0,1.21-.7,1.48,1.48,0,0,0,.11-.54v0h0a1.48,1.48,0,0,0,.52.25A1.11,1.11,0,0,0,88,60a1.92,1.92,0,0,0,.2-1A.5.5,0,0,0,87.64,58.47Z"/><path class="cls-1" d="M61.48,56.58a1.82,1.82,0,0,1,0-1,.5.5,0,0,0-1-.21,2.6,2.6,0,0,0,0,1.65,2.4,2.4,0,0,0,1,1,3.61,3.61,0,0,0,1.45.57,2.49,2.49,0,0,0,.67,0c0,.12,0,.25,0,.37a2.12,2.12,0,0,0,.77,1.37,2.43,2.43,0,0,0,2.61-.07c.21-.11.48-.24.6-.2s.21.25.31.43l.06.12a3.32,3.32,0,0,0,1.26,1.31,2.48,2.48,0,0,0,1.87.26,2.36,2.36,0,0,0,.81-.4,1.26,1.26,0,0,0,.2.27,4.18,4.18,0,0,0,.9.5,2.24,2.24,0,0,0,.73.14,2.57,2.57,0,0,0,1.63-.74.5.5,0,1,0-.65-.76c-.57.48-.91.59-1.35.42a4,4,0,0,1-.54-.26,1.13,1.13,0,0,1-.15-.67.5.5,0,0,0-.38-.48.51.51,0,0,0-.56.26,1.52,1.52,0,0,1-.9.76A1.55,1.55,0,0,1,69.79,61a2.22,2.22,0,0,1-.87-.92L68.86,60a1.69,1.69,0,0,0-.83-.89,1.75,1.75,0,0,0-1.48.28,1.54,1.54,0,0,1-1.5.11,1.06,1.06,0,0,1-.37-.7,3,3,0,0,1,.08-1,.5.5,0,0,0-.88-.42.85.85,0,0,1-.77.25,2.64,2.64,0,0,1-1-.42A1.53,1.53,0,0,1,61.48,56.58Z"/><path class="cls-1" d="M82.38,66.39a.5.5,0,0,0-.45.54,1.18,1.18,0,0,1,0,.53.66.66,0,0,1-.3.46,1.87,1.87,0,0,1-.33.07,1.68,1.68,0,0,0-.75.24,1.89,1.89,0,0,0-.68,1.36c-.07.36-.19.51-.25.52s-.26-.1-.43-.2a1.89,1.89,0,0,0-.87-.39.46.46,0,0,0-.37.11.49.49,0,0,0-.19.34.71.71,0,0,1-.45.61l-.18,0a1.63,1.63,0,0,1-.8-.29,3.12,3.12,0,0,1-.67-.59,1,1,0,0,0-.43-.32.91.91,0,0,0-1,.33l-.82.81a.92.92,0,0,1-.22.18A.62.62,0,0,1,73,70.6a11,11,0,0,1-1.29-1,.49.49,0,0,0-.79.18,1,1,0,0,1-.69.51,2.65,2.65,0,0,1-1.13-.06,1.84,1.84,0,0,1-1.23-.7,1.18,1.18,0,0,0-.35-.37,1.08,1.08,0,0,0-1.12.12,4.36,4.36,0,0,1-1.33.53,1.19,1.19,0,0,1-.41,0c-.33-.07-.54-.58-.68-1a.51.51,0,0,0-.64-.31.5.5,0,0,0-.31.63c.15.44.5,1.47,1.43,1.67a2,2,0,0,0,.82,0,5.62,5.62,0,0,0,1.63-.65L67,70.1l0,0a2.72,2.72,0,0,0,1.81,1.08,3.53,3.53,0,0,0,1.58.06,2.06,2.06,0,0,0,1-.55,11.5,11.5,0,0,0,1,.71,1.45,1.45,0,0,0,.78.28h.1a1.44,1.44,0,0,0,.82-.47l.82-.81a4.27,4.27,0,0,0,.82.71,2.47,2.47,0,0,0,1.35.45,1.74,1.74,0,0,0,.45-.06,1.63,1.63,0,0,0,1-.85l.07,0a1.48,1.48,0,0,0,1.21.34c.36-.08.82-.38,1-1.36.05-.27.11-.57.24-.66a1.21,1.21,0,0,1,.35-.08,2.44,2.44,0,0,0,.59-.15,1.64,1.64,0,0,0,.87-1.15,1.94,1.94,0,0,0,0-.83A.5.5,0,0,0,82.38,66.39Z"/><path class="cls-1" d="M50.42,57.84a2,2,0,0,0,.34.06,1.31,1.31,0,0,1,.31.07,1.07,1.07,0,0,1,0,.32.81.81,0,0,1-.09.29,1.55,1.55,0,0,0-.16.71,2.6,2.6,0,0,0,.18,1,2.84,2.84,0,0,0,1.73,1.44,2.93,2.93,0,0,0,.84,0,1.77,1.77,0,0,0,.3,1.2,1.72,1.72,0,0,0,.95.54,6.2,6.2,0,0,0,1.21.18h.22a2,2,0,0,0,1.31,1.11,2.75,2.75,0,0,0,.65.08,3.91,3.91,0,0,0,1.51-.35.5.5,0,0,0-.4-.92,2.29,2.29,0,0,1-1.5.22.92.92,0,0,1-.71-.83.49.49,0,0,0-.4-.53.48.48,0,0,0-.52.22h-.11a4.94,4.94,0,0,1-1-.16.82.82,0,0,1-.42-.19,1.25,1.25,0,0,1-.08-.6c0-.19,0-.24,0-.23a.52.52,0,0,0,.19-.64.51.51,0,0,0-.62-.26,2.48,2.48,0,0,1-1.22.14,1.91,1.91,0,0,1-1-.85,1.85,1.85,0,0,1-.1-.63.61.61,0,0,1,.08-.29,1.76,1.76,0,0,0,.16-.6,1.36,1.36,0,0,0-.2-1,1.34,1.34,0,0,0-1-.46l-.23,0a.69.69,0,0,1-.48-.47.67.67,0,0,1,.19-.65.5.5,0,1,0-.68-.74,1.66,1.66,0,0,0,.73,2.83Z"/><path class="cls-1" d="M44.67,50.65h0a.51.51,0,0,0,.5-.49.5.5,0,0,0-.48-.51,1.19,1.19,0,0,1-.92-.5,1.36,1.36,0,0,1-.18-1,.62.62,0,0,1,.21,0,1,1,0,0,0,.93-.47,1.11,1.11,0,0,0-.19-1.08,1.12,1.12,0,0,1-.16-.89.69.69,0,0,1,.55-.49h.12c.28,0,.88-.07,1-.64a.89.89,0,0,0-.08-.61,1.93,1.93,0,0,0-.43-.56c-.07-.08-.14-.15-.2-.23a.55.55,0,0,1-.08-.5.27.27,0,0,1,.26-.17.45.45,0,0,1,.11,0,1.61,1.61,0,0,0,.39.09.82.82,0,0,0,.64-.27.66.66,0,0,0,.17-.55.86.86,0,0,0-.5-.61.54.54,0,0,1-.22-.39,2.55,2.55,0,0,1,0-.73.86.86,0,0,1,.09-.39.34.34,0,0,1,.22-.1,2.43,2.43,0,0,1,1.33.33.5.5,0,1,0,.4-.92,3.34,3.34,0,0,0-1.91-.39,1.3,1.3,0,0,0-.82.45,1.6,1.6,0,0,0-.3.92,3.87,3.87,0,0,0,0,1,1.79,1.79,0,0,0,.19.52,1.3,1.3,0,0,0-1,.78,1.55,1.55,0,0,0,.2,1.46,2.36,2.36,0,0,0,.3.34l.11.12h-.15a1.7,1.7,0,0,0-1.39,1.2,2.09,2.09,0,0,0,.27,1.73,1.11,1.11,0,0,0-.78.28,1,1,0,0,0-.23.4A2.17,2.17,0,0,0,43,49.71,2.2,2.2,0,0,0,44.67,50.65Z"/><path class="cls-1" d="M52.33,70.69l.19-.08h0a2.28,2.28,0,0,0,1.52.83h.23a2.32,2.32,0,0,0,1.49-.55.49.49,0,0,0,0-.7.51.51,0,0,0-.71,0,1.3,1.3,0,0,1-1,.3,1.33,1.33,0,0,1-.83-.45.56.56,0,0,0-.19-.74.5.5,0,0,0-.61.11,2.17,2.17,0,0,0-.15.22l-.21.09-.25.1a1.47,1.47,0,0,1-.75.09,1,1,0,0,1-.42-.11c-.38-.21-.44-.85-.42-1.35A.49.49,0,0,0,50.1,68a.53.53,0,0,0-.49,0,1.3,1.3,0,0,1-1.09,0,1.26,1.26,0,0,1-.7-.83.85.85,0,0,1,.27-.92.49.49,0,0,0,.19-.63.49.49,0,0,0-.6-.27,2.06,2.06,0,0,1-1.11.07.92.92,0,0,1-.65-.57.66.66,0,0,1,.26-.7.93.93,0,0,0,.45-.64.62.62,0,0,0-.19-.5.42.42,0,0,0-.27-.14,2.49,2.49,0,0,1-1.51-.58,1.17,1.17,0,0,1-.19-1,1.64,1.64,0,0,1,.4-.71,1.26,1.26,0,0,0,.69.14.5.5,0,1,0-.08-1,.3.3,0,0,1-.23-.11.53.53,0,0,0-.33-.19.49.49,0,0,0-.37.1,2.83,2.83,0,0,0-1,1.51,2.15,2.15,0,0,0,.4,1.9,2.48,2.48,0,0,0,1.32.77A1.71,1.71,0,0,0,45,65.09a1.92,1.92,0,0,0,1.35,1.24,2.26,2.26,0,0,0,.53.08,2,2,0,0,0,0,1,2.3,2.3,0,0,0,2.51,1.67,1.91,1.91,0,0,0,.89,1.58,2.14,2.14,0,0,0,.82.24A2.55,2.55,0,0,0,52.33,70.69Z"/><path class="cls-1" d="M44.94,75.09a1.93,1.93,0,0,1-1.32.43,1.59,1.59,0,0,1-1-.73,2.88,2.88,0,0,1,0-.4.18.18,0,0,1,.08-.08,1,1,0,0,1,.25-.1l.22,0a.5.5,0,0,0,.31-.62.49.49,0,0,0-.59-.34l-.13,0a1.51,1.51,0,0,1-.72-.31,2.22,2.22,0,0,1-.54-.43.42.42,0,0,1-.12-.34c0-.13.29-.26.63-.34a.5.5,0,0,0-.06-1,1.42,1.42,0,0,1-.88-.25.85.85,0,0,1-.13-.74.93.93,0,0,1,.21-.53c.08-.07.2-.11.24-.08a.51.51,0,0,0,.68-.22.5.5,0,0,0-.22-.67,1.22,1.22,0,0,0-1.4.26,1.88,1.88,0,0,0-.5,1.08,1.83,1.83,0,0,0,.4,1.6,1.78,1.78,0,0,0,.26.22,1.05,1.05,0,0,0-.18.37,1.37,1.37,0,0,0,.29,1.25,3.19,3.19,0,0,0,.77.64l.25.15a1.37,1.37,0,0,0-.13.5,1.73,1.73,0,0,0,.09.78,2.6,2.6,0,0,0,1.63,1.3,1.84,1.84,0,0,0,.41.05,3.35,3.35,0,0,0,1.72-.62.5.5,0,0,0,.14-.69A.51.51,0,0,0,44.94,75.09Z"/><path class="cls-1" d="M62.56,83a.5.5,0,0,0-.62.35,1.06,1.06,0,0,1-.58.71.63.63,0,0,1-.7-.13l-.08-.1a.94.94,0,0,0-1.65-.06,1.16,1.16,0,0,1-1,.37.74.74,0,0,1-.61-.63.5.5,0,0,0-.95-.19.56.56,0,0,1-.42.27A2,2,0,0,1,54.46,83a.55.55,0,0,1-.09-.55.5.5,0,0,0-.21-.68.49.49,0,0,0-.67.21,1.53,1.53,0,0,0,.18,1.62,2.43,2.43,0,0,0,1.18.8,2.67,2.67,0,0,0,1.24.16,1.61,1.61,0,0,0,.52-.18,1.75,1.75,0,0,0,1.12.73,1.87,1.87,0,0,0,.34,0,2.28,2.28,0,0,0,1.62-.74l0-.05.05.06.12.15a1.63,1.63,0,0,0,1.85.4A2.05,2.05,0,0,0,62.9,83.6.5.5,0,0,0,62.56,83Z"/><path class="cls-1" d="M71.8,78.12a.5.5,0,0,0-.44.55s0,.11-.07.13a.43.43,0,0,1-.35.09.65.65,0,0,1-.41-.47.5.5,0,0,0-.69-.32,1.42,1.42,0,0,0-.66.75,1.14,1.14,0,0,1-.1.19A.82.82,0,0,1,67.65,79c-.33-.68-.83-.51-.93-.46a.73.73,0,0,0-.36.37,1.61,1.61,0,0,1-1.5.87,1.63,1.63,0,0,1-1.4-1,.5.5,0,0,0-.49-.33.49.49,0,0,0-.46.38,1.23,1.23,0,0,1-1.44.72,2.5,2.5,0,0,1-1.54-1.35.51.51,0,0,0-.42-.27.48.48,0,0,0-.44.22c-.24.35-.31.4-.91.59l-.23.09a1.63,1.63,0,0,1-.89-1.47,1,1,0,0,0,0-.46.49.49,0,0,0-.47-.44.5.5,0,0,0-.51.39,2.34,2.34,0,0,0,0,.26v0a.15.15,0,0,1-.11.05l-.11,0a1.14,1.14,0,0,0-.58,0,1.37,1.37,0,0,0-.48.31c-.28.23-.79.1-1.14-.12a5.63,5.63,0,0,1-1-.92.88.88,0,0,1-.33-.53.5.5,0,0,0,.14-1,.86.86,0,0,0-.8.2,1.12,1.12,0,0,0-.36.94,1.94,1.94,0,0,0,.63,1.07,6.71,6.71,0,0,0,1.23,1.07,2,2,0,0,0,2.3,0l.13-.13.11,0,.25,0a1.18,1.18,0,0,0,.27,0,2.6,2.6,0,0,0,1.34,1.58,1.12,1.12,0,0,0,.53.12.88.88,0,0,0,.44-.17,2.9,2.9,0,0,0,1-.43,3.28,3.28,0,0,0,1.83,1.27A2.4,2.4,0,0,0,63,79.86a2.62,2.62,0,0,0,1.8.9h.14a2.7,2.7,0,0,0,2-1,1.82,1.82,0,0,0,1.32.66,1.85,1.85,0,0,0,1.64-.87l.06-.11a1.65,1.65,0,0,0,.66.4,1.41,1.41,0,0,0,1.27-.29,1.1,1.1,0,0,0,.42-1A.49.49,0,0,0,71.8,78.12Z"/><path class="cls-1" d="M78.43,78.75a.5.5,0,0,0-.23.67.3.3,0,0,1-.13.24,1.23,1.23,0,0,1-.66.17.79.79,0,0,0-.55.19.83.83,0,0,0-.25.63c0,.45-.07.57-.11.6a.94.94,0,0,1-.37,0,1.42,1.42,0,0,0-1,.18,1.47,1.47,0,0,0-.41.52c0,.06-.08.15-.07.16h-.12a1.21,1.21,0,0,0-.54.06,1.13,1.13,0,0,0-.43.35l-.08.09a.3.3,0,0,1-.14-.06.88.88,0,0,1-.14-.5.51.51,0,0,0-.53-.47.5.5,0,0,0-.47.53,1.73,1.73,0,0,0,.4,1.11,1.21,1.21,0,0,0,.87.39,1,1,0,0,0,.56-.17,1.19,1.19,0,0,0,.28-.26s.08-.08,0-.08h.12a1.15,1.15,0,0,0,.5,0,1.2,1.2,0,0,0,.62-.62.62.62,0,0,1,.12-.19s.24,0,.34,0a1.57,1.57,0,0,0,1-.12,1.45,1.45,0,0,0,.62-1.3,2.08,2.08,0,0,0,1-.35A1.24,1.24,0,0,0,79.1,79,.51.51,0,0,0,78.43,78.75Z"/><path class="cls-1" d="M39.32,84.7a.69.69,0,0,0-.5-.39,1.93,1.93,0,0,0-2.17,1,.39.39,0,0,0,.17.51.51.51,0,0,0,.17,0,.35.35,0,0,0,.33-.21,1.21,1.21,0,0,1,1.31-.6c.1.47.41.48.54.47a.38.38,0,0,0,.32-.42.38.38,0,0,0-.13-.25A.65.65,0,0,0,39.32,84.7Z"/><path class="cls-1" d="M40.58,86.79a2,2,0,0,1-.75.21.38.38,0,0,0,0,.75h0a3.1,3.1,0,0,0,1-.28.37.37,0,0,0,.18-.5A.38.38,0,0,0,40.58,86.79Z"/><path class="cls-1" d="M44.17,86.16a.37.37,0,0,0-.3-.07,2.9,2.9,0,0,0-1,.46.37.37,0,0,0-.09.52.38.38,0,0,0,.31.16.33.33,0,0,0,.21-.07,2.07,2.07,0,0,1,.62-.29l.09.06a.37.37,0,1,0,.44-.6Z"/><path class="cls-1" d="M46.12,88.13a.62.62,0,0,1-.3,0,.37.37,0,1,0-.28.69,1.35,1.35,0,0,0,.5.1l.2,0a.38.38,0,0,0,.31-.43A.38.38,0,0,0,46.12,88.13Z"/><path class="cls-1" d="M49.88,88.52a1.32,1.32,0,0,0-1.24.43.38.38,0,0,0,.29.62.38.38,0,0,0,.29-.14.54.54,0,0,1,.51-.17.38.38,0,0,0,.44-.29A.39.39,0,0,0,49.88,88.52Z"/><path class="cls-1" d="M102.86,24.46h.08a2.85,2.85,0,0,0,1.94-1.89l.18-.51c.09-.25.18-.51.26-.76a6.72,6.72,0,0,0,.14-2.39l-.12-1.71a7.35,7.35,0,0,0-.34-1.38.38.38,0,0,0-.2-.23.42.42,0,0,0-.31,0,3.72,3.72,0,0,0-1.3,1,9.84,9.84,0,0,0-.75,1.25,4.67,4.67,0,0,0-.44,1.92c0,.23,0,.47,0,.7,0,.41,0,.83,0,1.24,0,0,.07,2.33.71,2.7A.41.41,0,0,0,102.86,24.46Zm-.13-3.95c0-.24,0-.48,0-.72a3.76,3.76,0,0,1,.36-1.59,12.55,12.55,0,0,1,.7-1.18,2.24,2.24,0,0,1,.61-.53,3.8,3.8,0,0,1,.17.76l.12,1.71a5.78,5.78,0,0,1-.11,2.12c-.07.24-.16.49-.25.73l-.18.52A2.13,2.13,0,0,1,103,23.64a7.75,7.75,0,0,1-.3-1.93C102.71,21.31,102.72,20.91,102.73,20.51Z"/><path class="cls-1" d="M114.31,17a2.88,2.88,0,0,1,.11.54h0a1.26,1.26,0,0,1-.14.59.36.36,0,0,0,0,.36.38.38,0,0,0,.32.18h0a3.19,3.19,0,0,0,3.06-1.79,27.52,27.52,0,0,0,2.46-5.17.37.37,0,0,0-.61-.39,1.88,1.88,0,0,1-1.18.33,4.63,4.63,0,0,0-.89.12,4.59,4.59,0,0,0-2.37,2.11,4,4,0,0,0-.91,2.56A5.66,5.66,0,0,0,114.31,17Zm1.4-2.7a3.88,3.88,0,0,1,1.94-1.8,4.37,4.37,0,0,1,.76-.1,6,6,0,0,0,.71-.09A27.13,27.13,0,0,1,117,16.49a2.39,2.39,0,0,1-1.9,1.39,1.16,1.16,0,0,0,0-.37,3.28,3.28,0,0,0-.14-.72,3.15,3.15,0,0,1-.11-.44A3.3,3.3,0,0,1,115.71,14.3Z"/><path class="cls-1" d="M100.09,43.4a2.58,2.58,0,0,0,.39,0h.13a4.77,4.77,0,0,0,2-.85,2.75,2.75,0,0,0,.49-.45,6,6,0,0,0,.63-1,9.28,9.28,0,0,0,.89-2.87l0-.14a10.05,10.05,0,0,0,.16-1.91.38.38,0,0,0-.21-.32.37.37,0,0,0-.38,0,6.5,6.5,0,0,1-.91.49,4.57,4.57,0,0,0-1.53,1,4,4,0,0,0-.56.82,9.45,9.45,0,0,0-.8,2.11c-.07.24-.12.5-.18.75l-.1.48a7.42,7.42,0,0,1-.29,1,4.6,4.6,0,0,0-.12.47.37.37,0,0,0,.31.44Zm.83-1.71.11-.5c0-.24.1-.48.16-.72a8.4,8.4,0,0,1,.75-1.93,3.42,3.42,0,0,1,.44-.68,4.13,4.13,0,0,1,1.3-.82l.42-.2c0,.37-.09.75-.15,1.12l0,.14a8.49,8.49,0,0,1-.82,2.65,5.09,5.09,0,0,1-.55.91,1.77,1.77,0,0,1-.34.31,3.92,3.92,0,0,1-1.58.69A7.75,7.75,0,0,0,100.92,41.69Z"/><path class="cls-1" d="M123.15,22l.12,0,.16.07a2.3,2.3,0,0,0,.43.18,2.17,2.17,0,0,0,.6.07h.16a8.88,8.88,0,0,0,1.78-.18,3.07,3.07,0,0,0,1.24-.49,3.75,3.75,0,0,0,.5-.47l.26-.26a4.2,4.2,0,0,1,.68-.49l.8-.51a1.24,1.24,0,0,0,.4-.37.67.67,0,0,0,0-.81c-.07-.07-.16-.18-.84-.29a7,7,0,0,0-1.77,0,3.46,3.46,0,0,0-.9.17h0a17.44,17.44,0,0,0-2.49,1.11l-.85.58a2.87,2.87,0,0,0-.64.81l-.12.18a.36.36,0,0,0,0,.47A1,1,0,0,0,123.15,22Zm.68-1.07q.42-.3.84-.57a16.84,16.84,0,0,1,2.33-1h0a2.63,2.63,0,0,1,.69-.12,6.17,6.17,0,0,1,1.61,0l.25.05-.08,0-.79.5a6,6,0,0,0-.78.57l-.3.3a2.86,2.86,0,0,1-.4.38,2.46,2.46,0,0,1-1,.37,8,8,0,0,1-1.76.16,1.2,1.2,0,0,1-.72-.17l-.18-.09-.06,0A1.63,1.63,0,0,1,123.83,20.93Z"/><path class="cls-1" d="M145.66,33l.08.16a4.17,4.17,0,0,0,.26.46,2.31,2.31,0,0,0,.74.62,4.69,4.69,0,0,0,2.35.55,9,9,0,0,0,1.33-.11A11.93,11.93,0,0,0,154,33.46a2.27,2.27,0,0,0,1.2-1.2.67.67,0,0,0,0-.44.74.74,0,0,0-.43-.38,9.41,9.41,0,0,0-4.14-1,9,9,0,0,0-1.38.23,12.91,12.91,0,0,0-2,.52l-.46.19a6.16,6.16,0,0,1-.84.31,1.45,1.45,0,0,0-.55.31.36.36,0,0,0-.07.49S145.59,32.84,145.66,33Zm1.44-.92.43-.18a12.91,12.91,0,0,1,1.85-.49,9.88,9.88,0,0,1,1.27-.21,8.58,8.58,0,0,1,3.76.95,1.73,1.73,0,0,1-.8.67,10.8,10.8,0,0,1-3.31,1.12,4.9,4.9,0,0,1-3.19-.35,1.66,1.66,0,0,1-.5-.41,1.7,1.7,0,0,1-.19-.35l-.09-.18-.15-.23A7.64,7.64,0,0,0,147.1,32.05Z"/><path class="cls-1" d="M161.48,54.26a2.83,2.83,0,0,0,.4.66l.15.21a10.87,10.87,0,0,0,2.36,2.55,8.25,8.25,0,0,0,4.17,1.64c.16,0,.33,0,.53,0a3.1,3.1,0,0,0,1.13-.2,4.86,4.86,0,0,0,.63-.33.38.38,0,0,0,.14-.5,2.61,2.61,0,0,1-.21-1,3.1,3.1,0,0,0-.33-1.31,3.38,3.38,0,0,0-.68-.77,2.46,2.46,0,0,1-.48-.49,2.4,2.4,0,0,1-.16-.27,3.35,3.35,0,0,0-.29-.44,2.68,2.68,0,0,0-.78-.6A11.52,11.52,0,0,0,162.74,52c-.3,0-1.4,0-1.4,0a.38.38,0,0,0-.29.15.37.37,0,0,0-.06.32C161.05,52.75,161.36,54,161.48,54.26Zm1.25-1.49a10.66,10.66,0,0,1,5,1.36,2.12,2.12,0,0,1,.57.41,2.39,2.39,0,0,1,.21.34,3.62,3.62,0,0,0,.2.33,3.54,3.54,0,0,0,.6.62,2.58,2.58,0,0,1,.53.58,2.46,2.46,0,0,1,.23,1,4.14,4.14,0,0,0,.16.91l-.25.13a2.72,2.72,0,0,1-1.3.11,7.47,7.47,0,0,1-3.79-1.49,9.87,9.87,0,0,1-2.21-2.4l-.15-.2a2.86,2.86,0,0,1-.32-.51,11.28,11.28,0,0,1-.34-1.19Z"/><path class="cls-1" d="M9.11,149.84a23.5,23.5,0,0,0-5.39.6,3,3,0,0,0-.9.34A6.17,6.17,0,0,0,1,152.83a1.66,1.66,0,0,1-.28.41,2.24,2.24,0,0,0-.4.66.64.64,0,0,0,.06.57c.24.38.77.44,1.29.51l.3,0a4.86,4.86,0,0,0,1,.11,4.7,4.7,0,0,0,2-.44l.33-.17.27-.14a6.57,6.57,0,0,1,.61-.26,6.54,6.54,0,0,0,.94-.43,6.59,6.59,0,0,0,1.67-1.51,2.7,2.7,0,0,0,.88-1.88A.5.5,0,0,0,9.11,149.84ZM8,151.52a6.05,6.05,0,0,1-1.42,1.31,5.49,5.49,0,0,1-.81.36c-.23.09-.45.18-.68.29l-.3.15a1.59,1.59,0,0,1-.29.15,3.64,3.64,0,0,1-2.35.26l-.38,0-.35-.05.06-.08a2.66,2.66,0,0,0,.43-.67h0a5.48,5.48,0,0,1,1.45-1.57,2,2,0,0,1,.6-.2,21.53,21.53,0,0,1,4.54-.57A3.76,3.76,0,0,1,8,151.52Z"/><path class="cls-1" d="M28.7,141a2.6,2.6,0,0,0,.1-.25.48.48,0,0,1,.06-.14,1.06,1.06,0,0,1,.15-.14,1.16,1.16,0,0,0,.48-.74.73.73,0,0,0-.2-.54c-.27-.3-.76-.37-1.52-.45a4.73,4.73,0,0,1-.62-.09,7.41,7.41,0,0,0-3.4-.63c-.21,0-.44,0-.68,0h0a2.36,2.36,0,0,0-1,.27l-.25.1a1.55,1.55,0,0,0-1,1.12,1.69,1.69,0,0,0,.2,1.06,4,4,0,0,0,3.24,2.06l.44,0a6.93,6.93,0,0,0,3.19-.88A1.79,1.79,0,0,0,28.7,141Zm-.68-.93a1.62,1.62,0,0,0-.17.36.5.5,0,0,1,0,.13,1,1,0,0,1-.42.32,5.52,5.52,0,0,1-3.07.75,3,3,0,0,1-2.43-1.5.72.72,0,0,1-.11-.44.55.55,0,0,1,.38-.36l.29-.12A1.75,1.75,0,0,1,23,139h.72a6.41,6.41,0,0,1,3,.56,3.48,3.48,0,0,0,.89.15l.58.07A1.22,1.22,0,0,0,28,140.06Z"/><path class="cls-1" d="M34.86,151.54a2.14,2.14,0,0,0-1.4.06l-.2,0a6.71,6.71,0,0,0-2.19.91l-.11.06h0a3,3,0,0,0-1.61,1.78,3.68,3.68,0,0,1-.18.49,4.17,4.17,0,0,0-.25.78,3.18,3.18,0,0,1-.23.65l-.13.31a2.13,2.13,0,0,0-.13,1.42,1.3,1.3,0,0,0,1.18.93,1.45,1.45,0,0,0,.28,0,1.76,1.76,0,0,0,.61-.36l3-2.57a3.05,3.05,0,0,0,1-1.14,3.5,3.5,0,0,0,.17-.52,1.57,1.57,0,0,1,.08-.31,2.44,2.44,0,0,1,.21-.43c.07-.14.15-.29.21-.44C35.49,152.43,35.36,151.79,34.86,151.54Zm-.6,1.24c0,.12-.11.23-.17.35a3,3,0,0,0-.27.57c0,.13-.08.27-.12.4a1.53,1.53,0,0,1-.8,1.14l-3,2.56a.85.85,0,0,1-.22.16c-.06,0-.2-.08-.24-.21a1.15,1.15,0,0,1,.1-.76l.12-.29a4.25,4.25,0,0,0,.29-.85,5.26,5.26,0,0,1,.2-.6,4.1,4.1,0,0,0,.22-.61,2.13,2.13,0,0,1,1.13-1.16l.11-.06a6,6,0,0,1,1.9-.8l.23-.05a3.86,3.86,0,0,1,.66-.13A1.15,1.15,0,0,1,34.26,152.78Z"/><path class="cls-1" d="M56.13,149.26a6.11,6.11,0,0,0-3.45-.84,9.68,9.68,0,0,0-3.38.78,6.57,6.57,0,0,0-1.74,1.19c-.79.71-1.14,1.36-1,1.93a1.17,1.17,0,0,0,.81.9,4.18,4.18,0,0,0,1.64.29,11.4,11.4,0,0,0,2.18-.27,7.63,7.63,0,0,0,2.55-.84,7.06,7.06,0,0,0,1.42-1.23l1.1-1.14a.49.49,0,0,0,.14-.41A.49.49,0,0,0,56.13,149.26Zm-1.73,1.21a6.27,6.27,0,0,1-1.23,1.08,6.43,6.43,0,0,1-2.21.71,5.89,5.89,0,0,1-3.25,0c-.14,0-.2-.11-.21-.14s.16-.5.73-1h0a5.26,5.26,0,0,1,1.45-1,8.71,8.71,0,0,1,3-.71h.22a5.36,5.36,0,0,1,2.11.41Z"/><path class="cls-1" d="M48.31,163.91a2.14,2.14,0,0,1-1-.35,4.34,4.34,0,0,0-1-.41,4,4,0,0,0-1.49,0c-1.27.13-2.55.31-3.81.53a2.65,2.65,0,0,0-.81.25h0l-.11.07a3.67,3.67,0,0,0-1.28.93.49.49,0,0,0,.12.67,2.26,2.26,0,0,1,.35.34A5.49,5.49,0,0,0,41,167.33a4.79,4.79,0,0,0,2.47.76h.27A6.71,6.71,0,0,0,47,166.56l1-.71c.69-.5,1-1,.81-1.58A.49.49,0,0,0,48.31,163.91ZM47.43,165l-1,.71a5.77,5.77,0,0,1-2.76,1.33,3.77,3.77,0,0,1-2.18-.63,4.74,4.74,0,0,1-1.38-1.08l-.14-.18c.15-.1.35-.21.59-.35l.13-.07a1.76,1.76,0,0,1,.49-.13c1.23-.22,2.49-.4,3.74-.53a3.27,3.27,0,0,1,1.13,0,3.44,3.44,0,0,1,.75.33,4.57,4.57,0,0,0,.87.38Z"/><path class="cls-1" d="M69.54,148.52a8.25,8.25,0,0,0,2.57.84,3.3,3.3,0,0,0,.47,0,1.58,1.58,0,0,0,.85-.23,2.09,2.09,0,0,0,.34-.31l.11-.1a1.64,1.64,0,0,1,.83-.33A4.06,4.06,0,0,0,77,147.11h0a.92.92,0,0,0-.38-1.57,8.08,8.08,0,0,0-7.54.66,1.48,1.48,0,0,0-.42.38,1.17,1.17,0,0,0,.07,1.31A2.07,2.07,0,0,0,69.54,148.52Zm.11-1.49a7,7,0,0,1,3.85-1.13,6.79,6.79,0,0,1,2.74.56h0a3.2,3.2,0,0,1-1.22.85,5.18,5.18,0,0,1-.53.14,2.61,2.61,0,0,0-1.3.57l-.15.15a.81.81,0,0,1-.17.16,1.08,1.08,0,0,1-.63,0,7.26,7.26,0,0,1-2.25-.74,1.25,1.25,0,0,1-.44-.32.31.31,0,0,1,0-.17A.76.76,0,0,1,69.65,147Z"/><path class="cls-1" d="M100.16,152.05a11.85,11.85,0,0,1-3.37,1.75l-.88.34c-.75.31-1.54.57-2.38.85a27,27,0,0,0-3.87,1.52,4.16,4.16,0,0,1-.82.28l-.19.06-1.38-2.22a5.61,5.61,0,0,0-.87-1.13,4.46,4.46,0,0,0-3.84-.78,10,10,0,0,0-1.86.49c-.36.11-.71.23-1.07.32a5.09,5.09,0,0,0-1,.34,3.87,3.87,0,0,0-1,.68l-.38.31a4.59,4.59,0,0,0-.86.85.53.53,0,0,0-.09.39.52.52,0,0,0,.22.32,6.63,6.63,0,0,0,3.6.74,8.81,8.81,0,0,0,2-.12A9.48,9.48,0,0,0,84.7,156a7.24,7.24,0,0,0,1.56-1.05c0,.08.1.17.16.25l1.29,2.07-.06,0a2.78,2.78,0,0,1-.62.28,17.76,17.76,0,0,0-3.6,1.42,30.28,30.28,0,0,1-4,1.54L71.65,163l-.11-.07a9.62,9.62,0,0,1-2.22-1l-.56-.44a7.15,7.15,0,0,0-.77-.59l-.2-.13c0-.28.11-.56.17-.84a4.7,4.7,0,0,0,.13-2.47,4.88,4.88,0,0,0-.47-1,5.42,5.42,0,0,0-1.46-1.88.5.5,0,0,0-.55,0,3.62,3.62,0,0,0-.41,6,6.52,6.52,0,0,0,1.32.76,7.22,7.22,0,0,1,.92.48c.24.16.46.35.68.53s.41.33.62.49a8.84,8.84,0,0,0,2,1,14.2,14.2,0,0,1-1.32,3l-.36.55c-.09.12-.17.25-.25.37a5.5,5.5,0,0,0-2.31.29,3.58,3.58,0,0,0-2,1.7,5.68,5.68,0,0,0-.44,1.54,3.24,3.24,0,0,0,0,.88,2.61,2.61,0,0,1,0,.62.51.51,0,0,0,.2.49,1.22,1.22,0,0,0,.73.23,1.53,1.53,0,0,0,.54-.11,2.12,2.12,0,0,0,.71-.59,1.37,1.37,0,0,1,.2-.21,6.62,6.62,0,0,0,.71-.76c.14-.16.27-.33.47-.53a6.94,6.94,0,0,0,1-1.18,6.4,6.4,0,0,0,.43-.82c.08-.16.16-.33.25-.49a9.71,9.71,0,0,1,.54-.87c.14-.19.27-.39.39-.59a15.21,15.21,0,0,0,1.41-3.21l8-2.62a33.18,33.18,0,0,0,4.18-1.59,16.56,16.56,0,0,1,3.38-1.35,3,3,0,0,0,.87-.38,4.56,4.56,0,0,1,.56-.26l.4-.11a4.68,4.68,0,0,0,1-.36,25.54,25.54,0,0,1,3.73-1.46l.25-.08c0,2.23-.13,4.48-.29,6.71a1.74,1.74,0,0,1-.12.61.41.41,0,0,0-.19.09l-.15.13-.39.07-.38.06a5,5,0,0,0-2.74,2.13,3.9,3.9,0,0,0-.88,2,8.13,8.13,0,0,0,0,2.65.72.72,0,0,0,.09.64.83.83,0,0,0,.42.27,1.42,1.42,0,0,0,.5.08,2,2,0,0,0,1.33-.52,4.31,4.31,0,0,0,1-1.31,11.22,11.22,0,0,0,1.49-4l0-.21a2.63,2.63,0,0,1,.23-1,1.36,1.36,0,0,0,.4-.29,2.08,2.08,0,0,0,.45-1.31c.17-2.36.27-4.76.3-7.13.4-.14.8-.28,1.18-.44l.86-.34a12.61,12.61,0,0,0,3.65-1.91.5.5,0,0,0,.06-.71A.5.5,0,0,0,100.16,152.05Zm-15.94,3a8.57,8.57,0,0,1-2.3,1,8.55,8.55,0,0,1-1.76.1,7.24,7.24,0,0,1-2.51-.31l.26-.21.42-.35a3,3,0,0,1,.72-.52,4.15,4.15,0,0,1,.82-.27c.39-.1.76-.22,1.14-.34a9.85,9.85,0,0,1,1.69-.45,3.8,3.8,0,0,1,2.91.43A5.76,5.76,0,0,1,84.22,155.08ZM67,159.67c0,.2-.09.4-.13.6a5.24,5.24,0,0,1-1-.6,2.68,2.68,0,0,1-1-2.23,2.71,2.71,0,0,1,1-1.89,6.11,6.11,0,0,1,.92,1.34,2.88,2.88,0,0,1,.24,2.78Zm1.19,9.14a7.74,7.74,0,0,1-.37.7,6,6,0,0,1-.86,1c-.22.22-.38.41-.53.59a5,5,0,0,1-.6.64c-.09.08-.19.19-.29.3a2,2,0,0,1-.32.33l-.1,0c0-.15,0-.29,0-.42a2.61,2.61,0,0,1,0-.62,4.58,4.58,0,0,1,.34-1.26,2.59,2.59,0,0,1,1.43-1.21,4.06,4.06,0,0,1,1.4-.25Zm24.56-3.68,0,.2A10.27,10.27,0,0,1,91.34,169a3.27,3.27,0,0,1-.73,1,1.2,1.2,0,0,1-.68.3,1,1,0,0,0,0-.17,7.07,7.07,0,0,1,0-2.42,2.91,2.91,0,0,1,.67-1.45,4.2,4.2,0,0,1,2.15-1.76h0C92.78,164.72,92.76,164.93,92.74,165.13Z"/><path class="cls-1" d="M111.09,161.4c-.4,0-.5,0-.53-.09a1.09,1.09,0,0,0-.24-.26.87.87,0,0,0-.44-.14,8.46,8.46,0,0,0-2.14,0,3.82,3.82,0,0,0-2.07,1l-.31.32a2.89,2.89,0,0,1-.72.61.5.5,0,0,0-.27.35.49.49,0,0,0,.11.42,2.38,2.38,0,0,0,1.74.58h.14a6.54,6.54,0,0,0,1.75-.35,16.06,16.06,0,0,0,3.26-1.5.5.5,0,0,0-.28-.93Zm-3.29,1.47a5.34,5.34,0,0,1-1.47.31,2.57,2.57,0,0,1-.49,0c.09-.08.17-.17.25-.25a3.58,3.58,0,0,1,.27-.29,2.9,2.9,0,0,1,1.54-.7,7.88,7.88,0,0,1,1.89,0l0,0a.39.39,0,0,0,.08.1A15.21,15.21,0,0,1,107.8,162.87Zm2-1-.1-.06.4-.3Z"/><path class="cls-1" d="M120.13,153.75l-.19,0a7.16,7.16,0,0,0-1.77-.19l-2-.06a3.06,3.06,0,0,0-1.38.23,3.26,3.26,0,0,0-1,.66,4.57,4.57,0,0,1-.49.38,2.08,2.08,0,0,1-.36.2,5.14,5.14,0,0,0-.5.28,1.52,1.52,0,0,0-.83,1.09.51.51,0,0,0,.22.45,6.26,6.26,0,0,0,6.62.18l.17-.1a2.46,2.46,0,0,1,.6-.31l.21,0a1.72,1.72,0,0,0,.67-.21,2,2,0,0,0,.45-.39l.23-.16c.44-.29.93-.62.85-1.13S121.05,153.94,120.13,153.75Zm.15,1.14a2.4,2.4,0,0,0-.44.36,1.15,1.15,0,0,1-.19.16,1.27,1.27,0,0,1-.32.09,1.59,1.59,0,0,0-.3.06,3,3,0,0,0-.87.41l-.16.1a5.37,5.37,0,0,1-5.13.1l.2-.13a2.88,2.88,0,0,1,.38-.22,3.25,3.25,0,0,0,.45-.25,3.88,3.88,0,0,0,.6-.47,2.75,2.75,0,0,1,.69-.49,2.25,2.25,0,0,1,1-.15l2,0a7.91,7.91,0,0,1,1.55.16l.23.05.45.11Z"/><path class="cls-1" d="M95.68,144.58l.16-.06a5.83,5.83,0,0,0,3.46-2.26l.08-.11a1.57,1.57,0,0,1,.31-.41,1.35,1.35,0,0,0,.37-.52,1.41,1.41,0,0,0,.06-.15,1.59,1.59,0,0,0,.54-1.31,1.51,1.51,0,0,1,0-.3,1.69,1.69,0,0,0,0-.86.5.5,0,0,0-.6-.32,12,12,0,0,0-2.77,1.15,22.8,22.8,0,0,0-2.81,2,3.44,3.44,0,0,0-.75.73h0c-.13.18-1,2-.34,2.65A.94.94,0,0,0,94,145,5.19,5.19,0,0,0,95.68,144.58Zm-1.14-1.87a2.48,2.48,0,0,1,.55-.51,22.78,22.78,0,0,1,2.68-1.9,11.28,11.28,0,0,1,1.91-.86,1.45,1.45,0,0,0,0,.36.65.65,0,0,1-.17.49,1.43,1.43,0,0,0-.34.5c0,.06-.07.16-.05.15a2.11,2.11,0,0,0-.57.68l-.07.1a5,5,0,0,1-2.94,1.86l-.19.07a9.21,9.21,0,0,1-1.22.38A4,4,0,0,1,94.54,142.71Z"/><path class="cls-1" d="M105.36,144.72a6.73,6.73,0,0,0,1.53.67,3,3,0,0,0,.94.2h.06a2.58,2.58,0,0,0,1.23-.43,3.21,3.21,0,0,1,.37-.18c.65-.31,1.45-.7,1.55-1.4a1.16,1.16,0,0,0-.49-1.05,4.92,4.92,0,0,0-3.07-.8l-.71,0a3.19,3.19,0,0,0-2.25.39,1.09,1.09,0,0,0-.38.46,1.08,1.08,0,0,0,0,.75A2.78,2.78,0,0,0,105.36,144.72Zm.71-2.07.61,0h0c.23,0,.49,0,.76,0a4.19,4.19,0,0,1,2.45.55,1.22,1.22,0,0,1,.16.17c-.07.18-.74.51-1,.63a3.27,3.27,0,0,0-.42.21,1.84,1.84,0,0,1-.79.3,2,2,0,0,1-.63-.14,6.58,6.58,0,0,1-1.33-.57,1.68,1.68,0,0,1-.78-1A1.63,1.63,0,0,1,106.07,142.65Z"/><path class="cls-1" d="M121,138.13l-.85.05a4.64,4.64,0,0,0-2.65,1c-1,.8-2.48,2-2.12,4.05a.52.52,0,0,0,.21.33,1.74,1.74,0,0,0,.93.27,2.3,2.3,0,0,0,.63-.1,4,4,0,0,0,1.17-.65,30.31,30.31,0,0,0,3.45-2.92,2.21,2.21,0,0,0,.7-1.41.6.6,0,0,0-.13-.46C122.09,138.05,121.74,138.08,121,138.13Zm.07,1.34a29.2,29.2,0,0,1-3.34,2.82,3,3,0,0,1-.88.5.94.94,0,0,1-.52,0c-.1-1.2.73-2,1.8-2.84a3.58,3.58,0,0,1,2-.8l.9-.05.28,0A1.36,1.36,0,0,1,121.05,139.47Z"/><path class="cls-1" d="M142.6,153.74a4,4,0,0,1-.83-.27,2.82,2.82,0,0,0-.62-.2,8.14,8.14,0,0,0-4.79.84,7.2,7.2,0,0,0-1.55.82,7.59,7.59,0,0,0-1.51,1.67.57.57,0,0,0-.08.42.51.51,0,0,0,.28.33,6.34,6.34,0,0,0,2.67.59,6.41,6.41,0,0,0,3.27-.9,8.52,8.52,0,0,0,1.53-1.2,4.84,4.84,0,0,0,1-1.22l.38.09a.5.5,0,1,0,.22-1Zm-2.31,1.37a7.82,7.82,0,0,1-1.36,1.07,5.46,5.46,0,0,1-4.43.49,5.07,5.07,0,0,1,.91-.94,6.7,6.7,0,0,1,1.33-.7,7.25,7.25,0,0,1,4.2-.78l.1,0A4.32,4.32,0,0,1,140.29,155.11Z"/><path class="cls-1" d="M124.38,57.85a2.65,2.65,0,0,1-1.31-.79,6.24,6.24,0,0,1-.12-2.28c0-.38.1-.52.32-.69a.7.7,0,0,0,.34-.75c-.11-.33-.59-.48-.71-.5a8.22,8.22,0,0,0-2.16,0,1,1,0,0,0-.92.56.9.9,0,0,0,.09.78A4.23,4.23,0,0,0,122,55.44c0,.44,0,.88,0,1.32v.48a.36.36,0,0,0,.06.2,8,8,0,0,1-1.15,1.24.25.25,0,0,0,0,.35.27.27,0,0,0,.36,0,8.17,8.17,0,0,0,1.34-1.51.25.25,0,0,0,.12,0h.09l0,0a3.15,3.15,0,0,0,1.45.79c.14,0,.37.08.39.16a.24.24,0,0,0,.31.17.24.24,0,0,0,.17-.31C125.06,58,124.66,57.91,124.38,57.85Zm-3.84-4.1a.12.12,0,0,1,0-.1s0-.06.31-.09a6.54,6.54,0,0,1,.89-.06c.18,0,.35,0,.52,0a11.2,11.2,0,0,0-.17,1.14A3.68,3.68,0,0,1,120.54,53.75Z"/><path class="cls-1" d="M127.3,51h.13a4.12,4.12,0,0,0,.76-.14l.26-.07a4.65,4.65,0,0,0,1.78-1.17l.33-.71a1.48,1.48,0,0,0,0-1.14.38.38,0,0,0-.38-.25,14.86,14.86,0,0,0-2.87.53.31.31,0,0,0-.13,0l-.16,0a4,4,0,0,0-.79.28,4.61,4.61,0,0,0-1,.73l-.25.22a.62.62,0,0,0-.27.46.66.66,0,0,0,.32.49,3.14,3.14,0,0,0,.8.51,3.42,3.42,0,0,0,1.28.2Zm2.58-2.41-.31.67a5.21,5.21,0,0,1-1.29.8l-.29.07-.17,0a9.27,9.27,0,0,1,0-1.49,14.82,14.82,0,0,1,2.07-.4A.48.48,0,0,1,129.88,48.59Zm-4.31,1.21.12-.11a4.31,4.31,0,0,1,.85-.62,1.16,1.16,0,0,1,.28-.1,10.9,10.9,0,0,0,0,1.28,2.32,2.32,0,0,1-.75-.14A2.25,2.25,0,0,1,125.57,49.8Z"/><path class="cls-1" d="M124.45,47.58a.3.3,0,0,0,.13,0,3.92,3.92,0,0,0,1.23-.83,4.52,4.52,0,0,1,.8-.6,1.54,1.54,0,0,0,.38-.28.91.91,0,0,0,.17-.67.39.39,0,0,0-.41-.34.38.38,0,0,0-.34.41s0,.13,0,.1a1.22,1.22,0,0,1-.26.16,5.69,5.69,0,0,0-.87.66,3.17,3.17,0,0,1-1,.69.37.37,0,0,0,.13.72Z"/><path class="cls-1" d="M118.07,46.73A6.08,6.08,0,0,0,120,48a.32.32,0,0,0,.13,0,.37.37,0,0,0,.35-.24.36.36,0,0,0-.22-.48,5.61,5.61,0,0,1-1.67-1.15c-.3-.26-.6-.53-.94-.78a.38.38,0,0,0-.52.08.37.37,0,0,0,.08.53A10.65,10.65,0,0,1,118.07,46.73Z"/><path class="cls-1" d="M119.69,49.47a.87.87,0,0,0-.44-.09c-.07,0-.18-.16-.26-.27L118.9,49a2.05,2.05,0,0,0-1-.72,2.43,2.43,0,0,0-.77-.11,7.14,7.14,0,0,0-1.13,0,3.94,3.94,0,0,0-1.31.34.37.37,0,0,0-.15.44,10.27,10.27,0,0,0,.66,1.49,3.23,3.23,0,0,0,2.51,1.24,2.42,2.42,0,0,0,.38,0,1.69,1.69,0,0,0,.6-.18,2.07,2.07,0,0,0,.5-.41l.48-.47a1.09,1.09,0,0,0,.28-.41A.64.64,0,0,0,119.69,49.47Zm-4.34-.4A4.72,4.72,0,0,1,116,49c.16,0,.32,0,.49,0-.11.3-.2.58-.28.86l-.18.52a2.83,2.83,0,0,1-.3-.3A7,7,0,0,1,115.35,49.07Zm3.28,1.51a2,2,0,0,1-.33.27.86.86,0,0,1-.34.1,2.26,2.26,0,0,1-1-.12l.24-.75c.11-.35.23-.71.37-1.1h.08a1.39,1.39,0,0,1,.66.47l.07.1a1.26,1.26,0,0,0,.71.55Z"/><path class="cls-1" d="M135.28,51.59a.38.38,0,0,0-.53,0,3,3,0,0,1-1.2.63c-2.32.77-4.71,1.57-7.1,2.23a.37.37,0,0,0-.26.46.36.36,0,0,0,.36.27h.1c2.41-.66,4.81-1.47,7.13-2.24a3.58,3.58,0,0,0,1.52-.83A.38.38,0,0,0,135.28,51.59Z"/><path class="cls-1" d="M134.1,55.08a.38.38,0,0,0-.11.36h-.12a16.5,16.5,0,0,1-2.53-.05,2,2,0,0,0-.69,0,1.77,1.77,0,0,0-.46.19l-.22.11a2.35,2.35,0,0,1-1.09,0,2.25,2.25,0,0,0-1.73.22.38.38,0,0,0,.22.68.41.41,0,0,0,.22-.07,1.68,1.68,0,0,1,1.18-.09,2.9,2.9,0,0,0,1.46,0,2.09,2.09,0,0,0,.3-.14,1.38,1.38,0,0,1,.29-.13,1.47,1.47,0,0,1,.47,0,17.77,17.77,0,0,0,2.63.05,1.1,1.1,0,0,0,.59-.18.71.71,0,0,0,.27-.48.57.57,0,0,0-.15-.44A.38.38,0,0,0,134.1,55.08Z"/><path class="cls-1" d="M135.06,35.81a.15.15,0,0,0,.09,0,.25.25,0,0,0,.23-.16.22.22,0,0,0,0-.14v0a.28.28,0,0,0-.15-.2v0a2.11,2.11,0,0,0-.09-.49.33.33,0,0,0-.3-.27.32.32,0,0,0-.25.08.62.62,0,0,0-.09.82A1.07,1.07,0,0,0,135.06,35.81Z"/><path class="cls-1" d="M132.63,39.2a1.28,1.28,0,0,0,.3.07l.18,0a1.24,1.24,0,0,1,.24.16l.17.14a.83.83,0,0,0,.47.16.54.54,0,0,0,.38-.14.26.26,0,0,0,.08-.21.28.28,0,0,0-.12-.19.63.63,0,0,0-.22-.07.71.71,0,0,0,0-.65.2.2,0,0,1,0-.07l0,0a.47.47,0,0,0,.54,0,.25.25,0,0,0,0-.35,1.07,1.07,0,0,0-.26-.19.42.42,0,0,1-.14-.09,1.35,1.35,0,0,1,0-.53s.05-.07.09-.1a.76.76,0,0,0,.33-.53,2.24,2.24,0,0,0-.05-.59.69.69,0,0,0-.28-.44.37.37,0,0,0-.31,0,.5.5,0,0,0-.31.38l-.2.66a.74.74,0,0,1-.1.22l-.12,0a.65.65,0,0,0-.33.1.69.69,0,0,0-.25.39,1.81,1.81,0,0,0,0,.77s0,.12,0,.12h0l-.09,0a.54.54,0,0,0-.36.19.4.4,0,0,0-.07.38A.58.58,0,0,0,132.63,39.2Z"/><path class="cls-1" d="M114.88,40.48l.82-.65a.16.16,0,0,0,0-.11.25.25,0,0,0-.12-.19.33.33,0,0,0-.32,0,.64.64,0,0,0-.19.13l-.09.07a.16.16,0,0,1-.12,0s0,0,0-.07a.32.32,0,0,0,0-.13.47.47,0,0,0-.18-.21l-.06,0a.29.29,0,0,1,0-.32.64.64,0,0,1,.1-.13l.1-.12a.48.48,0,0,0,.08-.33,1.09,1.09,0,0,0,.25-.23.11.11,0,0,0,0-.16.12.12,0,0,0-.17,0l-.29.23h0l-.05,0-.23.19,0,0,0,0a.86.86,0,0,1-.26-.9,1.13,1.13,0,0,1,.13-.2.65.65,0,0,0,.19-.58.16.16,0,0,0-.1-.08l-.3-.06s-.09-.18-.12-.26a.71.71,0,0,0-.13-.29.11.11,0,0,0-.1,0,.14.14,0,0,0-.09,0,4,4,0,0,0-.5,1,1.63,1.63,0,0,0,0,1.33.11.11,0,0,0,.11.07,1.87,1.87,0,0,1,.4.07V40.4a.27.27,0,0,0,.23.31,3.15,3.15,0,0,0,.43,0,1,1,0,0,0,.4-.08A1.57,1.57,0,0,0,114.88,40.48Z"/><path class="cls-1" d="M209,169.11a14.68,14.68,0,0,0-4.61-1.64l-.87-.2A63.09,63.09,0,0,1,193,163.71a45.6,45.6,0,0,1-11.68-7.41,50.25,50.25,0,0,1-4.46-4.64c-.68-.76-1.35-1.52-2-2.25-.32-.34-.65-.67-1-1a2.37,2.37,0,0,0-.27-.28,11.11,11.11,0,0,1-3.22-4.52c-.89-3,.1-6.18,1.06-9.3.2-.66.41-1.33.59-2a19.72,19.72,0,0,0,.74-9,23.9,23.9,0,0,0-1.4-4.21l-.71-1.78c-1-2.44-2-5-3.05-7.44-2-4.61-2.49-10.64-2.92-16-.09-1-.17-2-.25-3,0-.51-.09-1-.13-1.53a16.45,16.45,0,0,0-1.37-6.56,13.42,13.42,0,0,0-1-1.58c-.21-.28-.41-.56-.6-.85-3.49-5.35-7.84-9-13.32-12.81a4,4,0,0,1-1.17-1.06,3.57,3.57,0,0,1-.37-1q-.32-1.43-.6-2.85A36.73,36.73,0,0,0,143.26,54c-.38-.79-.69-1.47-1-2.1a30.94,30.94,0,0,0-1.72-3.47l-.42-.73a20.48,20.48,0,0,0-2.05-3.14,2.36,2.36,0,0,0,0-1.51,2.83,2.83,0,0,1-.07-.36c-.15-1-.22-1.89-.29-2.76s-.15-1.79-.3-2.81-.31-2.09-.57-3.19a15.62,15.62,0,0,0-1.18-3.68.5.5,0,0,0-.85-.08c-.52.7-1,1.4-1.53,2.09-1.35,1.86-2.74,3.77-4.26,5.58a1.25,1.25,0,0,1-.31.3,1.4,1.4,0,0,1-.6.11,46.35,46.35,0,0,1-4.7-.06,5.88,5.88,0,0,0-3.52.49l-.26.17c-.25.16-.49.32-.66.29s-.37-.31-.5-.49a60.26,60.26,0,0,0-6.84-8,.56.56,0,0,0-.43-.24.79.79,0,0,0-.7.76v1.17c0,1,0,2,0,2.95,0,.81.14,1.66.23,2.5s.18,1.65.23,2.45a5.83,5.83,0,0,0,.25,1.56l.09.26a1.59,1.59,0,0,1,.14.5,1.8,1.8,0,0,1-.19.59,15.21,15.21,0,0,0-1.11,8.7c0,.09,0,.17,0,.25a2.06,2.06,0,0,1-1.45-.28.38.38,0,0,0-.53.06.37.37,0,0,0,0,.52,2.94,2.94,0,0,0,2.09.45,8.54,8.54,0,0,0,1.24,2.82,2.87,2.87,0,0,0-.54.2,1.19,1.19,0,0,1-.51.19.8.8,0,0,1-.26,0,1.75,1.75,0,0,0-.32,0,.84.84,0,0,0-.88.51.39.39,0,0,0,.22.49l.13,0a.35.35,0,0,0,.34-.25.34.34,0,0,1,.15,0l.22,0a2.5,2.5,0,0,0,.42,0,2,2,0,0,0,.84-.27,1.23,1.23,0,0,1,.52-.19h0a1.08,1.08,0,0,1,.19,0c.06.06.1.13.16.19a10.24,10.24,0,0,0,1.77,1.62,6.4,6.4,0,0,0-.91.22,7.87,7.87,0,0,0-1.58.86l-.34.24a1.85,1.85,0,0,1-1,.48.38.38,0,0,0,0,.75h0a2.58,2.58,0,0,0,1.41-.62l.32-.23a6.55,6.55,0,0,1,1.42-.77,5.32,5.32,0,0,1,.81-.2c.24,0,.48-.1.71-.16l.25.15a11.46,11.46,0,0,0-.51,1.92c-.06.28-.12.58-.2.9a7.77,7.77,0,0,1-.22.77,8.39,8.39,0,0,0-.36,1.46,31.4,31.4,0,0,0-.29,4.88c0,.13,0,.19,0,.2l-.11,0a7,7,0,0,1-4-.92A15.94,15.94,0,0,1,106.76,66l-.43-.38c-1.42-1.27-2.8-2.46-4.19-3.65S99.38,59.56,98,58.29a16.33,16.33,0,0,1-3-3.48A14.61,14.61,0,0,1,94,53a3.74,3.74,0,0,0,1.21-5c-.08-.16-.27-.55-.15-.71l.19-.13a1.5,1.5,0,0,0,.48-1.2,4.43,4.43,0,0,0-1.9-3.64,7.48,7.48,0,0,0-1.19-4.58,2.18,2.18,0,0,0,1.06-2.18,4.74,4.74,0,0,0-1.5-2.46,2.61,2.61,0,0,0,.51-2A3.25,3.25,0,0,0,91.53,29a6.08,6.08,0,0,0,.27-3,1.84,1.84,0,0,0-.2-.55,4.74,4.74,0,0,0,1.65-1.7A2.9,2.9,0,0,0,93,20.4l-.1-.1a.94.94,0,0,1-.15-.17,1.13,1.13,0,0,1,.23-.34,1.74,1.74,0,0,0,.47-1A3,3,0,0,0,92.68,17l-.26-.37a3.86,3.86,0,0,1,.15-.45,2.83,2.83,0,0,0,.28-1.69,10.6,10.6,0,0,0-.51-1.62,2.65,2.65,0,0,1-.11-1.19A7.08,7.08,0,0,0,92,9.44l0-.15a6.68,6.68,0,0,0-.38-1,3.67,3.67,0,0,1-.39-1.16c0-3.29-.56-5.52-1.68-6.62a.49.49,0,0,0-.38-.14.5.5,0,0,0-.36.18,10.75,10.75,0,0,0-1.64,3c-.13.31-.26.63-.4,1C86.18,5.65,85.62,6.76,85,7.93l-.29.58a3.19,3.19,0,0,0-1,.13,1.4,1.4,0,0,0-.43-.41,1.31,1.31,0,0,0-1-.14,2.55,2.55,0,0,0-1.13.73l-.1-.09A2.12,2.12,0,0,0,79.5,8a1.46,1.46,0,0,0-1.08.5,34.76,34.76,0,0,0-2-3.24l-.39-.61c-.32-.5-.73-1.08-1.14-1.66A16.8,16.8,0,0,1,73.3.4.49.49,0,0,0,72.92,0a.51.51,0,0,0-.51.19c-.55.75-1.16,1.61-1.71,2.39-.67,1-1.36,1.94-1.6,2.18A2.06,2.06,0,0,0,68.45,6a.53.53,0,0,0,0,.22,1.27,1.27,0,0,0,.41.55l.1.09.15.13a.83.83,0,0,1,.14.13l0,0-.15.07a3,3,0,0,0-.34.2,1.51,1.51,0,0,0-.49,1.66,1.56,1.56,0,0,0,.58.78L69,10a.9.9,0,0,1,.24.27c0,.12-.1.38-.36.6L68.8,11a2.14,2.14,0,0,0-.87,1.25,1.64,1.64,0,0,0,.58,1.42,2.48,2.48,0,0,0-.7.57,1.37,1.37,0,0,0-.23,1.46,2.14,2.14,0,0,0,.38.5,2.59,2.59,0,0,1,.37.56,4.25,4.25,0,0,1-.44.09,2.44,2.44,0,0,0-1.06.34,1.86,1.86,0,0,0-.73,1.17,3.12,3.12,0,0,0,.41,2.37,3.07,3.07,0,0,0-2.27,1,3.49,3.49,0,0,0-.84,2.13,2.32,2.32,0,0,0-1.68.06,2.92,2.92,0,0,0-1.44,1.44A2.41,2.41,0,0,0,58,24.43a1.81,1.81,0,0,0-1.19,1.32,2.89,2.89,0,0,0-2.19-.54c-.68.11-1.2.82-1.61,1.39l-.21.29a2.45,2.45,0,0,0-2.66-.11,3.57,3.57,0,0,0-1.47,1.78.73.73,0,0,0-.32,0,2.55,2.55,0,0,0-1.92,1.09,2.11,2.11,0,0,0-.18,1.51s0,.08,0,.13a3.14,3.14,0,0,0-2.51,1.11,2.53,2.53,0,0,0-.33,2.41,3.22,3.22,0,0,0-1.66.8A2.3,2.3,0,0,0,41,37.51c0,.2.07.4.11.61.12.51.18.85,0,1l0,0c-.93-2-2-4.08-3.1-6.16a1.92,1.92,0,0,0,.71-1.13,2.56,2.56,0,0,0,.05-.62,1.71,1.71,0,0,1,.07-.55,1.84,1.84,0,0,1,.27-.35,2.94,2.94,0,0,0,.35-.44,2.8,2.8,0,0,0,.32-.78,2.8,2.8,0,0,1,.09-.31,4.35,4.35,0,0,1,.52-.93,7.21,7.21,0,0,0,.52-.91,5.91,5.91,0,0,0,.34-1A5.76,5.76,0,0,1,41.5,25a5.41,5.41,0,0,1,.68-1,5.36,5.36,0,0,0,.88-1.37,5.19,5.19,0,0,0,.28-1.68c0-.67,0-1.35,0-2a4.3,4.3,0,0,0-.15-1.29,2.6,2.6,0,0,0-.93-1.43.76.76,0,0,0-1.15.4l-.12.3a13.9,13.9,0,0,0-.86,2.6,5.07,5.07,0,0,0-.11,1.43,4.66,4.66,0,0,0,.57,1.56,4.26,4.26,0,0,1,.46,1.19s0,.05,0,.07a4.78,4.78,0,0,0-.49.79,5.17,5.17,0,0,0-.37,1.11,7,7,0,0,1-.29.88,6.15,6.15,0,0,1-.45.77,5.43,5.43,0,0,0-.62,1.14l-.12.37a2.18,2.18,0,0,1-.19.53,2.31,2.31,0,0,1-.24.29,2.31,2.31,0,0,0-.45.62,2.37,2.37,0,0,0-.16.95,3.1,3.1,0,0,1,0,.43,1,1,0,0,1-.23.42l-.82-1.55c-.73-1.36-1.46-2.72-2.15-4.05a1.12,1.12,0,0,0-.1-.16c0-.22,0-.59,0-.89l0-.4a10.81,10.81,0,0,0-.61-4.32,12,12,0,0,0-1.57-3.22.47.47,0,0,0-.39-.22.46.46,0,0,0-.41.19c-.65.81-2.12,3-1.78,5.24a4.48,4.48,0,0,0,.66,1.61,6.86,6.86,0,0,0,3.1,2.43.46.46,0,0,0,.16.21q1,2,2.15,4.06c1.52,2.84,3.07,5.76,4.35,8.49a2.2,2.2,0,0,0-1,1.55,2.42,2.42,0,0,0,.12,1.29c-1,.1-2,.27-2.23,1a1.92,1.92,0,0,0,.7,2.07h0l-.12.13a1.75,1.75,0,0,0-1.84,1.17,2.51,2.51,0,0,0,.48,2.7A5.11,5.11,0,0,0,34,52.66a3.7,3.7,0,0,0,.47,2.8A2.91,2.91,0,0,0,33,57.77a2.06,2.06,0,0,0,1.17,1.94,6.33,6.33,0,0,0-1.7,2.67,1.82,1.82,0,0,0,.5,1.71,2.14,2.14,0,0,0,1.21.62,4.4,4.4,0,0,1-.31.41c-.41.5-.87,1.07-.66,1.73a1.3,1.3,0,0,0,.49.64,2.54,2.54,0,0,0,1.6.52,3.54,3.54,0,0,0-.13,3.41,2.08,2.08,0,0,0,.81.75,3.25,3.25,0,0,0-.75,2,2.38,2.38,0,0,0,.69,1.69,2.61,2.61,0,0,0,.27.22.94.94,0,0,0-.09.12.54.54,0,0,0-.21-.15,2.49,2.49,0,0,0-2.45.62,6.4,6.4,0,0,0-1.29,1.87C31.39,80,30.37,82,30.5,84L30,84a.37.37,0,0,0-.35.37,77.07,77.07,0,0,0,.42,8.86.34.34,0,0,0,.19.29c.44.24.89.46,1.35.67.19,2.77.58,5.6,1,8.34l0,.14c.14,1,.37,2,.6,3,.14.61.29,1.21.4,1.81.2,1,.32,2,.45,3.06s.24,2,.43,3a9,9,0,0,1,.11,1.07,9.3,9.3,0,0,0,.13,1.17c.17.89.41,1.74.64,2.56a24.11,24.11,0,0,1,.74,3.24c.54,4.17,1.06,8.11,1.88,12.09a26.64,26.64,0,0,0,.77,2.76,24.61,24.61,0,0,1,.79,2.86.42.42,0,0,0,.22.28c.72.31,1.42.64,2.12,1a27,27,0,0,0,5.89,2.23c.43.09.93.16,1.43.23s1,.13,1.38.22,3.09.21,3.38.21.76,0,1.14,0c.85,0,1.7,0,2.54,0l1.71,0a65.51,65.51,0,0,0,12.32-1.14l.41-.08a10.65,10.65,0,0,0,2.09-.56c.55-.22,2.61-.75,3.08-.86a13.76,13.76,0,0,0,2-.69c.39-.16.79-.32,1.18-.45a2,2,0,0,0,.87-.47,2.06,2.06,0,0,0,.45-1.28c.22-2.08.49-4.11.74-6.08s.52-4,.74-6.1a10.8,10.8,0,0,0,0-1.16,9.18,9.18,0,0,1,0-1.07c.21-2,.4-3.95.58-5.94.31-3.31.63-6.73,1.06-10,.2-1.55.47-3.06.74-4.53.18-1,.37-2,.53-3l.07-.41a29.39,29.39,0,0,0,.54-7.38.4.4,0,0,0-.12-.23,3.4,3.4,0,0,0,.69-1,5.85,5.85,0,0,0,.27-3.07c-.19-1.89-.45-4.46-2-6.23v-.19c0-.2,0-.39,0-.58a5,5,0,0,0-.35-2.08A2.38,2.38,0,0,0,84,77.49a3.64,3.64,0,0,0,0-1.88,2,2,0,0,0,1.23-1.33A5.71,5.71,0,0,0,85.46,72,1.68,1.68,0,0,0,87,70.91a3.06,3.06,0,0,0,.1-1.74,2.1,2.1,0,0,0,1.65-1.27,3.56,3.56,0,0,0,0-1.78h0a2.33,2.33,0,0,0,1.77-.85,3.39,3.39,0,0,0,.72-1.74,1.26,1.26,0,0,0,.7-.24,2.28,2.28,0,0,0,.58-.73l.11-.19a2.36,2.36,0,0,1,.6-.62l2,2.92a74.46,74.46,0,0,0,5.24,7.16,41.45,41.45,0,0,0,8.46,7.44c.41.28.85.56,1.3.82,0,0,0,0,0,0a13.81,13.81,0,0,0,.68,1.64,23.53,23.53,0,0,1-5.17-2.42c-.58-.33-1.15-.66-1.74-1a12.8,12.8,0,0,0-1.46-.62c-.34-.13-.68-.25-1-.4a17.86,17.86,0,0,1-3-2.06,6.79,6.79,0,0,1-2.06-2.47A16.06,16.06,0,0,0,94,69.47c-1.35-1.37-2.62-1.94-3.9-1.75a1.91,1.91,0,0,0-1.28.93,1.61,1.61,0,0,0-.14,1.41,1.31,1.31,0,0,1,0,.25,1.74,1.74,0,0,0,.13.55,8.46,8.46,0,0,0,1.06,1.81,8.46,8.46,0,0,1,.89,1.42,31,31,0,0,0,1.82,3,7.34,7.34,0,0,0,.77.89,26.77,26.77,0,0,0,4.26,3.3l1.34.91c.25.18.52.42.8.66a11.34,11.34,0,0,0,1,.83,8.12,8.12,0,0,0,1.27.69,6.28,6.28,0,0,1,1.37.82l.46.36A15.56,15.56,0,0,1,105.5,87a10.39,10.39,0,0,0,2.55,1.87c.8.47,1.59,1,2.4,1.46,1.59,1,3.23,2,5.16,3,.4,1.53.78,3.08,1,4.63a56.92,56.92,0,0,1,.87,6.63c0,.7.13,1.4.21,2.09s.19,1.7.22,2.54a64.69,64.69,0,0,0,1.35,11.08l.19.9a30.15,30.15,0,0,0,1.24,4.71,8,8,0,0,0,.93,1.65,8.93,8.93,0,0,1,.79,1.31,32.4,32.4,0,0,0,5.92,8.51c1,1,2.06,2.06,3.07,3.06l1,1a8.81,8.81,0,0,1-3.88.38l-.19,0a3.58,3.58,0,0,0-1.31,0,1.19,1.19,0,0,0-1,1.21c0,.13,0,.27,0,.42s0,.39,0,.42a2.45,2.45,0,0,1-.64.27,4,4,0,0,0-.64.27,1.29,1.29,0,0,0-.59,1,2.71,2.71,0,0,0,.93,2,4.64,4.64,0,0,0,2.71,1,176.44,176.44,0,0,0,18.79,1.52c.92,0,1.9,0,2.91,0a23.84,23.84,0,0,0,9-1.37,4.82,4.82,0,0,0,1.67-1.17,14.06,14.06,0,0,1,2.6,2c.55.56,1.09,1.23,1.62,1.87s1,1.16,1.45,1.68,1,.95,1.47,1.37.76.65,1.14,1a39,39,0,0,0,3,2.57c.61.49,1.22,1,1.79,1.48l.83.74a21.91,21.91,0,0,0,5.11,3.75c5.3,2.61,11.13,5.16,15.61,7.09,2.82,1.22,7.67,3,11.38,3a8.9,8.9,0,0,0,1.84-.18,3.09,3.09,0,0,0,2.32-2.55A2.58,2.58,0,0,0,209,169.11ZM41.05,20.83a3.91,3.91,0,0,1,.09-1.14A14,14,0,0,1,42,17.27v0a2.26,2.26,0,0,1,.31.66,3.64,3.64,0,0,1,.1,1c0,.66,0,1.31,0,2a4.22,4.22,0,0,1-.21,1.36,2.53,2.53,0,0,1-.28.51c-.1-.24-.22-.48-.34-.72A3.81,3.81,0,0,1,41.05,20.83ZM33.45,25l0,.37c0,.08,0,.17,0,.25a5.33,5.33,0,0,1-2.19-1.8,3.42,3.42,0,0,1-.54-1.26,5.8,5.8,0,0,1,1.15-3.9A12.74,12.74,0,0,1,32.9,21,9.72,9.72,0,0,1,33.45,25ZM203.28,170.88l.23.07a.28.28,0,0,1-.21,0l-.11-.06Zm-27.34-10.77ZM81.33,82.81a2.15,2.15,0,0,0,.68-.44,3.18,3.18,0,0,0,.53.44l.11.07a.83.83,0,0,1,.24.18,1.23,1.23,0,0,1,0,.63,2.57,2.57,0,0,0,.35,1.81,13.68,13.68,0,0,1-4.1,2.8,37,37,0,0,1-11.61,3.17,51.65,51.65,0,0,1-10.52.4c-.82-.07-1.63-.05-2.4,0a17.06,17.06,0,0,1-3-.11,14.2,14.2,0,0,1-1.84-.47,13.12,13.12,0,0,0-2.14-.52c-.46-.06-.93-.08-1.4-.11a13.56,13.56,0,0,1-1.72-.16c-2.66-.49-7.4-1.53-9.32-3.06L34.76,87c-1-.75-1.69-1.3-1.77-2.28a8.84,8.84,0,0,1,.71-1.58A16.77,16.77,0,0,1,35.83,81l.81-.7.12-.11a.42.42,0,0,0,.16,0,2.6,2.6,0,0,0,.86.26,3,3,0,0,0,.9,2.39.49.49,0,0,0,.28.13,10.22,10.22,0,0,0,2.39-.22,3.21,3.21,0,0,0,2.11,1.92,4.19,4.19,0,0,0,1.71-.07,4.48,4.48,0,0,1,1.08-.1l0,.12a7.16,7.16,0,0,0,1.45,2.62c.72.65,2.4.41,3.52,0a2.59,2.59,0,0,0,2.08,2.1c2.28.26,3,.09,3.46-.67l.07.13a2.6,2.6,0,0,0,.55.73,2.65,2.65,0,0,0,2.08.49,3.53,3.53,0,0,0,1.86-.92,3.36,3.36,0,0,0,1.09.91,2.46,2.46,0,0,0,1.1.26,2,2,0,0,0,1.15-.35,1.51,1.51,0,0,0,.5-.81c0-.09.08-.24.08-.26.22-.06.52.11.85.3a3.84,3.84,0,0,0,.39.22,3.2,3.2,0,0,0,2.61,0,3.14,3.14,0,0,0,1.32-1,2.61,2.61,0,0,0,1.65.61,1.66,1.66,0,0,0,1.42-.77c.15-.24.44-.72.7-1.2a2.36,2.36,0,0,0,1.65.43,3.54,3.54,0,0,0,2.06-1.09,3,3,0,0,0,.6-.84A1.66,1.66,0,0,0,80,85.39a2.49,2.49,0,0,0,.48-.43,3.41,3.41,0,0,0,.82-1.2A1.83,1.83,0,0,0,81.33,82.81Zm4.2,16.53-.07.41c-.16,1-.35,2-.53,3-.27,1.47-.54,3-.75,4.56-.43,3.3-.74,6.73-1.05,10q-.28,3-.58,5.93a8.71,8.71,0,0,0,0,1.16,9,9,0,0,1,0,1.07c-.22,2.07-.48,4.11-.73,6.08s-.52,4-.74,6.1a1.47,1.47,0,0,1-.25.84,1.51,1.51,0,0,1-.57.28c-.41.14-.81.3-1.22.47a15.09,15.09,0,0,1-1.89.65c-.41.1-2.55.64-3.18.89a10.23,10.23,0,0,1-2,.53l-.42.08a65.51,65.51,0,0,1-12.18,1.12l-1.73,0c-1.19,0-2.42.08-3.62,0s-2.9-.12-3.25-.2-.94-.16-1.44-.23-1-.13-1.37-.22a26.6,26.6,0,0,1-5.73-2.18l-2-.89a28.56,28.56,0,0,0-.77-2.76,26.55,26.55,0,0,1-.76-2.68c-.81-4-1.32-7.88-1.87-12a22.78,22.78,0,0,0-.76-3.35c-.23-.81-.46-1.64-.62-2.5a8.91,8.91,0,0,1-.12-1.08,9.32,9.32,0,0,0-.12-1.16c-.19-1-.31-2-.43-3s-.25-2.11-.45-3.11c-.12-.62-.26-1.23-.41-1.84-.22-.94-.45-1.92-.59-2.89v-.14c-.36-2.59-.72-5.27-.92-7.89,1.45.63,2.93,1.17,4.39,1.68a76.92,76.92,0,0,0,14.67,4.14,39.81,39.81,0,0,0,5.72.4c8.42,0,17.58-2.5,27.33-7.47a11.39,11.39,0,0,0,1.54-.92A30.2,30.2,0,0,1,85.53,99.34Zm0-15.88a4.21,4.21,0,0,0,.09-.62,12.25,12.25,0,0,1,1.24,5,5.21,5.21,0,0,1-.2,2.69,5.06,5.06,0,0,1-2.51,2.07c-11.85,6-22.82,8.4-32.59,7a77,77,0,0,1-14.53-4.1C35.5,95,33.89,94.4,32.34,93.7a.37.37,0,0,0-.37-.26.29.29,0,0,0-.1,0c-.35-.16-.7-.32-1-.5a78.05,78.05,0,0,1-.4-8.23h.18a.5.5,0,0,0,.44.28h.09a.49.49,0,0,0,.4-.47.36.36,0,0,0,.08-.24.41.41,0,0,0-.11-.24c-.16-1.64.59-3.27,1.53-5.07a5.55,5.55,0,0,1,1.07-1.59A1.54,1.54,0,0,1,35.56,77h.08a2.6,2.6,0,0,0-.09,1.56,2.49,2.49,0,0,0,.51.93l-.08.06-.81.71a15.81,15.81,0,0,0-2.32,2.4A9.5,9.5,0,0,0,32,84.52a.47.47,0,0,0,0,.17c.07,1.49,1.09,2.28,2.17,3.11l.5.39c2,1.58,6.4,2.64,9.76,3.25a13,13,0,0,0,1.85.18c.44,0,.89,0,1.33.1a12.06,12.06,0,0,1,2,.49,15.08,15.08,0,0,0,2,.5,18.33,18.33,0,0,0,3.12.12c.75,0,1.52,0,2.3,0C58,93,59,93,60.13,93a59.82,59.82,0,0,0,7.56-.53A37.79,37.79,0,0,0,79.61,89.2C83.08,87.52,85,85.64,85.57,83.46ZM84.4,79.14a4.1,4.1,0,0,1,.26,1.67c0,.2,0,.4,0,.61a7.46,7.46,0,0,1-.08,1.8A4.75,4.75,0,0,1,84,84.66a2.62,2.62,0,0,1,0-.88,1.79,1.79,0,0,0-.21-1.31,1.75,1.75,0,0,0-.53-.44L83.08,82a2.31,2.31,0,0,1-.51-.48,5.22,5.22,0,0,0,.26-1.86,2,2,0,0,0-.3-1,2.75,2.75,0,0,0,.69-.27.51.51,0,0,0,.17,0A1.19,1.19,0,0,1,84.4,79.14Zm7.43-17.3-.13.22a1.4,1.4,0,0,1-.31.43s-.11,0-.1.08a.49.49,0,0,0-.55-.27.5.5,0,0,0-.4.48,3,3,0,0,1-.53,1.85,1.23,1.23,0,0,1-1.43.39.48.48,0,0,0-.55,0,.5.5,0,0,0-.18.52,4.21,4.21,0,0,1,.18,2,1.11,1.11,0,0,1-1.23.6.51.51,0,0,0-.51.14.5.5,0,0,0-.1.51,2.47,2.47,0,0,1,.11,1.73.8.8,0,0,1-1,.39.5.5,0,0,0-.64.52,5.78,5.78,0,0,1-.16,2.45c-.32.81-.66.82-1,.76a.49.49,0,0,0-.53.24.5.5,0,0,0,.06.58,2.31,2.31,0,0,1,.2,1.8c0,.13-.33.37-1.66.54a.51.51,0,0,0-.44.47.51.51,0,0,0,.38.51,1,1,0,0,1,.54.82A4.94,4.94,0,0,1,81.69,81h0a.47.47,0,0,0-.24.51.91.91,0,0,1-.77.39.51.51,0,0,0-.51.27.5.5,0,0,0,.08.57.71.71,0,0,1,.07.68,2.71,2.71,0,0,1-.59.85,1.46,1.46,0,0,1-.3.27.68.68,0,0,1-.86-.16.5.5,0,0,0-.61-.16.5.5,0,0,0-.28.56c.07.33-.28.73-.44.88a2.62,2.62,0,0,1-1.46.81,1.25,1.25,0,0,1-1.23-.56.49.49,0,0,0-.48-.27.5.5,0,0,0-.44.32,12.58,12.58,0,0,1-.94,1.74.64.64,0,0,1-.58.3,1.71,1.71,0,0,1-1.34-.74.48.48,0,0,0-.48-.22.49.49,0,0,0-.41.34,1.89,1.89,0,0,1-1.11,1.09,2.2,2.2,0,0,1-1.78,0l-.34-.19A2,2,0,0,0,65,87.9a1.2,1.2,0,0,0-.74.89,1.08,1.08,0,0,1-.14.32,1.25,1.25,0,0,1-1.23,0,3.14,3.14,0,0,1-.87-.78l-.3-.33a.5.5,0,0,0-.4-.16.53.53,0,0,0-.38.23,2.39,2.39,0,0,1-1.59,1,1.66,1.66,0,0,1-1.3-.28,2,2,0,0,1-.3-.44c-.21-.38-.5-.9-1.09-.94a.49.49,0,0,0-.5.31l-.07.16c-.21.56-.29.77-2.63.51a1.8,1.8,0,0,1-1.28-1.8.5.5,0,0,0-.71-.45c-1.1.5-2.73.63-3,.35a6.67,6.67,0,0,1-1.19-2.23c-.06-.18-.12-.33-.16-.43a.52.52,0,0,0-.35-.28,4.29,4.29,0,0,0-1.73.06,3.3,3.3,0,0,1-1.32.07c-.76-.16-1.28-1-1.58-1.71a.51.51,0,0,0-.59-.29,10.83,10.83,0,0,1-2.27.29A2.07,2.07,0,0,1,38.86,80a.5.5,0,0,0-.11-.48.48.48,0,0,0-.45-.16,1.58,1.58,0,0,1-.85-3,.52.52,0,0,0,.31-.56.5.5,0,0,0-.5-.41.83.83,0,0,1-.63-.28,1.37,1.37,0,0,1-.4-1,2.81,2.81,0,0,1,1-1.89.52.52,0,0,0,.13-.54.53.53,0,0,0-.44-.33,1.07,1.07,0,0,1-.87-.43,2.49,2.49,0,0,1,.59-3,.5.5,0,0,0-.29-.85,5.91,5.91,0,0,0-.82,0,1.86,1.86,0,0,1-1.22-.31.62.62,0,0,1-.16-.16c0-.15.27-.54.48-.8a2.11,2.11,0,0,0,.71-1.63.51.51,0,0,0-.21-.32.47.47,0,0,0-.38-.08,1.18,1.18,0,0,1-1.08-.33.84.84,0,0,1-.23-.79,6.22,6.22,0,0,1,2-2.73.49.49,0,0,0-.25-.88c-.63-.08-1.25-.47-1.22-1.18s.66-1.57,1.33-1.6a.5.5,0,0,0,.32-.87,2.61,2.61,0,0,1-.7-2.49A3.94,3.94,0,0,1,37.28,50a.51.51,0,0,0,.33-.42.5.5,0,0,0-.24-.48,1.55,1.55,0,0,1-.74-2c.15-.35.45-.66.8-.56s.86-.3,1.09-.59c0-.06.08-.11,0-.09a.48.48,0,0,0,.28-.34.52.52,0,0,0-.11-.43l-.33-.37c-.47-.51-.62-.7-.49-1.05s1.29-.33,1.72-.37l.55-.06a.5.5,0,0,0,.42-.36.51.51,0,0,0-.18-.53,1.16,1.16,0,0,1-.35-1.14,1.31,1.31,0,0,1,.47-.81c.38.86.74,1.7,1,2.5a.49.49,0,0,0,.46.33.39.39,0,0,0,.18,0,.49.49,0,0,0,.29-.64c-.31-.81-.67-1.65-1-2.51a1.41,1.41,0,0,0,.24-.13,1.83,1.83,0,0,0,.35-2,4.59,4.59,0,0,1-.1-.51,1.36,1.36,0,0,1,.53-1.08,1.94,1.94,0,0,1,1.6-.54.51.51,0,0,0,.49-.17.52.52,0,0,0,.08-.52c-.41-.95-.44-1.65-.08-2.09a2.12,2.12,0,0,1,2-.7.52.52,0,0,0,.43-.11,1.23,1.23,0,0,0,.24-1.2,1.24,1.24,0,0,1,0-.82,1.56,1.56,0,0,1,1.08-.64h0c.13,0,.15,0,.17.06a.5.5,0,0,0,.49.22.52.52,0,0,0,.41-.36,3,3,0,0,1,1.22-1.8,1.37,1.37,0,0,1,1.71.21.5.5,0,0,0,.29.19c.48.11.79-.31,1.18-.85.26-.35.69-1,1-1a1.76,1.76,0,0,1,1.73.66.51.51,0,0,0,.42.22c.51,0,.67-.49.79-.85s.26-.76.54-.83c.46-.11.91.29,1.5.87l.39.38a.53.53,0,0,0,.51.1.49.49,0,0,0,.32-.4,2,2,0,0,1,1.1-1.52,1.52,1.52,0,0,1,1.52.25.52.52,0,0,0,.55,0,.53.53,0,0,0,.24-.5A2.76,2.76,0,0,1,65,22.39a2.08,2.08,0,0,1,1.56-.68.82.82,0,0,0,.61-.05.87.87,0,0,0,.49-.71,1.17,1.17,0,0,0-.27-.75,2.09,2.09,0,0,1-.3-1.63.92.92,0,0,1,.32-.57,1.57,1.57,0,0,1,.65-.18,2,2,0,0,0,1.27-.55.48.48,0,0,0,.1-.46,3.25,3.25,0,0,0-.71-1.3l-.07-.07a1.73,1.73,0,0,1-.15-.19.41.41,0,0,1,.11-.4,2.18,2.18,0,0,1,.65-.47.74.74,0,0,0,.43-1,.72.72,0,0,0-.25-.3c-.16-.13-.54-.47-.5-.76s.29-.42.53-.63l.11-.1a1.54,1.54,0,0,0,.65-1.7,1.61,1.61,0,0,0-.54-.68,1.68,1.68,0,0,0-.21-.18c-.17-.14-.21-.17-.26-.33a.49.49,0,0,1,.15-.54,1,1,0,0,1,.17-.1A1,1,0,0,0,69.75,8a1.25,1.25,0,0,0,.58-.92,1.21,1.21,0,0,0-.55-.86l-.1-.09L69.53,6l0,0a1.35,1.35,0,0,1,.33-.47,25.49,25.49,0,0,0,1.71-2.31c.38-.55.8-1.14,1.2-1.69.31.52.79,1.21,1.4,2.08.4.57.8,1.14,1.12,1.64l.39.6A31.6,31.6,0,0,1,78,9.85a.5.5,0,0,0,.94-.1c.15-.67.39-.74.63-.75s.44.1.9.49l.47.4a.52.52,0,0,0,.67,0l.16-.16a2.21,2.21,0,0,1,.83-.63.24.24,0,0,1,.2,0,.49.49,0,0,1,.21.32.52.52,0,0,0,.31.34.5.5,0,0,0,.46-.05,1.85,1.85,0,0,1,1.15-.16.5.5,0,0,0,.57-.26l.44-.9c.6-1.18,1.16-2.3,1.7-3.48.15-.33.28-.66.42-1a11.3,11.3,0,0,1,1.11-2.23,11,11,0,0,1,1,5.45,4,4,0,0,0,.48,1.57,5.91,5.91,0,0,1,.31.82l0,.14a6,6,0,0,1,.24,1.9,3.64,3.64,0,0,0,.19,1.64,10.13,10.13,0,0,1,.46,1.47,2.1,2.1,0,0,1-.24,1.1,2.12,2.12,0,0,0-.21.86,1.8,1.8,0,0,0,.44.9,2.28,2.28,0,0,1,.57,1.23c0,.09-.14.26-.26.4a1.36,1.36,0,0,0-.39,1.28,1.46,1.46,0,0,0,.39.56l.08.08a1.93,1.93,0,0,1,.11,2.17,4.54,4.54,0,0,1-2,1.73.5.5,0,0,0,.31.93.69.69,0,0,1,.09.23A5,5,0,0,1,90.44,29a.47.47,0,0,0,0,.4.55.55,0,0,0,.3.28,2,2,0,0,1,1,1.52,1.62,1.62,0,0,1-.59,1.52.49.49,0,0,0-.19.42.46.46,0,0,0,.23.4,3.75,3.75,0,0,1,1.53,2.14c.09.55-.25,1-1,1.42a.53.53,0,0,0-.26.34.51.51,0,0,0,.1.41,6.49,6.49,0,0,1,1.28,4.64A.49.49,0,0,0,93,43a3.43,3.43,0,0,1,1.68,2.93c0,.32-.08.41-.19.48a1.68,1.68,0,0,0-.26.19c-.58.56-.18,1.38,0,1.82a2.77,2.77,0,0,1-.76,3.66,6.44,6.44,0,0,0-.71-1.12,4.87,4.87,0,0,0-2.44-1.59.21.21,0,0,0,0-.08l-.13-.9a.38.38,0,1,0-.75.11l.13.84a1.2,1.2,0,0,0-.39.21,4,4,0,0,0-.48.44s0,0-.06,0a2.25,2.25,0,0,0-1-1.1.38.38,0,0,0-.5.16.37.37,0,0,0,.16.51,1.55,1.55,0,0,1,.73.84.53.53,0,0,0,.21.29l0,0a1.08,1.08,0,0,0-.08.19,5,5,0,0,1-1.06-.58.38.38,0,0,0-.53.09.37.37,0,0,0,.09.52,5.42,5.42,0,0,0,1.39.73,2.9,2.9,0,0,0,0,.64,10,10,0,0,0,.74,2.48c.2.41.38.85.56,1.3a17,17,0,0,0,1.29,2.64,3.69,3.69,0,0,0,.77.8,2.66,2.66,0,0,1,.56.55l.62.93A3.39,3.39,0,0,0,91.83,61.84ZM111,89.44,108.55,88a10.27,10.27,0,0,1-2.32-1.68,14.82,14.82,0,0,0-1.68-1.48l-.45-.36a7.55,7.55,0,0,0-1.57-.94,8.75,8.75,0,0,1-1.15-.62,9.69,9.69,0,0,1-.92-.76c-.31-.26-.61-.52-.89-.72l-1.35-.92a26.6,26.6,0,0,1-4.11-3.17,6.65,6.65,0,0,1-.66-.76,30.59,30.59,0,0,1-1.75-2.93,9.66,9.66,0,0,0-1-1.56,7.68,7.68,0,0,1-1-1.62,1.43,1.43,0,0,1,0-.26,2.06,2.06,0,0,0-.11-.5.63.63,0,0,1,.08-.54.87.87,0,0,1,.56-.45c.95-.15,1.91.32,3,1.46a14.28,14.28,0,0,1,2.34,3.13A7.8,7.8,0,0,0,98,76.09a19.56,19.56,0,0,0,3.2,2.17c.33.15.69.29,1,.43a10.85,10.85,0,0,1,1.33.56c.59.32,1.16.64,1.72,1a21.65,21.65,0,0,0,6.3,2.73c.25.41.51.82.8,1.21a14.56,14.56,0,0,1,1.11,1.71,9.06,9.06,0,0,1,.72,2.13c.27,1,.56,2.1.84,3.15.08.27.15.55.22.82C113.7,91.11,112.31,90.27,111,89.44Zm47.2,58.16c-3.56,1.45-7.94,1.34-11.46,1.24A174.57,174.57,0,0,1,128,147.33a3.84,3.84,0,0,1-2.16-.73,1.78,1.78,0,0,1-.61-1.19.29.29,0,0,1,.14-.23,2.91,2.91,0,0,1,.42-.16c.51-.18,1-.36,1.2-.79a1.91,1.91,0,0,0,.09-.91c0-.11,0-.21,0-.3,0-.25,0-.26.22-.29a2.62,2.62,0,0,1,1,0l.2,0a10,10,0,0,0,4.81-.57h0c.48.48.94.94,1.35,1.39a.5.5,0,0,0,.54.13.53.53,0,0,0,.33-.46,4.37,4.37,0,0,1,.15-1l.06-.29a17.18,17.18,0,0,1,2.45,2.54.51.51,0,0,0,.87-.19,9.76,9.76,0,0,0,.37-1.36A9.74,9.74,0,0,1,141,144.8a.5.5,0,0,0,.91-.26,3.69,3.69,0,0,1,.45-1.56,6.86,6.86,0,0,1,2,2.06.49.49,0,0,0,.47.27.52.52,0,0,0,.44-.31,4.3,4.3,0,0,1,.87-1.21,6.9,6.9,0,0,1,.53.71,5.25,5.25,0,0,0,1,1.21.5.5,0,0,0,.77-.18,6.45,6.45,0,0,1,1.38-1.52,2.14,2.14,0,0,1,.21.25l.22.25c.33.33.59.62.86.91s.54.59.87.93a.49.49,0,0,0,.66.05,8.86,8.86,0,0,0,.67-.62,8.91,8.91,0,0,1,1.48-1.28,7,7,0,0,1,2.64,1.19c.29.18.56.35.83.5l1.08.62A3.66,3.66,0,0,1,158.18,147.6Zm15.75,11c-.58-.51-1.2-1-1.82-1.51-1-.79-2-1.6-2.9-2.5-.26-.27-.53-.5-.79-.73a2,2,0,0,0-.66-1.15c-.14-.12-.28-.24-.43-.35a5.11,5.11,0,0,1-.54-.48,1.83,1.83,0,0,1-.42-.86.37.37,0,0,0-.73.06l-.42-.5c-.54-.66-1.1-1.33-1.67-1.92a14.93,14.93,0,0,0-2.91-2.26.51.51,0,0,0-.15-.21.49.49,0,0,0-.33-.09c-.44-.27-.91-.54-1.4-.81-.26-.14-.52-.31-.79-.48a7.59,7.59,0,0,0-3.08-1.33c-.59-.06-1.28.58-2.28,1.56l-.24.24-.52-.56-.87-.94-.17-.19a2,2,0,0,0-.85-.72.5.5,0,0,0-.46.08,10.7,10.7,0,0,0-1.59,1.55c-.15-.18-.28-.39-.43-.59a5.29,5.29,0,0,0-1-1.22.5.5,0,0,0-.62,0,5.25,5.25,0,0,0-1.08,1.15,11.81,11.81,0,0,0-2.31-2,.52.52,0,0,0-.4-.08.49.49,0,0,0-.33.23,6.91,6.91,0,0,0-.64,1.34,9.87,9.87,0,0,0-1.86-1.73.5.5,0,0,0-.55,0,.51.51,0,0,0-.24.5,2.86,2.86,0,0,1-.1,1.15,13,13,0,0,0-2.74-2.51.5.5,0,0,0-.77.41,5,5,0,0,1-.15,1l0,.09c-.77-.79-1.62-1.62-2.51-2.49s-2.06-2-3.05-3a31.14,31.14,0,0,1-5.73-8.24,10.49,10.49,0,0,0-.87-1.45,7.53,7.53,0,0,1-.83-1.45,29.44,29.44,0,0,1-1.19-4.55l-.19-.91a63.59,63.59,0,0,1-1.33-10.9c0-.89-.13-1.77-.23-2.62-.08-.68-.15-1.36-.2-2.05a58.54,58.54,0,0,0-.88-6.73c-.28-1.59-.67-3.17-1.08-4.73a.47.47,0,0,0-.08-.3c-.16-.62-.33-1.23-.49-1.84-.29-1-.57-2.09-.84-3.13a9.68,9.68,0,0,0-.82-2.37,15.68,15.68,0,0,0-1.18-1.83,13.19,13.19,0,0,1-.79-1.21.51.51,0,0,0-.09-.16,14,14,0,0,1-.71-1.39,9.83,9.83,0,0,0,2.49.82h.09a.49.49,0,0,0,.49-.42.5.5,0,0,0-.4-.58,12.64,12.64,0,0,1-4.75-2.19,40.55,40.55,0,0,1-8.25-7.26,75.2,75.2,0,0,1-5.17-7.07l-3.13-4.67a4.24,4.24,0,0,0-.75-.77,2.34,2.34,0,0,1-.57-.56,16,16,0,0,1-1.2-2.49c-.19-.46-.38-.91-.58-1.33a8.67,8.67,0,0,1-.67-2.24,1.59,1.59,0,0,1,.75-1.79l.11,0a3.83,3.83,0,0,1,2,1.29,8.59,8.59,0,0,1,1,1.79,17.28,17.28,0,0,0,1.07,2A17.48,17.48,0,0,0,97.3,59c1.42,1.27,2.81,2.46,4.19,3.65s2.76,2.37,4.18,3.63l.42.38a16.28,16.28,0,0,0,3,2.31,7.75,7.75,0,0,0,4.63,1,1.2,1.2,0,0,0,.6-.24,1.21,1.21,0,0,0,.34-1,31,31,0,0,1,.28-4.75,7.72,7.72,0,0,1,.33-1.27c.09-.3.18-.58.24-.84s.14-.64.2-.94a11.44,11.44,0,0,1,.41-1.63,20.48,20.48,0,0,0,2.14.94,17.69,17.69,0,0,0,6.44,1.33A9.8,9.8,0,0,0,131,59.53c.26-.23.63-.53.84-.46a.44.44,0,0,0,.39,0l.24.11.57.24a8.36,8.36,0,0,0,1.86.65h.07a.38.38,0,0,0,.37-.31.38.38,0,0,0-.3-.44,7.68,7.68,0,0,1-1.7-.6l-.58-.25-.26-.11-.14-.07a.56.56,0,0,0-.2-.14,1.43,1.43,0,0,0-.35-.06l-.11,0-.4-.13L128.68,57a5.07,5.07,0,0,0-1.45-.31.38.38,0,0,0-.41.34.39.39,0,0,0,.35.41,4,4,0,0,1,1.25.27l2.25.82c-.13.09-.25.19-.36.28a8.78,8.78,0,0,1-5.64,1.9,16.77,16.77,0,0,1-6.07-1.26,22.62,22.62,0,0,1-2.39-1.07.49.49,0,0,0-.14-.11l.31-.22a3.9,3.9,0,0,1,1.09-.63.38.38,0,0,0,.24-.47.38.38,0,0,0-.47-.25,4.51,4.51,0,0,0-1.3.75,7.36,7.36,0,0,1-.62.41,10.06,10.06,0,0,1-2-1.67l.09-.07a1.08,1.08,0,0,1,.63,0,6.33,6.33,0,0,0,3.31-.67.37.37,0,1,0-.33-.66,5.8,5.8,0,0,1-3,.58,1.63,1.63,0,0,0-1.06.18l-.13.11a8.11,8.11,0,0,1-1.1-1.88c-.1-.26-.19-.54-.27-.83a12.71,12.71,0,0,1,1.62.26l1.22.24,2.42.48h.08a.38.38,0,0,0,.07-.75l-2.45-.48-1.2-.24a13.33,13.33,0,0,0-1.94-.27l-.09-.41a14.28,14.28,0,0,1,1.06-8.17,2.3,2.3,0,0,0,.26-1,2.37,2.37,0,0,0-.21-.88l-.08-.21a5.51,5.51,0,0,1-.19-1.3c0-.82-.14-1.66-.24-2.5s-.17-1.65-.23-2.46,0-1.93,0-2.87v-.43a59.34,59.34,0,0,1,6.16,7.27,1.55,1.55,0,0,0,2.52.44l.23-.14a5.29,5.29,0,0,1,3-.35,46.45,46.45,0,0,0,4.72.06,2.21,2.21,0,0,0,1.06-.24,2.33,2.33,0,0,0,.58-.53c1.54-1.83,2.94-3.76,4.3-5.63l1-1.39a19.06,19.06,0,0,1,.78,2.76c.24,1,.39,2,.54,3s.22,1.89.29,2.76.15,1.79.3,2.82c0,.13,0,.28.09.44.11.46.17.8,0,1a.5.5,0,0,0,0,.68,18.09,18.09,0,0,1,2.19,3.27l.43.74a31,31,0,0,1,1.67,3.38c.28.63.59,1.32,1,2.13a35,35,0,0,1,2.47,8.52c.2,1,.39,1.91.61,2.87a4.51,4.51,0,0,0,.48,1.34,5.1,5.1,0,0,0,1.48,1.38c5.37,3.74,9.63,7.3,13,12.52.2.3.42.6.63.89a12.41,12.41,0,0,1,.95,1.45,15.76,15.76,0,0,1,1.27,6.17q0,.78.12,1.56c.09.93.17,1.91.25,2.93.43,5.39.93,11.5,3,16.27,1.07,2.46,2.07,5,3.05,7.41l.71,1.78a24.22,24.22,0,0,1,1.34,4,18.77,18.77,0,0,1-.72,8.54c-.18.64-.38,1.3-.59,2-1,3.26-2,6.62-1.06,9.88a9.83,9.83,0,0,0,2.41,3.85l-.14,0a.83.83,0,0,0-.45.43,1.46,1.46,0,0,0-.08.56v.11a1.08,1.08,0,0,1,0,.18l-.12,0a4,4,0,0,0-1.12.48.36.36,0,0,0-.42-.24.38.38,0,0,0-.29.44,1,1,0,0,0,.7.7l.26.15.07.09a.16.16,0,0,1,0,.07,4.45,4.45,0,0,0,.26.43.75.75,0,0,0,.07.12,2.51,2.51,0,0,0,.56.61l.22.23a2,2,0,0,0,.3.24,2,2,0,0,1,.23.28.36.36,0,0,0,.32.18.41.41,0,0,0,.19-.05.38.38,0,0,0,.18-.28h0a.63.63,0,0,1,.36,0,.87.87,0,0,0,.34.09h0a.85.85,0,0,0,.61-.34l.25-.29a.67.67,0,0,0,.17-.32.74.74,0,0,0-.07-.48l-.26-.55a1.07,1.07,0,0,0,.42-.22c.57.62,1.13,1.25,1.7,1.89a49.78,49.78,0,0,0,4.56,4.74c.35.31.72.61,1.08.91a1.4,1.4,0,0,1-.45,0,2.23,2.23,0,0,1-1.08-.63.35.35,0,0,0-.28-.09.38.38,0,0,0-.26.14,2,2,0,0,0-.42,1.23,4.49,4.49,0,0,1-.64,0,.37.37,0,0,0-.3.1.35.35,0,0,0-.12.29v.16l-.09,0a1.1,1.1,0,0,0-.77-.07.62.62,0,0,0-.35.34,1,1,0,0,0,0,.17l-.13,0-.12-.07a1.14,1.14,0,0,0-.84-.2.36.36,0,0,0-.24.18.39.39,0,0,0,0,.28.52.52,0,0,0-.16.22l-.62-.55Zm5.34,4.13a.45.45,0,0,0,.06-.12,2.7,2.7,0,0,0,0-.28,1,1,0,0,1,0-.29,1.08,1.08,0,0,1,.29.16,1.34,1.34,0,0,0,.87.32l.12,0a.72.72,0,0,0,.35-.77.54.54,0,0,1,0-.18c0-.05.12-.13.31-.16a1.66,1.66,0,0,1,.22,0,1.84,1.84,0,0,0,.7-.17.94.94,0,0,0,.48-.65,1.11,1.11,0,0,0,.52-.2.72.72,0,0,0,.27-.49,1.25,1.25,0,0,0,0-.33l.08-.08h0a46.42,46.42,0,0,0,9,5.18c.35.16.71.3,1.06.45a1.17,1.17,0,0,0-.08.37.68.68,0,0,1-.28.44.36.36,0,0,1-.29.07.37.37,0,0,0-.4.15.38.38,0,0,0,0,.42.24.24,0,0,1,0,.29.26.26,0,0,1-.33,0c-.14-.11-.56-.45-.91-.09a.37.37,0,0,0-.1.33l-.11,0a1.25,1.25,0,0,0-.25.09,1.46,1.46,0,0,0-.38.29l-.14.12h0a.83.83,0,0,1-.16.09.88.88,0,0,0-.19.1c-3.32-1.47-6.92-3.11-10.31-4.78C179.52,162.91,179.4,162.83,179.27,162.76Zm15.43,7.06h0a.65.65,0,0,0,0-.44l-.09-.32a2.83,2.83,0,0,1,1-.08.4.4,0,0,0,.34-.14.42.42,0,0,0,.06-.36l0,0h0a.37.37,0,0,0,.37-.57l.14-.11a.62.62,0,0,0,.41-.22.38.38,0,0,0,0-.45.41.41,0,0,0-.43-.16l-.2.08-.15-.05-1.39-.55a.48.48,0,0,1-.16-.07.58.58,0,0,1,0-.21c0-.21,0-.42,0-.63a64.78,64.78,0,0,0,8.59,2.75l.88.21.24.06a1.48,1.48,0,0,0-.08.13,1.29,1.29,0,0,0,0,.58s0,.09,0,.13h0a.73.73,0,0,0-.58.12.41.41,0,0,0-.19.32h-.13a.8.8,0,0,0-.67.15.38.38,0,0,0-.12.36.66.66,0,0,0,.23.36,1.35,1.35,0,0,0-.93.07.43.43,0,0,0-.2.24.47.47,0,0,0,0,.31.26.26,0,0,1-.15.14,1.29,1.29,0,0,1-.68-.06h0a.39.39,0,0,0-.44.18.8.8,0,0,0,0,.42,49.37,49.37,0,0,1-5.14-1.91Zm13.12,3a8.2,8.2,0,0,1-2.15.15,1.12,1.12,0,0,0,.05-.22l.15-.77a1.47,1.47,0,0,1,.15-.5.26.26,0,0,1,.28-.14.88.88,0,0,0,.43,0,.67.67,0,0,0,.38-.34.87.87,0,0,0,0-.69,1.64,1.64,0,0,0-.16-.29,1.2,1.2,0,0,1-.12-.21.24.24,0,0,1,.06-.2.23.23,0,0,1,.19-.1.38.38,0,0,0,.32-.13,6.47,6.47,0,0,1,1,.54c.37.24,1,.72,1,1.28A2.11,2.11,0,0,1,207.82,172.85Z"/><path class="cls-1" d="M134.4,80.78l-.09-.09a3.94,3.94,0,0,1-.55-.63.92.92,0,0,1-.17-.7.38.38,0,0,0-.27-.46.38.38,0,0,0-.46.28,1.65,1.65,0,0,0,.27,1.28,4,4,0,0,0,.65.76l.09.09a14.62,14.62,0,0,1,1.57,1.85,1.27,1.27,0,0,1,.3.62.37.37,0,0,0,.37.35h0a.37.37,0,0,0,.35-.4,2,2,0,0,0-.44-1A15.33,15.33,0,0,0,134.4,80.78Z"/><path class="cls-1" d="M140.63,81.52a.41.41,0,0,0,.3.14.34.34,0,0,0,.23-.08.38.38,0,0,0,.07-.52,19.92,19.92,0,0,1-2.73-4.26.37.37,0,0,0-.69.29A20.57,20.57,0,0,0,140.63,81.52Z"/><path class="cls-1" d="M143.17,76.48l.13.14a4.75,4.75,0,0,1,.6,1c.07.15.14.29.22.44a3.75,3.75,0,0,0,.64.8,3.52,3.52,0,0,1,.67.87.38.38,0,0,0,.67-.34,4.05,4.05,0,0,0-.8-1.05,2.81,2.81,0,0,1-.52-.64l-.21-.41a5.59,5.59,0,0,0-.71-1.15l-.14-.15a1.19,1.19,0,0,1-.29-.39.37.37,0,1,0-.71.24A2,2,0,0,0,143.17,76.48Z"/><path class="cls-1" d="M147.55,74.9l.2.19a3.74,3.74,0,0,1,1,1.19.37.37,0,0,0,.34.22.47.47,0,0,0,.16,0,.37.37,0,0,0,.17-.5,4.3,4.3,0,0,0-1.14-1.42l-.2-.19a5.85,5.85,0,0,1-.92-1.21.37.37,0,1,0-.66.34A6.09,6.09,0,0,0,147.55,74.9Z"/><path class="cls-1" d="M138.83,97.56a3.55,3.55,0,0,1-.74-1.46.37.37,0,0,0-.41-.34.38.38,0,0,0-.34.4,4.19,4.19,0,0,0,.94,1.91,10.78,10.78,0,0,1,2.49,3.5.38.38,0,0,0,.34.23.4.4,0,0,0,.15,0,.37.37,0,0,0,.2-.49A11.58,11.58,0,0,0,138.83,97.56Z"/><path class="cls-1" d="M145.55,98.76a.47.47,0,0,0,.17,0,.39.39,0,0,0,.17-.51,38.07,38.07,0,0,0-3.3-5.35.38.38,0,1,0-.61.45,36.57,36.57,0,0,1,3.24,5.24A.36.36,0,0,0,145.55,98.76Z"/><path class="cls-1" d="M151.23,95.34a.42.42,0,0,0,.21-.06.37.37,0,0,0,.11-.51,20.16,20.16,0,0,1-1.11-2c-.28-.56-.56-1.14-.94-1.78-.09-.15-.22-.33-.36-.53-.27-.38-.69-1-.66-1.25a.38.38,0,0,0-.75-.07,3,3,0,0,0,.8,1.76,4.62,4.62,0,0,1,.33.47c.36.62.64,1.18.9,1.73a22.18,22.18,0,0,0,1.16,2.12A.37.37,0,0,0,151.23,95.34Z"/><path class="cls-1" d="M153.5,89.54a3,3,0,0,0,.31.45.68.68,0,0,0,.12.12l.1.11a2.55,2.55,0,0,1,.2.34l.83,1.66a.36.36,0,0,0,.33.21.35.35,0,0,0,.17,0,.38.38,0,0,0,.17-.5l-.83-1.66a2.59,2.59,0,0,0-.3-.49,1.07,1.07,0,0,0-.14-.16l-.09-.09a1.48,1.48,0,0,1-.21-.32,14,14,0,0,1-1.17-2.7.37.37,0,0,0-.46-.25.38.38,0,0,0-.25.47A14.65,14.65,0,0,0,153.5,89.54Z"/><path class="cls-1" d="M159.34,88.73a.38.38,0,0,0,.22-.07.37.37,0,0,0,.07-.53,2.75,2.75,0,0,1-.38-1.24,4.46,4.46,0,0,0-.29-1.17,4.81,4.81,0,0,0-.54-.88l-.29-.39a1.35,1.35,0,0,1-.25-1.06.38.38,0,0,0-.22-.48.39.39,0,0,0-.48.23,2,2,0,0,0,.32,1.71l.31.44a4.28,4.28,0,0,1,.47.73,4.64,4.64,0,0,1,.23,1,3.24,3.24,0,0,0,.53,1.57A.36.36,0,0,0,159.34,88.73Z"/><path class="cls-1" d="M146.2,109.81l-.28-.44a7.87,7.87,0,0,1-.63-1.07.37.37,0,0,0-.49-.19.38.38,0,0,0-.19.5,8.94,8.94,0,0,0,.68,1.17c.09.14.19.28.27.43a18.88,18.88,0,0,1,1.28,2.59.38.38,0,0,0,.34.23l.15,0a.39.39,0,0,0,.2-.5A19.75,19.75,0,0,0,146.2,109.81Z"/><path class="cls-1" d="M152.63,111a.34.34,0,0,0,.14,0,.38.38,0,0,0,.22-.48l-.46-1.23a5,5,0,0,1-.3-1,2.74,2.74,0,0,1,0-.28,4.51,4.51,0,0,0-.1-.53,4.08,4.08,0,0,0-.33-.79l-.68-1.37a.38.38,0,0,0-.51-.16.36.36,0,0,0-.16.5l.68,1.37a3.36,3.36,0,0,1,.28.65,3.25,3.25,0,0,1,.08.43c0,.11,0,.22.05.33a6.33,6.33,0,0,0,.33,1.07l.46,1.22A.38.38,0,0,0,152.63,111Z"/><path class="cls-1" d="M155.4,103.6a.38.38,0,0,0-.46-.27.37.37,0,0,0-.26.46,52.63,52.63,0,0,0,1.67,5.21.39.39,0,0,0,.35.25.35.35,0,0,0,.14,0,.37.37,0,0,0,.21-.48C156.42,107.06,155.86,105.33,155.4,103.6Z"/><path class="cls-1" d="M160.06,103.94c-.1-.3-.2-.59-.27-.89a5.22,5.22,0,0,1-.16-1.36.38.38,0,0,0-.38-.37.36.36,0,0,0-.37.37,6.18,6.18,0,0,0,.18,1.54c.08.32.18.63.29,1l1.22,3.63a.38.38,0,0,0,.36.26l.11,0a.38.38,0,0,0,.24-.48Z"/><path class="cls-1" d="M163.68,104.89c-.38-1.24-.71-2.5-1-3.77a.37.37,0,0,0-.73.15,39.33,39.33,0,0,0,1,3.84.38.38,0,0,0,.36.26h.11A.37.37,0,0,0,163.68,104.89Z"/><path class="cls-1" d="M154.88,123A19.36,19.36,0,0,0,154,121l-.2-.37a8,8,0,0,1-.69-1.61.38.38,0,0,0-.74.16,8.71,8.71,0,0,0,.77,1.8l.18.36a18.62,18.62,0,0,1,.84,2,16.17,16.17,0,0,0,.7,1.69.38.38,0,0,0,.34.21.47.47,0,0,0,.16,0,.37.37,0,0,0,.17-.5C155.26,124,155.08,123.54,154.88,123Z"/><path class="cls-1" d="M160.81,123.46s-.06,0-.12-.3L159.51,118a.36.36,0,0,0-.44-.28.37.37,0,0,0-.29.44l1.18,5.18c0,.19.17.77.7.86h.07a.37.37,0,0,0,.37-.3A.37.37,0,0,0,160.81,123.46Z"/><path class="cls-1" d="M164.75,121.62a6.48,6.48,0,0,1-.29-1c0-.22-.06-.44-.08-.66l-.18-2.12a.37.37,0,1,0-.74.07l.18,2.11c0,.25,0,.5.08.74a7.77,7.77,0,0,0,.32,1.1l.6,1.76a.37.37,0,0,0,.35.25l.12,0a.38.38,0,0,0,.24-.47Z"/><path class="cls-1" d="M168,122.22a.38.38,0,0,0,.38.35h0a.36.36,0,0,0,.34-.4c-.08-.93-.23-1.86-.38-2.75l-.2-1.21a.38.38,0,0,0-.43-.31.39.39,0,0,0-.31.44l.2,1.2C167.78,120.41,167.93,121.32,168,122.22Z"/><path class="cls-1" d="M171,152.67a.75.75,0,0,1-.6-.28,3.52,3.52,0,0,1-.49-.78,5.36,5.36,0,0,0-1.46-1.9.38.38,0,0,0-.53.08.38.38,0,0,0,.08.52,4.85,4.85,0,0,1,1.28,1.72,4,4,0,0,0,.5.77.47.47,0,0,0-.17,0l-.65,0a1,1,0,0,1-.19,0,1.13,1.13,0,0,1-.1-.25,3.61,3.61,0,0,0-2-2.22.38.38,0,0,0-.5.19.37.37,0,0,0,.19.49,2.93,2.93,0,0,1,1.56,1.79,1.07,1.07,0,0,0,.38.62,1,1,0,0,0,.58.15l.66,0h0a.38.38,0,0,0,.38-.37.4.4,0,0,0,0-.15,1.43,1.43,0,0,0,1,.43h.14a.38.38,0,0,0,.33-.42A.37.37,0,0,0,171,152.67Z"/></svg>