<svg id="Layer_1" data-name="Layer 1" xmlns="http://www.w3.org/2000/svg" xmlns:xlink="http://www.w3.org/1999/xlink" viewBox="0 0 1792.35 1200"><defs><style>.cls-1{fill:none;clip-rule:evenodd;}.cls-2{clip-path:url(#clip-path);}.cls-3{fill:#d4dc45;}</style><clipPath id="clip-path"><path class="cls-1" d="M603.47,588.68s35.86-.56,55.25-7.81S766.65,529.43,768,426.09C652.94,421,606.6,478.61,603.47,588.68"/></clipPath></defs><title>who-we-are</title><path class="cls-3" d="M570,614.66s35.31-.56,54.4-7.76S730.64,555.74,732,453c-113.29-5.07-158.91,52.24-162,161.69"/><path class="cls-3" d="M387.18,232s18.76-31.84,22.8-52.79S422.68,56.67,332.52,0c-66.26,98.48-40.46,170.17,54.66,232"/><path class="cls-3" d="M128.64,542.66s.92-36.95-5.73-57.21S74.44,372.16-31.9,366.47c-10,118.27,47.35,168.38,160.54,176.19"/><path class="cls-3" d="M174,893.66s37,.09,57.07-7,112.17-51,115.48-157.43C228.07,721.83,179.25,780.33,174,893.66"/><path class="cls-3" d="M1083.42,938.66s3-36.84-2.55-57.44-42.11-115.8-148-127.38c-16.58,117.53,37.94,170.75,150.52,184.82"/><path class="cls-3" d="M1047.42,308.66s3-36.84-2.55-57.44-42.11-115.8-148-127.38c-16.58,117.53,38,170.75,150.53,184.82"/><path class="cls-3" d="M1128,632.66s39.77-5.87,60.39-15.67S1301.72,551.83,1290,453c-128.5,12.25-172.63,74.15-162,179.7"/><path class="cls-3" d="M1483.87,454.68s35.09-21.8,50.36-39.72,79.09-109.62,25.39-201.81c-116.24,63.86-131.27,142.34-75.75,241.53"/><path class="cls-3" d="M1532.42,846.73s40.39-8.64,60.82-20.33,111.53-76.38,92.2-181.31c-131,20.75-171.69,89.51-153,201.64"/><path class="cls-3" d="M1677.94,976.85s6.61,40.77,17.27,61.77,70.7,115.21,176.46,101.15c-14.17-131.86-80.81-176-193.73-162.92"/></svg>