<svg id="Layer_1" data-name="Layer 1" xmlns="http://www.w3.org/2000/svg" viewBox="0 0 1920 1044"><defs><style>.cls-1{fill:#fc3;}</style></defs><title>who-we-are</title><path class="cls-1" d="M1937.16,627c-5.06,4.24-10,8.64-15,13.08-14.65,12.94-28.47,25.15-43.89,34.33-41.22,24.54-65.9,22.9-97.71-6.75-5.39-5-8.43-12.4-11.94-20.94-3.95-9.56-8.44-20.45-17.3-29.74-28.57-30-85.72-7.45-105.38,3.78-7.53,4.33-15.26,9.42-23.11,14.69-15.08,10.08-30.68,20.5-45.14,24.39-12.84,3.34-17.36.19-32.51-12.81l-8.4-7.12c-15-12.2-32.19-25-51.08-38-27-18.57-39.47-16.91-61.35-3-2.89,1.82-6.22,4-10.24,6.26-12.7,7.37-20.44,6.08-34.47,3.73-8.39-1.39-17.93-3.23-27.78-2.74-13.3.11-24.42,6.13-33.36,10.92-4.72,2.55-11.78,6.5-14.25,5.87-10.09-2.47-15.63-15.44-23.54-36.53-8.7-23.11-19.52-51.93-48.44-62.64-42.68-15.93-77,5.38-104.66,22.48-8.57,5.28-17.07,10.59-25.73,14.69-7.22,3.4-14.19,7.2-20.88,10.89-11.9,6.58-26.7,14.93-32.38,12.71-1.24-.45-5.76-2.93-11.36-16.49-2-4.87-4-10.39-6-16.14-9.46-26.36-21.23-59.24-48.52-68.16-15.09-4.81-31.44-1.5-48.64,10.18-4.25,2.9-7.92,5.54-11.33,8-11.87,8.56-17.83,12.84-33.51,16.6-21.13,5-31.91,13.5-42.34,21.63-4.09,3.25-8.55,6.73-14.28,10.46-5.3,3.42-8.42,4.47-9,5.14-3.75-5.63-6-25.13-7.3-35.87-2.12-18.16-4.14-35.3-11.85-47-10.12-15.41-24.4-25.09-41.31-28.07-37.23-6.42-78.08,20.33-105.65,41-40.26,30.19-61.72,33.51-85.06,13-10.7-9.4-13.16-27.93-15.78-47.54-3-22.51-6.39-48-24.05-66.18a45.38,45.38,0,0,0-34.07-13.89c-25.51.65-54.31,20.26-90.66,61.65l-7,8.31C389.33,455,386.36,457.94,374.69,457c-14.35-1-17.5-2.86-21.22-22-1.05-5.5-1.88-11.77-2.73-18.38-4.29-32.4-12.7-92.58-67.58-88.74-17.82,1.24-33.83,7.45-47.94,13-26.15,10.22-40.67,14.8-59,1-4.93-3.77-7.31-8.92-11.05-17.75-3.63-8.61-8.17-19.35-17.57-28.5-21.09-20.32-50.57-17.16-72.06-14.83l-6.51.68c-39.32,3.84-63.86,18.15-89.85,33.28-8.43,4.95-17.26,10.11-27.2,15.23l17.63,34.2c10.58-5.45,20-10.94,29-16.16,24.16-14.08,43.23-25.25,74.17-28.23l7-.75c15.48-1.73,33-3.6,41.08,4.26,3.82,3.66,6.1,9,9,15.81,4.4,10.39,9.86,23.29,23.22,33.42,36.34,27.53,69.52,14.64,96.19,4.23,12.69-5,24.66-9.61,36.63-10.45,15.09-1,20.94,11.44,26.77,55.4,1,7.45,1.92,14.52,3.12,20.63,4.77,24.66,15.19,50.24,56.28,53.13,31.72,2,46-14.72,58.41-29.64l6.31-7.48c38.11-43.37,56.6-48.45,62.77-48.58A6.78,6.78,0,0,1,505,412c8.75,9,11,26.19,13.46,44.37,3.26,24.58,7,52.46,28.53,71.4,54.78,48,107.94,8.07,133.54-11.15,33.85-25.43,59.6-36.68,75.92-33.87,4.06.68,10.1,2.61,15.79,11.27,2.7,4.15,4.55,19.91,5.78,30.41,3.08,26.2,6.55,55.83,28.82,66.36,13.17,6.15,28.84,3.6,46.62-7.81,6.87-4.45,12.23-8.62,17.13-12.49,9.1-7.1,14.6-11.42,27.53-14.51,23.08-5.51,34.21-13.51,47.06-22.75l10.46-7.38c6.54-4.47,12.13-6.55,15.11-5.44,9.36,3,18.66,29.05,24.22,44.55,2.27,6.37,4.47,12.45,6.71,17.82,8.47,20.57,19.63,33,34.14,38.11,21.9,7.67,43.18-4,63.72-15.29,6-3.31,12.24-6.78,18.74-9.81,9.94-4.7,19.72-10.71,29.52-16.77,24.69-15.25,46-28.39,71-19.13,12.48,4.63,19,21.86,25.81,40.14,8.86,23.57,19.88,52.87,50.45,60.32,16.84,4.23,30.55-3.35,41.62-9.36,5.73-3.09,11.66-6.29,15.35-6.32,9.15-.53,14.79,1.18,21.2,2.23,16.54,2.8,35.34,5.89,60-8.31,4.61-2.67,8.45-5.07,11.77-7.23,3-1.94,6.84-4.35,6.76-4.69.47.11,3.26.85,12,7,16.41,11.27,33.19,23.59,48.62,36.13l7.62,6.44c16.17,13.93,34.5,29.54,67.56,20.81,20.58-5.53,39.68-18.31,56.54-29.54,7.12-4.77,14.07-9.43,20.85-13.31,20.73-11.84,51.82-17.59,58.39-10.67,3.9,4.1,6.55,10.48,9.61,17.92,4.34,10.58,9.77,23.7,21.31,34.43,44.64,41.52,87.59,45,143.6,11.65,17.9-10.66,33.29-24.11,48.14-37.19l3.93-54.2Z"/></svg>