<svg id="Layer_1" data-name="Layer 1" xmlns="http://www.w3.org/2000/svg" viewBox="0 0 278 219.33"><defs><style>.cls-1{fill:#231f20;}</style></defs><title>info</title><path class="cls-1" d="M52.35,11.49a2.92,2.92,0,0,0,.86.72,2.82,2.82,0,0,0,1.28.24h.19a.45.45,0,0,0,.44-.34A2.15,2.15,0,0,0,55,10.83a2.51,2.51,0,0,1-.15-.6h0a1,1,0,0,1,0-.17c0-.12,0-.23,0-.34a1.86,1.86,0,0,0-1.32-1.46l-.16-.06A2.45,2.45,0,0,1,53,8.05l-.46-.2a.44.44,0,0,0-.43,0,1.84,1.84,0,0,0-.69,2A3.75,3.75,0,0,0,52.35,11.49Zm.06-2.69.15.06a2.07,2.07,0,0,0,.47.2l.13,0c.32.12.7.37.74.71V10a2.09,2.09,0,0,0,0,.25,3.12,3.12,0,0,0,.2.85c0,.14.1.28.13.4a1.44,1.44,0,0,1-.61-.14,2,2,0,0,1-.59-.5,3.08,3.08,0,0,1-.76-1.23A1.12,1.12,0,0,1,52.41,8.8Z"/><path class="cls-1" d="M76.63,19.8a1.58,1.58,0,0,0-.09.92,1.32,1.32,0,0,1,0,.28A1.35,1.35,0,0,0,77,22.15a1.22,1.22,0,0,0,.46.2,2.74,2.74,0,0,0,.7.1,1.31,1.31,0,0,0,1-.37,2.13,2.13,0,0,0,.48-1.48l0-.42a1.77,1.77,0,0,0-.24-1.39,1.29,1.29,0,0,0-1.11-.42A2.23,2.23,0,0,0,76.63,19.8Zm1.81-.52a.28.28,0,0,1,.24.09c.11.13.08.43,0,.7l0,.48a1.52,1.52,0,0,1-.21.89c-.17.17-.59.1-.82,0l-.14,0s-.06-.07,0-.41h0a2.68,2.68,0,0,0,0-.4,1,1,0,0,1,0-.42c.27-.55.62-.89.94-.92Z"/><path class="cls-1" d="M93.46,9.33a1.61,1.61,0,0,0,.58.1A1.88,1.88,0,0,0,95,9.19a2.82,2.82,0,0,0,1-.95,4.07,4.07,0,0,0,.63-1.58,1,1,0,0,1,0-.18.85.85,0,0,0-.32-1h0a1.32,1.32,0,0,0-.91-.12l-.18,0a1.1,1.1,0,0,0-.47.08,1,1,0,0,0-.39.34c-.19.24-.36.51-.53.77l-.69,1.1a1.2,1.2,0,0,0-.19,1.16A1,1,0,0,0,93.46,9.33Zm.4-1.17.69-1.1A8,8,0,0,1,95,6.35l-.36-.28.48.22.33,0,.22,0v0a1.88,1.88,0,0,0,0,.33,3.57,3.57,0,0,1-.48,1.13,2,2,0,0,1-.65.66.94.94,0,0,1-.79.06S93.73,8.37,93.86,8.16Z"/><path class="cls-1" d="M47.85,71.66a.61.61,0,0,0-.4.76,7.1,7.1,0,0,0,1,2,.59.59,0,0,0,.49.26.55.55,0,0,0,.35-.12.6.6,0,0,0,.15-.84,5.76,5.76,0,0,1-.81-1.65A.61.61,0,0,0,47.85,71.66Z"/><path class="cls-1" d="M56.28,70.76a.6.6,0,0,0-.85,0,2.4,2.4,0,0,0-.56,2.71.64.64,0,0,0,.56.36.57.57,0,0,0,.25-.06.61.61,0,0,0,.3-.8,1.18,1.18,0,0,1,.26-1.31A.6.6,0,0,0,56.28,70.76Z"/><path class="cls-1" d="M61.92,73.1a1.48,1.48,0,0,1-1.45,1.08.61.61,0,1,0-.07,1.21h.14a2.68,2.68,0,0,0,2.56-2,.61.61,0,0,0-1.18-.28Z"/><path class="cls-1" d="M103.61,72.55a.62.62,0,0,0-.5.7.59.59,0,0,0,.69.5,1.19,1.19,0,0,1,1.16.55.61.61,0,0,0,.83.22.61.61,0,0,0,.22-.83A2.39,2.39,0,0,0,103.61,72.55Z"/><path class="cls-1" d="M111.26,69.58a.61.61,0,0,0-.62-.6.6.6,0,0,0-.59.62,2.68,2.68,0,0,0,1,2.44.66.66,0,0,0,.3.07.6.6,0,0,0,.3-1.13C111.32,70.78,111.27,70.13,111.26,69.58Z"/><path class="cls-1" d="M116.69,71.51a.62.62,0,0,0-.37.78.61.61,0,0,0,.57.4.76.76,0,0,0,.21,0,2.26,2.26,0,0,0,1.4-2.56.61.61,0,0,0-1.18.27A1,1,0,0,1,116.69,71.51Z"/><path class="cls-1" d="M67.68,34.92a1.2,1.2,0,0,1,0,.33,22.68,22.68,0,0,0-.08,2.33.6.6,0,0,0,.61.6h0a.61.61,0,0,0,.6-.62c0-.73,0-1.48.08-2.22a2,2,0,0,0-.06-.82,1.09,1.09,0,0,0-1-.79.61.61,0,0,0-.64.58A.61.61,0,0,0,67.68,34.92Z"/><path class="cls-1" d="M82.49,50.67l2.47.64a3.24,3.24,0,0,1,.78.28.68.68,0,0,0,.31.08.61.61,0,0,0,.3-1.13,4.26,4.26,0,0,0-1.09-.4l-2.43-.64a.61.61,0,0,0-1.09.48A.91.91,0,0,0,82.49,50.67Z"/><path class="cls-1" d="M92.42,53.58a.41.41,0,0,0,.19,0,.46.46,0,0,0,.41-.26.63.63,0,0,1,.51-.19,3.08,3.08,0,0,1,1.63.34.45.45,0,0,0,.61-.19.46.46,0,0,0-.19-.62,4,4,0,0,0-2.11-.44A1.41,1.41,0,0,0,92.2,53,.46.46,0,0,0,92.42,53.58Z"/><path class="cls-1" d="M82,55.06a.45.45,0,0,0,.16,0,5.37,5.37,0,0,1,1.37-.26l.33,0a3.83,3.83,0,0,0,2-.66.45.45,0,0,0,.09-.63.46.46,0,0,0-.64-.09,2.92,2.92,0,0,1-1.5.47l-.32,0a5.73,5.73,0,0,0-1.61.31.45.45,0,0,0-.26.58A.46.46,0,0,0,82,55.06Z"/><path class="cls-1" d="M86.1,55.24a1.47,1.47,0,0,0-1.25.88,1.74,1.74,0,0,1-.34.55c-.15.19-.46.33-.42.59a7.26,7.26,0,0,0,1.14-.79c.22-.17.65-.12.92-.23a2.13,2.13,0,0,0,.41-.28.27.27,0,0,0,.09-.32C86.6,55.54,86.4,55.19,86.1,55.24Z"/><path class="cls-1" d="M95,55.82l.29-.17c-.71-.11-1.27-.72-2-.82a.46.46,0,0,0-.44.12.59.59,0,0,0,0,.6,1.48,1.48,0,0,0,.44.25c.16.07.38,0,.55.05a1.46,1.46,0,0,0,.42,0Z"/><path class="cls-1" d="M92.07,63.48a2.59,2.59,0,0,0-.56,0c-.11,0-.22,0-.33,0l-.45,0-.07,0,.12-3A2.28,2.28,0,0,0,92,58.12a.46.46,0,0,0-.34-.39,4.31,4.31,0,0,0-3.14.29.44.44,0,0,0-.24.49c.17.85,1.13,1.46,1.64,1.73l-.12,3.23-.16.05-.61.26a10,10,0,0,0-1.26.58.45.45,0,0,0-.18.61.47.47,0,0,0,.4.24.43.43,0,0,0,.22-.06c.21-.11.41-.21.62-.3a2.37,2.37,0,0,1,.35.86,4.75,4.75,0,0,1,.15.79,1,1,0,0,1-.1.49,2.23,2.23,0,0,0-.19.69,1,1,0,0,0,.71,1,2.91,2.91,0,0,0,.57.06,1.93,1.93,0,0,0,1.39-.53,3.19,3.19,0,0,0,.69-1.12,3.66,3.66,0,0,0,.25-.7,4,4,0,0,0,.07-1.13V65l.11,0a.46.46,0,0,0,.43-.48C93.16,64,92.43,63.57,92.07,63.48Zm-2.79-4.83A3.41,3.41,0,0,1,91,58.54a1.42,1.42,0,0,1-.66.94A3.47,3.47,0,0,1,89.28,58.65Zm2.44,7.55a5.14,5.14,0,0,1-.2.55,2.45,2.45,0,0,1-.49.82,1.26,1.26,0,0,1-1.08.28s0-.11,0-.08a1.76,1.76,0,0,1,.12-.44,1.8,1.8,0,0,0,.17-.9,4.74,4.74,0,0,0-.18-.94,3.68,3.68,0,0,0-.37-1l.31-.13.24-.08a1,1,0,0,1,.25,0s0,0,0,.06a1.16,1.16,0,0,1,0,.43l0,.33a1.26,1.26,0,0,0,.2,1,.46.46,0,0,0,.36.17.42.42,0,0,0,.28-.1.44.44,0,0,0,.07-.63,1.19,1.19,0,0,1,0-.33l0-.34a2.49,2.49,0,0,0,0-.47h.2a1.19,1.19,0,0,1,.15.71,2.26,2.26,0,0,0,0,.26A3.64,3.64,0,0,1,91.72,66.2Z"/><path class="cls-1" d="M67.8,96.59a3.28,3.28,0,0,0,1.52-.74,12.36,12.36,0,0,1,0,1.61.45.45,0,0,0,.41.49h0a.46.46,0,0,0,.45-.42,12.84,12.84,0,0,0-.64-5.22A.46.46,0,0,0,69,92a.45.45,0,0,0-.35.5,7.66,7.66,0,0,0,.16.84,3.24,3.24,0,0,1,.15,1.4c-.12.48-.78.82-1.38,1a.46.46,0,1,0,.19.89Z"/><path class="cls-1" d="M81.11,61.52c1,.17,1.9.37,2.84.61a.45.45,0,1,0,.22-.88c-1-.24-1.93-.45-2.9-.63a11.16,11.16,0,0,0-2.38-.21,11.71,11.71,0,0,0-3.44.9.44.44,0,0,0-.27.58.46.46,0,0,0,.43.3l.16,0a11,11,0,0,1,3.17-.84A9.52,9.52,0,0,1,81.11,61.52Z"/><path class="cls-1" d="M84.25,63.33a.77.77,0,0,1-.23,0,36.67,36.67,0,0,0-6.2.34,3.25,3.25,0,0,0-1.49.49.45.45,0,0,0-.11.63.44.44,0,0,0,.37.19.42.42,0,0,0,.26-.08,2.59,2.59,0,0,1,1.09-.33,36.05,36.05,0,0,1,6-.33,1,1,0,0,0,1-.45.47.47,0,0,0-.17-.64A.41.41,0,0,0,84.25,63.33Z"/><path class="cls-1" d="M108,155.35a4.47,4.47,0,0,0-2.68-1.5c1.15-10.73.46-20.86-.2-30.67-.31-4.53-.63-9.2-.77-13.93-.06-2.26-.18-5.62-.41-8.76l-.06-.79c-.11-1.54-.24-3.36-.47-5a10.86,10.86,0,0,1,3.69-1.31,18.33,18.33,0,0,0,2.4-.57c.77-.29,1.82-.62,3.22-1l1.47-.42c1.3-.37,2.34-.66,3.91-1,2-.38,3.87-.66,5.7-.93,1.65-.24,3.36-.49,5.13-.81a18.06,18.06,0,0,0,3.59-1.21c.37-.15.73-.31,1.1-.45a21.34,21.34,0,0,0,6-3.11,4.93,4.93,0,0,0,.86-1.06,3.35,3.35,0,0,0,.63-1.8,19.89,19.89,0,0,0-.38-2.59c-.09-.46-.19-.92-.26-1.43,0-.26-.08-.52-.11-.78a10.67,10.67,0,0,0-.93-3.58l0-.14a10,10,0,0,0-.73-1.7,11.61,11.61,0,0,0-.62-1,11.21,11.21,0,0,1-.85-1.48,11.21,11.21,0,0,1-.58-2,2.63,2.63,0,0,0-.18-.63,52.84,52.84,0,0,0-3.62-5.93c-.63-.94-1.26-1.87-1.86-2.83a18.62,18.62,0,0,0-2.18-2.54,6.64,6.64,0,0,0-1.51-1,11.19,11.19,0,0,0-2.56-.86c-1.11-.26-2,0-2.31.72a2,2,0,0,0-.05,1.39,2.56,2.56,0,0,0-1.51.84,2.16,2.16,0,0,0-.31,2,1.64,1.64,0,0,0-.79.92,2.33,2.33,0,0,0,1.61,2.6,7.83,7.83,0,0,0,1.21.34,6.22,6.22,0,0,1,1.13.33c.75.35,1.1,1.24,1.47,2.17.13.35.27.69.42,1,.31.64.69,1.28,1.06,1.9a20.22,20.22,0,0,1,1,1.79c.22.46.44.91.67,1.36a20.37,20.37,0,0,1,1.82,4.47,3.82,3.82,0,0,1,0,1.58c-.16.73-.8.89-2.21,1.07l-.83.13c-1.12.19-2.5.52-3.83.84a38.58,38.58,0,0,1-4.58.91,6.35,6.35,0,0,0-4.14-3.68,4.12,4.12,0,0,0-4.73,1.52A9.46,9.46,0,0,0,108,81a.87.87,0,0,1-.09.31,1.05,1.05,0,0,1-.3.1l-1.63.32a28.45,28.45,0,0,0-5.53,1.47c-1.3-4.36-2.86-9.25-4.28-13.36,0-.14-.09-.28-.13-.41a2.72,2.72,0,0,0-.86-1.5,5.43,5.43,0,0,0,.59-1.46,1.91,1.91,0,0,1,.22-.5c0-.08.08-.17.13-.25l1.39-.17a16.28,16.28,0,0,1,4.39-.16,1.23,1.23,0,0,1,.44.13.45.45,0,0,0,.23.6.41.41,0,0,0,.19,0,.44.44,0,0,0,.41-.27.93.93,0,0,0-.33-1.11,1.76,1.76,0,0,0-.81-.29,17.14,17.14,0,0,0-4.64.16l-1,.13a3.08,3.08,0,0,1,.08-.45c0-.16.07-.32.08-.44a1.16,1.16,0,0,1,.11-.31,22.82,22.82,0,0,1,4.28-.29c.58,0,1.29.16,1.47.62a.46.46,0,0,0,.59.26.46.46,0,0,0,.26-.59c-.2-.51-.75-1.13-2.27-1.2a22.14,22.14,0,0,0-3.91.22,7.86,7.86,0,0,0,.39-2,10.49,10.49,0,0,0,1.9-.6l.3-.14a3.94,3.94,0,0,1,1.49-.46.46.46,0,0,0,0-.91,4.48,4.48,0,0,0-1.87.55l-.29.13a10,10,0,0,1-1.46.48v-.1l0-.63A26.71,26.71,0,0,1,97.74,56a30.58,30.58,0,0,0-.33-9.17.08.08,0,0,0,0-.05,2.85,2.85,0,0,0,1-2.07,3,3,0,0,0-1.3-2.5,2.26,2.26,0,0,0,.07-1,2.12,2.12,0,0,0-.91-1.44,1.4,1.4,0,0,0-.44-.22c0-1.28,0-2.63,0-3.94a51.22,51.22,0,0,0-.24-6.74.62.62,0,0,0-.52-.53.63.63,0,0,0-.64.37,6.2,6.2,0,0,1-2.65,2.67,16,16,0,0,0-3.69,3.19c-.15.19-.36.4-.57.62a11.5,11.5,0,0,0-1,1.12c-4.55-.71-8.74.16-13.3,1.33a57.58,57.58,0,0,0-4.39-6.14c-.59-.75-1.17-1.5-1.73-2.24a.6.6,0,0,0-.6-.23.59.59,0,0,0-.47.43,51.61,51.61,0,0,0-1.63,14,3.32,3.32,0,0,0-.77.88,2.11,2.11,0,0,0-.06,1.8,2.64,2.64,0,0,0-.68.82,2.11,2.11,0,0,0,.2,2.07,1.61,1.61,0,0,0,.66.52,1,1,0,0,0,.07.43,1.53,1.53,0,0,0,.8.76.78.78,0,0,0,0,.21l.18,11.69a4.31,4.31,0,0,1-.1,1.21,2,2,0,0,0,0,.93,3.52,3.52,0,0,1,0,.36,3.68,3.68,0,0,0,0,1.69,5,5,0,0,1,.11.76c0,.78.11,1.57.19,2.32A9.8,9.8,0,0,1,65,74c-.4,1.14-.79,2.28-1.17,3.43-.62,1.84-1.26,3.74-2,5.58a6.19,6.19,0,0,0-1.49,0,5.21,5.21,0,0,0-3.46-5c-1.77-.56-2.77.42-3.83,1.46l-.36.35c-.17.16-.32.34-.47.51a4.83,4.83,0,0,1-.69.67l-.19-.08a13.27,13.27,0,0,1-2.17-1.16,4.7,4.7,0,0,0-1.28-.56,3.64,3.64,0,0,1-1.12-.52,22.2,22.2,0,0,1-3.39-3.93c-.36-.49-.72-1-1.09-1.46a85.92,85.92,0,0,1-5.72-8.07c-.43-.93.07-3.4.6-4.76a9.31,9.31,0,0,0,.34-1.12c.09-.35.19-.74.34-1.17.06-.2.22-.32.47-.5a2.84,2.84,0,0,0,.53-.47,3.82,3.82,0,0,0,.67-3.71,1.61,1.61,0,0,0-1.07-1.11,2,2,0,0,0-.88,0,1.62,1.62,0,0,0-.49-1.17A.47.47,0,0,0,37,51a2.07,2.07,0,0,0-1.6-.24,4.63,4.63,0,0,0-.56.19,1.52,1.52,0,0,0-.9-1,3.45,3.45,0,0,0-2.59.39c-.54.29-1.89,1.33-2.74,4.56a21.33,21.33,0,0,0-.42,3.67c-.05.88-.11,1.8-.22,2.58A23.55,23.55,0,0,0,28,69a25.86,25.86,0,0,0,1.9,5.67,27.29,27.29,0,0,0,1.46,2.53,19.23,19.23,0,0,1,1.75,3.22c.51,1.36,3.32,5,5.46,7.19a29.81,29.81,0,0,0,7.95,5.52L48,94a35,35,0,0,0,5.45,2.46l4,1.33a37.51,37.51,0,0,0-1,7.09,27.65,27.65,0,0,1-.72,5.26c-.15.56-.26,1.21-.37,1.83s-.19,1.15-.31,1.63-.25.87-.37,1.27a17.18,17.18,0,0,0-.63,2.65c-.17,1.19-.29,2.42-.41,3.66-.15,1.47-.3,3-.53,4.41-.18,1.18-.42,2.33-.66,3.44-.32,1.54-.65,3.14-.85,4.82-.1.83-.21,1.67-.32,2.51-.28,2.06-.56,4.19-.67,6.29-.08,1.58-.24,3.17-.4,4.71s-.31,3.16-.39,4.77a35.75,35.75,0,0,0,.6,8.81,30.66,30.66,0,0,1-11.73-4.95,45.8,45.8,0,0,1-7.7-7.35c-.73-.82-1.46-1.63-2.21-2.43a12.18,12.18,0,0,1-2.2-3.92c-.32-.76-.64-1.54-1-2.31a27.52,27.52,0,0,1-1.61-4l-.46-1.35C22,130.19,20.66,124,22.92,111a27.75,27.75,0,0,1,.88-3.13c.14-.43.28-.85.39-1.24a28.67,28.67,0,0,1,1.59-3.9c1-2.28,2.14-4.63,2-7.43a2.75,2.75,0,0,0-1-2.25c-.79-.49-2.79-.14-3.39.16-4.61,2.29-6.07,7.14-7.48,11.84l-.12.4A61.58,61.58,0,0,0,13.38,118a28.65,28.65,0,0,0,0,3.24c0,.63,0,1.29,0,2a22.87,22.87,0,0,1-.17,2.5,16.68,16.68,0,0,0-.13,3.47,35.6,35.6,0,0,0,1.34,7.19c2.72,9,7.06,16.84,12.22,22a34.2,34.2,0,0,0,6.29,4.54c7.42,4.49,13.77,7.06,19.43,7.83.25,0,.44.09.58.12a2.13,2.13,0,0,0,.51.08,1.15,1.15,0,0,0,.81-.37,13.66,13.66,0,0,0,3.27,3.65,8.12,8.12,0,0,0,2,1,8.12,8.12,0,0,1,1.68.78,25.66,25.66,0,0,0,4.84,2.71,96.66,96.66,0,0,0,12.65,4.06l.33.09,1.95.53a4.32,4.32,0,0,0-.2.61,3.17,3.17,0,0,1-.29.74,3,3,0,0,1-.82.69c-1.08.72-2.08,1.46-3,2.18s-1.93,1.44-3,2.14A6.11,6.11,0,0,1,73,190a4.48,4.48,0,0,0-1.24.74c-1.43,1.45-1.46,3.29-1.48,5.06,0,.33,0,.66,0,1-.07,2-.25,4-.43,6.07s-.36,4.14-.43,6.13a3.62,3.62,0,0,0,.19,1.59,1.61,1.61,0,0,0,1,1,2.6,2.6,0,0,0,2.15-.49L73,211a2.1,2.1,0,0,0,.77.74,1.71,1.71,0,0,0,.78.2,1.43,1.43,0,0,0,.46-.07,2.07,2.07,0,0,0,1-.82,4.53,4.53,0,0,0,.3-.46,1.74,1.74,0,0,0,.33.18,1.79,1.79,0,0,0,1.38,0c1.1-.47,1.17-2.7,1.17-2.72a72.7,72.7,0,0,1,.89-10.31l.21-1.5a2.19,2.19,0,0,1,.26-.91,2,2,0,0,1,.63-.48c.82-.48,1.61-1,2.41-1.5a28.65,28.65,0,0,1,7.47-3.77,8.05,8.05,0,0,1,.28,1.15l.3,1.57c.18.88.33,1.65.45,2.64a17.34,17.34,0,0,0,.44,2c.15.57.31,1.17.4,1.73.23,1.41.37,2.84.5,4.22.08.87.16,1.73.27,2.56a5.94,5.94,0,0,0,.81,2.31,5.34,5.34,0,0,0,1.74,1.57l.38.25a8.45,8.45,0,0,1,1.64,1.68,9.71,9.71,0,0,0,1.89,1.9,4.68,4.68,0,0,0,2.55,1,1.88,1.88,0,0,0,1.23-.42,2,2,0,0,0,.52-.73,2.84,2.84,0,0,0,2.91-.82,2.17,2.17,0,0,0,.3-.66,1.45,1.45,0,0,0,1.83-.89c.48-1.13-.18-3-.25-3.23-.76-2.1-1.62-3.44-3.8-4.08a.59.59,0,0,1-.43-.56c0-.14,0-.28-.08-.41a5.1,5.1,0,0,1-.11-.77,26.24,26.24,0,0,0-.78-5c-.19-.85-.38-1.68-.51-2.5a28.34,28.34,0,0,0-1.14-4.18c-.27-.83-.54-1.67-.77-2.55-.17-.62-.29-1.28-.41-1.95a20.29,20.29,0,0,0-.66-2.82c.25-.18.6-.4,1-.67,3-1.92,9.23-5.93,11-12.13.53-1.89.6-7.68-.59-9.66A33,33,0,0,0,108,155.35Zm-1.83-72.47c.56-.11,1.11-.21,1.65-.33a1.69,1.69,0,0,0,.91-.42,1.71,1.71,0,0,0,.42-.92,7.91,7.91,0,0,1,1.55-3.66,2.91,2.91,0,0,1,3.46-1.14,5,5,0,0,1,3.43,3.2.59.59,0,0,0,.41.45c.76.23,2.5-.16,5.5-.87,1.33-.32,2.69-.64,3.77-.83l.78-.11c1.27-.17,2.86-.38,3.24-2a5.36,5.36,0,0,0,0-2.15,22,22,0,0,0-1.92-4.73c-.22-.44-.44-.88-.66-1.34-.3-.63-.69-1.27-1.06-1.89a20.07,20.07,0,0,1-1-1.79q-.21-.45-.39-.93a4.62,4.62,0,0,0-2.09-2.83,6.75,6.75,0,0,0-1.38-.41,6.85,6.85,0,0,1-1-.28c-.53-.22-1-.73-.9-1.11a.32.32,0,0,1,.2-.22.34.34,0,0,1,.16,0,1.29,1.29,0,0,0,.44.16.59.59,0,0,0,.63-.28.6.6,0,0,0,0-.69,1,1,0,0,0-.48-.33.74.74,0,0,1-.09-.18,1.07,1.07,0,0,1,0-.89,1.45,1.45,0,0,1,1.49-.39,1.84,1.84,0,0,0,.38.17.61.61,0,0,0,.73-.32.6.6,0,0,0-.22-.76,1.62,1.62,0,0,0-.32-.17,1.16,1.16,0,0,1-.26-.37.9.9,0,0,1-.06-.67c0-.08.35-.18.93-.05a9.92,9.92,0,0,1,2.26.75,5.34,5.34,0,0,1,1.23.81,16.38,16.38,0,0,1,2,2.32c.61,1,1.24,1.92,1.88,2.86a50.47,50.47,0,0,1,3.53,5.77,3.42,3.42,0,0,1,.09.39,13,13,0,0,0,.66,2.16,11.8,11.8,0,0,0,.94,1.66c.21.32.41.63.57.93a9.44,9.44,0,0,1,.66,1.53,2.25,2.25,0,0,0,.09.26,9.41,9.41,0,0,1,.83,3.22c0,.26.06.53.11.8.08.53.17,1,.26,1.49a18.17,18.17,0,0,1,.37,2.43,2.37,2.37,0,0,1-.43,1.06,4.14,4.14,0,0,1-.63.78,20,20,0,0,1-5.64,2.92l-1.12.46a17.17,17.17,0,0,1-3.35,1.13c-1.75.32-3.45.57-5.09.81-1.84.27-3.76.56-5.75.94-1.63.32-2.68.62-4,1l-1.46.41c-1.42.39-2.51.73-3.32,1a14,14,0,0,1-2.18.51,12.12,12.12,0,0,0-3.7,1.25l-.06-.37c-.4-1.83-1.27-5-2.37-8.74A27.08,27.08,0,0,1,106.18,82.88Zm-12.12-22a.46.46,0,0,0,.44.33h.12c.5-.14,1-.24,1.54-.34a5.49,5.49,0,0,1-.46,1.8l-.08.15L94,63.05a.46.46,0,0,0-.37.53.46.46,0,0,0,.53.37l1.15-.2c0,.08,0,.18-.06.28a3.3,3.3,0,0,0-.1.76s0,0,0,0l-.26,0a.45.45,0,0,0-.43.47.44.44,0,0,0,.3.41,1.66,1.66,0,0,0-.15.46c-.21,1.11-1.76,3.37-3.56,3.59-2.73.33-6.11-.63-7.16-3.48l1.54-.49a.45.45,0,0,0-.28-.86l-5.48,1.72a3.82,3.82,0,0,0-1.26.57.45.45,0,0,0-.08.64.44.44,0,0,0,.36.18.41.41,0,0,0,.27-.1,3.41,3.41,0,0,1,1-.43l2.78-.87c1.1,3.1,4.33,4.4,7.28,4.4A11.53,11.53,0,0,0,91.14,71a5.31,5.31,0,0,0,3.33-2.12,1.87,1.87,0,0,1,.38.85c0,.15.09.31.14.46.3.86.6,1.75.9,2.66-.59.73-1.11,1.37-1.62,2s-1,1.32-1.66,2.06a4.94,4.94,0,0,1-.53.57,3.13,3.13,0,0,1-.42.29c-.13.09-.26.17-.39.27a7,7,0,0,0-1.34,1.45,4.85,4.85,0,0,1-1.23,1.31,4.76,4.76,0,0,1-1.53.51c-.92.19-1.87.35-2.8.48a5.26,5.26,0,0,1-1.67,0,5.43,5.43,0,0,0-.72-.1,3.84,3.84,0,0,1-1-.2,20.11,20.11,0,0,0-3.08-.88,19.45,19.45,0,0,1-2.79-.78,17.23,17.23,0,0,1-3.36-2l-2.55-1.75a2.72,2.72,0,0,1-.54-.67l-.13-.19a3,3,0,0,1-.29-.67,4,4,0,0,0-.38-.87A1.84,1.84,0,0,0,66.45,73h-.07a18.07,18.07,0,0,0-.14-3.24c-.08-.73-.16-1.49-.19-2.23a6.37,6.37,0,0,0-.13-1,2.89,2.89,0,0,1-.07-1.15,2.07,2.07,0,0,0,0-.86,3.53,3.53,0,0,1,0-.38A4.66,4.66,0,0,0,66,62.57L65.77,51a1.1,1.1,0,0,0,.26,0,4.15,4.15,0,0,0,2.28-1,2,2,0,0,0,1.36.56A3.16,3.16,0,0,0,72.08,49a3,3,0,0,0,.25-.58.61.61,0,0,1,.1-.23,1.08,1.08,0,0,1,.57.22,3.91,3.91,0,0,0,.51.24,3.57,3.57,0,0,0,3.57-.77,3.09,3.09,0,0,0,2.62-.07,3.18,3.18,0,0,0,1.48-1.49,2.73,2.73,0,0,0,2,.65A2.78,2.78,0,0,0,85,46a3.07,3.07,0,0,0,2,.67,3.14,3.14,0,0,0,1.81-.54c0,.06.09.12.15.18a2.26,2.26,0,0,0,1.64.74A2.93,2.93,0,0,0,92,46.63a2.64,2.64,0,0,0,1.44,1.75,2.57,2.57,0,0,0,.83.18l-.27.18c-.24.17-.48.34-.65.48a2,2,0,0,1-.34.23,5.3,5.3,0,0,0-.73.43.55.55,0,0,1-.15.08,1,1,0,0,0-.66,1,.6.6,0,0,0,.6.56h0a.62.62,0,0,0,.54-.45h0a2.44,2.44,0,0,0,.36-.2,3.6,3.6,0,0,1,.51-.3,2.93,2.93,0,0,0,.58-.39c.15-.12.37-.27.59-.42s.48-.34.65-.48a.59.59,0,0,0,.22-.58.34.34,0,0,1,.08-.29.55.55,0,0,0,.12-.24,2.8,2.8,0,0,0,.57-.46,27.48,27.48,0,0,1,.25,8.14,27.46,27.46,0,0,0-.26,3l0,.63c0,.14,0,.28,0,.42l-.16,0c-.58.12-1.15.23-1.7.38A.46.46,0,0,0,94.06,60.83ZM66.87,31c.32.42.65.83,1,1.25a51.48,51.48,0,0,1,4.52,6.4.63.63,0,0,0,.68.3c4.74-1.23,9-2.18,13.65-1.36a.62.62,0,0,0,.64-.32,7,7,0,0,1,1-1.23c.23-.25.46-.48.63-.69a14.83,14.83,0,0,1,3.43-3c.23-.15.44-.31.66-.46a40.59,40.59,0,0,1-1.8,3.91.6.6,0,0,0,.25.82.58.58,0,0,0,.28.07.62.62,0,0,0,.54-.32,40.43,40.43,0,0,0,2.18-4.84c0,1.33.06,2.69,0,4s0,2.6,0,3.87h0a2.28,2.28,0,0,0-.63.24,2.45,2.45,0,0,0-2.26-1,5.06,5.06,0,0,0-1.88.65,1.77,1.77,0,0,0-.77-.85,2.23,2.23,0,0,0-2,0A6.18,6.18,0,0,0,84.78,40a2.63,2.63,0,0,0-4.31.52,3.77,3.77,0,0,0-4.6.61,2.66,2.66,0,0,0-2.38-.45A2.63,2.63,0,0,0,71.91,42a3,3,0,0,0-2.48-.2,5.34,5.34,0,0,0-2,1.48,1.82,1.82,0,0,0-1.21-.53,2.61,2.61,0,0,0-.62.06A51.31,51.31,0,0,1,66.87,31ZM64,48.25a.9.9,0,0,1-.07-.81,2,2,0,0,1,.66-.64.58.58,0,0,0,.27-.38.64.64,0,0,0-.07-.47,1.21,1.21,0,0,1-.17-1.05,1.93,1.93,0,0,1,1.5-1c.18,0,.45.08.67.55a.6.6,0,0,0,1,.14,5.51,5.51,0,0,1,2-1.71,1.44,1.44,0,0,1,1.79.51.63.63,0,0,0,.68.36.62.62,0,0,0,.49-.6,1.42,1.42,0,0,1,2.62-.78.61.61,0,0,0,1.06-.07A2.39,2.39,0,0,1,80.29,42a.6.6,0,0,0,1.08-.32,1.44,1.44,0,0,1,2.78-.42.59.59,0,0,0,.48.38.6.6,0,0,0,.57-.24,4.89,4.89,0,0,1,2.29-1.69c.52-.18.72-.21,1-.06a.54.54,0,0,1,.25.37.21.21,0,0,1,0,.17.6.6,0,0,0,.82.88,5.18,5.18,0,0,1,2.3-1.09,1.41,1.41,0,0,1,1,.32.68.68,0,0,1,.26.5.61.61,0,0,0,1.13.3,1,1,0,0,1,.62-.42,1,1,0,0,1,.75.12,1,1,0,0,1,.23,1.38.61.61,0,0,0-.1.54.58.58,0,0,0,.37.39,1.77,1.77,0,0,1,1.1,1.63A1.67,1.67,0,0,1,96,46.2a.63.63,0,0,0-.37.33,1.44,1.44,0,0,1-1.76.73,1.42,1.42,0,0,1-.72-1.75.6.6,0,0,0-.25-.75.59.59,0,0,0-.78.14,2.16,2.16,0,0,1-1.56.9,1.23,1.23,0,0,1-.75-.34.63.63,0,0,1-.18-.47.61.61,0,0,0-1.14-.34,1.86,1.86,0,0,1-3,0,.63.63,0,0,0-.59-.32.6.6,0,0,0-.52.42,1.5,1.5,0,0,1-2.75.23.6.6,0,0,0-1.06,0c-.09.16-.18.32-.26.48A2.54,2.54,0,0,1,79.2,46.7a1.79,1.79,0,0,1-1.9-.13.65.65,0,0,0-.54-.13.62.62,0,0,0-.42.37,2.19,2.19,0,0,1-2.39.71,3.13,3.13,0,0,1-.36-.19,1.91,1.91,0,0,0-1.54-.3,1.35,1.35,0,0,0-.88,1,2.2,2.2,0,0,1-.13.34,2.18,2.18,0,0,1-1.35.85.75.75,0,0,1-.73-.6.59.59,0,0,0-.54-.57.61.61,0,0,0-.65.45c-.18.7-1.12,1.09-1.94,1.22a1.33,1.33,0,0,1-.82-.19l0,0a.61.61,0,0,0,.22-.72.63.63,0,0,0-.66-.38C64.21,48.47,64.08,48.31,64,48.25Zm-5,50,5.56,1.84A.61.61,0,0,0,65,98.93l-5.55-1.84-5.56-1.83a32.26,32.26,0,0,1-5.27-2.39l-1.52-.79a29,29,0,0,1-7.65-5.3A31.71,31.71,0,0,1,34.23,80a20.25,20.25,0,0,0-1.85-3.43A25.56,25.56,0,0,1,31,74.17a24.16,24.16,0,0,1-1.8-5.36,22.28,22.28,0,0,1-.07-7.44c.12-.83.18-1.77.23-2.68a19.83,19.83,0,0,1,.39-3.43c.76-2.93,1.92-3.69,2.14-3.81a2.38,2.38,0,0,1,1.57-.32.34.34,0,0,1,.2.22.69.69,0,0,1,.06.31,3.19,3.19,0,0,0-.44.46,1.06,1.06,0,0,0-.27.44.6.6,0,0,0,1.09.49l.09-.13.07-.05a2.08,2.08,0,0,0,.43-.45,2.38,2.38,0,0,1,.94-.47.91.91,0,0,1,.6,0c.22.29.09.68-.38,1.15a.62.62,0,0,0,0,.84.61.61,0,0,0,.84.06,1.88,1.88,0,0,1,1.42-.57c.06,0,.18.06.27.32a2.62,2.62,0,0,1-.45,2.57,1.76,1.76,0,0,1-.31.26,2.23,2.23,0,0,0-.91,1.08c-.16.46-.27.89-.37,1.27a8.78,8.78,0,0,1-.28,1c-.49,1.22-1.26,4.22-.59,5.71A85.46,85.46,0,0,0,41.3,74c.36.47.72,1,1.07,1.43A24.45,24.45,0,0,0,46,79.54a4.7,4.7,0,0,0,1.53.74,3.74,3.74,0,0,1,1,.41A14.75,14.75,0,0,0,50.81,82l.48.22a.59.59,0,0,0,.55,0,4.59,4.59,0,0,0,1.26-1.09c.13-.14.26-.29.4-.43l.37-.36c1.07-1,1.58-1.5,2.62-1.17a4.15,4.15,0,0,1,2.58,4.55.62.62,0,0,0,.21.53.63.63,0,0,0,.56.12c1.71-.49,3.53.25,5.45,1a12.18,12.18,0,0,0,5.24,1.28c.06.25.12.49.17.74.09.43.19.87.33,1.32a.56.56,0,0,0,.37.39.61.61,0,0,0,.54-.06l.41-.25a9.33,9.33,0,0,0,.81-.53,11.52,11.52,0,0,1,.18,3.5.61.61,0,0,0,.55.66,3.9,3.9,0,0,0,.92,0c-.65,5.52-3,11.94-5.41,17.75a4.74,4.74,0,0,1-.31-.79.64.64,0,0,0-.4-.42.62.62,0,0,0-.57.11A6,6,0,0,0,67,110.28a2.28,2.28,0,0,0,0-.59.61.61,0,0,0-1.21,0c0,.19,0,.37,0,.56h0a2.61,2.61,0,0,1-.46.81c-.08-.19-.17-.37-.25-.53a3.19,3.19,0,0,1-.37-1,.62.62,0,0,0-.32-.45.68.68,0,0,0-.56,0,5.45,5.45,0,0,0-1.74,1.65,4.29,4.29,0,0,0-.68-1.65.61.61,0,0,0-.61-.26,3.42,3.42,0,0,0-1.68,1.1c0-.16,0-.33-.07-.47-.18-1.33-.3-2-.78-2.22a.82.82,0,0,0-.67,0l-.06,0c.09-.79.15-1.58.21-2.39a35.67,35.67,0,0,1,1-6.78Zm-3.72,19.4a16,16,0,0,1,.59-2.47c.13-.41.26-.84.38-1.31s.24-1.12.34-1.74.2-1.21.34-1.71c0-.12,0-.23.08-.35a.59.59,0,0,0,.32-.55,1.48,1.48,0,0,1,.33-.72c0,.28.1.6.13.84.18,1.25.28,1.94,1,1.94.39,0,.68-.3,1.09-.7a6.13,6.13,0,0,1,.75-.68,2.51,2.51,0,0,1,0,2.39.61.61,0,0,0,.2.76.57.57,0,0,0,.34.11.56.56,0,0,0,.44-.19,17.25,17.25,0,0,0,1.3-1.55,8.14,8.14,0,0,1,.9-1.08l.21.45a3.61,3.61,0,0,1,.46,1.4.6.6,0,0,0,.45.53.59.59,0,0,0,.65-.24,4.83,4.83,0,0,1,.37-.49,2.2,2.2,0,0,0,.39.67.62.62,0,0,0,.67.18.6.6,0,0,0,.4-.57,4.06,4.06,0,0,1,.94-2c0,.09.09.18.13.26a6.77,6.77,0,0,1,.41,1,.61.61,0,0,0,1.15.08c2.77-6.6,5.65-14.16,6.15-20.49a1.38,1.38,0,0,0,0-.74.61.61,0,0,0-1.2.1c0,.1,0,.19,0,.29a1.6,1.6,0,0,1-.34.1,10.81,10.81,0,0,0-.6-4.4.61.61,0,0,0-.58-.4.62.62,0,0,0-.57.43c-.08.27-.47.54-.85.77,0-.15-.07-.3-.1-.46-.1-.43-.19-.87-.33-1.32a.61.61,0,0,0-.68-.42c-1.64.27-3.34-.42-5.13-1.14a23.81,23.81,0,0,0-2.75-1c.71-1.8,1.34-3.64,1.94-5.44.38-1.13.76-2.27,1.17-3.4v0a.72.72,0,0,0,.25-.18.57.57,0,0,1,.44.26,3.6,3.6,0,0,1,.27.62,4,4,0,0,0,.43,1l.12.17a3.67,3.67,0,0,0,.86,1L71,78.94A18.67,18.67,0,0,0,74.64,81a22.31,22.31,0,0,0,3,.84,17.84,17.84,0,0,1,2.89.82,4.63,4.63,0,0,0,1.36.27c.21,0,.42.05.62.09a4.43,4.43,0,0,0,.81.07A8.93,8.93,0,0,0,84.54,83c1-.13,1.92-.3,2.87-.49a5.76,5.76,0,0,0,1.93-.67,6,6,0,0,0,1.57-1.61A5.79,5.79,0,0,1,92,79l.33-.22c.18-.12.37-.24.53-.37a5.33,5.33,0,0,0,.7-.74c.61-.75,1.14-1.41,1.66-2.07l1.13-1.41c2.41,7.34,4.88,15.68,5.61,19.1a52.87,52.87,0,0,1,.73,6.47l.06.79c.23,3.11.34,6.46.41,8.71.14,4.75.46,9.44.77,14,0,.75.09,1.48.14,2.23a23.09,23.09,0,0,1-5.39,1.13c-.59.08-1.2.15-1.83.25a58.12,58.12,0,0,1-8.34.57c-1.84,0-3.71-.17-5.52-.34s-3.33-.29-5-.42c-5.82-.47-11.32-.91-16.85-2.37-.58-.16-1.17-.36-1.77-.56a13.31,13.31,0,0,0-4.65-1c.06-.52.11-1,.16-1.56C55,120,55.13,118.81,55.3,117.64Zm-1.89,52.1a.74.74,0,0,1-.18,0,6.2,6.2,0,0,0-.72-.15c-5.48-.75-11.69-3.26-19-7.66a33.4,33.4,0,0,1-6.05-4.37c-5-5-9.26-12.65-11.92-21.49a34.76,34.76,0,0,1-1.29-6.95,14.63,14.63,0,0,1,.12-3.22,22.38,22.38,0,0,0,.19-2.64c0-.69,0-1.36,0-2a28.42,28.42,0,0,1,0-3.1A60.57,60.57,0,0,1,17,105.81l.12-.41c1.4-4.64,2.72-9,6.86-11.09a4.59,4.59,0,0,1,2.21-.22c.17.11.37.41.41,1.28.11,2.5-.87,4.61-1.91,6.86A30.2,30.2,0,0,0,23,106.29c-.11.38-.25.79-.38,1.22a26.38,26.38,0,0,0-.92,3.29c-2.33,13.31-.88,19.91.64,24.17.17.46.32.9.47,1.34a27.8,27.8,0,0,0,1.67,4.18c.38.72.69,1.48,1,2.21A13.38,13.38,0,0,0,27.94,147c.75.79,1.47,1.6,2.2,2.41a46.69,46.69,0,0,0,7.91,7.53c3.93,2.72,9.08,4.82,12.7,5.22a26.6,26.6,0,0,0,1,3.14,30.24,30.24,0,0,0,1.88,4.23C53.46,169.66,53.39,169.73,53.41,169.74ZM83,192.3c-.79.5-1.57,1-2.38,1.48a3,3,0,0,0-1,.81,3.18,3.18,0,0,0-.48,1.45l-.21,1.5A72.85,72.85,0,0,0,78,208a3.33,3.33,0,0,1-.43,1.63.61.61,0,0,1-.44,0,.33.33,0,0,1-.19-.17,1.14,1.14,0,0,1-.07-.33A4.43,4.43,0,0,0,77,208a.6.6,0,0,0-.56-.58.6.6,0,0,0-.64.5,5.73,5.73,0,0,0-.11,1.14,3.66,3.66,0,0,1-.6,1.28,1,1,0,0,1-.41.38.39.39,0,0,1-.29-.05.89.89,0,0,1-.41-.52,2,2,0,0,1,0-.24,6.65,6.65,0,0,0,.24-1.49.6.6,0,0,0-.49-.65.61.61,0,0,0-.7.43,6,6,0,0,0-.27,1.47,1.59,1.59,0,0,1-.55.47,1.53,1.53,0,0,1-1.13.33.46.46,0,0,1-.28-.28,2.58,2.58,0,0,1-.09-1.06c.07-2,.25-4.05.43-6.07s.36-4.14.43-6.14c0-.34,0-.68,0-1,0-1.68,0-3.13,1.12-4.22a3.87,3.87,0,0,1,.88-.5,5,5,0,0,0,.8-.41c1.08-.72,2.08-1.46,3-2.18s1.93-1.44,3-2.13a3.92,3.92,0,0,0,1.16-1,3.68,3.68,0,0,0,.44-1.06,3.2,3.2,0,0,1,.24-.62c1.59.43,2.41.66,4.89,1.37l1,.29a6.53,6.53,0,0,1,1.8.75c.23.7.44,1.28.63,1.81.06.17.12.32.18.47A30.4,30.4,0,0,0,83,192.3Zm28.44-22.85c-1.63,5.76-7.6,9.6-10.46,11.44l-.82.54a14.27,14.27,0,0,0-5.36-6.23c-.08,0-.21-.16-.4-.31a8.76,8.76,0,0,0,2-1.72l3.74-4a.6.6,0,1,0-.88-.83l-3.75,4a5.62,5.62,0,0,1-2.26,1.7c-.36-.26-.77-.54-1.22-.83a41.06,41.06,0,0,0-4.59-2.47c-1-.42-2.08-1-3.15-1.49s-2.2-1.09-3.21-1.51a.6.6,0,0,0-.47,1.11c1,.42,2.08,1,3.14,1.49S86,171.42,87,171.85a39,39,0,0,1,4.42,2.39c.47.3.9.6,1.28.87a.58.58,0,0,0,.23.18l.73.55c.24.19.41.33.5.39a13.26,13.26,0,0,1,5,5.84,13.92,13.92,0,0,1,1,3.55c.13.7.26,1.39.43,2,.24.91.52,1.77.8,2.62a26.61,26.61,0,0,1,1.09,4c.14.83.33,1.68.52,2.55a25.44,25.44,0,0,1,.76,4.79,5.67,5.67,0,0,0,.13,1c0,.12,0,.24.07.37a1.78,1.78,0,0,0,1.29,1.53c1.71.51,2.33,1.48,3,3.33a4.34,4.34,0,0,1,.27,2.34c-.08.21-.14.34-.75.1a1.87,1.87,0,0,1-.17-.41,2.12,2.12,0,0,0-1.11-1.45.6.6,0,0,0-.7,1c.8.94,1,1.67.71,2.17a1.35,1.35,0,0,1-.86.37,1.62,1.62,0,0,1-.3,0c-.25,0-.4,0-.41,0a1.94,1.94,0,0,0-.14-.76,2.26,2.26,0,0,0-.2-.62,3.77,3.77,0,0,0-.67-.91,3.55,3.55,0,0,0-1.06-.86.61.61,0,0,0-.63,1c.31.23.56.43.78.63a4.67,4.67,0,0,1,.61,1,1.78,1.78,0,0,1-.31,1.36c-.57.47-1.81-.29-2.32-.65a8.67,8.67,0,0,1-1.64-1.67,9.44,9.44,0,0,0-1.89-1.9l-.4-.27a4.44,4.44,0,0,1-1.36-1.18,4.77,4.77,0,0,1-.66-1.84c-.1-.82-.18-1.67-.26-2.53-.14-1.4-.28-2.84-.51-4.29a18.42,18.42,0,0,0-.42-1.85,15.85,15.85,0,0,1-.42-1.88c-.12-1-.28-1.85-.46-2.72-.09-.48-.19-1-.29-1.55a16.77,16.77,0,0,0-.9-3c-.19-.52-.4-1.09-.62-1.77s-1.56-1.24-2.62-1.54l-1-.29c-3.69-1-3.69-1-8.06-2.23l-.32-.09a94.27,94.27,0,0,1-12.49-4A24.34,24.34,0,0,1,61.9,175a8.54,8.54,0,0,0-1.94-.91,7.36,7.36,0,0,1-1.74-.82,13.17,13.17,0,0,1-3.09-3.52,23.73,23.73,0,0,1-2.31-4.93,31.53,31.53,0,0,1-1.74-12.65c.08-1.58.24-3.17.39-4.71s.32-3.16.4-4.77c.11-2,.39-4.15.66-6.19.11-.85.23-1.69.33-2.53.19-1.63.52-3.19.83-4.71.24-1.13.48-2.29.67-3.49.09-.56.16-1.14.23-1.71a11.6,11.6,0,0,1,4.4.87c.63.21,1.24.42,1.85.58a96.54,96.54,0,0,0,17.06,2.41c1.65.13,3.3.26,5,.42s3.65.34,5.5.34h.14a59.11,59.11,0,0,0,8.52-.58l1.8-.24a25.57,25.57,0,0,0,5.33-1.1c.6,9.2,1,18.08-.12,27.79a.64.64,0,0,0,.26.57.62.62,0,0,0,.62,0c.47-.24,1.29.16,2.26,1.09a31.75,31.75,0,0,1,3.79,4.53C111.87,162.27,111.94,167.62,111.42,169.45Z"/><path class="cls-1" d="M90,149.86a1.31,1.31,0,0,0,.15,1.4.72.72,0,0,0,.91,0C92.14,150.41,90.33,149.38,90,149.86Z"/><path class="cls-1" d="M262.47,128.67a25,25,0,0,0-4.68-5.23c-4.4-3.11-5.21-3.22-6.78-3.21h0a15.35,15.35,0,0,0-5.6-3.15,8.8,8.8,0,0,1-2.23-1,5.79,5.79,0,0,0-2.88-1.1l-2.84.07c-3.42.06-6.12.1-7.22.78a23.27,23.27,0,0,0-2.63,1.84,2.46,2.46,0,0,0-.87,2,3.16,3.16,0,0,0,.35,1.21c-1.29.83-1.87,2-2.64,3.67-.34.77-1.66,1.24-2.68,1.41a7.36,7.36,0,0,1-3.39-.31l-.14,0a.46.46,0,0,0-.54.34.46.46,0,0,0,.32.55l.11,0a1.39,1.39,0,0,1,.79.77c0,.1-.21.3-.7.61l-.11.08a.44.44,0,0,0-.2.49.46.46,0,0,0,.4.34c.41,0,.83.06,1.24.06a14.39,14.39,0,0,0,4.74-.81,6.1,6.1,0,0,0,2.44-2,25.83,25.83,0,0,0,2.2-3.51,8.9,8.9,0,0,0,3,.47,12.92,12.92,0,0,1,1.62.12c6.14,1.07,9.63,3,10.62,6l-.07,0c-.82.14-1.51.94-1.94,2.25-1.25,3.73-1.57,6.78-1,9.34.68,3,2.64,10.31,6.14,14,.89.94,1.77,2,2.1,2.35a39.11,39.11,0,0,1-.32,4.55c-.11,1.05-.22,2-.23,2.78a64.9,64.9,0,0,1-3.21,19l-.45,1.54a16.81,16.81,0,0,1-1.43,3.85,31.42,31.42,0,0,1-2.16,3.38,6.66,6.66,0,0,1-1.1,1,6.94,6.94,0,0,0-1.38,1.29,8.4,8.4,0,0,1-1.86,2.23c-6.72,3.68-11.16,5.16-17.71,3.42.34-1.36.16-3.35-1-4.32-.86-.72-2.66-2.2-4.4-1.47s-2.45,2.46-3.5,4.9l-.16.35c-4-1.88-8.07-4.08-10.78-7.29a28,28,0,0,1-4.59-6.67c-.54-1.17-1.1-2.26-1.65-3.32a37.27,37.27,0,0,1-2.73-6.24,78.93,78.93,0,0,1-2.21-9.33c-.15-.76-.29-1.54-.46-2.38-.21-1.08-.5-2.21-.77-3.29a31.07,31.07,0,0,1-1.22-7.26L185.72,130c.21-2.18.39-4.36.56-6.41s.32-3.74.48-5.37a23.66,23.66,0,0,0,.06-2.88,22.85,22.85,0,0,1,.06-2.61,11.27,11.27,0,0,1,.38-1.82,11.6,11.6,0,0,0,.43-2.07,22.73,22.73,0,0,1,1.35-5.27c.2-.6.42-1.23.63-1.9.07-.21.13-.46.2-.71a10.38,10.38,0,0,1,.44-1.36c.06-.14.15-.29.23-.45a9,9,0,0,0,.59-1.32,3.51,3.51,0,0,0,1.34.76,2.77,2.77,0,0,0,.8.13,2.93,2.93,0,0,0,2-1.06l.21-.2a5,5,0,0,0,1.37-2.07,6.56,6.56,0,0,0,.17-.67,48.2,48.2,0,0,1,4.83-.07h.25a11.22,11.22,0,0,1,0,1.44,6.37,6.37,0,0,0,.28,2.42,9,9,0,0,0,5.83,5c.29.08.56.12.83.17a.68.68,0,0,0,.27.07h0a9.9,9.9,0,0,0,1.58.15,5.91,5.91,0,0,0,3.33-.93c2.07-1.36,3.55-4.57,4.2-6.9,1.51-5.43.74-12.68-3.63-16a8.71,8.71,0,0,0-7.1-1.92,5.61,5.61,0,0,0-4.49,3.08A15,15,0,0,0,201,88.72c-1,0-3.15.16-4.27.16a.42.42,0,0,0-.12,0c-.08-.33-.16-.65-.25-1a7.29,7.29,0,0,0-1.24-2.88c-1.23-1.51-3.13-1.61-5-1.59a5.91,5.91,0,0,0-2,.32,6.64,6.64,0,0,0-1.74,1.11c-.24.2-.5.38-.76.56a5.43,5.43,0,0,0-2,2,8.53,8.53,0,0,0-.47,1.4c-.08.27-.16.54-.25.81a.17.17,0,0,0,0,.07l-.47,0c-.66-4.23-3-8.39-5.83-10a4.74,4.74,0,0,0-4.29-.46,6.3,6.3,0,0,1-1.81.54.68.68,0,0,0-.4.06c-2.49,1.31-3.88,5.08-3.46,6.84A11.25,11.25,0,0,0,164.72,94a8.5,8.5,0,0,0,3.23,6.5,2.38,2.38,0,0,1,.17.73,2.6,2.6,0,0,0,.42,1.28,8.8,8.8,0,0,1,.81,1.29,7,7,0,0,0,1.18,1.71,6.33,6.33,0,0,0,2.89,1.58c.31.08.62.19.93.28a6,6,0,0,0,3.69.39c0,6.15-.61,12.26-1.19,18.18-.31,3.26-.64,6.63-.87,10-.59,8.61-.06,20.62,1.45,32.94a64,64,0,0,0,1.89,9c.2.78.41,1.55.6,2.32l.24,1a36.66,36.66,0,0,0,2.48,7.56,27.88,27.88,0,0,0,6,7.9c.77.79,1.59,1.62,2.45,2.57,6.09,6.7,12.73,10.84,19.73,12.3a47,47,0,0,0,9.82,1.1,66.73,66.73,0,0,0,7.36-.48,10.41,10.41,0,0,0,3.08-1c.55-.25,1.07-.49,1.59-.67a7,7,0,0,1,1.33-.29,9.73,9.73,0,0,0,3.08-1,36.5,36.5,0,0,0,7.06-4.27c.52-.42,1-.78,1.48-1.12a12.78,12.78,0,0,0,3-2.64,93.6,93.6,0,0,0,9.52-15l.16-.3a7.45,7.45,0,0,0,.7-2.79,11,11,0,0,1,.45-2.4,26.48,26.48,0,0,0,.78-2.9,15.71,15.71,0,0,0,.14-4.7c-.09-1.27-.08-2.56-.07-3.8,0-.53,0-1.05,0-1.53,0-1.36-.14-2.6-.25-3.79-.1-.93-.19-1.87-.24-2.91a14.13,14.13,0,0,0-.58-3.18,10.14,10.14,0,0,0,2.28-2c3-3.17,3.36-9.06,3.4-10.79,0-.79,0-1.51.06-2.2a48.09,48.09,0,0,0-.13-7.13C264.37,131.74,263.94,130.68,262.47,128.67ZM226,125.53a5.27,5.27,0,0,1-2,1.65,13.39,13.39,0,0,1-4.4.76,1,1,0,0,0,.23-.83,1.12,1.12,0,0,0-.08-.26,6.94,6.94,0,0,0,2.18,0c.63-.11,2.74-.56,3.36-1.93.78-1.71,1.28-2.64,2.32-3.29a3.68,3.68,0,0,0,.54.5A24.8,24.8,0,0,1,226,125.53ZM214.15,81c3.95,3,4.6,9.72,3.2,14.75-.64,2.31-2,5.12-3.7,6.22a4.86,4.86,0,0,1-2.78.7,14,14,0,0,0,3.47-5.8,22.7,22.7,0,0,0,.88-8.05,10.94,10.94,0,0,0-.34-2.44,12,12,0,0,0-1-2.26,15,15,0,0,0-1.51-2.48A7.93,7.93,0,0,0,209,79.21,7.53,7.53,0,0,1,214.15,81Zm-9.83.85a5,5,0,0,1,1.88-2,6.93,6.93,0,0,1,5.22,2.54,13.62,13.62,0,0,1,1.39,2.28,11.2,11.2,0,0,1,.9,2,9.2,9.2,0,0,1,.29,2.15,21.33,21.33,0,0,1-.82,7.64,12.52,12.52,0,0,1-3.93,6c-.22,0-.43-.06-.67-.12a7.85,7.85,0,0,1-5-4.33,5.76,5.76,0,0,1-.19-2,10.93,10.93,0,0,0,0-1.52l1.41-.09a1.34,1.34,0,0,0,1.13-.53,1.26,1.26,0,0,0,.17-.76,15.41,15.41,0,0,0-.36-3.25,1.34,1.34,0,0,0-.53-.89,1.44,1.44,0,0,0-.7-.18l-2.24-.08A13.82,13.82,0,0,1,204.32,81.85Zm-3.09,8.07a.54.54,0,0,0,.22,0l3,.11h.05a.68.68,0,0,1,0,.12,14.37,14.37,0,0,1,.34,3v.06h-.17l-2.6.16c-1.71,0-3.25,0-4.86,0h0a14.23,14.23,0,0,0-.34-3.37C198.13,90.08,200.32,90,201.23,89.92Zm-16.95-.7a8,8,0,0,1,.41-1.2,4.5,4.5,0,0,1,1.63-1.58c.28-.19.56-.39.83-.6a5.79,5.79,0,0,1,1.42-.93,4.63,4.63,0,0,1,1.6-.23c1.66,0,3.11,0,4,1.14a6.26,6.26,0,0,1,1,2.41,17.73,17.73,0,0,1,.8,5.19,5.21,5.21,0,0,1-.26,1.55,3.68,3.68,0,0,1-1,1.57l-.23.21c-.76.7-1,.86-1.65.66a3,3,0,0,1-1.31-.93c.18-.7.26-1.19.4-2a4,4,0,0,0-.15-2.52,4,4,0,0,0-.61-.86c-.25-.29-.51-.6-.51-.82a.6.6,0,0,0-.17-.44.6.6,0,0,0-.44-.18c-2,0-4.05.06-5.89.11C184.18,89.56,184.24,89.39,184.28,89.22Zm-18.34,4.72a10,10,0,0,1,1.76-6.66.57.57,0,0,0,.28-.16.52.52,0,0,1,.56,0,2.34,2.34,0,0,1,.7.84,12.48,12.48,0,0,1,1.6,9.27,4.21,4.21,0,0,1-.75,1.66,2.72,2.72,0,0,1-1.67.4A7.26,7.26,0,0,1,165.94,93.94Zm4.34-6.56-.23-.38a2.66,2.66,0,0,1,1.81.43A4.79,4.79,0,0,1,173.07,90a22.73,22.73,0,0,1,.78,4.34,7.92,7.92,0,0,1-.76,4.1,1.76,1.76,0,0,1-.46.62,2.34,2.34,0,0,1-1,.25l-.42.05a6,6,0,0,0,.77-1.81A13.69,13.69,0,0,0,170.28,87.38Zm1.09,17.27a6,6,0,0,1-1-1.43,9.19,9.19,0,0,0-.93-1.46,2.8,2.8,0,0,1-.16-.7c0-.08,0-.17,0-.26h.14l2.4-.29a3.13,3.13,0,0,0,1.5-.46,2.8,2.8,0,0,0,.85-1,9.11,9.11,0,0,0,.89-4.72,24.36,24.36,0,0,0-.81-4.57,5.67,5.67,0,0,0-1.61-3.21A3.89,3.89,0,0,0,169,86a1.77,1.77,0,0,0-1.18-.1c.07-1.28.95-3.85,2.72-4.88a7.64,7.64,0,0,0,2.23-.62,2.87,2.87,0,0,1,.75-.2h0a13.4,13.4,0,0,1,2.75,4.29l1.27,2.88a17,17,0,0,1,1.38,5.09,19.25,19.25,0,0,1,0,3.31c0,.93-.09,1.86-.16,2.79a14,14,0,0,1-1,4.62,5.34,5.34,0,0,1-3.1,3h0c-.3-.09-.59-.19-.9-.27A5.12,5.12,0,0,1,171.37,104.65Zm5,2a7.09,7.09,0,0,0,2.46-3,14.93,14.93,0,0,0,1.08-5c.08-1,.13-1.89.17-2.83a20.71,20.71,0,0,0,0-3.52,18.43,18.43,0,0,0-1.48-5.43L177.33,84a16.75,16.75,0,0,0-2-3.53,3.6,3.6,0,0,1,.63.3c2.56,1.52,4.85,5.69,5.32,9.7a.6.6,0,0,0,.63.53c2.08-.09,5-.17,7.64-.19a4,4,0,0,0,.69,1,3.89,3.89,0,0,1,.45.6,3.23,3.23,0,0,1,0,1.87v.07a62,62,0,0,1-8.39,0,.6.6,0,0,0-.63.54s-.28,2.67-.47,4.14c-.28,2.24-.66,5.3-2.21,6.72A2.91,2.91,0,0,1,176.39,106.68Zm87.32,36.22c0,.69,0,1.42-.07,2.21-.07,3.34-.92,7.72-3.06,10a9.72,9.72,0,0,1-2,1.8.6.6,0,0,0-.59,0,.6.6,0,0,0-.21.78,11.18,11.18,0,0,1,.76,3.47c.05,1.06.15,2,.24,3,.12,1.22.23,2.37.24,3.68,0,.48,0,1,0,1.51,0,1.21,0,2.58.07,3.9a14.86,14.86,0,0,1-.12,4.38,24.8,24.8,0,0,1-.74,2.74,12.57,12.57,0,0,0-.51,2.65,6.25,6.25,0,0,1-.55,2.35l-.16.29a93.91,93.91,0,0,1-9.42,14.84,12.1,12.1,0,0,1-2.71,2.39c-.48.35-1,.72-1.52,1.15a35.31,35.31,0,0,1-6.84,4.12,8.06,8.06,0,0,1-2.73.87,8.72,8.72,0,0,0-1.54.34c-.58.2-1.15.46-1.7.71a9.66,9.66,0,0,1-2.71.92,47.6,47.6,0,0,1-16.81-.61C204.3,209,197.88,205,192,198.46c-.86-1-1.69-1.8-2.47-2.6-2.34-2.4-4.2-4.3-5.75-7.57a35,35,0,0,1-2.4-7.33l-.25-1c-.19-.78-.39-1.55-.6-2.34a66,66,0,0,1-1.86-8.87c-1.5-12.25-2-24.18-1.44-32.71.23-3.34.55-6.7.87-10a187.73,187.73,0,0,0,1.2-18.89,6.27,6.27,0,0,0,.53-.43c1.89-1.72,2.29-4.91,2.61-7.47.13-1.06.31-2.73.41-3.59,2.28.09,4.35.13,6.68,0a9.27,9.27,0,0,0,.68,1.09c0,.19-.12.4-.19.64a7,7,0,0,1-.51,1.15c-.1.19-.19.36-.26.52a12.08,12.08,0,0,0-.51,1.54c-.06.24-.13.47-.19.67-.21.65-.42,1.27-.62,1.87a24.21,24.21,0,0,0-1.41,5.55,10.74,10.74,0,0,1-.39,1.86,12.2,12.2,0,0,0-.41,2,21.44,21.44,0,0,0-.07,2.75,23.44,23.44,0,0,1-.06,2.75c-.16,1.62-.31,3.45-.48,5.37s-.35,4.23-.56,6.47l.33,23.94a32.33,32.33,0,0,0,1.27,7.54c.28,1.12.54,2.19.75,3.24.17.83.31,1.61.46,2.36a78.67,78.67,0,0,0,2.24,9.47,37.44,37.44,0,0,0,2.82,6.44c.53,1,1.09,2.12,1.61,3.26a29.89,29.89,0,0,0,4.77,7c3,3.54,7.42,5.87,11.77,7.86a.59.59,0,0,0,.47,0,.63.63,0,0,0,.34-.32l.4-.93c1-2.26,1.62-3.75,2.85-4.26.94-.39,2.08.38,3.17,1.28.91.75.84,2.74.46,3.54a.61.61,0,0,0,0,.51.59.59,0,0,0,.39.33c7.25,2.12,12.17.53,19.24-3.35a9.56,9.56,0,0,0,2.27-2.6,7.19,7.19,0,0,1,1.14-1,7.09,7.09,0,0,0,1.34-1.24,32.31,32.31,0,0,0,2.23-3.49,17.65,17.65,0,0,0,1.54-4.11c.14-.48.28-1,.44-1.51a66.19,66.19,0,0,0,3.26-19.36c0-.7.12-1.66.23-2.68a38.83,38.83,0,0,0,.32-4.92.55.55,0,0,0-.14-.37s-1.14-1.37-2.3-2.58c-3.28-3.45-5.17-10.53-5.83-13.41-.53-2.33-.22-5.18.95-8.69.35-1.06.79-1.4,1-1.44,0,0,.11,0,.22.11a.59.59,0,0,0,.71.18.6.6,0,0,0,.36-.64c-.56-4.15-4.44-6.8-11.85-8.08a12.57,12.57,0,0,0-1.77-.14l-1.24-.08a.64.64,0,0,0,.28-.24,1.31,1.31,0,0,0,.09-.26s.19-.12.25-.14a2,2,0,0,1,.44-.14,2.21,2.21,0,0,1,.57,0,1,1,0,0,1,.27.07l.07,0,.14.08a1.2,1.2,0,0,0,.59.11h2.46a.31.31,0,0,0,0-.61h-2.46a.8.8,0,0,1-.32,0l-.08,0-.11-.08a1.49,1.49,0,0,0-.49-.13,2.54,2.54,0,0,0-.73,0,3.39,3.39,0,0,0-.56.17,1,1,0,0,0-.6.48.91.91,0,0,0-.05.17.26.26,0,0,1-.11,0,2.39,2.39,0,0,1-1,.06.26.26,0,0,0-.23.06,1.63,1.63,0,0,1-.23-.11,2.28,2.28,0,0,1-1-1.65,1.25,1.25,0,0,1,.45-1,23.78,23.78,0,0,1,2.47-1.73,9.18,9.18,0,0,1,3.21-.51,8.88,8.88,0,0,0,0,.89,3.64,3.64,0,0,0-.44.07,1.5,1.5,0,0,0-1,.88.29.29,0,0,0,.18.38.2.2,0,0,0,.1,0,.3.3,0,0,0,.29-.2.93.93,0,0,1,.61-.5,3,3,0,0,1,1,0,4.61,4.61,0,0,1,1.07.18.3.3,0,0,0,.39-.18.31.31,0,0,0-.19-.39,4.26,4.26,0,0,0-1.08-.2c0-.31,0-.62,0-.93.8,0,1.65,0,2.49-.06l2.86-.07a5.29,5.29,0,0,1,2.23.94,9.47,9.47,0,0,0,2.57,1.18,14.85,14.85,0,0,1,5.24,3,.59.59,0,0,0,.4.15H251c1.21,0,1.82,0,6.07,3a25.63,25.63,0,0,1,4.4,4.95c1.34,1.83,1.69,2.66,2.09,6.56A45.56,45.56,0,0,1,263.71,142.9Z"/><path class="cls-1" d="M239.12,120.07a.3.3,0,0,0-.4-.15.32.32,0,0,0-.15.41.77.77,0,0,1,.06.28,4.32,4.32,0,0,1,0,.62,1,1,0,0,1-.14.49.27.27,0,0,0,.07.37.26.26,0,0,0,.19.07.4.4,0,0,0,.23-.08.22.22,0,0,0,.09-.17,1.72,1.72,0,0,0,.17-.63,4.27,4.27,0,0,0,0-.72A1.37,1.37,0,0,0,239.12,120.07Z"/><path class="cls-1" d="M246.23,136.75a2.67,2.67,0,0,0,.94-1.1A.45.45,0,0,0,247,135a.46.46,0,0,0-.62.17,2,2,0,0,1-.6.76.48.48,0,0,1-.35,0,.17.17,0,0,1-.1-.07.45.45,0,0,0-.61-.19.46.46,0,0,0-.19.62,1,1,0,0,0,.65.51,1.5,1.5,0,0,0,.37.05A1.33,1.33,0,0,0,246.23,136.75Z"/><path class="cls-1" d="M246.61,141a1.66,1.66,0,0,0,1.36-1.06.45.45,0,1,0-.85-.31.76.76,0,0,1-.6.46l-.13,0a.46.46,0,0,0-.5-.34.45.45,0,0,0-.4.5,1,1,0,0,0,1,.77Z"/><path class="cls-1" d="M249.4,144.35a1,1,0,0,0,.13-.59.15.15,0,0,1,.12-.1.46.46,0,0,0,.43-.48.45.45,0,0,0-.49-.43,1.05,1.05,0,0,0-1,.9.54.54,0,0,0,0,.18,1.87,1.87,0,0,1-1.63-.1.45.45,0,0,0-.62.17.46.46,0,0,0,.17.62,2.79,2.79,0,0,0,1.38.36,2.7,2.7,0,0,0,1-.21A.86.86,0,0,0,249.4,144.35Z"/><path class="cls-1" d="M252.2,148.3a.45.45,0,0,0-.63.13c-.31.47-1.18.39-1.55.33l-.09,0a.45.45,0,0,0-.83-.27.74.74,0,0,0,.19,1,1.21,1.21,0,0,0,.59.23,4.2,4.2,0,0,0,.69.06,2,2,0,0,0,1.76-.79A.45.45,0,0,0,252.2,148.3Z"/><path class="cls-1" d="M257.59,130.65a.58.58,0,0,0,.39-.44l.13-.78a.45.45,0,1,0-.89-.16l-.09.52a5.21,5.21,0,0,1-1.72-.13.45.45,0,0,0-.22.88,6,6,0,0,0,1.46.18A7.43,7.43,0,0,0,257.59,130.65Z"/><path class="cls-1" d="M260.35,135.77a.45.45,0,0,0,.38-.51.46.46,0,0,0-.51-.39,13.1,13.1,0,0,0-2.59.65,1.47,1.47,0,0,1-.9.15.46.46,0,0,0-.34.85,1.39,1.39,0,0,0,.52.09,3.29,3.29,0,0,0,1-.24A12.3,12.3,0,0,1,260.35,135.77Z"/><path class="cls-1" d="M261,140.75a.44.44,0,0,0-.44.46.25.25,0,0,1-.13.13,1.18,1.18,0,0,1-.52,0c-.52,0-.84-.14-1-.34a.45.45,0,1,0-.75.51,2.14,2.14,0,0,0,1.68.74h.23a1.69,1.69,0,0,0,.69-.13,1.08,1.08,0,0,0,.69-1A.45.45,0,0,0,261,140.75Z"/><path class="cls-1" d="M260.05,147.38l-.66.7-.16,0-.91-.19a.45.45,0,0,0-.53.36.45.45,0,0,0,.35.53l.91.19a1.49,1.49,0,0,0,.33,0,.92.92,0,0,0,.36-.07,1.28,1.28,0,0,0,.36-.27l.61-.64a.46.46,0,1,0-.66-.63Z"/><path class="cls-1" d="M233.46,89c-.22-.16-.68-.5-1.09-.21a1,1,0,0,0-.29.83v.11c0,.14-.06.28-.1.42a3.12,3.12,0,0,0-.13,1.24,1.82,1.82,0,0,0,.48,1,1.55,1.55,0,0,0,1.06.45,1.09,1.09,0,0,0,.72-.25,1.72,1.72,0,0,0,.49-1.41,2.51,2.51,0,0,0-.32-1.41A2.89,2.89,0,0,0,233.46,89Zm.08,2.85c-.12.1-.4,0-.56-.13a.81.81,0,0,1-.23-.47,2.15,2.15,0,0,1,.11-.88c0-.16.08-.32.11-.48s0-.07,0-.11h0a1.87,1.87,0,0,1,.53.46,1.81,1.81,0,0,1,.17.92C233.7,91.43,233.68,91.77,233.54,91.88Z"/><path class="cls-1" d="M240.32,105.21a2.55,2.55,0,0,0-.3.83,1.65,1.65,0,0,0,.27,1.16,1.1,1.1,0,0,0,.86.49h.11a1.26,1.26,0,0,0,.73-.45,4.71,4.71,0,0,0,1.2-1.82,2.08,2.08,0,0,0-.71-2.35.75.75,0,0,0-.72-.24,1,1,0,0,0-.55.57l.4.23-.41-.2Zm1.68-1.35h0a1.19,1.19,0,0,1,.31,1.3,3.91,3.91,0,0,1-1,1.46l-.17.16s-.07,0-.12-.11a.69.69,0,0,1-.12-.5,1.78,1.78,0,0,1,.21-.55Z"/><path class="cls-1" d="M227,106.44a2.52,2.52,0,0,0,.19.74,2.8,2.8,0,0,0,.43.6l.21.25a3,3,0,0,0,.29.32,1.42,1.42,0,0,0,.92.33,1.53,1.53,0,0,0,1-.36,1.78,1.78,0,0,0,.51-1.77,2.31,2.31,0,0,0-1.08-1.37,2,2,0,0,0-1.15-.22h-.23a1.91,1.91,0,0,1,0-.21c0-.08,0-.15,0-.21a.46.46,0,0,0-.87,0,4.76,4.76,0,0,0-.12,1.91Zm.9-.57h.44a1.24,1.24,0,0,1,.66.1,1.33,1.33,0,0,1,.66.81.88.88,0,0,1-.22.85.59.59,0,0,1-.72,0,1.63,1.63,0,0,1-.17-.2l-.07-.09-.18-.2a2.17,2.17,0,0,1-.29-.39,1.4,1.4,0,0,1-.1-.45h0c0-.16,0-.32,0-.47Z"/><path class="cls-1" d="M206.56,189a.6.6,0,0,0-.56.65.61.61,0,0,0,.66.56,1.55,1.55,0,0,1,1.36.6.62.62,0,0,0,.49.24.58.58,0,0,0,.36-.12A.61.61,0,0,0,209,190,2.8,2.8,0,0,0,206.56,189Z"/><path class="cls-1" d="M213.93,185.16a.61.61,0,0,0-.73.45A4,4,0,0,0,213,187a1.81,1.81,0,0,0,1,1.47.69.69,0,0,0,.24,0,.61.61,0,0,0,.24-1.17.61.61,0,0,1-.27-.48,3,3,0,0,1,.13-1A.61.61,0,0,0,213.93,185.16Z"/><path class="cls-1" d="M220.29,186.86a2.83,2.83,0,0,1-.47,1.65.61.61,0,0,0,.18.84.58.58,0,0,0,.33.1.63.63,0,0,0,.51-.27,4.12,4.12,0,0,0,.66-2.36.61.61,0,0,0-1.21,0Z"/></svg>